<?xml version="1.0" encoding="utf-8" standalone="no"?>
<!DOCTYPE svg PUBLIC "-//W3C//DTD SVG 1.1//EN"
  "http://www.w3.org/Graphics/SVG/1.1/DTD/svg11.dtd">
<svg xmlns:xlink="http://www.w3.org/1999/xlink" width="1183.296484pt" height="75.266437pt" viewBox="0 0 1183.296484 75.266437" xmlns="http://www.w3.org/2000/svg" version="1.1">
 <metadata>
  <rdf:RDF xmlns:dc="http://purl.org/dc/elements/1.1/" xmlns:cc="http://creativecommons.org/ns#" xmlns:rdf="http://www.w3.org/1999/02/22-rdf-syntax-ns#">
   <cc:Work>
    <dc:type rdf:resource="http://purl.org/dc/dcmitype/StillImage"/>
    <dc:date>2022-05-12T10:15:26.717099</dc:date>
    <dc:format>image/svg+xml</dc:format>
    <dc:creator>
     <cc:Agent>
      <dc:title>Matplotlib v3.5.1, https://matplotlib.org/</dc:title>
     </cc:Agent>
    </dc:creator>
   </cc:Work>
  </rdf:RDF>
 </metadata>
 <defs>
  <style type="text/css">*{stroke-linejoin: round; stroke-linecap: butt}</style>
 </defs>
 <g id="figure_1">
  <g id="patch_1">
   <path d="M 0 75.266437 
L 1183.296484 75.266437 
L 1183.296484 0 
L 0 0 
z
" style="fill: #ffffff"/>
  </g>
  <g id="axes_1">
   <g id="patch_2">
    <path d="M 103.384375 34.38 
L 1163.584375 34.38 
L 1163.584375 7.2 
L 103.384375 7.2 
z
" style="fill: #ffffff"/>
   </g>
   <g id="matplotlib.axis_1">
    <g id="xtick_1">
     <g id="line2d_1"/>
     <g id="text_1">
      <!-- 1 -->
      <g style="fill: #262626" transform="translate(101.714144 54.216719)scale(0.15 -0.15)">
       <defs>
        <path id="ArialMT-31" d="M 2384 0 
L 1822 0 
L 1822 3584 
Q 1619 3391 1289 3197 
Q 959 3003 697 2906 
L 697 3450 
Q 1169 3672 1522 3987 
Q 1875 4303 2022 4600 
L 2384 4600 
L 2384 0 
z
" transform="scale(0.015625)"/>
       </defs>
       <use xlink:href="#ArialMT-31"/>
      </g>
     </g>
    </g>
    <g id="xtick_2">
     <g id="line2d_2"/>
     <g id="text_2">
      <!-- 164 -->
      <g style="fill: #262626" transform="translate(500.949624 54.216719)scale(0.15 -0.15)">
       <defs>
        <path id="ArialMT-36" d="M 3184 3459 
L 2625 3416 
Q 2550 3747 2413 3897 
Q 2184 4138 1850 4138 
Q 1581 4138 1378 3988 
Q 1113 3794 959 3422 
Q 806 3050 800 2363 
Q 1003 2672 1297 2822 
Q 1591 2972 1913 2972 
Q 2475 2972 2870 2558 
Q 3266 2144 3266 1488 
Q 3266 1056 3080 686 
Q 2894 316 2569 119 
Q 2244 -78 1831 -78 
Q 1128 -78 684 439 
Q 241 956 241 2144 
Q 241 3472 731 4075 
Q 1159 4600 1884 4600 
Q 2425 4600 2770 4297 
Q 3116 3994 3184 3459 
z
M 888 1484 
Q 888 1194 1011 928 
Q 1134 663 1356 523 
Q 1578 384 1822 384 
Q 2178 384 2434 671 
Q 2691 959 2691 1453 
Q 2691 1928 2437 2201 
Q 2184 2475 1800 2475 
Q 1419 2475 1153 2201 
Q 888 1928 888 1484 
z
" transform="scale(0.015625)"/>
        <path id="ArialMT-34" d="M 2069 0 
L 2069 1097 
L 81 1097 
L 81 1613 
L 2172 4581 
L 2631 4581 
L 2631 1613 
L 3250 1613 
L 3250 1097 
L 2631 1097 
L 2631 0 
L 2069 0 
z
M 2069 1613 
L 2069 3678 
L 634 1613 
L 2069 1613 
z
" transform="scale(0.015625)"/>
       </defs>
       <use xlink:href="#ArialMT-31"/>
       <use xlink:href="#ArialMT-36" x="55.615234"/>
       <use xlink:href="#ArialMT-34" x="111.230469"/>
      </g>
     </g>
    </g>
    <g id="xtick_3">
     <g id="line2d_3"/>
     <g id="text_3">
      <!-- 344 -->
      <g style="fill: #262626" transform="translate(951.03453 54.216719)scale(0.15 -0.15)">
       <defs>
        <path id="ArialMT-33" d="M 269 1209 
L 831 1284 
Q 928 806 1161 595 
Q 1394 384 1728 384 
Q 2125 384 2398 659 
Q 2672 934 2672 1341 
Q 2672 1728 2419 1979 
Q 2166 2231 1775 2231 
Q 1616 2231 1378 2169 
L 1441 2663 
Q 1497 2656 1531 2656 
Q 1891 2656 2178 2843 
Q 2466 3031 2466 3422 
Q 2466 3731 2256 3934 
Q 2047 4138 1716 4138 
Q 1388 4138 1169 3931 
Q 950 3725 888 3313 
L 325 3413 
Q 428 3978 793 4289 
Q 1159 4600 1703 4600 
Q 2078 4600 2393 4439 
Q 2709 4278 2876 4000 
Q 3044 3722 3044 3409 
Q 3044 3113 2884 2869 
Q 2725 2625 2413 2481 
Q 2819 2388 3044 2092 
Q 3269 1797 3269 1353 
Q 3269 753 2831 336 
Q 2394 -81 1725 -81 
Q 1122 -81 723 278 
Q 325 638 269 1209 
z
" transform="scale(0.015625)"/>
       </defs>
       <use xlink:href="#ArialMT-33"/>
       <use xlink:href="#ArialMT-34" x="55.615234"/>
       <use xlink:href="#ArialMT-34" x="111.230469"/>
      </g>
     </g>
    </g>
    <g id="xtick_4">
     <g id="line2d_4"/>
     <g id="text_4">
      <!-- 424 -->
      <g style="fill: #262626" transform="translate(1151.072266 54.216719)scale(0.15 -0.15)">
       <defs>
        <path id="ArialMT-32" d="M 3222 541 
L 3222 0 
L 194 0 
Q 188 203 259 391 
Q 375 700 629 1000 
Q 884 1300 1366 1694 
Q 2113 2306 2375 2664 
Q 2638 3022 2638 3341 
Q 2638 3675 2398 3904 
Q 2159 4134 1775 4134 
Q 1369 4134 1125 3890 
Q 881 3647 878 3216 
L 300 3275 
Q 359 3922 746 4261 
Q 1134 4600 1788 4600 
Q 2447 4600 2831 4234 
Q 3216 3869 3216 3328 
Q 3216 3053 3103 2787 
Q 2991 2522 2730 2228 
Q 2469 1934 1863 1422 
Q 1356 997 1212 845 
Q 1069 694 975 541 
L 3222 541 
z
" transform="scale(0.015625)"/>
       </defs>
       <use xlink:href="#ArialMT-34"/>
       <use xlink:href="#ArialMT-32" x="55.615234"/>
       <use xlink:href="#ArialMT-34" x="111.230469"/>
      </g>
     </g>
    </g>
   </g>
   <g id="matplotlib.axis_2">
    <g id="ytick_1">
     <g id="line2d_5"/>
     <g id="text_5">
      <!-- Tubulin_1 -->
      <g style="fill: #262626" transform="translate(7.2 27.9775)scale(0.2 -0.2)">
       <defs>
        <path id="ArialMT-54" d="M 1659 0 
L 1659 4041 
L 150 4041 
L 150 4581 
L 3781 4581 
L 3781 4041 
L 2266 4041 
L 2266 0 
L 1659 0 
z
" transform="scale(0.015625)"/>
        <path id="ArialMT-75" d="M 2597 0 
L 2597 488 
Q 2209 -75 1544 -75 
Q 1250 -75 995 37 
Q 741 150 617 320 
Q 494 491 444 738 
Q 409 903 409 1263 
L 409 3319 
L 972 3319 
L 972 1478 
Q 972 1038 1006 884 
Q 1059 663 1231 536 
Q 1403 409 1656 409 
Q 1909 409 2131 539 
Q 2353 669 2445 892 
Q 2538 1116 2538 1541 
L 2538 3319 
L 3100 3319 
L 3100 0 
L 2597 0 
z
" transform="scale(0.015625)"/>
        <path id="ArialMT-62" d="M 941 0 
L 419 0 
L 419 4581 
L 981 4581 
L 981 2947 
Q 1338 3394 1891 3394 
Q 2197 3394 2470 3270 
Q 2744 3147 2920 2923 
Q 3097 2700 3197 2384 
Q 3297 2069 3297 1709 
Q 3297 856 2875 390 
Q 2453 -75 1863 -75 
Q 1275 -75 941 416 
L 941 0 
z
M 934 1684 
Q 934 1088 1097 822 
Q 1363 388 1816 388 
Q 2184 388 2453 708 
Q 2722 1028 2722 1663 
Q 2722 2313 2464 2622 
Q 2206 2931 1841 2931 
Q 1472 2931 1203 2611 
Q 934 2291 934 1684 
z
" transform="scale(0.015625)"/>
        <path id="ArialMT-6c" d="M 409 0 
L 409 4581 
L 972 4581 
L 972 0 
L 409 0 
z
" transform="scale(0.015625)"/>
        <path id="ArialMT-69" d="M 425 3934 
L 425 4581 
L 988 4581 
L 988 3934 
L 425 3934 
z
M 425 0 
L 425 3319 
L 988 3319 
L 988 0 
L 425 0 
z
" transform="scale(0.015625)"/>
        <path id="ArialMT-6e" d="M 422 0 
L 422 3319 
L 928 3319 
L 928 2847 
Q 1294 3394 1984 3394 
Q 2284 3394 2536 3286 
Q 2788 3178 2913 3003 
Q 3038 2828 3088 2588 
Q 3119 2431 3119 2041 
L 3119 0 
L 2556 0 
L 2556 2019 
Q 2556 2363 2490 2533 
Q 2425 2703 2258 2804 
Q 2091 2906 1866 2906 
Q 1506 2906 1245 2678 
Q 984 2450 984 1813 
L 984 0 
L 422 0 
z
" transform="scale(0.015625)"/>
        <path id="ArialMT-5f" d="M -97 -1272 
L -97 -866 
L 3631 -866 
L 3631 -1272 
L -97 -1272 
z
" transform="scale(0.015625)"/>
       </defs>
       <use xlink:href="#ArialMT-54"/>
       <use xlink:href="#ArialMT-75" x="57.333984"/>
       <use xlink:href="#ArialMT-62" x="112.949219"/>
       <use xlink:href="#ArialMT-75" x="168.564453"/>
       <use xlink:href="#ArialMT-6c" x="224.179688"/>
       <use xlink:href="#ArialMT-69" x="246.396484"/>
       <use xlink:href="#ArialMT-6e" x="268.613281"/>
       <use xlink:href="#ArialMT-5f" x="324.228516"/>
       <use xlink:href="#ArialMT-31" x="379.84375"/>
      </g>
     </g>
    </g>
   </g>
   <g id="PolyCollection_1">
    <path d="M 103.384375 34.38 
L 103.384375 7.2 
L 105.884847 7.2 
L 105.884847 34.38 
L 103.384375 34.38 
z
" clip-path="url(#p60e0716d17)" style="fill: #7272ff"/>
    <path d="M 105.884847 34.38 
L 105.884847 7.2 
L 108.385318 7.2 
L 108.385318 34.38 
L 105.884847 34.38 
z
" clip-path="url(#p60e0716d17)" style="fill: #8c8cff"/>
    <path d="M 108.385318 34.38 
L 108.385318 7.2 
L 110.88579 7.2 
L 110.88579 34.38 
L 108.385318 34.38 
z
" clip-path="url(#p60e0716d17)" style="fill: #2a2aff"/>
    <path d="M 110.88579 34.38 
L 110.88579 7.2 
L 113.386262 7.2 
L 113.386262 34.38 
L 110.88579 34.38 
z
" clip-path="url(#p60e0716d17)" style="fill: #ffb0b0"/>
    <path d="M 113.386262 34.38 
L 113.386262 7.2 
L 115.886733 7.2 
L 115.886733 34.38 
L 113.386262 34.38 
z
" clip-path="url(#p60e0716d17)" style="fill: #ffd4d4"/>
    <path d="M 115.886733 34.38 
L 115.886733 7.2 
L 118.387205 7.2 
L 118.387205 34.38 
L 115.886733 34.38 
z
" clip-path="url(#p60e0716d17)" style="fill: #ffecec"/>
    <path d="M 118.387205 34.38 
L 118.387205 7.2 
L 120.887677 7.2 
L 120.887677 34.38 
L 118.387205 34.38 
z
" clip-path="url(#p60e0716d17)" style="fill: #ffd6d6"/>
    <path d="M 120.887677 34.38 
L 120.887677 7.2 
L 123.388149 7.2 
L 123.388149 34.38 
L 120.887677 34.38 
z
" clip-path="url(#p60e0716d17)" style="fill: #ffbaba"/>
    <path d="M 123.388149 34.38 
L 123.388149 7.2 
L 125.88862 7.2 
L 125.88862 34.38 
L 123.388149 34.38 
z
" clip-path="url(#p60e0716d17)" style="fill: #ffd6d6"/>
    <path d="M 125.88862 34.38 
L 125.88862 7.2 
L 128.389092 7.2 
L 128.389092 34.38 
L 125.88862 34.38 
z
" clip-path="url(#p60e0716d17)" style="fill: #ffbaba"/>
    <path d="M 128.389092 34.38 
L 128.389092 7.2 
L 130.889564 7.2 
L 130.889564 34.38 
L 128.389092 34.38 
z
" clip-path="url(#p60e0716d17)" style="fill: #fff2f2"/>
    <path d="M 130.889564 34.38 
L 130.889564 7.2 
L 133.390035 7.2 
L 133.390035 34.38 
L 130.889564 34.38 
z
" clip-path="url(#p60e0716d17)" style="fill: #ffbcbc"/>
    <path d="M 133.390035 34.38 
L 133.390035 7.2 
L 135.890507 7.2 
L 135.890507 34.38 
L 133.390035 34.38 
z
" clip-path="url(#p60e0716d17)" style="fill: #ffe8e8"/>
    <path d="M 135.890507 34.38 
L 135.890507 7.2 
L 138.390979 7.2 
L 138.390979 34.38 
L 135.890507 34.38 
z
" clip-path="url(#p60e0716d17)" style="fill: #f4f4ff"/>
    <path d="M 138.390979 34.38 
L 138.390979 7.2 
L 140.89145 7.2 
L 140.89145 34.38 
L 138.390979 34.38 
z
" clip-path="url(#p60e0716d17)" style="fill: #c6c6ff"/>
    <path d="M 140.89145 34.38 
L 140.89145 7.2 
L 143.391922 7.2 
L 143.391922 34.38 
L 140.89145 34.38 
z
" clip-path="url(#p60e0716d17)" style="fill: #ffbaba"/>
    <path d="M 143.391922 34.38 
L 143.391922 7.2 
L 145.892394 7.2 
L 145.892394 34.38 
L 143.391922 34.38 
z
" clip-path="url(#p60e0716d17)" style="fill: #2a2aff"/>
    <path d="M 145.892394 34.38 
L 145.892394 7.2 
L 148.392866 7.2 
L 148.392866 34.38 
L 145.892394 34.38 
z
" clip-path="url(#p60e0716d17)" style="fill: #ffc2c2"/>
    <path d="M 148.392866 34.38 
L 148.392866 7.2 
L 150.893337 7.2 
L 150.893337 34.38 
L 148.392866 34.38 
z
" clip-path="url(#p60e0716d17)" style="fill: #ff9292"/>
    <path d="M 150.893337 34.38 
L 150.893337 7.2 
L 153.393809 7.2 
L 153.393809 34.38 
L 150.893337 34.38 
z
" clip-path="url(#p60e0716d17)" style="fill: #ff8080"/>
    <path d="M 153.393809 34.38 
L 153.393809 7.2 
L 155.894281 7.2 
L 155.894281 34.38 
L 153.393809 34.38 
z
" clip-path="url(#p60e0716d17)" style="fill: #ff8888"/>
    <path d="M 155.894281 34.38 
L 155.894281 7.2 
L 158.394752 7.2 
L 158.394752 34.38 
L 155.894281 34.38 
z
" clip-path="url(#p60e0716d17)" style="fill: #eaeaff"/>
    <path d="M 158.394752 34.38 
L 158.394752 7.2 
L 160.895224 7.2 
L 160.895224 34.38 
L 158.394752 34.38 
z
" clip-path="url(#p60e0716d17)" style="fill: #ffbebe"/>
    <path d="M 160.895224 34.38 
L 160.895224 7.2 
L 163.395696 7.2 
L 163.395696 34.38 
L 160.895224 34.38 
z
" clip-path="url(#p60e0716d17)" style="fill: #dadaff"/>
    <path d="M 163.395696 34.38 
L 163.395696 7.2 
L 165.896167 7.2 
L 165.896167 34.38 
L 163.395696 34.38 
z
" clip-path="url(#p60e0716d17)" style="fill: #ffc8c8"/>
    <path d="M 165.896167 34.38 
L 165.896167 7.2 
L 168.396639 7.2 
L 168.396639 34.38 
L 165.896167 34.38 
z
" clip-path="url(#p60e0716d17)" style="fill: #d4d4ff"/>
    <path d="M 168.396639 34.38 
L 168.396639 7.2 
L 170.897111 7.2 
L 170.897111 34.38 
L 168.396639 34.38 
z
" clip-path="url(#p60e0716d17)" style="fill: #c0c0ff"/>
    <path d="M 170.897111 34.38 
L 170.897111 7.2 
L 173.397583 7.2 
L 173.397583 34.38 
L 170.897111 34.38 
z
" clip-path="url(#p60e0716d17)" style="fill: #bebeff"/>
    <path d="M 173.397583 34.38 
L 173.397583 7.2 
L 175.898054 7.2 
L 175.898054 34.38 
L 173.397583 34.38 
z
" clip-path="url(#p60e0716d17)" style="fill: #ffcaca"/>
    <path d="M 175.898054 34.38 
L 175.898054 7.2 
L 178.398526 7.2 
L 178.398526 34.38 
L 175.898054 34.38 
z
" clip-path="url(#p60e0716d17)" style="fill: #e6e6ff"/>
    <path d="M 178.398526 34.38 
L 178.398526 7.2 
L 180.898998 7.2 
L 180.898998 34.38 
L 178.398526 34.38 
z
" clip-path="url(#p60e0716d17)" style="fill: #ff9292"/>
    <path d="M 180.898998 34.38 
L 180.898998 7.2 
L 183.399469 7.2 
L 183.399469 34.38 
L 180.898998 34.38 
z
" clip-path="url(#p60e0716d17)" style="fill: #ffcaca"/>
    <path d="M 183.399469 34.38 
L 183.399469 7.2 
L 185.899941 7.2 
L 185.899941 34.38 
L 183.399469 34.38 
z
" clip-path="url(#p60e0716d17)" style="fill: #ffc0c0"/>
    <path d="M 185.899941 34.38 
L 185.899941 7.2 
L 188.400413 7.2 
L 188.400413 34.38 
L 185.899941 34.38 
z
" clip-path="url(#p60e0716d17)" style="fill: #ff6e6e"/>
    <path d="M 188.400413 34.38 
L 188.400413 7.2 
L 190.900884 7.2 
L 190.900884 34.38 
L 188.400413 34.38 
z
" clip-path="url(#p60e0716d17)" style="fill: #ffb0b0"/>
    <path d="M 190.900884 34.38 
L 190.900884 7.2 
L 193.401356 7.2 
L 193.401356 34.38 
L 190.900884 34.38 
z
" clip-path="url(#p60e0716d17)" style="fill: #ffcaca"/>
    <path d="M 193.401356 34.38 
L 193.401356 7.2 
L 195.901828 7.2 
L 195.901828 34.38 
L 193.401356 34.38 
z
" clip-path="url(#p60e0716d17)" style="fill: #ffcece"/>
    <path d="M 195.901828 34.38 
L 195.901828 7.2 
L 198.4023 7.2 
L 198.4023 34.38 
L 195.901828 34.38 
z
" clip-path="url(#p60e0716d17)" style="fill: #ffc0c0"/>
    <path d="M 198.4023 34.38 
L 198.4023 7.2 
L 200.902771 7.2 
L 200.902771 34.38 
L 198.4023 34.38 
z
" clip-path="url(#p60e0716d17)" style="fill: #ff9a9a"/>
    <path d="M 200.902771 34.38 
L 200.902771 7.2 
L 203.403243 7.2 
L 203.403243 34.38 
L 200.902771 34.38 
z
" clip-path="url(#p60e0716d17)" style="fill: #ffc2c2"/>
    <path d="M 203.403243 34.38 
L 203.403243 7.2 
L 205.903715 7.2 
L 205.903715 34.38 
L 203.403243 34.38 
z
" clip-path="url(#p60e0716d17)" style="fill: #ffdcdc"/>
    <path d="M 205.903715 34.38 
L 205.903715 7.2 
L 208.404186 7.2 
L 208.404186 34.38 
L 205.903715 34.38 
z
" clip-path="url(#p60e0716d17)" style="fill: #ffd6d6"/>
    <path d="M 208.404186 34.38 
L 208.404186 7.2 
L 210.904658 7.2 
L 210.904658 34.38 
L 208.404186 34.38 
z
" clip-path="url(#p60e0716d17)" style="fill: #ffeeee"/>
    <path d="M 210.904658 34.38 
L 210.904658 7.2 
L 213.40513 7.2 
L 213.40513 34.38 
L 210.904658 34.38 
z
" clip-path="url(#p60e0716d17)" style="fill: #ffe2e2"/>
    <path d="M 213.40513 34.38 
L 213.40513 7.2 
L 215.905601 7.2 
L 215.905601 34.38 
L 213.40513 34.38 
z
" clip-path="url(#p60e0716d17)" style="fill: #ffdede"/>
    <path d="M 215.905601 34.38 
L 215.905601 7.2 
L 218.406073 7.2 
L 218.406073 34.38 
L 215.905601 34.38 
z
" clip-path="url(#p60e0716d17)" style="fill: #ff8888"/>
    <path d="M 218.406073 34.38 
L 218.406073 7.2 
L 220.906545 7.2 
L 220.906545 34.38 
L 218.406073 34.38 
z
" clip-path="url(#p60e0716d17)" style="fill: #ffacac"/>
    <path d="M 220.906545 34.38 
L 220.906545 7.2 
L 223.407017 7.2 
L 223.407017 34.38 
L 220.906545 34.38 
z
" clip-path="url(#p60e0716d17)" style="fill: #ffb8b8"/>
    <path d="M 223.407017 34.38 
L 223.407017 7.2 
L 225.907488 7.2 
L 225.907488 34.38 
L 223.407017 34.38 
z
" clip-path="url(#p60e0716d17)" style="fill: #ffbcbc"/>
    <path d="M 225.907488 34.38 
L 225.907488 7.2 
L 228.40796 7.2 
L 228.40796 34.38 
L 225.907488 34.38 
z
" clip-path="url(#p60e0716d17)" style="fill: #ff9494"/>
    <path d="M 228.40796 34.38 
L 228.40796 7.2 
L 230.908432 7.2 
L 230.908432 34.38 
L 228.40796 34.38 
z
" clip-path="url(#p60e0716d17)" style="fill: #ff9c9c"/>
    <path d="M 230.908432 34.38 
L 230.908432 7.2 
L 233.408903 7.2 
L 233.408903 34.38 
L 230.908432 34.38 
z
" clip-path="url(#p60e0716d17)" style="fill: #ff9090"/>
    <path d="M 233.408903 34.38 
L 233.408903 7.2 
L 235.909375 7.2 
L 235.909375 34.38 
L 233.408903 34.38 
z
" clip-path="url(#p60e0716d17)" style="fill: #ffdede"/>
    <path d="M 235.909375 34.38 
L 235.909375 7.2 
L 238.409847 7.2 
L 238.409847 34.38 
L 235.909375 34.38 
z
" clip-path="url(#p60e0716d17)" style="fill: #ffbcbc"/>
    <path d="M 238.409847 34.38 
L 238.409847 7.2 
L 240.910318 7.2 
L 240.910318 34.38 
L 238.409847 34.38 
z
" clip-path="url(#p60e0716d17)" style="fill: #ff7e7e"/>
    <path d="M 240.910318 34.38 
L 240.910318 7.2 
L 243.41079 7.2 
L 243.41079 34.38 
L 240.910318 34.38 
z
" clip-path="url(#p60e0716d17)" style="fill: #7c7cff"/>
    <path d="M 243.41079 34.38 
L 243.41079 7.2 
L 245.911262 7.2 
L 245.911262 34.38 
L 243.41079 34.38 
z
" clip-path="url(#p60e0716d17)" style="fill: #ff8080"/>
    <path d="M 245.911262 34.38 
L 245.911262 7.2 
L 248.411733 7.2 
L 248.411733 34.38 
L 245.911262 34.38 
z
" clip-path="url(#p60e0716d17)" style="fill: #ff8484"/>
    <path d="M 248.411733 34.38 
L 248.411733 7.2 
L 250.912205 7.2 
L 250.912205 34.38 
L 248.411733 34.38 
z
" clip-path="url(#p60e0716d17)" style="fill: #6c6cff"/>
    <path d="M 250.912205 34.38 
L 250.912205 7.2 
L 253.412677 7.2 
L 253.412677 34.38 
L 250.912205 34.38 
z
" clip-path="url(#p60e0716d17)" style="fill: #ffe8e8"/>
    <path d="M 253.412677 34.38 
L 253.412677 7.2 
L 255.913149 7.2 
L 255.913149 34.38 
L 253.412677 34.38 
z
" clip-path="url(#p60e0716d17)" style="fill: #dadaff"/>
    <path d="M 255.913149 34.38 
L 255.913149 7.2 
L 258.41362 7.2 
L 258.41362 34.38 
L 255.913149 34.38 
z
" clip-path="url(#p60e0716d17)" style="fill: #d8d8ff"/>
    <path d="M 258.41362 34.38 
L 258.41362 7.2 
L 260.914092 7.2 
L 260.914092 34.38 
L 258.41362 34.38 
z
" clip-path="url(#p60e0716d17)" style="fill: #ffe4e4"/>
    <path d="M 260.914092 34.38 
L 260.914092 7.2 
L 263.414564 7.2 
L 263.414564 34.38 
L 260.914092 34.38 
z
" clip-path="url(#p60e0716d17)" style="fill: #d8d8ff"/>
    <path d="M 263.414564 34.38 
L 263.414564 7.2 
L 265.915035 7.2 
L 265.915035 34.38 
L 263.414564 34.38 
z
" clip-path="url(#p60e0716d17)" style="fill: #ffc0c0"/>
    <path d="M 265.915035 34.38 
L 265.915035 7.2 
L 268.415507 7.2 
L 268.415507 34.38 
L 265.915035 34.38 
z
" clip-path="url(#p60e0716d17)" style="fill: #ff9292"/>
    <path d="M 268.415507 34.38 
L 268.415507 7.2 
L 270.915979 7.2 
L 270.915979 34.38 
L 268.415507 34.38 
z
" clip-path="url(#p60e0716d17)" style="fill: #ffc6c6"/>
    <path d="M 270.915979 34.38 
L 270.915979 7.2 
L 273.41645 7.2 
L 273.41645 34.38 
L 270.915979 34.38 
z
" clip-path="url(#p60e0716d17)" style="fill: #dcdcff"/>
    <path d="M 273.41645 34.38 
L 273.41645 7.2 
L 275.916922 7.2 
L 275.916922 34.38 
L 273.41645 34.38 
z
" clip-path="url(#p60e0716d17)" style="fill: #dedeff"/>
    <path d="M 275.916922 34.38 
L 275.916922 7.2 
L 278.417394 7.2 
L 278.417394 34.38 
L 275.916922 34.38 
z
" clip-path="url(#p60e0716d17)" style="fill: #e0e0ff"/>
    <path d="M 278.417394 34.38 
L 278.417394 7.2 
L 280.917866 7.2 
L 280.917866 34.38 
L 278.417394 34.38 
z
" clip-path="url(#p60e0716d17)" style="fill: #b2b2ff"/>
    <path d="M 280.917866 34.38 
L 280.917866 7.2 
L 283.418337 7.2 
L 283.418337 34.38 
L 280.917866 34.38 
z
" clip-path="url(#p60e0716d17)" style="fill: #acacff"/>
    <path d="M 283.418337 34.38 
L 283.418337 7.2 
L 285.918809 7.2 
L 285.918809 34.38 
L 283.418337 34.38 
z
" clip-path="url(#p60e0716d17)" style="fill: #a8a8ff"/>
    <path d="M 285.918809 34.38 
L 285.918809 7.2 
L 288.419281 7.2 
L 288.419281 34.38 
L 285.918809 34.38 
z
" clip-path="url(#p60e0716d17)" style="fill: #dcdcff"/>
    <path d="M 288.419281 34.38 
L 288.419281 7.2 
L 290.919752 7.2 
L 290.919752 34.38 
L 288.419281 34.38 
z
" clip-path="url(#p60e0716d17)" style="fill: #ff9898"/>
    <path d="M 290.919752 34.38 
L 290.919752 7.2 
L 293.420224 7.2 
L 293.420224 34.38 
L 290.919752 34.38 
z
" clip-path="url(#p60e0716d17)" style="fill: #ff9696"/>
    <path d="M 293.420224 34.38 
L 293.420224 7.2 
L 295.920696 7.2 
L 295.920696 34.38 
L 293.420224 34.38 
z
" clip-path="url(#p60e0716d17)" style="fill: #ffd0d0"/>
    <path d="M 295.920696 34.38 
L 295.920696 7.2 
L 298.421167 7.2 
L 298.421167 34.38 
L 295.920696 34.38 
z
" clip-path="url(#p60e0716d17)" style="fill: #ffa6a6"/>
    <path d="M 298.421167 34.38 
L 298.421167 7.2 
L 300.921639 7.2 
L 300.921639 34.38 
L 298.421167 34.38 
z
" clip-path="url(#p60e0716d17)" style="fill: #ffa2a2"/>
    <path d="M 300.921639 34.38 
L 300.921639 7.2 
L 303.422111 7.2 
L 303.422111 34.38 
L 300.921639 34.38 
z
" clip-path="url(#p60e0716d17)" style="fill: #ffa2a2"/>
    <path d="M 303.422111 34.38 
L 303.422111 7.2 
L 305.922583 7.2 
L 305.922583 34.38 
L 303.422111 34.38 
z
" clip-path="url(#p60e0716d17)" style="fill: #ff9090"/>
    <path d="M 305.922583 34.38 
L 305.922583 7.2 
L 308.423054 7.2 
L 308.423054 34.38 
L 305.922583 34.38 
z
" clip-path="url(#p60e0716d17)" style="fill: #ff9292"/>
    <path d="M 308.423054 34.38 
L 308.423054 7.2 
L 310.923526 7.2 
L 310.923526 34.38 
L 308.423054 34.38 
z
" clip-path="url(#p60e0716d17)" style="fill: #ff9292"/>
    <path d="M 310.923526 34.38 
L 310.923526 7.2 
L 313.423998 7.2 
L 313.423998 34.38 
L 310.923526 34.38 
z
" clip-path="url(#p60e0716d17)" style="fill: #ff9898"/>
    <path d="M 313.423998 34.38 
L 313.423998 7.2 
L 315.924469 7.2 
L 315.924469 34.38 
L 313.423998 34.38 
z
" clip-path="url(#p60e0716d17)" style="fill: #ffa4a4"/>
    <path d="M 315.924469 34.38 
L 315.924469 7.2 
L 318.424941 7.2 
L 318.424941 34.38 
L 315.924469 34.38 
z
" clip-path="url(#p60e0716d17)" style="fill: #ff9c9c"/>
    <path d="M 318.424941 34.38 
L 318.424941 7.2 
L 320.925413 7.2 
L 320.925413 34.38 
L 318.424941 34.38 
z
" clip-path="url(#p60e0716d17)" style="fill: #ffc8c8"/>
    <path d="M 320.925413 34.38 
L 320.925413 7.2 
L 323.425884 7.2 
L 323.425884 34.38 
L 320.925413 34.38 
z
" clip-path="url(#p60e0716d17)" style="fill: #ffdede"/>
    <path d="M 323.425884 34.38 
L 323.425884 7.2 
L 325.926356 7.2 
L 325.926356 34.38 
L 323.425884 34.38 
z
" clip-path="url(#p60e0716d17)" style="fill: #ffe6e6"/>
    <path d="M 325.926356 34.38 
L 325.926356 7.2 
L 328.426828 7.2 
L 328.426828 34.38 
L 325.926356 34.38 
z
" clip-path="url(#p60e0716d17)" style="fill: #ffb0b0"/>
    <path d="M 328.426828 34.38 
L 328.426828 7.2 
L 330.9273 7.2 
L 330.9273 34.38 
L 328.426828 34.38 
z
" clip-path="url(#p60e0716d17)" style="fill: #ffbebe"/>
    <path d="M 330.9273 34.38 
L 330.9273 7.2 
L 333.427771 7.2 
L 333.427771 34.38 
L 330.9273 34.38 
z
" clip-path="url(#p60e0716d17)" style="fill: #ffc0c0"/>
    <path d="M 333.427771 34.38 
L 333.427771 7.2 
L 335.928243 7.2 
L 335.928243 34.38 
L 333.427771 34.38 
z
" clip-path="url(#p60e0716d17)" style="fill: #ffc0c0"/>
    <path d="M 335.928243 34.38 
L 335.928243 7.2 
L 338.428715 7.2 
L 338.428715 34.38 
L 335.928243 34.38 
z
" clip-path="url(#p60e0716d17)" style="fill: #ffaeae"/>
    <path d="M 338.428715 34.38 
L 338.428715 7.2 
L 340.929186 7.2 
L 340.929186 34.38 
L 338.428715 34.38 
z
" clip-path="url(#p60e0716d17)" style="fill: #ffaeae"/>
    <path d="M 340.929186 34.38 
L 340.929186 7.2 
L 343.429658 7.2 
L 343.429658 34.38 
L 340.929186 34.38 
z
" clip-path="url(#p60e0716d17)" style="fill: #ffb0b0"/>
    <path d="M 343.429658 34.38 
L 343.429658 7.2 
L 345.93013 7.2 
L 345.93013 34.38 
L 343.429658 34.38 
z
" clip-path="url(#p60e0716d17)" style="fill: #ffb6b6"/>
    <path d="M 345.93013 34.38 
L 345.93013 7.2 
L 348.430601 7.2 
L 348.430601 34.38 
L 345.93013 34.38 
z
" clip-path="url(#p60e0716d17)" style="fill: #ffb4b4"/>
    <path d="M 348.430601 34.38 
L 348.430601 7.2 
L 350.931073 7.2 
L 350.931073 34.38 
L 348.430601 34.38 
z
" clip-path="url(#p60e0716d17)" style="fill: #ffb4b4"/>
    <path d="M 350.931073 34.38 
L 350.931073 7.2 
L 353.431545 7.2 
L 353.431545 34.38 
L 350.931073 34.38 
z
" clip-path="url(#p60e0716d17)" style="fill: #ceceff"/>
    <path d="M 353.431545 34.38 
L 353.431545 7.2 
L 355.932017 7.2 
L 355.932017 34.38 
L 353.431545 34.38 
z
" clip-path="url(#p60e0716d17)" style="fill: #cacaff"/>
    <path d="M 355.932017 34.38 
L 355.932017 7.2 
L 358.432488 7.2 
L 358.432488 34.38 
L 355.932017 34.38 
z
" clip-path="url(#p60e0716d17)" style="fill: #cacaff"/>
    <path d="M 358.432488 34.38 
L 358.432488 7.2 
L 360.93296 7.2 
L 360.93296 34.38 
L 358.432488 34.38 
z
" clip-path="url(#p60e0716d17)" style="fill: #b6b6ff"/>
    <path d="M 360.93296 34.38 
L 360.93296 7.2 
L 363.433432 7.2 
L 363.433432 34.38 
L 360.93296 34.38 
z
" clip-path="url(#p60e0716d17)" style="fill: #b4b4ff"/>
    <path d="M 363.433432 34.38 
L 363.433432 7.2 
L 365.933903 7.2 
L 365.933903 34.38 
L 363.433432 34.38 
z
" clip-path="url(#p60e0716d17)" style="fill: #b8b8ff"/>
    <path d="M 365.933903 34.38 
L 365.933903 7.2 
L 368.434375 7.2 
L 368.434375 34.38 
L 365.933903 34.38 
z
" clip-path="url(#p60e0716d17)" style="fill: #c0c0ff"/>
    <path d="M 368.434375 34.38 
L 368.434375 7.2 
L 370.934847 7.2 
L 370.934847 34.38 
L 368.434375 34.38 
z
" clip-path="url(#p60e0716d17)" style="fill: #c8c8ff"/>
    <path d="M 370.934847 34.38 
L 370.934847 7.2 
L 373.435318 7.2 
L 373.435318 34.38 
L 370.934847 34.38 
z
" clip-path="url(#p60e0716d17)" style="fill: #ffd4d4"/>
    <path d="M 373.435318 34.38 
L 373.435318 7.2 
L 375.93579 7.2 
L 375.93579 34.38 
L 373.435318 34.38 
z
" clip-path="url(#p60e0716d17)" style="fill: #ffd2d2"/>
    <path d="M 375.93579 34.38 
L 375.93579 7.2 
L 378.436262 7.2 
L 378.436262 34.38 
L 375.93579 34.38 
z
" clip-path="url(#p60e0716d17)" style="fill: #ffd4d4"/>
    <path d="M 378.436262 34.38 
L 378.436262 7.2 
L 380.936733 7.2 
L 380.936733 34.38 
L 378.436262 34.38 
z
" clip-path="url(#p60e0716d17)" style="fill: #ffb6b6"/>
    <path d="M 380.936733 34.38 
L 380.936733 7.2 
L 383.437205 7.2 
L 383.437205 34.38 
L 380.936733 34.38 
z
" clip-path="url(#p60e0716d17)" style="fill: #ffaeae"/>
    <path d="M 383.437205 34.38 
L 383.437205 7.2 
L 385.937677 7.2 
L 385.937677 34.38 
L 383.437205 34.38 
z
" clip-path="url(#p60e0716d17)" style="fill: #ffb6b6"/>
    <path d="M 385.937677 34.38 
L 385.937677 7.2 
L 388.438149 7.2 
L 388.438149 34.38 
L 385.937677 34.38 
z
" clip-path="url(#p60e0716d17)" style="fill: #ffd4d4"/>
    <path d="M 388.438149 34.38 
L 388.438149 7.2 
L 390.93862 7.2 
L 390.93862 34.38 
L 388.438149 34.38 
z
" clip-path="url(#p60e0716d17)" style="fill: #ffd0d0"/>
    <path d="M 390.93862 34.38 
L 390.93862 7.2 
L 393.439092 7.2 
L 393.439092 34.38 
L 390.93862 34.38 
z
" clip-path="url(#p60e0716d17)" style="fill: #ffd4d4"/>
    <path d="M 393.439092 34.38 
L 393.439092 7.2 
L 395.939564 7.2 
L 395.939564 34.38 
L 393.439092 34.38 
z
" clip-path="url(#p60e0716d17)" style="fill: #ff9898"/>
    <path d="M 395.939564 34.38 
L 395.939564 7.2 
L 398.440035 7.2 
L 398.440035 34.38 
L 395.939564 34.38 
z
" clip-path="url(#p60e0716d17)" style="fill: #ffa8a8"/>
    <path d="M 398.440035 34.38 
L 398.440035 7.2 
L 400.940507 7.2 
L 400.940507 34.38 
L 398.440035 34.38 
z
" clip-path="url(#p60e0716d17)" style="fill: #ff9a9a"/>
    <path d="M 400.940507 34.38 
L 400.940507 7.2 
L 403.440979 7.2 
L 403.440979 34.38 
L 400.940507 34.38 
z
" clip-path="url(#p60e0716d17)" style="fill: #9494ff"/>
    <path d="M 403.440979 34.38 
L 403.440979 7.2 
L 405.94145 7.2 
L 405.94145 34.38 
L 403.440979 34.38 
z
" clip-path="url(#p60e0716d17)" style="fill: #9898ff"/>
    <path d="M 405.94145 34.38 
L 405.94145 7.2 
L 408.441922 7.2 
L 408.441922 34.38 
L 405.94145 34.38 
z
" clip-path="url(#p60e0716d17)" style="fill: #9292ff"/>
    <path d="M 408.441922 34.38 
L 408.441922 7.2 
L 410.942394 7.2 
L 410.942394 34.38 
L 408.441922 34.38 
z
" clip-path="url(#p60e0716d17)" style="fill: #c4c4ff"/>
    <path d="M 410.942394 34.38 
L 410.942394 7.2 
L 413.442866 7.2 
L 413.442866 34.38 
L 410.942394 34.38 
z
" clip-path="url(#p60e0716d17)" style="fill: #c8c8ff"/>
    <path d="M 413.442866 34.38 
L 413.442866 7.2 
L 415.943337 7.2 
L 415.943337 34.38 
L 413.442866 34.38 
z
" clip-path="url(#p60e0716d17)" style="fill: #cacaff"/>
    <path d="M 415.943337 34.38 
L 415.943337 7.2 
L 418.443809 7.2 
L 418.443809 34.38 
L 415.943337 34.38 
z
" clip-path="url(#p60e0716d17)" style="fill: #9e9eff"/>
    <path d="M 418.443809 34.38 
L 418.443809 7.2 
L 420.944281 7.2 
L 420.944281 34.38 
L 418.443809 34.38 
z
" clip-path="url(#p60e0716d17)" style="fill: #aeaeff"/>
    <path d="M 420.944281 34.38 
L 420.944281 7.2 
L 423.444752 7.2 
L 423.444752 34.38 
L 420.944281 34.38 
z
" clip-path="url(#p60e0716d17)" style="fill: #a4a4ff"/>
    <path d="M 423.444752 34.38 
L 423.444752 7.2 
L 425.945224 7.2 
L 425.945224 34.38 
L 423.444752 34.38 
z
" clip-path="url(#p60e0716d17)" style="fill: #bebeff"/>
    <path d="M 425.945224 34.38 
L 425.945224 7.2 
L 428.445696 7.2 
L 428.445696 34.38 
L 425.945224 34.38 
z
" clip-path="url(#p60e0716d17)" style="fill: #bebeff"/>
    <path d="M 428.445696 34.38 
L 428.445696 7.2 
L 430.946167 7.2 
L 430.946167 34.38 
L 428.445696 34.38 
z
" clip-path="url(#p60e0716d17)" style="fill: #bebeff"/>
    <path d="M 430.946167 34.38 
L 430.946167 7.2 
L 433.446639 7.2 
L 433.446639 34.38 
L 430.946167 34.38 
z
" clip-path="url(#p60e0716d17)" style="fill: #ffdede"/>
    <path d="M 433.446639 34.38 
L 433.446639 7.2 
L 435.947111 7.2 
L 435.947111 34.38 
L 433.446639 34.38 
z
" clip-path="url(#p60e0716d17)" style="fill: #ffdcdc"/>
    <path d="M 435.947111 34.38 
L 435.947111 7.2 
L 438.447583 7.2 
L 438.447583 34.38 
L 435.947111 34.38 
z
" clip-path="url(#p60e0716d17)" style="fill: #ffdcdc"/>
    <path d="M 438.447583 34.38 
L 438.447583 7.2 
L 440.948054 7.2 
L 440.948054 34.38 
L 438.447583 34.38 
z
" clip-path="url(#p60e0716d17)" style="fill: #ffd6d6"/>
    <path d="M 440.948054 34.38 
L 440.948054 7.2 
L 443.448526 7.2 
L 443.448526 34.38 
L 440.948054 34.38 
z
" clip-path="url(#p60e0716d17)" style="fill: #ffd6d6"/>
    <path d="M 443.448526 34.38 
L 443.448526 7.2 
L 445.948998 7.2 
L 445.948998 34.38 
L 443.448526 34.38 
z
" clip-path="url(#p60e0716d17)" style="fill: #ffd6d6"/>
    <path d="M 445.948998 34.38 
L 445.948998 7.2 
L 448.449469 7.2 
L 448.449469 34.38 
L 445.948998 34.38 
z
" clip-path="url(#p60e0716d17)" style="fill: #ffd0d0"/>
    <path d="M 448.449469 34.38 
L 448.449469 7.2 
L 450.949941 7.2 
L 450.949941 34.38 
L 448.449469 34.38 
z
" clip-path="url(#p60e0716d17)" style="fill: #ffcece"/>
    <path d="M 450.949941 34.38 
L 450.949941 7.2 
L 453.450413 7.2 
L 453.450413 34.38 
L 450.949941 34.38 
z
" clip-path="url(#p60e0716d17)" style="fill: #ffd0d0"/>
    <path d="M 453.450413 34.38 
L 453.450413 7.2 
L 455.950884 7.2 
L 455.950884 34.38 
L 453.450413 34.38 
z
" clip-path="url(#p60e0716d17)" style="fill: #ffa2a2"/>
    <path d="M 455.950884 34.38 
L 455.950884 7.2 
L 458.451356 7.2 
L 458.451356 34.38 
L 455.950884 34.38 
z
" clip-path="url(#p60e0716d17)" style="fill: #ff9c9c"/>
    <path d="M 458.451356 34.38 
L 458.451356 7.2 
L 460.951828 7.2 
L 460.951828 34.38 
L 458.451356 34.38 
z
" clip-path="url(#p60e0716d17)" style="fill: #ffa4a4"/>
    <path d="M 460.951828 34.38 
L 460.951828 7.2 
L 463.4523 7.2 
L 463.4523 34.38 
L 460.951828 34.38 
z
" clip-path="url(#p60e0716d17)" style="fill: #ffc0c0"/>
    <path d="M 463.4523 34.38 
L 463.4523 7.2 
L 465.952771 7.2 
L 465.952771 34.38 
L 463.4523 34.38 
z
" clip-path="url(#p60e0716d17)" style="fill: #ffc8c8"/>
    <path d="M 465.952771 34.38 
L 465.952771 7.2 
L 468.453243 7.2 
L 468.453243 34.38 
L 465.952771 34.38 
z
" clip-path="url(#p60e0716d17)" style="fill: #ffc2c2"/>
    <path d="M 468.453243 34.38 
L 468.453243 7.2 
L 470.953715 7.2 
L 470.953715 34.38 
L 468.453243 34.38 
z
" clip-path="url(#p60e0716d17)" style="fill: #ffc0c0"/>
    <path d="M 470.953715 34.38 
L 470.953715 7.2 
L 473.454186 7.2 
L 473.454186 34.38 
L 470.953715 34.38 
z
" clip-path="url(#p60e0716d17)" style="fill: #ffb8b8"/>
    <path d="M 473.454186 34.38 
L 473.454186 7.2 
L 475.954658 7.2 
L 475.954658 34.38 
L 473.454186 34.38 
z
" clip-path="url(#p60e0716d17)" style="fill: #ffb8b8"/>
    <path d="M 475.954658 34.38 
L 475.954658 7.2 
L 478.45513 7.2 
L 478.45513 34.38 
L 475.954658 34.38 
z
" clip-path="url(#p60e0716d17)" style="fill: #ff9494"/>
    <path d="M 478.45513 34.38 
L 478.45513 7.2 
L 480.955601 7.2 
L 480.955601 34.38 
L 478.45513 34.38 
z
" clip-path="url(#p60e0716d17)" style="fill: #ff9898"/>
    <path d="M 480.955601 34.38 
L 480.955601 7.2 
L 483.456073 7.2 
L 483.456073 34.38 
L 480.955601 34.38 
z
" clip-path="url(#p60e0716d17)" style="fill: #ff9696"/>
    <path d="M 483.456073 34.38 
L 483.456073 7.2 
L 485.956545 7.2 
L 485.956545 34.38 
L 483.456073 34.38 
z
" clip-path="url(#p60e0716d17)" style="fill: #ff9292"/>
    <path d="M 485.956545 34.38 
L 485.956545 7.2 
L 488.457017 7.2 
L 488.457017 34.38 
L 485.956545 34.38 
z
" clip-path="url(#p60e0716d17)" style="fill: #ff9090"/>
    <path d="M 488.457017 34.38 
L 488.457017 7.2 
L 490.957488 7.2 
L 490.957488 34.38 
L 488.457017 34.38 
z
" clip-path="url(#p60e0716d17)" style="fill: #ffbcbc"/>
    <path d="M 490.957488 34.38 
L 490.957488 7.2 
L 493.45796 7.2 
L 493.45796 34.38 
L 490.957488 34.38 
z
" clip-path="url(#p60e0716d17)" style="fill: #ffb6b6"/>
    <path d="M 493.45796 34.38 
L 493.45796 7.2 
L 495.958432 7.2 
L 495.958432 34.38 
L 493.45796 34.38 
z
" clip-path="url(#p60e0716d17)" style="fill: #ffb8b8"/>
    <path d="M 495.958432 34.38 
L 495.958432 7.2 
L 498.458903 7.2 
L 498.458903 34.38 
L 495.958432 34.38 
z
" clip-path="url(#p60e0716d17)" style="fill: #ff9a9a"/>
    <path d="M 498.458903 34.38 
L 498.458903 7.2 
L 500.959375 7.2 
L 500.959375 34.38 
L 498.458903 34.38 
z
" clip-path="url(#p60e0716d17)" style="fill: #ff9292"/>
    <path d="M 500.959375 34.38 
L 500.959375 7.2 
L 503.459847 7.2 
L 503.459847 34.38 
L 500.959375 34.38 
z
" clip-path="url(#p60e0716d17)" style="fill: #ff9898"/>
    <path d="M 503.459847 34.38 
L 503.459847 7.2 
L 505.960318 7.2 
L 505.960318 34.38 
L 503.459847 34.38 
z
" clip-path="url(#p60e0716d17)" style="fill: #ff9898"/>
    <path d="M 505.960318 34.38 
L 505.960318 7.2 
L 508.46079 7.2 
L 508.46079 34.38 
L 505.960318 34.38 
z
" clip-path="url(#p60e0716d17)" style="fill: #ff9292"/>
    <path d="M 508.46079 34.38 
L 508.46079 7.2 
L 510.961262 7.2 
L 510.961262 34.38 
L 508.46079 34.38 
z
" clip-path="url(#p60e0716d17)" style="fill: #ff9494"/>
    <path d="M 510.961262 34.38 
L 510.961262 7.2 
L 513.461733 7.2 
L 513.461733 34.38 
L 510.961262 34.38 
z
" clip-path="url(#p60e0716d17)" style="fill: #7a7aff"/>
    <path d="M 513.461733 34.38 
L 513.461733 7.2 
L 515.962205 7.2 
L 515.962205 34.38 
L 513.461733 34.38 
z
" clip-path="url(#p60e0716d17)" style="fill: #8c8cff"/>
    <path d="M 515.962205 34.38 
L 515.962205 7.2 
L 518.462677 7.2 
L 518.462677 34.38 
L 515.962205 34.38 
z
" clip-path="url(#p60e0716d17)" style="fill: #9090ff"/>
    <path d="M 518.462677 34.38 
L 518.462677 7.2 
L 520.963149 7.2 
L 520.963149 34.38 
L 518.462677 34.38 
z
" clip-path="url(#p60e0716d17)" style="fill: #3434ff"/>
    <path d="M 520.963149 34.38 
L 520.963149 7.2 
L 523.46362 7.2 
L 523.46362 34.38 
L 520.963149 34.38 
z
" clip-path="url(#p60e0716d17)" style="fill: #ff7474"/>
    <path d="M 523.46362 34.38 
L 523.46362 7.2 
L 525.964092 7.2 
L 525.964092 34.38 
L 523.46362 34.38 
z
" clip-path="url(#p60e0716d17)" style="fill: #ffcccc"/>
    <path d="M 525.964092 34.38 
L 525.964092 7.2 
L 528.464564 7.2 
L 528.464564 34.38 
L 525.964092 34.38 
z
" clip-path="url(#p60e0716d17)" style="fill: #ff9898"/>
    <path d="M 528.464564 34.38 
L 528.464564 7.2 
L 530.965035 7.2 
L 530.965035 34.38 
L 528.464564 34.38 
z
" clip-path="url(#p60e0716d17)" style="fill: #ff9a9a"/>
    <path d="M 530.965035 34.38 
L 530.965035 7.2 
L 533.465507 7.2 
L 533.465507 34.38 
L 530.965035 34.38 
z
" clip-path="url(#p60e0716d17)" style="fill: #ffc0c0"/>
    <path d="M 533.465507 34.38 
L 533.465507 7.2 
L 535.965979 7.2 
L 535.965979 34.38 
L 533.465507 34.38 
z
" clip-path="url(#p60e0716d17)" style="fill: #ffb6b6"/>
    <path d="M 535.965979 34.38 
L 535.965979 7.2 
L 538.46645 7.2 
L 538.46645 34.38 
L 535.965979 34.38 
z
" clip-path="url(#p60e0716d17)" style="fill: #ffcaca"/>
    <path d="M 538.46645 34.38 
L 538.46645 7.2 
L 540.966922 7.2 
L 540.966922 34.38 
L 538.46645 34.38 
z
" clip-path="url(#p60e0716d17)" style="fill: #ff8a8a"/>
    <path d="M 540.966922 34.38 
L 540.966922 7.2 
L 543.467394 7.2 
L 543.467394 34.38 
L 540.966922 34.38 
z
" clip-path="url(#p60e0716d17)" style="fill: #ffdada"/>
    <path d="M 543.467394 34.38 
L 543.467394 7.2 
L 545.967866 7.2 
L 545.967866 34.38 
L 543.467394 34.38 
z
" clip-path="url(#p60e0716d17)" style="fill: #ffa8a8"/>
    <path d="M 545.967866 34.38 
L 545.967866 7.2 
L 548.468337 7.2 
L 548.468337 34.38 
L 545.967866 34.38 
z
" clip-path="url(#p60e0716d17)" style="fill: #fff4f4"/>
    <path d="M 548.468337 34.38 
L 548.468337 7.2 
L 550.968809 7.2 
L 550.968809 34.38 
L 548.468337 34.38 
z
" clip-path="url(#p60e0716d17)" style="fill: #ffeaea"/>
    <path d="M 550.968809 34.38 
L 550.968809 7.2 
L 553.469281 7.2 
L 553.469281 34.38 
L 550.968809 34.38 
z
" clip-path="url(#p60e0716d17)" style="fill: #f4f4ff"/>
    <path d="M 553.469281 34.38 
L 553.469281 7.2 
L 555.969752 7.2 
L 555.969752 34.38 
L 553.469281 34.38 
z
" clip-path="url(#p60e0716d17)" style="fill: #ececff"/>
    <path d="M 555.969752 34.38 
L 555.969752 7.2 
L 558.470224 7.2 
L 558.470224 34.38 
L 555.969752 34.38 
z
" clip-path="url(#p60e0716d17)" style="fill: #fffefe"/>
    <path d="M 558.470224 34.38 
L 558.470224 7.2 
L 560.970696 7.2 
L 560.970696 34.38 
L 558.470224 34.38 
z
" clip-path="url(#p60e0716d17)" style="fill: #ececff"/>
    <path d="M 560.970696 34.38 
L 560.970696 7.2 
L 563.471167 7.2 
L 563.471167 34.38 
L 560.970696 34.38 
z
" clip-path="url(#p60e0716d17)" style="fill: #e2e2ff"/>
    <path d="M 563.471167 34.38 
L 563.471167 7.2 
L 565.971639 7.2 
L 565.971639 34.38 
L 563.471167 34.38 
z
" clip-path="url(#p60e0716d17)" style="fill: #dadaff"/>
    <path d="M 565.971639 34.38 
L 565.971639 7.2 
L 568.472111 7.2 
L 568.472111 34.38 
L 565.971639 34.38 
z
" clip-path="url(#p60e0716d17)" style="fill: #d2d2ff"/>
    <path d="M 568.472111 34.38 
L 568.472111 7.2 
L 570.972583 7.2 
L 570.972583 34.38 
L 568.472111 34.38 
z
" clip-path="url(#p60e0716d17)" style="fill: #eeeeff"/>
    <path d="M 570.972583 34.38 
L 570.972583 7.2 
L 573.473054 7.2 
L 573.473054 34.38 
L 570.972583 34.38 
z
" clip-path="url(#p60e0716d17)" style="fill: #dedeff"/>
    <path d="M 573.473054 34.38 
L 573.473054 7.2 
L 575.973526 7.2 
L 575.973526 34.38 
L 573.473054 34.38 
z
" clip-path="url(#p60e0716d17)" style="fill: #eaeaff"/>
    <path d="M 575.973526 34.38 
L 575.973526 7.2 
L 578.473998 7.2 
L 578.473998 34.38 
L 575.973526 34.38 
z
" clip-path="url(#p60e0716d17)" style="fill: #eaeaff"/>
    <path d="M 578.473998 34.38 
L 578.473998 7.2 
L 580.974469 7.2 
L 580.974469 34.38 
L 578.473998 34.38 
z
" clip-path="url(#p60e0716d17)" style="fill: #e0e0ff"/>
    <path d="M 580.974469 34.38 
L 580.974469 7.2 
L 583.474941 7.2 
L 583.474941 34.38 
L 580.974469 34.38 
z
" clip-path="url(#p60e0716d17)" style="fill: #d2d2ff"/>
    <path d="M 583.474941 34.38 
L 583.474941 7.2 
L 585.975413 7.2 
L 585.975413 34.38 
L 583.474941 34.38 
z
" clip-path="url(#p60e0716d17)" style="fill: #c0c0ff"/>
    <path d="M 585.975413 34.38 
L 585.975413 7.2 
L 588.475884 7.2 
L 588.475884 34.38 
L 585.975413 34.38 
z
" clip-path="url(#p60e0716d17)" style="fill: #c2c2ff"/>
    <path d="M 588.475884 34.38 
L 588.475884 7.2 
L 590.976356 7.2 
L 590.976356 34.38 
L 588.475884 34.38 
z
" clip-path="url(#p60e0716d17)" style="fill: #ffdada"/>
    <path d="M 590.976356 34.38 
L 590.976356 7.2 
L 593.476828 7.2 
L 593.476828 34.38 
L 590.976356 34.38 
z
" clip-path="url(#p60e0716d17)" style="fill: #ffbebe"/>
    <path d="M 593.476828 34.38 
L 593.476828 7.2 
L 595.9773 7.2 
L 595.9773 34.38 
L 593.476828 34.38 
z
" clip-path="url(#p60e0716d17)" style="fill: #ff7c7c"/>
    <path d="M 595.9773 34.38 
L 595.9773 7.2 
L 598.477771 7.2 
L 598.477771 34.38 
L 595.9773 34.38 
z
" clip-path="url(#p60e0716d17)" style="fill: #ffdada"/>
    <path d="M 598.477771 34.38 
L 598.477771 7.2 
L 600.978243 7.2 
L 600.978243 34.38 
L 598.477771 34.38 
z
" clip-path="url(#p60e0716d17)" style="fill: #ffb4b4"/>
    <path d="M 600.978243 34.38 
L 600.978243 7.2 
L 603.478715 7.2 
L 603.478715 34.38 
L 600.978243 34.38 
z
" clip-path="url(#p60e0716d17)" style="fill: #ff2626"/>
    <path d="M 603.478715 34.38 
L 603.478715 7.2 
L 605.979186 7.2 
L 605.979186 34.38 
L 603.478715 34.38 
z
" clip-path="url(#p60e0716d17)" style="fill: #ffb4b4"/>
    <path d="M 605.979186 34.38 
L 605.979186 7.2 
L 608.479658 7.2 
L 608.479658 34.38 
L 605.979186 34.38 
z
" clip-path="url(#p60e0716d17)" style="fill: #ffacac"/>
    <path d="M 608.479658 34.38 
L 608.479658 7.2 
L 610.98013 7.2 
L 610.98013 34.38 
L 608.479658 34.38 
z
" clip-path="url(#p60e0716d17)" style="fill: #ffc2c2"/>
    <path d="M 610.98013 34.38 
L 610.98013 7.2 
L 613.480601 7.2 
L 613.480601 34.38 
L 610.98013 34.38 
z
" clip-path="url(#p60e0716d17)" style="fill: #ffa4a4"/>
    <path d="M 613.480601 34.38 
L 613.480601 7.2 
L 615.981073 7.2 
L 615.981073 34.38 
L 613.480601 34.38 
z
" clip-path="url(#p60e0716d17)" style="fill: #ff9090"/>
    <path d="M 615.981073 34.38 
L 615.981073 7.2 
L 618.481545 7.2 
L 618.481545 34.38 
L 615.981073 34.38 
z
" clip-path="url(#p60e0716d17)" style="fill: #ffa8a8"/>
    <path d="M 618.481545 34.38 
L 618.481545 7.2 
L 620.982017 7.2 
L 620.982017 34.38 
L 618.481545 34.38 
z
" clip-path="url(#p60e0716d17)" style="fill: #ffc2c2"/>
    <path d="M 620.982017 34.38 
L 620.982017 7.2 
L 623.482488 7.2 
L 623.482488 34.38 
L 620.982017 34.38 
z
" clip-path="url(#p60e0716d17)" style="fill: #ff9292"/>
    <path d="M 623.482488 34.38 
L 623.482488 7.2 
L 625.98296 7.2 
L 625.98296 34.38 
L 623.482488 34.38 
z
" clip-path="url(#p60e0716d17)" style="fill: #ff8e8e"/>
    <path d="M 625.98296 34.38 
L 625.98296 7.2 
L 628.483432 7.2 
L 628.483432 34.38 
L 625.98296 34.38 
z
" clip-path="url(#p60e0716d17)" style="fill: #ff5e5e"/>
    <path d="M 628.483432 34.38 
L 628.483432 7.2 
L 630.983903 7.2 
L 630.983903 34.38 
L 628.483432 34.38 
z
" clip-path="url(#p60e0716d17)" style="fill: #ffdada"/>
    <path d="M 630.983903 34.38 
L 630.983903 7.2 
L 633.484375 7.2 
L 633.484375 34.38 
L 630.983903 34.38 
z
" clip-path="url(#p60e0716d17)" style="fill: #ffdcdc"/>
    <path d="M 633.484375 34.38 
L 633.484375 7.2 
L 635.984847 7.2 
L 635.984847 34.38 
L 633.484375 34.38 
z
" clip-path="url(#p60e0716d17)" style="fill: #fff2f2"/>
    <path d="M 635.984847 34.38 
L 635.984847 7.2 
L 638.485318 7.2 
L 638.485318 34.38 
L 635.984847 34.38 
z
" clip-path="url(#p60e0716d17)" style="fill: #ffeaea"/>
    <path d="M 638.485318 34.38 
L 638.485318 7.2 
L 640.98579 7.2 
L 640.98579 34.38 
L 638.485318 34.38 
z
" clip-path="url(#p60e0716d17)" style="fill: #ffa8a8"/>
    <path d="M 640.98579 34.38 
L 640.98579 7.2 
L 643.486262 7.2 
L 643.486262 34.38 
L 640.98579 34.38 
z
" clip-path="url(#p60e0716d17)" style="fill: #ffb0b0"/>
    <path d="M 643.486262 34.38 
L 643.486262 7.2 
L 645.986733 7.2 
L 645.986733 34.38 
L 643.486262 34.38 
z
" clip-path="url(#p60e0716d17)" style="fill: #ff6060"/>
    <path d="M 645.986733 34.38 
L 645.986733 7.2 
L 648.487205 7.2 
L 648.487205 34.38 
L 645.986733 34.38 
z
" clip-path="url(#p60e0716d17)" style="fill: #ff7878"/>
    <path d="M 648.487205 34.38 
L 648.487205 7.2 
L 650.987677 7.2 
L 650.987677 34.38 
L 648.487205 34.38 
z
" clip-path="url(#p60e0716d17)" style="fill: #ff7272"/>
    <path d="M 650.987677 34.38 
L 650.987677 7.2 
L 653.488149 7.2 
L 653.488149 34.38 
L 650.987677 34.38 
z
" clip-path="url(#p60e0716d17)" style="fill: #ffb6b6"/>
    <path d="M 653.488149 34.38 
L 653.488149 7.2 
L 655.98862 7.2 
L 655.98862 34.38 
L 653.488149 34.38 
z
" clip-path="url(#p60e0716d17)" style="fill: #ff5a5a"/>
    <path d="M 655.98862 34.38 
L 655.98862 7.2 
L 658.489092 7.2 
L 658.489092 34.38 
L 655.98862 34.38 
z
" clip-path="url(#p60e0716d17)" style="fill: #ffa8a8"/>
    <path d="M 658.489092 34.38 
L 658.489092 7.2 
L 660.989564 7.2 
L 660.989564 34.38 
L 658.489092 34.38 
z
" clip-path="url(#p60e0716d17)" style="fill: #ffdcdc"/>
    <path d="M 660.989564 34.38 
L 660.989564 7.2 
L 663.490035 7.2 
L 663.490035 34.38 
L 660.989564 34.38 
z
" clip-path="url(#p60e0716d17)" style="fill: #ffd4d4"/>
    <path d="M 663.490035 34.38 
L 663.490035 7.2 
L 665.990507 7.2 
L 665.990507 34.38 
L 663.490035 34.38 
z
" clip-path="url(#p60e0716d17)" style="fill: #ffc0c0"/>
    <path d="M 665.990507 34.38 
L 665.990507 7.2 
L 668.490979 7.2 
L 668.490979 34.38 
L 665.990507 34.38 
z
" clip-path="url(#p60e0716d17)" style="fill: #ffa8a8"/>
    <path d="M 668.490979 34.38 
L 668.490979 7.2 
L 670.99145 7.2 
L 670.99145 34.38 
L 668.490979 34.38 
z
" clip-path="url(#p60e0716d17)" style="fill: #ffa4a4"/>
    <path d="M 670.99145 34.38 
L 670.99145 7.2 
L 673.491922 7.2 
L 673.491922 34.38 
L 670.99145 34.38 
z
" clip-path="url(#p60e0716d17)" style="fill: #ffaaaa"/>
    <path d="M 673.491922 34.38 
L 673.491922 7.2 
L 675.992394 7.2 
L 675.992394 34.38 
L 673.491922 34.38 
z
" clip-path="url(#p60e0716d17)" style="fill: #ff8686"/>
    <path d="M 675.992394 34.38 
L 675.992394 7.2 
L 678.492866 7.2 
L 678.492866 34.38 
L 675.992394 34.38 
z
" clip-path="url(#p60e0716d17)" style="fill: #ff8686"/>
    <path d="M 678.492866 34.38 
L 678.492866 7.2 
L 680.993337 7.2 
L 680.993337 34.38 
L 678.492866 34.38 
z
" clip-path="url(#p60e0716d17)" style="fill: #ff1010"/>
    <path d="M 680.993337 34.38 
L 680.993337 7.2 
L 683.493809 7.2 
L 683.493809 34.38 
L 680.993337 34.38 
z
" clip-path="url(#p60e0716d17)" style="fill: #ff1010"/>
    <path d="M 683.493809 34.38 
L 683.493809 7.2 
L 685.994281 7.2 
L 685.994281 34.38 
L 683.493809 34.38 
z
" clip-path="url(#p60e0716d17)" style="fill: #acacff"/>
    <path d="M 685.994281 34.38 
L 685.994281 7.2 
L 688.494752 7.2 
L 688.494752 34.38 
L 685.994281 34.38 
z
" clip-path="url(#p60e0716d17)" style="fill: #acacff"/>
    <path d="M 688.494752 34.38 
L 688.494752 7.2 
L 690.995224 7.2 
L 690.995224 34.38 
L 688.494752 34.38 
z
" clip-path="url(#p60e0716d17)" style="fill: #d8d8ff"/>
    <path d="M 690.995224 34.38 
L 690.995224 7.2 
L 693.495696 7.2 
L 693.495696 34.38 
L 690.995224 34.38 
z
" clip-path="url(#p60e0716d17)" style="fill: #d8d8ff"/>
    <path d="M 693.495696 34.38 
L 693.495696 7.2 
L 695.996167 7.2 
L 695.996167 34.38 
L 693.495696 34.38 
z
" clip-path="url(#p60e0716d17)" style="fill: #d8d8ff"/>
    <path d="M 695.996167 34.38 
L 695.996167 7.2 
L 698.496639 7.2 
L 698.496639 34.38 
L 695.996167 34.38 
z
" clip-path="url(#p60e0716d17)" style="fill: #8484ff"/>
    <path d="M 698.496639 34.38 
L 698.496639 7.2 
L 700.997111 7.2 
L 700.997111 34.38 
L 698.496639 34.38 
z
" clip-path="url(#p60e0716d17)" style="fill: #a0a0ff"/>
    <path d="M 700.997111 34.38 
L 700.997111 7.2 
L 703.497583 7.2 
L 703.497583 34.38 
L 700.997111 34.38 
z
" clip-path="url(#p60e0716d17)" style="fill: #9e9eff"/>
    <path d="M 703.497583 34.38 
L 703.497583 7.2 
L 705.998054 7.2 
L 705.998054 34.38 
L 703.497583 34.38 
z
" clip-path="url(#p60e0716d17)" style="fill: #dedeff"/>
    <path d="M 705.998054 34.38 
L 705.998054 7.2 
L 708.498526 7.2 
L 708.498526 34.38 
L 705.998054 34.38 
z
" clip-path="url(#p60e0716d17)" style="fill: #dadaff"/>
    <path d="M 708.498526 34.38 
L 708.498526 7.2 
L 710.998998 7.2 
L 710.998998 34.38 
L 708.498526 34.38 
z
" clip-path="url(#p60e0716d17)" style="fill: #dadaff"/>
    <path d="M 710.998998 34.38 
L 710.998998 7.2 
L 713.499469 7.2 
L 713.499469 34.38 
L 710.998998 34.38 
z
" clip-path="url(#p60e0716d17)" style="fill: #ff8484"/>
    <path d="M 713.499469 34.38 
L 713.499469 7.2 
L 715.999941 7.2 
L 715.999941 34.38 
L 713.499469 34.38 
z
" clip-path="url(#p60e0716d17)" style="fill: #ff8686"/>
    <path d="M 715.999941 34.38 
L 715.999941 7.2 
L 718.500413 7.2 
L 718.500413 34.38 
L 715.999941 34.38 
z
" clip-path="url(#p60e0716d17)" style="fill: #ff8888"/>
    <path d="M 718.500413 34.38 
L 718.500413 7.2 
L 721.000884 7.2 
L 721.000884 34.38 
L 718.500413 34.38 
z
" clip-path="url(#p60e0716d17)" style="fill: #ff9292"/>
    <path d="M 721.000884 34.38 
L 721.000884 7.2 
L 723.501356 7.2 
L 723.501356 34.38 
L 721.000884 34.38 
z
" clip-path="url(#p60e0716d17)" style="fill: #ffc6c6"/>
    <path d="M 723.501356 34.38 
L 723.501356 7.2 
L 726.001828 7.2 
L 726.001828 34.38 
L 723.501356 34.38 
z
" clip-path="url(#p60e0716d17)" style="fill: #ffb4b4"/>
    <path d="M 726.001828 34.38 
L 726.001828 7.2 
L 728.5023 7.2 
L 728.5023 34.38 
L 726.001828 34.38 
z
" clip-path="url(#p60e0716d17)" style="fill: #ffacac"/>
    <path d="M 728.5023 34.38 
L 728.5023 7.2 
L 731.002771 7.2 
L 731.002771 34.38 
L 728.5023 34.38 
z
" clip-path="url(#p60e0716d17)" style="fill: #ffaaaa"/>
    <path d="M 731.002771 34.38 
L 731.002771 7.2 
L 733.503243 7.2 
L 733.503243 34.38 
L 731.002771 34.38 
z
" clip-path="url(#p60e0716d17)" style="fill: #ffa8a8"/>
    <path d="M 733.503243 34.38 
L 733.503243 7.2 
L 736.003715 7.2 
L 736.003715 34.38 
L 733.503243 34.38 
z
" clip-path="url(#p60e0716d17)" style="fill: #ff8484"/>
    <path d="M 736.003715 34.38 
L 736.003715 7.2 
L 738.504186 7.2 
L 738.504186 34.38 
L 736.003715 34.38 
z
" clip-path="url(#p60e0716d17)" style="fill: #ff9090"/>
    <path d="M 738.504186 34.38 
L 738.504186 7.2 
L 741.004658 7.2 
L 741.004658 34.38 
L 738.504186 34.38 
z
" clip-path="url(#p60e0716d17)" style="fill: #ff9090"/>
    <path d="M 741.004658 34.38 
L 741.004658 7.2 
L 743.50513 7.2 
L 743.50513 34.38 
L 741.004658 34.38 
z
" clip-path="url(#p60e0716d17)" style="fill: #ff9e9e"/>
    <path d="M 743.50513 34.38 
L 743.50513 7.2 
L 746.005601 7.2 
L 746.005601 34.38 
L 743.50513 34.38 
z
" clip-path="url(#p60e0716d17)" style="fill: #ffa8a8"/>
    <path d="M 746.005601 34.38 
L 746.005601 7.2 
L 748.506073 7.2 
L 748.506073 34.38 
L 746.005601 34.38 
z
" clip-path="url(#p60e0716d17)" style="fill: #ffc4c4"/>
    <path d="M 748.506073 34.38 
L 748.506073 7.2 
L 751.006545 7.2 
L 751.006545 34.38 
L 748.506073 34.38 
z
" clip-path="url(#p60e0716d17)" style="fill: #ffd2d2"/>
    <path d="M 751.006545 34.38 
L 751.006545 7.2 
L 753.507017 7.2 
L 753.507017 34.38 
L 751.006545 34.38 
z
" clip-path="url(#p60e0716d17)" style="fill: #ff9c9c"/>
    <path d="M 753.507017 34.38 
L 753.507017 7.2 
L 756.007488 7.2 
L 756.007488 34.38 
L 753.507017 34.38 
z
" clip-path="url(#p60e0716d17)" style="fill: #ff9e9e"/>
    <path d="M 756.007488 34.38 
L 756.007488 7.2 
L 758.50796 7.2 
L 758.50796 34.38 
L 756.007488 34.38 
z
" clip-path="url(#p60e0716d17)" style="fill: #ffc6c6"/>
    <path d="M 758.50796 34.38 
L 758.50796 7.2 
L 761.008432 7.2 
L 761.008432 34.38 
L 758.50796 34.38 
z
" clip-path="url(#p60e0716d17)" style="fill: #ffc4c4"/>
    <path d="M 761.008432 34.38 
L 761.008432 7.2 
L 763.508903 7.2 
L 763.508903 34.38 
L 761.008432 34.38 
z
" clip-path="url(#p60e0716d17)" style="fill: #ffc4c4"/>
    <path d="M 763.508903 34.38 
L 763.508903 7.2 
L 766.009375 7.2 
L 766.009375 34.38 
L 763.508903 34.38 
z
" clip-path="url(#p60e0716d17)" style="fill: #ff8c8c"/>
    <path d="M 766.009375 34.38 
L 766.009375 7.2 
L 768.509847 7.2 
L 768.509847 34.38 
L 766.009375 34.38 
z
" clip-path="url(#p60e0716d17)" style="fill: #ffa4a4"/>
    <path d="M 768.509847 34.38 
L 768.509847 7.2 
L 771.010318 7.2 
L 771.010318 34.38 
L 768.509847 34.38 
z
" clip-path="url(#p60e0716d17)" style="fill: #ffa0a0"/>
    <path d="M 771.010318 34.38 
L 771.010318 7.2 
L 773.51079 7.2 
L 773.51079 34.38 
L 771.010318 34.38 
z
" clip-path="url(#p60e0716d17)" style="fill: #ffbcbc"/>
    <path d="M 773.51079 34.38 
L 773.51079 7.2 
L 776.011262 7.2 
L 776.011262 34.38 
L 773.51079 34.38 
z
" clip-path="url(#p60e0716d17)" style="fill: #ffc0c0"/>
    <path d="M 776.011262 34.38 
L 776.011262 7.2 
L 778.511733 7.2 
L 778.511733 34.38 
L 776.011262 34.38 
z
" clip-path="url(#p60e0716d17)" style="fill: #ffc4c4"/>
    <path d="M 778.511733 34.38 
L 778.511733 7.2 
L 781.012205 7.2 
L 781.012205 34.38 
L 778.511733 34.38 
z
" clip-path="url(#p60e0716d17)" style="fill: #ccccff"/>
    <path d="M 781.012205 34.38 
L 781.012205 7.2 
L 783.512677 7.2 
L 783.512677 34.38 
L 781.012205 34.38 
z
" clip-path="url(#p60e0716d17)" style="fill: #ccccff"/>
    <path d="M 783.512677 34.38 
L 783.512677 7.2 
L 786.013149 7.2 
L 786.013149 34.38 
L 783.512677 34.38 
z
" clip-path="url(#p60e0716d17)" style="fill: #ccccff"/>
    <path d="M 786.013149 34.38 
L 786.013149 7.2 
L 788.51362 7.2 
L 788.51362 34.38 
L 786.013149 34.38 
z
" clip-path="url(#p60e0716d17)" style="fill: #9898ff"/>
    <path d="M 788.51362 34.38 
L 788.51362 7.2 
L 791.014092 7.2 
L 791.014092 34.38 
L 788.51362 34.38 
z
" clip-path="url(#p60e0716d17)" style="fill: #a8a8ff"/>
    <path d="M 791.014092 34.38 
L 791.014092 7.2 
L 793.514564 7.2 
L 793.514564 34.38 
L 791.014092 34.38 
z
" clip-path="url(#p60e0716d17)" style="fill: #acacff"/>
    <path d="M 793.514564 34.38 
L 793.514564 7.2 
L 796.015035 7.2 
L 796.015035 34.38 
L 793.514564 34.38 
z
" clip-path="url(#p60e0716d17)" style="fill: #cacaff"/>
    <path d="M 796.015035 34.38 
L 796.015035 7.2 
L 798.515507 7.2 
L 798.515507 34.38 
L 796.015035 34.38 
z
" clip-path="url(#p60e0716d17)" style="fill: #bcbcff"/>
    <path d="M 798.515507 34.38 
L 798.515507 7.2 
L 801.015979 7.2 
L 801.015979 34.38 
L 798.515507 34.38 
z
" clip-path="url(#p60e0716d17)" style="fill: #b8b8ff"/>
    <path d="M 801.015979 34.38 
L 801.015979 7.2 
L 803.51645 7.2 
L 803.51645 34.38 
L 801.015979 34.38 
z
" clip-path="url(#p60e0716d17)" style="fill: #ffa6a6"/>
    <path d="M 803.51645 34.38 
L 803.51645 7.2 
L 806.016922 7.2 
L 806.016922 34.38 
L 803.51645 34.38 
z
" clip-path="url(#p60e0716d17)" style="fill: #ff9e9e"/>
    <path d="M 806.016922 34.38 
L 806.016922 7.2 
L 808.517394 7.2 
L 808.517394 34.38 
L 806.016922 34.38 
z
" clip-path="url(#p60e0716d17)" style="fill: #ffd0d0"/>
    <path d="M 808.517394 34.38 
L 808.517394 7.2 
L 811.017866 7.2 
L 811.017866 34.38 
L 808.517394 34.38 
z
" clip-path="url(#p60e0716d17)" style="fill: #ffd0d0"/>
    <path d="M 811.017866 34.38 
L 811.017866 7.2 
L 813.518337 7.2 
L 813.518337 34.38 
L 811.017866 34.38 
z
" clip-path="url(#p60e0716d17)" style="fill: #ffd2d2"/>
    <path d="M 813.518337 34.38 
L 813.518337 7.2 
L 816.018809 7.2 
L 816.018809 34.38 
L 813.518337 34.38 
z
" clip-path="url(#p60e0716d17)" style="fill: #ff7c7c"/>
    <path d="M 816.018809 34.38 
L 816.018809 7.2 
L 818.519281 7.2 
L 818.519281 34.38 
L 816.018809 34.38 
z
" clip-path="url(#p60e0716d17)" style="fill: #ff8c8c"/>
    <path d="M 818.519281 34.38 
L 818.519281 7.2 
L 821.019752 7.2 
L 821.019752 34.38 
L 818.519281 34.38 
z
" clip-path="url(#p60e0716d17)" style="fill: #ff8c8c"/>
    <path d="M 821.019752 34.38 
L 821.019752 7.2 
L 823.520224 7.2 
L 823.520224 34.38 
L 821.019752 34.38 
z
" clip-path="url(#p60e0716d17)" style="fill: #ffd4d4"/>
    <path d="M 823.520224 34.38 
L 823.520224 7.2 
L 826.020696 7.2 
L 826.020696 34.38 
L 823.520224 34.38 
z
" clip-path="url(#p60e0716d17)" style="fill: #ffd0d0"/>
    <path d="M 826.020696 34.38 
L 826.020696 7.2 
L 828.521167 7.2 
L 828.521167 34.38 
L 826.020696 34.38 
z
" clip-path="url(#p60e0716d17)" style="fill: #ffd0d0"/>
    <path d="M 828.521167 34.38 
L 828.521167 7.2 
L 831.021639 7.2 
L 831.021639 34.38 
L 828.521167 34.38 
z
" clip-path="url(#p60e0716d17)" style="fill: #ff8686"/>
    <path d="M 831.021639 34.38 
L 831.021639 7.2 
L 833.522111 7.2 
L 833.522111 34.38 
L 831.021639 34.38 
z
" clip-path="url(#p60e0716d17)" style="fill: #8888ff"/>
    <path d="M 833.522111 34.38 
L 833.522111 7.2 
L 836.022583 7.2 
L 836.022583 34.38 
L 833.522111 34.38 
z
" clip-path="url(#p60e0716d17)" style="fill: #9c9cff"/>
    <path d="M 836.022583 34.38 
L 836.022583 7.2 
L 838.523054 7.2 
L 838.523054 34.38 
L 836.022583 34.38 
z
" clip-path="url(#p60e0716d17)" style="fill: #9292ff"/>
    <path d="M 838.523054 34.38 
L 838.523054 7.2 
L 841.023526 7.2 
L 841.023526 34.38 
L 838.523054 34.38 
z
" clip-path="url(#p60e0716d17)" style="fill: #bebeff"/>
    <path d="M 841.023526 34.38 
L 841.023526 7.2 
L 843.523998 7.2 
L 843.523998 34.38 
L 841.023526 34.38 
z
" clip-path="url(#p60e0716d17)" style="fill: #c6c6ff"/>
    <path d="M 843.523998 34.38 
L 843.523998 7.2 
L 846.024469 7.2 
L 846.024469 34.38 
L 843.523998 34.38 
z
" clip-path="url(#p60e0716d17)" style="fill: #c4c4ff"/>
    <path d="M 846.024469 34.38 
L 846.024469 7.2 
L 848.524941 7.2 
L 848.524941 34.38 
L 846.024469 34.38 
z
" clip-path="url(#p60e0716d17)" style="fill: #5c5cff"/>
    <path d="M 848.524941 34.38 
L 848.524941 7.2 
L 851.025413 7.2 
L 851.025413 34.38 
L 848.524941 34.38 
z
" clip-path="url(#p60e0716d17)" style="fill: #b2b2ff"/>
    <path d="M 851.025413 34.38 
L 851.025413 7.2 
L 853.525884 7.2 
L 853.525884 34.38 
L 851.025413 34.38 
z
" clip-path="url(#p60e0716d17)" style="fill: #9a9aff"/>
    <path d="M 853.525884 34.38 
L 853.525884 7.2 
L 856.026356 7.2 
L 856.026356 34.38 
L 853.525884 34.38 
z
" clip-path="url(#p60e0716d17)" style="fill: #babaff"/>
    <path d="M 856.026356 34.38 
L 856.026356 7.2 
L 858.526828 7.2 
L 858.526828 34.38 
L 856.026356 34.38 
z
" clip-path="url(#p60e0716d17)" style="fill: #bebeff"/>
    <path d="M 858.526828 34.38 
L 858.526828 7.2 
L 861.0273 7.2 
L 861.0273 34.38 
L 858.526828 34.38 
z
" clip-path="url(#p60e0716d17)" style="fill: #b8b8ff"/>
    <path d="M 861.0273 34.38 
L 861.0273 7.2 
L 863.527771 7.2 
L 863.527771 34.38 
L 861.0273 34.38 
z
" clip-path="url(#p60e0716d17)" style="fill: #ffeaea"/>
    <path d="M 863.527771 34.38 
L 863.527771 7.2 
L 866.028243 7.2 
L 866.028243 34.38 
L 863.527771 34.38 
z
" clip-path="url(#p60e0716d17)" style="fill: #ffdcdc"/>
    <path d="M 866.028243 34.38 
L 866.028243 7.2 
L 868.528715 7.2 
L 868.528715 34.38 
L 866.028243 34.38 
z
" clip-path="url(#p60e0716d17)" style="fill: #ffdada"/>
    <path d="M 868.528715 34.38 
L 868.528715 7.2 
L 871.029186 7.2 
L 871.029186 34.38 
L 868.528715 34.38 
z
" clip-path="url(#p60e0716d17)" style="fill: #ffdcdc"/>
    <path d="M 871.029186 34.38 
L 871.029186 7.2 
L 873.529658 7.2 
L 873.529658 34.38 
L 871.029186 34.38 
z
" clip-path="url(#p60e0716d17)" style="fill: #ffdcdc"/>
    <path d="M 873.529658 34.38 
L 873.529658 7.2 
L 876.03013 7.2 
L 876.03013 34.38 
L 873.529658 34.38 
z
" clip-path="url(#p60e0716d17)" style="fill: #ffe2e2"/>
    <path d="M 876.03013 34.38 
L 876.03013 7.2 
L 878.530601 7.2 
L 878.530601 34.38 
L 876.03013 34.38 
z
" clip-path="url(#p60e0716d17)" style="fill: #ffe0e0"/>
    <path d="M 878.530601 34.38 
L 878.530601 7.2 
L 881.031073 7.2 
L 881.031073 34.38 
L 878.530601 34.38 
z
" clip-path="url(#p60e0716d17)" style="fill: #ffcaca"/>
    <path d="M 881.031073 34.38 
L 881.031073 7.2 
L 883.531545 7.2 
L 883.531545 34.38 
L 881.031073 34.38 
z
" clip-path="url(#p60e0716d17)" style="fill: #ffcece"/>
    <path d="M 883.531545 34.38 
L 883.531545 7.2 
L 886.032017 7.2 
L 886.032017 34.38 
L 883.531545 34.38 
z
" clip-path="url(#p60e0716d17)" style="fill: #ffcccc"/>
    <path d="M 886.032017 34.38 
L 886.032017 7.2 
L 888.532488 7.2 
L 888.532488 34.38 
L 886.032017 34.38 
z
" clip-path="url(#p60e0716d17)" style="fill: #ff5a5a"/>
    <path d="M 888.532488 34.38 
L 888.532488 7.2 
L 891.03296 7.2 
L 891.03296 34.38 
L 888.532488 34.38 
z
" clip-path="url(#p60e0716d17)" style="fill: #ff5e5e"/>
    <path d="M 891.03296 34.38 
L 891.03296 7.2 
L 893.533432 7.2 
L 893.533432 34.38 
L 891.03296 34.38 
z
" clip-path="url(#p60e0716d17)" style="fill: #ff6464"/>
    <path d="M 893.533432 34.38 
L 893.533432 7.2 
L 896.033903 7.2 
L 896.033903 34.38 
L 893.533432 34.38 
z
" clip-path="url(#p60e0716d17)" style="fill: #ffc8c8"/>
    <path d="M 896.033903 34.38 
L 896.033903 7.2 
L 898.534375 7.2 
L 898.534375 34.38 
L 896.033903 34.38 
z
" clip-path="url(#p60e0716d17)" style="fill: #ffc8c8"/>
    <path d="M 898.534375 34.38 
L 898.534375 7.2 
L 901.034847 7.2 
L 901.034847 34.38 
L 898.534375 34.38 
z
" clip-path="url(#p60e0716d17)" style="fill: #ffcaca"/>
    <path d="M 901.034847 34.38 
L 901.034847 7.2 
L 903.535318 7.2 
L 903.535318 34.38 
L 901.034847 34.38 
z
" clip-path="url(#p60e0716d17)" style="fill: #ff2222"/>
    <path d="M 903.535318 34.38 
L 903.535318 7.2 
L 906.03579 7.2 
L 906.03579 34.38 
L 903.535318 34.38 
z
" clip-path="url(#p60e0716d17)" style="fill: #ff2222"/>
    <path d="M 906.03579 34.38 
L 906.03579 7.2 
L 908.536262 7.2 
L 908.536262 34.38 
L 906.03579 34.38 
z
" clip-path="url(#p60e0716d17)" style="fill: #ff2222"/>
    <path d="M 908.536262 34.38 
L 908.536262 7.2 
L 911.036733 7.2 
L 911.036733 34.38 
L 908.536262 34.38 
z
" clip-path="url(#p60e0716d17)" style="fill: #ffb8b8"/>
    <path d="M 911.036733 34.38 
L 911.036733 7.2 
L 913.537205 7.2 
L 913.537205 34.38 
L 911.036733 34.38 
z
" clip-path="url(#p60e0716d17)" style="fill: #ffb8b8"/>
    <path d="M 913.537205 34.38 
L 913.537205 7.2 
L 916.037677 7.2 
L 916.037677 34.38 
L 913.537205 34.38 
z
" clip-path="url(#p60e0716d17)" style="fill: #ffb6b6"/>
    <path d="M 916.037677 34.38 
L 916.037677 7.2 
L 918.538149 7.2 
L 918.538149 34.38 
L 916.037677 34.38 
z
" clip-path="url(#p60e0716d17)" style="fill: #ff4646"/>
    <path d="M 918.538149 34.38 
L 918.538149 7.2 
L 921.03862 7.2 
L 921.03862 34.38 
L 918.538149 34.38 
z
" clip-path="url(#p60e0716d17)" style="fill: #ff5050"/>
    <path d="M 921.03862 34.38 
L 921.03862 7.2 
L 923.539092 7.2 
L 923.539092 34.38 
L 921.03862 34.38 
z
" clip-path="url(#p60e0716d17)" style="fill: #ff4a4a"/>
    <path d="M 923.539092 34.38 
L 923.539092 7.2 
L 926.039564 7.2 
L 926.039564 34.38 
L 923.539092 34.38 
z
" clip-path="url(#p60e0716d17)" style="fill: #ffaaaa"/>
    <path d="M 926.039564 34.38 
L 926.039564 7.2 
L 928.540035 7.2 
L 928.540035 34.38 
L 926.039564 34.38 
z
" clip-path="url(#p60e0716d17)" style="fill: #ffa4a4"/>
    <path d="M 928.540035 34.38 
L 928.540035 7.2 
L 931.040507 7.2 
L 931.040507 34.38 
L 928.540035 34.38 
z
" clip-path="url(#p60e0716d17)" style="fill: #ffa6a6"/>
    <path d="M 931.040507 34.38 
L 931.040507 7.2 
L 933.540979 7.2 
L 933.540979 34.38 
L 931.040507 34.38 
z
" clip-path="url(#p60e0716d17)" style="fill: #ff5a5a"/>
    <path d="M 933.540979 34.38 
L 933.540979 7.2 
L 936.04145 7.2 
L 936.04145 34.38 
L 933.540979 34.38 
z
" clip-path="url(#p60e0716d17)" style="fill: #ff4444"/>
    <path d="M 936.04145 34.38 
L 936.04145 7.2 
L 938.541922 7.2 
L 938.541922 34.38 
L 936.04145 34.38 
z
" clip-path="url(#p60e0716d17)" style="fill: #ff4646"/>
    <path d="M 938.541922 34.38 
L 938.541922 7.2 
L 941.042394 7.2 
L 941.042394 34.38 
L 938.541922 34.38 
z
" clip-path="url(#p60e0716d17)" style="fill: #ffb6b6"/>
    <path d="M 941.042394 34.38 
L 941.042394 7.2 
L 943.542866 7.2 
L 943.542866 34.38 
L 941.042394 34.38 
z
" clip-path="url(#p60e0716d17)" style="fill: #ffb6b6"/>
    <path d="M 943.542866 34.38 
L 943.542866 7.2 
L 946.043337 7.2 
L 946.043337 34.38 
L 943.542866 34.38 
z
" clip-path="url(#p60e0716d17)" style="fill: #ffb8b8"/>
    <path d="M 946.043337 34.38 
L 946.043337 7.2 
L 948.543809 7.2 
L 948.543809 34.38 
L 946.043337 34.38 
z
" clip-path="url(#p60e0716d17)" style="fill: #ff6464"/>
    <path d="M 948.543809 34.38 
L 948.543809 7.2 
L 951.044281 7.2 
L 951.044281 34.38 
L 948.543809 34.38 
z
" clip-path="url(#p60e0716d17)" style="fill: #ff5858"/>
    <path d="M 951.044281 34.38 
L 951.044281 7.2 
L 953.544752 7.2 
L 953.544752 34.38 
L 951.044281 34.38 
z
" clip-path="url(#p60e0716d17)" style="fill: #ff6464"/>
    <path d="M 953.544752 34.38 
L 953.544752 7.2 
L 956.045224 7.2 
L 956.045224 34.38 
L 953.544752 34.38 
z
" clip-path="url(#p60e0716d17)" style="fill: #ffaeae"/>
    <path d="M 956.045224 34.38 
L 956.045224 7.2 
L 958.545696 7.2 
L 958.545696 34.38 
L 956.045224 34.38 
z
" clip-path="url(#p60e0716d17)" style="fill: #ffa2a2"/>
    <path d="M 958.545696 34.38 
L 958.545696 7.2 
L 961.046167 7.2 
L 961.046167 34.38 
L 958.545696 34.38 
z
" clip-path="url(#p60e0716d17)" style="fill: #ffa4a4"/>
    <path d="M 961.046167 34.38 
L 961.046167 7.2 
L 963.546639 7.2 
L 963.546639 34.38 
L 961.046167 34.38 
z
" clip-path="url(#p60e0716d17)" style="fill: #4c4cff"/>
    <path d="M 963.546639 34.38 
L 963.546639 7.2 
L 966.047111 7.2 
L 966.047111 34.38 
L 963.546639 34.38 
z
" clip-path="url(#p60e0716d17)" style="fill: #1616ff"/>
    <path d="M 966.047111 34.38 
L 966.047111 7.2 
L 968.547583 7.2 
L 968.547583 34.38 
L 966.047111 34.38 
z
" clip-path="url(#p60e0716d17)" style="fill: #1e1eff"/>
    <path d="M 968.547583 34.38 
L 968.547583 7.2 
L 971.048054 7.2 
L 971.048054 34.38 
L 968.547583 34.38 
z
" clip-path="url(#p60e0716d17)" style="fill: #5858ff"/>
    <path d="M 971.048054 34.38 
L 971.048054 7.2 
L 973.548526 7.2 
L 973.548526 34.38 
L 971.048054 34.38 
z
" clip-path="url(#p60e0716d17)" style="fill: #0000ff"/>
    <path d="M 973.548526 34.38 
L 973.548526 7.2 
L 976.048998 7.2 
L 976.048998 34.38 
L 973.548526 34.38 
z
" clip-path="url(#p60e0716d17)" style="fill: #8888ff"/>
    <path d="M 976.048998 34.38 
L 976.048998 7.2 
L 978.549469 7.2 
L 978.549469 34.38 
L 976.048998 34.38 
z
" clip-path="url(#p60e0716d17)" style="fill: #ffe0e0"/>
    <path d="M 978.549469 34.38 
L 978.549469 7.2 
L 981.049941 7.2 
L 981.049941 34.38 
L 978.549469 34.38 
z
" clip-path="url(#p60e0716d17)" style="fill: #b6b6ff"/>
    <path d="M 981.049941 34.38 
L 981.049941 7.2 
L 983.550413 7.2 
L 983.550413 34.38 
L 981.049941 34.38 
z
" clip-path="url(#p60e0716d17)" style="fill: #aeaeff"/>
    <path d="M 983.550413 34.38 
L 983.550413 7.2 
L 986.050884 7.2 
L 986.050884 34.38 
L 983.550413 34.38 
z
" clip-path="url(#p60e0716d17)" style="fill: #ffc2c2"/>
    <path d="M 986.050884 34.38 
L 986.050884 7.2 
L 988.551356 7.2 
L 988.551356 34.38 
L 986.050884 34.38 
z
" clip-path="url(#p60e0716d17)" style="fill: #ffc2c2"/>
    <path d="M 988.551356 34.38 
L 988.551356 7.2 
L 991.051828 7.2 
L 991.051828 34.38 
L 988.551356 34.38 
z
" clip-path="url(#p60e0716d17)" style="fill: #d6d6ff"/>
    <path d="M 991.051828 34.38 
L 991.051828 7.2 
L 993.5523 7.2 
L 993.5523 34.38 
L 991.051828 34.38 
z
" clip-path="url(#p60e0716d17)" style="fill: #ff1818"/>
    <path d="M 993.5523 34.38 
L 993.5523 7.2 
L 996.052771 7.2 
L 996.052771 34.38 
L 993.5523 34.38 
z
" clip-path="url(#p60e0716d17)" style="fill: #ffdede"/>
    <path d="M 996.052771 34.38 
L 996.052771 7.2 
L 998.553243 7.2 
L 998.553243 34.38 
L 996.052771 34.38 
z
" clip-path="url(#p60e0716d17)" style="fill: #ffa0a0"/>
    <path d="M 998.553243 34.38 
L 998.553243 7.2 
L 1001.053715 7.2 
L 1001.053715 34.38 
L 998.553243 34.38 
z
" clip-path="url(#p60e0716d17)" style="fill: #ffc4c4"/>
    <path d="M 1001.053715 34.38 
L 1001.053715 7.2 
L 1003.554186 7.2 
L 1003.554186 34.38 
L 1001.053715 34.38 
z
" clip-path="url(#p60e0716d17)" style="fill: #ffa0a0"/>
    <path d="M 1003.554186 34.38 
L 1003.554186 7.2 
L 1006.054658 7.2 
L 1006.054658 34.38 
L 1003.554186 34.38 
z
" clip-path="url(#p60e0716d17)" style="fill: #ff9090"/>
    <path d="M 1006.054658 34.38 
L 1006.054658 7.2 
L 1008.55513 7.2 
L 1008.55513 34.38 
L 1006.054658 34.38 
z
" clip-path="url(#p60e0716d17)" style="fill: #ffc2c2"/>
    <path d="M 1008.55513 34.38 
L 1008.55513 7.2 
L 1011.055601 7.2 
L 1011.055601 34.38 
L 1008.55513 34.38 
z
" clip-path="url(#p60e0716d17)" style="fill: #ffb4b4"/>
    <path d="M 1011.055601 34.38 
L 1011.055601 7.2 
L 1013.556073 7.2 
L 1013.556073 34.38 
L 1011.055601 34.38 
z
" clip-path="url(#p60e0716d17)" style="fill: #ffaaaa"/>
    <path d="M 1013.556073 34.38 
L 1013.556073 7.2 
L 1016.056545 7.2 
L 1016.056545 34.38 
L 1013.556073 34.38 
z
" clip-path="url(#p60e0716d17)" style="fill: #ffc4c4"/>
    <path d="M 1016.056545 34.38 
L 1016.056545 7.2 
L 1018.557017 7.2 
L 1018.557017 34.38 
L 1016.056545 34.38 
z
" clip-path="url(#p60e0716d17)" style="fill: #ffb4b4"/>
    <path d="M 1018.557017 34.38 
L 1018.557017 7.2 
L 1021.057488 7.2 
L 1021.057488 34.38 
L 1018.557017 34.38 
z
" clip-path="url(#p60e0716d17)" style="fill: #ff8484"/>
    <path d="M 1021.057488 34.38 
L 1021.057488 7.2 
L 1023.55796 7.2 
L 1023.55796 34.38 
L 1021.057488 34.38 
z
" clip-path="url(#p60e0716d17)" style="fill: #ffc8c8"/>
    <path d="M 1023.55796 34.38 
L 1023.55796 7.2 
L 1026.058432 7.2 
L 1026.058432 34.38 
L 1023.55796 34.38 
z
" clip-path="url(#p60e0716d17)" style="fill: #ffc6c6"/>
    <path d="M 1026.058432 34.38 
L 1026.058432 7.2 
L 1028.558903 7.2 
L 1028.558903 34.38 
L 1026.058432 34.38 
z
" clip-path="url(#p60e0716d17)" style="fill: #c6c6ff"/>
    <path d="M 1028.558903 34.38 
L 1028.558903 7.2 
L 1031.059375 7.2 
L 1031.059375 34.38 
L 1028.558903 34.38 
z
" clip-path="url(#p60e0716d17)" style="fill: #b8b8ff"/>
    <path d="M 1031.059375 34.38 
L 1031.059375 7.2 
L 1033.559847 7.2 
L 1033.559847 34.38 
L 1031.059375 34.38 
z
" clip-path="url(#p60e0716d17)" style="fill: #ffc4c4"/>
    <path d="M 1033.559847 34.38 
L 1033.559847 7.2 
L 1036.060318 7.2 
L 1036.060318 34.38 
L 1033.559847 34.38 
z
" clip-path="url(#p60e0716d17)" style="fill: #eeeeff"/>
    <path d="M 1036.060318 34.38 
L 1036.060318 7.2 
L 1038.56079 7.2 
L 1038.56079 34.38 
L 1036.060318 34.38 
z
" clip-path="url(#p60e0716d17)" style="fill: #fff4f4"/>
    <path d="M 1038.56079 34.38 
L 1038.56079 7.2 
L 1041.061262 7.2 
L 1041.061262 34.38 
L 1038.56079 34.38 
z
" clip-path="url(#p60e0716d17)" style="fill: #b6b6ff"/>
    <path d="M 1041.061262 34.38 
L 1041.061262 7.2 
L 1043.561733 7.2 
L 1043.561733 34.38 
L 1041.061262 34.38 
z
" clip-path="url(#p60e0716d17)" style="fill: #e0e0ff"/>
    <path d="M 1043.561733 34.38 
L 1043.561733 7.2 
L 1046.062205 7.2 
L 1046.062205 34.38 
L 1043.561733 34.38 
z
" clip-path="url(#p60e0716d17)" style="fill: #e4e4ff"/>
    <path d="M 1046.062205 34.38 
L 1046.062205 7.2 
L 1048.562677 7.2 
L 1048.562677 34.38 
L 1046.062205 34.38 
z
" clip-path="url(#p60e0716d17)" style="fill: #ffc8c8"/>
    <path d="M 1048.562677 34.38 
L 1048.562677 7.2 
L 1051.063149 7.2 
L 1051.063149 34.38 
L 1048.562677 34.38 
z
" clip-path="url(#p60e0716d17)" style="fill: #ffa2a2"/>
    <path d="M 1051.063149 34.38 
L 1051.063149 7.2 
L 1053.56362 7.2 
L 1053.56362 34.38 
L 1051.063149 34.38 
z
" clip-path="url(#p60e0716d17)" style="fill: #ffb2b2"/>
    <path d="M 1053.56362 34.38 
L 1053.56362 7.2 
L 1056.064092 7.2 
L 1056.064092 34.38 
L 1053.56362 34.38 
z
" clip-path="url(#p60e0716d17)" style="fill: #ffcaca"/>
    <path d="M 1056.064092 34.38 
L 1056.064092 7.2 
L 1058.564564 7.2 
L 1058.564564 34.38 
L 1056.064092 34.38 
z
" clip-path="url(#p60e0716d17)" style="fill: #ffaeae"/>
    <path d="M 1058.564564 34.38 
L 1058.564564 7.2 
L 1061.065035 7.2 
L 1061.065035 34.38 
L 1058.564564 34.38 
z
" clip-path="url(#p60e0716d17)" style="fill: #ffa2a2"/>
    <path d="M 1061.065035 34.38 
L 1061.065035 7.2 
L 1063.565507 7.2 
L 1063.565507 34.38 
L 1061.065035 34.38 
z
" clip-path="url(#p60e0716d17)" style="fill: #c8c8ff"/>
    <path d="M 1063.565507 34.38 
L 1063.565507 7.2 
L 1066.065979 7.2 
L 1066.065979 34.38 
L 1063.565507 34.38 
z
" clip-path="url(#p60e0716d17)" style="fill: #ffd4d4"/>
    <path d="M 1066.065979 34.38 
L 1066.065979 7.2 
L 1068.56645 7.2 
L 1068.56645 34.38 
L 1066.065979 34.38 
z
" clip-path="url(#p60e0716d17)" style="fill: #ffb4b4"/>
    <path d="M 1068.56645 34.38 
L 1068.56645 7.2 
L 1071.066922 7.2 
L 1071.066922 34.38 
L 1068.56645 34.38 
z
" clip-path="url(#p60e0716d17)" style="fill: #ffbcbc"/>
    <path d="M 1071.066922 34.38 
L 1071.066922 7.2 
L 1073.567394 7.2 
L 1073.567394 34.38 
L 1071.066922 34.38 
z
" clip-path="url(#p60e0716d17)" style="fill: #ffc6c6"/>
    <path d="M 1073.567394 34.38 
L 1073.567394 7.2 
L 1076.067866 7.2 
L 1076.067866 34.38 
L 1073.567394 34.38 
z
" clip-path="url(#p60e0716d17)" style="fill: #ffc6c6"/>
    <path d="M 1076.067866 34.38 
L 1076.067866 7.2 
L 1078.568337 7.2 
L 1078.568337 34.38 
L 1076.067866 34.38 
z
" clip-path="url(#p60e0716d17)" style="fill: #bebeff"/>
    <path d="M 1078.568337 34.38 
L 1078.568337 7.2 
L 1081.068809 7.2 
L 1081.068809 34.38 
L 1078.568337 34.38 
z
" clip-path="url(#p60e0716d17)" style="fill: #cacaff"/>
    <path d="M 1081.068809 34.38 
L 1081.068809 7.2 
L 1083.569281 7.2 
L 1083.569281 34.38 
L 1081.068809 34.38 
z
" clip-path="url(#p60e0716d17)" style="fill: #ceceff"/>
    <path d="M 1083.569281 34.38 
L 1083.569281 7.2 
L 1086.069752 7.2 
L 1086.069752 34.38 
L 1083.569281 34.38 
z
" clip-path="url(#p60e0716d17)" style="fill: #b8b8ff"/>
    <path d="M 1086.069752 34.38 
L 1086.069752 7.2 
L 1088.570224 7.2 
L 1088.570224 34.38 
L 1086.069752 34.38 
z
" clip-path="url(#p60e0716d17)" style="fill: #c8c8ff"/>
    <path d="M 1088.570224 34.38 
L 1088.570224 7.2 
L 1091.070696 7.2 
L 1091.070696 34.38 
L 1088.570224 34.38 
z
" clip-path="url(#p60e0716d17)" style="fill: #c6c6ff"/>
    <path d="M 1091.070696 34.38 
L 1091.070696 7.2 
L 1093.571167 7.2 
L 1093.571167 34.38 
L 1091.070696 34.38 
z
" clip-path="url(#p60e0716d17)" style="fill: #ffe6e6"/>
    <path d="M 1093.571167 34.38 
L 1093.571167 7.2 
L 1096.071639 7.2 
L 1096.071639 34.38 
L 1093.571167 34.38 
z
" clip-path="url(#p60e0716d17)" style="fill: #ffd4d4"/>
    <path d="M 1096.071639 34.38 
L 1096.071639 7.2 
L 1098.572111 7.2 
L 1098.572111 34.38 
L 1096.071639 34.38 
z
" clip-path="url(#p60e0716d17)" style="fill: #ffdada"/>
    <path d="M 1098.572111 34.38 
L 1098.572111 7.2 
L 1101.072583 7.2 
L 1101.072583 34.38 
L 1098.572111 34.38 
z
" clip-path="url(#p60e0716d17)" style="fill: #ffa0a0"/>
    <path d="M 1101.072583 34.38 
L 1101.072583 7.2 
L 1103.573054 7.2 
L 1103.573054 34.38 
L 1101.072583 34.38 
z
" clip-path="url(#p60e0716d17)" style="fill: #ffcaca"/>
    <path d="M 1103.573054 34.38 
L 1103.573054 7.2 
L 1106.073526 7.2 
L 1106.073526 34.38 
L 1103.573054 34.38 
z
" clip-path="url(#p60e0716d17)" style="fill: #ffb4b4"/>
    <path d="M 1106.073526 34.38 
L 1106.073526 7.2 
L 1108.573998 7.2 
L 1108.573998 34.38 
L 1106.073526 34.38 
z
" clip-path="url(#p60e0716d17)" style="fill: #ffdada"/>
    <path d="M 1108.573998 34.38 
L 1108.573998 7.2 
L 1111.074469 7.2 
L 1111.074469 34.38 
L 1108.573998 34.38 
z
" clip-path="url(#p60e0716d17)" style="fill: #9090ff"/>
    <path d="M 1111.074469 34.38 
L 1111.074469 7.2 
L 1113.574941 7.2 
L 1113.574941 34.38 
L 1111.074469 34.38 
z
" clip-path="url(#p60e0716d17)" style="fill: #ceceff"/>
    <path d="M 1113.574941 34.38 
L 1113.574941 7.2 
L 1116.075413 7.2 
L 1116.075413 34.38 
L 1113.574941 34.38 
z
" clip-path="url(#p60e0716d17)" style="fill: #c4c4ff"/>
    <path d="M 1116.075413 34.38 
L 1116.075413 7.2 
L 1118.575884 7.2 
L 1118.575884 34.38 
L 1116.075413 34.38 
z
" clip-path="url(#p60e0716d17)" style="fill: #c8c8ff"/>
    <path d="M 1118.575884 34.38 
L 1118.575884 7.2 
L 1121.076356 7.2 
L 1121.076356 34.38 
L 1118.575884 34.38 
z
" clip-path="url(#p60e0716d17)" style="fill: #c8c8ff"/>
    <path d="M 1121.076356 34.38 
L 1121.076356 7.2 
L 1123.576828 7.2 
L 1123.576828 34.38 
L 1121.076356 34.38 
z
" clip-path="url(#p60e0716d17)" style="fill: #ceceff"/>
    <path d="M 1123.576828 34.38 
L 1123.576828 7.2 
L 1126.0773 7.2 
L 1126.0773 34.38 
L 1123.576828 34.38 
z
" clip-path="url(#p60e0716d17)" style="fill: #ffe2e2"/>
    <path d="M 1126.0773 34.38 
L 1126.0773 7.2 
L 1128.577771 7.2 
L 1128.577771 34.38 
L 1126.0773 34.38 
z
" clip-path="url(#p60e0716d17)" style="fill: #ffdcdc"/>
    <path d="M 1128.577771 34.38 
L 1128.577771 7.2 
L 1131.078243 7.2 
L 1131.078243 34.38 
L 1128.577771 34.38 
z
" clip-path="url(#p60e0716d17)" style="fill: #ffdede"/>
    <path d="M 1131.078243 34.38 
L 1131.078243 7.2 
L 1133.578715 7.2 
L 1133.578715 34.38 
L 1131.078243 34.38 
z
" clip-path="url(#p60e0716d17)" style="fill: #ffdcdc"/>
    <path d="M 1133.578715 34.38 
L 1133.578715 7.2 
L 1136.079186 7.2 
L 1136.079186 34.38 
L 1133.578715 34.38 
z
" clip-path="url(#p60e0716d17)" style="fill: #ffe0e0"/>
    <path d="M 1136.079186 34.38 
L 1136.079186 7.2 
L 1138.579658 7.2 
L 1138.579658 34.38 
L 1136.079186 34.38 
z
" clip-path="url(#p60e0716d17)" style="fill: #ffd6d6"/>
    <path d="M 1138.579658 34.38 
L 1138.579658 7.2 
L 1141.08013 7.2 
L 1141.08013 34.38 
L 1138.579658 34.38 
z
" clip-path="url(#p60e0716d17)" style="fill: #ffcccc"/>
    <path d="M 1141.08013 34.38 
L 1141.08013 7.2 
L 1143.580601 7.2 
L 1143.580601 34.38 
L 1141.08013 34.38 
z
" clip-path="url(#p60e0716d17)" style="fill: #ffd0d0"/>
    <path d="M 1143.580601 34.38 
L 1143.580601 7.2 
L 1146.081073 7.2 
L 1146.081073 34.38 
L 1143.580601 34.38 
z
" clip-path="url(#p60e0716d17)" style="fill: #ffd0d0"/>
    <path d="M 1146.081073 34.38 
L 1146.081073 7.2 
L 1148.581545 7.2 
L 1148.581545 34.38 
L 1146.081073 34.38 
z
" clip-path="url(#p60e0716d17)" style="fill: #ffd6d6"/>
    <path d="M 1148.581545 34.38 
L 1148.581545 7.2 
L 1151.082017 7.2 
L 1151.082017 34.38 
L 1148.581545 34.38 
z
" clip-path="url(#p60e0716d17)" style="fill: #ffcccc"/>
    <path d="M 1151.082017 34.38 
L 1151.082017 7.2 
L 1153.582488 7.2 
L 1153.582488 34.38 
L 1151.082017 34.38 
z
" clip-path="url(#p60e0716d17)" style="fill: #ffc8c8"/>
    <path d="M 1153.582488 34.38 
L 1153.582488 7.2 
L 1156.08296 7.2 
L 1156.08296 34.38 
L 1153.582488 34.38 
z
" clip-path="url(#p60e0716d17)" style="fill: #ffc4c4"/>
    <path d="M 1156.08296 34.38 
L 1156.08296 7.2 
L 1158.583432 7.2 
L 1158.583432 34.38 
L 1156.08296 34.38 
z
" clip-path="url(#p60e0716d17)" style="fill: #ffd2d2"/>
    <path d="M 1158.583432 34.38 
L 1158.583432 7.2 
L 1161.083903 7.2 
L 1161.083903 34.38 
L 1158.583432 34.38 
z
" clip-path="url(#p60e0716d17)" style="fill: #ffcece"/>
    <path d="M 1161.083903 34.38 
L 1161.083903 7.2 
L 1163.584375 7.2 
L 1163.584375 34.38 
L 1161.083903 34.38 
z
" clip-path="url(#p60e0716d17)" style="fill: #ffcccc"/>
   </g>
   <g id="patch_3">
    <path d="M 103.384375 34.38 
L 103.384375 7.2 
" style="fill: none; stroke: #262626; stroke-width: 1.25; stroke-linejoin: miter; stroke-linecap: square"/>
   </g>
   <g id="patch_4">
    <path d="M 1163.584375 34.38 
L 1163.584375 7.2 
" style="fill: none; stroke: #262626; stroke-width: 1.25; stroke-linejoin: miter; stroke-linecap: square"/>
   </g>
   <g id="patch_5">
    <path d="M 103.384375 34.38 
L 1163.584375 34.38 
" style="fill: none; stroke: #262626; stroke-width: 1.25; stroke-linejoin: miter; stroke-linecap: square"/>
   </g>
   <g id="patch_6">
    <path d="M 103.384375 7.2 
L 1163.584375 7.2 
" style="fill: none; stroke: #262626; stroke-width: 1.25; stroke-linejoin: miter; stroke-linecap: square"/>
   </g>
   <g id="text_6">
    <!-- Cells -->
    <g style="fill: #262626" transform="translate(288.419148 64.278)scale(0.18 -0.18)">
     <defs>
      <path id="ArialMT-43" d="M 3763 1606 
L 4369 1453 
Q 4178 706 3683 314 
Q 3188 -78 2472 -78 
Q 1731 -78 1267 223 
Q 803 525 561 1097 
Q 319 1669 319 2325 
Q 319 3041 592 3573 
Q 866 4106 1370 4382 
Q 1875 4659 2481 4659 
Q 3169 4659 3637 4309 
Q 4106 3959 4291 3325 
L 3694 3184 
Q 3534 3684 3231 3912 
Q 2928 4141 2469 4141 
Q 1941 4141 1586 3887 
Q 1231 3634 1087 3207 
Q 944 2781 944 2328 
Q 944 1744 1114 1308 
Q 1284 872 1643 656 
Q 2003 441 2422 441 
Q 2931 441 3284 734 
Q 3638 1028 3763 1606 
z
" transform="scale(0.015625)"/>
      <path id="ArialMT-65" d="M 2694 1069 
L 3275 997 
Q 3138 488 2766 206 
Q 2394 -75 1816 -75 
Q 1088 -75 661 373 
Q 234 822 234 1631 
Q 234 2469 665 2931 
Q 1097 3394 1784 3394 
Q 2450 3394 2872 2941 
Q 3294 2488 3294 1666 
Q 3294 1616 3291 1516 
L 816 1516 
Q 847 969 1125 678 
Q 1403 388 1819 388 
Q 2128 388 2347 550 
Q 2566 713 2694 1069 
z
M 847 1978 
L 2700 1978 
Q 2663 2397 2488 2606 
Q 2219 2931 1791 2931 
Q 1403 2931 1139 2672 
Q 875 2413 847 1978 
z
" transform="scale(0.015625)"/>
      <path id="ArialMT-73" d="M 197 991 
L 753 1078 
Q 800 744 1014 566 
Q 1228 388 1613 388 
Q 2000 388 2187 545 
Q 2375 703 2375 916 
Q 2375 1106 2209 1216 
Q 2094 1291 1634 1406 
Q 1016 1563 777 1677 
Q 538 1791 414 1992 
Q 291 2194 291 2438 
Q 291 2659 392 2848 
Q 494 3038 669 3163 
Q 800 3259 1026 3326 
Q 1253 3394 1513 3394 
Q 1903 3394 2198 3281 
Q 2494 3169 2634 2976 
Q 2775 2784 2828 2463 
L 2278 2388 
Q 2241 2644 2061 2787 
Q 1881 2931 1553 2931 
Q 1166 2931 1000 2803 
Q 834 2675 834 2503 
Q 834 2394 903 2306 
Q 972 2216 1119 2156 
Q 1203 2125 1616 2013 
Q 2213 1853 2448 1751 
Q 2684 1650 2818 1456 
Q 2953 1263 2953 975 
Q 2953 694 2789 445 
Q 2625 197 2315 61 
Q 2006 -75 1616 -75 
Q 969 -75 630 194 
Q 291 463 197 991 
z
" transform="scale(0.015625)"/>
     </defs>
     <use xlink:href="#ArialMT-43"/>
     <use xlink:href="#ArialMT-65" x="72.216797"/>
     <use xlink:href="#ArialMT-6c" x="127.832031"/>
     <use xlink:href="#ArialMT-6c" x="150.048828"/>
     <use xlink:href="#ArialMT-73" x="172.265625"/>
    </g>
   </g>
   <g id="text_7">
    <!-- Cytoplasm -->
    <g style="fill: #262626" transform="translate(695.993249 64.278)scale(0.18 -0.18)">
     <defs>
      <path id="ArialMT-79" d="M 397 -1278 
L 334 -750 
Q 519 -800 656 -800 
Q 844 -800 956 -737 
Q 1069 -675 1141 -563 
Q 1194 -478 1313 -144 
Q 1328 -97 1363 -6 
L 103 3319 
L 709 3319 
L 1400 1397 
Q 1534 1031 1641 628 
Q 1738 1016 1872 1384 
L 2581 3319 
L 3144 3319 
L 1881 -56 
Q 1678 -603 1566 -809 
Q 1416 -1088 1222 -1217 
Q 1028 -1347 759 -1347 
Q 597 -1347 397 -1278 
z
" transform="scale(0.015625)"/>
      <path id="ArialMT-74" d="M 1650 503 
L 1731 6 
Q 1494 -44 1306 -44 
Q 1000 -44 831 53 
Q 663 150 594 308 
Q 525 466 525 972 
L 525 2881 
L 113 2881 
L 113 3319 
L 525 3319 
L 525 4141 
L 1084 4478 
L 1084 3319 
L 1650 3319 
L 1650 2881 
L 1084 2881 
L 1084 941 
Q 1084 700 1114 631 
Q 1144 563 1211 522 
Q 1278 481 1403 481 
Q 1497 481 1650 503 
z
" transform="scale(0.015625)"/>
      <path id="ArialMT-6f" d="M 213 1659 
Q 213 2581 725 3025 
Q 1153 3394 1769 3394 
Q 2453 3394 2887 2945 
Q 3322 2497 3322 1706 
Q 3322 1066 3130 698 
Q 2938 331 2570 128 
Q 2203 -75 1769 -75 
Q 1072 -75 642 372 
Q 213 819 213 1659 
z
M 791 1659 
Q 791 1022 1069 705 
Q 1347 388 1769 388 
Q 2188 388 2466 706 
Q 2744 1025 2744 1678 
Q 2744 2294 2464 2611 
Q 2184 2928 1769 2928 
Q 1347 2928 1069 2612 
Q 791 2297 791 1659 
z
" transform="scale(0.015625)"/>
      <path id="ArialMT-70" d="M 422 -1272 
L 422 3319 
L 934 3319 
L 934 2888 
Q 1116 3141 1344 3267 
Q 1572 3394 1897 3394 
Q 2322 3394 2647 3175 
Q 2972 2956 3137 2557 
Q 3303 2159 3303 1684 
Q 3303 1175 3120 767 
Q 2938 359 2589 142 
Q 2241 -75 1856 -75 
Q 1575 -75 1351 44 
Q 1128 163 984 344 
L 984 -1272 
L 422 -1272 
z
M 931 1641 
Q 931 1000 1190 694 
Q 1450 388 1819 388 
Q 2194 388 2461 705 
Q 2728 1022 2728 1688 
Q 2728 2322 2467 2637 
Q 2206 2953 1844 2953 
Q 1484 2953 1207 2617 
Q 931 2281 931 1641 
z
" transform="scale(0.015625)"/>
      <path id="ArialMT-61" d="M 2588 409 
Q 2275 144 1986 34 
Q 1697 -75 1366 -75 
Q 819 -75 525 192 
Q 231 459 231 875 
Q 231 1119 342 1320 
Q 453 1522 633 1644 
Q 813 1766 1038 1828 
Q 1203 1872 1538 1913 
Q 2219 1994 2541 2106 
Q 2544 2222 2544 2253 
Q 2544 2597 2384 2738 
Q 2169 2928 1744 2928 
Q 1347 2928 1158 2789 
Q 969 2650 878 2297 
L 328 2372 
Q 403 2725 575 2942 
Q 747 3159 1072 3276 
Q 1397 3394 1825 3394 
Q 2250 3394 2515 3294 
Q 2781 3194 2906 3042 
Q 3031 2891 3081 2659 
Q 3109 2516 3109 2141 
L 3109 1391 
Q 3109 606 3145 398 
Q 3181 191 3288 0 
L 2700 0 
Q 2613 175 2588 409 
z
M 2541 1666 
Q 2234 1541 1622 1453 
Q 1275 1403 1131 1340 
Q 988 1278 909 1158 
Q 831 1038 831 891 
Q 831 666 1001 516 
Q 1172 366 1500 366 
Q 1825 366 2078 508 
Q 2331 650 2450 897 
Q 2541 1088 2541 1459 
L 2541 1666 
z
" transform="scale(0.015625)"/>
      <path id="ArialMT-6d" d="M 422 0 
L 422 3319 
L 925 3319 
L 925 2853 
Q 1081 3097 1340 3245 
Q 1600 3394 1931 3394 
Q 2300 3394 2536 3241 
Q 2772 3088 2869 2813 
Q 3263 3394 3894 3394 
Q 4388 3394 4653 3120 
Q 4919 2847 4919 2278 
L 4919 0 
L 4359 0 
L 4359 2091 
Q 4359 2428 4304 2576 
Q 4250 2725 4106 2815 
Q 3963 2906 3769 2906 
Q 3419 2906 3187 2673 
Q 2956 2441 2956 1928 
L 2956 0 
L 2394 0 
L 2394 2156 
Q 2394 2531 2256 2718 
Q 2119 2906 1806 2906 
Q 1569 2906 1367 2781 
Q 1166 2656 1075 2415 
Q 984 2175 984 1722 
L 984 0 
L 422 0 
z
" transform="scale(0.015625)"/>
     </defs>
     <use xlink:href="#ArialMT-43"/>
     <use xlink:href="#ArialMT-79" x="72.216797"/>
     <use xlink:href="#ArialMT-74" x="122.216797"/>
     <use xlink:href="#ArialMT-6f" x="150"/>
     <use xlink:href="#ArialMT-70" x="205.615234"/>
     <use xlink:href="#ArialMT-6c" x="261.230469"/>
     <use xlink:href="#ArialMT-61" x="283.447266"/>
     <use xlink:href="#ArialMT-73" x="339.0625"/>
     <use xlink:href="#ArialMT-6d" x="389.0625"/>
    </g>
   </g>
   <g id="text_8">
    <!-- Nuclei -->
    <g style="fill: #262626" transform="translate(1038.556757 64.278)scale(0.18 -0.18)">
     <defs>
      <path id="ArialMT-4e" d="M 488 0 
L 488 4581 
L 1109 4581 
L 3516 984 
L 3516 4581 
L 4097 4581 
L 4097 0 
L 3475 0 
L 1069 3600 
L 1069 0 
L 488 0 
z
" transform="scale(0.015625)"/>
      <path id="ArialMT-63" d="M 2588 1216 
L 3141 1144 
Q 3050 572 2676 248 
Q 2303 -75 1759 -75 
Q 1078 -75 664 370 
Q 250 816 250 1647 
Q 250 2184 428 2587 
Q 606 2991 970 3192 
Q 1334 3394 1763 3394 
Q 2303 3394 2647 3120 
Q 2991 2847 3088 2344 
L 2541 2259 
Q 2463 2594 2264 2762 
Q 2066 2931 1784 2931 
Q 1359 2931 1093 2626 
Q 828 2322 828 1663 
Q 828 994 1084 691 
Q 1341 388 1753 388 
Q 2084 388 2306 591 
Q 2528 794 2588 1216 
z
" transform="scale(0.015625)"/>
     </defs>
     <use xlink:href="#ArialMT-4e"/>
     <use xlink:href="#ArialMT-75" x="72.216797"/>
     <use xlink:href="#ArialMT-63" x="127.832031"/>
     <use xlink:href="#ArialMT-6c" x="177.832031"/>
     <use xlink:href="#ArialMT-65" x="200.048828"/>
     <use xlink:href="#ArialMT-69" x="255.664062"/>
    </g>
   </g>
  </g>
 </g>
 <defs>
  <clipPath id="p60e0716d17">
   <rect x="103.384375" y="7.2" width="1060.2" height="27.18"/>
  </clipPath>
 </defs>
</svg>
