<?xml version="1.0" encoding="utf-8" standalone="no"?>
<!DOCTYPE svg PUBLIC "-//W3C//DTD SVG 1.1//EN"
  "http://www.w3.org/Graphics/SVG/1.1/DTD/svg11.dtd">
<svg xmlns:xlink="http://www.w3.org/1999/xlink" width="879.470875pt" height="364.468281pt" viewBox="0 0 879.470875 364.468281" xmlns="http://www.w3.org/2000/svg" version="1.1">
 <metadata>
  <rdf:RDF xmlns:dc="http://purl.org/dc/elements/1.1/" xmlns:cc="http://creativecommons.org/ns#" xmlns:rdf="http://www.w3.org/1999/02/22-rdf-syntax-ns#">
   <cc:Work>
    <dc:type rdf:resource="http://purl.org/dc/dcmitype/StillImage"/>
    <dc:date>2023-02-14T10:21:36.422969</dc:date>
    <dc:format>image/svg+xml</dc:format>
    <dc:creator>
     <cc:Agent>
      <dc:title>Matplotlib v3.5.1, https://matplotlib.org/</dc:title>
     </cc:Agent>
    </dc:creator>
   </cc:Work>
  </rdf:RDF>
 </metadata>
 <defs>
  <style type="text/css">*{stroke-linejoin: round; stroke-linecap: butt}</style>
 </defs>
 <g id="figure_1">
  <g id="patch_1">
   <path d="M 0 364.468281 
L 879.470875 364.468281 
L 879.470875 0 
L 0 0 
z
" style="fill: #ffffff"/>
  </g>
  <g id="axes_1">
   <g id="patch_2">
    <path d="M 155.53125 194.174531 
L 780.49125 194.174531 
L 780.49125 31.094531 
L 155.53125 31.094531 
z
" style="fill: #ffffff"/>
   </g>
   <g id="matplotlib.axis_1">
    <g id="xtick_1">
     <g id="line2d_1"/>
     <g id="text_1">
      <text style="fill: #262626; font: 20px 'sans-serif'" transform="translate(186.741563 357.268281)rotate(-90)">AKT/PI3K/MTOR</text>
     </g>
    </g>
    <g id="xtick_2">
     <g id="line2d_2"/>
     <g id="text_2">
      <text style="fill: #262626; font: 20px 'sans-serif'" transform="translate(238.821562 265.399531)rotate(-90)">Aurora</text>
     </g>
    </g>
    <g id="xtick_3">
     <g id="line2d_3"/>
     <g id="text_3">
      <text style="fill: #262626; font: 20px 'sans-serif'" transform="translate(290.901563 244.271406)rotate(-90)">BET</text>
     </g>
    </g>
    <g id="xtick_4">
     <g id="line2d_4"/>
     <g id="text_4">
      <text style="fill: #262626; font: 20px 'sans-serif'" transform="translate(342.98625 303.199531)rotate(-90)">DNA Synth</text>
     </g>
    </g>
    <g id="xtick_5">
     <g id="line2d_5"/>
     <g id="text_5">
      <text style="fill: #262626; font: 20px 'sans-serif'" transform="translate(395.061563 262.046406)rotate(-90)">HDAC</text>
     </g>
    </g>
    <g id="xtick_6">
     <g id="line2d_6"/>
     <g id="text_6">
      <text style="fill: #262626; font: 20px 'sans-serif'" transform="translate(447.141563 268.743281)rotate(-90)">HSP90</text>
     </g>
    </g>
    <g id="xtick_7">
     <g id="line2d_7"/>
     <g id="text_7">
      <text style="fill: #262626; font: 20px 'sans-serif'" transform="translate(499.221563 245.383906)rotate(-90)">LCH</text>
     </g>
    </g>
    <g id="xtick_8">
     <g id="line2d_8"/>
     <g id="text_8">
      <text style="fill: #262626; font: 20px 'sans-serif'" transform="translate(551.301563 349.524531)rotate(-90)">Na+/K+-ATPase</text>
     </g>
    </g>
    <g id="xtick_9">
     <g id="line2d_9"/>
     <g id="text_9">
      <text style="fill: #262626; font: 20px 'sans-serif'" transform="translate(603.38625 325.437031)rotate(-90)">Protein Synth</text>
     </g>
    </g>
    <g id="xtick_10">
     <g id="line2d_10"/>
     <g id="text_10">
      <text style="fill: #262626; font: 20px 'sans-serif'" transform="translate(655.46625 334.296406)rotate(-90)">Pyrimid. Synth</text>
     </g>
    </g>
    <g id="xtick_11">
     <g id="line2d_11"/>
     <g id="text_11">
      <text style="fill: #262626; font: 20px 'sans-serif'" transform="translate(707.541563 270.215156)rotate(-90)">Tubulin</text>
     </g>
    </g>
    <g id="xtick_12">
     <g id="line2d_12"/>
     <g id="text_12">
      <text style="fill: #262626; font: 20px 'sans-serif'" transform="translate(759.621563 296.530781)rotate(-90)">Uncoupler</text>
     </g>
    </g>
   </g>
   <g id="matplotlib.axis_2">
    <g id="ytick_1">
     <g id="line2d_13"/>
     <g id="text_13">
      <text style="fill: #262626; font: 20px 'sans-serif'; text-anchor: end" x="144.33125" y="56.771719" transform="rotate(-0, 144.33125, 56.771719)">    10 µM Cpd 1</text>
     </g>
    </g>
    <g id="ytick_2">
     <g id="line2d_14"/>
     <g id="text_14">
      <text style="fill: #262626; font: 20px 'sans-serif'; text-anchor: end" x="144.33125" y="97.541719" transform="rotate(-0, 144.33125, 97.541719)">    30 µM Cpd 1</text>
     </g>
    </g>
    <g id="ytick_3">
     <g id="line2d_15"/>
     <g id="text_15">
      <text style="fill: #262626; font: 20px 'sans-serif'; text-anchor: end" x="144.33125" y="138.311719" transform="rotate(-0, 144.33125, 138.311719)">    10 µM Cpd 2</text>
     </g>
    </g>
    <g id="ytick_4">
     <g id="line2d_16"/>
     <g id="text_16">
      <text style="fill: #262626; font: 20px 'sans-serif'; text-anchor: end" x="144.33125" y="179.081719" transform="rotate(-0, 144.33125, 179.081719)">    30 µM Cpd 2</text>
     </g>
    </g>
   </g>
   <g id="QuadMesh_1">
    <path d="M 155.53125 31.094531 
L 207.61125 31.094531 
L 207.61125 71.864531 
L 155.53125 71.864531 
L 155.53125 31.094531 
" clip-path="url(#p5b20af1625)" style="fill: #ffffff; stroke: #ffffff; stroke-width: 0.5"/>
    <path d="M 207.61125 31.094531 
L 259.69125 31.094531 
L 259.69125 71.864531 
L 207.61125 71.864531 
L 207.61125 31.094531 
" clip-path="url(#p5b20af1625)" style="fill: #ffffff; stroke: #ffffff; stroke-width: 0.5"/>
    <path d="M 259.69125 31.094531 
L 311.77125 31.094531 
L 311.77125 71.864531 
L 259.69125 71.864531 
L 259.69125 31.094531 
" clip-path="url(#p5b20af1625)" style="fill: #ffffff; stroke: #ffffff; stroke-width: 0.5"/>
    <path d="M 311.77125 31.094531 
L 363.85125 31.094531 
L 363.85125 71.864531 
L 311.77125 71.864531 
L 311.77125 31.094531 
" clip-path="url(#p5b20af1625)" style="fill: #ffffff; stroke: #ffffff; stroke-width: 0.5"/>
    <path d="M 363.85125 31.094531 
L 415.93125 31.094531 
L 415.93125 71.864531 
L 363.85125 71.864531 
L 363.85125 31.094531 
" clip-path="url(#p5b20af1625)" style="fill: #cee0f2; stroke: #ffffff; stroke-width: 0.5"/>
    <path d="M 415.93125 31.094531 
L 468.01125 31.094531 
L 468.01125 71.864531 
L 415.93125 71.864531 
L 415.93125 31.094531 
" clip-path="url(#p5b20af1625)" style="fill: #ffffff; stroke: #ffffff; stroke-width: 0.5"/>
    <path d="M 468.01125 31.094531 
L 520.09125 31.094531 
L 520.09125 71.864531 
L 468.01125 71.864531 
L 468.01125 31.094531 
" clip-path="url(#p5b20af1625)" style="fill: #ffffff; stroke: #ffffff; stroke-width: 0.5"/>
    <path d="M 520.09125 31.094531 
L 572.17125 31.094531 
L 572.17125 71.864531 
L 520.09125 71.864531 
L 520.09125 31.094531 
" clip-path="url(#p5b20af1625)" style="fill: #ffffff; stroke: #ffffff; stroke-width: 0.5"/>
    <path d="M 572.17125 31.094531 
L 624.25125 31.094531 
L 624.25125 71.864531 
L 572.17125 71.864531 
L 572.17125 31.094531 
" clip-path="url(#p5b20af1625)" style="fill: #ffffff; stroke: #ffffff; stroke-width: 0.5"/>
    <path d="M 624.25125 31.094531 
L 676.33125 31.094531 
L 676.33125 71.864531 
L 624.25125 71.864531 
L 624.25125 31.094531 
" clip-path="url(#p5b20af1625)" style="fill: #ffffff; stroke: #ffffff; stroke-width: 0.5"/>
    <path d="M 676.33125 31.094531 
L 728.41125 31.094531 
L 728.41125 71.864531 
L 676.33125 71.864531 
L 676.33125 31.094531 
" clip-path="url(#p5b20af1625)" style="fill: #ffffff; stroke: #ffffff; stroke-width: 0.5"/>
    <path d="M 728.41125 31.094531 
L 780.49125 31.094531 
L 780.49125 71.864531 
L 728.41125 71.864531 
L 728.41125 31.094531 
" clip-path="url(#p5b20af1625)" style="fill: #ffffff; stroke: #ffffff; stroke-width: 0.5"/>
    <path d="M 155.53125 71.864531 
L 207.61125 71.864531 
L 207.61125 112.634531 
L 155.53125 112.634531 
L 155.53125 71.864531 
" clip-path="url(#p5b20af1625)" style="fill: #ffffff; stroke: #ffffff; stroke-width: 0.5"/>
    <path d="M 207.61125 71.864531 
L 259.69125 71.864531 
L 259.69125 112.634531 
L 207.61125 112.634531 
L 207.61125 71.864531 
" clip-path="url(#p5b20af1625)" style="fill: #ffffff; stroke: #ffffff; stroke-width: 0.5"/>
    <path d="M 259.69125 71.864531 
L 311.77125 71.864531 
L 311.77125 112.634531 
L 259.69125 112.634531 
L 259.69125 71.864531 
" clip-path="url(#p5b20af1625)" style="fill: #a0cbe2; stroke: #ffffff; stroke-width: 0.5"/>
    <path d="M 311.77125 71.864531 
L 363.85125 71.864531 
L 363.85125 112.634531 
L 311.77125 112.634531 
L 311.77125 71.864531 
" clip-path="url(#p5b20af1625)" style="fill: #ffffff; stroke: #ffffff; stroke-width: 0.5"/>
    <path d="M 363.85125 71.864531 
L 415.93125 71.864531 
L 415.93125 112.634531 
L 363.85125 112.634531 
L 363.85125 71.864531 
" clip-path="url(#p5b20af1625)" style="fill: #76b4d8; stroke: #ffffff; stroke-width: 0.5"/>
    <path d="M 415.93125 71.864531 
L 468.01125 71.864531 
L 468.01125 112.634531 
L 415.93125 112.634531 
L 415.93125 71.864531 
" clip-path="url(#p5b20af1625)" style="fill: #ffffff; stroke: #ffffff; stroke-width: 0.5"/>
    <path d="M 468.01125 71.864531 
L 520.09125 71.864531 
L 520.09125 112.634531 
L 468.01125 112.634531 
L 468.01125 71.864531 
" clip-path="url(#p5b20af1625)" style="fill: #ffffff; stroke: #ffffff; stroke-width: 0.5"/>
    <path d="M 520.09125 71.864531 
L 572.17125 71.864531 
L 572.17125 112.634531 
L 520.09125 112.634531 
L 520.09125 71.864531 
" clip-path="url(#p5b20af1625)" style="fill: #ffffff; stroke: #ffffff; stroke-width: 0.5"/>
    <path d="M 572.17125 71.864531 
L 624.25125 71.864531 
L 624.25125 112.634531 
L 572.17125 112.634531 
L 572.17125 71.864531 
" clip-path="url(#p5b20af1625)" style="fill: #ffffff; stroke: #ffffff; stroke-width: 0.5"/>
    <path d="M 624.25125 71.864531 
L 676.33125 71.864531 
L 676.33125 112.634531 
L 624.25125 112.634531 
L 624.25125 71.864531 
" clip-path="url(#p5b20af1625)" style="fill: #ffffff; stroke: #ffffff; stroke-width: 0.5"/>
    <path d="M 676.33125 71.864531 
L 728.41125 71.864531 
L 728.41125 112.634531 
L 676.33125 112.634531 
L 676.33125 71.864531 
" clip-path="url(#p5b20af1625)" style="fill: #ffffff; stroke: #ffffff; stroke-width: 0.5"/>
    <path d="M 728.41125 71.864531 
L 780.49125 71.864531 
L 780.49125 112.634531 
L 728.41125 112.634531 
L 728.41125 71.864531 
" clip-path="url(#p5b20af1625)" style="fill: #ffffff; stroke: #ffffff; stroke-width: 0.5"/>
    <path d="M 155.53125 112.634531 
L 207.61125 112.634531 
L 207.61125 153.404531 
L 155.53125 153.404531 
L 155.53125 112.634531 
" clip-path="url(#p5b20af1625)" style="fill: #ffffff; stroke: #ffffff; stroke-width: 0.5"/>
    <path d="M 207.61125 112.634531 
L 259.69125 112.634531 
L 259.69125 153.404531 
L 207.61125 153.404531 
L 207.61125 112.634531 
" clip-path="url(#p5b20af1625)" style="fill: #ffffff; stroke: #ffffff; stroke-width: 0.5"/>
    <path d="M 259.69125 112.634531 
L 311.77125 112.634531 
L 311.77125 153.404531 
L 259.69125 153.404531 
L 259.69125 112.634531 
" clip-path="url(#p5b20af1625)" style="fill: #ffffff; stroke: #ffffff; stroke-width: 0.5"/>
    <path d="M 311.77125 112.634531 
L 363.85125 112.634531 
L 363.85125 153.404531 
L 311.77125 153.404531 
L 311.77125 112.634531 
" clip-path="url(#p5b20af1625)" style="fill: #ffffff; stroke: #ffffff; stroke-width: 0.5"/>
    <path d="M 363.85125 112.634531 
L 415.93125 112.634531 
L 415.93125 153.404531 
L 363.85125 153.404531 
L 363.85125 112.634531 
" clip-path="url(#p5b20af1625)" style="fill: #b1d2e8; stroke: #ffffff; stroke-width: 0.5"/>
    <path d="M 415.93125 112.634531 
L 468.01125 112.634531 
L 468.01125 153.404531 
L 415.93125 153.404531 
L 415.93125 112.634531 
" clip-path="url(#p5b20af1625)" style="fill: #ffffff; stroke: #ffffff; stroke-width: 0.5"/>
    <path d="M 468.01125 112.634531 
L 520.09125 112.634531 
L 520.09125 153.404531 
L 468.01125 153.404531 
L 468.01125 112.634531 
" clip-path="url(#p5b20af1625)" style="fill: #ffffff; stroke: #ffffff; stroke-width: 0.5"/>
    <path d="M 520.09125 112.634531 
L 572.17125 112.634531 
L 572.17125 153.404531 
L 520.09125 153.404531 
L 520.09125 112.634531 
" clip-path="url(#p5b20af1625)" style="fill: #ffffff; stroke: #ffffff; stroke-width: 0.5"/>
    <path d="M 572.17125 112.634531 
L 624.25125 112.634531 
L 624.25125 153.404531 
L 572.17125 153.404531 
L 572.17125 112.634531 
" clip-path="url(#p5b20af1625)" style="fill: #ffffff; stroke: #ffffff; stroke-width: 0.5"/>
    <path d="M 624.25125 112.634531 
L 676.33125 112.634531 
L 676.33125 153.404531 
L 624.25125 153.404531 
L 624.25125 112.634531 
" clip-path="url(#p5b20af1625)" style="fill: #ffffff; stroke: #ffffff; stroke-width: 0.5"/>
    <path d="M 676.33125 112.634531 
L 728.41125 112.634531 
L 728.41125 153.404531 
L 676.33125 153.404531 
L 676.33125 112.634531 
" clip-path="url(#p5b20af1625)" style="fill: #ffffff; stroke: #ffffff; stroke-width: 0.5"/>
    <path d="M 728.41125 112.634531 
L 780.49125 112.634531 
L 780.49125 153.404531 
L 728.41125 153.404531 
L 728.41125 112.634531 
" clip-path="url(#p5b20af1625)" style="fill: #ffffff; stroke: #ffffff; stroke-width: 0.5"/>
    <path d="M 155.53125 153.404531 
L 207.61125 153.404531 
L 207.61125 194.174531 
L 155.53125 194.174531 
L 155.53125 153.404531 
" clip-path="url(#p5b20af1625)" style="fill: #ffffff; stroke: #ffffff; stroke-width: 0.5"/>
    <path d="M 207.61125 153.404531 
L 259.69125 153.404531 
L 259.69125 194.174531 
L 207.61125 194.174531 
L 207.61125 153.404531 
" clip-path="url(#p5b20af1625)" style="fill: #ffffff; stroke: #ffffff; stroke-width: 0.5"/>
    <path d="M 259.69125 153.404531 
L 311.77125 153.404531 
L 311.77125 194.174531 
L 259.69125 194.174531 
L 259.69125 153.404531 
" clip-path="url(#p5b20af1625)" style="fill: #a0cbe2; stroke: #ffffff; stroke-width: 0.5"/>
    <path d="M 311.77125 153.404531 
L 363.85125 153.404531 
L 363.85125 194.174531 
L 311.77125 194.174531 
L 311.77125 153.404531 
" clip-path="url(#p5b20af1625)" style="fill: #ffffff; stroke: #ffffff; stroke-width: 0.5"/>
    <path d="M 363.85125 153.404531 
L 415.93125 153.404531 
L 415.93125 194.174531 
L 363.85125 194.174531 
L 363.85125 153.404531 
" clip-path="url(#p5b20af1625)" style="fill: #4090c5; stroke: #ffffff; stroke-width: 0.5"/>
    <path d="M 415.93125 153.404531 
L 468.01125 153.404531 
L 468.01125 194.174531 
L 415.93125 194.174531 
L 415.93125 153.404531 
" clip-path="url(#p5b20af1625)" style="fill: #ffffff; stroke: #ffffff; stroke-width: 0.5"/>
    <path d="M 468.01125 153.404531 
L 520.09125 153.404531 
L 520.09125 194.174531 
L 468.01125 194.174531 
L 468.01125 153.404531 
" clip-path="url(#p5b20af1625)" style="fill: #ffffff; stroke: #ffffff; stroke-width: 0.5"/>
    <path d="M 520.09125 153.404531 
L 572.17125 153.404531 
L 572.17125 194.174531 
L 520.09125 194.174531 
L 520.09125 153.404531 
" clip-path="url(#p5b20af1625)" style="fill: #ffffff; stroke: #ffffff; stroke-width: 0.5"/>
    <path d="M 572.17125 153.404531 
L 624.25125 153.404531 
L 624.25125 194.174531 
L 572.17125 194.174531 
L 572.17125 153.404531 
" clip-path="url(#p5b20af1625)" style="fill: #ffffff; stroke: #ffffff; stroke-width: 0.5"/>
    <path d="M 624.25125 153.404531 
L 676.33125 153.404531 
L 676.33125 194.174531 
L 624.25125 194.174531 
L 624.25125 153.404531 
" clip-path="url(#p5b20af1625)" style="fill: #ffffff; stroke: #ffffff; stroke-width: 0.5"/>
    <path d="M 676.33125 153.404531 
L 728.41125 153.404531 
L 728.41125 194.174531 
L 676.33125 194.174531 
L 676.33125 153.404531 
" clip-path="url(#p5b20af1625)" style="fill: #ffffff; stroke: #ffffff; stroke-width: 0.5"/>
    <path d="M 728.41125 153.404531 
L 780.49125 153.404531 
L 780.49125 194.174531 
L 728.41125 194.174531 
L 728.41125 153.404531 
" clip-path="url(#p5b20af1625)" style="fill: #ffffff; stroke: #ffffff; stroke-width: 0.5"/>
   </g>
   <g id="text_17">
    <text style="fill: #262626; font: 22px 'sans-serif'; text-anchor: middle" x="181.57125" y="57.166875" transform="rotate(-0, 181.57125, 57.166875)">0</text>
   </g>
   <g id="text_18">
    <text style="fill: #262626; font: 22px 'sans-serif'; text-anchor: middle" x="233.65125" y="57.166875" transform="rotate(-0, 233.65125, 57.166875)">0</text>
   </g>
   <g id="text_19">
    <text style="fill: #262626; font: 22px 'sans-serif'; text-anchor: middle" x="285.73125" y="57.166875" transform="rotate(-0, 285.73125, 57.166875)">76</text>
   </g>
   <g id="text_20">
    <text style="fill: #262626; font: 22px 'sans-serif'; text-anchor: middle" x="337.81125" y="57.166875" transform="rotate(-0, 337.81125, 57.166875)">0</text>
   </g>
   <g id="text_21">
    <text style="fill: #262626; font: 22px 'sans-serif'; text-anchor: middle" x="389.89125" y="57.166875" transform="rotate(-0, 389.89125, 57.166875)">85</text>
   </g>
   <g id="text_22">
    <text style="fill: #262626; font: 22px 'sans-serif'; text-anchor: middle" x="441.97125" y="57.166875" transform="rotate(-0, 441.97125, 57.166875)">29</text>
   </g>
   <g id="text_23">
    <text style="fill: #262626; font: 22px 'sans-serif'; text-anchor: middle" x="494.05125" y="57.166875" transform="rotate(-0, 494.05125, 57.166875)">62</text>
   </g>
   <g id="text_24">
    <text style="fill: #262626; font: 22px 'sans-serif'; text-anchor: middle" x="546.13125" y="57.166875" transform="rotate(-0, 546.13125, 57.166875)">57</text>
   </g>
   <g id="text_25">
    <text style="fill: #262626; font: 22px 'sans-serif'; text-anchor: middle" x="598.21125" y="57.166875" transform="rotate(-0, 598.21125, 57.166875)">70</text>
   </g>
   <g id="text_26">
    <text style="fill: #262626; font: 22px 'sans-serif'; text-anchor: middle" x="650.29125" y="57.166875" transform="rotate(-0, 650.29125, 57.166875)">0</text>
   </g>
   <g id="text_27">
    <text style="fill: #262626; font: 22px 'sans-serif'; text-anchor: middle" x="702.37125" y="57.166875" transform="rotate(-0, 702.37125, 57.166875)">73</text>
   </g>
   <g id="text_28">
    <text style="fill: #262626; font: 22px 'sans-serif'; text-anchor: middle" x="754.45125" y="57.166875" transform="rotate(-0, 754.45125, 57.166875)">75</text>
   </g>
   <g id="text_29">
    <text style="fill: #262626; font: 22px 'sans-serif'; text-anchor: middle" x="181.57125" y="97.936875" transform="rotate(-0, 181.57125, 97.936875)">0</text>
   </g>
   <g id="text_30">
    <text style="fill: #262626; font: 22px 'sans-serif'; text-anchor: middle" x="233.65125" y="97.936875" transform="rotate(-0, 233.65125, 97.936875)">0</text>
   </g>
   <g id="text_31">
    <text style="fill: #262626; font: 22px 'sans-serif'; text-anchor: middle" x="285.73125" y="97.936875" transform="rotate(-0, 285.73125, 97.936875)">87</text>
   </g>
   <g id="text_32">
    <text style="fill: #262626; font: 22px 'sans-serif'; text-anchor: middle" x="337.81125" y="97.936875" transform="rotate(-0, 337.81125, 97.936875)">0</text>
   </g>
   <g id="text_33">
    <text style="fill: #262626; font: 22px 'sans-serif'; text-anchor: middle" x="389.89125" y="97.936875" transform="rotate(-0, 389.89125, 97.936875)">90</text>
   </g>
   <g id="text_34">
    <text style="fill: #262626; font: 22px 'sans-serif'; text-anchor: middle" x="441.97125" y="97.936875" transform="rotate(-0, 441.97125, 97.936875)">19</text>
   </g>
   <g id="text_35">
    <text style="fill: #262626; font: 22px 'sans-serif'; text-anchor: middle" x="494.05125" y="97.936875" transform="rotate(-0, 494.05125, 97.936875)">77</text>
   </g>
   <g id="text_36">
    <text style="fill: #262626; font: 22px 'sans-serif'; text-anchor: middle" x="546.13125" y="97.936875" transform="rotate(-0, 546.13125, 97.936875)">58</text>
   </g>
   <g id="text_37">
    <text style="fill: #262626; font: 22px 'sans-serif'; text-anchor: middle" x="598.21125" y="97.936875" transform="rotate(-0, 598.21125, 97.936875)">77</text>
   </g>
   <g id="text_38">
    <text style="fill: #262626; font: 22px 'sans-serif'; text-anchor: middle" x="650.29125" y="97.936875" transform="rotate(-0, 650.29125, 97.936875)">0</text>
   </g>
   <g id="text_39">
    <text style="fill: #262626; font: 22px 'sans-serif'; text-anchor: middle" x="702.37125" y="97.936875" transform="rotate(-0, 702.37125, 97.936875)">80</text>
   </g>
   <g id="text_40">
    <text style="fill: #262626; font: 22px 'sans-serif'; text-anchor: middle" x="754.45125" y="97.936875" transform="rotate(-0, 754.45125, 97.936875)">74</text>
   </g>
   <g id="text_41">
    <text style="fill: #262626; font: 22px 'sans-serif'; text-anchor: middle" x="181.57125" y="138.706875" transform="rotate(-0, 181.57125, 138.706875)">0</text>
   </g>
   <g id="text_42">
    <text style="fill: #262626; font: 22px 'sans-serif'; text-anchor: middle" x="233.65125" y="138.706875" transform="rotate(-0, 233.65125, 138.706875)">0</text>
   </g>
   <g id="text_43">
    <text style="fill: #262626; font: 22px 'sans-serif'; text-anchor: middle" x="285.73125" y="138.706875" transform="rotate(-0, 285.73125, 138.706875)">75</text>
   </g>
   <g id="text_44">
    <text style="fill: #262626; font: 22px 'sans-serif'; text-anchor: middle" x="337.81125" y="138.706875" transform="rotate(-0, 337.81125, 138.706875)">0</text>
   </g>
   <g id="text_45">
    <text style="fill: #262626; font: 22px 'sans-serif'; text-anchor: middle" x="389.89125" y="138.706875" transform="rotate(-0, 389.89125, 138.706875)">86</text>
   </g>
   <g id="text_46">
    <text style="fill: #262626; font: 22px 'sans-serif'; text-anchor: middle" x="441.97125" y="138.706875" transform="rotate(-0, 441.97125, 138.706875)">26</text>
   </g>
   <g id="text_47">
    <text style="fill: #262626; font: 22px 'sans-serif'; text-anchor: middle" x="494.05125" y="138.706875" transform="rotate(-0, 494.05125, 138.706875)">58</text>
   </g>
   <g id="text_48">
    <text style="fill: #262626; font: 22px 'sans-serif'; text-anchor: middle" x="546.13125" y="138.706875" transform="rotate(-0, 546.13125, 138.706875)">64</text>
   </g>
   <g id="text_49">
    <text style="fill: #262626; font: 22px 'sans-serif'; text-anchor: middle" x="598.21125" y="138.706875" transform="rotate(-0, 598.21125, 138.706875)">71</text>
   </g>
   <g id="text_50">
    <text style="fill: #262626; font: 22px 'sans-serif'; text-anchor: middle" x="650.29125" y="138.706875" transform="rotate(-0, 650.29125, 138.706875)">0</text>
   </g>
   <g id="text_51">
    <text style="fill: #262626; font: 22px 'sans-serif'; text-anchor: middle" x="702.37125" y="138.706875" transform="rotate(-0, 702.37125, 138.706875)">73</text>
   </g>
   <g id="text_52">
    <text style="fill: #262626; font: 22px 'sans-serif'; text-anchor: middle" x="754.45125" y="138.706875" transform="rotate(-0, 754.45125, 138.706875)">75</text>
   </g>
   <g id="text_53">
    <text style="fill: #262626; font: 22px 'sans-serif'; text-anchor: middle" x="181.57125" y="179.476875" transform="rotate(-0, 181.57125, 179.476875)">0</text>
   </g>
   <g id="text_54">
    <text style="fill: #262626; font: 22px 'sans-serif'; text-anchor: middle" x="233.65125" y="179.476875" transform="rotate(-0, 233.65125, 179.476875)">0</text>
   </g>
   <g id="text_55">
    <text style="fill: #262626; font: 22px 'sans-serif'; text-anchor: middle" x="285.73125" y="179.476875" transform="rotate(-0, 285.73125, 179.476875)">87</text>
   </g>
   <g id="text_56">
    <text style="fill: #262626; font: 22px 'sans-serif'; text-anchor: middle" x="337.81125" y="179.476875" transform="rotate(-0, 337.81125, 179.476875)">0</text>
   </g>
   <g id="text_57">
    <text style="fill: #ffffff; font: 22px 'sans-serif'; text-anchor: middle" x="389.89125" y="179.476875" transform="rotate(-0, 389.89125, 179.476875)">92</text>
   </g>
   <g id="text_58">
    <text style="fill: #262626; font: 22px 'sans-serif'; text-anchor: middle" x="441.97125" y="179.476875" transform="rotate(-0, 441.97125, 179.476875)">17</text>
   </g>
   <g id="text_59">
    <text style="fill: #262626; font: 22px 'sans-serif'; text-anchor: middle" x="494.05125" y="179.476875" transform="rotate(-0, 494.05125, 179.476875)">78</text>
   </g>
   <g id="text_60">
    <text style="fill: #262626; font: 22px 'sans-serif'; text-anchor: middle" x="546.13125" y="179.476875" transform="rotate(-0, 546.13125, 179.476875)">63</text>
   </g>
   <g id="text_61">
    <text style="fill: #262626; font: 22px 'sans-serif'; text-anchor: middle" x="598.21125" y="179.476875" transform="rotate(-0, 598.21125, 179.476875)">73</text>
   </g>
   <g id="text_62">
    <text style="fill: #262626; font: 22px 'sans-serif'; text-anchor: middle" x="650.29125" y="179.476875" transform="rotate(-0, 650.29125, 179.476875)">0</text>
   </g>
   <g id="text_63">
    <text style="fill: #262626; font: 22px 'sans-serif'; text-anchor: middle" x="702.37125" y="179.476875" transform="rotate(-0, 702.37125, 179.476875)">79</text>
   </g>
   <g id="text_64">
    <text style="fill: #262626; font: 22px 'sans-serif'; text-anchor: middle" x="754.45125" y="179.476875" transform="rotate(-0, 754.45125, 179.476875)">72</text>
   </g>
   <g id="text_65">
    <text style="fill: #262626; font: 25px 'sans-serif'; text-anchor: middle" x="468.01125" y="25.094531" transform="rotate(-0, 468.01125, 25.094531)">Cluster Biosimilaritites</text>
   </g>
  </g>
  <g id="axes_2">
   <g id="patch_3">
    <path d="M 819.55125 194.174531 
L 827.70525 194.174531 
L 827.70525 31.094531 
L 819.55125 31.094531 
z
" style="fill: #ffffff"/>
   </g>
   <g id="patch_4">
    <path clip-path="url(#p7c6573bcc4)" style="fill: #ffffff; stroke: #ffffff; stroke-width: 0.01; stroke-linejoin: miter"/>
   </g>
   <g id="matplotlib.axis_3">
    <g id="ytick_5">
     <g id="line2d_17"/>
     <g id="text_66">
      <text style="fill: #262626; font: 20px 'sans-serif'; text-anchor: start" x="838.90525" y="201.332344" transform="rotate(-0, 838.90525, 201.332344)">80</text>
     </g>
    </g>
    <g id="ytick_6">
     <g id="line2d_18"/>
     <g id="text_67">
      <text style="fill: #262626; font: 20px 'sans-serif'; text-anchor: start" x="838.90525" y="160.562344" transform="rotate(-0, 838.90525, 160.562344)">85</text>
     </g>
    </g>
    <g id="ytick_7">
     <g id="line2d_19"/>
     <g id="text_68">
      <text style="fill: #262626; font: 20px 'sans-serif'; text-anchor: start" x="838.90525" y="119.792344" transform="rotate(-0, 838.90525, 119.792344)">90</text>
     </g>
    </g>
    <g id="ytick_8">
     <g id="line2d_20"/>
     <g id="text_69">
      <text style="fill: #262626; font: 20px 'sans-serif'; text-anchor: start" x="838.90525" y="79.022344" transform="rotate(-0, 838.90525, 79.022344)">95</text>
     </g>
    </g>
    <g id="ytick_9">
     <g id="line2d_21"/>
     <g id="text_70">
      <text style="fill: #262626; font: 20px 'sans-serif'; text-anchor: start" x="838.90525" y="38.252344" transform="rotate(-0, 838.90525, 38.252344)">100</text>
     </g>
    </g>
   </g>
   <g id="QuadMesh_2">
    <path d="M 819.55125 194.174531 
L 827.70525 194.174531 
L 827.70525 186.020531 
L 819.55125 186.020531 
L 819.55125 194.174531 
" clip-path="url(#p7c6573bcc4)" style="fill: #ffffff"/>
    <path d="M 819.55125 186.020531 
L 827.70525 186.020531 
L 827.70525 177.866531 
L 819.55125 177.866531 
L 819.55125 186.020531 
" clip-path="url(#p7c6573bcc4)" style="fill: #ecf4fc"/>
    <path d="M 819.55125 177.866531 
L 827.70525 177.866531 
L 827.70525 169.712531 
L 819.55125 169.712531 
L 819.55125 177.866531 
" clip-path="url(#p7c6573bcc4)" style="fill: #e2eef8"/>
    <path d="M 819.55125 169.712531 
L 827.70525 169.712531 
L 827.70525 161.558531 
L 819.55125 161.558531 
L 819.55125 169.712531 
" clip-path="url(#p7c6573bcc4)" style="fill: #d8e7f5"/>
    <path d="M 819.55125 161.558531 
L 827.70525 161.558531 
L 827.70525 153.404531 
L 819.55125 153.404531 
L 819.55125 161.558531 
" clip-path="url(#p7c6573bcc4)" style="fill: #cee0f2"/>
    <path d="M 819.55125 153.404531 
L 827.70525 153.404531 
L 827.70525 145.250531 
L 819.55125 145.250531 
L 819.55125 153.404531 
" clip-path="url(#p7c6573bcc4)" style="fill: #c2d9ee"/>
    <path d="M 819.55125 145.250531 
L 827.70525 145.250531 
L 827.70525 137.096531 
L 819.55125 137.096531 
L 819.55125 145.250531 
" clip-path="url(#p7c6573bcc4)" style="fill: #b1d2e8"/>
    <path d="M 819.55125 137.096531 
L 827.70525 137.096531 
L 827.70525 128.942531 
L 819.55125 128.942531 
L 819.55125 137.096531 
" clip-path="url(#p7c6573bcc4)" style="fill: #a0cbe2"/>
    <path d="M 819.55125 128.942531 
L 827.70525 128.942531 
L 827.70525 120.788531 
L 819.55125 120.788531 
L 819.55125 128.942531 
" clip-path="url(#p7c6573bcc4)" style="fill: #8bc0dd"/>
    <path d="M 819.55125 120.788531 
L 827.70525 120.788531 
L 827.70525 112.634531 
L 819.55125 112.634531 
L 819.55125 120.788531 
" clip-path="url(#p7c6573bcc4)" style="fill: #76b4d8"/>
    <path d="M 819.55125 112.634531 
L 827.70525 112.634531 
L 827.70525 104.480531 
L 819.55125 104.480531 
L 819.55125 112.634531 
" clip-path="url(#p7c6573bcc4)" style="fill: #62a8d3"/>
    <path d="M 819.55125 104.480531 
L 827.70525 104.480531 
L 827.70525 96.326531 
L 819.55125 96.326531 
L 819.55125 104.480531 
" clip-path="url(#p7c6573bcc4)" style="fill: #519ccc"/>
    <path d="M 819.55125 96.326531 
L 827.70525 96.326531 
L 827.70525 88.172531 
L 819.55125 88.172531 
L 819.55125 96.326531 
" clip-path="url(#p7c6573bcc4)" style="fill: #4090c5"/>
    <path d="M 819.55125 88.172531 
L 827.70525 88.172531 
L 827.70525 80.018531 
L 819.55125 80.018531 
L 819.55125 88.172531 
" clip-path="url(#p7c6573bcc4)" style="fill: #3282be"/>
    <path d="M 819.55125 80.018531 
L 827.70525 80.018531 
L 827.70525 71.864531 
L 819.55125 71.864531 
L 819.55125 80.018531 
" clip-path="url(#p7c6573bcc4)" style="fill: #2474b7"/>
    <path d="M 819.55125 71.864531 
L 827.70525 71.864531 
L 827.70525 63.710531 
L 819.55125 63.710531 
L 819.55125 71.864531 
" clip-path="url(#p7c6573bcc4)" style="fill: #1967ad"/>
    <path d="M 819.55125 63.710531 
L 827.70525 63.710531 
L 827.70525 55.556531 
L 819.55125 55.556531 
L 819.55125 63.710531 
" clip-path="url(#p7c6573bcc4)" style="fill: #0f59a3"/>
    <path d="M 819.55125 55.556531 
L 827.70525 55.556531 
L 827.70525 47.402531 
L 819.55125 47.402531 
L 819.55125 55.556531 
" clip-path="url(#p7c6573bcc4)" style="fill: #084c94"/>
    <path d="M 819.55125 47.402531 
L 827.70525 47.402531 
L 827.70525 39.248531 
L 819.55125 39.248531 
L 819.55125 47.402531 
" clip-path="url(#p7c6573bcc4)" style="fill: #083e80"/>
    <path d="M 819.55125 39.248531 
L 827.70525 39.248531 
L 827.70525 31.094531 
L 819.55125 31.094531 
L 819.55125 39.248531 
" clip-path="url(#p7c6573bcc4)" style="fill: #08306b"/>
   </g>
   <g id="LineCollection_1"/>
   <g id="patch_5">
    <path d="M 819.55125 194.174531 
L 823.62825 194.174531 
L 827.70525 194.174531 
L 827.70525 31.094531 
L 823.62825 31.094531 
L 819.55125 31.094531 
L 819.55125 194.174531 
z
" style="fill: none"/>
   </g>
  </g>
 </g>
 <defs>
  <clipPath id="p5b20af1625">
   <rect x="155.53125" y="31.094531" width="624.96" height="163.08"/>
  </clipPath>
  <clipPath id="p7c6573bcc4">
   <rect x="819.55125" y="31.094531" width="8.154" height="163.08"/>
  </clipPath>
 </defs>
</svg>
