<?xml version="1.0" encoding="utf-8" standalone="no"?>
<!DOCTYPE svg PUBLIC "-//W3C//DTD SVG 1.1//EN"
  "http://www.w3.org/Graphics/SVG/1.1/DTD/svg11.dtd">
<svg xmlns:xlink="http://www.w3.org/1999/xlink" width="879.470875pt" height="364.468281pt" viewBox="0 0 879.470875 364.468281" xmlns="http://www.w3.org/2000/svg" version="1.1">
 <metadata>
  <rdf:RDF xmlns:dc="http://purl.org/dc/elements/1.1/" xmlns:cc="http://creativecommons.org/ns#" xmlns:rdf="http://www.w3.org/1999/02/22-rdf-syntax-ns#">
   <cc:Work>
    <dc:type rdf:resource="http://purl.org/dc/dcmitype/StillImage"/>
    <dc:date>2022-06-28T15:47:18.362824</dc:date>
    <dc:format>image/svg+xml</dc:format>
    <dc:creator>
     <cc:Agent>
      <dc:title>Matplotlib v3.5.1, https://matplotlib.org/</dc:title>
     </cc:Agent>
    </dc:creator>
   </cc:Work>
  </rdf:RDF>
 </metadata>
 <defs>
  <style type="text/css">*{stroke-linejoin: round; stroke-linecap: butt}</style>
 </defs>
 <g id="figure_1">
  <g id="patch_1">
   <path d="M 0 364.468281 
L 879.470875 364.468281 
L 879.470875 0 
L 0 0 
z
" style="fill: #ffffff"/>
  </g>
  <g id="axes_1">
   <g id="patch_2">
    <path d="M 155.53125 194.174531 
L 780.49125 194.174531 
L 780.49125 31.094531 
L 155.53125 31.094531 
z
" style="fill: #ffffff"/>
   </g>
   <g id="matplotlib.axis_1">
    <g id="xtick_1">
     <g id="line2d_1"/>
     <g id="text_1">
      <text style="fill: #262626; font: 20px 'sans-serif'" transform="translate(191.949563 357.268281)rotate(-90)">AKT/PI3K/MTOR</text>
     </g>
    </g>
    <g id="xtick_2">
     <g id="line2d_2"/>
     <g id="text_2">
      <text style="fill: #262626; font: 20px 'sans-serif'" transform="translate(254.445563 265.399531)rotate(-90)">Aurora</text>
     </g>
    </g>
    <g id="xtick_3">
     <g id="line2d_3"/>
     <g id="text_3">
      <text style="fill: #262626; font: 20px 'sans-serif'" transform="translate(316.941563 244.271406)rotate(-90)">BET</text>
     </g>
    </g>
    <g id="xtick_4">
     <g id="line2d_4"/>
     <g id="text_4">
      <text style="fill: #262626; font: 20px 'sans-serif'" transform="translate(379.44225 303.199531)rotate(-90)">DNA Synth</text>
     </g>
    </g>
    <g id="xtick_5">
     <g id="line2d_5"/>
     <g id="text_5">
      <text style="fill: #262626; font: 20px 'sans-serif'" transform="translate(441.933563 262.046406)rotate(-90)">HDAC</text>
     </g>
    </g>
    <g id="xtick_6">
     <g id="line2d_6"/>
     <g id="text_6">
      <text style="fill: #262626; font: 20px 'sans-serif'" transform="translate(504.429563 268.743281)rotate(-90)">HSP90</text>
     </g>
    </g>
    <g id="xtick_7">
     <g id="line2d_7"/>
     <g id="text_7">
      <text style="fill: #262626; font: 20px 'sans-serif'" transform="translate(566.925563 245.383906)rotate(-90)">LCH</text>
     </g>
    </g>
    <g id="xtick_8">
     <g id="line2d_8"/>
     <g id="text_8">
      <text style="fill: #262626; font: 20px 'sans-serif'" transform="translate(629.42625 319.880781)rotate(-90)">ProteinSynth</text>
     </g>
    </g>
    <g id="xtick_9">
     <g id="line2d_9"/>
     <g id="text_9">
      <text style="fill: #262626; font: 20px 'sans-serif'" transform="translate(691.917563 270.215156)rotate(-90)">Tubulin</text>
     </g>
    </g>
    <g id="xtick_10">
     <g id="line2d_10"/>
     <g id="text_10">
      <text style="fill: #262626; font: 20px 'sans-serif'" transform="translate(754.413563 296.530781)rotate(-90)">Uncoupler</text>
     </g>
    </g>
   </g>
   <g id="matplotlib.axis_2">
    <g id="ytick_1">
     <g id="line2d_11"/>
     <g id="text_11">
      <text style="fill: #262626; font: 20px 'sans-serif'; text-anchor: end" x="144.33125" y="56.771719" transform="rotate(-0, 144.33125, 56.771719)">     Cpd 1 10µM</text>
     </g>
    </g>
    <g id="ytick_2">
     <g id="line2d_12"/>
     <g id="text_12">
      <text style="fill: #262626; font: 20px 'sans-serif'; text-anchor: end" x="144.33125" y="97.541719" transform="rotate(-0, 144.33125, 97.541719)">     Cpd 1 30µM</text>
     </g>
    </g>
    <g id="ytick_3">
     <g id="line2d_13"/>
     <g id="text_13">
      <text style="fill: #262626; font: 20px 'sans-serif'; text-anchor: end" x="144.33125" y="138.311719" transform="rotate(-0, 144.33125, 138.311719)">     Cpd 2 10µM</text>
     </g>
    </g>
    <g id="ytick_4">
     <g id="line2d_14"/>
     <g id="text_14">
      <text style="fill: #262626; font: 20px 'sans-serif'; text-anchor: end" x="144.33125" y="179.081719" transform="rotate(-0, 144.33125, 179.081719)">     Cpd 2 30µM</text>
     </g>
    </g>
   </g>
   <g id="QuadMesh_1">
    <path d="M 155.53125 31.094531 
L 218.02725 31.094531 
L 218.02725 71.864531 
L 155.53125 71.864531 
L 155.53125 31.094531 
" clip-path="url(#p1c1c2a60b9)" style="fill: #ffffff; stroke: #ffffff; stroke-width: 0.5"/>
    <path d="M 218.02725 31.094531 
L 280.52325 31.094531 
L 280.52325 71.864531 
L 218.02725 71.864531 
L 218.02725 31.094531 
" clip-path="url(#p1c1c2a60b9)" style="fill: #ffffff; stroke: #ffffff; stroke-width: 0.5"/>
    <path d="M 280.52325 31.094531 
L 343.01925 31.094531 
L 343.01925 71.864531 
L 280.52325 71.864531 
L 280.52325 31.094531 
" clip-path="url(#p1c1c2a60b9)" style="fill: #ffffff; stroke: #ffffff; stroke-width: 0.5"/>
    <path d="M 343.01925 31.094531 
L 405.51525 31.094531 
L 405.51525 71.864531 
L 343.01925 71.864531 
L 343.01925 31.094531 
" clip-path="url(#p1c1c2a60b9)" style="fill: #ffffff; stroke: #ffffff; stroke-width: 0.5"/>
    <path d="M 405.51525 31.094531 
L 468.01125 31.094531 
L 468.01125 71.864531 
L 405.51525 71.864531 
L 405.51525 31.094531 
" clip-path="url(#p1c1c2a60b9)" style="fill: #cee0f2; stroke: #ffffff; stroke-width: 0.5"/>
    <path d="M 468.01125 31.094531 
L 530.50725 31.094531 
L 530.50725 71.864531 
L 468.01125 71.864531 
L 468.01125 31.094531 
" clip-path="url(#p1c1c2a60b9)" style="fill: #ffffff; stroke: #ffffff; stroke-width: 0.5"/>
    <path d="M 530.50725 31.094531 
L 593.00325 31.094531 
L 593.00325 71.864531 
L 530.50725 71.864531 
L 530.50725 31.094531 
" clip-path="url(#p1c1c2a60b9)" style="fill: #ffffff; stroke: #ffffff; stroke-width: 0.5"/>
    <path d="M 593.00325 31.094531 
L 655.49925 31.094531 
L 655.49925 71.864531 
L 593.00325 71.864531 
L 593.00325 31.094531 
" clip-path="url(#p1c1c2a60b9)" style="fill: #ffffff; stroke: #ffffff; stroke-width: 0.5"/>
    <path d="M 655.49925 31.094531 
L 717.99525 31.094531 
L 717.99525 71.864531 
L 655.49925 71.864531 
L 655.49925 31.094531 
" clip-path="url(#p1c1c2a60b9)" style="fill: #ffffff; stroke: #ffffff; stroke-width: 0.5"/>
    <path d="M 717.99525 31.094531 
L 780.49125 31.094531 
L 780.49125 71.864531 
L 717.99525 71.864531 
L 717.99525 31.094531 
" clip-path="url(#p1c1c2a60b9)" style="fill: #ffffff; stroke: #ffffff; stroke-width: 0.5"/>
    <path d="M 155.53125 71.864531 
L 218.02725 71.864531 
L 218.02725 112.634531 
L 155.53125 112.634531 
L 155.53125 71.864531 
" clip-path="url(#p1c1c2a60b9)" style="fill: #ffffff; stroke: #ffffff; stroke-width: 0.5"/>
    <path d="M 218.02725 71.864531 
L 280.52325 71.864531 
L 280.52325 112.634531 
L 218.02725 112.634531 
L 218.02725 71.864531 
" clip-path="url(#p1c1c2a60b9)" style="fill: #ffffff; stroke: #ffffff; stroke-width: 0.5"/>
    <path d="M 280.52325 71.864531 
L 343.01925 71.864531 
L 343.01925 112.634531 
L 280.52325 112.634531 
L 280.52325 71.864531 
" clip-path="url(#p1c1c2a60b9)" style="fill: #a0cbe2; stroke: #ffffff; stroke-width: 0.5"/>
    <path d="M 343.01925 71.864531 
L 405.51525 71.864531 
L 405.51525 112.634531 
L 343.01925 112.634531 
L 343.01925 71.864531 
" clip-path="url(#p1c1c2a60b9)" style="fill: #ffffff; stroke: #ffffff; stroke-width: 0.5"/>
    <path d="M 405.51525 71.864531 
L 468.01125 71.864531 
L 468.01125 112.634531 
L 405.51525 112.634531 
L 405.51525 71.864531 
" clip-path="url(#p1c1c2a60b9)" style="fill: #76b4d8; stroke: #ffffff; stroke-width: 0.5"/>
    <path d="M 468.01125 71.864531 
L 530.50725 71.864531 
L 530.50725 112.634531 
L 468.01125 112.634531 
L 468.01125 71.864531 
" clip-path="url(#p1c1c2a60b9)" style="fill: #ffffff; stroke: #ffffff; stroke-width: 0.5"/>
    <path d="M 530.50725 71.864531 
L 593.00325 71.864531 
L 593.00325 112.634531 
L 530.50725 112.634531 
L 530.50725 71.864531 
" clip-path="url(#p1c1c2a60b9)" style="fill: #ffffff; stroke: #ffffff; stroke-width: 0.5"/>
    <path d="M 593.00325 71.864531 
L 655.49925 71.864531 
L 655.49925 112.634531 
L 593.00325 112.634531 
L 593.00325 71.864531 
" clip-path="url(#p1c1c2a60b9)" style="fill: #ffffff; stroke: #ffffff; stroke-width: 0.5"/>
    <path d="M 655.49925 71.864531 
L 717.99525 71.864531 
L 717.99525 112.634531 
L 655.49925 112.634531 
L 655.49925 71.864531 
" clip-path="url(#p1c1c2a60b9)" style="fill: #ffffff; stroke: #ffffff; stroke-width: 0.5"/>
    <path d="M 717.99525 71.864531 
L 780.49125 71.864531 
L 780.49125 112.634531 
L 717.99525 112.634531 
L 717.99525 71.864531 
" clip-path="url(#p1c1c2a60b9)" style="fill: #ffffff; stroke: #ffffff; stroke-width: 0.5"/>
    <path d="M 155.53125 112.634531 
L 218.02725 112.634531 
L 218.02725 153.404531 
L 155.53125 153.404531 
L 155.53125 112.634531 
" clip-path="url(#p1c1c2a60b9)" style="fill: #ffffff; stroke: #ffffff; stroke-width: 0.5"/>
    <path d="M 218.02725 112.634531 
L 280.52325 112.634531 
L 280.52325 153.404531 
L 218.02725 153.404531 
L 218.02725 112.634531 
" clip-path="url(#p1c1c2a60b9)" style="fill: #ffffff; stroke: #ffffff; stroke-width: 0.5"/>
    <path d="M 280.52325 112.634531 
L 343.01925 112.634531 
L 343.01925 153.404531 
L 280.52325 153.404531 
L 280.52325 112.634531 
" clip-path="url(#p1c1c2a60b9)" style="fill: #ffffff; stroke: #ffffff; stroke-width: 0.5"/>
    <path d="M 343.01925 112.634531 
L 405.51525 112.634531 
L 405.51525 153.404531 
L 343.01925 153.404531 
L 343.01925 112.634531 
" clip-path="url(#p1c1c2a60b9)" style="fill: #ffffff; stroke: #ffffff; stroke-width: 0.5"/>
    <path d="M 405.51525 112.634531 
L 468.01125 112.634531 
L 468.01125 153.404531 
L 405.51525 153.404531 
L 405.51525 112.634531 
" clip-path="url(#p1c1c2a60b9)" style="fill: #b1d2e8; stroke: #ffffff; stroke-width: 0.5"/>
    <path d="M 468.01125 112.634531 
L 530.50725 112.634531 
L 530.50725 153.404531 
L 468.01125 153.404531 
L 468.01125 112.634531 
" clip-path="url(#p1c1c2a60b9)" style="fill: #ffffff; stroke: #ffffff; stroke-width: 0.5"/>
    <path d="M 530.50725 112.634531 
L 593.00325 112.634531 
L 593.00325 153.404531 
L 530.50725 153.404531 
L 530.50725 112.634531 
" clip-path="url(#p1c1c2a60b9)" style="fill: #ffffff; stroke: #ffffff; stroke-width: 0.5"/>
    <path d="M 593.00325 112.634531 
L 655.49925 112.634531 
L 655.49925 153.404531 
L 593.00325 153.404531 
L 593.00325 112.634531 
" clip-path="url(#p1c1c2a60b9)" style="fill: #ffffff; stroke: #ffffff; stroke-width: 0.5"/>
    <path d="M 655.49925 112.634531 
L 717.99525 112.634531 
L 717.99525 153.404531 
L 655.49925 153.404531 
L 655.49925 112.634531 
" clip-path="url(#p1c1c2a60b9)" style="fill: #ffffff; stroke: #ffffff; stroke-width: 0.5"/>
    <path d="M 717.99525 112.634531 
L 780.49125 112.634531 
L 780.49125 153.404531 
L 717.99525 153.404531 
L 717.99525 112.634531 
" clip-path="url(#p1c1c2a60b9)" style="fill: #ffffff; stroke: #ffffff; stroke-width: 0.5"/>
    <path d="M 155.53125 153.404531 
L 218.02725 153.404531 
L 218.02725 194.174531 
L 155.53125 194.174531 
L 155.53125 153.404531 
" clip-path="url(#p1c1c2a60b9)" style="fill: #ffffff; stroke: #ffffff; stroke-width: 0.5"/>
    <path d="M 218.02725 153.404531 
L 280.52325 153.404531 
L 280.52325 194.174531 
L 218.02725 194.174531 
L 218.02725 153.404531 
" clip-path="url(#p1c1c2a60b9)" style="fill: #ffffff; stroke: #ffffff; stroke-width: 0.5"/>
    <path d="M 280.52325 153.404531 
L 343.01925 153.404531 
L 343.01925 194.174531 
L 280.52325 194.174531 
L 280.52325 153.404531 
" clip-path="url(#p1c1c2a60b9)" style="fill: #a0cbe2; stroke: #ffffff; stroke-width: 0.5"/>
    <path d="M 343.01925 153.404531 
L 405.51525 153.404531 
L 405.51525 194.174531 
L 343.01925 194.174531 
L 343.01925 153.404531 
" clip-path="url(#p1c1c2a60b9)" style="fill: #ffffff; stroke: #ffffff; stroke-width: 0.5"/>
    <path d="M 405.51525 153.404531 
L 468.01125 153.404531 
L 468.01125 194.174531 
L 405.51525 194.174531 
L 405.51525 153.404531 
" clip-path="url(#p1c1c2a60b9)" style="fill: #4090c5; stroke: #ffffff; stroke-width: 0.5"/>
    <path d="M 468.01125 153.404531 
L 530.50725 153.404531 
L 530.50725 194.174531 
L 468.01125 194.174531 
L 468.01125 153.404531 
" clip-path="url(#p1c1c2a60b9)" style="fill: #ffffff; stroke: #ffffff; stroke-width: 0.5"/>
    <path d="M 530.50725 153.404531 
L 593.00325 153.404531 
L 593.00325 194.174531 
L 530.50725 194.174531 
L 530.50725 153.404531 
" clip-path="url(#p1c1c2a60b9)" style="fill: #ffffff; stroke: #ffffff; stroke-width: 0.5"/>
    <path d="M 593.00325 153.404531 
L 655.49925 153.404531 
L 655.49925 194.174531 
L 593.00325 194.174531 
L 593.00325 153.404531 
" clip-path="url(#p1c1c2a60b9)" style="fill: #ffffff; stroke: #ffffff; stroke-width: 0.5"/>
    <path d="M 655.49925 153.404531 
L 717.99525 153.404531 
L 717.99525 194.174531 
L 655.49925 194.174531 
L 655.49925 153.404531 
" clip-path="url(#p1c1c2a60b9)" style="fill: #ffffff; stroke: #ffffff; stroke-width: 0.5"/>
    <path d="M 717.99525 153.404531 
L 780.49125 153.404531 
L 780.49125 194.174531 
L 717.99525 194.174531 
L 717.99525 153.404531 
" clip-path="url(#p1c1c2a60b9)" style="fill: #ffffff; stroke: #ffffff; stroke-width: 0.5"/>
   </g>
   <g id="text_15">
    <text style="fill: #262626; font: 22px 'sans-serif'; text-anchor: middle" x="186.77925" y="57.166875" transform="rotate(-0, 186.77925, 57.166875)">0</text>
   </g>
   <g id="text_16">
    <text style="fill: #262626; font: 22px 'sans-serif'; text-anchor: middle" x="249.27525" y="57.166875" transform="rotate(-0, 249.27525, 57.166875)">0</text>
   </g>
   <g id="text_17">
    <text style="fill: #262626; font: 22px 'sans-serif'; text-anchor: middle" x="311.77125" y="57.166875" transform="rotate(-0, 311.77125, 57.166875)">76</text>
   </g>
   <g id="text_18">
    <text style="fill: #262626; font: 22px 'sans-serif'; text-anchor: middle" x="374.26725" y="57.166875" transform="rotate(-0, 374.26725, 57.166875)">0</text>
   </g>
   <g id="text_19">
    <text style="fill: #262626; font: 22px 'sans-serif'; text-anchor: middle" x="436.76325" y="57.166875" transform="rotate(-0, 436.76325, 57.166875)">85</text>
   </g>
   <g id="text_20">
    <text style="fill: #262626; font: 22px 'sans-serif'; text-anchor: middle" x="499.25925" y="57.166875" transform="rotate(-0, 499.25925, 57.166875)">29</text>
   </g>
   <g id="text_21">
    <text style="fill: #262626; font: 22px 'sans-serif'; text-anchor: middle" x="561.75525" y="57.166875" transform="rotate(-0, 561.75525, 57.166875)">62</text>
   </g>
   <g id="text_22">
    <text style="fill: #262626; font: 22px 'sans-serif'; text-anchor: middle" x="624.25125" y="57.166875" transform="rotate(-0, 624.25125, 57.166875)">70</text>
   </g>
   <g id="text_23">
    <text style="fill: #262626; font: 22px 'sans-serif'; text-anchor: middle" x="686.74725" y="57.166875" transform="rotate(-0, 686.74725, 57.166875)">73</text>
   </g>
   <g id="text_24">
    <text style="fill: #262626; font: 22px 'sans-serif'; text-anchor: middle" x="749.24325" y="57.166875" transform="rotate(-0, 749.24325, 57.166875)">75</text>
   </g>
   <g id="text_25">
    <text style="fill: #262626; font: 22px 'sans-serif'; text-anchor: middle" x="186.77925" y="97.936875" transform="rotate(-0, 186.77925, 97.936875)">0</text>
   </g>
   <g id="text_26">
    <text style="fill: #262626; font: 22px 'sans-serif'; text-anchor: middle" x="249.27525" y="97.936875" transform="rotate(-0, 249.27525, 97.936875)">0</text>
   </g>
   <g id="text_27">
    <text style="fill: #262626; font: 22px 'sans-serif'; text-anchor: middle" x="311.77125" y="97.936875" transform="rotate(-0, 311.77125, 97.936875)">87</text>
   </g>
   <g id="text_28">
    <text style="fill: #262626; font: 22px 'sans-serif'; text-anchor: middle" x="374.26725" y="97.936875" transform="rotate(-0, 374.26725, 97.936875)">0</text>
   </g>
   <g id="text_29">
    <text style="fill: #262626; font: 22px 'sans-serif'; text-anchor: middle" x="436.76325" y="97.936875" transform="rotate(-0, 436.76325, 97.936875)">90</text>
   </g>
   <g id="text_30">
    <text style="fill: #262626; font: 22px 'sans-serif'; text-anchor: middle" x="499.25925" y="97.936875" transform="rotate(-0, 499.25925, 97.936875)">19</text>
   </g>
   <g id="text_31">
    <text style="fill: #262626; font: 22px 'sans-serif'; text-anchor: middle" x="561.75525" y="97.936875" transform="rotate(-0, 561.75525, 97.936875)">77</text>
   </g>
   <g id="text_32">
    <text style="fill: #262626; font: 22px 'sans-serif'; text-anchor: middle" x="624.25125" y="97.936875" transform="rotate(-0, 624.25125, 97.936875)">77</text>
   </g>
   <g id="text_33">
    <text style="fill: #262626; font: 22px 'sans-serif'; text-anchor: middle" x="686.74725" y="97.936875" transform="rotate(-0, 686.74725, 97.936875)">80</text>
   </g>
   <g id="text_34">
    <text style="fill: #262626; font: 22px 'sans-serif'; text-anchor: middle" x="749.24325" y="97.936875" transform="rotate(-0, 749.24325, 97.936875)">74</text>
   </g>
   <g id="text_35">
    <text style="fill: #262626; font: 22px 'sans-serif'; text-anchor: middle" x="186.77925" y="138.706875" transform="rotate(-0, 186.77925, 138.706875)">0</text>
   </g>
   <g id="text_36">
    <text style="fill: #262626; font: 22px 'sans-serif'; text-anchor: middle" x="249.27525" y="138.706875" transform="rotate(-0, 249.27525, 138.706875)">0</text>
   </g>
   <g id="text_37">
    <text style="fill: #262626; font: 22px 'sans-serif'; text-anchor: middle" x="311.77125" y="138.706875" transform="rotate(-0, 311.77125, 138.706875)">75</text>
   </g>
   <g id="text_38">
    <text style="fill: #262626; font: 22px 'sans-serif'; text-anchor: middle" x="374.26725" y="138.706875" transform="rotate(-0, 374.26725, 138.706875)">0</text>
   </g>
   <g id="text_39">
    <text style="fill: #262626; font: 22px 'sans-serif'; text-anchor: middle" x="436.76325" y="138.706875" transform="rotate(-0, 436.76325, 138.706875)">86</text>
   </g>
   <g id="text_40">
    <text style="fill: #262626; font: 22px 'sans-serif'; text-anchor: middle" x="499.25925" y="138.706875" transform="rotate(-0, 499.25925, 138.706875)">26</text>
   </g>
   <g id="text_41">
    <text style="fill: #262626; font: 22px 'sans-serif'; text-anchor: middle" x="561.75525" y="138.706875" transform="rotate(-0, 561.75525, 138.706875)">58</text>
   </g>
   <g id="text_42">
    <text style="fill: #262626; font: 22px 'sans-serif'; text-anchor: middle" x="624.25125" y="138.706875" transform="rotate(-0, 624.25125, 138.706875)">71</text>
   </g>
   <g id="text_43">
    <text style="fill: #262626; font: 22px 'sans-serif'; text-anchor: middle" x="686.74725" y="138.706875" transform="rotate(-0, 686.74725, 138.706875)">73</text>
   </g>
   <g id="text_44">
    <text style="fill: #262626; font: 22px 'sans-serif'; text-anchor: middle" x="749.24325" y="138.706875" transform="rotate(-0, 749.24325, 138.706875)">75</text>
   </g>
   <g id="text_45">
    <text style="fill: #262626; font: 22px 'sans-serif'; text-anchor: middle" x="186.77925" y="179.476875" transform="rotate(-0, 186.77925, 179.476875)">0</text>
   </g>
   <g id="text_46">
    <text style="fill: #262626; font: 22px 'sans-serif'; text-anchor: middle" x="249.27525" y="179.476875" transform="rotate(-0, 249.27525, 179.476875)">0</text>
   </g>
   <g id="text_47">
    <text style="fill: #262626; font: 22px 'sans-serif'; text-anchor: middle" x="311.77125" y="179.476875" transform="rotate(-0, 311.77125, 179.476875)">87</text>
   </g>
   <g id="text_48">
    <text style="fill: #262626; font: 22px 'sans-serif'; text-anchor: middle" x="374.26725" y="179.476875" transform="rotate(-0, 374.26725, 179.476875)">0</text>
   </g>
   <g id="text_49">
    <text style="fill: #ffffff; font: 22px 'sans-serif'; text-anchor: middle" x="436.76325" y="179.476875" transform="rotate(-0, 436.76325, 179.476875)">92</text>
   </g>
   <g id="text_50">
    <text style="fill: #262626; font: 22px 'sans-serif'; text-anchor: middle" x="499.25925" y="179.476875" transform="rotate(-0, 499.25925, 179.476875)">17</text>
   </g>
   <g id="text_51">
    <text style="fill: #262626; font: 22px 'sans-serif'; text-anchor: middle" x="561.75525" y="179.476875" transform="rotate(-0, 561.75525, 179.476875)">78</text>
   </g>
   <g id="text_52">
    <text style="fill: #262626; font: 22px 'sans-serif'; text-anchor: middle" x="624.25125" y="179.476875" transform="rotate(-0, 624.25125, 179.476875)">73</text>
   </g>
   <g id="text_53">
    <text style="fill: #262626; font: 22px 'sans-serif'; text-anchor: middle" x="686.74725" y="179.476875" transform="rotate(-0, 686.74725, 179.476875)">79</text>
   </g>
   <g id="text_54">
    <text style="fill: #262626; font: 22px 'sans-serif'; text-anchor: middle" x="749.24325" y="179.476875" transform="rotate(-0, 749.24325, 179.476875)">72</text>
   </g>
   <g id="text_55">
    <text style="fill: #262626; font: 25px 'sans-serif'; text-anchor: middle" x="468.01125" y="25.094531" transform="rotate(-0, 468.01125, 25.094531)">Cluster Biosimilaritites</text>
   </g>
  </g>
  <g id="axes_2">
   <g id="patch_3">
    <path d="M 819.55125 194.174531 
L 827.70525 194.174531 
L 827.70525 31.094531 
L 819.55125 31.094531 
z
" style="fill: #ffffff"/>
   </g>
   <g id="patch_4">
    <path clip-path="url(#p591f49e682)" style="fill: #ffffff; stroke: #ffffff; stroke-width: 0.01; stroke-linejoin: miter"/>
   </g>
   <g id="matplotlib.axis_3">
    <g id="ytick_5">
     <g id="line2d_15"/>
     <g id="text_56">
      <text style="fill: #262626; font: 20px 'sans-serif'; text-anchor: start" x="838.90525" y="201.332344" transform="rotate(-0, 838.90525, 201.332344)">80</text>
     </g>
    </g>
    <g id="ytick_6">
     <g id="line2d_16"/>
     <g id="text_57">
      <text style="fill: #262626; font: 20px 'sans-serif'; text-anchor: start" x="838.90525" y="160.562344" transform="rotate(-0, 838.90525, 160.562344)">85</text>
     </g>
    </g>
    <g id="ytick_7">
     <g id="line2d_17"/>
     <g id="text_58">
      <text style="fill: #262626; font: 20px 'sans-serif'; text-anchor: start" x="838.90525" y="119.792344" transform="rotate(-0, 838.90525, 119.792344)">90</text>
     </g>
    </g>
    <g id="ytick_8">
     <g id="line2d_18"/>
     <g id="text_59">
      <text style="fill: #262626; font: 20px 'sans-serif'; text-anchor: start" x="838.90525" y="79.022344" transform="rotate(-0, 838.90525, 79.022344)">95</text>
     </g>
    </g>
    <g id="ytick_9">
     <g id="line2d_19"/>
     <g id="text_60">
      <text style="fill: #262626; font: 20px 'sans-serif'; text-anchor: start" x="838.90525" y="38.252344" transform="rotate(-0, 838.90525, 38.252344)">100</text>
     </g>
    </g>
   </g>
   <g id="QuadMesh_2">
    <path d="M 819.55125 194.174531 
L 827.70525 194.174531 
L 827.70525 186.020531 
L 819.55125 186.020531 
L 819.55125 194.174531 
" clip-path="url(#p591f49e682)" style="fill: #ffffff"/>
    <path d="M 819.55125 186.020531 
L 827.70525 186.020531 
L 827.70525 177.866531 
L 819.55125 177.866531 
L 819.55125 186.020531 
" clip-path="url(#p591f49e682)" style="fill: #ecf4fc"/>
    <path d="M 819.55125 177.866531 
L 827.70525 177.866531 
L 827.70525 169.712531 
L 819.55125 169.712531 
L 819.55125 177.866531 
" clip-path="url(#p591f49e682)" style="fill: #e2eef8"/>
    <path d="M 819.55125 169.712531 
L 827.70525 169.712531 
L 827.70525 161.558531 
L 819.55125 161.558531 
L 819.55125 169.712531 
" clip-path="url(#p591f49e682)" style="fill: #d8e7f5"/>
    <path d="M 819.55125 161.558531 
L 827.70525 161.558531 
L 827.70525 153.404531 
L 819.55125 153.404531 
L 819.55125 161.558531 
" clip-path="url(#p591f49e682)" style="fill: #cee0f2"/>
    <path d="M 819.55125 153.404531 
L 827.70525 153.404531 
L 827.70525 145.250531 
L 819.55125 145.250531 
L 819.55125 153.404531 
" clip-path="url(#p591f49e682)" style="fill: #c2d9ee"/>
    <path d="M 819.55125 145.250531 
L 827.70525 145.250531 
L 827.70525 137.096531 
L 819.55125 137.096531 
L 819.55125 145.250531 
" clip-path="url(#p591f49e682)" style="fill: #b1d2e8"/>
    <path d="M 819.55125 137.096531 
L 827.70525 137.096531 
L 827.70525 128.942531 
L 819.55125 128.942531 
L 819.55125 137.096531 
" clip-path="url(#p591f49e682)" style="fill: #a0cbe2"/>
    <path d="M 819.55125 128.942531 
L 827.70525 128.942531 
L 827.70525 120.788531 
L 819.55125 120.788531 
L 819.55125 128.942531 
" clip-path="url(#p591f49e682)" style="fill: #8bc0dd"/>
    <path d="M 819.55125 120.788531 
L 827.70525 120.788531 
L 827.70525 112.634531 
L 819.55125 112.634531 
L 819.55125 120.788531 
" clip-path="url(#p591f49e682)" style="fill: #76b4d8"/>
    <path d="M 819.55125 112.634531 
L 827.70525 112.634531 
L 827.70525 104.480531 
L 819.55125 104.480531 
L 819.55125 112.634531 
" clip-path="url(#p591f49e682)" style="fill: #62a8d3"/>
    <path d="M 819.55125 104.480531 
L 827.70525 104.480531 
L 827.70525 96.326531 
L 819.55125 96.326531 
L 819.55125 104.480531 
" clip-path="url(#p591f49e682)" style="fill: #519ccc"/>
    <path d="M 819.55125 96.326531 
L 827.70525 96.326531 
L 827.70525 88.172531 
L 819.55125 88.172531 
L 819.55125 96.326531 
" clip-path="url(#p591f49e682)" style="fill: #4090c5"/>
    <path d="M 819.55125 88.172531 
L 827.70525 88.172531 
L 827.70525 80.018531 
L 819.55125 80.018531 
L 819.55125 88.172531 
" clip-path="url(#p591f49e682)" style="fill: #3282be"/>
    <path d="M 819.55125 80.018531 
L 827.70525 80.018531 
L 827.70525 71.864531 
L 819.55125 71.864531 
L 819.55125 80.018531 
" clip-path="url(#p591f49e682)" style="fill: #2474b7"/>
    <path d="M 819.55125 71.864531 
L 827.70525 71.864531 
L 827.70525 63.710531 
L 819.55125 63.710531 
L 819.55125 71.864531 
" clip-path="url(#p591f49e682)" style="fill: #1967ad"/>
    <path d="M 819.55125 63.710531 
L 827.70525 63.710531 
L 827.70525 55.556531 
L 819.55125 55.556531 
L 819.55125 63.710531 
" clip-path="url(#p591f49e682)" style="fill: #0f59a3"/>
    <path d="M 819.55125 55.556531 
L 827.70525 55.556531 
L 827.70525 47.402531 
L 819.55125 47.402531 
L 819.55125 55.556531 
" clip-path="url(#p591f49e682)" style="fill: #084c94"/>
    <path d="M 819.55125 47.402531 
L 827.70525 47.402531 
L 827.70525 39.248531 
L 819.55125 39.248531 
L 819.55125 47.402531 
" clip-path="url(#p591f49e682)" style="fill: #083e80"/>
    <path d="M 819.55125 39.248531 
L 827.70525 39.248531 
L 827.70525 31.094531 
L 819.55125 31.094531 
L 819.55125 39.248531 
" clip-path="url(#p591f49e682)" style="fill: #08306b"/>
   </g>
   <g id="LineCollection_1"/>
   <g id="patch_5">
    <path d="M 819.55125 194.174531 
L 823.62825 194.174531 
L 827.70525 194.174531 
L 827.70525 31.094531 
L 823.62825 31.094531 
L 819.55125 31.094531 
L 819.55125 194.174531 
z
" style="fill: none"/>
   </g>
  </g>
 </g>
 <defs>
  <clipPath id="p1c1c2a60b9">
   <rect x="155.53125" y="31.094531" width="624.96" height="163.08"/>
  </clipPath>
  <clipPath id="p591f49e682">
   <rect x="819.55125" y="31.094531" width="8.154" height="163.08"/>
  </clipPath>
 </defs>
</svg>
