<?xml version="1.0" encoding="utf-8" standalone="no"?>
<!DOCTYPE svg PUBLIC "-//W3C//DTD SVG 1.1//EN"
  "http://www.w3.org/Graphics/SVG/1.1/DTD/svg11.dtd">
<svg xmlns:xlink="http://www.w3.org/1999/xlink" width="900.97825pt" height="282.928281pt" viewBox="0 0 900.97825 282.928281" xmlns="http://www.w3.org/2000/svg" version="1.1">
 <metadata>
  <rdf:RDF xmlns:dc="http://purl.org/dc/elements/1.1/" xmlns:cc="http://creativecommons.org/ns#" xmlns:rdf="http://www.w3.org/1999/02/22-rdf-syntax-ns#">
   <cc:Work>
    <dc:type rdf:resource="http://purl.org/dc/dcmitype/StillImage"/>
    <dc:date>2023-02-14T10:21:53.131399</dc:date>
    <dc:format>image/svg+xml</dc:format>
    <dc:creator>
     <cc:Agent>
      <dc:title>Matplotlib v3.5.1, https://matplotlib.org/</dc:title>
     </cc:Agent>
    </dc:creator>
   </cc:Work>
  </rdf:RDF>
 </metadata>
 <defs>
  <style type="text/css">*{stroke-linejoin: round; stroke-linecap: butt}</style>
 </defs>
 <g id="figure_1">
  <g id="patch_1">
   <path d="M 0 282.928281 
L 900.97825 282.928281 
L 900.97825 0 
L 0 0 
z
" style="fill: #ffffff"/>
  </g>
  <g id="axes_1">
   <g id="patch_2">
    <path d="M 181.115625 112.634531 
L 806.075625 112.634531 
L 806.075625 31.094531 
L 181.115625 31.094531 
z
" style="fill: #ffffff"/>
   </g>
   <g id="matplotlib.axis_1">
    <g id="xtick_1">
     <g id="line2d_1"/>
     <g id="text_1">
      <text style="fill: #262626; font: 20px 'sans-serif'" transform="translate(212.325937 275.728281)rotate(-90)">AKT/PI3K/MTOR</text>
     </g>
    </g>
    <g id="xtick_2">
     <g id="line2d_2"/>
     <g id="text_2">
      <text style="fill: #262626; font: 20px 'sans-serif'" transform="translate(264.405938 183.859531)rotate(-90)">Aurora</text>
     </g>
    </g>
    <g id="xtick_3">
     <g id="line2d_3"/>
     <g id="text_3">
      <text style="fill: #262626; font: 20px 'sans-serif'" transform="translate(316.485937 162.731406)rotate(-90)">BET</text>
     </g>
    </g>
    <g id="xtick_4">
     <g id="line2d_4"/>
     <g id="text_4">
      <text style="fill: #262626; font: 20px 'sans-serif'" transform="translate(368.570625 221.659531)rotate(-90)">DNA Synth</text>
     </g>
    </g>
    <g id="xtick_5">
     <g id="line2d_5"/>
     <g id="text_5">
      <text style="fill: #262626; font: 20px 'sans-serif'" transform="translate(420.645938 180.506406)rotate(-90)">HDAC</text>
     </g>
    </g>
    <g id="xtick_6">
     <g id="line2d_6"/>
     <g id="text_6">
      <text style="fill: #262626; font: 20px 'sans-serif'" transform="translate(472.725937 187.203281)rotate(-90)">HSP90</text>
     </g>
    </g>
    <g id="xtick_7">
     <g id="line2d_7"/>
     <g id="text_7">
      <text style="fill: #262626; font: 20px 'sans-serif'" transform="translate(524.805938 163.843906)rotate(-90)">LCH</text>
     </g>
    </g>
    <g id="xtick_8">
     <g id="line2d_8"/>
     <g id="text_8">
      <text style="fill: #262626; font: 20px 'sans-serif'" transform="translate(576.885937 267.984531)rotate(-90)">Na+/K+-ATPase</text>
     </g>
    </g>
    <g id="xtick_9">
     <g id="line2d_9"/>
     <g id="text_9">
      <text style="fill: #262626; font: 20px 'sans-serif'" transform="translate(628.970625 243.897031)rotate(-90)">Protein Synth</text>
     </g>
    </g>
    <g id="xtick_10">
     <g id="line2d_10"/>
     <g id="text_10">
      <text style="fill: #262626; font: 20px 'sans-serif'" transform="translate(681.050625 252.756406)rotate(-90)">Pyrimid. Synth</text>
     </g>
    </g>
    <g id="xtick_11">
     <g id="line2d_11"/>
     <g id="text_11">
      <text style="fill: #262626; font: 20px 'sans-serif'" transform="translate(733.125938 188.675156)rotate(-90)">Tubulin</text>
     </g>
    </g>
    <g id="xtick_12">
     <g id="line2d_12"/>
     <g id="text_12">
      <text style="fill: #262626; font: 20px 'sans-serif'" transform="translate(785.205938 214.990781)rotate(-90)">Uncoupler</text>
     </g>
    </g>
   </g>
   <g id="matplotlib.axis_2">
    <g id="ytick_1">
     <g id="line2d_13"/>
     <g id="text_13">
      <text style="fill: #262626; font: 20px 'sans-serif'; text-anchor: end" x="169.915625" y="56.679531" transform="rotate(-0, 169.915625, 56.679531)"> 1 µM LDN193189</text>
     </g>
    </g>
    <g id="ytick_2">
     <g id="line2d_14"/>
     <g id="text_14">
      <text style="fill: #262626; font: 20px 'sans-serif'; text-anchor: end" x="169.915625" y="97.541719" transform="rotate(-0, 169.915625, 97.541719)">    10 µM Cpd 3</text>
     </g>
    </g>
   </g>
   <g id="QuadMesh_1">
    <path d="M 181.115625 31.094531 
L 233.195625 31.094531 
L 233.195625 71.864531 
L 181.115625 71.864531 
L 181.115625 31.094531 
" clip-path="url(#pe041a277a6)" style="fill: #ffffff; stroke: #ffffff; stroke-width: 0.5"/>
    <path d="M 233.195625 31.094531 
L 285.275625 31.094531 
L 285.275625 71.864531 
L 233.195625 71.864531 
L 233.195625 31.094531 
" clip-path="url(#pe041a277a6)" style="fill: #ffffff; stroke: #ffffff; stroke-width: 0.5"/>
    <path d="M 285.275625 31.094531 
L 337.355625 31.094531 
L 337.355625 71.864531 
L 285.275625 71.864531 
L 285.275625 31.094531 
" clip-path="url(#pe041a277a6)" style="fill: #ffffff; stroke: #ffffff; stroke-width: 0.5"/>
    <path d="M 337.355625 31.094531 
L 389.435625 31.094531 
L 389.435625 71.864531 
L 337.355625 71.864531 
L 337.355625 31.094531 
" clip-path="url(#pe041a277a6)" style="fill: #ffffff; stroke: #ffffff; stroke-width: 0.5"/>
    <path d="M 389.435625 31.094531 
L 441.515625 31.094531 
L 441.515625 71.864531 
L 389.435625 71.864531 
L 389.435625 31.094531 
" clip-path="url(#pe041a277a6)" style="fill: #ffffff; stroke: #ffffff; stroke-width: 0.5"/>
    <path d="M 441.515625 31.094531 
L 493.595625 31.094531 
L 493.595625 71.864531 
L 441.515625 71.864531 
L 441.515625 31.094531 
" clip-path="url(#pe041a277a6)" style="fill: #ffffff; stroke: #ffffff; stroke-width: 0.5"/>
    <path d="M 493.595625 31.094531 
L 545.675625 31.094531 
L 545.675625 71.864531 
L 493.595625 71.864531 
L 493.595625 31.094531 
" clip-path="url(#pe041a277a6)" style="fill: #ffffff; stroke: #ffffff; stroke-width: 0.5"/>
    <path d="M 545.675625 31.094531 
L 597.755625 31.094531 
L 597.755625 71.864531 
L 545.675625 71.864531 
L 545.675625 31.094531 
" clip-path="url(#pe041a277a6)" style="fill: #ffffff; stroke: #ffffff; stroke-width: 0.5"/>
    <path d="M 597.755625 31.094531 
L 649.835625 31.094531 
L 649.835625 71.864531 
L 597.755625 71.864531 
L 597.755625 31.094531 
" clip-path="url(#pe041a277a6)" style="fill: #519ccc; stroke: #ffffff; stroke-width: 0.5"/>
    <path d="M 649.835625 31.094531 
L 701.915625 31.094531 
L 701.915625 71.864531 
L 649.835625 71.864531 
L 649.835625 31.094531 
" clip-path="url(#pe041a277a6)" style="fill: #ffffff; stroke: #ffffff; stroke-width: 0.5"/>
    <path d="M 701.915625 31.094531 
L 753.995625 31.094531 
L 753.995625 71.864531 
L 701.915625 71.864531 
L 701.915625 31.094531 
" clip-path="url(#pe041a277a6)" style="fill: #ffffff; stroke: #ffffff; stroke-width: 0.5"/>
    <path d="M 753.995625 31.094531 
L 806.075625 31.094531 
L 806.075625 71.864531 
L 753.995625 71.864531 
L 753.995625 31.094531 
" clip-path="url(#pe041a277a6)" style="fill: #ffffff; stroke: #ffffff; stroke-width: 0.5"/>
    <path d="M 181.115625 71.864531 
L 233.195625 71.864531 
L 233.195625 112.634531 
L 181.115625 112.634531 
L 181.115625 71.864531 
" clip-path="url(#pe041a277a6)" style="fill: #ffffff; stroke: #ffffff; stroke-width: 0.5"/>
    <path d="M 233.195625 71.864531 
L 285.275625 71.864531 
L 285.275625 112.634531 
L 233.195625 112.634531 
L 233.195625 71.864531 
" clip-path="url(#pe041a277a6)" style="fill: #ffffff; stroke: #ffffff; stroke-width: 0.5"/>
    <path d="M 285.275625 71.864531 
L 337.355625 71.864531 
L 337.355625 112.634531 
L 285.275625 112.634531 
L 285.275625 71.864531 
" clip-path="url(#pe041a277a6)" style="fill: #ffffff; stroke: #ffffff; stroke-width: 0.5"/>
    <path d="M 337.355625 71.864531 
L 389.435625 71.864531 
L 389.435625 112.634531 
L 337.355625 112.634531 
L 337.355625 71.864531 
" clip-path="url(#pe041a277a6)" style="fill: #ffffff; stroke: #ffffff; stroke-width: 0.5"/>
    <path d="M 389.435625 71.864531 
L 441.515625 71.864531 
L 441.515625 112.634531 
L 389.435625 112.634531 
L 389.435625 71.864531 
" clip-path="url(#pe041a277a6)" style="fill: #ffffff; stroke: #ffffff; stroke-width: 0.5"/>
    <path d="M 441.515625 71.864531 
L 493.595625 71.864531 
L 493.595625 112.634531 
L 441.515625 112.634531 
L 441.515625 71.864531 
" clip-path="url(#pe041a277a6)" style="fill: #ffffff; stroke: #ffffff; stroke-width: 0.5"/>
    <path d="M 493.595625 71.864531 
L 545.675625 71.864531 
L 545.675625 112.634531 
L 493.595625 112.634531 
L 493.595625 71.864531 
" clip-path="url(#pe041a277a6)" style="fill: #ffffff; stroke: #ffffff; stroke-width: 0.5"/>
    <path d="M 545.675625 71.864531 
L 597.755625 71.864531 
L 597.755625 112.634531 
L 545.675625 112.634531 
L 545.675625 71.864531 
" clip-path="url(#pe041a277a6)" style="fill: #ffffff; stroke: #ffffff; stroke-width: 0.5"/>
    <path d="M 597.755625 71.864531 
L 649.835625 71.864531 
L 649.835625 112.634531 
L 597.755625 112.634531 
L 597.755625 71.864531 
" clip-path="url(#pe041a277a6)" style="fill: #a0cbe2; stroke: #ffffff; stroke-width: 0.5"/>
    <path d="M 649.835625 71.864531 
L 701.915625 71.864531 
L 701.915625 112.634531 
L 649.835625 112.634531 
L 649.835625 71.864531 
" clip-path="url(#pe041a277a6)" style="fill: #ffffff; stroke: #ffffff; stroke-width: 0.5"/>
    <path d="M 701.915625 71.864531 
L 753.995625 71.864531 
L 753.995625 112.634531 
L 701.915625 112.634531 
L 701.915625 71.864531 
" clip-path="url(#pe041a277a6)" style="fill: #ffffff; stroke: #ffffff; stroke-width: 0.5"/>
    <path d="M 753.995625 71.864531 
L 806.075625 71.864531 
L 806.075625 112.634531 
L 753.995625 112.634531 
L 753.995625 71.864531 
" clip-path="url(#pe041a277a6)" style="fill: #ffffff; stroke: #ffffff; stroke-width: 0.5"/>
   </g>
   <g id="text_15">
    <text style="fill: #262626; font: 22px 'sans-serif'; text-anchor: middle" x="207.155625" y="57.166875" transform="rotate(-0, 207.155625, 57.166875)">0</text>
   </g>
   <g id="text_16">
    <text style="fill: #262626; font: 22px 'sans-serif'; text-anchor: middle" x="259.235625" y="57.166875" transform="rotate(-0, 259.235625, 57.166875)">0</text>
   </g>
   <g id="text_17">
    <text style="fill: #262626; font: 22px 'sans-serif'; text-anchor: middle" x="311.315625" y="57.166875" transform="rotate(-0, 311.315625, 57.166875)">74</text>
   </g>
   <g id="text_18">
    <text style="fill: #262626; font: 22px 'sans-serif'; text-anchor: middle" x="363.395625" y="57.166875" transform="rotate(-0, 363.395625, 57.166875)">0</text>
   </g>
   <g id="text_19">
    <text style="fill: #262626; font: 22px 'sans-serif'; text-anchor: middle" x="415.475625" y="57.166875" transform="rotate(-0, 415.475625, 57.166875)">72</text>
   </g>
   <g id="text_20">
    <text style="fill: #262626; font: 22px 'sans-serif'; text-anchor: middle" x="467.555625" y="57.166875" transform="rotate(-0, 467.555625, 57.166875)">29</text>
   </g>
   <g id="text_21">
    <text style="fill: #262626; font: 22px 'sans-serif'; text-anchor: middle" x="519.635625" y="57.166875" transform="rotate(-0, 519.635625, 57.166875)">62</text>
   </g>
   <g id="text_22">
    <text style="fill: #262626; font: 22px 'sans-serif'; text-anchor: middle" x="571.715625" y="57.166875" transform="rotate(-0, 571.715625, 57.166875)">38</text>
   </g>
   <g id="text_23">
    <text style="fill: #ffffff; font: 22px 'sans-serif'; text-anchor: middle" x="623.795625" y="57.166875" transform="rotate(-0, 623.795625, 57.166875)">91</text>
   </g>
   <g id="text_24">
    <text style="fill: #262626; font: 22px 'sans-serif'; text-anchor: middle" x="675.875625" y="57.166875" transform="rotate(-0, 675.875625, 57.166875)">0</text>
   </g>
   <g id="text_25">
    <text style="fill: #262626; font: 22px 'sans-serif'; text-anchor: middle" x="727.955625" y="57.166875" transform="rotate(-0, 727.955625, 57.166875)">71</text>
   </g>
   <g id="text_26">
    <text style="fill: #262626; font: 22px 'sans-serif'; text-anchor: middle" x="780.035625" y="57.166875" transform="rotate(-0, 780.035625, 57.166875)">60</text>
   </g>
   <g id="text_27">
    <text style="fill: #262626; font: 22px 'sans-serif'; text-anchor: middle" x="207.155625" y="97.936875" transform="rotate(-0, 207.155625, 97.936875)">0</text>
   </g>
   <g id="text_28">
    <text style="fill: #262626; font: 22px 'sans-serif'; text-anchor: middle" x="259.235625" y="97.936875" transform="rotate(-0, 259.235625, 97.936875)">0</text>
   </g>
   <g id="text_29">
    <text style="fill: #262626; font: 22px 'sans-serif'; text-anchor: middle" x="311.315625" y="97.936875" transform="rotate(-0, 311.315625, 97.936875)">61</text>
   </g>
   <g id="text_30">
    <text style="fill: #262626; font: 22px 'sans-serif'; text-anchor: middle" x="363.395625" y="97.936875" transform="rotate(-0, 363.395625, 97.936875)">0</text>
   </g>
   <g id="text_31">
    <text style="fill: #262626; font: 22px 'sans-serif'; text-anchor: middle" x="415.475625" y="97.936875" transform="rotate(-0, 415.475625, 97.936875)">57</text>
   </g>
   <g id="text_32">
    <text style="fill: #262626; font: 22px 'sans-serif'; text-anchor: middle" x="467.555625" y="97.936875" transform="rotate(-0, 467.555625, 97.936875)">26</text>
   </g>
   <g id="text_33">
    <text style="fill: #262626; font: 22px 'sans-serif'; text-anchor: middle" x="519.635625" y="97.936875" transform="rotate(-0, 519.635625, 97.936875)">35</text>
   </g>
   <g id="text_34">
    <text style="fill: #262626; font: 22px 'sans-serif'; text-anchor: middle" x="571.715625" y="97.936875" transform="rotate(-0, 571.715625, 97.936875)">34</text>
   </g>
   <g id="text_35">
    <text style="fill: #262626; font: 22px 'sans-serif'; text-anchor: middle" x="623.795625" y="97.936875" transform="rotate(-0, 623.795625, 97.936875)">87</text>
   </g>
   <g id="text_36">
    <text style="fill: #262626; font: 22px 'sans-serif'; text-anchor: middle" x="675.875625" y="97.936875" transform="rotate(-0, 675.875625, 97.936875)">0</text>
   </g>
   <g id="text_37">
    <text style="fill: #262626; font: 22px 'sans-serif'; text-anchor: middle" x="727.955625" y="97.936875" transform="rotate(-0, 727.955625, 97.936875)">57</text>
   </g>
   <g id="text_38">
    <text style="fill: #262626; font: 22px 'sans-serif'; text-anchor: middle" x="780.035625" y="97.936875" transform="rotate(-0, 780.035625, 97.936875)">64</text>
   </g>
   <g id="text_39">
    <text style="fill: #262626; font: 25px 'sans-serif'; text-anchor: middle" x="493.595625" y="25.094531" transform="rotate(-0, 493.595625, 25.094531)">Cluster Biosimilaritites</text>
   </g>
  </g>
  <g id="axes_2">
   <g id="patch_3">
    <path d="M 845.135625 112.634531 
L 849.212625 112.634531 
L 849.212625 31.094531 
L 845.135625 31.094531 
z
" style="fill: #ffffff"/>
   </g>
   <g id="patch_4">
    <path clip-path="url(#pef89fcd6c8)" style="fill: #ffffff; stroke: #ffffff; stroke-width: 0.01; stroke-linejoin: miter"/>
   </g>
   <g id="matplotlib.axis_3">
    <g id="ytick_3">
     <g id="line2d_15"/>
     <g id="text_40">
      <text style="fill: #262626; font: 20px 'sans-serif'; text-anchor: start" x="860.412625" y="119.792344" transform="rotate(-0, 860.412625, 119.792344)">80</text>
     </g>
    </g>
    <g id="ytick_4">
     <g id="line2d_16"/>
     <g id="text_41">
      <text style="fill: #262626; font: 20px 'sans-serif'; text-anchor: start" x="860.412625" y="79.022344" transform="rotate(-0, 860.412625, 79.022344)">90</text>
     </g>
    </g>
    <g id="ytick_5">
     <g id="line2d_17"/>
     <g id="text_42">
      <text style="fill: #262626; font: 20px 'sans-serif'; text-anchor: start" x="860.412625" y="38.252344" transform="rotate(-0, 860.412625, 38.252344)">100</text>
     </g>
    </g>
   </g>
   <g id="QuadMesh_2">
    <path d="M 845.135625 112.634531 
L 849.212625 112.634531 
L 849.212625 108.557531 
L 845.135625 108.557531 
L 845.135625 112.634531 
" clip-path="url(#pef89fcd6c8)" style="fill: #ffffff"/>
    <path d="M 845.135625 108.557531 
L 849.212625 108.557531 
L 849.212625 104.480531 
L 845.135625 104.480531 
L 845.135625 108.557531 
" clip-path="url(#pef89fcd6c8)" style="fill: #ecf4fc"/>
    <path d="M 845.135625 104.480531 
L 849.212625 104.480531 
L 849.212625 100.403531 
L 845.135625 100.403531 
L 845.135625 104.480531 
" clip-path="url(#pef89fcd6c8)" style="fill: #e2eef8"/>
    <path d="M 845.135625 100.403531 
L 849.212625 100.403531 
L 849.212625 96.326531 
L 845.135625 96.326531 
L 845.135625 100.403531 
" clip-path="url(#pef89fcd6c8)" style="fill: #d8e7f5"/>
    <path d="M 845.135625 96.326531 
L 849.212625 96.326531 
L 849.212625 92.249531 
L 845.135625 92.249531 
L 845.135625 96.326531 
" clip-path="url(#pef89fcd6c8)" style="fill: #cee0f2"/>
    <path d="M 845.135625 92.249531 
L 849.212625 92.249531 
L 849.212625 88.172531 
L 845.135625 88.172531 
L 845.135625 92.249531 
" clip-path="url(#pef89fcd6c8)" style="fill: #c2d9ee"/>
    <path d="M 845.135625 88.172531 
L 849.212625 88.172531 
L 849.212625 84.095531 
L 845.135625 84.095531 
L 845.135625 88.172531 
" clip-path="url(#pef89fcd6c8)" style="fill: #b1d2e8"/>
    <path d="M 845.135625 84.095531 
L 849.212625 84.095531 
L 849.212625 80.018531 
L 845.135625 80.018531 
L 845.135625 84.095531 
" clip-path="url(#pef89fcd6c8)" style="fill: #a0cbe2"/>
    <path d="M 845.135625 80.018531 
L 849.212625 80.018531 
L 849.212625 75.941531 
L 845.135625 75.941531 
L 845.135625 80.018531 
" clip-path="url(#pef89fcd6c8)" style="fill: #8bc0dd"/>
    <path d="M 845.135625 75.941531 
L 849.212625 75.941531 
L 849.212625 71.864531 
L 845.135625 71.864531 
L 845.135625 75.941531 
" clip-path="url(#pef89fcd6c8)" style="fill: #76b4d8"/>
    <path d="M 845.135625 71.864531 
L 849.212625 71.864531 
L 849.212625 67.787531 
L 845.135625 67.787531 
L 845.135625 71.864531 
" clip-path="url(#pef89fcd6c8)" style="fill: #62a8d3"/>
    <path d="M 845.135625 67.787531 
L 849.212625 67.787531 
L 849.212625 63.710531 
L 845.135625 63.710531 
L 845.135625 67.787531 
" clip-path="url(#pef89fcd6c8)" style="fill: #519ccc"/>
    <path d="M 845.135625 63.710531 
L 849.212625 63.710531 
L 849.212625 59.633531 
L 845.135625 59.633531 
L 845.135625 63.710531 
" clip-path="url(#pef89fcd6c8)" style="fill: #4090c5"/>
    <path d="M 845.135625 59.633531 
L 849.212625 59.633531 
L 849.212625 55.556531 
L 845.135625 55.556531 
L 845.135625 59.633531 
" clip-path="url(#pef89fcd6c8)" style="fill: #3282be"/>
    <path d="M 845.135625 55.556531 
L 849.212625 55.556531 
L 849.212625 51.479531 
L 845.135625 51.479531 
L 845.135625 55.556531 
" clip-path="url(#pef89fcd6c8)" style="fill: #2474b7"/>
    <path d="M 845.135625 51.479531 
L 849.212625 51.479531 
L 849.212625 47.402531 
L 845.135625 47.402531 
L 845.135625 51.479531 
" clip-path="url(#pef89fcd6c8)" style="fill: #1967ad"/>
    <path d="M 845.135625 47.402531 
L 849.212625 47.402531 
L 849.212625 43.325531 
L 845.135625 43.325531 
L 845.135625 47.402531 
" clip-path="url(#pef89fcd6c8)" style="fill: #0f59a3"/>
    <path d="M 845.135625 43.325531 
L 849.212625 43.325531 
L 849.212625 39.248531 
L 845.135625 39.248531 
L 845.135625 43.325531 
" clip-path="url(#pef89fcd6c8)" style="fill: #084c94"/>
    <path d="M 845.135625 39.248531 
L 849.212625 39.248531 
L 849.212625 35.171531 
L 845.135625 35.171531 
L 845.135625 39.248531 
" clip-path="url(#pef89fcd6c8)" style="fill: #083e80"/>
    <path d="M 845.135625 35.171531 
L 849.212625 35.171531 
L 849.212625 31.094531 
L 845.135625 31.094531 
L 845.135625 35.171531 
" clip-path="url(#pef89fcd6c8)" style="fill: #08306b"/>
   </g>
   <g id="LineCollection_1"/>
   <g id="patch_5">
    <path d="M 845.135625 112.634531 
L 847.174125 112.634531 
L 849.212625 112.634531 
L 849.212625 31.094531 
L 847.174125 31.094531 
L 845.135625 31.094531 
L 845.135625 112.634531 
z
" style="fill: none"/>
   </g>
  </g>
 </g>
 <defs>
  <clipPath id="pe041a277a6">
   <rect x="181.115625" y="31.094531" width="624.96" height="81.54"/>
  </clipPath>
  <clipPath id="pef89fcd6c8">
   <rect x="845.135625" y="31.094531" width="4.077" height="81.54"/>
  </clipPath>
 </defs>
</svg>
