<?xml version="1.0" encoding="utf-8" standalone="no"?>
<!DOCTYPE svg PUBLIC "-//W3C//DTD SVG 1.1//EN"
  "http://www.w3.org/Graphics/SVG/1.1/DTD/svg11.dtd">
<svg xmlns:xlink="http://www.w3.org/1999/xlink" width="923.9195pt" height="326.128281pt" viewBox="0 0 923.9195 326.128281" xmlns="http://www.w3.org/2000/svg" version="1.1">
 <metadata>
  <rdf:RDF xmlns:dc="http://purl.org/dc/elements/1.1/" xmlns:cc="http://creativecommons.org/ns#" xmlns:rdf="http://www.w3.org/1999/02/22-rdf-syntax-ns#">
   <cc:Work>
    <dc:type rdf:resource="http://purl.org/dc/dcmitype/StillImage"/>
    <dc:date>2023-03-13T11:13:40.552863</dc:date>
    <dc:format>image/svg+xml</dc:format>
    <dc:creator>
     <cc:Agent>
      <dc:title>Matplotlib v3.5.1, https://matplotlib.org/</dc:title>
     </cc:Agent>
    </dc:creator>
   </cc:Work>
  </rdf:RDF>
 </metadata>
 <defs>
  <style type="text/css">*{stroke-linejoin: round; stroke-linecap: butt}</style>
 </defs>
 <g id="figure_1">
  <g id="patch_1">
   <path d="M 0 326.128281 
L 923.9195 326.128281 
L 923.9195 -0 
L 0 -0 
z
" style="fill: #ffffff"/>
  </g>
  <g id="axes_1">
   <g id="patch_2">
    <path d="M 201.896875 155.834531 
L 826.856875 155.834531 
L 826.856875 31.094531 
L 201.896875 31.094531 
z
" style="fill: #ffffff"/>
   </g>
   <g id="matplotlib.axis_1">
    <g id="xtick_1">
     <g id="line2d_1"/>
     <g id="text_1">
      <text style="fill: #262626; font: 20px 'sans-serif'" transform="translate(233.107188 318.928281)rotate(-90)">AKT/PI3K/MTOR</text>
     </g>
    </g>
    <g id="xtick_2">
     <g id="line2d_2"/>
     <g id="text_2">
      <text style="fill: #262626; font: 20px 'sans-serif'" transform="translate(285.187188 227.059531)rotate(-90)">Aurora</text>
     </g>
    </g>
    <g id="xtick_3">
     <g id="line2d_3"/>
     <g id="text_3">
      <text style="fill: #262626; font: 20px 'sans-serif'" transform="translate(337.267188 205.931406)rotate(-90)">BET</text>
     </g>
    </g>
    <g id="xtick_4">
     <g id="line2d_4"/>
     <g id="text_4">
      <text style="fill: #262626; font: 20px 'sans-serif'" transform="translate(389.351875 264.859531)rotate(-90)">DNA Synth</text>
     </g>
    </g>
    <g id="xtick_5">
     <g id="line2d_5"/>
     <g id="text_5">
      <text style="fill: #262626; font: 20px 'sans-serif'" transform="translate(441.427188 223.706406)rotate(-90)">HDAC</text>
     </g>
    </g>
    <g id="xtick_6">
     <g id="line2d_6"/>
     <g id="text_6">
      <text style="fill: #262626; font: 20px 'sans-serif'" transform="translate(493.507188 230.403281)rotate(-90)">HSP90</text>
     </g>
    </g>
    <g id="xtick_7">
     <g id="line2d_7"/>
     <g id="text_7">
      <text style="fill: #262626; font: 20px 'sans-serif'" transform="translate(545.587188 207.043906)rotate(-90)">LCH</text>
     </g>
    </g>
    <g id="xtick_8">
     <g id="line2d_8"/>
     <g id="text_8">
      <text style="fill: #262626; font: 20px 'sans-serif'" transform="translate(597.667188 311.184531)rotate(-90)">Na+/K+-ATPase</text>
     </g>
    </g>
    <g id="xtick_9">
     <g id="line2d_9"/>
     <g id="text_9">
      <text style="fill: #262626; font: 20px 'sans-serif'" transform="translate(649.751875 287.097031)rotate(-90)">Protein Synth</text>
     </g>
    </g>
    <g id="xtick_10">
     <g id="line2d_10"/>
     <g id="text_10">
      <text style="fill: #262626; font: 20px 'sans-serif'" transform="translate(701.831875 295.956406)rotate(-90)">Pyrimid. Synth</text>
     </g>
    </g>
    <g id="xtick_11">
     <g id="line2d_11"/>
     <g id="text_11">
      <text style="fill: #262626; font: 20px 'sans-serif'" transform="translate(753.907188 231.875156)rotate(-90)">Tubulin</text>
     </g>
    </g>
    <g id="xtick_12">
     <g id="line2d_12"/>
     <g id="text_12">
      <text style="fill: #262626; font: 20px 'sans-serif'" transform="translate(805.987188 258.190781)rotate(-90)">Uncoupler</text>
     </g>
    </g>
   </g>
   <g id="matplotlib.axis_2">
    <g id="ytick_1">
     <g id="line2d_13"/>
     <g id="text_13">
      <text style="fill: #262626; font: 20px 'sans-serif'; text-anchor: end" x="190.696875" y="57.084531" transform="rotate(-0, 190.696875, 57.084531)">381944:02:09_02.00</text>
     </g>
    </g>
    <g id="ytick_2">
     <g id="line2d_14"/>
     <g id="text_14">
      <text style="fill: #262626; font: 20px 'sans-serif'; text-anchor: end" x="190.696875" y="98.664531" transform="rotate(-0, 190.696875, 98.664531)">381944:01:12_03.00</text>
     </g>
    </g>
    <g id="ytick_3">
     <g id="line2d_15"/>
     <g id="text_15">
      <text style="fill: #262626; font: 20px 'sans-serif'; text-anchor: end" x="190.696875" y="140.244531" transform="rotate(-0, 190.696875, 140.244531)">381944:01:11_10.00</text>
     </g>
    </g>
   </g>
   <g id="QuadMesh_1">
    <path d="M 201.896875 31.094531 
L 253.976875 31.094531 
L 253.976875 72.674531 
L 201.896875 72.674531 
L 201.896875 31.094531 
" clip-path="url(#pe516ebd200)" style="fill: #76b4d8; stroke: #ffffff; stroke-width: 0.5"/>
    <path d="M 253.976875 31.094531 
L 306.056875 31.094531 
L 306.056875 72.674531 
L 253.976875 72.674531 
L 253.976875 31.094531 
" clip-path="url(#pe516ebd200)" style="fill: #ffffff; stroke: #ffffff; stroke-width: 0.5"/>
    <path d="M 306.056875 31.094531 
L 358.136875 31.094531 
L 358.136875 72.674531 
L 306.056875 72.674531 
L 306.056875 31.094531 
" clip-path="url(#pe516ebd200)" style="fill: #ffffff; stroke: #ffffff; stroke-width: 0.5"/>
    <path d="M 358.136875 31.094531 
L 410.216875 31.094531 
L 410.216875 72.674531 
L 358.136875 72.674531 
L 358.136875 31.094531 
" clip-path="url(#pe516ebd200)" style="fill: #ffffff; stroke: #ffffff; stroke-width: 0.5"/>
    <path d="M 410.216875 31.094531 
L 462.296875 31.094531 
L 462.296875 72.674531 
L 410.216875 72.674531 
L 410.216875 31.094531 
" clip-path="url(#pe516ebd200)" style="fill: #ffffff; stroke: #ffffff; stroke-width: 0.5"/>
    <path d="M 462.296875 31.094531 
L 514.376875 31.094531 
L 514.376875 72.674531 
L 462.296875 72.674531 
L 462.296875 31.094531 
" clip-path="url(#pe516ebd200)" style="fill: #ffffff; stroke: #ffffff; stroke-width: 0.5"/>
    <path d="M 514.376875 31.094531 
L 566.456875 31.094531 
L 566.456875 72.674531 
L 514.376875 72.674531 
L 514.376875 31.094531 
" clip-path="url(#pe516ebd200)" style="fill: #ffffff; stroke: #ffffff; stroke-width: 0.5"/>
    <path d="M 566.456875 31.094531 
L 618.536875 31.094531 
L 618.536875 72.674531 
L 566.456875 72.674531 
L 566.456875 31.094531 
" clip-path="url(#pe516ebd200)" style="fill: #ffffff; stroke: #ffffff; stroke-width: 0.5"/>
    <path d="M 618.536875 31.094531 
L 670.616875 31.094531 
L 670.616875 72.674531 
L 618.536875 72.674531 
L 618.536875 31.094531 
" clip-path="url(#pe516ebd200)" style="fill: #ffffff; stroke: #ffffff; stroke-width: 0.5"/>
    <path d="M 670.616875 31.094531 
L 722.696875 31.094531 
L 722.696875 72.674531 
L 670.616875 72.674531 
L 670.616875 31.094531 
" clip-path="url(#pe516ebd200)" style="fill: #ffffff; stroke: #ffffff; stroke-width: 0.5"/>
    <path d="M 722.696875 31.094531 
L 774.776875 31.094531 
L 774.776875 72.674531 
L 722.696875 72.674531 
L 722.696875 31.094531 
" clip-path="url(#pe516ebd200)" style="fill: #ffffff; stroke: #ffffff; stroke-width: 0.5"/>
    <path d="M 774.776875 31.094531 
L 826.856875 31.094531 
L 826.856875 72.674531 
L 774.776875 72.674531 
L 774.776875 31.094531 
" clip-path="url(#pe516ebd200)" style="fill: #ffffff; stroke: #ffffff; stroke-width: 0.5"/>
    <path d="M 201.896875 72.674531 
L 253.976875 72.674531 
L 253.976875 114.254531 
L 201.896875 114.254531 
L 201.896875 72.674531 
" clip-path="url(#pe516ebd200)" style="fill: #ffffff; stroke: #ffffff; stroke-width: 0.5"/>
    <path d="M 253.976875 72.674531 
L 306.056875 72.674531 
L 306.056875 114.254531 
L 253.976875 114.254531 
L 253.976875 72.674531 
" clip-path="url(#pe516ebd200)" style="fill: #ffffff; stroke: #ffffff; stroke-width: 0.5"/>
    <path d="M 306.056875 72.674531 
L 358.136875 72.674531 
L 358.136875 114.254531 
L 306.056875 114.254531 
L 306.056875 72.674531 
" clip-path="url(#pe516ebd200)" style="fill: #ffffff; stroke: #ffffff; stroke-width: 0.5"/>
    <path d="M 358.136875 72.674531 
L 410.216875 72.674531 
L 410.216875 114.254531 
L 358.136875 114.254531 
L 358.136875 72.674531 
" clip-path="url(#pe516ebd200)" style="fill: #ffffff; stroke: #ffffff; stroke-width: 0.5"/>
    <path d="M 410.216875 72.674531 
L 462.296875 72.674531 
L 462.296875 114.254531 
L 410.216875 114.254531 
L 410.216875 72.674531 
" clip-path="url(#pe516ebd200)" style="fill: #ffffff; stroke: #ffffff; stroke-width: 0.5"/>
    <path d="M 462.296875 72.674531 
L 514.376875 72.674531 
L 514.376875 114.254531 
L 462.296875 114.254531 
L 462.296875 72.674531 
" clip-path="url(#pe516ebd200)" style="fill: #ffffff; stroke: #ffffff; stroke-width: 0.5"/>
    <path d="M 514.376875 72.674531 
L 566.456875 72.674531 
L 566.456875 114.254531 
L 514.376875 114.254531 
L 514.376875 72.674531 
" clip-path="url(#pe516ebd200)" style="fill: #ffffff; stroke: #ffffff; stroke-width: 0.5"/>
    <path d="M 566.456875 72.674531 
L 618.536875 72.674531 
L 618.536875 114.254531 
L 566.456875 114.254531 
L 566.456875 72.674531 
" clip-path="url(#pe516ebd200)" style="fill: #ffffff; stroke: #ffffff; stroke-width: 0.5"/>
    <path d="M 618.536875 72.674531 
L 670.616875 72.674531 
L 670.616875 114.254531 
L 618.536875 114.254531 
L 618.536875 72.674531 
" clip-path="url(#pe516ebd200)" style="fill: #ffffff; stroke: #ffffff; stroke-width: 0.5"/>
    <path d="M 670.616875 72.674531 
L 722.696875 72.674531 
L 722.696875 114.254531 
L 670.616875 114.254531 
L 670.616875 72.674531 
" clip-path="url(#pe516ebd200)" style="fill: #ffffff; stroke: #ffffff; stroke-width: 0.5"/>
    <path d="M 722.696875 72.674531 
L 774.776875 72.674531 
L 774.776875 114.254531 
L 722.696875 114.254531 
L 722.696875 72.674531 
" clip-path="url(#pe516ebd200)" style="fill: #ffffff; stroke: #ffffff; stroke-width: 0.5"/>
    <path d="M 774.776875 72.674531 
L 826.856875 72.674531 
L 826.856875 114.254531 
L 774.776875 114.254531 
L 774.776875 72.674531 
" clip-path="url(#pe516ebd200)" style="fill: #ffffff; stroke: #ffffff; stroke-width: 0.5"/>
    <path d="M 201.896875 114.254531 
L 253.976875 114.254531 
L 253.976875 155.834531 
L 201.896875 155.834531 
L 201.896875 114.254531 
" clip-path="url(#pe516ebd200)" style="fill: #ffffff; stroke: #ffffff; stroke-width: 0.5"/>
    <path d="M 253.976875 114.254531 
L 306.056875 114.254531 
L 306.056875 155.834531 
L 253.976875 155.834531 
L 253.976875 114.254531 
" clip-path="url(#pe516ebd200)" style="fill: #ffffff; stroke: #ffffff; stroke-width: 0.5"/>
    <path d="M 306.056875 114.254531 
L 358.136875 114.254531 
L 358.136875 155.834531 
L 306.056875 155.834531 
L 306.056875 114.254531 
" clip-path="url(#pe516ebd200)" style="fill: #ffffff; stroke: #ffffff; stroke-width: 0.5"/>
    <path d="M 358.136875 114.254531 
L 410.216875 114.254531 
L 410.216875 155.834531 
L 358.136875 155.834531 
L 358.136875 114.254531 
" clip-path="url(#pe516ebd200)" style="fill: #ffffff; stroke: #ffffff; stroke-width: 0.5"/>
    <path d="M 410.216875 114.254531 
L 462.296875 114.254531 
L 462.296875 155.834531 
L 410.216875 155.834531 
L 410.216875 114.254531 
" clip-path="url(#pe516ebd200)" style="fill: #ffffff; stroke: #ffffff; stroke-width: 0.5"/>
    <path d="M 462.296875 114.254531 
L 514.376875 114.254531 
L 514.376875 155.834531 
L 462.296875 155.834531 
L 462.296875 114.254531 
" clip-path="url(#pe516ebd200)" style="fill: #ffffff; stroke: #ffffff; stroke-width: 0.5"/>
    <path d="M 514.376875 114.254531 
L 566.456875 114.254531 
L 566.456875 155.834531 
L 514.376875 155.834531 
L 514.376875 114.254531 
" clip-path="url(#pe516ebd200)" style="fill: #b1d2e8; stroke: #ffffff; stroke-width: 0.5"/>
    <path d="M 566.456875 114.254531 
L 618.536875 114.254531 
L 618.536875 155.834531 
L 566.456875 155.834531 
L 566.456875 114.254531 
" clip-path="url(#pe516ebd200)" style="fill: #ffffff; stroke: #ffffff; stroke-width: 0.5"/>
    <path d="M 618.536875 114.254531 
L 670.616875 114.254531 
L 670.616875 155.834531 
L 618.536875 155.834531 
L 618.536875 114.254531 
" clip-path="url(#pe516ebd200)" style="fill: #ffffff; stroke: #ffffff; stroke-width: 0.5"/>
    <path d="M 670.616875 114.254531 
L 722.696875 114.254531 
L 722.696875 155.834531 
L 670.616875 155.834531 
L 670.616875 114.254531 
" clip-path="url(#pe516ebd200)" style="fill: #ffffff; stroke: #ffffff; stroke-width: 0.5"/>
    <path d="M 722.696875 114.254531 
L 774.776875 114.254531 
L 774.776875 155.834531 
L 722.696875 155.834531 
L 722.696875 114.254531 
" clip-path="url(#pe516ebd200)" style="fill: #ffffff; stroke: #ffffff; stroke-width: 0.5"/>
    <path d="M 774.776875 114.254531 
L 826.856875 114.254531 
L 826.856875 155.834531 
L 774.776875 155.834531 
L 774.776875 114.254531 
" clip-path="url(#pe516ebd200)" style="fill: #ffffff; stroke: #ffffff; stroke-width: 0.5"/>
   </g>
   <g id="text_16">
    <text style="fill: #262626; font: 22px 'sans-serif'; text-anchor: middle" x="227.936875" y="57.571875" transform="rotate(-0, 227.936875, 57.571875)">90</text>
   </g>
   <g id="text_17">
    <text style="fill: #262626; font: 22px 'sans-serif'; text-anchor: middle" x="280.016875" y="57.571875" transform="rotate(-0, 280.016875, 57.571875)">0</text>
   </g>
   <g id="text_18">
    <text style="fill: #262626; font: 22px 'sans-serif'; text-anchor: middle" x="332.096875" y="57.571875" transform="rotate(-0, 332.096875, 57.571875)">0</text>
   </g>
   <g id="text_19">
    <text style="fill: #262626; font: 22px 'sans-serif'; text-anchor: middle" x="384.176875" y="57.571875" transform="rotate(-0, 384.176875, 57.571875)">64</text>
   </g>
   <g id="text_20">
    <text style="fill: #262626; font: 22px 'sans-serif'; text-anchor: middle" x="436.256875" y="57.571875" transform="rotate(-0, 436.256875, 57.571875)">0</text>
   </g>
   <g id="text_21">
    <text style="fill: #262626; font: 22px 'sans-serif'; text-anchor: middle" x="488.336875" y="57.571875" transform="rotate(-0, 488.336875, 57.571875)">25</text>
   </g>
   <g id="text_22">
    <text style="fill: #262626; font: 22px 'sans-serif'; text-anchor: middle" x="540.416875" y="57.571875" transform="rotate(-0, 540.416875, 57.571875)">8</text>
   </g>
   <g id="text_23">
    <text style="fill: #262626; font: 22px 'sans-serif'; text-anchor: middle" x="592.496875" y="57.571875" transform="rotate(-0, 592.496875, 57.571875)">0</text>
   </g>
   <g id="text_24">
    <text style="fill: #262626; font: 22px 'sans-serif'; text-anchor: middle" x="644.576875" y="57.571875" transform="rotate(-0, 644.576875, 57.571875)">0</text>
   </g>
   <g id="text_25">
    <text style="fill: #262626; font: 22px 'sans-serif'; text-anchor: middle" x="696.656875" y="57.571875" transform="rotate(-0, 696.656875, 57.571875)">51</text>
   </g>
   <g id="text_26">
    <text style="fill: #262626; font: 22px 'sans-serif'; text-anchor: middle" x="748.736875" y="57.571875" transform="rotate(-0, 748.736875, 57.571875)">0</text>
   </g>
   <g id="text_27">
    <text style="fill: #262626; font: 22px 'sans-serif'; text-anchor: middle" x="800.816875" y="57.571875" transform="rotate(-0, 800.816875, 57.571875)">36</text>
   </g>
   <g id="text_28">
    <text style="fill: #262626; font: 22px 'sans-serif'; text-anchor: middle" x="227.936875" y="99.151875" transform="rotate(-0, 227.936875, 99.151875)">80</text>
   </g>
   <g id="text_29">
    <text style="fill: #262626; font: 22px 'sans-serif'; text-anchor: middle" x="280.016875" y="99.151875" transform="rotate(-0, 280.016875, 99.151875)">0</text>
   </g>
   <g id="text_30">
    <text style="fill: #262626; font: 22px 'sans-serif'; text-anchor: middle" x="332.096875" y="99.151875" transform="rotate(-0, 332.096875, 99.151875)">15</text>
   </g>
   <g id="text_31">
    <text style="fill: #262626; font: 22px 'sans-serif'; text-anchor: middle" x="384.176875" y="99.151875" transform="rotate(-0, 384.176875, 99.151875)">18</text>
   </g>
   <g id="text_32">
    <text style="fill: #262626; font: 22px 'sans-serif'; text-anchor: middle" x="436.256875" y="99.151875" transform="rotate(-0, 436.256875, 99.151875)">20</text>
   </g>
   <g id="text_33">
    <text style="fill: #262626; font: 22px 'sans-serif'; text-anchor: middle" x="488.336875" y="99.151875" transform="rotate(-0, 488.336875, 99.151875)">23</text>
   </g>
   <g id="text_34">
    <text style="fill: #262626; font: 22px 'sans-serif'; text-anchor: middle" x="540.416875" y="99.151875" transform="rotate(-0, 540.416875, 99.151875)">42</text>
   </g>
   <g id="text_35">
    <text style="fill: #262626; font: 22px 'sans-serif'; text-anchor: middle" x="592.496875" y="99.151875" transform="rotate(-0, 592.496875, 99.151875)">0</text>
   </g>
   <g id="text_36">
    <text style="fill: #262626; font: 22px 'sans-serif'; text-anchor: middle" x="644.576875" y="99.151875" transform="rotate(-0, 644.576875, 99.151875)">2</text>
   </g>
   <g id="text_37">
    <text style="fill: #262626; font: 22px 'sans-serif'; text-anchor: middle" x="696.656875" y="99.151875" transform="rotate(-0, 696.656875, 99.151875)">16</text>
   </g>
   <g id="text_38">
    <text style="fill: #262626; font: 22px 'sans-serif'; text-anchor: middle" x="748.736875" y="99.151875" transform="rotate(-0, 748.736875, 99.151875)">9</text>
   </g>
   <g id="text_39">
    <text style="fill: #262626; font: 22px 'sans-serif'; text-anchor: middle" x="800.816875" y="99.151875" transform="rotate(-0, 800.816875, 99.151875)">57</text>
   </g>
   <g id="text_40">
    <text style="fill: #262626; font: 22px 'sans-serif'; text-anchor: middle" x="227.936875" y="140.731875" transform="rotate(-0, 227.936875, 140.731875)">9</text>
   </g>
   <g id="text_41">
    <text style="fill: #262626; font: 22px 'sans-serif'; text-anchor: middle" x="280.016875" y="140.731875" transform="rotate(-0, 280.016875, 140.731875)">0</text>
   </g>
   <g id="text_42">
    <text style="fill: #262626; font: 22px 'sans-serif'; text-anchor: middle" x="332.096875" y="140.731875" transform="rotate(-0, 332.096875, 140.731875)">66</text>
   </g>
   <g id="text_43">
    <text style="fill: #262626; font: 22px 'sans-serif'; text-anchor: middle" x="384.176875" y="140.731875" transform="rotate(-0, 384.176875, 140.731875)">0</text>
   </g>
   <g id="text_44">
    <text style="fill: #262626; font: 22px 'sans-serif'; text-anchor: middle" x="436.256875" y="140.731875" transform="rotate(-0, 436.256875, 140.731875)">65</text>
   </g>
   <g id="text_45">
    <text style="fill: #262626; font: 22px 'sans-serif'; text-anchor: middle" x="488.336875" y="140.731875" transform="rotate(-0, 488.336875, 140.731875)">11</text>
   </g>
   <g id="text_46">
    <text style="fill: #262626; font: 22px 'sans-serif'; text-anchor: middle" x="540.416875" y="140.731875" transform="rotate(-0, 540.416875, 140.731875)">87</text>
   </g>
   <g id="text_47">
    <text style="fill: #262626; font: 22px 'sans-serif'; text-anchor: middle" x="592.496875" y="140.731875" transform="rotate(-0, 592.496875, 140.731875)">31</text>
   </g>
   <g id="text_48">
    <text style="fill: #262626; font: 22px 'sans-serif'; text-anchor: middle" x="644.576875" y="140.731875" transform="rotate(-0, 644.576875, 140.731875)">21</text>
   </g>
   <g id="text_49">
    <text style="fill: #262626; font: 22px 'sans-serif'; text-anchor: middle" x="696.656875" y="140.731875" transform="rotate(-0, 696.656875, 140.731875)">0</text>
   </g>
   <g id="text_50">
    <text style="fill: #262626; font: 22px 'sans-serif'; text-anchor: middle" x="748.736875" y="140.731875" transform="rotate(-0, 748.736875, 140.731875)">61</text>
   </g>
   <g id="text_51">
    <text style="fill: #262626; font: 22px 'sans-serif'; text-anchor: middle" x="800.816875" y="140.731875" transform="rotate(-0, 800.816875, 140.731875)">59</text>
   </g>
   <g id="text_52">
    <text style="fill: #262626; font: 25px 'sans-serif'; text-anchor: middle" x="514.376875" y="25.094531" transform="rotate(-0, 514.376875, 25.094531)">Cluster Biosimilaritites</text>
   </g>
  </g>
  <g id="axes_2">
   <g id="patch_3">
    <path d="M 865.916875 155.834531 
L 872.153875 155.834531 
L 872.153875 31.094531 
L 865.916875 31.094531 
z
" style="fill: #ffffff"/>
   </g>
   <g id="patch_4">
    <path clip-path="url(#pc27c2e12ea)" style="fill: #ffffff; stroke: #ffffff; stroke-width: 0.01; stroke-linejoin: miter"/>
   </g>
   <g id="matplotlib.axis_3">
    <g id="ytick_4">
     <g id="line2d_16"/>
     <g id="text_53">
      <text style="fill: #262626; font: 20px 'sans-serif'; text-anchor: start" x="883.353875" y="162.992344" transform="rotate(-0, 883.353875, 162.992344)">80</text>
     </g>
    </g>
    <g id="ytick_5">
     <g id="line2d_17"/>
     <g id="text_54">
      <text style="fill: #262626; font: 20px 'sans-serif'; text-anchor: start" x="883.353875" y="100.622344" transform="rotate(-0, 883.353875, 100.622344)">90</text>
     </g>
    </g>
    <g id="ytick_6">
     <g id="line2d_18"/>
     <g id="text_55">
      <text style="fill: #262626; font: 20px 'sans-serif'; text-anchor: start" x="883.353875" y="38.252344" transform="rotate(-0, 883.353875, 38.252344)">100</text>
     </g>
    </g>
   </g>
   <g id="QuadMesh_2">
    <path d="M 865.916875 155.834531 
L 872.153875 155.834531 
L 872.153875 149.597531 
L 865.916875 149.597531 
L 865.916875 155.834531 
" clip-path="url(#pc27c2e12ea)" style="fill: #ffffff"/>
    <path d="M 865.916875 149.597531 
L 872.153875 149.597531 
L 872.153875 143.360531 
L 865.916875 143.360531 
L 865.916875 149.597531 
" clip-path="url(#pc27c2e12ea)" style="fill: #ecf4fc"/>
    <path d="M 865.916875 143.360531 
L 872.153875 143.360531 
L 872.153875 137.123531 
L 865.916875 137.123531 
L 865.916875 143.360531 
" clip-path="url(#pc27c2e12ea)" style="fill: #e2eef8"/>
    <path d="M 865.916875 137.123531 
L 872.153875 137.123531 
L 872.153875 130.886531 
L 865.916875 130.886531 
L 865.916875 137.123531 
" clip-path="url(#pc27c2e12ea)" style="fill: #d8e7f5"/>
    <path d="M 865.916875 130.886531 
L 872.153875 130.886531 
L 872.153875 124.649531 
L 865.916875 124.649531 
L 865.916875 130.886531 
" clip-path="url(#pc27c2e12ea)" style="fill: #cee0f2"/>
    <path d="M 865.916875 124.649531 
L 872.153875 124.649531 
L 872.153875 118.412531 
L 865.916875 118.412531 
L 865.916875 124.649531 
" clip-path="url(#pc27c2e12ea)" style="fill: #c2d9ee"/>
    <path d="M 865.916875 118.412531 
L 872.153875 118.412531 
L 872.153875 112.175531 
L 865.916875 112.175531 
L 865.916875 118.412531 
" clip-path="url(#pc27c2e12ea)" style="fill: #b1d2e8"/>
    <path d="M 865.916875 112.175531 
L 872.153875 112.175531 
L 872.153875 105.938531 
L 865.916875 105.938531 
L 865.916875 112.175531 
" clip-path="url(#pc27c2e12ea)" style="fill: #a0cbe2"/>
    <path d="M 865.916875 105.938531 
L 872.153875 105.938531 
L 872.153875 99.701531 
L 865.916875 99.701531 
L 865.916875 105.938531 
" clip-path="url(#pc27c2e12ea)" style="fill: #8bc0dd"/>
    <path d="M 865.916875 99.701531 
L 872.153875 99.701531 
L 872.153875 93.464531 
L 865.916875 93.464531 
L 865.916875 99.701531 
" clip-path="url(#pc27c2e12ea)" style="fill: #76b4d8"/>
    <path d="M 865.916875 93.464531 
L 872.153875 93.464531 
L 872.153875 87.227531 
L 865.916875 87.227531 
L 865.916875 93.464531 
" clip-path="url(#pc27c2e12ea)" style="fill: #62a8d3"/>
    <path d="M 865.916875 87.227531 
L 872.153875 87.227531 
L 872.153875 80.990531 
L 865.916875 80.990531 
L 865.916875 87.227531 
" clip-path="url(#pc27c2e12ea)" style="fill: #519ccc"/>
    <path d="M 865.916875 80.990531 
L 872.153875 80.990531 
L 872.153875 74.753531 
L 865.916875 74.753531 
L 865.916875 80.990531 
" clip-path="url(#pc27c2e12ea)" style="fill: #4090c5"/>
    <path d="M 865.916875 74.753531 
L 872.153875 74.753531 
L 872.153875 68.516531 
L 865.916875 68.516531 
L 865.916875 74.753531 
" clip-path="url(#pc27c2e12ea)" style="fill: #3282be"/>
    <path d="M 865.916875 68.516531 
L 872.153875 68.516531 
L 872.153875 62.279531 
L 865.916875 62.279531 
L 865.916875 68.516531 
" clip-path="url(#pc27c2e12ea)" style="fill: #2474b7"/>
    <path d="M 865.916875 62.279531 
L 872.153875 62.279531 
L 872.153875 56.042531 
L 865.916875 56.042531 
L 865.916875 62.279531 
" clip-path="url(#pc27c2e12ea)" style="fill: #1967ad"/>
    <path d="M 865.916875 56.042531 
L 872.153875 56.042531 
L 872.153875 49.805531 
L 865.916875 49.805531 
L 865.916875 56.042531 
" clip-path="url(#pc27c2e12ea)" style="fill: #0f59a3"/>
    <path d="M 865.916875 49.805531 
L 872.153875 49.805531 
L 872.153875 43.568531 
L 865.916875 43.568531 
L 865.916875 49.805531 
" clip-path="url(#pc27c2e12ea)" style="fill: #084c94"/>
    <path d="M 865.916875 43.568531 
L 872.153875 43.568531 
L 872.153875 37.331531 
L 865.916875 37.331531 
L 865.916875 43.568531 
" clip-path="url(#pc27c2e12ea)" style="fill: #083e80"/>
    <path d="M 865.916875 37.331531 
L 872.153875 37.331531 
L 872.153875 31.094531 
L 865.916875 31.094531 
L 865.916875 37.331531 
" clip-path="url(#pc27c2e12ea)" style="fill: #08306b"/>
   </g>
   <g id="LineCollection_1"/>
   <g id="patch_5">
    <path d="M 865.916875 155.834531 
L 869.035375 155.834531 
L 872.153875 155.834531 
L 872.153875 31.094531 
L 869.035375 31.094531 
L 865.916875 31.094531 
L 865.916875 155.834531 
z
" style="fill: none"/>
   </g>
  </g>
 </g>
 <defs>
  <clipPath id="pe516ebd200">
   <rect x="201.896875" y="31.094531" width="624.96" height="124.74"/>
  </clipPath>
  <clipPath id="pc27c2e12ea">
   <rect x="865.916875" y="31.094531" width="6.237" height="124.74"/>
  </clipPath>
 </defs>
</svg>
