<?xml version="1.0" encoding="utf-8" standalone="no"?>
<!DOCTYPE svg PUBLIC "-//W3C//DTD SVG 1.1//EN"
  "http://www.w3.org/Graphics/SVG/1.1/DTD/svg11.dtd">
<svg xmlns:xlink="http://www.w3.org/1999/xlink" width="879.850125pt" height="282.928281pt" viewBox="0 0 879.850125 282.928281" xmlns="http://www.w3.org/2000/svg" version="1.1">
 <metadata>
  <rdf:RDF xmlns:dc="http://purl.org/dc/elements/1.1/" xmlns:cc="http://creativecommons.org/ns#" xmlns:rdf="http://www.w3.org/1999/02/22-rdf-syntax-ns#">
   <cc:Work>
    <dc:type rdf:resource="http://purl.org/dc/dcmitype/StillImage"/>
    <dc:date>2023-02-14T10:20:40.194886</dc:date>
    <dc:format>image/svg+xml</dc:format>
    <dc:creator>
     <cc:Agent>
      <dc:title>Matplotlib v3.5.1, https://matplotlib.org/</dc:title>
     </cc:Agent>
    </dc:creator>
   </cc:Work>
  </rdf:RDF>
 </metadata>
 <defs>
  <style type="text/css">*{stroke-linejoin: round; stroke-linecap: butt}</style>
 </defs>
 <g id="figure_1">
  <g id="patch_1">
   <path d="M 0 282.928281 
L 879.850125 282.928281 
L 879.850125 0 
L 0 0 
z
" style="fill: #ffffff"/>
  </g>
  <g id="axes_1">
   <g id="patch_2">
    <path d="M 159.9875 112.634531 
L 784.9475 112.634531 
L 784.9475 31.094531 
L 159.9875 31.094531 
z
" style="fill: #ffffff"/>
   </g>
   <g id="matplotlib.axis_1">
    <g id="xtick_1">
     <g id="line2d_1"/>
     <g id="text_1">
      <text style="fill: #262626; font: 20px 'sans-serif'" transform="translate(191.197812 275.728281)rotate(-90)">AKT/PI3K/MTOR</text>
     </g>
    </g>
    <g id="xtick_2">
     <g id="line2d_2"/>
     <g id="text_2">
      <text style="fill: #262626; font: 20px 'sans-serif'" transform="translate(243.277813 183.859531)rotate(-90)">Aurora</text>
     </g>
    </g>
    <g id="xtick_3">
     <g id="line2d_3"/>
     <g id="text_3">
      <text style="fill: #262626; font: 20px 'sans-serif'" transform="translate(295.357813 162.731406)rotate(-90)">BET</text>
     </g>
    </g>
    <g id="xtick_4">
     <g id="line2d_4"/>
     <g id="text_4">
      <text style="fill: #262626; font: 20px 'sans-serif'" transform="translate(347.4425 221.659531)rotate(-90)">DNA Synth</text>
     </g>
    </g>
    <g id="xtick_5">
     <g id="line2d_5"/>
     <g id="text_5">
      <text style="fill: #262626; font: 20px 'sans-serif'" transform="translate(399.517812 180.506406)rotate(-90)">HDAC</text>
     </g>
    </g>
    <g id="xtick_6">
     <g id="line2d_6"/>
     <g id="text_6">
      <text style="fill: #262626; font: 20px 'sans-serif'" transform="translate(451.597813 187.203281)rotate(-90)">HSP90</text>
     </g>
    </g>
    <g id="xtick_7">
     <g id="line2d_7"/>
     <g id="text_7">
      <text style="fill: #262626; font: 20px 'sans-serif'" transform="translate(503.677813 163.843906)rotate(-90)">LCH</text>
     </g>
    </g>
    <g id="xtick_8">
     <g id="line2d_8"/>
     <g id="text_8">
      <text style="fill: #262626; font: 20px 'sans-serif'" transform="translate(555.757812 267.984531)rotate(-90)">Na+/K+-ATPase</text>
     </g>
    </g>
    <g id="xtick_9">
     <g id="line2d_9"/>
     <g id="text_9">
      <text style="fill: #262626; font: 20px 'sans-serif'" transform="translate(607.8425 243.897031)rotate(-90)">Protein Synth</text>
     </g>
    </g>
    <g id="xtick_10">
     <g id="line2d_10"/>
     <g id="text_10">
      <text style="fill: #262626; font: 20px 'sans-serif'" transform="translate(659.9225 252.756406)rotate(-90)">Pyrimid. Synth</text>
     </g>
    </g>
    <g id="xtick_11">
     <g id="line2d_11"/>
     <g id="text_11">
      <text style="fill: #262626; font: 20px 'sans-serif'" transform="translate(711.997813 188.675156)rotate(-90)">Tubulin</text>
     </g>
    </g>
    <g id="xtick_12">
     <g id="line2d_12"/>
     <g id="text_12">
      <text style="fill: #262626; font: 20px 'sans-serif'" transform="translate(764.077813 214.990781)rotate(-90)">Uncoupler</text>
     </g>
    </g>
   </g>
   <g id="matplotlib.axis_2">
    <g id="ytick_1">
     <g id="line2d_13"/>
     <g id="text_13">
      <text style="fill: #262626; font: 20px 'sans-serif'; text-anchor: end" x="148.7875" y="56.771719" transform="rotate(-0, 148.7875, 56.771719)">    1.0 µM KG 5</text>
     </g>
    </g>
    <g id="ytick_2">
     <g id="line2d_14"/>
     <g id="text_14">
      <text style="fill: #262626; font: 20px 'sans-serif'; text-anchor: end" x="148.7875" y="97.449531" transform="rotate(-0, 148.7875, 97.449531)">  0.2 µM AZ 960</text>
     </g>
    </g>
   </g>
   <g id="QuadMesh_1">
    <path d="M 159.9875 31.094531 
L 212.0675 31.094531 
L 212.0675 71.864531 
L 159.9875 71.864531 
L 159.9875 31.094531 
" clip-path="url(#p1c8ded5382)" style="fill: #ffffff; stroke: #ffffff; stroke-width: 0.5"/>
    <path d="M 212.0675 31.094531 
L 264.1475 31.094531 
L 264.1475 71.864531 
L 212.0675 71.864531 
L 212.0675 31.094531 
" clip-path="url(#p1c8ded5382)" style="fill: #ffffff; stroke: #ffffff; stroke-width: 0.5"/>
    <path d="M 264.1475 31.094531 
L 316.2275 31.094531 
L 316.2275 71.864531 
L 264.1475 71.864531 
L 264.1475 31.094531 
" clip-path="url(#p1c8ded5382)" style="fill: #ffffff; stroke: #ffffff; stroke-width: 0.5"/>
    <path d="M 316.2275 31.094531 
L 368.3075 31.094531 
L 368.3075 71.864531 
L 316.2275 71.864531 
L 316.2275 31.094531 
" clip-path="url(#p1c8ded5382)" style="fill: #ffffff; stroke: #ffffff; stroke-width: 0.5"/>
    <path d="M 368.3075 31.094531 
L 420.3875 31.094531 
L 420.3875 71.864531 
L 368.3075 71.864531 
L 368.3075 31.094531 
" clip-path="url(#p1c8ded5382)" style="fill: #ffffff; stroke: #ffffff; stroke-width: 0.5"/>
    <path d="M 420.3875 31.094531 
L 472.4675 31.094531 
L 472.4675 71.864531 
L 420.3875 71.864531 
L 420.3875 31.094531 
" clip-path="url(#p1c8ded5382)" style="fill: #ffffff; stroke: #ffffff; stroke-width: 0.5"/>
    <path d="M 472.4675 31.094531 
L 524.5475 31.094531 
L 524.5475 71.864531 
L 472.4675 71.864531 
L 472.4675 31.094531 
" clip-path="url(#p1c8ded5382)" style="fill: #ffffff; stroke: #ffffff; stroke-width: 0.5"/>
    <path d="M 524.5475 31.094531 
L 576.6275 31.094531 
L 576.6275 71.864531 
L 524.5475 71.864531 
L 524.5475 31.094531 
" clip-path="url(#p1c8ded5382)" style="fill: #ffffff; stroke: #ffffff; stroke-width: 0.5"/>
    <path d="M 576.6275 31.094531 
L 628.7075 31.094531 
L 628.7075 71.864531 
L 576.6275 71.864531 
L 576.6275 31.094531 
" clip-path="url(#p1c8ded5382)" style="fill: #ffffff; stroke: #ffffff; stroke-width: 0.5"/>
    <path d="M 628.7075 31.094531 
L 680.7875 31.094531 
L 680.7875 71.864531 
L 628.7075 71.864531 
L 628.7075 31.094531 
" clip-path="url(#p1c8ded5382)" style="fill: #ffffff; stroke: #ffffff; stroke-width: 0.5"/>
    <path d="M 680.7875 31.094531 
L 732.8675 31.094531 
L 732.8675 71.864531 
L 680.7875 71.864531 
L 680.7875 31.094531 
" clip-path="url(#p1c8ded5382)" style="fill: #4090c5; stroke: #ffffff; stroke-width: 0.5"/>
    <path d="M 732.8675 31.094531 
L 784.9475 31.094531 
L 784.9475 71.864531 
L 732.8675 71.864531 
L 732.8675 31.094531 
" clip-path="url(#p1c8ded5382)" style="fill: #ffffff; stroke: #ffffff; stroke-width: 0.5"/>
    <path d="M 159.9875 71.864531 
L 212.0675 71.864531 
L 212.0675 112.634531 
L 159.9875 112.634531 
L 159.9875 71.864531 
" clip-path="url(#p1c8ded5382)" style="fill: #ffffff; stroke: #ffffff; stroke-width: 0.5"/>
    <path d="M 212.0675 71.864531 
L 264.1475 71.864531 
L 264.1475 112.634531 
L 212.0675 112.634531 
L 212.0675 71.864531 
" clip-path="url(#p1c8ded5382)" style="fill: #ffffff; stroke: #ffffff; stroke-width: 0.5"/>
    <path d="M 264.1475 71.864531 
L 316.2275 71.864531 
L 316.2275 112.634531 
L 264.1475 112.634531 
L 264.1475 71.864531 
" clip-path="url(#p1c8ded5382)" style="fill: #e2eef8; stroke: #ffffff; stroke-width: 0.5"/>
    <path d="M 316.2275 71.864531 
L 368.3075 71.864531 
L 368.3075 112.634531 
L 316.2275 112.634531 
L 316.2275 71.864531 
" clip-path="url(#p1c8ded5382)" style="fill: #ffffff; stroke: #ffffff; stroke-width: 0.5"/>
    <path d="M 368.3075 71.864531 
L 420.3875 71.864531 
L 420.3875 112.634531 
L 368.3075 112.634531 
L 368.3075 71.864531 
" clip-path="url(#p1c8ded5382)" style="fill: #ffffff; stroke: #ffffff; stroke-width: 0.5"/>
    <path d="M 420.3875 71.864531 
L 472.4675 71.864531 
L 472.4675 112.634531 
L 420.3875 112.634531 
L 420.3875 71.864531 
" clip-path="url(#p1c8ded5382)" style="fill: #ffffff; stroke: #ffffff; stroke-width: 0.5"/>
    <path d="M 472.4675 71.864531 
L 524.5475 71.864531 
L 524.5475 112.634531 
L 472.4675 112.634531 
L 472.4675 71.864531 
" clip-path="url(#p1c8ded5382)" style="fill: #ffffff; stroke: #ffffff; stroke-width: 0.5"/>
    <path d="M 524.5475 71.864531 
L 576.6275 71.864531 
L 576.6275 112.634531 
L 524.5475 112.634531 
L 524.5475 71.864531 
" clip-path="url(#p1c8ded5382)" style="fill: #ffffff; stroke: #ffffff; stroke-width: 0.5"/>
    <path d="M 576.6275 71.864531 
L 628.7075 71.864531 
L 628.7075 112.634531 
L 576.6275 112.634531 
L 576.6275 71.864531 
" clip-path="url(#p1c8ded5382)" style="fill: #ffffff; stroke: #ffffff; stroke-width: 0.5"/>
    <path d="M 628.7075 71.864531 
L 680.7875 71.864531 
L 680.7875 112.634531 
L 628.7075 112.634531 
L 628.7075 71.864531 
" clip-path="url(#p1c8ded5382)" style="fill: #ffffff; stroke: #ffffff; stroke-width: 0.5"/>
    <path d="M 680.7875 71.864531 
L 732.8675 71.864531 
L 732.8675 112.634531 
L 680.7875 112.634531 
L 680.7875 71.864531 
" clip-path="url(#p1c8ded5382)" style="fill: #76b4d8; stroke: #ffffff; stroke-width: 0.5"/>
    <path d="M 732.8675 71.864531 
L 784.9475 71.864531 
L 784.9475 112.634531 
L 732.8675 112.634531 
L 732.8675 71.864531 
" clip-path="url(#p1c8ded5382)" style="fill: #ffffff; stroke: #ffffff; stroke-width: 0.5"/>
   </g>
   <g id="text_15">
    <text style="fill: #262626; font: 22px 'sans-serif'; text-anchor: middle" x="186.0275" y="57.166875" transform="rotate(-0, 186.0275, 57.166875)">0</text>
   </g>
   <g id="text_16">
    <text style="fill: #262626; font: 22px 'sans-serif'; text-anchor: middle" x="238.1075" y="57.166875" transform="rotate(-0, 238.1075, 57.166875)">0</text>
   </g>
   <g id="text_17">
    <text style="fill: #262626; font: 22px 'sans-serif'; text-anchor: middle" x="290.1875" y="57.166875" transform="rotate(-0, 290.1875, 57.166875)">75</text>
   </g>
   <g id="text_18">
    <text style="fill: #262626; font: 22px 'sans-serif'; text-anchor: middle" x="342.2675" y="57.166875" transform="rotate(-0, 342.2675, 57.166875)">0</text>
   </g>
   <g id="text_19">
    <text style="fill: #262626; font: 22px 'sans-serif'; text-anchor: middle" x="394.3475" y="57.166875" transform="rotate(-0, 394.3475, 57.166875)">67</text>
   </g>
   <g id="text_20">
    <text style="fill: #262626; font: 22px 'sans-serif'; text-anchor: middle" x="446.4275" y="57.166875" transform="rotate(-0, 446.4275, 57.166875)">32</text>
   </g>
   <g id="text_21">
    <text style="fill: #262626; font: 22px 'sans-serif'; text-anchor: middle" x="498.5075" y="57.166875" transform="rotate(-0, 498.5075, 57.166875)">66</text>
   </g>
   <g id="text_22">
    <text style="fill: #262626; font: 22px 'sans-serif'; text-anchor: middle" x="550.5875" y="57.166875" transform="rotate(-0, 550.5875, 57.166875)">48</text>
   </g>
   <g id="text_23">
    <text style="fill: #262626; font: 22px 'sans-serif'; text-anchor: middle" x="602.6675" y="57.166875" transform="rotate(-0, 602.6675, 57.166875)">63</text>
   </g>
   <g id="text_24">
    <text style="fill: #262626; font: 22px 'sans-serif'; text-anchor: middle" x="654.7475" y="57.166875" transform="rotate(-0, 654.7475, 57.166875)">0</text>
   </g>
   <g id="text_25">
    <text style="fill: #ffffff; font: 22px 'sans-serif'; text-anchor: middle" x="706.8275" y="57.166875" transform="rotate(-0, 706.8275, 57.166875)">93</text>
   </g>
   <g id="text_26">
    <text style="fill: #262626; font: 22px 'sans-serif'; text-anchor: middle" x="758.9075" y="57.166875" transform="rotate(-0, 758.9075, 57.166875)">64</text>
   </g>
   <g id="text_27">
    <text style="fill: #262626; font: 22px 'sans-serif'; text-anchor: middle" x="186.0275" y="97.936875" transform="rotate(-0, 186.0275, 97.936875)">0</text>
   </g>
   <g id="text_28">
    <text style="fill: #262626; font: 22px 'sans-serif'; text-anchor: middle" x="238.1075" y="97.936875" transform="rotate(-0, 238.1075, 97.936875)">0</text>
   </g>
   <g id="text_29">
    <text style="fill: #262626; font: 22px 'sans-serif'; text-anchor: middle" x="290.1875" y="97.936875" transform="rotate(-0, 290.1875, 97.936875)">83</text>
   </g>
   <g id="text_30">
    <text style="fill: #262626; font: 22px 'sans-serif'; text-anchor: middle" x="342.2675" y="97.936875" transform="rotate(-0, 342.2675, 97.936875)">0</text>
   </g>
   <g id="text_31">
    <text style="fill: #262626; font: 22px 'sans-serif'; text-anchor: middle" x="394.3475" y="97.936875" transform="rotate(-0, 394.3475, 97.936875)">75</text>
   </g>
   <g id="text_32">
    <text style="fill: #262626; font: 22px 'sans-serif'; text-anchor: middle" x="446.4275" y="97.936875" transform="rotate(-0, 446.4275, 97.936875)">29</text>
   </g>
   <g id="text_33">
    <text style="fill: #262626; font: 22px 'sans-serif'; text-anchor: middle" x="498.5075" y="97.936875" transform="rotate(-0, 498.5075, 97.936875)">74</text>
   </g>
   <g id="text_34">
    <text style="fill: #262626; font: 22px 'sans-serif'; text-anchor: middle" x="550.5875" y="97.936875" transform="rotate(-0, 550.5875, 97.936875)">51</text>
   </g>
   <g id="text_35">
    <text style="fill: #262626; font: 22px 'sans-serif'; text-anchor: middle" x="602.6675" y="97.936875" transform="rotate(-0, 602.6675, 97.936875)">63</text>
   </g>
   <g id="text_36">
    <text style="fill: #262626; font: 22px 'sans-serif'; text-anchor: middle" x="654.7475" y="97.936875" transform="rotate(-0, 654.7475, 97.936875)">0</text>
   </g>
   <g id="text_37">
    <text style="fill: #262626; font: 22px 'sans-serif'; text-anchor: middle" x="706.8275" y="97.936875" transform="rotate(-0, 706.8275, 97.936875)">90</text>
   </g>
   <g id="text_38">
    <text style="fill: #262626; font: 22px 'sans-serif'; text-anchor: middle" x="758.9075" y="97.936875" transform="rotate(-0, 758.9075, 97.936875)">68</text>
   </g>
   <g id="text_39">
    <text style="fill: #262626; font: 25px 'sans-serif'; text-anchor: middle" x="472.4675" y="25.094531" transform="rotate(-0, 472.4675, 25.094531)">Cluster Biosimilaritites</text>
   </g>
  </g>
  <g id="axes_2">
   <g id="patch_3">
    <path d="M 824.0075 112.634531 
L 828.0845 112.634531 
L 828.0845 31.094531 
L 824.0075 31.094531 
z
" style="fill: #ffffff"/>
   </g>
   <g id="patch_4">
    <path clip-path="url(#p6b47a6b848)" style="fill: #ffffff; stroke: #ffffff; stroke-width: 0.01; stroke-linejoin: miter"/>
   </g>
   <g id="matplotlib.axis_3">
    <g id="ytick_3">
     <g id="line2d_15"/>
     <g id="text_40">
      <text style="fill: #262626; font: 20px 'sans-serif'; text-anchor: start" x="839.2845" y="119.792344" transform="rotate(-0, 839.2845, 119.792344)">80</text>
     </g>
    </g>
    <g id="ytick_4">
     <g id="line2d_16"/>
     <g id="text_41">
      <text style="fill: #262626; font: 20px 'sans-serif'; text-anchor: start" x="839.2845" y="79.022344" transform="rotate(-0, 839.2845, 79.022344)">90</text>
     </g>
    </g>
    <g id="ytick_5">
     <g id="line2d_17"/>
     <g id="text_42">
      <text style="fill: #262626; font: 20px 'sans-serif'; text-anchor: start" x="839.2845" y="38.252344" transform="rotate(-0, 839.2845, 38.252344)">100</text>
     </g>
    </g>
   </g>
   <g id="QuadMesh_2">
    <path d="M 824.0075 112.634531 
L 828.0845 112.634531 
L 828.0845 108.557531 
L 824.0075 108.557531 
L 824.0075 112.634531 
" clip-path="url(#p6b47a6b848)" style="fill: #ffffff"/>
    <path d="M 824.0075 108.557531 
L 828.0845 108.557531 
L 828.0845 104.480531 
L 824.0075 104.480531 
L 824.0075 108.557531 
" clip-path="url(#p6b47a6b848)" style="fill: #ecf4fc"/>
    <path d="M 824.0075 104.480531 
L 828.0845 104.480531 
L 828.0845 100.403531 
L 824.0075 100.403531 
L 824.0075 104.480531 
" clip-path="url(#p6b47a6b848)" style="fill: #e2eef8"/>
    <path d="M 824.0075 100.403531 
L 828.0845 100.403531 
L 828.0845 96.326531 
L 824.0075 96.326531 
L 824.0075 100.403531 
" clip-path="url(#p6b47a6b848)" style="fill: #d8e7f5"/>
    <path d="M 824.0075 96.326531 
L 828.0845 96.326531 
L 828.0845 92.249531 
L 824.0075 92.249531 
L 824.0075 96.326531 
" clip-path="url(#p6b47a6b848)" style="fill: #cee0f2"/>
    <path d="M 824.0075 92.249531 
L 828.0845 92.249531 
L 828.0845 88.172531 
L 824.0075 88.172531 
L 824.0075 92.249531 
" clip-path="url(#p6b47a6b848)" style="fill: #c2d9ee"/>
    <path d="M 824.0075 88.172531 
L 828.0845 88.172531 
L 828.0845 84.095531 
L 824.0075 84.095531 
L 824.0075 88.172531 
" clip-path="url(#p6b47a6b848)" style="fill: #b1d2e8"/>
    <path d="M 824.0075 84.095531 
L 828.0845 84.095531 
L 828.0845 80.018531 
L 824.0075 80.018531 
L 824.0075 84.095531 
" clip-path="url(#p6b47a6b848)" style="fill: #a0cbe2"/>
    <path d="M 824.0075 80.018531 
L 828.0845 80.018531 
L 828.0845 75.941531 
L 824.0075 75.941531 
L 824.0075 80.018531 
" clip-path="url(#p6b47a6b848)" style="fill: #8bc0dd"/>
    <path d="M 824.0075 75.941531 
L 828.0845 75.941531 
L 828.0845 71.864531 
L 824.0075 71.864531 
L 824.0075 75.941531 
" clip-path="url(#p6b47a6b848)" style="fill: #76b4d8"/>
    <path d="M 824.0075 71.864531 
L 828.0845 71.864531 
L 828.0845 67.787531 
L 824.0075 67.787531 
L 824.0075 71.864531 
" clip-path="url(#p6b47a6b848)" style="fill: #62a8d3"/>
    <path d="M 824.0075 67.787531 
L 828.0845 67.787531 
L 828.0845 63.710531 
L 824.0075 63.710531 
L 824.0075 67.787531 
" clip-path="url(#p6b47a6b848)" style="fill: #519ccc"/>
    <path d="M 824.0075 63.710531 
L 828.0845 63.710531 
L 828.0845 59.633531 
L 824.0075 59.633531 
L 824.0075 63.710531 
" clip-path="url(#p6b47a6b848)" style="fill: #4090c5"/>
    <path d="M 824.0075 59.633531 
L 828.0845 59.633531 
L 828.0845 55.556531 
L 824.0075 55.556531 
L 824.0075 59.633531 
" clip-path="url(#p6b47a6b848)" style="fill: #3282be"/>
    <path d="M 824.0075 55.556531 
L 828.0845 55.556531 
L 828.0845 51.479531 
L 824.0075 51.479531 
L 824.0075 55.556531 
" clip-path="url(#p6b47a6b848)" style="fill: #2474b7"/>
    <path d="M 824.0075 51.479531 
L 828.0845 51.479531 
L 828.0845 47.402531 
L 824.0075 47.402531 
L 824.0075 51.479531 
" clip-path="url(#p6b47a6b848)" style="fill: #1967ad"/>
    <path d="M 824.0075 47.402531 
L 828.0845 47.402531 
L 828.0845 43.325531 
L 824.0075 43.325531 
L 824.0075 47.402531 
" clip-path="url(#p6b47a6b848)" style="fill: #0f59a3"/>
    <path d="M 824.0075 43.325531 
L 828.0845 43.325531 
L 828.0845 39.248531 
L 824.0075 39.248531 
L 824.0075 43.325531 
" clip-path="url(#p6b47a6b848)" style="fill: #084c94"/>
    <path d="M 824.0075 39.248531 
L 828.0845 39.248531 
L 828.0845 35.171531 
L 824.0075 35.171531 
L 824.0075 39.248531 
" clip-path="url(#p6b47a6b848)" style="fill: #083e80"/>
    <path d="M 824.0075 35.171531 
L 828.0845 35.171531 
L 828.0845 31.094531 
L 824.0075 31.094531 
L 824.0075 35.171531 
" clip-path="url(#p6b47a6b848)" style="fill: #08306b"/>
   </g>
   <g id="LineCollection_1"/>
   <g id="patch_5">
    <path d="M 824.0075 112.634531 
L 826.046 112.634531 
L 828.0845 112.634531 
L 828.0845 31.094531 
L 826.046 31.094531 
L 824.0075 31.094531 
L 824.0075 112.634531 
z
" style="fill: none"/>
   </g>
  </g>
 </g>
 <defs>
  <clipPath id="p1c8ded5382">
   <rect x="159.9875" y="31.094531" width="624.96" height="81.54"/>
  </clipPath>
  <clipPath id="p6b47a6b848">
   <rect x="824.0075" y="31.094531" width="4.077" height="81.54"/>
  </clipPath>
 </defs>
</svg>
