<?xml version="1.0" encoding="utf-8" standalone="no"?>
<!DOCTYPE svg PUBLIC "-//W3C//DTD SVG 1.1//EN"
  "http://www.w3.org/Graphics/SVG/1.1/DTD/svg11.dtd">
<svg xmlns:xlink="http://www.w3.org/1999/xlink" width="1043.730943pt" height="76.400437pt" viewBox="0 0 1043.730943 76.400437" xmlns="http://www.w3.org/2000/svg" version="1.1">
 <metadata>
  <rdf:RDF xmlns:dc="http://purl.org/dc/elements/1.1/" xmlns:cc="http://creativecommons.org/ns#" xmlns:rdf="http://www.w3.org/1999/02/22-rdf-syntax-ns#">
   <cc:Work>
    <dc:type rdf:resource="http://purl.org/dc/dcmitype/StillImage"/>
    <dc:date>2023-11-13T11:17:27.304642</dc:date>
    <dc:format>image/svg+xml</dc:format>
    <dc:creator>
     <cc:Agent>
      <dc:title>Matplotlib v3.6.3, https://matplotlib.org/</dc:title>
     </cc:Agent>
    </dc:creator>
   </cc:Work>
  </rdf:RDF>
 </metadata>
 <defs>
  <style type="text/css">*{stroke-linejoin: round; stroke-linecap: butt}</style>
 </defs>
 <g id="figure_1">
  <g id="patch_1">
   <path d="M 0 76.400437 
L 1043.730943 76.400437 
L 1043.730943 0 
L 0 0 
z
" style="fill: #ffffff"/>
  </g>
  <g id="axes_1">
   <g id="patch_2">
    <path d="M 55.196875 34.92 
L 1024.018834 34.92 
L 1024.018834 7.2 
L 55.196875 7.2 
z
" style="fill: #ffffff"/>
   </g>
   <g id="matplotlib.axis_1">
    <g id="xtick_1">
     <g id="line2d_1"/>
     <g id="text_1">
      <text style="fill: #262626; font: 15px 'Arial', 'Liberation Sans', 'DejaVu Sans', 'Bitstream Vera Sans', sans-serif; text-anchor: middle" x="57.146215" y="54.756719" transform="rotate(-0 57.146215 54.756719)">1</text>
     </g>
    </g>
    <g id="xtick_2">
     <g id="line2d_2"/>
     <g id="text_2">
      <text style="fill: #262626; font: 15px 'Arial', 'Liberation Sans', 'DejaVu Sans', 'Bitstream Vera Sans', sans-serif; text-anchor: middle" x="413.875427" y="54.756719" transform="rotate(-0 413.875427 54.756719)">184</text>
     </g>
    </g>
    <g id="xtick_3">
     <g id="line2d_3"/>
     <g id="text_3">
      <text style="fill: #262626; font: 15px 'Arial', 'Liberation Sans', 'DejaVu Sans', 'Bitstream Vera Sans', sans-serif; text-anchor: middle" x="819.338138" y="54.756719" transform="rotate(-0 819.338138 54.756719)">392</text>
     </g>
    </g>
    <g id="xtick_4">
     <g id="line2d_4"/>
     <g id="text_4">
      <text style="fill: #262626; font: 15px 'Arial', 'Liberation Sans', 'DejaVu Sans', 'Bitstream Vera Sans', sans-serif; text-anchor: middle" x="1024.018834" y="54.756719" transform="rotate(-0 1024.018834 54.756719)">497</text>
     </g>
    </g>
   </g>
   <g id="matplotlib.axis_2">
    <g id="ytick_1">
     <g id="line2d_5"/>
     <g id="text_5">
      <text style="fill: #262626; font: 20px 'Arial', 'Liberation Sans', 'DejaVu Sans', 'Bitstream Vera Sans', sans-serif; text-anchor: end" x="46.096875" y="28.217812" transform="rotate(-0 46.096875 28.217812)">BET</text>
     </g>
    </g>
   </g>
   <g id="PolyCollection_1">
    <path d="M 55.196875 34.92 
L 55.196875 7.2 
L 57.146215 7.2 
L 57.146215 34.92 
L 55.196875 34.92 
z
" clip-path="url(#p9d1c28bb03)" style="fill: #3a3aff"/>
    <path d="M 57.146215 34.92 
L 57.146215 7.2 
L 59.095555 7.2 
L 59.095555 34.92 
L 57.146215 34.92 
z
" clip-path="url(#p9d1c28bb03)" style="fill: #6c6cff"/>
    <path d="M 59.095555 34.92 
L 59.095555 7.2 
L 61.044895 7.2 
L 61.044895 34.92 
L 59.095555 34.92 
z
" clip-path="url(#p9d1c28bb03)" style="fill: #6a6aff"/>
    <path d="M 61.044895 34.92 
L 61.044895 7.2 
L 62.994235 7.2 
L 62.994235 34.92 
L 61.044895 34.92 
z
" clip-path="url(#p9d1c28bb03)" style="fill: #4848ff"/>
    <path d="M 62.994235 34.92 
L 62.994235 7.2 
L 64.943575 7.2 
L 64.943575 34.92 
L 62.994235 34.92 
z
" clip-path="url(#p9d1c28bb03)" style="fill: #5252ff"/>
    <path d="M 64.943575 34.92 
L 64.943575 7.2 
L 66.892915 7.2 
L 66.892915 34.92 
L 64.943575 34.92 
z
" clip-path="url(#p9d1c28bb03)" style="fill: #5a5aff"/>
    <path d="M 66.892915 34.92 
L 66.892915 7.2 
L 68.842255 7.2 
L 68.842255 34.92 
L 66.892915 34.92 
z
" clip-path="url(#p9d1c28bb03)" style="fill: #dadaff"/>
    <path d="M 68.842255 34.92 
L 68.842255 7.2 
L 70.791595 7.2 
L 70.791595 34.92 
L 68.842255 34.92 
z
" clip-path="url(#p9d1c28bb03)" style="fill: #ffd4d4"/>
    <path d="M 70.791595 34.92 
L 70.791595 7.2 
L 72.740935 7.2 
L 72.740935 34.92 
L 70.791595 34.92 
z
" clip-path="url(#p9d1c28bb03)" style="fill: #ffd8d8"/>
    <path d="M 72.740935 34.92 
L 72.740935 7.2 
L 74.690275 7.2 
L 74.690275 34.92 
L 72.740935 34.92 
z
" clip-path="url(#p9d1c28bb03)" style="fill: #ffe4e4"/>
    <path d="M 74.690275 34.92 
L 74.690275 7.2 
L 76.639615 7.2 
L 76.639615 34.92 
L 74.690275 34.92 
z
" clip-path="url(#p9d1c28bb03)" style="fill: #ffdada"/>
    <path d="M 76.639615 34.92 
L 76.639615 7.2 
L 78.588954 7.2 
L 78.588954 34.92 
L 76.639615 34.92 
z
" clip-path="url(#p9d1c28bb03)" style="fill: #eaeaff"/>
    <path d="M 78.588954 34.92 
L 78.588954 7.2 
L 80.538294 7.2 
L 80.538294 34.92 
L 78.588954 34.92 
z
" clip-path="url(#p9d1c28bb03)" style="fill: #ffe6e6"/>
    <path d="M 80.538294 34.92 
L 80.538294 7.2 
L 82.487634 7.2 
L 82.487634 34.92 
L 80.538294 34.92 
z
" clip-path="url(#p9d1c28bb03)" style="fill: #ffdada"/>
    <path d="M 82.487634 34.92 
L 82.487634 7.2 
L 84.436974 7.2 
L 84.436974 34.92 
L 82.487634 34.92 
z
" clip-path="url(#p9d1c28bb03)" style="fill: #ffdcdc"/>
    <path d="M 84.436974 34.92 
L 84.436974 7.2 
L 86.386314 7.2 
L 86.386314 34.92 
L 84.436974 34.92 
z
" clip-path="url(#p9d1c28bb03)" style="fill: #ffd6d6"/>
    <path d="M 86.386314 34.92 
L 86.386314 7.2 
L 88.335654 7.2 
L 88.335654 34.92 
L 86.386314 34.92 
z
" clip-path="url(#p9d1c28bb03)" style="fill: #ffdada"/>
    <path d="M 88.335654 34.92 
L 88.335654 7.2 
L 90.284994 7.2 
L 90.284994 34.92 
L 88.335654 34.92 
z
" clip-path="url(#p9d1c28bb03)" style="fill: #e4e4ff"/>
    <path d="M 90.284994 34.92 
L 90.284994 7.2 
L 92.234334 7.2 
L 92.234334 34.92 
L 90.284994 34.92 
z
" clip-path="url(#p9d1c28bb03)" style="fill: #fff2f2"/>
    <path d="M 92.234334 34.92 
L 92.234334 7.2 
L 94.183674 7.2 
L 94.183674 34.92 
L 92.234334 34.92 
z
" clip-path="url(#p9d1c28bb03)" style="fill: #f0f0ff"/>
    <path d="M 94.183674 34.92 
L 94.183674 7.2 
L 96.133014 7.2 
L 96.133014 34.92 
L 94.183674 34.92 
z
" clip-path="url(#p9d1c28bb03)" style="fill: #eaeaff"/>
    <path d="M 96.133014 34.92 
L 96.133014 7.2 
L 98.082354 7.2 
L 98.082354 34.92 
L 96.133014 34.92 
z
" clip-path="url(#p9d1c28bb03)" style="fill: #e4e4ff"/>
    <path d="M 98.082354 34.92 
L 98.082354 7.2 
L 100.031694 7.2 
L 100.031694 34.92 
L 98.082354 34.92 
z
" clip-path="url(#p9d1c28bb03)" style="fill: #cacaff"/>
    <path d="M 100.031694 34.92 
L 100.031694 7.2 
L 101.981034 7.2 
L 101.981034 34.92 
L 100.031694 34.92 
z
" clip-path="url(#p9d1c28bb03)" style="fill: #dadaff"/>
    <path d="M 101.981034 34.92 
L 101.981034 7.2 
L 103.930374 7.2 
L 103.930374 34.92 
L 101.981034 34.92 
z
" clip-path="url(#p9d1c28bb03)" style="fill: #ff6a6a"/>
    <path d="M 103.930374 34.92 
L 103.930374 7.2 
L 105.879714 7.2 
L 105.879714 34.92 
L 103.930374 34.92 
z
" clip-path="url(#p9d1c28bb03)" style="fill: #ff7474"/>
    <path d="M 105.879714 34.92 
L 105.879714 7.2 
L 107.829054 7.2 
L 107.829054 34.92 
L 105.879714 34.92 
z
" clip-path="url(#p9d1c28bb03)" style="fill: #ffc2c2"/>
    <path d="M 107.829054 34.92 
L 107.829054 7.2 
L 109.778394 7.2 
L 109.778394 34.92 
L 107.829054 34.92 
z
" clip-path="url(#p9d1c28bb03)" style="fill: #ffaeae"/>
    <path d="M 109.778394 34.92 
L 109.778394 7.2 
L 111.727734 7.2 
L 111.727734 34.92 
L 109.778394 34.92 
z
" clip-path="url(#p9d1c28bb03)" style="fill: #ff7272"/>
    <path d="M 111.727734 34.92 
L 111.727734 7.2 
L 113.677074 7.2 
L 113.677074 34.92 
L 111.727734 34.92 
z
" clip-path="url(#p9d1c28bb03)" style="fill: #ffa4a4"/>
    <path d="M 113.677074 34.92 
L 113.677074 7.2 
L 115.626414 7.2 
L 115.626414 34.92 
L 113.677074 34.92 
z
" clip-path="url(#p9d1c28bb03)" style="fill: #ffc0c0"/>
    <path d="M 115.626414 34.92 
L 115.626414 7.2 
L 117.575754 7.2 
L 117.575754 34.92 
L 115.626414 34.92 
z
" clip-path="url(#p9d1c28bb03)" style="fill: #ffbaba"/>
    <path d="M 117.575754 34.92 
L 117.575754 7.2 
L 119.525094 7.2 
L 119.525094 34.92 
L 117.575754 34.92 
z
" clip-path="url(#p9d1c28bb03)" style="fill: #cacaff"/>
    <path d="M 119.525094 34.92 
L 119.525094 7.2 
L 121.474434 7.2 
L 121.474434 34.92 
L 119.525094 34.92 
z
" clip-path="url(#p9d1c28bb03)" style="fill: #c2c2ff"/>
    <path d="M 121.474434 34.92 
L 121.474434 7.2 
L 123.423773 7.2 
L 123.423773 34.92 
L 121.474434 34.92 
z
" clip-path="url(#p9d1c28bb03)" style="fill: #fff0f0"/>
    <path d="M 123.423773 34.92 
L 123.423773 7.2 
L 125.373113 7.2 
L 125.373113 34.92 
L 123.423773 34.92 
z
" clip-path="url(#p9d1c28bb03)" style="fill: #ffb4b4"/>
    <path d="M 125.373113 34.92 
L 125.373113 7.2 
L 127.322453 7.2 
L 127.322453 34.92 
L 125.373113 34.92 
z
" clip-path="url(#p9d1c28bb03)" style="fill: #ffd4d4"/>
    <path d="M 127.322453 34.92 
L 127.322453 7.2 
L 129.271793 7.2 
L 129.271793 34.92 
L 127.322453 34.92 
z
" clip-path="url(#p9d1c28bb03)" style="fill: #ffeaea"/>
    <path d="M 129.271793 34.92 
L 129.271793 7.2 
L 131.221133 7.2 
L 131.221133 34.92 
L 129.271793 34.92 
z
" clip-path="url(#p9d1c28bb03)" style="fill: #ff9898"/>
    <path d="M 131.221133 34.92 
L 131.221133 7.2 
L 133.170473 7.2 
L 133.170473 34.92 
L 131.221133 34.92 
z
" clip-path="url(#p9d1c28bb03)" style="fill: #ffc8c8"/>
    <path d="M 133.170473 34.92 
L 133.170473 7.2 
L 135.119813 7.2 
L 135.119813 34.92 
L 133.170473 34.92 
z
" clip-path="url(#p9d1c28bb03)" style="fill: #ffe2e2"/>
    <path d="M 135.119813 34.92 
L 135.119813 7.2 
L 137.069153 7.2 
L 137.069153 34.92 
L 135.119813 34.92 
z
" clip-path="url(#p9d1c28bb03)" style="fill: #ffaeae"/>
    <path d="M 137.069153 34.92 
L 137.069153 7.2 
L 139.018493 7.2 
L 139.018493 34.92 
L 137.069153 34.92 
z
" clip-path="url(#p9d1c28bb03)" style="fill: #ffe8e8"/>
    <path d="M 139.018493 34.92 
L 139.018493 7.2 
L 140.967833 7.2 
L 140.967833 34.92 
L 139.018493 34.92 
z
" clip-path="url(#p9d1c28bb03)" style="fill: #ffa2a2"/>
    <path d="M 140.967833 34.92 
L 140.967833 7.2 
L 142.917173 7.2 
L 142.917173 34.92 
L 140.967833 34.92 
z
" clip-path="url(#p9d1c28bb03)" style="fill: #ffeeee"/>
    <path d="M 142.917173 34.92 
L 142.917173 7.2 
L 144.866513 7.2 
L 144.866513 34.92 
L 142.917173 34.92 
z
" clip-path="url(#p9d1c28bb03)" style="fill: #ff8484"/>
    <path d="M 144.866513 34.92 
L 144.866513 7.2 
L 146.815853 7.2 
L 146.815853 34.92 
L 144.866513 34.92 
z
" clip-path="url(#p9d1c28bb03)" style="fill: #ffeeee"/>
    <path d="M 146.815853 34.92 
L 146.815853 7.2 
L 148.765193 7.2 
L 148.765193 34.92 
L 146.815853 34.92 
z
" clip-path="url(#p9d1c28bb03)" style="fill: #ffc8c8"/>
    <path d="M 148.765193 34.92 
L 148.765193 7.2 
L 150.714533 7.2 
L 150.714533 34.92 
L 148.765193 34.92 
z
" clip-path="url(#p9d1c28bb03)" style="fill: #ffeeee"/>
    <path d="M 150.714533 34.92 
L 150.714533 7.2 
L 152.663873 7.2 
L 152.663873 34.92 
L 150.714533 34.92 
z
" clip-path="url(#p9d1c28bb03)" style="fill: #ffcece"/>
    <path d="M 152.663873 34.92 
L 152.663873 7.2 
L 154.613213 7.2 
L 154.613213 34.92 
L 152.663873 34.92 
z
" clip-path="url(#p9d1c28bb03)" style="fill: #ffd4d4"/>
    <path d="M 154.613213 34.92 
L 154.613213 7.2 
L 156.562553 7.2 
L 156.562553 34.92 
L 154.613213 34.92 
z
" clip-path="url(#p9d1c28bb03)" style="fill: #ffdada"/>
    <path d="M 156.562553 34.92 
L 156.562553 7.2 
L 158.511893 7.2 
L 158.511893 34.92 
L 156.562553 34.92 
z
" clip-path="url(#p9d1c28bb03)" style="fill: #ffa0a0"/>
    <path d="M 158.511893 34.92 
L 158.511893 7.2 
L 160.461233 7.2 
L 160.461233 34.92 
L 158.511893 34.92 
z
" clip-path="url(#p9d1c28bb03)" style="fill: #ffe6e6"/>
    <path d="M 160.461233 34.92 
L 160.461233 7.2 
L 162.410573 7.2 
L 162.410573 34.92 
L 160.461233 34.92 
z
" clip-path="url(#p9d1c28bb03)" style="fill: #ffa8a8"/>
    <path d="M 162.410573 34.92 
L 162.410573 7.2 
L 164.359913 7.2 
L 164.359913 34.92 
L 162.410573 34.92 
z
" clip-path="url(#p9d1c28bb03)" style="fill: #ffc2c2"/>
    <path d="M 164.359913 34.92 
L 164.359913 7.2 
L 166.309253 7.2 
L 166.309253 34.92 
L 164.359913 34.92 
z
" clip-path="url(#p9d1c28bb03)" style="fill: #ff8a8a"/>
    <path d="M 166.309253 34.92 
L 166.309253 7.2 
L 168.258592 7.2 
L 168.258592 34.92 
L 166.309253 34.92 
z
" clip-path="url(#p9d1c28bb03)" style="fill: #ffc8c8"/>
    <path d="M 168.258592 34.92 
L 168.258592 7.2 
L 170.207932 7.2 
L 170.207932 34.92 
L 168.258592 34.92 
z
" clip-path="url(#p9d1c28bb03)" style="fill: #ffcece"/>
    <path d="M 170.207932 34.92 
L 170.207932 7.2 
L 172.157272 7.2 
L 172.157272 34.92 
L 170.207932 34.92 
z
" clip-path="url(#p9d1c28bb03)" style="fill: #d6d6ff"/>
    <path d="M 172.157272 34.92 
L 172.157272 7.2 
L 174.106612 7.2 
L 174.106612 34.92 
L 172.157272 34.92 
z
" clip-path="url(#p9d1c28bb03)" style="fill: #dcdcff"/>
    <path d="M 174.106612 34.92 
L 174.106612 7.2 
L 176.055952 7.2 
L 176.055952 34.92 
L 174.106612 34.92 
z
" clip-path="url(#p9d1c28bb03)" style="fill: #ffe0e0"/>
    <path d="M 176.055952 34.92 
L 176.055952 7.2 
L 178.005292 7.2 
L 178.005292 34.92 
L 176.055952 34.92 
z
" clip-path="url(#p9d1c28bb03)" style="fill: #ffe0e0"/>
    <path d="M 178.005292 34.92 
L 178.005292 7.2 
L 179.954632 7.2 
L 179.954632 34.92 
L 178.005292 34.92 
z
" clip-path="url(#p9d1c28bb03)" style="fill: #dedeff"/>
    <path d="M 179.954632 34.92 
L 179.954632 7.2 
L 181.903972 7.2 
L 181.903972 34.92 
L 179.954632 34.92 
z
" clip-path="url(#p9d1c28bb03)" style="fill: #ffe8e8"/>
    <path d="M 181.903972 34.92 
L 181.903972 7.2 
L 183.853312 7.2 
L 183.853312 34.92 
L 181.903972 34.92 
z
" clip-path="url(#p9d1c28bb03)" style="fill: #dedeff"/>
    <path d="M 183.853312 34.92 
L 183.853312 7.2 
L 185.802652 7.2 
L 185.802652 34.92 
L 183.853312 34.92 
z
" clip-path="url(#p9d1c28bb03)" style="fill: #ffe2e2"/>
    <path d="M 185.802652 34.92 
L 185.802652 7.2 
L 187.751992 7.2 
L 187.751992 34.92 
L 185.802652 34.92 
z
" clip-path="url(#p9d1c28bb03)" style="fill: #ffe2e2"/>
    <path d="M 187.751992 34.92 
L 187.751992 7.2 
L 189.701332 7.2 
L 189.701332 34.92 
L 187.751992 34.92 
z
" clip-path="url(#p9d1c28bb03)" style="fill: #ffe4e4"/>
    <path d="M 189.701332 34.92 
L 189.701332 7.2 
L 191.650672 7.2 
L 191.650672 34.92 
L 189.701332 34.92 
z
" clip-path="url(#p9d1c28bb03)" style="fill: #ffdada"/>
    <path d="M 191.650672 34.92 
L 191.650672 7.2 
L 193.600012 7.2 
L 193.600012 34.92 
L 191.650672 34.92 
z
" clip-path="url(#p9d1c28bb03)" style="fill: #ececff"/>
    <path d="M 193.600012 34.92 
L 193.600012 7.2 
L 195.549352 7.2 
L 195.549352 34.92 
L 193.600012 34.92 
z
" clip-path="url(#p9d1c28bb03)" style="fill: #eeeeff"/>
    <path d="M 195.549352 34.92 
L 195.549352 7.2 
L 197.498692 7.2 
L 197.498692 34.92 
L 195.549352 34.92 
z
" clip-path="url(#p9d1c28bb03)" style="fill: #eeeeff"/>
    <path d="M 197.498692 34.92 
L 197.498692 7.2 
L 199.448032 7.2 
L 199.448032 34.92 
L 197.498692 34.92 
z
" clip-path="url(#p9d1c28bb03)" style="fill: #b0b0ff"/>
    <path d="M 199.448032 34.92 
L 199.448032 7.2 
L 201.397372 7.2 
L 201.397372 34.92 
L 199.448032 34.92 
z
" clip-path="url(#p9d1c28bb03)" style="fill: #b0b0ff"/>
    <path d="M 201.397372 34.92 
L 201.397372 7.2 
L 203.346712 7.2 
L 203.346712 34.92 
L 201.397372 34.92 
z
" clip-path="url(#p9d1c28bb03)" style="fill: #acacff"/>
    <path d="M 203.346712 34.92 
L 203.346712 7.2 
L 205.296052 7.2 
L 205.296052 34.92 
L 203.346712 34.92 
z
" clip-path="url(#p9d1c28bb03)" style="fill: #ceceff"/>
    <path d="M 205.296052 34.92 
L 205.296052 7.2 
L 207.245392 7.2 
L 207.245392 34.92 
L 205.296052 34.92 
z
" clip-path="url(#p9d1c28bb03)" style="fill: #ceceff"/>
    <path d="M 207.245392 34.92 
L 207.245392 7.2 
L 209.194732 7.2 
L 209.194732 34.92 
L 207.245392 34.92 
z
" clip-path="url(#p9d1c28bb03)" style="fill: #d0d0ff"/>
    <path d="M 209.194732 34.92 
L 209.194732 7.2 
L 211.144072 7.2 
L 211.144072 34.92 
L 209.194732 34.92 
z
" clip-path="url(#p9d1c28bb03)" style="fill: #ff9898"/>
    <path d="M 211.144072 34.92 
L 211.144072 7.2 
L 213.093412 7.2 
L 213.093412 34.92 
L 211.144072 34.92 
z
" clip-path="url(#p9d1c28bb03)" style="fill: #ff9e9e"/>
    <path d="M 213.093412 34.92 
L 213.093412 7.2 
L 215.042751 7.2 
L 215.042751 34.92 
L 213.093412 34.92 
z
" clip-path="url(#p9d1c28bb03)" style="fill: #ff9292"/>
    <path d="M 215.042751 34.92 
L 215.042751 7.2 
L 216.992091 7.2 
L 216.992091 34.92 
L 215.042751 34.92 
z
" clip-path="url(#p9d1c28bb03)" style="fill: #ff8686"/>
    <path d="M 216.992091 34.92 
L 216.992091 7.2 
L 218.941431 7.2 
L 218.941431 34.92 
L 216.992091 34.92 
z
" clip-path="url(#p9d1c28bb03)" style="fill: #ff9292"/>
    <path d="M 218.941431 34.92 
L 218.941431 7.2 
L 220.890771 7.2 
L 220.890771 34.92 
L 218.941431 34.92 
z
" clip-path="url(#p9d1c28bb03)" style="fill: #ffd6d6"/>
    <path d="M 220.890771 34.92 
L 220.890771 7.2 
L 222.840111 7.2 
L 222.840111 34.92 
L 220.890771 34.92 
z
" clip-path="url(#p9d1c28bb03)" style="fill: #ffdcdc"/>
    <path d="M 222.840111 34.92 
L 222.840111 7.2 
L 224.789451 7.2 
L 224.789451 34.92 
L 222.840111 34.92 
z
" clip-path="url(#p9d1c28bb03)" style="fill: #ffd8d8"/>
    <path d="M 224.789451 34.92 
L 224.789451 7.2 
L 226.738791 7.2 
L 226.738791 34.92 
L 224.789451 34.92 
z
" clip-path="url(#p9d1c28bb03)" style="fill: #ff8282"/>
    <path d="M 226.738791 34.92 
L 226.738791 7.2 
L 228.688131 7.2 
L 228.688131 34.92 
L 226.738791 34.92 
z
" clip-path="url(#p9d1c28bb03)" style="fill: #ff7c7c"/>
    <path d="M 228.688131 34.92 
L 228.688131 7.2 
L 230.637471 7.2 
L 230.637471 34.92 
L 228.688131 34.92 
z
" clip-path="url(#p9d1c28bb03)" style="fill: #ff8484"/>
    <path d="M 230.637471 34.92 
L 230.637471 7.2 
L 232.586811 7.2 
L 232.586811 34.92 
L 230.637471 34.92 
z
" clip-path="url(#p9d1c28bb03)" style="fill: #ffacac"/>
    <path d="M 232.586811 34.92 
L 232.586811 7.2 
L 234.536151 7.2 
L 234.536151 34.92 
L 232.586811 34.92 
z
" clip-path="url(#p9d1c28bb03)" style="fill: #ffaeae"/>
    <path d="M 234.536151 34.92 
L 234.536151 7.2 
L 236.485491 7.2 
L 236.485491 34.92 
L 234.536151 34.92 
z
" clip-path="url(#p9d1c28bb03)" style="fill: #ffaeae"/>
    <path d="M 236.485491 34.92 
L 236.485491 7.2 
L 238.434831 7.2 
L 238.434831 34.92 
L 236.485491 34.92 
z
" clip-path="url(#p9d1c28bb03)" style="fill: #a0a0ff"/>
    <path d="M 238.434831 34.92 
L 238.434831 7.2 
L 240.384171 7.2 
L 240.384171 34.92 
L 238.434831 34.92 
z
" clip-path="url(#p9d1c28bb03)" style="fill: #eaeaff"/>
    <path d="M 240.384171 34.92 
L 240.384171 7.2 
L 242.333511 7.2 
L 242.333511 34.92 
L 240.384171 34.92 
z
" clip-path="url(#p9d1c28bb03)" style="fill: #c0c0ff"/>
    <path d="M 242.333511 34.92 
L 242.333511 7.2 
L 244.282851 7.2 
L 244.282851 34.92 
L 242.333511 34.92 
z
" clip-path="url(#p9d1c28bb03)" style="fill: #c6c6ff"/>
    <path d="M 244.282851 34.92 
L 244.282851 7.2 
L 246.232191 7.2 
L 246.232191 34.92 
L 244.282851 34.92 
z
" clip-path="url(#p9d1c28bb03)" style="fill: #e4e4ff"/>
    <path d="M 246.232191 34.92 
L 246.232191 7.2 
L 248.181531 7.2 
L 248.181531 34.92 
L 246.232191 34.92 
z
" clip-path="url(#p9d1c28bb03)" style="fill: #babaff"/>
    <path d="M 248.181531 34.92 
L 248.181531 7.2 
L 250.130871 7.2 
L 250.130871 34.92 
L 248.181531 34.92 
z
" clip-path="url(#p9d1c28bb03)" style="fill: #d2d2ff"/>
    <path d="M 250.130871 34.92 
L 250.130871 7.2 
L 252.080211 7.2 
L 252.080211 34.92 
L 250.130871 34.92 
z
" clip-path="url(#p9d1c28bb03)" style="fill: #ff6e6e"/>
    <path d="M 252.080211 34.92 
L 252.080211 7.2 
L 254.029551 7.2 
L 254.029551 34.92 
L 252.080211 34.92 
z
" clip-path="url(#p9d1c28bb03)" style="fill: #ffe0e0"/>
    <path d="M 254.029551 34.92 
L 254.029551 7.2 
L 255.978891 7.2 
L 255.978891 34.92 
L 254.029551 34.92 
z
" clip-path="url(#p9d1c28bb03)" style="fill: #ffe8e8"/>
    <path d="M 255.978891 34.92 
L 255.978891 7.2 
L 257.928231 7.2 
L 257.928231 34.92 
L 255.978891 34.92 
z
" clip-path="url(#p9d1c28bb03)" style="fill: #ffe2e2"/>
    <path d="M 257.928231 34.92 
L 257.928231 7.2 
L 259.87757 7.2 
L 259.87757 34.92 
L 257.928231 34.92 
z
" clip-path="url(#p9d1c28bb03)" style="fill: #ff9e9e"/>
    <path d="M 259.87757 34.92 
L 259.87757 7.2 
L 261.82691 7.2 
L 261.82691 34.92 
L 259.87757 34.92 
z
" clip-path="url(#p9d1c28bb03)" style="fill: #ff9696"/>
    <path d="M 261.82691 34.92 
L 261.82691 7.2 
L 263.77625 7.2 
L 263.77625 34.92 
L 261.82691 34.92 
z
" clip-path="url(#p9d1c28bb03)" style="fill: #ffa0a0"/>
    <path d="M 263.77625 34.92 
L 263.77625 7.2 
L 265.72559 7.2 
L 265.72559 34.92 
L 263.77625 34.92 
z
" clip-path="url(#p9d1c28bb03)" style="fill: #ffbaba"/>
    <path d="M 265.72559 34.92 
L 265.72559 7.2 
L 267.67493 7.2 
L 267.67493 34.92 
L 265.72559 34.92 
z
" clip-path="url(#p9d1c28bb03)" style="fill: #ffa8a8"/>
    <path d="M 267.67493 34.92 
L 267.67493 7.2 
L 269.62427 7.2 
L 269.62427 34.92 
L 267.67493 34.92 
z
" clip-path="url(#p9d1c28bb03)" style="fill: #ffa8a8"/>
    <path d="M 269.62427 34.92 
L 269.62427 7.2 
L 271.57361 7.2 
L 271.57361 34.92 
L 269.62427 34.92 
z
" clip-path="url(#p9d1c28bb03)" style="fill: #e4e4ff"/>
    <path d="M 271.57361 34.92 
L 271.57361 7.2 
L 273.52295 7.2 
L 273.52295 34.92 
L 271.57361 34.92 
z
" clip-path="url(#p9d1c28bb03)" style="fill: #e6e6ff"/>
    <path d="M 273.52295 34.92 
L 273.52295 7.2 
L 275.47229 7.2 
L 275.47229 34.92 
L 273.52295 34.92 
z
" clip-path="url(#p9d1c28bb03)" style="fill: #e4e4ff"/>
    <path d="M 275.47229 34.92 
L 275.47229 7.2 
L 277.42163 7.2 
L 277.42163 34.92 
L 275.47229 34.92 
z
" clip-path="url(#p9d1c28bb03)" style="fill: #b2b2ff"/>
    <path d="M 277.42163 34.92 
L 277.42163 7.2 
L 279.37097 7.2 
L 279.37097 34.92 
L 277.42163 34.92 
z
" clip-path="url(#p9d1c28bb03)" style="fill: #a4a4ff"/>
    <path d="M 279.37097 34.92 
L 279.37097 7.2 
L 281.32031 7.2 
L 281.32031 34.92 
L 279.37097 34.92 
z
" clip-path="url(#p9d1c28bb03)" style="fill: #b0b0ff"/>
    <path d="M 281.32031 34.92 
L 281.32031 7.2 
L 283.26965 7.2 
L 283.26965 34.92 
L 281.32031 34.92 
z
" clip-path="url(#p9d1c28bb03)" style="fill: #c6c6ff"/>
    <path d="M 283.26965 34.92 
L 283.26965 7.2 
L 285.21899 7.2 
L 285.21899 34.92 
L 283.26965 34.92 
z
" clip-path="url(#p9d1c28bb03)" style="fill: #d2d2ff"/>
    <path d="M 285.21899 34.92 
L 285.21899 7.2 
L 287.16833 7.2 
L 287.16833 34.92 
L 285.21899 34.92 
z
" clip-path="url(#p9d1c28bb03)" style="fill: #ffecec"/>
    <path d="M 287.16833 34.92 
L 287.16833 7.2 
L 289.11767 7.2 
L 289.11767 34.92 
L 287.16833 34.92 
z
" clip-path="url(#p9d1c28bb03)" style="fill: #ffe8e8"/>
    <path d="M 289.11767 34.92 
L 289.11767 7.2 
L 291.06701 7.2 
L 291.06701 34.92 
L 289.11767 34.92 
z
" clip-path="url(#p9d1c28bb03)" style="fill: #ffe8e8"/>
    <path d="M 291.06701 34.92 
L 291.06701 7.2 
L 293.01635 7.2 
L 293.01635 34.92 
L 291.06701 34.92 
z
" clip-path="url(#p9d1c28bb03)" style="fill: #ffb2b2"/>
    <path d="M 293.01635 34.92 
L 293.01635 7.2 
L 294.96569 7.2 
L 294.96569 34.92 
L 293.01635 34.92 
z
" clip-path="url(#p9d1c28bb03)" style="fill: #ffaaaa"/>
    <path d="M 294.96569 34.92 
L 294.96569 7.2 
L 296.91503 7.2 
L 296.91503 34.92 
L 294.96569 34.92 
z
" clip-path="url(#p9d1c28bb03)" style="fill: #ffaaaa"/>
    <path d="M 296.91503 34.92 
L 296.91503 7.2 
L 298.86437 7.2 
L 298.86437 34.92 
L 296.91503 34.92 
z
" clip-path="url(#p9d1c28bb03)" style="fill: #ffcece"/>
    <path d="M 298.86437 34.92 
L 298.86437 7.2 
L 300.81371 7.2 
L 300.81371 34.92 
L 298.86437 34.92 
z
" clip-path="url(#p9d1c28bb03)" style="fill: #ffc4c4"/>
    <path d="M 300.81371 34.92 
L 300.81371 7.2 
L 302.76305 7.2 
L 302.76305 34.92 
L 300.81371 34.92 
z
" clip-path="url(#p9d1c28bb03)" style="fill: #ffcaca"/>
    <path d="M 302.76305 34.92 
L 302.76305 7.2 
L 304.712389 7.2 
L 304.712389 34.92 
L 302.76305 34.92 
z
" clip-path="url(#p9d1c28bb03)" style="fill: #ffd2d2"/>
    <path d="M 304.712389 34.92 
L 304.712389 7.2 
L 306.661729 7.2 
L 306.661729 34.92 
L 304.712389 34.92 
z
" clip-path="url(#p9d1c28bb03)" style="fill: #ffe8e8"/>
    <path d="M 306.661729 34.92 
L 306.661729 7.2 
L 308.611069 7.2 
L 308.611069 34.92 
L 306.661729 34.92 
z
" clip-path="url(#p9d1c28bb03)" style="fill: #ffeaea"/>
    <path d="M 308.611069 34.92 
L 308.611069 7.2 
L 310.560409 7.2 
L 310.560409 34.92 
L 308.611069 34.92 
z
" clip-path="url(#p9d1c28bb03)" style="fill: #9e9eff"/>
    <path d="M 310.560409 34.92 
L 310.560409 7.2 
L 312.509749 7.2 
L 312.509749 34.92 
L 310.560409 34.92 
z
" clip-path="url(#p9d1c28bb03)" style="fill: #8686ff"/>
    <path d="M 312.509749 34.92 
L 312.509749 7.2 
L 314.459089 7.2 
L 314.459089 34.92 
L 312.509749 34.92 
z
" clip-path="url(#p9d1c28bb03)" style="fill: #8080ff"/>
    <path d="M 314.459089 34.92 
L 314.459089 7.2 
L 316.408429 7.2 
L 316.408429 34.92 
L 314.459089 34.92 
z
" clip-path="url(#p9d1c28bb03)" style="fill: #e0e0ff"/>
    <path d="M 316.408429 34.92 
L 316.408429 7.2 
L 318.357769 7.2 
L 318.357769 34.92 
L 316.408429 34.92 
z
" clip-path="url(#p9d1c28bb03)" style="fill: #eaeaff"/>
    <path d="M 318.357769 34.92 
L 318.357769 7.2 
L 320.307109 7.2 
L 320.307109 34.92 
L 318.357769 34.92 
z
" clip-path="url(#p9d1c28bb03)" style="fill: #e4e4ff"/>
    <path d="M 320.307109 34.92 
L 320.307109 7.2 
L 322.256449 7.2 
L 322.256449 34.92 
L 320.307109 34.92 
z
" clip-path="url(#p9d1c28bb03)" style="fill: #a0a0ff"/>
    <path d="M 322.256449 34.92 
L 322.256449 7.2 
L 324.205789 7.2 
L 324.205789 34.92 
L 322.256449 34.92 
z
" clip-path="url(#p9d1c28bb03)" style="fill: #aaaaff"/>
    <path d="M 324.205789 34.92 
L 324.205789 7.2 
L 326.155129 7.2 
L 326.155129 34.92 
L 324.205789 34.92 
z
" clip-path="url(#p9d1c28bb03)" style="fill: #a6a6ff"/>
    <path d="M 326.155129 34.92 
L 326.155129 7.2 
L 328.104469 7.2 
L 328.104469 34.92 
L 326.155129 34.92 
z
" clip-path="url(#p9d1c28bb03)" style="fill: #aeaeff"/>
    <path d="M 328.104469 34.92 
L 328.104469 7.2 
L 330.053809 7.2 
L 330.053809 34.92 
L 328.104469 34.92 
z
" clip-path="url(#p9d1c28bb03)" style="fill: #aeaeff"/>
    <path d="M 330.053809 34.92 
L 330.053809 7.2 
L 332.003149 7.2 
L 332.003149 34.92 
L 330.053809 34.92 
z
" clip-path="url(#p9d1c28bb03)" style="fill: #b2b2ff"/>
    <path d="M 332.003149 34.92 
L 332.003149 7.2 
L 333.952489 7.2 
L 333.952489 34.92 
L 332.003149 34.92 
z
" clip-path="url(#p9d1c28bb03)" style="fill: #ff4a4a"/>
    <path d="M 333.952489 34.92 
L 333.952489 7.2 
L 335.901829 7.2 
L 335.901829 34.92 
L 333.952489 34.92 
z
" clip-path="url(#p9d1c28bb03)" style="fill: #ff5454"/>
    <path d="M 335.901829 34.92 
L 335.901829 7.2 
L 337.851169 7.2 
L 337.851169 34.92 
L 335.901829 34.92 
z
" clip-path="url(#p9d1c28bb03)" style="fill: #ff6060"/>
    <path d="M 337.851169 34.92 
L 337.851169 7.2 
L 339.800509 7.2 
L 339.800509 34.92 
L 337.851169 34.92 
z
" clip-path="url(#p9d1c28bb03)" style="fill: #ffeeee"/>
    <path d="M 339.800509 34.92 
L 339.800509 7.2 
L 341.749849 7.2 
L 341.749849 34.92 
L 339.800509 34.92 
z
" clip-path="url(#p9d1c28bb03)" style="fill: #ffeeee"/>
    <path d="M 341.749849 34.92 
L 341.749849 7.2 
L 343.699189 7.2 
L 343.699189 34.92 
L 341.749849 34.92 
z
" clip-path="url(#p9d1c28bb03)" style="fill: #ffeeee"/>
    <path d="M 343.699189 34.92 
L 343.699189 7.2 
L 345.648529 7.2 
L 345.648529 34.92 
L 343.699189 34.92 
z
" clip-path="url(#p9d1c28bb03)" style="fill: #ffc8c8"/>
    <path d="M 345.648529 34.92 
L 345.648529 7.2 
L 347.597869 7.2 
L 347.597869 34.92 
L 345.648529 34.92 
z
" clip-path="url(#p9d1c28bb03)" style="fill: #ffc6c6"/>
    <path d="M 347.597869 34.92 
L 347.597869 7.2 
L 349.547208 7.2 
L 349.547208 34.92 
L 347.597869 34.92 
z
" clip-path="url(#p9d1c28bb03)" style="fill: #ffc2c2"/>
    <path d="M 349.547208 34.92 
L 349.547208 7.2 
L 351.496548 7.2 
L 351.496548 34.92 
L 349.547208 34.92 
z
" clip-path="url(#p9d1c28bb03)" style="fill: #ffe8e8"/>
    <path d="M 351.496548 34.92 
L 351.496548 7.2 
L 353.445888 7.2 
L 353.445888 34.92 
L 351.496548 34.92 
z
" clip-path="url(#p9d1c28bb03)" style="fill: #ffe6e6"/>
    <path d="M 353.445888 34.92 
L 353.445888 7.2 
L 355.395228 7.2 
L 355.395228 34.92 
L 353.445888 34.92 
z
" clip-path="url(#p9d1c28bb03)" style="fill: #ffe8e8"/>
    <path d="M 355.395228 34.92 
L 355.395228 7.2 
L 357.344568 7.2 
L 357.344568 34.92 
L 355.395228 34.92 
z
" clip-path="url(#p9d1c28bb03)" style="fill: #ffb8b8"/>
    <path d="M 357.344568 34.92 
L 357.344568 7.2 
L 359.293908 7.2 
L 359.293908 34.92 
L 357.344568 34.92 
z
" clip-path="url(#p9d1c28bb03)" style="fill: #ffb4b4"/>
    <path d="M 359.293908 34.92 
L 359.293908 7.2 
L 361.243248 7.2 
L 361.243248 34.92 
L 359.293908 34.92 
z
" clip-path="url(#p9d1c28bb03)" style="fill: #ffacac"/>
    <path d="M 361.243248 34.92 
L 361.243248 7.2 
L 363.192588 7.2 
L 363.192588 34.92 
L 361.243248 34.92 
z
" clip-path="url(#p9d1c28bb03)" style="fill: #ffc6c6"/>
    <path d="M 363.192588 34.92 
L 363.192588 7.2 
L 365.141928 7.2 
L 365.141928 34.92 
L 363.192588 34.92 
z
" clip-path="url(#p9d1c28bb03)" style="fill: #ffcaca"/>
    <path d="M 365.141928 34.92 
L 365.141928 7.2 
L 367.091268 7.2 
L 367.091268 34.92 
L 365.141928 34.92 
z
" clip-path="url(#p9d1c28bb03)" style="fill: #ffcccc"/>
    <path d="M 367.091268 34.92 
L 367.091268 7.2 
L 369.040608 7.2 
L 369.040608 34.92 
L 367.091268 34.92 
z
" clip-path="url(#p9d1c28bb03)" style="fill: #ff9898"/>
    <path d="M 369.040608 34.92 
L 369.040608 7.2 
L 370.989948 7.2 
L 370.989948 34.92 
L 369.040608 34.92 
z
" clip-path="url(#p9d1c28bb03)" style="fill: #ff9a9a"/>
    <path d="M 370.989948 34.92 
L 370.989948 7.2 
L 372.939288 7.2 
L 372.939288 34.92 
L 370.989948 34.92 
z
" clip-path="url(#p9d1c28bb03)" style="fill: #ff9a9a"/>
    <path d="M 372.939288 34.92 
L 372.939288 7.2 
L 374.888628 7.2 
L 374.888628 34.92 
L 372.939288 34.92 
z
" clip-path="url(#p9d1c28bb03)" style="fill: #ffe6e6"/>
    <path d="M 374.888628 34.92 
L 374.888628 7.2 
L 376.837968 7.2 
L 376.837968 34.92 
L 374.888628 34.92 
z
" clip-path="url(#p9d1c28bb03)" style="fill: #ffe4e4"/>
    <path d="M 376.837968 34.92 
L 376.837968 7.2 
L 378.787308 7.2 
L 378.787308 34.92 
L 376.837968 34.92 
z
" clip-path="url(#p9d1c28bb03)" style="fill: #ffe6e6"/>
    <path d="M 378.787308 34.92 
L 378.787308 7.2 
L 380.736648 7.2 
L 380.736648 34.92 
L 378.787308 34.92 
z
" clip-path="url(#p9d1c28bb03)" style="fill: #ffa8a8"/>
    <path d="M 380.736648 34.92 
L 380.736648 7.2 
L 382.685988 7.2 
L 382.685988 34.92 
L 380.736648 34.92 
z
" clip-path="url(#p9d1c28bb03)" style="fill: #ff9e9e"/>
    <path d="M 382.685988 34.92 
L 382.685988 7.2 
L 384.635328 7.2 
L 384.635328 34.92 
L 382.685988 34.92 
z
" clip-path="url(#p9d1c28bb03)" style="fill: #ffa6a6"/>
    <path d="M 384.635328 34.92 
L 384.635328 7.2 
L 386.584668 7.2 
L 386.584668 34.92 
L 384.635328 34.92 
z
" clip-path="url(#p9d1c28bb03)" style="fill: #ffbebe"/>
    <path d="M 386.584668 34.92 
L 386.584668 7.2 
L 388.534008 7.2 
L 388.534008 34.92 
L 386.584668 34.92 
z
" clip-path="url(#p9d1c28bb03)" style="fill: #ffc2c2"/>
    <path d="M 388.534008 34.92 
L 388.534008 7.2 
L 390.483348 7.2 
L 390.483348 34.92 
L 388.534008 34.92 
z
" clip-path="url(#p9d1c28bb03)" style="fill: #ff8686"/>
    <path d="M 390.483348 34.92 
L 390.483348 7.2 
L 392.432688 7.2 
L 392.432688 34.92 
L 390.483348 34.92 
z
" clip-path="url(#p9d1c28bb03)" style="fill: #ff9090"/>
    <path d="M 392.432688 34.92 
L 392.432688 7.2 
L 394.382027 7.2 
L 394.382027 34.92 
L 392.432688 34.92 
z
" clip-path="url(#p9d1c28bb03)" style="fill: #ff9090"/>
    <path d="M 394.382027 34.92 
L 394.382027 7.2 
L 396.331367 7.2 
L 396.331367 34.92 
L 394.382027 34.92 
z
" clip-path="url(#p9d1c28bb03)" style="fill: #ffe4e4"/>
    <path d="M 396.331367 34.92 
L 396.331367 7.2 
L 398.280707 7.2 
L 398.280707 34.92 
L 396.331367 34.92 
z
" clip-path="url(#p9d1c28bb03)" style="fill: #ffe4e4"/>
    <path d="M 398.280707 34.92 
L 398.280707 7.2 
L 400.230047 7.2 
L 400.230047 34.92 
L 398.280707 34.92 
z
" clip-path="url(#p9d1c28bb03)" style="fill: #ffe4e4"/>
    <path d="M 400.230047 34.92 
L 400.230047 7.2 
L 402.179387 7.2 
L 402.179387 34.92 
L 400.230047 34.92 
z
" clip-path="url(#p9d1c28bb03)" style="fill: #ff9696"/>
    <path d="M 402.179387 34.92 
L 402.179387 7.2 
L 404.128727 7.2 
L 404.128727 34.92 
L 402.179387 34.92 
z
" clip-path="url(#p9d1c28bb03)" style="fill: #ffa4a4"/>
    <path d="M 404.128727 34.92 
L 404.128727 7.2 
L 406.078067 7.2 
L 406.078067 34.92 
L 404.128727 34.92 
z
" clip-path="url(#p9d1c28bb03)" style="fill: #ffa0a0"/>
    <path d="M 406.078067 34.92 
L 406.078067 7.2 
L 408.027407 7.2 
L 408.027407 34.92 
L 406.078067 34.92 
z
" clip-path="url(#p9d1c28bb03)" style="fill: #ffc0c0"/>
    <path d="M 408.027407 34.92 
L 408.027407 7.2 
L 409.976747 7.2 
L 409.976747 34.92 
L 408.027407 34.92 
z
" clip-path="url(#p9d1c28bb03)" style="fill: #ffc0c0"/>
    <path d="M 409.976747 34.92 
L 409.976747 7.2 
L 411.926087 7.2 
L 411.926087 34.92 
L 409.976747 34.92 
z
" clip-path="url(#p9d1c28bb03)" style="fill: #ffc2c2"/>
    <path d="M 411.926087 34.92 
L 411.926087 7.2 
L 413.875427 7.2 
L 413.875427 34.92 
L 411.926087 34.92 
z
" clip-path="url(#p9d1c28bb03)" style="fill: #4646ff"/>
    <path d="M 413.875427 34.92 
L 413.875427 7.2 
L 415.824767 7.2 
L 415.824767 34.92 
L 413.875427 34.92 
z
" clip-path="url(#p9d1c28bb03)" style="fill: #4848ff"/>
    <path d="M 415.824767 34.92 
L 415.824767 7.2 
L 417.774107 7.2 
L 417.774107 34.92 
L 415.824767 34.92 
z
" clip-path="url(#p9d1c28bb03)" style="fill: #4242ff"/>
    <path d="M 417.774107 34.92 
L 417.774107 7.2 
L 419.723447 7.2 
L 419.723447 34.92 
L 417.774107 34.92 
z
" clip-path="url(#p9d1c28bb03)" style="fill: #5656ff"/>
    <path d="M 419.723447 34.92 
L 419.723447 7.2 
L 421.672787 7.2 
L 421.672787 34.92 
L 419.723447 34.92 
z
" clip-path="url(#p9d1c28bb03)" style="fill: #ffdede"/>
    <path d="M 421.672787 34.92 
L 421.672787 7.2 
L 423.622127 7.2 
L 423.622127 34.92 
L 421.672787 34.92 
z
" clip-path="url(#p9d1c28bb03)" style="fill: #ffe6e6"/>
    <path d="M 423.622127 34.92 
L 423.622127 7.2 
L 425.571467 7.2 
L 425.571467 34.92 
L 423.622127 34.92 
z
" clip-path="url(#p9d1c28bb03)" style="fill: #ececff"/>
    <path d="M 425.571467 34.92 
L 425.571467 7.2 
L 427.520807 7.2 
L 427.520807 34.92 
L 425.571467 34.92 
z
" clip-path="url(#p9d1c28bb03)" style="fill: #e4e4ff"/>
    <path d="M 427.520807 34.92 
L 427.520807 7.2 
L 429.470147 7.2 
L 429.470147 34.92 
L 427.520807 34.92 
z
" clip-path="url(#p9d1c28bb03)" style="fill: #eaeaff"/>
    <path d="M 429.470147 34.92 
L 429.470147 7.2 
L 431.419487 7.2 
L 431.419487 34.92 
L 429.470147 34.92 
z
" clip-path="url(#p9d1c28bb03)" style="fill: #ffc2c2"/>
    <path d="M 431.419487 34.92 
L 431.419487 7.2 
L 433.368827 7.2 
L 433.368827 34.92 
L 431.419487 34.92 
z
" clip-path="url(#p9d1c28bb03)" style="fill: #ffb8b8"/>
    <path d="M 433.368827 34.92 
L 433.368827 7.2 
L 435.318167 7.2 
L 435.318167 34.92 
L 433.368827 34.92 
z
" clip-path="url(#p9d1c28bb03)" style="fill: #ffe0e0"/>
    <path d="M 435.318167 34.92 
L 435.318167 7.2 
L 437.267507 7.2 
L 437.267507 34.92 
L 435.318167 34.92 
z
" clip-path="url(#p9d1c28bb03)" style="fill: #ffd8d8"/>
    <path d="M 437.267507 34.92 
L 437.267507 7.2 
L 439.216846 7.2 
L 439.216846 34.92 
L 437.267507 34.92 
z
" clip-path="url(#p9d1c28bb03)" style="fill: #dedeff"/>
    <path d="M 439.216846 34.92 
L 439.216846 7.2 
L 441.166186 7.2 
L 441.166186 34.92 
L 439.216846 34.92 
z
" clip-path="url(#p9d1c28bb03)" style="fill: #d4d4ff"/>
    <path d="M 441.166186 34.92 
L 441.166186 7.2 
L 443.115526 7.2 
L 443.115526 34.92 
L 441.166186 34.92 
z
" clip-path="url(#p9d1c28bb03)" style="fill: #d6d6ff"/>
    <path d="M 443.115526 34.92 
L 443.115526 7.2 
L 445.064866 7.2 
L 445.064866 34.92 
L 443.115526 34.92 
z
" clip-path="url(#p9d1c28bb03)" style="fill: #d2d2ff"/>
    <path d="M 445.064866 34.92 
L 445.064866 7.2 
L 447.014206 7.2 
L 447.014206 34.92 
L 445.064866 34.92 
z
" clip-path="url(#p9d1c28bb03)" style="fill: #ffdede"/>
    <path d="M 447.014206 34.92 
L 447.014206 7.2 
L 448.963546 7.2 
L 448.963546 34.92 
L 447.014206 34.92 
z
" clip-path="url(#p9d1c28bb03)" style="fill: #ffeaea"/>
    <path d="M 448.963546 34.92 
L 448.963546 7.2 
L 450.912886 7.2 
L 450.912886 34.92 
L 448.963546 34.92 
z
" clip-path="url(#p9d1c28bb03)" style="fill: #ffe0e0"/>
    <path d="M 450.912886 34.92 
L 450.912886 7.2 
L 452.862226 7.2 
L 452.862226 34.92 
L 450.912886 34.92 
z
" clip-path="url(#p9d1c28bb03)" style="fill: #ececff"/>
    <path d="M 452.862226 34.92 
L 452.862226 7.2 
L 454.811566 7.2 
L 454.811566 34.92 
L 452.862226 34.92 
z
" clip-path="url(#p9d1c28bb03)" style="fill: #e8e8ff"/>
    <path d="M 454.811566 34.92 
L 454.811566 7.2 
L 456.760906 7.2 
L 456.760906 34.92 
L 454.811566 34.92 
z
" clip-path="url(#p9d1c28bb03)" style="fill: #fffefe"/>
    <path d="M 456.760906 34.92 
L 456.760906 7.2 
L 458.710246 7.2 
L 458.710246 34.92 
L 456.760906 34.92 
z
" clip-path="url(#p9d1c28bb03)" style="fill: #e8e8ff"/>
    <path d="M 458.710246 34.92 
L 458.710246 7.2 
L 460.659586 7.2 
L 460.659586 34.92 
L 458.710246 34.92 
z
" clip-path="url(#p9d1c28bb03)" style="fill: #fffefe"/>
    <path d="M 460.659586 34.92 
L 460.659586 7.2 
L 462.608926 7.2 
L 462.608926 34.92 
L 460.659586 34.92 
z
" clip-path="url(#p9d1c28bb03)" style="fill: #eaeaff"/>
    <path d="M 462.608926 34.92 
L 462.608926 7.2 
L 464.558266 7.2 
L 464.558266 34.92 
L 462.608926 34.92 
z
" clip-path="url(#p9d1c28bb03)" style="fill: #e6e6ff"/>
    <path d="M 464.558266 34.92 
L 464.558266 7.2 
L 466.507606 7.2 
L 466.507606 34.92 
L 464.558266 34.92 
z
" clip-path="url(#p9d1c28bb03)" style="fill: #ffecec"/>
    <path d="M 466.507606 34.92 
L 466.507606 7.2 
L 468.456946 7.2 
L 468.456946 34.92 
L 466.507606 34.92 
z
" clip-path="url(#p9d1c28bb03)" style="fill: #e4e4ff"/>
    <path d="M 468.456946 34.92 
L 468.456946 7.2 
L 470.406286 7.2 
L 470.406286 34.92 
L 468.456946 34.92 
z
" clip-path="url(#p9d1c28bb03)" style="fill: #dedeff"/>
    <path d="M 470.406286 34.92 
L 470.406286 7.2 
L 472.355626 7.2 
L 472.355626 34.92 
L 470.406286 34.92 
z
" clip-path="url(#p9d1c28bb03)" style="fill: #dadaff"/>
    <path d="M 472.355626 34.92 
L 472.355626 7.2 
L 474.304966 7.2 
L 474.304966 34.92 
L 472.355626 34.92 
z
" clip-path="url(#p9d1c28bb03)" style="fill: #e6e6ff"/>
    <path d="M 474.304966 34.92 
L 474.304966 7.2 
L 476.254306 7.2 
L 476.254306 34.92 
L 474.304966 34.92 
z
" clip-path="url(#p9d1c28bb03)" style="fill: #e6e6ff"/>
    <path d="M 476.254306 34.92 
L 476.254306 7.2 
L 478.203646 7.2 
L 478.203646 34.92 
L 476.254306 34.92 
z
" clip-path="url(#p9d1c28bb03)" style="fill: #ececff"/>
    <path d="M 478.203646 34.92 
L 478.203646 7.2 
L 480.152986 7.2 
L 480.152986 34.92 
L 478.203646 34.92 
z
" clip-path="url(#p9d1c28bb03)" style="fill: #eaeaff"/>
    <path d="M 480.152986 34.92 
L 480.152986 7.2 
L 482.102326 7.2 
L 482.102326 34.92 
L 480.152986 34.92 
z
" clip-path="url(#p9d1c28bb03)" style="fill: #d8d8ff"/>
    <path d="M 482.102326 34.92 
L 482.102326 7.2 
L 484.051666 7.2 
L 484.051666 34.92 
L 482.102326 34.92 
z
" clip-path="url(#p9d1c28bb03)" style="fill: #e8e8ff"/>
    <path d="M 484.051666 34.92 
L 484.051666 7.2 
L 486.001005 7.2 
L 486.001005 34.92 
L 484.051666 34.92 
z
" clip-path="url(#p9d1c28bb03)" style="fill: #e8e8ff"/>
    <path d="M 486.001005 34.92 
L 486.001005 7.2 
L 487.950345 7.2 
L 487.950345 34.92 
L 486.001005 34.92 
z
" clip-path="url(#p9d1c28bb03)" style="fill: #e8e8ff"/>
    <path d="M 487.950345 34.92 
L 487.950345 7.2 
L 489.899685 7.2 
L 489.899685 34.92 
L 487.950345 34.92 
z
" clip-path="url(#p9d1c28bb03)" style="fill: #e0e0ff"/>
    <path d="M 489.899685 34.92 
L 489.899685 7.2 
L 491.849025 7.2 
L 491.849025 34.92 
L 489.899685 34.92 
z
" clip-path="url(#p9d1c28bb03)" style="fill: #e0e0ff"/>
    <path d="M 491.849025 34.92 
L 491.849025 7.2 
L 493.798365 7.2 
L 493.798365 34.92 
L 491.849025 34.92 
z
" clip-path="url(#p9d1c28bb03)" style="fill: #cacaff"/>
    <path d="M 493.798365 34.92 
L 493.798365 7.2 
L 495.747705 7.2 
L 495.747705 34.92 
L 493.798365 34.92 
z
" clip-path="url(#p9d1c28bb03)" style="fill: #d8d8ff"/>
    <path d="M 495.747705 34.92 
L 495.747705 7.2 
L 497.697045 7.2 
L 497.697045 34.92 
L 495.747705 34.92 
z
" clip-path="url(#p9d1c28bb03)" style="fill: #ff5858"/>
    <path d="M 497.697045 34.92 
L 497.697045 7.2 
L 499.646385 7.2 
L 499.646385 34.92 
L 497.697045 34.92 
z
" clip-path="url(#p9d1c28bb03)" style="fill: #ff8686"/>
    <path d="M 499.646385 34.92 
L 499.646385 7.2 
L 501.595725 7.2 
L 501.595725 34.92 
L 499.646385 34.92 
z
" clip-path="url(#p9d1c28bb03)" style="fill: #ffaeae"/>
    <path d="M 501.595725 34.92 
L 501.595725 7.2 
L 503.545065 7.2 
L 503.545065 34.92 
L 501.595725 34.92 
z
" clip-path="url(#p9d1c28bb03)" style="fill: #ff7272"/>
    <path d="M 503.545065 34.92 
L 503.545065 7.2 
L 505.494405 7.2 
L 505.494405 34.92 
L 503.545065 34.92 
z
" clip-path="url(#p9d1c28bb03)" style="fill: #ff5454"/>
    <path d="M 505.494405 34.92 
L 505.494405 7.2 
L 507.443745 7.2 
L 507.443745 34.92 
L 505.494405 34.92 
z
" clip-path="url(#p9d1c28bb03)" style="fill: #ff6666"/>
    <path d="M 507.443745 34.92 
L 507.443745 7.2 
L 509.393085 7.2 
L 509.393085 34.92 
L 507.443745 34.92 
z
" clip-path="url(#p9d1c28bb03)" style="fill: #ff8e8e"/>
    <path d="M 509.393085 34.92 
L 509.393085 7.2 
L 511.342425 7.2 
L 511.342425 34.92 
L 509.393085 34.92 
z
" clip-path="url(#p9d1c28bb03)" style="fill: #ffa2a2"/>
    <path d="M 511.342425 34.92 
L 511.342425 7.2 
L 513.291765 7.2 
L 513.291765 34.92 
L 511.342425 34.92 
z
" clip-path="url(#p9d1c28bb03)" style="fill: #ffbcbc"/>
    <path d="M 513.291765 34.92 
L 513.291765 7.2 
L 515.241105 7.2 
L 515.241105 34.92 
L 513.291765 34.92 
z
" clip-path="url(#p9d1c28bb03)" style="fill: #fff0f0"/>
    <path d="M 515.241105 34.92 
L 515.241105 7.2 
L 517.190445 7.2 
L 517.190445 34.92 
L 515.241105 34.92 
z
" clip-path="url(#p9d1c28bb03)" style="fill: #ffcccc"/>
    <path d="M 517.190445 34.92 
L 517.190445 7.2 
L 519.139785 7.2 
L 519.139785 34.92 
L 517.190445 34.92 
z
" clip-path="url(#p9d1c28bb03)" style="fill: #bebeff"/>
    <path d="M 519.139785 34.92 
L 519.139785 7.2 
L 521.089125 7.2 
L 521.089125 34.92 
L 519.139785 34.92 
z
" clip-path="url(#p9d1c28bb03)" style="fill: #fff4f4"/>
    <path d="M 521.089125 34.92 
L 521.089125 7.2 
L 523.038465 7.2 
L 523.038465 34.92 
L 521.089125 34.92 
z
" clip-path="url(#p9d1c28bb03)" style="fill: #ffb4b4"/>
    <path d="M 523.038465 34.92 
L 523.038465 7.2 
L 524.987805 7.2 
L 524.987805 34.92 
L 523.038465 34.92 
z
" clip-path="url(#p9d1c28bb03)" style="fill: #ffe6e6"/>
    <path d="M 524.987805 34.92 
L 524.987805 7.2 
L 526.937145 7.2 
L 526.937145 34.92 
L 524.987805 34.92 
z
" clip-path="url(#p9d1c28bb03)" style="fill: #ffeaea"/>
    <path d="M 526.937145 34.92 
L 526.937145 7.2 
L 528.886485 7.2 
L 528.886485 34.92 
L 526.937145 34.92 
z
" clip-path="url(#p9d1c28bb03)" style="fill: #ff8484"/>
    <path d="M 528.886485 34.92 
L 528.886485 7.2 
L 530.835824 7.2 
L 530.835824 34.92 
L 528.886485 34.92 
z
" clip-path="url(#p9d1c28bb03)" style="fill: #ffcece"/>
    <path d="M 530.835824 34.92 
L 530.835824 7.2 
L 532.785164 7.2 
L 532.785164 34.92 
L 530.835824 34.92 
z
" clip-path="url(#p9d1c28bb03)" style="fill: #ff8686"/>
    <path d="M 532.785164 34.92 
L 532.785164 7.2 
L 534.734504 7.2 
L 534.734504 34.92 
L 532.785164 34.92 
z
" clip-path="url(#p9d1c28bb03)" style="fill: #ffe2e2"/>
    <path d="M 534.734504 34.92 
L 534.734504 7.2 
L 536.683844 7.2 
L 536.683844 34.92 
L 534.734504 34.92 
z
" clip-path="url(#p9d1c28bb03)" style="fill: #ffaeae"/>
    <path d="M 536.683844 34.92 
L 536.683844 7.2 
L 538.633184 7.2 
L 538.633184 34.92 
L 536.683844 34.92 
z
" clip-path="url(#p9d1c28bb03)" style="fill: #ffb2b2"/>
    <path d="M 538.633184 34.92 
L 538.633184 7.2 
L 540.582524 7.2 
L 540.582524 34.92 
L 538.633184 34.92 
z
" clip-path="url(#p9d1c28bb03)" style="fill: #ff8686"/>
    <path d="M 540.582524 34.92 
L 540.582524 7.2 
L 542.531864 7.2 
L 542.531864 34.92 
L 540.582524 34.92 
z
" clip-path="url(#p9d1c28bb03)" style="fill: #ffe4e4"/>
    <path d="M 542.531864 34.92 
L 542.531864 7.2 
L 544.481204 7.2 
L 544.481204 34.92 
L 542.531864 34.92 
z
" clip-path="url(#p9d1c28bb03)" style="fill: #ffa2a2"/>
    <path d="M 544.481204 34.92 
L 544.481204 7.2 
L 546.430544 7.2 
L 546.430544 34.92 
L 544.481204 34.92 
z
" clip-path="url(#p9d1c28bb03)" style="fill: #ffaaaa"/>
    <path d="M 546.430544 34.92 
L 546.430544 7.2 
L 548.379884 7.2 
L 548.379884 34.92 
L 546.430544 34.92 
z
" clip-path="url(#p9d1c28bb03)" style="fill: #ff7c7c"/>
    <path d="M 548.379884 34.92 
L 548.379884 7.2 
L 550.329224 7.2 
L 550.329224 34.92 
L 548.379884 34.92 
z
" clip-path="url(#p9d1c28bb03)" style="fill: #ffeeee"/>
    <path d="M 550.329224 34.92 
L 550.329224 7.2 
L 552.278564 7.2 
L 552.278564 34.92 
L 550.329224 34.92 
z
" clip-path="url(#p9d1c28bb03)" style="fill: #ffcaca"/>
    <path d="M 552.278564 34.92 
L 552.278564 7.2 
L 554.227904 7.2 
L 554.227904 34.92 
L 552.278564 34.92 
z
" clip-path="url(#p9d1c28bb03)" style="fill: #ffcece"/>
    <path d="M 554.227904 34.92 
L 554.227904 7.2 
L 556.177244 7.2 
L 556.177244 34.92 
L 554.227904 34.92 
z
" clip-path="url(#p9d1c28bb03)" style="fill: #ff9898"/>
    <path d="M 556.177244 34.92 
L 556.177244 7.2 
L 558.126584 7.2 
L 558.126584 34.92 
L 556.177244 34.92 
z
" clip-path="url(#p9d1c28bb03)" style="fill: #ffe6e6"/>
    <path d="M 558.126584 34.92 
L 558.126584 7.2 
L 560.075924 7.2 
L 560.075924 34.92 
L 558.126584 34.92 
z
" clip-path="url(#p9d1c28bb03)" style="fill: #ffb2b2"/>
    <path d="M 560.075924 34.92 
L 560.075924 7.2 
L 562.025264 7.2 
L 562.025264 34.92 
L 560.075924 34.92 
z
" clip-path="url(#p9d1c28bb03)" style="fill: #ffb6b6"/>
    <path d="M 562.025264 34.92 
L 562.025264 7.2 
L 563.974604 7.2 
L 563.974604 34.92 
L 562.025264 34.92 
z
" clip-path="url(#p9d1c28bb03)" style="fill: #ff6868"/>
    <path d="M 563.974604 34.92 
L 563.974604 7.2 
L 565.923944 7.2 
L 565.923944 34.92 
L 563.974604 34.92 
z
" clip-path="url(#p9d1c28bb03)" style="fill: #ffe4e4"/>
    <path d="M 565.923944 34.92 
L 565.923944 7.2 
L 567.873284 7.2 
L 567.873284 34.92 
L 565.923944 34.92 
z
" clip-path="url(#p9d1c28bb03)" style="fill: #ff6e6e"/>
    <path d="M 567.873284 34.92 
L 567.873284 7.2 
L 569.822624 7.2 
L 569.822624 34.92 
L 567.873284 34.92 
z
" clip-path="url(#p9d1c28bb03)" style="fill: #ffbcbc"/>
    <path d="M 569.822624 34.92 
L 569.822624 7.2 
L 571.771964 7.2 
L 571.771964 34.92 
L 569.822624 34.92 
z
" clip-path="url(#p9d1c28bb03)" style="fill: #ffeaea"/>
    <path d="M 571.771964 34.92 
L 571.771964 7.2 
L 573.721304 7.2 
L 573.721304 34.92 
L 571.771964 34.92 
z
" clip-path="url(#p9d1c28bb03)" style="fill: #fff2f2"/>
    <path d="M 573.721304 34.92 
L 573.721304 7.2 
L 575.670643 7.2 
L 575.670643 34.92 
L 573.721304 34.92 
z
" clip-path="url(#p9d1c28bb03)" style="fill: #ffcece"/>
    <path d="M 575.670643 34.92 
L 575.670643 7.2 
L 577.619983 7.2 
L 577.619983 34.92 
L 575.670643 34.92 
z
" clip-path="url(#p9d1c28bb03)" style="fill: #ffd6d6"/>
    <path d="M 577.619983 34.92 
L 577.619983 7.2 
L 579.569323 7.2 
L 579.569323 34.92 
L 577.619983 34.92 
z
" clip-path="url(#p9d1c28bb03)" style="fill: #ffcece"/>
    <path d="M 579.569323 34.92 
L 579.569323 7.2 
L 581.518663 7.2 
L 581.518663 34.92 
L 579.569323 34.92 
z
" clip-path="url(#p9d1c28bb03)" style="fill: #ffe4e4"/>
    <path d="M 581.518663 34.92 
L 581.518663 7.2 
L 583.468003 7.2 
L 583.468003 34.92 
L 581.518663 34.92 
z
" clip-path="url(#p9d1c28bb03)" style="fill: #ffd4d4"/>
    <path d="M 583.468003 34.92 
L 583.468003 7.2 
L 585.417343 7.2 
L 585.417343 34.92 
L 583.468003 34.92 
z
" clip-path="url(#p9d1c28bb03)" style="fill: #ffbebe"/>
    <path d="M 585.417343 34.92 
L 585.417343 7.2 
L 587.366683 7.2 
L 587.366683 34.92 
L 585.417343 34.92 
z
" clip-path="url(#p9d1c28bb03)" style="fill: #c4c4ff"/>
    <path d="M 587.366683 34.92 
L 587.366683 7.2 
L 589.316023 7.2 
L 589.316023 34.92 
L 587.366683 34.92 
z
" clip-path="url(#p9d1c28bb03)" style="fill: #ffeaea"/>
    <path d="M 589.316023 34.92 
L 589.316023 7.2 
L 591.265363 7.2 
L 591.265363 34.92 
L 589.316023 34.92 
z
" clip-path="url(#p9d1c28bb03)" style="fill: #ffd6d6"/>
    <path d="M 591.265363 34.92 
L 591.265363 7.2 
L 593.214703 7.2 
L 593.214703 34.92 
L 591.265363 34.92 
z
" clip-path="url(#p9d1c28bb03)" style="fill: #d4d4ff"/>
    <path d="M 593.214703 34.92 
L 593.214703 7.2 
L 595.164043 7.2 
L 595.164043 34.92 
L 593.214703 34.92 
z
" clip-path="url(#p9d1c28bb03)" style="fill: #ffd4d4"/>
    <path d="M 595.164043 34.92 
L 595.164043 7.2 
L 597.113383 7.2 
L 597.113383 34.92 
L 595.164043 34.92 
z
" clip-path="url(#p9d1c28bb03)" style="fill: #ffd0d0"/>
    <path d="M 597.113383 34.92 
L 597.113383 7.2 
L 599.062723 7.2 
L 599.062723 34.92 
L 597.113383 34.92 
z
" clip-path="url(#p9d1c28bb03)" style="fill: #ffdcdc"/>
    <path d="M 599.062723 34.92 
L 599.062723 7.2 
L 601.012063 7.2 
L 601.012063 34.92 
L 599.062723 34.92 
z
" clip-path="url(#p9d1c28bb03)" style="fill: #ffa2a2"/>
    <path d="M 601.012063 34.92 
L 601.012063 7.2 
L 602.961403 7.2 
L 602.961403 34.92 
L 601.012063 34.92 
z
" clip-path="url(#p9d1c28bb03)" style="fill: #ff7c7c"/>
    <path d="M 602.961403 34.92 
L 602.961403 7.2 
L 604.910743 7.2 
L 604.910743 34.92 
L 602.961403 34.92 
z
" clip-path="url(#p9d1c28bb03)" style="fill: #ff9090"/>
    <path d="M 604.910743 34.92 
L 604.910743 7.2 
L 606.860083 7.2 
L 606.860083 34.92 
L 604.910743 34.92 
z
" clip-path="url(#p9d1c28bb03)" style="fill: #aeaeff"/>
    <path d="M 606.860083 34.92 
L 606.860083 7.2 
L 608.809423 7.2 
L 608.809423 34.92 
L 606.860083 34.92 
z
" clip-path="url(#p9d1c28bb03)" style="fill: #b0b0ff"/>
    <path d="M 608.809423 34.92 
L 608.809423 7.2 
L 610.758763 7.2 
L 610.758763 34.92 
L 608.809423 34.92 
z
" clip-path="url(#p9d1c28bb03)" style="fill: #ececff"/>
    <path d="M 610.758763 34.92 
L 610.758763 7.2 
L 612.708103 7.2 
L 612.708103 34.92 
L 610.758763 34.92 
z
" clip-path="url(#p9d1c28bb03)" style="fill: #eeeeff"/>
    <path d="M 612.708103 34.92 
L 612.708103 7.2 
L 614.657443 7.2 
L 614.657443 34.92 
L 612.708103 34.92 
z
" clip-path="url(#p9d1c28bb03)" style="fill: #eeeeff"/>
    <path d="M 614.657443 34.92 
L 614.657443 7.2 
L 616.606783 7.2 
L 616.606783 34.92 
L 614.657443 34.92 
z
" clip-path="url(#p9d1c28bb03)" style="fill: #a6a6ff"/>
    <path d="M 616.606783 34.92 
L 616.606783 7.2 
L 618.556123 7.2 
L 618.556123 34.92 
L 616.606783 34.92 
z
" clip-path="url(#p9d1c28bb03)" style="fill: #b2b2ff"/>
    <path d="M 618.556123 34.92 
L 618.556123 7.2 
L 620.505462 7.2 
L 620.505462 34.92 
L 618.556123 34.92 
z
" clip-path="url(#p9d1c28bb03)" style="fill: #aaaaff"/>
    <path d="M 620.505462 34.92 
L 620.505462 7.2 
L 622.454802 7.2 
L 622.454802 34.92 
L 620.505462 34.92 
z
" clip-path="url(#p9d1c28bb03)" style="fill: #d8d8ff"/>
    <path d="M 622.454802 34.92 
L 622.454802 7.2 
L 624.404142 7.2 
L 624.404142 34.92 
L 622.454802 34.92 
z
" clip-path="url(#p9d1c28bb03)" style="fill: #ceceff"/>
    <path d="M 624.404142 34.92 
L 624.404142 7.2 
L 626.353482 7.2 
L 626.353482 34.92 
L 624.404142 34.92 
z
" clip-path="url(#p9d1c28bb03)" style="fill: #d0d0ff"/>
    <path d="M 626.353482 34.92 
L 626.353482 7.2 
L 628.302822 7.2 
L 628.302822 34.92 
L 626.353482 34.92 
z
" clip-path="url(#p9d1c28bb03)" style="fill: #ff7c7c"/>
    <path d="M 628.302822 34.92 
L 628.302822 7.2 
L 630.252162 7.2 
L 630.252162 34.92 
L 628.302822 34.92 
z
" clip-path="url(#p9d1c28bb03)" style="fill: #ff7474"/>
    <path d="M 630.252162 34.92 
L 630.252162 7.2 
L 632.201502 7.2 
L 632.201502 34.92 
L 630.252162 34.92 
z
" clip-path="url(#p9d1c28bb03)" style="fill: #ff6666"/>
    <path d="M 632.201502 34.92 
L 632.201502 7.2 
L 634.150842 7.2 
L 634.150842 34.92 
L 632.201502 34.92 
z
" clip-path="url(#p9d1c28bb03)" style="fill: #ff7272"/>
    <path d="M 634.150842 34.92 
L 634.150842 7.2 
L 636.100182 7.2 
L 636.100182 34.92 
L 634.150842 34.92 
z
" clip-path="url(#p9d1c28bb03)" style="fill: #ff7c7c"/>
    <path d="M 636.100182 34.92 
L 636.100182 7.2 
L 638.049522 7.2 
L 638.049522 34.92 
L 636.100182 34.92 
z
" clip-path="url(#p9d1c28bb03)" style="fill: #ff8282"/>
    <path d="M 638.049522 34.92 
L 638.049522 7.2 
L 639.998862 7.2 
L 639.998862 34.92 
L 638.049522 34.92 
z
" clip-path="url(#p9d1c28bb03)" style="fill: #ffdada"/>
    <path d="M 639.998862 34.92 
L 639.998862 7.2 
L 641.948202 7.2 
L 641.948202 34.92 
L 639.998862 34.92 
z
" clip-path="url(#p9d1c28bb03)" style="fill: #ffdada"/>
    <path d="M 641.948202 34.92 
L 641.948202 7.2 
L 643.897542 7.2 
L 643.897542 34.92 
L 641.948202 34.92 
z
" clip-path="url(#p9d1c28bb03)" style="fill: #ffe0e0"/>
    <path d="M 643.897542 34.92 
L 643.897542 7.2 
L 645.846882 7.2 
L 645.846882 34.92 
L 643.897542 34.92 
z
" clip-path="url(#p9d1c28bb03)" style="fill: #ff5050"/>
    <path d="M 645.846882 34.92 
L 645.846882 7.2 
L 647.796222 7.2 
L 647.796222 34.92 
L 645.846882 34.92 
z
" clip-path="url(#p9d1c28bb03)" style="fill: #ff6262"/>
    <path d="M 647.796222 34.92 
L 647.796222 7.2 
L 649.745562 7.2 
L 649.745562 34.92 
L 647.796222 34.92 
z
" clip-path="url(#p9d1c28bb03)" style="fill: #ff5050"/>
    <path d="M 649.745562 34.92 
L 649.745562 7.2 
L 651.694902 7.2 
L 651.694902 34.92 
L 649.745562 34.92 
z
" clip-path="url(#p9d1c28bb03)" style="fill: #ffaeae"/>
    <path d="M 651.694902 34.92 
L 651.694902 7.2 
L 653.644242 7.2 
L 653.644242 34.92 
L 651.694902 34.92 
z
" clip-path="url(#p9d1c28bb03)" style="fill: #ffaaaa"/>
    <path d="M 653.644242 34.92 
L 653.644242 7.2 
L 655.593582 7.2 
L 655.593582 34.92 
L 653.644242 34.92 
z
" clip-path="url(#p9d1c28bb03)" style="fill: #bcbcff"/>
    <path d="M 655.593582 34.92 
L 655.593582 7.2 
L 657.542922 7.2 
L 657.542922 34.92 
L 655.593582 34.92 
z
" clip-path="url(#p9d1c28bb03)" style="fill: #ff9292"/>
    <path d="M 657.542922 34.92 
L 657.542922 7.2 
L 659.492262 7.2 
L 659.492262 34.92 
L 657.542922 34.92 
z
" clip-path="url(#p9d1c28bb03)" style="fill: #ff8e8e"/>
    <path d="M 659.492262 34.92 
L 659.492262 7.2 
L 661.441602 7.2 
L 661.441602 34.92 
L 659.492262 34.92 
z
" clip-path="url(#p9d1c28bb03)" style="fill: #ffe4e4"/>
    <path d="M 661.441602 34.92 
L 661.441602 7.2 
L 663.390942 7.2 
L 663.390942 34.92 
L 661.441602 34.92 
z
" clip-path="url(#p9d1c28bb03)" style="fill: #ffe6e6"/>
    <path d="M 663.390942 34.92 
L 663.390942 7.2 
L 665.340281 7.2 
L 665.340281 34.92 
L 663.390942 34.92 
z
" clip-path="url(#p9d1c28bb03)" style="fill: #ffe4e4"/>
    <path d="M 665.340281 34.92 
L 665.340281 7.2 
L 667.289621 7.2 
L 667.289621 34.92 
L 665.340281 34.92 
z
" clip-path="url(#p9d1c28bb03)" style="fill: #ff7c7c"/>
    <path d="M 667.289621 34.92 
L 667.289621 7.2 
L 669.238961 7.2 
L 669.238961 34.92 
L 667.289621 34.92 
z
" clip-path="url(#p9d1c28bb03)" style="fill: #ff7c7c"/>
    <path d="M 669.238961 34.92 
L 669.238961 7.2 
L 671.188301 7.2 
L 671.188301 34.92 
L 669.238961 34.92 
z
" clip-path="url(#p9d1c28bb03)" style="fill: #ff8484"/>
    <path d="M 671.188301 34.92 
L 671.188301 7.2 
L 673.137641 7.2 
L 673.137641 34.92 
L 671.188301 34.92 
z
" clip-path="url(#p9d1c28bb03)" style="fill: #ffb6b6"/>
    <path d="M 673.137641 34.92 
L 673.137641 7.2 
L 675.086981 7.2 
L 675.086981 34.92 
L 673.137641 34.92 
z
" clip-path="url(#p9d1c28bb03)" style="fill: #ffb4b4"/>
    <path d="M 675.086981 34.92 
L 675.086981 7.2 
L 677.036321 7.2 
L 677.036321 34.92 
L 675.086981 34.92 
z
" clip-path="url(#p9d1c28bb03)" style="fill: #ffb6b6"/>
    <path d="M 677.036321 34.92 
L 677.036321 7.2 
L 678.985661 7.2 
L 678.985661 34.92 
L 677.036321 34.92 
z
" clip-path="url(#p9d1c28bb03)" style="fill: #e8e8ff"/>
    <path d="M 678.985661 34.92 
L 678.985661 7.2 
L 680.935001 7.2 
L 680.935001 34.92 
L 678.985661 34.92 
z
" clip-path="url(#p9d1c28bb03)" style="fill: #e6e6ff"/>
    <path d="M 680.935001 34.92 
L 680.935001 7.2 
L 682.884341 7.2 
L 682.884341 34.92 
L 680.935001 34.92 
z
" clip-path="url(#p9d1c28bb03)" style="fill: #e8e8ff"/>
    <path d="M 682.884341 34.92 
L 682.884341 7.2 
L 684.833681 7.2 
L 684.833681 34.92 
L 682.884341 34.92 
z
" clip-path="url(#p9d1c28bb03)" style="fill: #9090ff"/>
    <path d="M 684.833681 34.92 
L 684.833681 7.2 
L 686.783021 7.2 
L 686.783021 34.92 
L 684.833681 34.92 
z
" clip-path="url(#p9d1c28bb03)" style="fill: #9a9aff"/>
    <path d="M 686.783021 34.92 
L 686.783021 7.2 
L 688.732361 7.2 
L 688.732361 34.92 
L 686.783021 34.92 
z
" clip-path="url(#p9d1c28bb03)" style="fill: #9898ff"/>
    <path d="M 688.732361 34.92 
L 688.732361 7.2 
L 690.681701 7.2 
L 690.681701 34.92 
L 688.732361 34.92 
z
" clip-path="url(#p9d1c28bb03)" style="fill: #ccccff"/>
    <path d="M 690.681701 34.92 
L 690.681701 7.2 
L 692.631041 7.2 
L 692.631041 34.92 
L 690.681701 34.92 
z
" clip-path="url(#p9d1c28bb03)" style="fill: #bebeff"/>
    <path d="M 692.631041 34.92 
L 692.631041 7.2 
L 694.580381 7.2 
L 694.580381 34.92 
L 692.631041 34.92 
z
" clip-path="url(#p9d1c28bb03)" style="fill: #bcbcff"/>
    <path d="M 694.580381 34.92 
L 694.580381 7.2 
L 696.529721 7.2 
L 696.529721 34.92 
L 694.580381 34.92 
z
" clip-path="url(#p9d1c28bb03)" style="fill: #ff9e9e"/>
    <path d="M 696.529721 34.92 
L 696.529721 7.2 
L 698.479061 7.2 
L 698.479061 34.92 
L 696.529721 34.92 
z
" clip-path="url(#p9d1c28bb03)" style="fill: #ffa2a2"/>
    <path d="M 698.479061 34.92 
L 698.479061 7.2 
L 700.428401 7.2 
L 700.428401 34.92 
L 698.479061 34.92 
z
" clip-path="url(#p9d1c28bb03)" style="fill: #ffecec"/>
    <path d="M 700.428401 34.92 
L 700.428401 7.2 
L 702.377741 7.2 
L 702.377741 34.92 
L 700.428401 34.92 
z
" clip-path="url(#p9d1c28bb03)" style="fill: #ffeeee"/>
    <path d="M 702.377741 34.92 
L 702.377741 7.2 
L 704.327081 7.2 
L 704.327081 34.92 
L 702.377741 34.92 
z
" clip-path="url(#p9d1c28bb03)" style="fill: #ffeeee"/>
    <path d="M 704.327081 34.92 
L 704.327081 7.2 
L 706.276421 7.2 
L 706.276421 34.92 
L 704.327081 34.92 
z
" clip-path="url(#p9d1c28bb03)" style="fill: #ff8c8c"/>
    <path d="M 706.276421 34.92 
L 706.276421 7.2 
L 708.225761 7.2 
L 708.225761 34.92 
L 706.276421 34.92 
z
" clip-path="url(#p9d1c28bb03)" style="fill: #ff8c8c"/>
    <path d="M 708.225761 34.92 
L 708.225761 7.2 
L 710.1751 7.2 
L 710.1751 34.92 
L 708.225761 34.92 
z
" clip-path="url(#p9d1c28bb03)" style="fill: #ff9292"/>
    <path d="M 710.1751 34.92 
L 710.1751 7.2 
L 712.12444 7.2 
L 712.12444 34.92 
L 710.1751 34.92 
z
" clip-path="url(#p9d1c28bb03)" style="fill: #ffd0d0"/>
    <path d="M 712.12444 34.92 
L 712.12444 7.2 
L 714.07378 7.2 
L 714.07378 34.92 
L 712.12444 34.92 
z
" clip-path="url(#p9d1c28bb03)" style="fill: #ffcaca"/>
    <path d="M 714.07378 34.92 
L 714.07378 7.2 
L 716.02312 7.2 
L 716.02312 34.92 
L 714.07378 34.92 
z
" clip-path="url(#p9d1c28bb03)" style="fill: #ffcaca"/>
    <path d="M 716.02312 34.92 
L 716.02312 7.2 
L 717.97246 7.2 
L 717.97246 34.92 
L 716.02312 34.92 
z
" clip-path="url(#p9d1c28bb03)" style="fill: #ffacac"/>
    <path d="M 717.97246 34.92 
L 717.97246 7.2 
L 719.9218 7.2 
L 719.9218 34.92 
L 717.97246 34.92 
z
" clip-path="url(#p9d1c28bb03)" style="fill: #9494ff"/>
    <path d="M 719.9218 34.92 
L 719.9218 7.2 
L 721.87114 7.2 
L 721.87114 34.92 
L 719.9218 34.92 
z
" clip-path="url(#p9d1c28bb03)" style="fill: #8686ff"/>
    <path d="M 721.87114 34.92 
L 721.87114 7.2 
L 723.82048 7.2 
L 723.82048 34.92 
L 721.87114 34.92 
z
" clip-path="url(#p9d1c28bb03)" style="fill: #8e8eff"/>
    <path d="M 723.82048 34.92 
L 723.82048 7.2 
L 725.76982 7.2 
L 725.76982 34.92 
L 723.82048 34.92 
z
" clip-path="url(#p9d1c28bb03)" style="fill: #e4e4ff"/>
    <path d="M 725.76982 34.92 
L 725.76982 7.2 
L 727.71916 7.2 
L 727.71916 34.92 
L 725.76982 34.92 
z
" clip-path="url(#p9d1c28bb03)" style="fill: #e6e6ff"/>
    <path d="M 727.71916 34.92 
L 727.71916 7.2 
L 729.6685 7.2 
L 729.6685 34.92 
L 727.71916 34.92 
z
" clip-path="url(#p9d1c28bb03)" style="fill: #e6e6ff"/>
    <path d="M 729.6685 34.92 
L 729.6685 7.2 
L 731.61784 7.2 
L 731.61784 34.92 
L 729.6685 34.92 
z
" clip-path="url(#p9d1c28bb03)" style="fill: #7070ff"/>
    <path d="M 731.61784 34.92 
L 731.61784 7.2 
L 733.56718 7.2 
L 733.56718 34.92 
L 731.61784 34.92 
z
" clip-path="url(#p9d1c28bb03)" style="fill: #a8a8ff"/>
    <path d="M 733.56718 34.92 
L 733.56718 7.2 
L 735.51652 7.2 
L 735.51652 34.92 
L 733.56718 34.92 
z
" clip-path="url(#p9d1c28bb03)" style="fill: #9292ff"/>
    <path d="M 735.51652 34.92 
L 735.51652 7.2 
L 737.46586 7.2 
L 737.46586 34.92 
L 735.51652 34.92 
z
" clip-path="url(#p9d1c28bb03)" style="fill: #bebeff"/>
    <path d="M 737.46586 34.92 
L 737.46586 7.2 
L 739.4152 7.2 
L 739.4152 34.92 
L 737.46586 34.92 
z
" clip-path="url(#p9d1c28bb03)" style="fill: #b6b6ff"/>
    <path d="M 739.4152 34.92 
L 739.4152 7.2 
L 741.36454 7.2 
L 741.36454 34.92 
L 739.4152 34.92 
z
" clip-path="url(#p9d1c28bb03)" style="fill: #b8b8ff"/>
    <path d="M 741.36454 34.92 
L 741.36454 7.2 
L 743.31388 7.2 
L 743.31388 34.92 
L 741.36454 34.92 
z
" clip-path="url(#p9d1c28bb03)" style="fill: #ffecec"/>
    <path d="M 743.31388 34.92 
L 743.31388 7.2 
L 745.26322 7.2 
L 745.26322 34.92 
L 743.31388 34.92 
z
" clip-path="url(#p9d1c28bb03)" style="fill: #ffeeee"/>
    <path d="M 745.26322 34.92 
L 745.26322 7.2 
L 747.21256 7.2 
L 747.21256 34.92 
L 745.26322 34.92 
z
" clip-path="url(#p9d1c28bb03)" style="fill: #ffeeee"/>
    <path d="M 747.21256 34.92 
L 747.21256 7.2 
L 749.1619 7.2 
L 749.1619 34.92 
L 747.21256 34.92 
z
" clip-path="url(#p9d1c28bb03)" style="fill: #ffc6c6"/>
    <path d="M 749.1619 34.92 
L 749.1619 7.2 
L 751.11124 7.2 
L 751.11124 34.92 
L 749.1619 34.92 
z
" clip-path="url(#p9d1c28bb03)" style="fill: #ffc8c8"/>
    <path d="M 751.11124 34.92 
L 751.11124 7.2 
L 753.06058 7.2 
L 753.06058 34.92 
L 751.11124 34.92 
z
" clip-path="url(#p9d1c28bb03)" style="fill: #ffc6c6"/>
    <path d="M 753.06058 34.92 
L 753.06058 7.2 
L 755.00992 7.2 
L 755.00992 34.92 
L 753.06058 34.92 
z
" clip-path="url(#p9d1c28bb03)" style="fill: #ffe8e8"/>
    <path d="M 755.00992 34.92 
L 755.00992 7.2 
L 756.959259 7.2 
L 756.959259 34.92 
L 755.00992 34.92 
z
" clip-path="url(#p9d1c28bb03)" style="fill: #ffe8e8"/>
    <path d="M 756.959259 34.92 
L 756.959259 7.2 
L 758.908599 7.2 
L 758.908599 34.92 
L 756.959259 34.92 
z
" clip-path="url(#p9d1c28bb03)" style="fill: #ffeaea"/>
    <path d="M 758.908599 34.92 
L 758.908599 7.2 
L 760.857939 7.2 
L 760.857939 34.92 
L 758.908599 34.92 
z
" clip-path="url(#p9d1c28bb03)" style="fill: #ff8484"/>
    <path d="M 760.857939 34.92 
L 760.857939 7.2 
L 762.807279 7.2 
L 762.807279 34.92 
L 760.857939 34.92 
z
" clip-path="url(#p9d1c28bb03)" style="fill: #ff8a8a"/>
    <path d="M 762.807279 34.92 
L 762.807279 7.2 
L 764.756619 7.2 
L 764.756619 34.92 
L 762.807279 34.92 
z
" clip-path="url(#p9d1c28bb03)" style="fill: #ff8080"/>
    <path d="M 764.756619 34.92 
L 764.756619 7.2 
L 766.705959 7.2 
L 766.705959 34.92 
L 764.756619 34.92 
z
" clip-path="url(#p9d1c28bb03)" style="fill: #ffcece"/>
    <path d="M 766.705959 34.92 
L 766.705959 7.2 
L 768.655299 7.2 
L 768.655299 34.92 
L 766.705959 34.92 
z
" clip-path="url(#p9d1c28bb03)" style="fill: #ffd0d0"/>
    <path d="M 768.655299 34.92 
L 768.655299 7.2 
L 770.604639 7.2 
L 770.604639 34.92 
L 768.655299 34.92 
z
" clip-path="url(#p9d1c28bb03)" style="fill: #ffd0d0"/>
    <path d="M 770.604639 34.92 
L 770.604639 7.2 
L 772.553979 7.2 
L 772.553979 34.92 
L 770.604639 34.92 
z
" clip-path="url(#p9d1c28bb03)" style="fill: #ff3e3e"/>
    <path d="M 772.553979 34.92 
L 772.553979 7.2 
L 774.503319 7.2 
L 774.503319 34.92 
L 772.553979 34.92 
z
" clip-path="url(#p9d1c28bb03)" style="fill: #ff3232"/>
    <path d="M 774.503319 34.92 
L 774.503319 7.2 
L 776.452659 7.2 
L 776.452659 34.92 
L 774.503319 34.92 
z
" clip-path="url(#p9d1c28bb03)" style="fill: #ff3838"/>
    <path d="M 776.452659 34.92 
L 776.452659 7.2 
L 778.401999 7.2 
L 778.401999 34.92 
L 776.452659 34.92 
z
" clip-path="url(#p9d1c28bb03)" style="fill: #ffdede"/>
    <path d="M 778.401999 34.92 
L 778.401999 7.2 
L 780.351339 7.2 
L 780.351339 34.92 
L 778.401999 34.92 
z
" clip-path="url(#p9d1c28bb03)" style="fill: #ffe6e6"/>
    <path d="M 780.351339 34.92 
L 780.351339 7.2 
L 782.300679 7.2 
L 782.300679 34.92 
L 780.351339 34.92 
z
" clip-path="url(#p9d1c28bb03)" style="fill: #ffe4e4"/>
    <path d="M 782.300679 34.92 
L 782.300679 7.2 
L 784.250019 7.2 
L 784.250019 34.92 
L 782.300679 34.92 
z
" clip-path="url(#p9d1c28bb03)" style="fill: #ff7676"/>
    <path d="M 784.250019 34.92 
L 784.250019 7.2 
L 786.199359 7.2 
L 786.199359 34.92 
L 784.250019 34.92 
z
" clip-path="url(#p9d1c28bb03)" style="fill: #ff6666"/>
    <path d="M 786.199359 34.92 
L 786.199359 7.2 
L 788.148699 7.2 
L 788.148699 34.92 
L 786.199359 34.92 
z
" clip-path="url(#p9d1c28bb03)" style="fill: #ff4c4c"/>
    <path d="M 788.148699 34.92 
L 788.148699 7.2 
L 790.098039 7.2 
L 790.098039 34.92 
L 788.148699 34.92 
z
" clip-path="url(#p9d1c28bb03)" style="fill: #ffc4c4"/>
    <path d="M 790.098039 34.92 
L 790.098039 7.2 
L 792.047379 7.2 
L 792.047379 34.92 
L 790.098039 34.92 
z
" clip-path="url(#p9d1c28bb03)" style="fill: #ffc2c2"/>
    <path d="M 792.047379 34.92 
L 792.047379 7.2 
L 793.996719 7.2 
L 793.996719 34.92 
L 792.047379 34.92 
z
" clip-path="url(#p9d1c28bb03)" style="fill: #ffc0c0"/>
    <path d="M 793.996719 34.92 
L 793.996719 7.2 
L 795.946059 7.2 
L 795.946059 34.92 
L 793.996719 34.92 
z
" clip-path="url(#p9d1c28bb03)" style="fill: #ff5252"/>
    <path d="M 795.946059 34.92 
L 795.946059 7.2 
L 797.895399 7.2 
L 797.895399 34.92 
L 795.946059 34.92 
z
" clip-path="url(#p9d1c28bb03)" style="fill: #ff3a3a"/>
    <path d="M 797.895399 34.92 
L 797.895399 7.2 
L 799.844739 7.2 
L 799.844739 34.92 
L 797.895399 34.92 
z
" clip-path="url(#p9d1c28bb03)" style="fill: #ff3e3e"/>
    <path d="M 799.844739 34.92 
L 799.844739 7.2 
L 801.794078 7.2 
L 801.794078 34.92 
L 799.844739 34.92 
z
" clip-path="url(#p9d1c28bb03)" style="fill: #ffe0e0"/>
    <path d="M 801.794078 34.92 
L 801.794078 7.2 
L 803.743418 7.2 
L 803.743418 34.92 
L 801.794078 34.92 
z
" clip-path="url(#p9d1c28bb03)" style="fill: #ffe4e4"/>
    <path d="M 803.743418 34.92 
L 803.743418 7.2 
L 805.692758 7.2 
L 805.692758 34.92 
L 803.743418 34.92 
z
" clip-path="url(#p9d1c28bb03)" style="fill: #ffe2e2"/>
    <path d="M 805.692758 34.92 
L 805.692758 7.2 
L 807.642098 7.2 
L 807.642098 34.92 
L 805.692758 34.92 
z
" clip-path="url(#p9d1c28bb03)" style="fill: #ff5858"/>
    <path d="M 807.642098 34.92 
L 807.642098 7.2 
L 809.591438 7.2 
L 809.591438 34.92 
L 807.642098 34.92 
z
" clip-path="url(#p9d1c28bb03)" style="fill: #ff4a4a"/>
    <path d="M 809.591438 34.92 
L 809.591438 7.2 
L 811.540778 7.2 
L 811.540778 34.92 
L 809.591438 34.92 
z
" clip-path="url(#p9d1c28bb03)" style="fill: #ff4e4e"/>
    <path d="M 811.540778 34.92 
L 811.540778 7.2 
L 813.490118 7.2 
L 813.490118 34.92 
L 811.540778 34.92 
z
" clip-path="url(#p9d1c28bb03)" style="fill: #ffb8b8"/>
    <path d="M 813.490118 34.92 
L 813.490118 7.2 
L 815.439458 7.2 
L 815.439458 34.92 
L 813.490118 34.92 
z
" clip-path="url(#p9d1c28bb03)" style="fill: #ffbebe"/>
    <path d="M 815.439458 34.92 
L 815.439458 7.2 
L 817.388798 7.2 
L 817.388798 34.92 
L 815.439458 34.92 
z
" clip-path="url(#p9d1c28bb03)" style="fill: #ffb6b6"/>
    <path d="M 817.388798 34.92 
L 817.388798 7.2 
L 819.338138 7.2 
L 819.338138 34.92 
L 817.388798 34.92 
z
" clip-path="url(#p9d1c28bb03)" style="fill: #6c6cff"/>
    <path d="M 819.338138 34.92 
L 819.338138 7.2 
L 821.287478 7.2 
L 821.287478 34.92 
L 819.338138 34.92 
z
" clip-path="url(#p9d1c28bb03)" style="fill: #7c7cff"/>
    <path d="M 821.287478 34.92 
L 821.287478 7.2 
L 823.236818 7.2 
L 823.236818 34.92 
L 821.287478 34.92 
z
" clip-path="url(#p9d1c28bb03)" style="fill: #7272ff"/>
    <path d="M 823.236818 34.92 
L 823.236818 7.2 
L 825.186158 7.2 
L 825.186158 34.92 
L 823.236818 34.92 
z
" clip-path="url(#p9d1c28bb03)" style="fill: #5656ff"/>
    <path d="M 825.186158 34.92 
L 825.186158 7.2 
L 827.135498 7.2 
L 827.135498 34.92 
L 825.186158 34.92 
z
" clip-path="url(#p9d1c28bb03)" style="fill: #a2a2ff"/>
    <path d="M 827.135498 34.92 
L 827.135498 7.2 
L 829.084838 7.2 
L 829.084838 34.92 
L 827.135498 34.92 
z
" clip-path="url(#p9d1c28bb03)" style="fill: #ffe2e2"/>
    <path d="M 829.084838 34.92 
L 829.084838 7.2 
L 831.034178 7.2 
L 831.034178 34.92 
L 829.084838 34.92 
z
" clip-path="url(#p9d1c28bb03)" style="fill: #ffdada"/>
    <path d="M 831.034178 34.92 
L 831.034178 7.2 
L 832.983518 7.2 
L 832.983518 34.92 
L 831.034178 34.92 
z
" clip-path="url(#p9d1c28bb03)" style="fill: #ffe8e8"/>
    <path d="M 832.983518 34.92 
L 832.983518 7.2 
L 834.932858 7.2 
L 834.932858 34.92 
L 832.983518 34.92 
z
" clip-path="url(#p9d1c28bb03)" style="fill: #d2d2ff"/>
    <path d="M 834.932858 34.92 
L 834.932858 7.2 
L 836.882198 7.2 
L 836.882198 34.92 
L 834.932858 34.92 
z
" clip-path="url(#p9d1c28bb03)" style="fill: #dcdcff"/>
    <path d="M 836.882198 34.92 
L 836.882198 7.2 
L 838.831538 7.2 
L 838.831538 34.92 
L 836.882198 34.92 
z
" clip-path="url(#p9d1c28bb03)" style="fill: #eaeaff"/>
    <path d="M 838.831538 34.92 
L 838.831538 7.2 
L 840.780878 7.2 
L 840.780878 34.92 
L 838.831538 34.92 
z
" clip-path="url(#p9d1c28bb03)" style="fill: #ff6262"/>
    <path d="M 840.780878 34.92 
L 840.780878 7.2 
L 842.730218 7.2 
L 842.730218 34.92 
L 840.780878 34.92 
z
" clip-path="url(#p9d1c28bb03)" style="fill: #ff7474"/>
    <path d="M 842.730218 34.92 
L 842.730218 7.2 
L 844.679558 7.2 
L 844.679558 34.92 
L 842.730218 34.92 
z
" clip-path="url(#p9d1c28bb03)" style="fill: #ffc2c2"/>
    <path d="M 844.679558 34.92 
L 844.679558 7.2 
L 846.628897 7.2 
L 846.628897 34.92 
L 844.679558 34.92 
z
" clip-path="url(#p9d1c28bb03)" style="fill: #ffcccc"/>
    <path d="M 846.628897 34.92 
L 846.628897 7.2 
L 848.578237 7.2 
L 848.578237 34.92 
L 846.628897 34.92 
z
" clip-path="url(#p9d1c28bb03)" style="fill: #ff9696"/>
    <path d="M 848.578237 34.92 
L 848.578237 7.2 
L 850.527577 7.2 
L 850.527577 34.92 
L 848.578237 34.92 
z
" clip-path="url(#p9d1c28bb03)" style="fill: #ffb0b0"/>
    <path d="M 850.527577 34.92 
L 850.527577 7.2 
L 852.476917 7.2 
L 852.476917 34.92 
L 850.527577 34.92 
z
" clip-path="url(#p9d1c28bb03)" style="fill: #ffe6e6"/>
    <path d="M 852.476917 34.92 
L 852.476917 7.2 
L 854.426257 7.2 
L 854.426257 34.92 
L 852.476917 34.92 
z
" clip-path="url(#p9d1c28bb03)" style="fill: #ff8e8e"/>
    <path d="M 854.426257 34.92 
L 854.426257 7.2 
L 856.375597 7.2 
L 856.375597 34.92 
L 854.426257 34.92 
z
" clip-path="url(#p9d1c28bb03)" style="fill: #ffe8e8"/>
    <path d="M 856.375597 34.92 
L 856.375597 7.2 
L 858.324937 7.2 
L 858.324937 34.92 
L 856.375597 34.92 
z
" clip-path="url(#p9d1c28bb03)" style="fill: #ffb8b8"/>
    <path d="M 858.324937 34.92 
L 858.324937 7.2 
L 860.274277 7.2 
L 860.274277 34.92 
L 858.324937 34.92 
z
" clip-path="url(#p9d1c28bb03)" style="fill: #ffb6b6"/>
    <path d="M 860.274277 34.92 
L 860.274277 7.2 
L 862.223617 7.2 
L 862.223617 34.92 
L 860.274277 34.92 
z
" clip-path="url(#p9d1c28bb03)" style="fill: #ffaeae"/>
    <path d="M 862.223617 34.92 
L 862.223617 7.2 
L 864.172957 7.2 
L 864.172957 34.92 
L 862.223617 34.92 
z
" clip-path="url(#p9d1c28bb03)" style="fill: #ffeaea"/>
    <path d="M 864.172957 34.92 
L 864.172957 7.2 
L 866.122297 7.2 
L 866.122297 34.92 
L 864.172957 34.92 
z
" clip-path="url(#p9d1c28bb03)" style="fill: #ffb2b2"/>
    <path d="M 866.122297 34.92 
L 866.122297 7.2 
L 868.071637 7.2 
L 868.071637 34.92 
L 866.122297 34.92 
z
" clip-path="url(#p9d1c28bb03)" style="fill: #ff8c8c"/>
    <path d="M 868.071637 34.92 
L 868.071637 7.2 
L 870.020977 7.2 
L 870.020977 34.92 
L 868.071637 34.92 
z
" clip-path="url(#p9d1c28bb03)" style="fill: #ffa0a0"/>
    <path d="M 870.020977 34.92 
L 870.020977 7.2 
L 871.970317 7.2 
L 871.970317 34.92 
L 870.020977 34.92 
z
" clip-path="url(#p9d1c28bb03)" style="fill: #ff9696"/>
    <path d="M 871.970317 34.92 
L 871.970317 7.2 
L 873.919657 7.2 
L 873.919657 34.92 
L 871.970317 34.92 
z
" clip-path="url(#p9d1c28bb03)" style="fill: #ff9c9c"/>
    <path d="M 873.919657 34.92 
L 873.919657 7.2 
L 875.868997 7.2 
L 875.868997 34.92 
L 873.919657 34.92 
z
" clip-path="url(#p9d1c28bb03)" style="fill: #ff9e9e"/>
    <path d="M 875.868997 34.92 
L 875.868997 7.2 
L 877.818337 7.2 
L 877.818337 34.92 
L 875.868997 34.92 
z
" clip-path="url(#p9d1c28bb03)" style="fill: #ffd2d2"/>
    <path d="M 877.818337 34.92 
L 877.818337 7.2 
L 879.767677 7.2 
L 879.767677 34.92 
L 877.818337 34.92 
z
" clip-path="url(#p9d1c28bb03)" style="fill: #ffa2a2"/>
    <path d="M 879.767677 34.92 
L 879.767677 7.2 
L 881.717017 7.2 
L 881.717017 34.92 
L 879.767677 34.92 
z
" clip-path="url(#p9d1c28bb03)" style="fill: #ffa4a4"/>
    <path d="M 881.717017 34.92 
L 881.717017 7.2 
L 883.666357 7.2 
L 883.666357 34.92 
L 881.717017 34.92 
z
" clip-path="url(#p9d1c28bb03)" style="fill: #ffdede"/>
    <path d="M 883.666357 34.92 
L 883.666357 7.2 
L 885.615697 7.2 
L 885.615697 34.92 
L 883.666357 34.92 
z
" clip-path="url(#p9d1c28bb03)" style="fill: #ffb6b6"/>
    <path d="M 885.615697 34.92 
L 885.615697 7.2 
L 887.565037 7.2 
L 887.565037 34.92 
L 885.615697 34.92 
z
" clip-path="url(#p9d1c28bb03)" style="fill: #ffa0a0"/>
    <path d="M 887.565037 34.92 
L 887.565037 7.2 
L 889.514377 7.2 
L 889.514377 34.92 
L 887.565037 34.92 
z
" clip-path="url(#p9d1c28bb03)" style="fill: #ffd4d4"/>
    <path d="M 889.514377 34.92 
L 889.514377 7.2 
L 891.463716 7.2 
L 891.463716 34.92 
L 889.514377 34.92 
z
" clip-path="url(#p9d1c28bb03)" style="fill: #f0f0ff"/>
    <path d="M 891.463716 34.92 
L 891.463716 7.2 
L 893.413056 7.2 
L 893.413056 34.92 
L 891.463716 34.92 
z
" clip-path="url(#p9d1c28bb03)" style="fill: #e8e8ff"/>
    <path d="M 893.413056 34.92 
L 893.413056 7.2 
L 895.362396 7.2 
L 895.362396 34.92 
L 893.413056 34.92 
z
" clip-path="url(#p9d1c28bb03)" style="fill: #ceceff"/>
    <path d="M 895.362396 34.92 
L 895.362396 7.2 
L 897.311736 7.2 
L 897.311736 34.92 
L 895.362396 34.92 
z
" clip-path="url(#p9d1c28bb03)" style="fill: #bebeff"/>
    <path d="M 897.311736 34.92 
L 897.311736 7.2 
L 899.261076 7.2 
L 899.261076 34.92 
L 897.311736 34.92 
z
" clip-path="url(#p9d1c28bb03)" style="fill: #c2c2ff"/>
    <path d="M 899.261076 34.92 
L 899.261076 7.2 
L 901.210416 7.2 
L 901.210416 34.92 
L 899.261076 34.92 
z
" clip-path="url(#p9d1c28bb03)" style="fill: #eaeaff"/>
    <path d="M 901.210416 34.92 
L 901.210416 7.2 
L 903.159756 7.2 
L 903.159756 34.92 
L 901.210416 34.92 
z
" clip-path="url(#p9d1c28bb03)" style="fill: #e8e8ff"/>
    <path d="M 903.159756 34.92 
L 903.159756 7.2 
L 905.109096 7.2 
L 905.109096 34.92 
L 903.159756 34.92 
z
" clip-path="url(#p9d1c28bb03)" style="fill: #ffb2b2"/>
    <path d="M 905.109096 34.92 
L 905.109096 7.2 
L 907.058436 7.2 
L 907.058436 34.92 
L 905.109096 34.92 
z
" clip-path="url(#p9d1c28bb03)" style="fill: #ffaaaa"/>
    <path d="M 907.058436 34.92 
L 907.058436 7.2 
L 909.007776 7.2 
L 909.007776 34.92 
L 907.058436 34.92 
z
" clip-path="url(#p9d1c28bb03)" style="fill: #ffdada"/>
    <path d="M 909.007776 34.92 
L 909.007776 7.2 
L 910.957116 7.2 
L 910.957116 34.92 
L 909.007776 34.92 
z
" clip-path="url(#p9d1c28bb03)" style="fill: #ffd8d8"/>
    <path d="M 910.957116 34.92 
L 910.957116 7.2 
L 912.906456 7.2 
L 912.906456 34.92 
L 910.957116 34.92 
z
" clip-path="url(#p9d1c28bb03)" style="fill: #ffdada"/>
    <path d="M 912.906456 34.92 
L 912.906456 7.2 
L 914.855796 7.2 
L 914.855796 34.92 
L 912.906456 34.92 
z
" clip-path="url(#p9d1c28bb03)" style="fill: #ffc8c8"/>
    <path d="M 914.855796 34.92 
L 914.855796 7.2 
L 916.805136 7.2 
L 916.805136 34.92 
L 914.855796 34.92 
z
" clip-path="url(#p9d1c28bb03)" style="fill: #ffd0d0"/>
    <path d="M 916.805136 34.92 
L 916.805136 7.2 
L 918.754476 7.2 
L 918.754476 34.92 
L 916.805136 34.92 
z
" clip-path="url(#p9d1c28bb03)" style="fill: #ffc0c0"/>
    <path d="M 918.754476 34.92 
L 918.754476 7.2 
L 920.703816 7.2 
L 920.703816 34.92 
L 918.754476 34.92 
z
" clip-path="url(#p9d1c28bb03)" style="fill: #ffcaca"/>
    <path d="M 920.703816 34.92 
L 920.703816 7.2 
L 922.653156 7.2 
L 922.653156 34.92 
L 920.703816 34.92 
z
" clip-path="url(#p9d1c28bb03)" style="fill: #ffa8a8"/>
    <path d="M 922.653156 34.92 
L 922.653156 7.2 
L 924.602496 7.2 
L 924.602496 34.92 
L 922.653156 34.92 
z
" clip-path="url(#p9d1c28bb03)" style="fill: #ffb2b2"/>
    <path d="M 924.602496 34.92 
L 924.602496 7.2 
L 926.551836 7.2 
L 926.551836 34.92 
L 924.602496 34.92 
z
" clip-path="url(#p9d1c28bb03)" style="fill: #ffb0b0"/>
    <path d="M 926.551836 34.92 
L 926.551836 7.2 
L 928.501176 7.2 
L 928.501176 34.92 
L 926.551836 34.92 
z
" clip-path="url(#p9d1c28bb03)" style="fill: #ffe4e4"/>
    <path d="M 928.501176 34.92 
L 928.501176 7.2 
L 930.450516 7.2 
L 930.450516 34.92 
L 928.501176 34.92 
z
" clip-path="url(#p9d1c28bb03)" style="fill: #ffe0e0"/>
    <path d="M 930.450516 34.92 
L 930.450516 7.2 
L 932.399856 7.2 
L 932.399856 34.92 
L 930.450516 34.92 
z
" clip-path="url(#p9d1c28bb03)" style="fill: #ffdede"/>
    <path d="M 932.399856 34.92 
L 932.399856 7.2 
L 934.349196 7.2 
L 934.349196 34.92 
L 932.399856 34.92 
z
" clip-path="url(#p9d1c28bb03)" style="fill: #ffdede"/>
    <path d="M 934.349196 34.92 
L 934.349196 7.2 
L 936.298535 7.2 
L 936.298535 34.92 
L 934.349196 34.92 
z
" clip-path="url(#p9d1c28bb03)" style="fill: #ffdada"/>
    <path d="M 936.298535 34.92 
L 936.298535 7.2 
L 938.247875 7.2 
L 938.247875 34.92 
L 936.298535 34.92 
z
" clip-path="url(#p9d1c28bb03)" style="fill: #ccccff"/>
    <path d="M 938.247875 34.92 
L 938.247875 7.2 
L 940.197215 7.2 
L 940.197215 34.92 
L 938.247875 34.92 
z
" clip-path="url(#p9d1c28bb03)" style="fill: #b2b2ff"/>
    <path d="M 940.197215 34.92 
L 940.197215 7.2 
L 942.146555 7.2 
L 942.146555 34.92 
L 940.197215 34.92 
z
" clip-path="url(#p9d1c28bb03)" style="fill: #b8b8ff"/>
    <path d="M 942.146555 34.92 
L 942.146555 7.2 
L 944.095895 7.2 
L 944.095895 34.92 
L 942.146555 34.92 
z
" clip-path="url(#p9d1c28bb03)" style="fill: #e6e6ff"/>
    <path d="M 944.095895 34.92 
L 944.095895 7.2 
L 946.045235 7.2 
L 946.045235 34.92 
L 944.095895 34.92 
z
" clip-path="url(#p9d1c28bb03)" style="fill: #e4e4ff"/>
    <path d="M 946.045235 34.92 
L 946.045235 7.2 
L 947.994575 7.2 
L 947.994575 34.92 
L 946.045235 34.92 
z
" clip-path="url(#p9d1c28bb03)" style="fill: #d8d8ff"/>
    <path d="M 947.994575 34.92 
L 947.994575 7.2 
L 949.943915 7.2 
L 949.943915 34.92 
L 947.994575 34.92 
z
" clip-path="url(#p9d1c28bb03)" style="fill: #d4d4ff"/>
    <path d="M 949.943915 34.92 
L 949.943915 7.2 
L 951.893255 7.2 
L 951.893255 34.92 
L 949.943915 34.92 
z
" clip-path="url(#p9d1c28bb03)" style="fill: #d4d4ff"/>
    <path d="M 951.893255 34.92 
L 951.893255 7.2 
L 953.842595 7.2 
L 953.842595 34.92 
L 951.893255 34.92 
z
" clip-path="url(#p9d1c28bb03)" style="fill: #ffbebe"/>
    <path d="M 953.842595 34.92 
L 953.842595 7.2 
L 955.791935 7.2 
L 955.791935 34.92 
L 953.842595 34.92 
z
" clip-path="url(#p9d1c28bb03)" style="fill: #ffcaca"/>
    <path d="M 955.791935 34.92 
L 955.791935 7.2 
L 957.741275 7.2 
L 957.741275 34.92 
L 955.791935 34.92 
z
" clip-path="url(#p9d1c28bb03)" style="fill: #ffe4e4"/>
    <path d="M 957.741275 34.92 
L 957.741275 7.2 
L 959.690615 7.2 
L 959.690615 34.92 
L 957.741275 34.92 
z
" clip-path="url(#p9d1c28bb03)" style="fill: #ffe6e6"/>
    <path d="M 959.690615 34.92 
L 959.690615 7.2 
L 961.639955 7.2 
L 961.639955 34.92 
L 959.690615 34.92 
z
" clip-path="url(#p9d1c28bb03)" style="fill: #ffe4e4"/>
    <path d="M 961.639955 34.92 
L 961.639955 7.2 
L 963.589295 7.2 
L 963.589295 34.92 
L 961.639955 34.92 
z
" clip-path="url(#p9d1c28bb03)" style="fill: #ff6a6a"/>
    <path d="M 963.589295 34.92 
L 963.589295 7.2 
L 965.538635 7.2 
L 965.538635 34.92 
L 963.589295 34.92 
z
" clip-path="url(#p9d1c28bb03)" style="fill: #ffcccc"/>
    <path d="M 965.538635 34.92 
L 965.538635 7.2 
L 967.487975 7.2 
L 967.487975 34.92 
L 965.538635 34.92 
z
" clip-path="url(#p9d1c28bb03)" style="fill: #ffacac"/>
    <path d="M 967.487975 34.92 
L 967.487975 7.2 
L 969.437315 7.2 
L 969.437315 34.92 
L 967.487975 34.92 
z
" clip-path="url(#p9d1c28bb03)" style="fill: #ffacac"/>
    <path d="M 969.437315 34.92 
L 969.437315 7.2 
L 971.386655 7.2 
L 971.386655 34.92 
L 969.437315 34.92 
z
" clip-path="url(#p9d1c28bb03)" style="fill: #ffa4a4"/>
    <path d="M 971.386655 34.92 
L 971.386655 7.2 
L 973.335995 7.2 
L 973.335995 34.92 
L 971.386655 34.92 
z
" clip-path="url(#p9d1c28bb03)" style="fill: #a4a4ff"/>
    <path d="M 973.335995 34.92 
L 973.335995 7.2 
L 975.285335 7.2 
L 975.285335 34.92 
L 973.335995 34.92 
z
" clip-path="url(#p9d1c28bb03)" style="fill: #aaaaff"/>
    <path d="M 975.285335 34.92 
L 975.285335 7.2 
L 977.234675 7.2 
L 977.234675 34.92 
L 975.285335 34.92 
z
" clip-path="url(#p9d1c28bb03)" style="fill: #a8a8ff"/>
    <path d="M 977.234675 34.92 
L 977.234675 7.2 
L 979.184015 7.2 
L 979.184015 34.92 
L 977.234675 34.92 
z
" clip-path="url(#p9d1c28bb03)" style="fill: #dadaff"/>
    <path d="M 979.184015 34.92 
L 979.184015 7.2 
L 981.133354 7.2 
L 981.133354 34.92 
L 979.184015 34.92 
z
" clip-path="url(#p9d1c28bb03)" style="fill: #dedeff"/>
    <path d="M 981.133354 34.92 
L 981.133354 7.2 
L 983.082694 7.2 
L 983.082694 34.92 
L 981.133354 34.92 
z
" clip-path="url(#p9d1c28bb03)" style="fill: #e0e0ff"/>
    <path d="M 983.082694 34.92 
L 983.082694 7.2 
L 985.032034 7.2 
L 985.032034 34.92 
L 983.082694 34.92 
z
" clip-path="url(#p9d1c28bb03)" style="fill: #ffa8a8"/>
    <path d="M 985.032034 34.92 
L 985.032034 7.2 
L 986.981374 7.2 
L 986.981374 34.92 
L 985.032034 34.92 
z
" clip-path="url(#p9d1c28bb03)" style="fill: #ff9a9a"/>
    <path d="M 986.981374 34.92 
L 986.981374 7.2 
L 988.930714 7.2 
L 988.930714 34.92 
L 986.981374 34.92 
z
" clip-path="url(#p9d1c28bb03)" style="fill: #ff9696"/>
    <path d="M 988.930714 34.92 
L 988.930714 7.2 
L 990.880054 7.2 
L 990.880054 34.92 
L 988.930714 34.92 
z
" clip-path="url(#p9d1c28bb03)" style="fill: #ffe2e2"/>
    <path d="M 990.880054 34.92 
L 990.880054 7.2 
L 992.829394 7.2 
L 992.829394 34.92 
L 990.880054 34.92 
z
" clip-path="url(#p9d1c28bb03)" style="fill: #ffe4e4"/>
    <path d="M 992.829394 34.92 
L 992.829394 7.2 
L 994.778734 7.2 
L 994.778734 34.92 
L 992.829394 34.92 
z
" clip-path="url(#p9d1c28bb03)" style="fill: #ffe4e4"/>
    <path d="M 994.778734 34.92 
L 994.778734 7.2 
L 996.728074 7.2 
L 996.728074 34.92 
L 994.778734 34.92 
z
" clip-path="url(#p9d1c28bb03)" style="fill: #ffd6d6"/>
    <path d="M 996.728074 34.92 
L 996.728074 7.2 
L 998.677414 7.2 
L 998.677414 34.92 
L 996.728074 34.92 
z
" clip-path="url(#p9d1c28bb03)" style="fill: #ffd4d4"/>
    <path d="M 998.677414 34.92 
L 998.677414 7.2 
L 1000.626754 7.2 
L 1000.626754 34.92 
L 998.677414 34.92 
z
" clip-path="url(#p9d1c28bb03)" style="fill: #ffd8d8"/>
    <path d="M 1000.626754 34.92 
L 1000.626754 7.2 
L 1002.576094 7.2 
L 1002.576094 34.92 
L 1000.626754 34.92 
z
" clip-path="url(#p9d1c28bb03)" style="fill: #ffdede"/>
    <path d="M 1002.576094 34.92 
L 1002.576094 7.2 
L 1004.525434 7.2 
L 1004.525434 34.92 
L 1002.576094 34.92 
z
" clip-path="url(#p9d1c28bb03)" style="fill: #ffe0e0"/>
    <path d="M 1004.525434 34.92 
L 1004.525434 7.2 
L 1006.474774 7.2 
L 1006.474774 34.92 
L 1004.525434 34.92 
z
" clip-path="url(#p9d1c28bb03)" style="fill: #ffdcdc"/>
    <path d="M 1006.474774 34.92 
L 1006.474774 7.2 
L 1008.424114 7.2 
L 1008.424114 34.92 
L 1006.474774 34.92 
z
" clip-path="url(#p9d1c28bb03)" style="fill: #ffc6c6"/>
    <path d="M 1008.424114 34.92 
L 1008.424114 7.2 
L 1010.373454 7.2 
L 1010.373454 34.92 
L 1008.424114 34.92 
z
" clip-path="url(#p9d1c28bb03)" style="fill: #ffb8b8"/>
    <path d="M 1010.373454 34.92 
L 1010.373454 7.2 
L 1012.322794 7.2 
L 1012.322794 34.92 
L 1010.373454 34.92 
z
" clip-path="url(#p9d1c28bb03)" style="fill: #ffb8b8"/>
    <path d="M 1012.322794 34.92 
L 1012.322794 7.2 
L 1014.272134 7.2 
L 1014.272134 34.92 
L 1012.322794 34.92 
z
" clip-path="url(#p9d1c28bb03)" style="fill: #ffdcdc"/>
    <path d="M 1014.272134 34.92 
L 1014.272134 7.2 
L 1016.221474 7.2 
L 1016.221474 34.92 
L 1014.272134 34.92 
z
" clip-path="url(#p9d1c28bb03)" style="fill: #ffe0e0"/>
    <path d="M 1016.221474 34.92 
L 1016.221474 7.2 
L 1018.170814 7.2 
L 1018.170814 34.92 
L 1016.221474 34.92 
z
" clip-path="url(#p9d1c28bb03)" style="fill: #ffdede"/>
    <path d="M 1018.170814 34.92 
L 1018.170814 7.2 
L 1020.120154 7.2 
L 1020.120154 34.92 
L 1018.170814 34.92 
z
" clip-path="url(#p9d1c28bb03)" style="fill: #ffbaba"/>
    <path d="M 1020.120154 34.92 
L 1020.120154 7.2 
L 1022.069494 7.2 
L 1022.069494 34.92 
L 1020.120154 34.92 
z
" clip-path="url(#p9d1c28bb03)" style="fill: #ffc2c2"/>
    <path d="M 1022.069494 34.92 
L 1022.069494 7.2 
L 1024.018834 7.2 
L 1024.018834 34.92 
L 1022.069494 34.92 
z
" clip-path="url(#p9d1c28bb03)" style="fill: #ffc2c2"/>
   </g>
   <g id="patch_3">
    <path d="M 55.196875 34.92 
L 55.196875 7.2 
" style="fill: none; stroke: #262626; stroke-width: 1.25; stroke-linejoin: miter; stroke-linecap: square"/>
   </g>
   <g id="patch_4">
    <path d="M 1024.018834 34.92 
L 1024.018834 7.2 
" style="fill: none; stroke: #262626; stroke-width: 1.25; stroke-linejoin: miter; stroke-linecap: square"/>
   </g>
   <g id="patch_5">
    <path d="M 55.196875 34.92 
L 1024.018834 34.92 
" style="fill: none; stroke: #262626; stroke-width: 1.25; stroke-linejoin: miter; stroke-linecap: square"/>
   </g>
   <g id="patch_6">
    <path d="M 55.196875 7.2 
L 1024.018834 7.2 
" style="fill: none; stroke: #262626; stroke-width: 1.25; stroke-linejoin: miter; stroke-linecap: square"/>
   </g>
   <g id="text_6">
    <text style="fill: #262626; font: 18px 'Arial', 'Liberation Sans', 'DejaVu Sans', 'Bitstream Vera Sans', sans-serif; text-anchor: middle" x="234.536151" y="65.412" transform="rotate(-0 234.536151 65.412)">Cells</text>
   </g>
   <g id="text_7">
    <text style="fill: #262626; font: 18px 'Arial', 'Liberation Sans', 'DejaVu Sans', 'Bitstream Vera Sans', sans-serif; text-anchor: middle" x="616.606783" y="65.412" transform="rotate(-0 616.606783 65.412)">Cytoplasm</text>
   </g>
   <g id="text_8">
    <text style="fill: #262626; font: 18px 'Arial', 'Liberation Sans', 'DejaVu Sans', 'Bitstream Vera Sans', sans-serif; text-anchor: middle" x="920.703816" y="65.412" transform="rotate(-0 920.703816 65.412)">Nuclei</text>
   </g>
  </g>
 </g>
 <defs>
  <clipPath id="p9d1c28bb03">
   <rect x="55.196875" y="7.2" width="968.821959" height="27.72"/>
  </clipPath>
 </defs>
</svg>
