<?xml version="1.0" encoding="utf-8" standalone="no"?>
<!DOCTYPE svg PUBLIC "-//W3C//DTD SVG 1.1//EN"
  "http://www.w3.org/Graphics/SVG/1.1/DTD/svg11.dtd">
<svg xmlns:xlink="http://www.w3.org/1999/xlink" width="1066.281866pt" height="75.266437pt" viewBox="0 0 1066.281866 75.266437" xmlns="http://www.w3.org/2000/svg" version="1.1">
 <metadata>
  <rdf:RDF xmlns:dc="http://purl.org/dc/elements/1.1/" xmlns:cc="http://creativecommons.org/ns#" xmlns:rdf="http://www.w3.org/1999/02/22-rdf-syntax-ns#">
   <cc:Work>
    <dc:type rdf:resource="http://purl.org/dc/dcmitype/StillImage"/>
    <dc:date>2022-05-11T11:53:55.215937</dc:date>
    <dc:format>image/svg+xml</dc:format>
    <dc:creator>
     <cc:Agent>
      <dc:title>Matplotlib v3.5.1, https://matplotlib.org/</dc:title>
     </cc:Agent>
    </dc:creator>
   </cc:Work>
  </rdf:RDF>
 </metadata>
 <defs>
  <style type="text/css">*{stroke-linejoin: round; stroke-linecap: butt}</style>
 </defs>
 <g id="figure_1">
  <g id="patch_1">
   <path d="M 0 75.266437 
L 1066.281866 75.266437 
L 1066.281866 0 
L 0 0 
z
" style="fill: #ffffff"/>
  </g>
  <g id="axes_1">
   <g id="patch_2">
    <path d="M 179.325 34.38 
L 1046.569756 34.38 
L 1046.569756 7.2 
L 179.325 7.2 
z
" style="fill: #ffffff"/>
   </g>
   <g id="matplotlib.axis_1">
    <g id="xtick_1">
     <g id="line2d_1"/>
     <g id="text_1">
      <!-- 1 -->
      <g style="fill: #262626" transform="translate(177.147963 54.216719)scale(0.15 -0.15)">
       <defs>
        <path id="ArialMT-31" d="M 2384 0 
L 1822 0 
L 1822 3584 
Q 1619 3391 1289 3197 
Q 959 3003 697 2906 
L 697 3450 
Q 1169 3672 1522 3987 
Q 1875 4303 2022 4600 
L 2384 4600 
L 2384 0 
z
" transform="scale(0.015625)"/>
       </defs>
       <use xlink:href="#ArialMT-31"/>
      </g>
     </g>
    </g>
    <g id="xtick_2">
     <g id="line2d_2"/>
     <g id="text_2">
      <!-- 172 -->
      <g style="fill: #262626" transform="translate(509.723461 54.216719)scale(0.15 -0.15)">
       <defs>
        <path id="ArialMT-37" d="M 303 3981 
L 303 4522 
L 3269 4522 
L 3269 4084 
Q 2831 3619 2401 2847 
Q 1972 2075 1738 1259 
Q 1569 684 1522 0 
L 944 0 
Q 953 541 1156 1306 
Q 1359 2072 1739 2783 
Q 2119 3494 2547 3981 
L 303 3981 
z
" transform="scale(0.015625)"/>
        <path id="ArialMT-32" d="M 3222 541 
L 3222 0 
L 194 0 
Q 188 203 259 391 
Q 375 700 629 1000 
Q 884 1300 1366 1694 
Q 2113 2306 2375 2664 
Q 2638 3022 2638 3341 
Q 2638 3675 2398 3904 
Q 2159 4134 1775 4134 
Q 1369 4134 1125 3890 
Q 881 3647 878 3216 
L 300 3275 
Q 359 3922 746 4261 
Q 1134 4600 1788 4600 
Q 2447 4600 2831 4234 
Q 3216 3869 3216 3328 
Q 3216 3053 3103 2787 
Q 2991 2522 2730 2228 
Q 2469 1934 1863 1422 
Q 1356 997 1212 845 
Q 1069 694 975 541 
L 3222 541 
z
" transform="scale(0.015625)"/>
       </defs>
       <use xlink:href="#ArialMT-31"/>
       <use xlink:href="#ArialMT-37" x="55.615234"/>
       <use xlink:href="#ArialMT-32" x="111.230469"/>
      </g>
     </g>
    </g>
    <g id="xtick_3">
     <g id="line2d_3"/>
     <g id="text_3">
      <!-- 327 -->
      <g style="fill: #262626" transform="translate(818.741708 54.216719)scale(0.15 -0.15)">
       <defs>
        <path id="ArialMT-33" d="M 269 1209 
L 831 1284 
Q 928 806 1161 595 
Q 1394 384 1728 384 
Q 2125 384 2398 659 
Q 2672 934 2672 1341 
Q 2672 1728 2419 1979 
Q 2166 2231 1775 2231 
Q 1616 2231 1378 2169 
L 1441 2663 
Q 1497 2656 1531 2656 
Q 1891 2656 2178 2843 
Q 2466 3031 2466 3422 
Q 2466 3731 2256 3934 
Q 2047 4138 1716 4138 
Q 1388 4138 1169 3931 
Q 950 3725 888 3313 
L 325 3413 
Q 428 3978 793 4289 
Q 1159 4600 1703 4600 
Q 2078 4600 2393 4439 
Q 2709 4278 2876 4000 
Q 3044 3722 3044 3409 
Q 3044 3113 2884 2869 
Q 2725 2625 2413 2481 
Q 2819 2388 3044 2092 
Q 3269 1797 3269 1353 
Q 3269 753 2831 336 
Q 2394 -81 1725 -81 
Q 1122 -81 723 278 
Q 325 638 269 1209 
z
" transform="scale(0.015625)"/>
       </defs>
       <use xlink:href="#ArialMT-33"/>
       <use xlink:href="#ArialMT-32" x="55.615234"/>
       <use xlink:href="#ArialMT-37" x="111.230469"/>
      </g>
     </g>
    </g>
    <g id="xtick_4">
     <g id="line2d_4"/>
     <g id="text_4">
      <!-- 435 -->
      <g style="fill: #262626" transform="translate(1034.057647 54.216719)scale(0.15 -0.15)">
       <defs>
        <path id="ArialMT-34" d="M 2069 0 
L 2069 1097 
L 81 1097 
L 81 1613 
L 2172 4581 
L 2631 4581 
L 2631 1613 
L 3250 1613 
L 3250 1097 
L 2631 1097 
L 2631 0 
L 2069 0 
z
M 2069 1613 
L 2069 3678 
L 634 1613 
L 2069 1613 
z
" transform="scale(0.015625)"/>
        <path id="ArialMT-35" d="M 266 1200 
L 856 1250 
Q 922 819 1161 601 
Q 1400 384 1738 384 
Q 2144 384 2425 690 
Q 2706 997 2706 1503 
Q 2706 1984 2436 2262 
Q 2166 2541 1728 2541 
Q 1456 2541 1237 2417 
Q 1019 2294 894 2097 
L 366 2166 
L 809 4519 
L 3088 4519 
L 3088 3981 
L 1259 3981 
L 1013 2750 
Q 1425 3038 1878 3038 
Q 2478 3038 2890 2622 
Q 3303 2206 3303 1553 
Q 3303 931 2941 478 
Q 2500 -78 1738 -78 
Q 1113 -78 717 272 
Q 322 622 266 1200 
z
" transform="scale(0.015625)"/>
       </defs>
       <use xlink:href="#ArialMT-34"/>
       <use xlink:href="#ArialMT-33" x="55.615234"/>
       <use xlink:href="#ArialMT-35" x="111.230469"/>
      </g>
     </g>
    </g>
   </g>
   <g id="matplotlib.axis_2">
    <g id="ytick_1">
     <g id="line2d_5"/>
     <g id="text_5">
      <!-- AKT_PI3K_MTOR -->
      <g style="fill: #262626" transform="translate(7.2 28.075937)scale(0.2 -0.2)">
       <defs>
        <path id="ArialMT-41" d="M -9 0 
L 1750 4581 
L 2403 4581 
L 4278 0 
L 3588 0 
L 3053 1388 
L 1138 1388 
L 634 0 
L -9 0 
z
M 1313 1881 
L 2866 1881 
L 2388 3150 
Q 2169 3728 2063 4100 
Q 1975 3659 1816 3225 
L 1313 1881 
z
" transform="scale(0.015625)"/>
        <path id="ArialMT-4b" d="M 469 0 
L 469 4581 
L 1075 4581 
L 1075 2309 
L 3350 4581 
L 4172 4581 
L 2250 2725 
L 4256 0 
L 3456 0 
L 1825 2319 
L 1075 1588 
L 1075 0 
L 469 0 
z
" transform="scale(0.015625)"/>
        <path id="ArialMT-54" d="M 1659 0 
L 1659 4041 
L 150 4041 
L 150 4581 
L 3781 4581 
L 3781 4041 
L 2266 4041 
L 2266 0 
L 1659 0 
z
" transform="scale(0.015625)"/>
        <path id="ArialMT-5f" d="M -97 -1272 
L -97 -866 
L 3631 -866 
L 3631 -1272 
L -97 -1272 
z
" transform="scale(0.015625)"/>
        <path id="ArialMT-50" d="M 494 0 
L 494 4581 
L 2222 4581 
Q 2678 4581 2919 4538 
Q 3256 4481 3484 4323 
Q 3713 4166 3852 3881 
Q 3991 3597 3991 3256 
Q 3991 2672 3619 2267 
Q 3247 1863 2275 1863 
L 1100 1863 
L 1100 0 
L 494 0 
z
M 1100 2403 
L 2284 2403 
Q 2872 2403 3119 2622 
Q 3366 2841 3366 3238 
Q 3366 3525 3220 3729 
Q 3075 3934 2838 4000 
Q 2684 4041 2272 4041 
L 1100 4041 
L 1100 2403 
z
" transform="scale(0.015625)"/>
        <path id="ArialMT-49" d="M 597 0 
L 597 4581 
L 1203 4581 
L 1203 0 
L 597 0 
z
" transform="scale(0.015625)"/>
        <path id="ArialMT-4d" d="M 475 0 
L 475 4581 
L 1388 4581 
L 2472 1338 
Q 2622 884 2691 659 
Q 2769 909 2934 1394 
L 4031 4581 
L 4847 4581 
L 4847 0 
L 4263 0 
L 4263 3834 
L 2931 0 
L 2384 0 
L 1059 3900 
L 1059 0 
L 475 0 
z
" transform="scale(0.015625)"/>
        <path id="ArialMT-4f" d="M 309 2231 
Q 309 3372 921 4017 
Q 1534 4663 2503 4663 
Q 3138 4663 3647 4359 
Q 4156 4056 4423 3514 
Q 4691 2972 4691 2284 
Q 4691 1588 4409 1038 
Q 4128 488 3612 205 
Q 3097 -78 2500 -78 
Q 1853 -78 1343 234 
Q 834 547 571 1087 
Q 309 1628 309 2231 
z
M 934 2222 
Q 934 1394 1379 917 
Q 1825 441 2497 441 
Q 3181 441 3623 922 
Q 4066 1403 4066 2288 
Q 4066 2847 3877 3264 
Q 3688 3681 3323 3911 
Q 2959 4141 2506 4141 
Q 1863 4141 1398 3698 
Q 934 3256 934 2222 
z
" transform="scale(0.015625)"/>
        <path id="ArialMT-52" d="M 503 0 
L 503 4581 
L 2534 4581 
Q 3147 4581 3465 4457 
Q 3784 4334 3975 4021 
Q 4166 3709 4166 3331 
Q 4166 2844 3850 2509 
Q 3534 2175 2875 2084 
Q 3116 1969 3241 1856 
Q 3506 1613 3744 1247 
L 4541 0 
L 3778 0 
L 3172 953 
Q 2906 1366 2734 1584 
Q 2563 1803 2427 1890 
Q 2291 1978 2150 2013 
Q 2047 2034 1813 2034 
L 1109 2034 
L 1109 0 
L 503 0 
z
M 1109 2559 
L 2413 2559 
Q 2828 2559 3062 2645 
Q 3297 2731 3419 2920 
Q 3541 3109 3541 3331 
Q 3541 3656 3305 3865 
Q 3069 4075 2559 4075 
L 1109 4075 
L 1109 2559 
z
" transform="scale(0.015625)"/>
       </defs>
       <use xlink:href="#ArialMT-41"/>
       <use xlink:href="#ArialMT-4b" x="66.699219"/>
       <use xlink:href="#ArialMT-54" x="133.398438"/>
       <use xlink:href="#ArialMT-5f" x="194.482422"/>
       <use xlink:href="#ArialMT-50" x="250.097656"/>
       <use xlink:href="#ArialMT-49" x="316.796875"/>
       <use xlink:href="#ArialMT-33" x="344.580078"/>
       <use xlink:href="#ArialMT-4b" x="400.195312"/>
       <use xlink:href="#ArialMT-5f" x="466.894531"/>
       <use xlink:href="#ArialMT-4d" x="522.509766"/>
       <use xlink:href="#ArialMT-54" x="605.810547"/>
       <use xlink:href="#ArialMT-4f" x="665.144531"/>
       <use xlink:href="#ArialMT-52" x="742.927734"/>
      </g>
     </g>
    </g>
   </g>
   <g id="PolyCollection_1">
    <path d="M 179.325 34.38 
L 179.325 7.2 
L 181.318666 7.2 
L 181.318666 34.38 
L 179.325 34.38 
z
" clip-path="url(#p66faf4fb01)" style="fill: #c8c8ff"/>
    <path d="M 181.318666 34.38 
L 181.318666 7.2 
L 183.312332 7.2 
L 183.312332 34.38 
L 181.318666 34.38 
z
" clip-path="url(#p66faf4fb01)" style="fill: #5e5eff"/>
    <path d="M 183.312332 34.38 
L 183.312332 7.2 
L 185.305998 7.2 
L 185.305998 34.38 
L 183.312332 34.38 
z
" clip-path="url(#p66faf4fb01)" style="fill: #6666ff"/>
    <path d="M 185.305998 34.38 
L 185.305998 7.2 
L 187.299664 7.2 
L 187.299664 34.38 
L 185.305998 34.38 
z
" clip-path="url(#p66faf4fb01)" style="fill: #c0c0ff"/>
    <path d="M 187.299664 34.38 
L 187.299664 7.2 
L 189.293331 7.2 
L 189.293331 34.38 
L 187.299664 34.38 
z
" clip-path="url(#p66faf4fb01)" style="fill: #8c8cff"/>
    <path d="M 189.293331 34.38 
L 189.293331 7.2 
L 191.286997 7.2 
L 191.286997 34.38 
L 189.293331 34.38 
z
" clip-path="url(#p66faf4fb01)" style="fill: #e4e4ff"/>
    <path d="M 191.286997 34.38 
L 191.286997 7.2 
L 193.280663 7.2 
L 193.280663 34.38 
L 191.286997 34.38 
z
" clip-path="url(#p66faf4fb01)" style="fill: #9e9eff"/>
    <path d="M 193.280663 34.38 
L 193.280663 7.2 
L 195.274329 7.2 
L 195.274329 34.38 
L 193.280663 34.38 
z
" clip-path="url(#p66faf4fb01)" style="fill: #eeeeff"/>
    <path d="M 195.274329 34.38 
L 195.274329 7.2 
L 197.267995 7.2 
L 197.267995 34.38 
L 195.274329 34.38 
z
" clip-path="url(#p66faf4fb01)" style="fill: #ccccff"/>
    <path d="M 197.267995 34.38 
L 197.267995 7.2 
L 199.261661 7.2 
L 199.261661 34.38 
L 197.267995 34.38 
z
" clip-path="url(#p66faf4fb01)" style="fill: #c8c8ff"/>
    <path d="M 199.261661 34.38 
L 199.261661 7.2 
L 201.255327 7.2 
L 201.255327 34.38 
L 199.261661 34.38 
z
" clip-path="url(#p66faf4fb01)" style="fill: #ffeaea"/>
    <path d="M 201.255327 34.38 
L 201.255327 7.2 
L 203.248993 7.2 
L 203.248993 34.38 
L 201.255327 34.38 
z
" clip-path="url(#p66faf4fb01)" style="fill: #dedeff"/>
    <path d="M 203.248993 34.38 
L 203.248993 7.2 
L 205.242659 7.2 
L 205.242659 34.38 
L 203.248993 34.38 
z
" clip-path="url(#p66faf4fb01)" style="fill: #e6e6ff"/>
    <path d="M 205.242659 34.38 
L 205.242659 7.2 
L 207.236325 7.2 
L 207.236325 34.38 
L 205.242659 34.38 
z
" clip-path="url(#p66faf4fb01)" style="fill: #f0f0ff"/>
    <path d="M 207.236325 34.38 
L 207.236325 7.2 
L 209.229992 7.2 
L 209.229992 34.38 
L 207.236325 34.38 
z
" clip-path="url(#p66faf4fb01)" style="fill: #ffdede"/>
    <path d="M 209.229992 34.38 
L 209.229992 7.2 
L 211.223658 7.2 
L 211.223658 34.38 
L 209.229992 34.38 
z
" clip-path="url(#p66faf4fb01)" style="fill: #f0f0ff"/>
    <path d="M 211.223658 34.38 
L 211.223658 7.2 
L 213.217324 7.2 
L 213.217324 34.38 
L 211.223658 34.38 
z
" clip-path="url(#p66faf4fb01)" style="fill: #ffeeee"/>
    <path d="M 213.217324 34.38 
L 213.217324 7.2 
L 215.21099 7.2 
L 215.21099 34.38 
L 213.217324 34.38 
z
" clip-path="url(#p66faf4fb01)" style="fill: #ff8a8a"/>
    <path d="M 215.21099 34.38 
L 215.21099 7.2 
L 217.204656 7.2 
L 217.204656 34.38 
L 215.21099 34.38 
z
" clip-path="url(#p66faf4fb01)" style="fill: #ffeeee"/>
    <path d="M 217.204656 34.38 
L 217.204656 7.2 
L 219.198322 7.2 
L 219.198322 34.38 
L 217.204656 34.38 
z
" clip-path="url(#p66faf4fb01)" style="fill: #ffb6b6"/>
    <path d="M 219.198322 34.38 
L 219.198322 7.2 
L 221.191988 7.2 
L 221.191988 34.38 
L 219.198322 34.38 
z
" clip-path="url(#p66faf4fb01)" style="fill: #ff5c5c"/>
    <path d="M 221.191988 34.38 
L 221.191988 7.2 
L 223.185654 7.2 
L 223.185654 34.38 
L 221.191988 34.38 
z
" clip-path="url(#p66faf4fb01)" style="fill: #ff8080"/>
    <path d="M 223.185654 34.38 
L 223.185654 7.2 
L 225.17932 7.2 
L 225.17932 34.38 
L 223.185654 34.38 
z
" clip-path="url(#p66faf4fb01)" style="fill: #c4c4ff"/>
    <path d="M 225.17932 34.38 
L 225.17932 7.2 
L 227.172987 7.2 
L 227.172987 34.38 
L 225.17932 34.38 
z
" clip-path="url(#p66faf4fb01)" style="fill: #a2a2ff"/>
    <path d="M 227.172987 34.38 
L 227.172987 7.2 
L 229.166653 7.2 
L 229.166653 34.38 
L 227.172987 34.38 
z
" clip-path="url(#p66faf4fb01)" style="fill: #d0d0ff"/>
    <path d="M 229.166653 34.38 
L 229.166653 7.2 
L 231.160319 7.2 
L 231.160319 34.38 
L 229.166653 34.38 
z
" clip-path="url(#p66faf4fb01)" style="fill: #ffe8e8"/>
    <path d="M 231.160319 34.38 
L 231.160319 7.2 
L 233.153985 7.2 
L 233.153985 34.38 
L 231.160319 34.38 
z
" clip-path="url(#p66faf4fb01)" style="fill: #ffcccc"/>
    <path d="M 233.153985 34.38 
L 233.153985 7.2 
L 235.147651 7.2 
L 235.147651 34.38 
L 233.153985 34.38 
z
" clip-path="url(#p66faf4fb01)" style="fill: #e4e4ff"/>
    <path d="M 235.147651 34.38 
L 235.147651 7.2 
L 237.141317 7.2 
L 237.141317 34.38 
L 235.147651 34.38 
z
" clip-path="url(#p66faf4fb01)" style="fill: #ffcaca"/>
    <path d="M 237.141317 34.38 
L 237.141317 7.2 
L 239.134983 7.2 
L 239.134983 34.38 
L 237.141317 34.38 
z
" clip-path="url(#p66faf4fb01)" style="fill: #e8e8ff"/>
    <path d="M 239.134983 34.38 
L 239.134983 7.2 
L 241.128649 7.2 
L 241.128649 34.38 
L 239.134983 34.38 
z
" clip-path="url(#p66faf4fb01)" style="fill: #ffbcbc"/>
    <path d="M 241.128649 34.38 
L 241.128649 7.2 
L 243.122315 7.2 
L 243.122315 34.38 
L 241.128649 34.38 
z
" clip-path="url(#p66faf4fb01)" style="fill: #ff9090"/>
    <path d="M 243.122315 34.38 
L 243.122315 7.2 
L 245.115982 7.2 
L 245.115982 34.38 
L 243.122315 34.38 
z
" clip-path="url(#p66faf4fb01)" style="fill: #ffa0a0"/>
    <path d="M 245.115982 34.38 
L 245.115982 7.2 
L 247.109648 7.2 
L 247.109648 34.38 
L 245.115982 34.38 
z
" clip-path="url(#p66faf4fb01)" style="fill: #ffe6e6"/>
    <path d="M 247.109648 34.38 
L 247.109648 7.2 
L 249.103314 7.2 
L 249.103314 34.38 
L 247.109648 34.38 
z
" clip-path="url(#p66faf4fb01)" style="fill: #ffaeae"/>
    <path d="M 249.103314 34.38 
L 249.103314 7.2 
L 251.09698 7.2 
L 251.09698 34.38 
L 249.103314 34.38 
z
" clip-path="url(#p66faf4fb01)" style="fill: #ffe4e4"/>
    <path d="M 251.09698 34.38 
L 251.09698 7.2 
L 253.090646 7.2 
L 253.090646 34.38 
L 251.09698 34.38 
z
" clip-path="url(#p66faf4fb01)" style="fill: #9494ff"/>
    <path d="M 253.090646 34.38 
L 253.090646 7.2 
L 255.084312 7.2 
L 255.084312 34.38 
L 253.090646 34.38 
z
" clip-path="url(#p66faf4fb01)" style="fill: #ceceff"/>
    <path d="M 255.084312 34.38 
L 255.084312 7.2 
L 257.077978 7.2 
L 257.077978 34.38 
L 255.084312 34.38 
z
" clip-path="url(#p66faf4fb01)" style="fill: #b2b2ff"/>
    <path d="M 257.077978 34.38 
L 257.077978 7.2 
L 259.071644 7.2 
L 259.071644 34.38 
L 257.077978 34.38 
z
" clip-path="url(#p66faf4fb01)" style="fill: #e4e4ff"/>
    <path d="M 259.071644 34.38 
L 259.071644 7.2 
L 261.06531 7.2 
L 261.06531 34.38 
L 259.071644 34.38 
z
" clip-path="url(#p66faf4fb01)" style="fill: #d8d8ff"/>
    <path d="M 261.06531 34.38 
L 261.06531 7.2 
L 263.058976 7.2 
L 263.058976 34.38 
L 261.06531 34.38 
z
" clip-path="url(#p66faf4fb01)" style="fill: #a6a6ff"/>
    <path d="M 263.058976 34.38 
L 263.058976 7.2 
L 265.052643 7.2 
L 265.052643 34.38 
L 263.058976 34.38 
z
" clip-path="url(#p66faf4fb01)" style="fill: #eeeeff"/>
    <path d="M 265.052643 34.38 
L 265.052643 7.2 
L 267.046309 7.2 
L 267.046309 34.38 
L 265.052643 34.38 
z
" clip-path="url(#p66faf4fb01)" style="fill: #b2b2ff"/>
    <path d="M 267.046309 34.38 
L 267.046309 7.2 
L 269.039975 7.2 
L 269.039975 34.38 
L 267.046309 34.38 
z
" clip-path="url(#p66faf4fb01)" style="fill: #f4f4ff"/>
    <path d="M 269.039975 34.38 
L 269.039975 7.2 
L 271.033641 7.2 
L 271.033641 34.38 
L 269.039975 34.38 
z
" clip-path="url(#p66faf4fb01)" style="fill: #fffefe"/>
    <path d="M 271.033641 34.38 
L 271.033641 7.2 
L 273.027307 7.2 
L 273.027307 34.38 
L 271.033641 34.38 
z
" clip-path="url(#p66faf4fb01)" style="fill: #ffe8e8"/>
    <path d="M 273.027307 34.38 
L 273.027307 7.2 
L 275.020973 7.2 
L 275.020973 34.38 
L 273.027307 34.38 
z
" clip-path="url(#p66faf4fb01)" style="fill: #f4f4ff"/>
    <path d="M 275.020973 34.38 
L 275.020973 7.2 
L 277.014639 7.2 
L 277.014639 34.38 
L 275.020973 34.38 
z
" clip-path="url(#p66faf4fb01)" style="fill: #e0e0ff"/>
    <path d="M 277.014639 34.38 
L 277.014639 7.2 
L 279.008305 7.2 
L 279.008305 34.38 
L 277.014639 34.38 
z
" clip-path="url(#p66faf4fb01)" style="fill: #5252ff"/>
    <path d="M 279.008305 34.38 
L 279.008305 7.2 
L 281.001971 7.2 
L 281.001971 34.38 
L 279.008305 34.38 
z
" clip-path="url(#p66faf4fb01)" style="fill: #dadaff"/>
    <path d="M 281.001971 34.38 
L 281.001971 7.2 
L 282.995638 7.2 
L 282.995638 34.38 
L 281.001971 34.38 
z
" clip-path="url(#p66faf4fb01)" style="fill: #8080ff"/>
    <path d="M 282.995638 34.38 
L 282.995638 7.2 
L 284.989304 7.2 
L 284.989304 34.38 
L 282.995638 34.38 
z
" clip-path="url(#p66faf4fb01)" style="fill: #9a9aff"/>
    <path d="M 284.989304 34.38 
L 284.989304 7.2 
L 286.98297 7.2 
L 286.98297 34.38 
L 284.989304 34.38 
z
" clip-path="url(#p66faf4fb01)" style="fill: #f0f0ff"/>
    <path d="M 286.98297 34.38 
L 286.98297 7.2 
L 288.976636 7.2 
L 288.976636 34.38 
L 286.98297 34.38 
z
" clip-path="url(#p66faf4fb01)" style="fill: #d0d0ff"/>
    <path d="M 288.976636 34.38 
L 288.976636 7.2 
L 290.970302 7.2 
L 290.970302 34.38 
L 288.976636 34.38 
z
" clip-path="url(#p66faf4fb01)" style="fill: #e0e0ff"/>
    <path d="M 290.970302 34.38 
L 290.970302 7.2 
L 292.963968 7.2 
L 292.963968 34.38 
L 290.970302 34.38 
z
" clip-path="url(#p66faf4fb01)" style="fill: #e4e4ff"/>
    <path d="M 292.963968 34.38 
L 292.963968 7.2 
L 294.957634 7.2 
L 294.957634 34.38 
L 292.963968 34.38 
z
" clip-path="url(#p66faf4fb01)" style="fill: #dcdcff"/>
    <path d="M 294.957634 34.38 
L 294.957634 7.2 
L 296.9513 7.2 
L 296.9513 34.38 
L 294.957634 34.38 
z
" clip-path="url(#p66faf4fb01)" style="fill: #dcdcff"/>
    <path d="M 296.9513 34.38 
L 296.9513 7.2 
L 298.944966 7.2 
L 298.944966 34.38 
L 296.9513 34.38 
z
" clip-path="url(#p66faf4fb01)" style="fill: #d8d8ff"/>
    <path d="M 298.944966 34.38 
L 298.944966 7.2 
L 300.938633 7.2 
L 300.938633 34.38 
L 298.944966 34.38 
z
" clip-path="url(#p66faf4fb01)" style="fill: #f0f0ff"/>
    <path d="M 300.938633 34.38 
L 300.938633 7.2 
L 302.932299 7.2 
L 302.932299 34.38 
L 300.938633 34.38 
z
" clip-path="url(#p66faf4fb01)" style="fill: #e4e4ff"/>
    <path d="M 302.932299 34.38 
L 302.932299 7.2 
L 304.925965 7.2 
L 304.925965 34.38 
L 302.932299 34.38 
z
" clip-path="url(#p66faf4fb01)" style="fill: #6c6cff"/>
    <path d="M 304.925965 34.38 
L 304.925965 7.2 
L 306.919631 7.2 
L 306.919631 34.38 
L 304.925965 34.38 
z
" clip-path="url(#p66faf4fb01)" style="fill: #dadaff"/>
    <path d="M 306.919631 34.38 
L 306.919631 7.2 
L 308.913297 7.2 
L 308.913297 34.38 
L 306.919631 34.38 
z
" clip-path="url(#p66faf4fb01)" style="fill: #c2c2ff"/>
    <path d="M 308.913297 34.38 
L 308.913297 7.2 
L 310.906963 7.2 
L 310.906963 34.38 
L 308.913297 34.38 
z
" clip-path="url(#p66faf4fb01)" style="fill: #bebeff"/>
    <path d="M 310.906963 34.38 
L 310.906963 7.2 
L 312.900629 7.2 
L 312.900629 34.38 
L 310.906963 34.38 
z
" clip-path="url(#p66faf4fb01)" style="fill: #eeeeff"/>
    <path d="M 312.900629 34.38 
L 312.900629 7.2 
L 314.894295 7.2 
L 314.894295 34.38 
L 312.900629 34.38 
z
" clip-path="url(#p66faf4fb01)" style="fill: #d4d4ff"/>
    <path d="M 314.894295 34.38 
L 314.894295 7.2 
L 316.887961 7.2 
L 316.887961 34.38 
L 314.894295 34.38 
z
" clip-path="url(#p66faf4fb01)" style="fill: #b6b6ff"/>
    <path d="M 316.887961 34.38 
L 316.887961 7.2 
L 318.881627 7.2 
L 318.881627 34.38 
L 316.887961 34.38 
z
" clip-path="url(#p66faf4fb01)" style="fill: #ff7e7e"/>
    <path d="M 318.881627 34.38 
L 318.881627 7.2 
L 320.875294 7.2 
L 320.875294 34.38 
L 318.881627 34.38 
z
" clip-path="url(#p66faf4fb01)" style="fill: #9292ff"/>
    <path d="M 320.875294 34.38 
L 320.875294 7.2 
L 322.86896 7.2 
L 322.86896 34.38 
L 320.875294 34.38 
z
" clip-path="url(#p66faf4fb01)" style="fill: #9696ff"/>
    <path d="M 322.86896 34.38 
L 322.86896 7.2 
L 324.862626 7.2 
L 324.862626 34.38 
L 322.86896 34.38 
z
" clip-path="url(#p66faf4fb01)" style="fill: #ff9c9c"/>
    <path d="M 324.862626 34.38 
L 324.862626 7.2 
L 326.856292 7.2 
L 326.856292 34.38 
L 324.862626 34.38 
z
" clip-path="url(#p66faf4fb01)" style="fill: #9898ff"/>
    <path d="M 326.856292 34.38 
L 326.856292 7.2 
L 328.849958 7.2 
L 328.849958 34.38 
L 326.856292 34.38 
z
" clip-path="url(#p66faf4fb01)" style="fill: #aeaeff"/>
    <path d="M 328.849958 34.38 
L 328.849958 7.2 
L 330.843624 7.2 
L 330.843624 34.38 
L 328.849958 34.38 
z
" clip-path="url(#p66faf4fb01)" style="fill: #ffcaca"/>
    <path d="M 330.843624 34.38 
L 330.843624 7.2 
L 332.83729 7.2 
L 332.83729 34.38 
L 330.843624 34.38 
z
" clip-path="url(#p66faf4fb01)" style="fill: #ffb4b4"/>
    <path d="M 332.83729 34.38 
L 332.83729 7.2 
L 334.830956 7.2 
L 334.830956 34.38 
L 332.83729 34.38 
z
" clip-path="url(#p66faf4fb01)" style="fill: #e8e8ff"/>
    <path d="M 334.830956 34.38 
L 334.830956 7.2 
L 336.824622 7.2 
L 336.824622 34.38 
L 334.830956 34.38 
z
" clip-path="url(#p66faf4fb01)" style="fill: #e2e2ff"/>
    <path d="M 336.824622 34.38 
L 336.824622 7.2 
L 338.818289 7.2 
L 338.818289 34.38 
L 336.824622 34.38 
z
" clip-path="url(#p66faf4fb01)" style="fill: #ffdede"/>
    <path d="M 338.818289 34.38 
L 338.818289 7.2 
L 340.811955 7.2 
L 340.811955 34.38 
L 338.818289 34.38 
z
" clip-path="url(#p66faf4fb01)" style="fill: #8282ff"/>
    <path d="M 340.811955 34.38 
L 340.811955 7.2 
L 342.805621 7.2 
L 342.805621 34.38 
L 340.811955 34.38 
z
" clip-path="url(#p66faf4fb01)" style="fill: #7474ff"/>
    <path d="M 342.805621 34.38 
L 342.805621 7.2 
L 344.799287 7.2 
L 344.799287 34.38 
L 342.805621 34.38 
z
" clip-path="url(#p66faf4fb01)" style="fill: #9494ff"/>
    <path d="M 344.799287 34.38 
L 344.799287 7.2 
L 346.792953 7.2 
L 346.792953 34.38 
L 344.799287 34.38 
z
" clip-path="url(#p66faf4fb01)" style="fill: #d8d8ff"/>
    <path d="M 346.792953 34.38 
L 346.792953 7.2 
L 348.786619 7.2 
L 348.786619 34.38 
L 346.792953 34.38 
z
" clip-path="url(#p66faf4fb01)" style="fill: #ffeeee"/>
    <path d="M 348.786619 34.38 
L 348.786619 7.2 
L 350.780285 7.2 
L 350.780285 34.38 
L 348.786619 34.38 
z
" clip-path="url(#p66faf4fb01)" style="fill: #ffe6e6"/>
    <path d="M 350.780285 34.38 
L 350.780285 7.2 
L 352.773951 7.2 
L 352.773951 34.38 
L 350.780285 34.38 
z
" clip-path="url(#p66faf4fb01)" style="fill: #fff4f4"/>
    <path d="M 352.773951 34.38 
L 352.773951 7.2 
L 354.767617 7.2 
L 354.767617 34.38 
L 352.773951 34.38 
z
" clip-path="url(#p66faf4fb01)" style="fill: #fff2f2"/>
    <path d="M 354.767617 34.38 
L 354.767617 7.2 
L 356.761284 7.2 
L 356.761284 34.38 
L 354.767617 34.38 
z
" clip-path="url(#p66faf4fb01)" style="fill: #9a9aff"/>
    <path d="M 356.761284 34.38 
L 356.761284 7.2 
L 358.75495 7.2 
L 358.75495 34.38 
L 356.761284 34.38 
z
" clip-path="url(#p66faf4fb01)" style="fill: #aaaaff"/>
    <path d="M 358.75495 34.38 
L 358.75495 7.2 
L 360.748616 7.2 
L 360.748616 34.38 
L 358.75495 34.38 
z
" clip-path="url(#p66faf4fb01)" style="fill: #a6a6ff"/>
    <path d="M 360.748616 34.38 
L 360.748616 7.2 
L 362.742282 7.2 
L 362.742282 34.38 
L 360.748616 34.38 
z
" clip-path="url(#p66faf4fb01)" style="fill: #bcbcff"/>
    <path d="M 362.742282 34.38 
L 362.742282 7.2 
L 364.735948 7.2 
L 364.735948 34.38 
L 362.742282 34.38 
z
" clip-path="url(#p66faf4fb01)" style="fill: #ccccff"/>
    <path d="M 364.735948 34.38 
L 364.735948 7.2 
L 366.729614 7.2 
L 366.729614 34.38 
L 364.735948 34.38 
z
" clip-path="url(#p66faf4fb01)" style="fill: #e2e2ff"/>
    <path d="M 366.729614 34.38 
L 366.729614 7.2 
L 368.72328 7.2 
L 368.72328 34.38 
L 366.729614 34.38 
z
" clip-path="url(#p66faf4fb01)" style="fill: #dedeff"/>
    <path d="M 368.72328 34.38 
L 368.72328 7.2 
L 370.716946 7.2 
L 370.716946 34.38 
L 368.72328 34.38 
z
" clip-path="url(#p66faf4fb01)" style="fill: #6262ff"/>
    <path d="M 370.716946 34.38 
L 370.716946 7.2 
L 372.710612 7.2 
L 372.710612 34.38 
L 370.716946 34.38 
z
" clip-path="url(#p66faf4fb01)" style="fill: #7474ff"/>
    <path d="M 372.710612 34.38 
L 372.710612 7.2 
L 374.704278 7.2 
L 374.704278 34.38 
L 372.710612 34.38 
z
" clip-path="url(#p66faf4fb01)" style="fill: #5c5cff"/>
    <path d="M 374.704278 34.38 
L 374.704278 7.2 
L 376.697945 7.2 
L 376.697945 34.38 
L 374.704278 34.38 
z
" clip-path="url(#p66faf4fb01)" style="fill: #6868ff"/>
    <path d="M 376.697945 34.38 
L 376.697945 7.2 
L 378.691611 7.2 
L 378.691611 34.38 
L 376.697945 34.38 
z
" clip-path="url(#p66faf4fb01)" style="fill: #6666ff"/>
    <path d="M 378.691611 34.38 
L 378.691611 7.2 
L 380.685277 7.2 
L 380.685277 34.38 
L 378.691611 34.38 
z
" clip-path="url(#p66faf4fb01)" style="fill: #5858ff"/>
    <path d="M 380.685277 34.38 
L 380.685277 7.2 
L 382.678943 7.2 
L 382.678943 34.38 
L 380.685277 34.38 
z
" clip-path="url(#p66faf4fb01)" style="fill: #dcdcff"/>
    <path d="M 382.678943 34.38 
L 382.678943 7.2 
L 384.672609 7.2 
L 384.672609 34.38 
L 382.678943 34.38 
z
" clip-path="url(#p66faf4fb01)" style="fill: #a8a8ff"/>
    <path d="M 384.672609 34.38 
L 384.672609 7.2 
L 386.666275 7.2 
L 386.666275 34.38 
L 384.672609 34.38 
z
" clip-path="url(#p66faf4fb01)" style="fill: #bcbcff"/>
    <path d="M 386.666275 34.38 
L 386.666275 7.2 
L 388.659941 7.2 
L 388.659941 34.38 
L 386.666275 34.38 
z
" clip-path="url(#p66faf4fb01)" style="fill: #b6b6ff"/>
    <path d="M 388.659941 34.38 
L 388.659941 7.2 
L 390.653607 7.2 
L 390.653607 34.38 
L 388.659941 34.38 
z
" clip-path="url(#p66faf4fb01)" style="fill: #8e8eff"/>
    <path d="M 390.653607 34.38 
L 390.653607 7.2 
L 392.647273 7.2 
L 392.647273 34.38 
L 390.653607 34.38 
z
" clip-path="url(#p66faf4fb01)" style="fill: #d6d6ff"/>
    <path d="M 392.647273 34.38 
L 392.647273 7.2 
L 394.64094 7.2 
L 394.64094 34.38 
L 392.647273 34.38 
z
" clip-path="url(#p66faf4fb01)" style="fill: #eaeaff"/>
    <path d="M 394.64094 34.38 
L 394.64094 7.2 
L 396.634606 7.2 
L 396.634606 34.38 
L 394.64094 34.38 
z
" clip-path="url(#p66faf4fb01)" style="fill: #d0d0ff"/>
    <path d="M 396.634606 34.38 
L 396.634606 7.2 
L 398.628272 7.2 
L 398.628272 34.38 
L 396.634606 34.38 
z
" clip-path="url(#p66faf4fb01)" style="fill: #eaeaff"/>
    <path d="M 398.628272 34.38 
L 398.628272 7.2 
L 400.621938 7.2 
L 400.621938 34.38 
L 398.628272 34.38 
z
" clip-path="url(#p66faf4fb01)" style="fill: #e2e2ff"/>
    <path d="M 400.621938 34.38 
L 400.621938 7.2 
L 402.615604 7.2 
L 402.615604 34.38 
L 400.621938 34.38 
z
" clip-path="url(#p66faf4fb01)" style="fill: #ffe8e8"/>
    <path d="M 402.615604 34.38 
L 402.615604 7.2 
L 404.60927 7.2 
L 404.60927 34.38 
L 402.615604 34.38 
z
" clip-path="url(#p66faf4fb01)" style="fill: #ffc6c6"/>
    <path d="M 404.60927 34.38 
L 404.60927 7.2 
L 406.602936 7.2 
L 406.602936 34.38 
L 404.60927 34.38 
z
" clip-path="url(#p66faf4fb01)" style="fill: #ffbcbc"/>
    <path d="M 406.602936 34.38 
L 406.602936 7.2 
L 408.596602 7.2 
L 408.596602 34.38 
L 406.602936 34.38 
z
" clip-path="url(#p66faf4fb01)" style="fill: #ffc2c2"/>
    <path d="M 408.596602 34.38 
L 408.596602 7.2 
L 410.590268 7.2 
L 410.590268 34.38 
L 408.596602 34.38 
z
" clip-path="url(#p66faf4fb01)" style="fill: #ffdede"/>
    <path d="M 410.590268 34.38 
L 410.590268 7.2 
L 412.583935 7.2 
L 412.583935 34.38 
L 410.590268 34.38 
z
" clip-path="url(#p66faf4fb01)" style="fill: #ffcaca"/>
    <path d="M 412.583935 34.38 
L 412.583935 7.2 
L 414.577601 7.2 
L 414.577601 34.38 
L 412.583935 34.38 
z
" clip-path="url(#p66faf4fb01)" style="fill: #ffd0d0"/>
    <path d="M 414.577601 34.38 
L 414.577601 7.2 
L 416.571267 7.2 
L 416.571267 34.38 
L 414.577601 34.38 
z
" clip-path="url(#p66faf4fb01)" style="fill: #e6e6ff"/>
    <path d="M 416.571267 34.38 
L 416.571267 7.2 
L 418.564933 7.2 
L 418.564933 34.38 
L 416.571267 34.38 
z
" clip-path="url(#p66faf4fb01)" style="fill: #d4d4ff"/>
    <path d="M 418.564933 34.38 
L 418.564933 7.2 
L 420.558599 7.2 
L 420.558599 34.38 
L 418.564933 34.38 
z
" clip-path="url(#p66faf4fb01)" style="fill: #e8e8ff"/>
    <path d="M 420.558599 34.38 
L 420.558599 7.2 
L 422.552265 7.2 
L 422.552265 34.38 
L 420.558599 34.38 
z
" clip-path="url(#p66faf4fb01)" style="fill: #e4e4ff"/>
    <path d="M 422.552265 34.38 
L 422.552265 7.2 
L 424.545931 7.2 
L 424.545931 34.38 
L 422.552265 34.38 
z
" clip-path="url(#p66faf4fb01)" style="fill: #d0d0ff"/>
    <path d="M 424.545931 34.38 
L 424.545931 7.2 
L 426.539597 7.2 
L 426.539597 34.38 
L 424.545931 34.38 
z
" clip-path="url(#p66faf4fb01)" style="fill: #e2e2ff"/>
    <path d="M 426.539597 34.38 
L 426.539597 7.2 
L 428.533263 7.2 
L 428.533263 34.38 
L 426.539597 34.38 
z
" clip-path="url(#p66faf4fb01)" style="fill: #dedeff"/>
    <path d="M 428.533263 34.38 
L 428.533263 7.2 
L 430.526929 7.2 
L 430.526929 34.38 
L 428.533263 34.38 
z
" clip-path="url(#p66faf4fb01)" style="fill: #b8b8ff"/>
    <path d="M 430.526929 34.38 
L 430.526929 7.2 
L 432.520596 7.2 
L 432.520596 34.38 
L 430.526929 34.38 
z
" clip-path="url(#p66faf4fb01)" style="fill: #a8a8ff"/>
    <path d="M 432.520596 34.38 
L 432.520596 7.2 
L 434.514262 7.2 
L 434.514262 34.38 
L 432.520596 34.38 
z
" clip-path="url(#p66faf4fb01)" style="fill: #aeaeff"/>
    <path d="M 434.514262 34.38 
L 434.514262 7.2 
L 436.507928 7.2 
L 436.507928 34.38 
L 434.514262 34.38 
z
" clip-path="url(#p66faf4fb01)" style="fill: #ffdada"/>
    <path d="M 436.507928 34.38 
L 436.507928 7.2 
L 438.501594 7.2 
L 438.501594 34.38 
L 436.507928 34.38 
z
" clip-path="url(#p66faf4fb01)" style="fill: #ffeaea"/>
    <path d="M 438.501594 34.38 
L 438.501594 7.2 
L 440.49526 7.2 
L 440.49526 34.38 
L 438.501594 34.38 
z
" clip-path="url(#p66faf4fb01)" style="fill: #aaaaff"/>
    <path d="M 440.49526 34.38 
L 440.49526 7.2 
L 442.488926 7.2 
L 442.488926 34.38 
L 440.49526 34.38 
z
" clip-path="url(#p66faf4fb01)" style="fill: #a0a0ff"/>
    <path d="M 442.488926 34.38 
L 442.488926 7.2 
L 444.482592 7.2 
L 444.482592 34.38 
L 442.488926 34.38 
z
" clip-path="url(#p66faf4fb01)" style="fill: #aaaaff"/>
    <path d="M 444.482592 34.38 
L 444.482592 7.2 
L 446.476258 7.2 
L 446.476258 34.38 
L 444.482592 34.38 
z
" clip-path="url(#p66faf4fb01)" style="fill: #f0f0ff"/>
    <path d="M 446.476258 34.38 
L 446.476258 7.2 
L 448.469924 7.2 
L 448.469924 34.38 
L 446.476258 34.38 
z
" clip-path="url(#p66faf4fb01)" style="fill: #f2f2ff"/>
    <path d="M 448.469924 34.38 
L 448.469924 7.2 
L 450.463591 7.2 
L 450.463591 34.38 
L 448.469924 34.38 
z
" clip-path="url(#p66faf4fb01)" style="fill: #f2f2ff"/>
    <path d="M 450.463591 34.38 
L 450.463591 7.2 
L 452.457257 7.2 
L 452.457257 34.38 
L 450.463591 34.38 
z
" clip-path="url(#p66faf4fb01)" style="fill: #ceceff"/>
    <path d="M 452.457257 34.38 
L 452.457257 7.2 
L 454.450923 7.2 
L 454.450923 34.38 
L 452.457257 34.38 
z
" clip-path="url(#p66faf4fb01)" style="fill: #d2d2ff"/>
    <path d="M 454.450923 34.38 
L 454.450923 7.2 
L 456.444589 7.2 
L 456.444589 34.38 
L 454.450923 34.38 
z
" clip-path="url(#p66faf4fb01)" style="fill: #d2d2ff"/>
    <path d="M 456.444589 34.38 
L 456.444589 7.2 
L 458.438255 7.2 
L 458.438255 34.38 
L 456.444589 34.38 
z
" clip-path="url(#p66faf4fb01)" style="fill: #dcdcff"/>
    <path d="M 458.438255 34.38 
L 458.438255 7.2 
L 460.431921 7.2 
L 460.431921 34.38 
L 458.438255 34.38 
z
" clip-path="url(#p66faf4fb01)" style="fill: #e6e6ff"/>
    <path d="M 460.431921 34.38 
L 460.431921 7.2 
L 462.425587 7.2 
L 462.425587 34.38 
L 460.431921 34.38 
z
" clip-path="url(#p66faf4fb01)" style="fill: #e0e0ff"/>
    <path d="M 462.425587 34.38 
L 462.425587 7.2 
L 464.419253 7.2 
L 464.419253 34.38 
L 462.425587 34.38 
z
" clip-path="url(#p66faf4fb01)" style="fill: #cacaff"/>
    <path d="M 464.419253 34.38 
L 464.419253 7.2 
L 466.412919 7.2 
L 466.412919 34.38 
L 464.419253 34.38 
z
" clip-path="url(#p66faf4fb01)" style="fill: #ceceff"/>
    <path d="M 466.412919 34.38 
L 466.412919 7.2 
L 468.406585 7.2 
L 468.406585 34.38 
L 466.412919 34.38 
z
" clip-path="url(#p66faf4fb01)" style="fill: #ccccff"/>
    <path d="M 468.406585 34.38 
L 468.406585 7.2 
L 470.400252 7.2 
L 470.400252 34.38 
L 468.406585 34.38 
z
" clip-path="url(#p66faf4fb01)" style="fill: #b8b8ff"/>
    <path d="M 470.400252 34.38 
L 470.400252 7.2 
L 472.393918 7.2 
L 472.393918 34.38 
L 470.400252 34.38 
z
" clip-path="url(#p66faf4fb01)" style="fill: #c2c2ff"/>
    <path d="M 472.393918 34.38 
L 472.393918 7.2 
L 474.387584 7.2 
L 474.387584 34.38 
L 472.393918 34.38 
z
" clip-path="url(#p66faf4fb01)" style="fill: #bcbcff"/>
    <path d="M 474.387584 34.38 
L 474.387584 7.2 
L 476.38125 7.2 
L 476.38125 34.38 
L 474.387584 34.38 
z
" clip-path="url(#p66faf4fb01)" style="fill: #7676ff"/>
    <path d="M 476.38125 34.38 
L 476.38125 7.2 
L 478.374916 7.2 
L 478.374916 34.38 
L 476.38125 34.38 
z
" clip-path="url(#p66faf4fb01)" style="fill: #7676ff"/>
    <path d="M 478.374916 34.38 
L 478.374916 7.2 
L 480.368582 7.2 
L 480.368582 34.38 
L 478.374916 34.38 
z
" clip-path="url(#p66faf4fb01)" style="fill: #7676ff"/>
    <path d="M 480.368582 34.38 
L 480.368582 7.2 
L 482.362248 7.2 
L 482.362248 34.38 
L 480.368582 34.38 
z
" clip-path="url(#p66faf4fb01)" style="fill: #d8d8ff"/>
    <path d="M 482.362248 34.38 
L 482.362248 7.2 
L 484.355914 7.2 
L 484.355914 34.38 
L 482.362248 34.38 
z
" clip-path="url(#p66faf4fb01)" style="fill: #d6d6ff"/>
    <path d="M 484.355914 34.38 
L 484.355914 7.2 
L 486.34958 7.2 
L 486.34958 34.38 
L 484.355914 34.38 
z
" clip-path="url(#p66faf4fb01)" style="fill: #d6d6ff"/>
    <path d="M 486.34958 34.38 
L 486.34958 7.2 
L 488.343247 7.2 
L 488.343247 34.38 
L 486.34958 34.38 
z
" clip-path="url(#p66faf4fb01)" style="fill: #c2c2ff"/>
    <path d="M 488.343247 34.38 
L 488.343247 7.2 
L 490.336913 7.2 
L 490.336913 34.38 
L 488.343247 34.38 
z
" clip-path="url(#p66faf4fb01)" style="fill: #c4c4ff"/>
    <path d="M 490.336913 34.38 
L 490.336913 7.2 
L 492.330579 7.2 
L 492.330579 34.38 
L 490.336913 34.38 
z
" clip-path="url(#p66faf4fb01)" style="fill: #c4c4ff"/>
    <path d="M 492.330579 34.38 
L 492.330579 7.2 
L 494.324245 7.2 
L 494.324245 34.38 
L 492.330579 34.38 
z
" clip-path="url(#p66faf4fb01)" style="fill: #c0c0ff"/>
    <path d="M 494.324245 34.38 
L 494.324245 7.2 
L 496.317911 7.2 
L 496.317911 34.38 
L 494.324245 34.38 
z
" clip-path="url(#p66faf4fb01)" style="fill: #c0c0ff"/>
    <path d="M 496.317911 34.38 
L 496.317911 7.2 
L 498.311577 7.2 
L 498.311577 34.38 
L 496.317911 34.38 
z
" clip-path="url(#p66faf4fb01)" style="fill: #7e7eff"/>
    <path d="M 498.311577 34.38 
L 498.311577 7.2 
L 500.305243 7.2 
L 500.305243 34.38 
L 498.311577 34.38 
z
" clip-path="url(#p66faf4fb01)" style="fill: #7c7cff"/>
    <path d="M 500.305243 34.38 
L 500.305243 7.2 
L 502.298909 7.2 
L 502.298909 34.38 
L 500.305243 34.38 
z
" clip-path="url(#p66faf4fb01)" style="fill: #7a7aff"/>
    <path d="M 502.298909 34.38 
L 502.298909 7.2 
L 504.292575 7.2 
L 504.292575 34.38 
L 502.298909 34.38 
z
" clip-path="url(#p66faf4fb01)" style="fill: #d6d6ff"/>
    <path d="M 504.292575 34.38 
L 504.292575 7.2 
L 506.286242 7.2 
L 506.286242 34.38 
L 504.292575 34.38 
z
" clip-path="url(#p66faf4fb01)" style="fill: #d8d8ff"/>
    <path d="M 506.286242 34.38 
L 506.286242 7.2 
L 508.279908 7.2 
L 508.279908 34.38 
L 506.286242 34.38 
z
" clip-path="url(#p66faf4fb01)" style="fill: #d8d8ff"/>
    <path d="M 508.279908 34.38 
L 508.279908 7.2 
L 510.273574 7.2 
L 510.273574 34.38 
L 508.279908 34.38 
z
" clip-path="url(#p66faf4fb01)" style="fill: #bebeff"/>
    <path d="M 510.273574 34.38 
L 510.273574 7.2 
L 512.26724 7.2 
L 512.26724 34.38 
L 510.273574 34.38 
z
" clip-path="url(#p66faf4fb01)" style="fill: #c6c6ff"/>
    <path d="M 512.26724 34.38 
L 512.26724 7.2 
L 514.260906 7.2 
L 514.260906 34.38 
L 512.26724 34.38 
z
" clip-path="url(#p66faf4fb01)" style="fill: #c2c2ff"/>
    <path d="M 514.260906 34.38 
L 514.260906 7.2 
L 516.254572 7.2 
L 516.254572 34.38 
L 514.260906 34.38 
z
" clip-path="url(#p66faf4fb01)" style="fill: #bcbcff"/>
    <path d="M 516.254572 34.38 
L 516.254572 7.2 
L 518.248238 7.2 
L 518.248238 34.38 
L 516.254572 34.38 
z
" clip-path="url(#p66faf4fb01)" style="fill: #c0c0ff"/>
    <path d="M 518.248238 34.38 
L 518.248238 7.2 
L 520.241904 7.2 
L 520.241904 34.38 
L 518.248238 34.38 
z
" clip-path="url(#p66faf4fb01)" style="fill: #bebeff"/>
    <path d="M 520.241904 34.38 
L 520.241904 7.2 
L 522.23557 7.2 
L 522.23557 34.38 
L 520.241904 34.38 
z
" clip-path="url(#p66faf4fb01)" style="fill: #babaff"/>
    <path d="M 522.23557 34.38 
L 522.23557 7.2 
L 524.229236 7.2 
L 524.229236 34.38 
L 522.23557 34.38 
z
" clip-path="url(#p66faf4fb01)" style="fill: #c0c0ff"/>
    <path d="M 524.229236 34.38 
L 524.229236 7.2 
L 526.222903 7.2 
L 526.222903 34.38 
L 524.229236 34.38 
z
" clip-path="url(#p66faf4fb01)" style="fill: #9a9aff"/>
    <path d="M 526.222903 34.38 
L 526.222903 7.2 
L 528.216569 7.2 
L 528.216569 34.38 
L 526.222903 34.38 
z
" clip-path="url(#p66faf4fb01)" style="fill: #e6e6ff"/>
    <path d="M 528.216569 34.38 
L 528.216569 7.2 
L 530.210235 7.2 
L 530.210235 34.38 
L 528.216569 34.38 
z
" clip-path="url(#p66faf4fb01)" style="fill: #b0b0ff"/>
    <path d="M 530.210235 34.38 
L 530.210235 7.2 
L 532.203901 7.2 
L 532.203901 34.38 
L 530.210235 34.38 
z
" clip-path="url(#p66faf4fb01)" style="fill: #dedeff"/>
    <path d="M 532.203901 34.38 
L 532.203901 7.2 
L 534.197567 7.2 
L 534.197567 34.38 
L 532.203901 34.38 
z
" clip-path="url(#p66faf4fb01)" style="fill: #d2d2ff"/>
    <path d="M 534.197567 34.38 
L 534.197567 7.2 
L 536.191233 7.2 
L 536.191233 34.38 
L 534.197567 34.38 
z
" clip-path="url(#p66faf4fb01)" style="fill: #ffe0e0"/>
    <path d="M 536.191233 34.38 
L 536.191233 7.2 
L 538.184899 7.2 
L 538.184899 34.38 
L 536.191233 34.38 
z
" clip-path="url(#p66faf4fb01)" style="fill: #e6e6ff"/>
    <path d="M 538.184899 34.38 
L 538.184899 7.2 
L 540.178565 7.2 
L 540.178565 34.38 
L 538.184899 34.38 
z
" clip-path="url(#p66faf4fb01)" style="fill: #ffcece"/>
    <path d="M 540.178565 34.38 
L 540.178565 7.2 
L 542.172231 7.2 
L 542.172231 34.38 
L 540.178565 34.38 
z
" clip-path="url(#p66faf4fb01)" style="fill: #ffdcdc"/>
    <path d="M 542.172231 34.38 
L 542.172231 7.2 
L 544.165898 7.2 
L 544.165898 34.38 
L 542.172231 34.38 
z
" clip-path="url(#p66faf4fb01)" style="fill: #ffbebe"/>
    <path d="M 544.165898 34.38 
L 544.165898 7.2 
L 546.159564 7.2 
L 546.159564 34.38 
L 544.165898 34.38 
z
" clip-path="url(#p66faf4fb01)" style="fill: #fff2f2"/>
    <path d="M 546.159564 34.38 
L 546.159564 7.2 
L 548.15323 7.2 
L 548.15323 34.38 
L 546.159564 34.38 
z
" clip-path="url(#p66faf4fb01)" style="fill: #e6e6ff"/>
    <path d="M 548.15323 34.38 
L 548.15323 7.2 
L 550.146896 7.2 
L 550.146896 34.38 
L 548.15323 34.38 
z
" clip-path="url(#p66faf4fb01)" style="fill: #dedeff"/>
    <path d="M 550.146896 34.38 
L 550.146896 7.2 
L 552.140562 7.2 
L 552.140562 34.38 
L 550.146896 34.38 
z
" clip-path="url(#p66faf4fb01)" style="fill: #ffe8e8"/>
    <path d="M 552.140562 34.38 
L 552.140562 7.2 
L 554.134228 7.2 
L 554.134228 34.38 
L 552.140562 34.38 
z
" clip-path="url(#p66faf4fb01)" style="fill: #ffdede"/>
    <path d="M 554.134228 34.38 
L 554.134228 7.2 
L 556.127894 7.2 
L 556.127894 34.38 
L 554.134228 34.38 
z
" clip-path="url(#p66faf4fb01)" style="fill: #fff2f2"/>
    <path d="M 556.127894 34.38 
L 556.127894 7.2 
L 558.12156 7.2 
L 558.12156 34.38 
L 556.127894 34.38 
z
" clip-path="url(#p66faf4fb01)" style="fill: #ffa0a0"/>
    <path d="M 558.12156 34.38 
L 558.12156 7.2 
L 560.115226 7.2 
L 560.115226 34.38 
L 558.12156 34.38 
z
" clip-path="url(#p66faf4fb01)" style="fill: #fffefe"/>
    <path d="M 560.115226 34.38 
L 560.115226 7.2 
L 562.108893 7.2 
L 562.108893 34.38 
L 560.115226 34.38 
z
" clip-path="url(#p66faf4fb01)" style="fill: #fffefe"/>
    <path d="M 562.108893 34.38 
L 562.108893 7.2 
L 564.102559 7.2 
L 564.102559 34.38 
L 562.108893 34.38 
z
" clip-path="url(#p66faf4fb01)" style="fill: #ffaaaa"/>
    <path d="M 564.102559 34.38 
L 564.102559 7.2 
L 566.096225 7.2 
L 566.096225 34.38 
L 564.102559 34.38 
z
" clip-path="url(#p66faf4fb01)" style="fill: #fffefe"/>
    <path d="M 566.096225 34.38 
L 566.096225 7.2 
L 568.089891 7.2 
L 568.089891 34.38 
L 566.096225 34.38 
z
" clip-path="url(#p66faf4fb01)" style="fill: #ff9898"/>
    <path d="M 568.089891 34.38 
L 568.089891 7.2 
L 570.083557 7.2 
L 570.083557 34.38 
L 568.089891 34.38 
z
" clip-path="url(#p66faf4fb01)" style="fill: #fffefe"/>
    <path d="M 570.083557 34.38 
L 570.083557 7.2 
L 572.077223 7.2 
L 572.077223 34.38 
L 570.083557 34.38 
z
" clip-path="url(#p66faf4fb01)" style="fill: #ffb4b4"/>
    <path d="M 572.077223 34.38 
L 572.077223 7.2 
L 574.070889 7.2 
L 574.070889 34.38 
L 572.077223 34.38 
z
" clip-path="url(#p66faf4fb01)" style="fill: #ffa4a4"/>
    <path d="M 574.070889 34.38 
L 574.070889 7.2 
L 576.064555 7.2 
L 576.064555 34.38 
L 574.070889 34.38 
z
" clip-path="url(#p66faf4fb01)" style="fill: #ffcece"/>
    <path d="M 576.064555 34.38 
L 576.064555 7.2 
L 578.058221 7.2 
L 578.058221 34.38 
L 576.064555 34.38 
z
" clip-path="url(#p66faf4fb01)" style="fill: #ff9c9c"/>
    <path d="M 578.058221 34.38 
L 578.058221 7.2 
L 580.051887 7.2 
L 580.051887 34.38 
L 578.058221 34.38 
z
" clip-path="url(#p66faf4fb01)" style="fill: #ffe2e2"/>
    <path d="M 580.051887 34.38 
L 580.051887 7.2 
L 582.045554 7.2 
L 582.045554 34.38 
L 580.051887 34.38 
z
" clip-path="url(#p66faf4fb01)" style="fill: #ff9e9e"/>
    <path d="M 582.045554 34.38 
L 582.045554 7.2 
L 584.03922 7.2 
L 584.03922 34.38 
L 582.045554 34.38 
z
" clip-path="url(#p66faf4fb01)" style="fill: #d2d2ff"/>
    <path d="M 584.03922 34.38 
L 584.03922 7.2 
L 586.032886 7.2 
L 586.032886 34.38 
L 584.03922 34.38 
z
" clip-path="url(#p66faf4fb01)" style="fill: #ffe2e2"/>
    <path d="M 586.032886 34.38 
L 586.032886 7.2 
L 588.026552 7.2 
L 588.026552 34.38 
L 586.032886 34.38 
z
" clip-path="url(#p66faf4fb01)" style="fill: #ffbaba"/>
    <path d="M 588.026552 34.38 
L 588.026552 7.2 
L 590.020218 7.2 
L 590.020218 34.38 
L 588.026552 34.38 
z
" clip-path="url(#p66faf4fb01)" style="fill: #ff9e9e"/>
    <path d="M 590.020218 34.38 
L 590.020218 7.2 
L 592.013884 7.2 
L 592.013884 34.38 
L 590.020218 34.38 
z
" clip-path="url(#p66faf4fb01)" style="fill: #ffa0a0"/>
    <path d="M 592.013884 34.38 
L 592.013884 7.2 
L 594.00755 7.2 
L 594.00755 34.38 
L 592.013884 34.38 
z
" clip-path="url(#p66faf4fb01)" style="fill: #ff8a8a"/>
    <path d="M 594.00755 34.38 
L 594.00755 7.2 
L 596.001216 7.2 
L 596.001216 34.38 
L 594.00755 34.38 
z
" clip-path="url(#p66faf4fb01)" style="fill: #ffeaea"/>
    <path d="M 596.001216 34.38 
L 596.001216 7.2 
L 597.994882 7.2 
L 597.994882 34.38 
L 596.001216 34.38 
z
" clip-path="url(#p66faf4fb01)" style="fill: #ffaaaa"/>
    <path d="M 597.994882 34.38 
L 597.994882 7.2 
L 599.988549 7.2 
L 599.988549 34.38 
L 597.994882 34.38 
z
" clip-path="url(#p66faf4fb01)" style="fill: #ffe6e6"/>
    <path d="M 599.988549 34.38 
L 599.988549 7.2 
L 601.982215 7.2 
L 601.982215 34.38 
L 599.988549 34.38 
z
" clip-path="url(#p66faf4fb01)" style="fill: #ffeaea"/>
    <path d="M 601.982215 34.38 
L 601.982215 7.2 
L 603.975881 7.2 
L 603.975881 34.38 
L 601.982215 34.38 
z
" clip-path="url(#p66faf4fb01)" style="fill: #c6c6ff"/>
    <path d="M 603.975881 34.38 
L 603.975881 7.2 
L 605.969547 7.2 
L 605.969547 34.38 
L 603.975881 34.38 
z
" clip-path="url(#p66faf4fb01)" style="fill: #bcbcff"/>
    <path d="M 605.969547 34.38 
L 605.969547 7.2 
L 607.963213 7.2 
L 607.963213 34.38 
L 605.969547 34.38 
z
" clip-path="url(#p66faf4fb01)" style="fill: #ceceff"/>
    <path d="M 607.963213 34.38 
L 607.963213 7.2 
L 609.956879 7.2 
L 609.956879 34.38 
L 607.963213 34.38 
z
" clip-path="url(#p66faf4fb01)" style="fill: #cacaff"/>
    <path d="M 609.956879 34.38 
L 609.956879 7.2 
L 611.950545 7.2 
L 611.950545 34.38 
L 609.956879 34.38 
z
" clip-path="url(#p66faf4fb01)" style="fill: #c6c6ff"/>
    <path d="M 611.950545 34.38 
L 611.950545 7.2 
L 613.944211 7.2 
L 613.944211 34.38 
L 611.950545 34.38 
z
" clip-path="url(#p66faf4fb01)" style="fill: #ffe6e6"/>
    <path d="M 613.944211 34.38 
L 613.944211 7.2 
L 615.937877 7.2 
L 615.937877 34.38 
L 613.944211 34.38 
z
" clip-path="url(#p66faf4fb01)" style="fill: #c2c2ff"/>
    <path d="M 615.937877 34.38 
L 615.937877 7.2 
L 617.931544 7.2 
L 617.931544 34.38 
L 615.937877 34.38 
z
" clip-path="url(#p66faf4fb01)" style="fill: #f0f0ff"/>
    <path d="M 617.931544 34.38 
L 617.931544 7.2 
L 619.92521 7.2 
L 619.92521 34.38 
L 617.931544 34.38 
z
" clip-path="url(#p66faf4fb01)" style="fill: #fffefe"/>
    <path d="M 619.92521 34.38 
L 619.92521 7.2 
L 621.918876 7.2 
L 621.918876 34.38 
L 619.92521 34.38 
z
" clip-path="url(#p66faf4fb01)" style="fill: #ffdede"/>
    <path d="M 621.918876 34.38 
L 621.918876 7.2 
L 623.912542 7.2 
L 623.912542 34.38 
L 621.918876 34.38 
z
" clip-path="url(#p66faf4fb01)" style="fill: #5050ff"/>
    <path d="M 623.912542 34.38 
L 623.912542 7.2 
L 625.906208 7.2 
L 625.906208 34.38 
L 623.912542 34.38 
z
" clip-path="url(#p66faf4fb01)" style="fill: #d2d2ff"/>
    <path d="M 625.906208 34.38 
L 625.906208 7.2 
L 627.899874 7.2 
L 627.899874 34.38 
L 625.906208 34.38 
z
" clip-path="url(#p66faf4fb01)" style="fill: #6a6aff"/>
    <path d="M 627.899874 34.38 
L 627.899874 7.2 
L 629.89354 7.2 
L 629.89354 34.38 
L 627.899874 34.38 
z
" clip-path="url(#p66faf4fb01)" style="fill: #b8b8ff"/>
    <path d="M 629.89354 34.38 
L 629.89354 7.2 
L 631.887206 7.2 
L 631.887206 34.38 
L 629.89354 34.38 
z
" clip-path="url(#p66faf4fb01)" style="fill: #5454ff"/>
    <path d="M 631.887206 34.38 
L 631.887206 7.2 
L 633.880872 7.2 
L 633.880872 34.38 
L 631.887206 34.38 
z
" clip-path="url(#p66faf4fb01)" style="fill: #dadaff"/>
    <path d="M 633.880872 34.38 
L 633.880872 7.2 
L 635.874538 7.2 
L 635.874538 34.38 
L 633.880872 34.38 
z
" clip-path="url(#p66faf4fb01)" style="fill: #7e7eff"/>
    <path d="M 635.874538 34.38 
L 635.874538 7.2 
L 637.868205 7.2 
L 637.868205 34.38 
L 635.874538 34.38 
z
" clip-path="url(#p66faf4fb01)" style="fill: #bebeff"/>
    <path d="M 637.868205 34.38 
L 637.868205 7.2 
L 639.861871 7.2 
L 639.861871 34.38 
L 637.868205 34.38 
z
" clip-path="url(#p66faf4fb01)" style="fill: #7272ff"/>
    <path d="M 639.861871 34.38 
L 639.861871 7.2 
L 641.855537 7.2 
L 641.855537 34.38 
L 639.861871 34.38 
z
" clip-path="url(#p66faf4fb01)" style="fill: #f6f6ff"/>
    <path d="M 641.855537 34.38 
L 641.855537 7.2 
L 643.849203 7.2 
L 643.849203 34.38 
L 641.855537 34.38 
z
" clip-path="url(#p66faf4fb01)" style="fill: #d2d2ff"/>
    <path d="M 643.849203 34.38 
L 643.849203 7.2 
L 645.842869 7.2 
L 645.842869 34.38 
L 643.849203 34.38 
z
" clip-path="url(#p66faf4fb01)" style="fill: #dadaff"/>
    <path d="M 645.842869 34.38 
L 645.842869 7.2 
L 647.836535 7.2 
L 647.836535 34.38 
L 645.842869 34.38 
z
" clip-path="url(#p66faf4fb01)" style="fill: #dadaff"/>
    <path d="M 647.836535 34.38 
L 647.836535 7.2 
L 649.830201 7.2 
L 649.830201 34.38 
L 647.836535 34.38 
z
" clip-path="url(#p66faf4fb01)" style="fill: #dcdcff"/>
    <path d="M 649.830201 34.38 
L 649.830201 7.2 
L 651.823867 7.2 
L 651.823867 34.38 
L 649.830201 34.38 
z
" clip-path="url(#p66faf4fb01)" style="fill: #dcdcff"/>
    <path d="M 651.823867 34.38 
L 651.823867 7.2 
L 653.817533 7.2 
L 653.817533 34.38 
L 651.823867 34.38 
z
" clip-path="url(#p66faf4fb01)" style="fill: #6666ff"/>
    <path d="M 653.817533 34.38 
L 653.817533 7.2 
L 655.8112 7.2 
L 655.8112 34.38 
L 653.817533 34.38 
z
" clip-path="url(#p66faf4fb01)" style="fill: #dcdcff"/>
    <path d="M 655.8112 34.38 
L 655.8112 7.2 
L 657.804866 7.2 
L 657.804866 34.38 
L 655.8112 34.38 
z
" clip-path="url(#p66faf4fb01)" style="fill: #c4c4ff"/>
    <path d="M 657.804866 34.38 
L 657.804866 7.2 
L 659.798532 7.2 
L 659.798532 34.38 
L 657.804866 34.38 
z
" clip-path="url(#p66faf4fb01)" style="fill: #d0d0ff"/>
    <path d="M 659.798532 34.38 
L 659.798532 7.2 
L 661.792198 7.2 
L 661.792198 34.38 
L 659.798532 34.38 
z
" clip-path="url(#p66faf4fb01)" style="fill: #8282ff"/>
    <path d="M 661.792198 34.38 
L 661.792198 7.2 
L 663.785864 7.2 
L 663.785864 34.38 
L 661.792198 34.38 
z
" clip-path="url(#p66faf4fb01)" style="fill: #e4e4ff"/>
    <path d="M 663.785864 34.38 
L 663.785864 7.2 
L 665.77953 7.2 
L 665.77953 34.38 
L 663.785864 34.38 
z
" clip-path="url(#p66faf4fb01)" style="fill: #a8a8ff"/>
    <path d="M 665.77953 34.38 
L 665.77953 7.2 
L 667.773196 7.2 
L 667.773196 34.38 
L 665.77953 34.38 
z
" clip-path="url(#p66faf4fb01)" style="fill: #dedeff"/>
    <path d="M 667.773196 34.38 
L 667.773196 7.2 
L 669.766862 7.2 
L 669.766862 34.38 
L 667.773196 34.38 
z
" clip-path="url(#p66faf4fb01)" style="fill: #d8d8ff"/>
    <path d="M 669.766862 34.38 
L 669.766862 7.2 
L 671.760528 7.2 
L 671.760528 34.38 
L 669.766862 34.38 
z
" clip-path="url(#p66faf4fb01)" style="fill: #e0e0ff"/>
    <path d="M 671.760528 34.38 
L 671.760528 7.2 
L 673.754194 7.2 
L 673.754194 34.38 
L 671.760528 34.38 
z
" clip-path="url(#p66faf4fb01)" style="fill: #ffb4b4"/>
    <path d="M 673.754194 34.38 
L 673.754194 7.2 
L 675.747861 7.2 
L 675.747861 34.38 
L 673.754194 34.38 
z
" clip-path="url(#p66faf4fb01)" style="fill: #ffb4b4"/>
    <path d="M 675.747861 34.38 
L 675.747861 7.2 
L 677.741527 7.2 
L 677.741527 34.38 
L 675.747861 34.38 
z
" clip-path="url(#p66faf4fb01)" style="fill: #ff9e9e"/>
    <path d="M 677.741527 34.38 
L 677.741527 7.2 
L 679.735193 7.2 
L 679.735193 34.38 
L 677.741527 34.38 
z
" clip-path="url(#p66faf4fb01)" style="fill: #ffa0a0"/>
    <path d="M 679.735193 34.38 
L 679.735193 7.2 
L 681.728859 7.2 
L 681.728859 34.38 
L 679.735193 34.38 
z
" clip-path="url(#p66faf4fb01)" style="fill: #ffc0c0"/>
    <path d="M 681.728859 34.38 
L 681.728859 7.2 
L 683.722525 7.2 
L 683.722525 34.38 
L 681.728859 34.38 
z
" clip-path="url(#p66faf4fb01)" style="fill: #c8c8ff"/>
    <path d="M 683.722525 34.38 
L 683.722525 7.2 
L 685.716191 7.2 
L 685.716191 34.38 
L 683.722525 34.38 
z
" clip-path="url(#p66faf4fb01)" style="fill: #ff9e9e"/>
    <path d="M 685.716191 34.38 
L 685.716191 7.2 
L 687.709857 7.2 
L 687.709857 34.38 
L 685.716191 34.38 
z
" clip-path="url(#p66faf4fb01)" style="fill: #ffaaaa"/>
    <path d="M 687.709857 34.38 
L 687.709857 7.2 
L 689.703523 7.2 
L 689.703523 34.38 
L 687.709857 34.38 
z
" clip-path="url(#p66faf4fb01)" style="fill: #ffd8d8"/>
    <path d="M 689.703523 34.38 
L 689.703523 7.2 
L 691.697189 7.2 
L 691.697189 34.38 
L 689.703523 34.38 
z
" clip-path="url(#p66faf4fb01)" style="fill: #d0d0ff"/>
    <path d="M 691.697189 34.38 
L 691.697189 7.2 
L 693.690856 7.2 
L 693.690856 34.38 
L 691.697189 34.38 
z
" clip-path="url(#p66faf4fb01)" style="fill: #e2e2ff"/>
    <path d="M 693.690856 34.38 
L 693.690856 7.2 
L 695.684522 7.2 
L 695.684522 34.38 
L 693.690856 34.38 
z
" clip-path="url(#p66faf4fb01)" style="fill: #d6d6ff"/>
    <path d="M 695.684522 34.38 
L 695.684522 7.2 
L 697.678188 7.2 
L 697.678188 34.38 
L 695.684522 34.38 
z
" clip-path="url(#p66faf4fb01)" style="fill: #f0f0ff"/>
    <path d="M 697.678188 34.38 
L 697.678188 7.2 
L 699.671854 7.2 
L 699.671854 34.38 
L 697.678188 34.38 
z
" clip-path="url(#p66faf4fb01)" style="fill: #ececff"/>
    <path d="M 699.671854 34.38 
L 699.671854 7.2 
L 701.66552 7.2 
L 701.66552 34.38 
L 699.671854 34.38 
z
" clip-path="url(#p66faf4fb01)" style="fill: #ececff"/>
    <path d="M 701.66552 34.38 
L 701.66552 7.2 
L 703.659186 7.2 
L 703.659186 34.38 
L 701.66552 34.38 
z
" clip-path="url(#p66faf4fb01)" style="fill: #e6e6ff"/>
    <path d="M 703.659186 34.38 
L 703.659186 7.2 
L 705.652852 7.2 
L 705.652852 34.38 
L 703.659186 34.38 
z
" clip-path="url(#p66faf4fb01)" style="fill: #dadaff"/>
    <path d="M 705.652852 34.38 
L 705.652852 7.2 
L 707.646518 7.2 
L 707.646518 34.38 
L 705.652852 34.38 
z
" clip-path="url(#p66faf4fb01)" style="fill: #dcdcff"/>
    <path d="M 707.646518 34.38 
L 707.646518 7.2 
L 709.640184 7.2 
L 709.640184 34.38 
L 707.646518 34.38 
z
" clip-path="url(#p66faf4fb01)" style="fill: #a8a8ff"/>
    <path d="M 709.640184 34.38 
L 709.640184 7.2 
L 711.633851 7.2 
L 711.633851 34.38 
L 709.640184 34.38 
z
" clip-path="url(#p66faf4fb01)" style="fill: #ccccff"/>
    <path d="M 711.633851 34.38 
L 711.633851 7.2 
L 713.627517 7.2 
L 713.627517 34.38 
L 711.633851 34.38 
z
" clip-path="url(#p66faf4fb01)" style="fill: #c0c0ff"/>
    <path d="M 713.627517 34.38 
L 713.627517 7.2 
L 715.621183 7.2 
L 715.621183 34.38 
L 713.627517 34.38 
z
" clip-path="url(#p66faf4fb01)" style="fill: #c4c4ff"/>
    <path d="M 715.621183 34.38 
L 715.621183 7.2 
L 717.614849 7.2 
L 717.614849 34.38 
L 715.621183 34.38 
z
" clip-path="url(#p66faf4fb01)" style="fill: #f2f2ff"/>
    <path d="M 717.614849 34.38 
L 717.614849 7.2 
L 719.608515 7.2 
L 719.608515 34.38 
L 717.614849 34.38 
z
" clip-path="url(#p66faf4fb01)" style="fill: #aaaaff"/>
    <path d="M 719.608515 34.38 
L 719.608515 7.2 
L 721.602181 7.2 
L 721.602181 34.38 
L 719.608515 34.38 
z
" clip-path="url(#p66faf4fb01)" style="fill: #1414ff"/>
    <path d="M 721.602181 34.38 
L 721.602181 7.2 
L 723.595847 7.2 
L 723.595847 34.38 
L 721.602181 34.38 
z
" clip-path="url(#p66faf4fb01)" style="fill: #4646ff"/>
    <path d="M 723.595847 34.38 
L 723.595847 7.2 
L 725.589513 7.2 
L 725.589513 34.38 
L 723.595847 34.38 
z
" clip-path="url(#p66faf4fb01)" style="fill: #ffcccc"/>
    <path d="M 725.589513 34.38 
L 725.589513 7.2 
L 727.583179 7.2 
L 727.583179 34.38 
L 725.589513 34.38 
z
" clip-path="url(#p66faf4fb01)" style="fill: #ffe6e6"/>
    <path d="M 727.583179 34.38 
L 727.583179 7.2 
L 729.576845 7.2 
L 729.576845 34.38 
L 727.583179 34.38 
z
" clip-path="url(#p66faf4fb01)" style="fill: #f4f4ff"/>
    <path d="M 729.576845 34.38 
L 729.576845 7.2 
L 731.570512 7.2 
L 731.570512 34.38 
L 729.576845 34.38 
z
" clip-path="url(#p66faf4fb01)" style="fill: #ffd0d0"/>
    <path d="M 731.570512 34.38 
L 731.570512 7.2 
L 733.564178 7.2 
L 733.564178 34.38 
L 731.570512 34.38 
z
" clip-path="url(#p66faf4fb01)" style="fill: #ffcaca"/>
    <path d="M 733.564178 34.38 
L 733.564178 7.2 
L 735.557844 7.2 
L 735.557844 34.38 
L 733.564178 34.38 
z
" clip-path="url(#p66faf4fb01)" style="fill: #ffcaca"/>
    <path d="M 735.557844 34.38 
L 735.557844 7.2 
L 737.55151 7.2 
L 737.55151 34.38 
L 735.557844 34.38 
z
" clip-path="url(#p66faf4fb01)" style="fill: #fff4f4"/>
    <path d="M 737.55151 34.38 
L 737.55151 7.2 
L 739.545176 7.2 
L 739.545176 34.38 
L 737.55151 34.38 
z
" clip-path="url(#p66faf4fb01)" style="fill: #ffe4e4"/>
    <path d="M 739.545176 34.38 
L 739.545176 7.2 
L 741.538842 7.2 
L 741.538842 34.38 
L 739.545176 34.38 
z
" clip-path="url(#p66faf4fb01)" style="fill: #ffe8e8"/>
    <path d="M 741.538842 34.38 
L 741.538842 7.2 
L 743.532508 7.2 
L 743.532508 34.38 
L 741.538842 34.38 
z
" clip-path="url(#p66faf4fb01)" style="fill: #eaeaff"/>
    <path d="M 743.532508 34.38 
L 743.532508 7.2 
L 745.526174 7.2 
L 745.526174 34.38 
L 743.532508 34.38 
z
" clip-path="url(#p66faf4fb01)" style="fill: #f2f2ff"/>
    <path d="M 745.526174 34.38 
L 745.526174 7.2 
L 747.51984 7.2 
L 747.51984 34.38 
L 745.526174 34.38 
z
" clip-path="url(#p66faf4fb01)" style="fill: #b2b2ff"/>
    <path d="M 747.51984 34.38 
L 747.51984 7.2 
L 749.513507 7.2 
L 749.513507 34.38 
L 747.51984 34.38 
z
" clip-path="url(#p66faf4fb01)" style="fill: #eaeaff"/>
    <path d="M 749.513507 34.38 
L 749.513507 7.2 
L 751.507173 7.2 
L 751.507173 34.38 
L 749.513507 34.38 
z
" clip-path="url(#p66faf4fb01)" style="fill: #e0e0ff"/>
    <path d="M 751.507173 34.38 
L 751.507173 7.2 
L 753.500839 7.2 
L 753.500839 34.38 
L 751.507173 34.38 
z
" clip-path="url(#p66faf4fb01)" style="fill: #e2e2ff"/>
    <path d="M 753.500839 34.38 
L 753.500839 7.2 
L 755.494505 7.2 
L 755.494505 34.38 
L 753.500839 34.38 
z
" clip-path="url(#p66faf4fb01)" style="fill: #d2d2ff"/>
    <path d="M 755.494505 34.38 
L 755.494505 7.2 
L 757.488171 7.2 
L 757.488171 34.38 
L 755.494505 34.38 
z
" clip-path="url(#p66faf4fb01)" style="fill: #c6c6ff"/>
    <path d="M 757.488171 34.38 
L 757.488171 7.2 
L 759.481837 7.2 
L 759.481837 34.38 
L 757.488171 34.38 
z
" clip-path="url(#p66faf4fb01)" style="fill: #ceceff"/>
    <path d="M 759.481837 34.38 
L 759.481837 7.2 
L 761.475503 7.2 
L 761.475503 34.38 
L 759.481837 34.38 
z
" clip-path="url(#p66faf4fb01)" style="fill: #ceceff"/>
    <path d="M 761.475503 34.38 
L 761.475503 7.2 
L 763.469169 7.2 
L 763.469169 34.38 
L 761.475503 34.38 
z
" clip-path="url(#p66faf4fb01)" style="fill: #f6f6ff"/>
    <path d="M 763.469169 34.38 
L 763.469169 7.2 
L 765.462835 7.2 
L 765.462835 34.38 
L 763.469169 34.38 
z
" clip-path="url(#p66faf4fb01)" style="fill: #f8f8ff"/>
    <path d="M 765.462835 34.38 
L 765.462835 7.2 
L 767.456502 7.2 
L 767.456502 34.38 
L 765.462835 34.38 
z
" clip-path="url(#p66faf4fb01)" style="fill: #f6f6ff"/>
    <path d="M 767.456502 34.38 
L 767.456502 7.2 
L 769.450168 7.2 
L 769.450168 34.38 
L 767.456502 34.38 
z
" clip-path="url(#p66faf4fb01)" style="fill: #d6d6ff"/>
    <path d="M 769.450168 34.38 
L 769.450168 7.2 
L 771.443834 7.2 
L 771.443834 34.38 
L 769.450168 34.38 
z
" clip-path="url(#p66faf4fb01)" style="fill: #d4d4ff"/>
    <path d="M 771.443834 34.38 
L 771.443834 7.2 
L 773.4375 7.2 
L 773.4375 34.38 
L 771.443834 34.38 
z
" clip-path="url(#p66faf4fb01)" style="fill: #d6d6ff"/>
    <path d="M 773.4375 34.38 
L 773.4375 7.2 
L 775.431166 7.2 
L 775.431166 34.38 
L 773.4375 34.38 
z
" clip-path="url(#p66faf4fb01)" style="fill: #c4c4ff"/>
    <path d="M 775.431166 34.38 
L 775.431166 7.2 
L 777.424832 7.2 
L 777.424832 34.38 
L 775.431166 34.38 
z
" clip-path="url(#p66faf4fb01)" style="fill: #dadaff"/>
    <path d="M 777.424832 34.38 
L 777.424832 7.2 
L 779.418498 7.2 
L 779.418498 34.38 
L 777.424832 34.38 
z
" clip-path="url(#p66faf4fb01)" style="fill: #dedeff"/>
    <path d="M 779.418498 34.38 
L 779.418498 7.2 
L 781.412164 7.2 
L 781.412164 34.38 
L 779.418498 34.38 
z
" clip-path="url(#p66faf4fb01)" style="fill: #dcdcff"/>
    <path d="M 781.412164 34.38 
L 781.412164 7.2 
L 783.40583 7.2 
L 783.40583 34.38 
L 781.412164 34.38 
z
" clip-path="url(#p66faf4fb01)" style="fill: #a8a8ff"/>
    <path d="M 783.40583 34.38 
L 783.40583 7.2 
L 785.399496 7.2 
L 785.399496 34.38 
L 783.40583 34.38 
z
" clip-path="url(#p66faf4fb01)" style="fill: #9c9cff"/>
    <path d="M 785.399496 34.38 
L 785.399496 7.2 
L 787.393163 7.2 
L 787.393163 34.38 
L 785.399496 34.38 
z
" clip-path="url(#p66faf4fb01)" style="fill: #a4a4ff"/>
    <path d="M 787.393163 34.38 
L 787.393163 7.2 
L 789.386829 7.2 
L 789.386829 34.38 
L 787.393163 34.38 
z
" clip-path="url(#p66faf4fb01)" style="fill: #e2e2ff"/>
    <path d="M 789.386829 34.38 
L 789.386829 7.2 
L 791.380495 7.2 
L 791.380495 34.38 
L 789.386829 34.38 
z
" clip-path="url(#p66faf4fb01)" style="fill: #e4e4ff"/>
    <path d="M 791.380495 34.38 
L 791.380495 7.2 
L 793.374161 7.2 
L 793.374161 34.38 
L 791.380495 34.38 
z
" clip-path="url(#p66faf4fb01)" style="fill: #e4e4ff"/>
    <path d="M 793.374161 34.38 
L 793.374161 7.2 
L 795.367827 7.2 
L 795.367827 34.38 
L 793.374161 34.38 
z
" clip-path="url(#p66faf4fb01)" style="fill: #a0a0ff"/>
    <path d="M 795.367827 34.38 
L 795.367827 7.2 
L 797.361493 7.2 
L 797.361493 34.38 
L 795.367827 34.38 
z
" clip-path="url(#p66faf4fb01)" style="fill: #a4a4ff"/>
    <path d="M 797.361493 34.38 
L 797.361493 7.2 
L 799.355159 7.2 
L 799.355159 34.38 
L 797.361493 34.38 
z
" clip-path="url(#p66faf4fb01)" style="fill: #a0a0ff"/>
    <path d="M 799.355159 34.38 
L 799.355159 7.2 
L 801.348825 7.2 
L 801.348825 34.38 
L 799.355159 34.38 
z
" clip-path="url(#p66faf4fb01)" style="fill: #dadaff"/>
    <path d="M 801.348825 34.38 
L 801.348825 7.2 
L 803.342491 7.2 
L 803.342491 34.38 
L 801.348825 34.38 
z
" clip-path="url(#p66faf4fb01)" style="fill: #dedeff"/>
    <path d="M 803.342491 34.38 
L 803.342491 7.2 
L 805.336158 7.2 
L 805.336158 34.38 
L 803.342491 34.38 
z
" clip-path="url(#p66faf4fb01)" style="fill: #dcdcff"/>
    <path d="M 805.336158 34.38 
L 805.336158 7.2 
L 807.329824 7.2 
L 807.329824 34.38 
L 805.336158 34.38 
z
" clip-path="url(#p66faf4fb01)" style="fill: #a4a4ff"/>
    <path d="M 807.329824 34.38 
L 807.329824 7.2 
L 809.32349 7.2 
L 809.32349 34.38 
L 807.329824 34.38 
z
" clip-path="url(#p66faf4fb01)" style="fill: #a0a0ff"/>
    <path d="M 809.32349 34.38 
L 809.32349 7.2 
L 811.317156 7.2 
L 811.317156 34.38 
L 809.32349 34.38 
z
" clip-path="url(#p66faf4fb01)" style="fill: #a8a8ff"/>
    <path d="M 811.317156 34.38 
L 811.317156 7.2 
L 813.310822 7.2 
L 813.310822 34.38 
L 811.317156 34.38 
z
" clip-path="url(#p66faf4fb01)" style="fill: #e4e4ff"/>
    <path d="M 813.310822 34.38 
L 813.310822 7.2 
L 815.304488 7.2 
L 815.304488 34.38 
L 813.310822 34.38 
z
" clip-path="url(#p66faf4fb01)" style="fill: #e8e8ff"/>
    <path d="M 815.304488 34.38 
L 815.304488 7.2 
L 817.298154 7.2 
L 817.298154 34.38 
L 815.304488 34.38 
z
" clip-path="url(#p66faf4fb01)" style="fill: #e6e6ff"/>
    <path d="M 817.298154 34.38 
L 817.298154 7.2 
L 819.29182 7.2 
L 819.29182 34.38 
L 817.298154 34.38 
z
" clip-path="url(#p66faf4fb01)" style="fill: #acacff"/>
    <path d="M 819.29182 34.38 
L 819.29182 7.2 
L 821.285486 7.2 
L 821.285486 34.38 
L 819.29182 34.38 
z
" clip-path="url(#p66faf4fb01)" style="fill: #a4a4ff"/>
    <path d="M 821.285486 34.38 
L 821.285486 7.2 
L 823.279153 7.2 
L 823.279153 34.38 
L 821.285486 34.38 
z
" clip-path="url(#p66faf4fb01)" style="fill: #aeaeff"/>
    <path d="M 823.279153 34.38 
L 823.279153 7.2 
L 825.272819 7.2 
L 825.272819 34.38 
L 823.279153 34.38 
z
" clip-path="url(#p66faf4fb01)" style="fill: #e0e0ff"/>
    <path d="M 825.272819 34.38 
L 825.272819 7.2 
L 827.266485 7.2 
L 827.266485 34.38 
L 825.272819 34.38 
z
" clip-path="url(#p66faf4fb01)" style="fill: #dedeff"/>
    <path d="M 827.266485 34.38 
L 827.266485 7.2 
L 829.260151 7.2 
L 829.260151 34.38 
L 827.266485 34.38 
z
" clip-path="url(#p66faf4fb01)" style="fill: #e0e0ff"/>
    <path d="M 829.260151 34.38 
L 829.260151 7.2 
L 831.253817 7.2 
L 831.253817 34.38 
L 829.260151 34.38 
z
" clip-path="url(#p66faf4fb01)" style="fill: #ffb2b2"/>
    <path d="M 831.253817 34.38 
L 831.253817 7.2 
L 833.247483 7.2 
L 833.247483 34.38 
L 831.253817 34.38 
z
" clip-path="url(#p66faf4fb01)" style="fill: #ffbcbc"/>
    <path d="M 833.247483 34.38 
L 833.247483 7.2 
L 835.241149 7.2 
L 835.241149 34.38 
L 833.247483 34.38 
z
" clip-path="url(#p66faf4fb01)" style="fill: #ffcece"/>
    <path d="M 835.241149 34.38 
L 835.241149 7.2 
L 837.234815 7.2 
L 837.234815 34.38 
L 835.241149 34.38 
z
" clip-path="url(#p66faf4fb01)" style="fill: #5e5eff"/>
    <path d="M 837.234815 34.38 
L 837.234815 7.2 
L 839.228481 7.2 
L 839.228481 34.38 
L 837.234815 34.38 
z
" clip-path="url(#p66faf4fb01)" style="fill: #d6d6ff"/>
    <path d="M 839.228481 34.38 
L 839.228481 7.2 
L 841.222147 7.2 
L 841.222147 34.38 
L 839.228481 34.38 
z
" clip-path="url(#p66faf4fb01)" style="fill: #eeeeff"/>
    <path d="M 841.222147 34.38 
L 841.222147 7.2 
L 843.215814 7.2 
L 843.215814 34.38 
L 841.222147 34.38 
z
" clip-path="url(#p66faf4fb01)" style="fill: #ffe8e8"/>
    <path d="M 843.215814 34.38 
L 843.215814 7.2 
L 845.20948 7.2 
L 845.20948 34.38 
L 843.215814 34.38 
z
" clip-path="url(#p66faf4fb01)" style="fill: #ffd4d4"/>
    <path d="M 845.20948 34.38 
L 845.20948 7.2 
L 847.203146 7.2 
L 847.203146 34.38 
L 845.20948 34.38 
z
" clip-path="url(#p66faf4fb01)" style="fill: #ffc0c0"/>
    <path d="M 847.203146 34.38 
L 847.203146 7.2 
L 849.196812 7.2 
L 849.196812 34.38 
L 847.203146 34.38 
z
" clip-path="url(#p66faf4fb01)" style="fill: #ffc8c8"/>
    <path d="M 849.196812 34.38 
L 849.196812 7.2 
L 851.190478 7.2 
L 851.190478 34.38 
L 849.196812 34.38 
z
" clip-path="url(#p66faf4fb01)" style="fill: #ffe6e6"/>
    <path d="M 851.190478 34.38 
L 851.190478 7.2 
L 853.184144 7.2 
L 853.184144 34.38 
L 851.190478 34.38 
z
" clip-path="url(#p66faf4fb01)" style="fill: #ffeeee"/>
    <path d="M 853.184144 34.38 
L 853.184144 7.2 
L 855.17781 7.2 
L 855.17781 34.38 
L 853.184144 34.38 
z
" clip-path="url(#p66faf4fb01)" style="fill: #ffdada"/>
    <path d="M 855.17781 34.38 
L 855.17781 7.2 
L 857.171476 7.2 
L 857.171476 34.38 
L 855.17781 34.38 
z
" clip-path="url(#p66faf4fb01)" style="fill: #d8d8ff"/>
    <path d="M 857.171476 34.38 
L 857.171476 7.2 
L 859.165142 7.2 
L 859.165142 34.38 
L 857.171476 34.38 
z
" clip-path="url(#p66faf4fb01)" style="fill: #9c9cff"/>
    <path d="M 859.165142 34.38 
L 859.165142 7.2 
L 861.158809 7.2 
L 861.158809 34.38 
L 859.165142 34.38 
z
" clip-path="url(#p66faf4fb01)" style="fill: #e8e8ff"/>
    <path d="M 861.158809 34.38 
L 861.158809 7.2 
L 863.152475 7.2 
L 863.152475 34.38 
L 861.158809 34.38 
z
" clip-path="url(#p66faf4fb01)" style="fill: #9090ff"/>
    <path d="M 863.152475 34.38 
L 863.152475 7.2 
L 865.146141 7.2 
L 865.146141 34.38 
L 863.152475 34.38 
z
" clip-path="url(#p66faf4fb01)" style="fill: #4848ff"/>
    <path d="M 865.146141 34.38 
L 865.146141 7.2 
L 867.139807 7.2 
L 867.139807 34.38 
L 865.146141 34.38 
z
" clip-path="url(#p66faf4fb01)" style="fill: #5454ff"/>
    <path d="M 867.139807 34.38 
L 867.139807 7.2 
L 869.133473 7.2 
L 869.133473 34.38 
L 867.139807 34.38 
z
" clip-path="url(#p66faf4fb01)" style="fill: #aaaaff"/>
    <path d="M 869.133473 34.38 
L 869.133473 7.2 
L 871.127139 7.2 
L 871.127139 34.38 
L 869.133473 34.38 
z
" clip-path="url(#p66faf4fb01)" style="fill: #5252ff"/>
    <path d="M 871.127139 34.38 
L 871.127139 7.2 
L 873.120805 7.2 
L 873.120805 34.38 
L 871.127139 34.38 
z
" clip-path="url(#p66faf4fb01)" style="fill: #d2d2ff"/>
    <path d="M 873.120805 34.38 
L 873.120805 7.2 
L 875.114471 7.2 
L 875.114471 34.38 
L 873.120805 34.38 
z
" clip-path="url(#p66faf4fb01)" style="fill: #6464ff"/>
    <path d="M 875.114471 34.38 
L 875.114471 7.2 
L 877.108137 7.2 
L 877.108137 34.38 
L 875.114471 34.38 
z
" clip-path="url(#p66faf4fb01)" style="fill: #b4b4ff"/>
    <path d="M 877.108137 34.38 
L 877.108137 7.2 
L 879.101804 7.2 
L 879.101804 34.38 
L 877.108137 34.38 
z
" clip-path="url(#p66faf4fb01)" style="fill: #5252ff"/>
    <path d="M 879.101804 34.38 
L 879.101804 7.2 
L 881.09547 7.2 
L 881.09547 34.38 
L 879.101804 34.38 
z
" clip-path="url(#p66faf4fb01)" style="fill: #ceceff"/>
    <path d="M 881.09547 34.38 
L 881.09547 7.2 
L 883.089136 7.2 
L 883.089136 34.38 
L 881.09547 34.38 
z
" clip-path="url(#p66faf4fb01)" style="fill: #7a7aff"/>
    <path d="M 883.089136 34.38 
L 883.089136 7.2 
L 885.082802 7.2 
L 885.082802 34.38 
L 883.089136 34.38 
z
" clip-path="url(#p66faf4fb01)" style="fill: #4c4cff"/>
    <path d="M 885.082802 34.38 
L 885.082802 7.2 
L 887.076468 7.2 
L 887.076468 34.38 
L 885.082802 34.38 
z
" clip-path="url(#p66faf4fb01)" style="fill: #4444ff"/>
    <path d="M 887.076468 34.38 
L 887.076468 7.2 
L 889.070134 7.2 
L 889.070134 34.38 
L 887.076468 34.38 
z
" clip-path="url(#p66faf4fb01)" style="fill: #4444ff"/>
    <path d="M 889.070134 34.38 
L 889.070134 7.2 
L 891.0638 7.2 
L 891.0638 34.38 
L 889.070134 34.38 
z
" clip-path="url(#p66faf4fb01)" style="fill: #5050ff"/>
    <path d="M 891.0638 34.38 
L 891.0638 7.2 
L 893.057466 7.2 
L 893.057466 34.38 
L 891.0638 34.38 
z
" clip-path="url(#p66faf4fb01)" style="fill: #5050ff"/>
    <path d="M 893.057466 34.38 
L 893.057466 7.2 
L 895.051132 7.2 
L 895.051132 34.38 
L 893.057466 34.38 
z
" clip-path="url(#p66faf4fb01)" style="fill: #b2b2ff"/>
    <path d="M 895.051132 34.38 
L 895.051132 7.2 
L 897.044798 7.2 
L 897.044798 34.38 
L 895.051132 34.38 
z
" clip-path="url(#p66faf4fb01)" style="fill: #5c5cff"/>
    <path d="M 897.044798 34.38 
L 897.044798 7.2 
L 899.038465 7.2 
L 899.038465 34.38 
L 897.044798 34.38 
z
" clip-path="url(#p66faf4fb01)" style="fill: #9292ff"/>
    <path d="M 899.038465 34.38 
L 899.038465 7.2 
L 901.032131 7.2 
L 901.032131 34.38 
L 899.038465 34.38 
z
" clip-path="url(#p66faf4fb01)" style="fill: #b0b0ff"/>
    <path d="M 901.032131 34.38 
L 901.032131 7.2 
L 903.025797 7.2 
L 903.025797 34.38 
L 901.032131 34.38 
z
" clip-path="url(#p66faf4fb01)" style="fill: #5656ff"/>
    <path d="M 903.025797 34.38 
L 903.025797 7.2 
L 905.019463 7.2 
L 905.019463 34.38 
L 903.025797 34.38 
z
" clip-path="url(#p66faf4fb01)" style="fill: #4848ff"/>
    <path d="M 905.019463 34.38 
L 905.019463 7.2 
L 907.013129 7.2 
L 907.013129 34.38 
L 905.019463 34.38 
z
" clip-path="url(#p66faf4fb01)" style="fill: #b8b8ff"/>
    <path d="M 907.013129 34.38 
L 907.013129 7.2 
L 909.006795 7.2 
L 909.006795 34.38 
L 907.013129 34.38 
z
" clip-path="url(#p66faf4fb01)" style="fill: #b0b0ff"/>
    <path d="M 909.006795 34.38 
L 909.006795 7.2 
L 911.000461 7.2 
L 911.000461 34.38 
L 909.006795 34.38 
z
" clip-path="url(#p66faf4fb01)" style="fill: #bcbcff"/>
    <path d="M 911.000461 34.38 
L 911.000461 7.2 
L 912.994127 7.2 
L 912.994127 34.38 
L 911.000461 34.38 
z
" clip-path="url(#p66faf4fb01)" style="fill: #ffb0b0"/>
    <path d="M 912.994127 34.38 
L 912.994127 7.2 
L 914.987793 7.2 
L 914.987793 34.38 
L 912.994127 34.38 
z
" clip-path="url(#p66faf4fb01)" style="fill: #ff0000"/>
    <path d="M 914.987793 34.38 
L 914.987793 7.2 
L 916.98146 7.2 
L 916.98146 34.38 
L 914.987793 34.38 
z
" clip-path="url(#p66faf4fb01)" style="fill: #ff0c0c"/>
    <path d="M 916.98146 34.38 
L 916.98146 7.2 
L 918.975126 7.2 
L 918.975126 34.38 
L 916.98146 34.38 
z
" clip-path="url(#p66faf4fb01)" style="fill: #ff0c0c"/>
    <path d="M 918.975126 34.38 
L 918.975126 7.2 
L 920.968792 7.2 
L 920.968792 34.38 
L 918.975126 34.38 
z
" clip-path="url(#p66faf4fb01)" style="fill: #ff7676"/>
    <path d="M 920.968792 34.38 
L 920.968792 7.2 
L 922.962458 7.2 
L 922.962458 34.38 
L 920.968792 34.38 
z
" clip-path="url(#p66faf4fb01)" style="fill: #ff7272"/>
    <path d="M 922.962458 34.38 
L 922.962458 7.2 
L 924.956124 7.2 
L 924.956124 34.38 
L 922.962458 34.38 
z
" clip-path="url(#p66faf4fb01)" style="fill: #6e6eff"/>
    <path d="M 924.956124 34.38 
L 924.956124 7.2 
L 926.94979 7.2 
L 926.94979 34.38 
L 924.956124 34.38 
z
" clip-path="url(#p66faf4fb01)" style="fill: #6868ff"/>
    <path d="M 926.94979 34.38 
L 926.94979 7.2 
L 928.943456 7.2 
L 928.943456 34.38 
L 926.94979 34.38 
z
" clip-path="url(#p66faf4fb01)" style="fill: #c2c2ff"/>
    <path d="M 928.943456 34.38 
L 928.943456 7.2 
L 930.937122 7.2 
L 930.937122 34.38 
L 928.943456 34.38 
z
" clip-path="url(#p66faf4fb01)" style="fill: #c8c8ff"/>
    <path d="M 930.937122 34.38 
L 930.937122 7.2 
L 932.930788 7.2 
L 932.930788 34.38 
L 930.937122 34.38 
z
" clip-path="url(#p66faf4fb01)" style="fill: #c0c0ff"/>
    <path d="M 932.930788 34.38 
L 932.930788 7.2 
L 934.924454 7.2 
L 934.924454 34.38 
L 932.930788 34.38 
z
" clip-path="url(#p66faf4fb01)" style="fill: #8686ff"/>
    <path d="M 934.924454 34.38 
L 934.924454 7.2 
L 936.918121 7.2 
L 936.918121 34.38 
L 934.924454 34.38 
z
" clip-path="url(#p66faf4fb01)" style="fill: #9292ff"/>
    <path d="M 936.918121 34.38 
L 936.918121 7.2 
L 938.911787 7.2 
L 938.911787 34.38 
L 936.918121 34.38 
z
" clip-path="url(#p66faf4fb01)" style="fill: #9090ff"/>
    <path d="M 938.911787 34.38 
L 938.911787 7.2 
L 940.905453 7.2 
L 940.905453 34.38 
L 938.911787 34.38 
z
" clip-path="url(#p66faf4fb01)" style="fill: #2e2eff"/>
    <path d="M 940.905453 34.38 
L 940.905453 7.2 
L 942.899119 7.2 
L 942.899119 34.38 
L 940.905453 34.38 
z
" clip-path="url(#p66faf4fb01)" style="fill: #3a3aff"/>
    <path d="M 942.899119 34.38 
L 942.899119 7.2 
L 944.892785 7.2 
L 944.892785 34.38 
L 942.899119 34.38 
z
" clip-path="url(#p66faf4fb01)" style="fill: #5e5eff"/>
    <path d="M 944.892785 34.38 
L 944.892785 7.2 
L 946.886451 7.2 
L 946.886451 34.38 
L 944.892785 34.38 
z
" clip-path="url(#p66faf4fb01)" style="fill: #4a4aff"/>
    <path d="M 946.886451 34.38 
L 946.886451 7.2 
L 948.880117 7.2 
L 948.880117 34.38 
L 946.886451 34.38 
z
" clip-path="url(#p66faf4fb01)" style="fill: #a6a6ff"/>
    <path d="M 948.880117 34.38 
L 948.880117 7.2 
L 950.873783 7.2 
L 950.873783 34.38 
L 948.880117 34.38 
z
" clip-path="url(#p66faf4fb01)" style="fill: #babaff"/>
    <path d="M 950.873783 34.38 
L 950.873783 7.2 
L 952.867449 7.2 
L 952.867449 34.38 
L 950.873783 34.38 
z
" clip-path="url(#p66faf4fb01)" style="fill: #b4b4ff"/>
    <path d="M 952.867449 34.38 
L 952.867449 7.2 
L 954.861116 7.2 
L 954.861116 34.38 
L 952.867449 34.38 
z
" clip-path="url(#p66faf4fb01)" style="fill: #8c8cff"/>
    <path d="M 954.861116 34.38 
L 954.861116 7.2 
L 956.854782 7.2 
L 956.854782 34.38 
L 954.861116 34.38 
z
" clip-path="url(#p66faf4fb01)" style="fill: #7878ff"/>
    <path d="M 956.854782 34.38 
L 956.854782 7.2 
L 958.848448 7.2 
L 958.848448 34.38 
L 956.854782 34.38 
z
" clip-path="url(#p66faf4fb01)" style="fill: #ff5e5e"/>
    <path d="M 958.848448 34.38 
L 958.848448 7.2 
L 960.842114 7.2 
L 960.842114 34.38 
L 958.848448 34.38 
z
" clip-path="url(#p66faf4fb01)" style="fill: #ff2626"/>
    <path d="M 960.842114 34.38 
L 960.842114 7.2 
L 962.83578 7.2 
L 962.83578 34.38 
L 960.842114 34.38 
z
" clip-path="url(#p66faf4fb01)" style="fill: #ff2424"/>
    <path d="M 962.83578 34.38 
L 962.83578 7.2 
L 964.829446 7.2 
L 964.829446 34.38 
L 962.83578 34.38 
z
" clip-path="url(#p66faf4fb01)" style="fill: #ffb8b8"/>
    <path d="M 964.829446 34.38 
L 964.829446 7.2 
L 966.823112 7.2 
L 966.823112 34.38 
L 964.829446 34.38 
z
" clip-path="url(#p66faf4fb01)" style="fill: #ffaeae"/>
    <path d="M 966.823112 34.38 
L 966.823112 7.2 
L 968.816778 7.2 
L 968.816778 34.38 
L 966.823112 34.38 
z
" clip-path="url(#p66faf4fb01)" style="fill: #ff4c4c"/>
    <path d="M 968.816778 34.38 
L 968.816778 7.2 
L 970.810444 7.2 
L 970.810444 34.38 
L 968.816778 34.38 
z
" clip-path="url(#p66faf4fb01)" style="fill: #ff6a6a"/>
    <path d="M 970.810444 34.38 
L 970.810444 7.2 
L 972.804111 7.2 
L 972.804111 34.38 
L 970.810444 34.38 
z
" clip-path="url(#p66faf4fb01)" style="fill: #ff7070"/>
    <path d="M 972.804111 34.38 
L 972.804111 7.2 
L 974.797777 7.2 
L 974.797777 34.38 
L 972.804111 34.38 
z
" clip-path="url(#p66faf4fb01)" style="fill: #4848ff"/>
    <path d="M 974.797777 34.38 
L 974.797777 7.2 
L 976.791443 7.2 
L 976.791443 34.38 
L 974.797777 34.38 
z
" clip-path="url(#p66faf4fb01)" style="fill: #3838ff"/>
    <path d="M 976.791443 34.38 
L 976.791443 7.2 
L 978.785109 7.2 
L 978.785109 34.38 
L 976.791443 34.38 
z
" clip-path="url(#p66faf4fb01)" style="fill: #9898ff"/>
    <path d="M 978.785109 34.38 
L 978.785109 7.2 
L 980.778775 7.2 
L 980.778775 34.38 
L 978.785109 34.38 
z
" clip-path="url(#p66faf4fb01)" style="fill: #a8a8ff"/>
    <path d="M 980.778775 34.38 
L 980.778775 7.2 
L 982.772441 7.2 
L 982.772441 34.38 
L 980.778775 34.38 
z
" clip-path="url(#p66faf4fb01)" style="fill: #a2a2ff"/>
    <path d="M 982.772441 34.38 
L 982.772441 7.2 
L 984.766107 7.2 
L 984.766107 34.38 
L 982.772441 34.38 
z
" clip-path="url(#p66faf4fb01)" style="fill: #3838ff"/>
    <path d="M 984.766107 34.38 
L 984.766107 7.2 
L 986.759773 7.2 
L 986.759773 34.38 
L 984.766107 34.38 
z
" clip-path="url(#p66faf4fb01)" style="fill: #8686ff"/>
    <path d="M 986.759773 34.38 
L 986.759773 7.2 
L 988.753439 7.2 
L 988.753439 34.38 
L 986.759773 34.38 
z
" clip-path="url(#p66faf4fb01)" style="fill: #5858ff"/>
    <path d="M 988.753439 34.38 
L 988.753439 7.2 
L 990.747105 7.2 
L 990.747105 34.38 
L 988.753439 34.38 
z
" clip-path="url(#p66faf4fb01)" style="fill: #0000ff"/>
    <path d="M 990.747105 34.38 
L 990.747105 7.2 
L 992.740772 7.2 
L 992.740772 34.38 
L 990.747105 34.38 
z
" clip-path="url(#p66faf4fb01)" style="fill: #1818ff"/>
    <path d="M 992.740772 34.38 
L 992.740772 7.2 
L 994.734438 7.2 
L 994.734438 34.38 
L 992.740772 34.38 
z
" clip-path="url(#p66faf4fb01)" style="fill: #ff3a3a"/>
    <path d="M 994.734438 34.38 
L 994.734438 7.2 
L 996.728104 7.2 
L 996.728104 34.38 
L 994.734438 34.38 
z
" clip-path="url(#p66faf4fb01)" style="fill: #ff3e3e"/>
    <path d="M 996.728104 34.38 
L 996.728104 7.2 
L 998.72177 7.2 
L 998.72177 34.38 
L 996.728104 34.38 
z
" clip-path="url(#p66faf4fb01)" style="fill: #ff5050"/>
    <path d="M 998.72177 34.38 
L 998.72177 7.2 
L 1000.715436 7.2 
L 1000.715436 34.38 
L 998.72177 34.38 
z
" clip-path="url(#p66faf4fb01)" style="fill: #ff9898"/>
    <path d="M 1000.715436 34.38 
L 1000.715436 7.2 
L 1002.709102 7.2 
L 1002.709102 34.38 
L 1000.715436 34.38 
z
" clip-path="url(#p66faf4fb01)" style="fill: #ffb2b2"/>
    <path d="M 1002.709102 34.38 
L 1002.709102 7.2 
L 1004.702768 7.2 
L 1004.702768 34.38 
L 1002.709102 34.38 
z
" clip-path="url(#p66faf4fb01)" style="fill: #ffaaaa"/>
    <path d="M 1004.702768 34.38 
L 1004.702768 7.2 
L 1006.696434 7.2 
L 1006.696434 34.38 
L 1004.702768 34.38 
z
" clip-path="url(#p66faf4fb01)" style="fill: #4242ff"/>
    <path d="M 1006.696434 34.38 
L 1006.696434 7.2 
L 1008.6901 7.2 
L 1008.6901 34.38 
L 1006.696434 34.38 
z
" clip-path="url(#p66faf4fb01)" style="fill: #4040ff"/>
    <path d="M 1008.6901 34.38 
L 1008.6901 7.2 
L 1010.683767 7.2 
L 1010.683767 34.38 
L 1008.6901 34.38 
z
" clip-path="url(#p66faf4fb01)" style="fill: #4444ff"/>
    <path d="M 1010.683767 34.38 
L 1010.683767 7.2 
L 1012.677433 7.2 
L 1012.677433 34.38 
L 1010.683767 34.38 
z
" clip-path="url(#p66faf4fb01)" style="fill: #9696ff"/>
    <path d="M 1012.677433 34.38 
L 1012.677433 7.2 
L 1014.671099 7.2 
L 1014.671099 34.38 
L 1012.677433 34.38 
z
" clip-path="url(#p66faf4fb01)" style="fill: #9898ff"/>
    <path d="M 1014.671099 34.38 
L 1014.671099 7.2 
L 1016.664765 7.2 
L 1016.664765 34.38 
L 1014.671099 34.38 
z
" clip-path="url(#p66faf4fb01)" style="fill: #9898ff"/>
    <path d="M 1016.664765 34.38 
L 1016.664765 7.2 
L 1018.658431 7.2 
L 1018.658431 34.38 
L 1016.664765 34.38 
z
" clip-path="url(#p66faf4fb01)" style="fill: #5c5cff"/>
    <path d="M 1018.658431 34.38 
L 1018.658431 7.2 
L 1020.652097 7.2 
L 1020.652097 34.38 
L 1018.658431 34.38 
z
" clip-path="url(#p66faf4fb01)" style="fill: #7272ff"/>
    <path d="M 1020.652097 34.38 
L 1020.652097 7.2 
L 1022.645763 7.2 
L 1022.645763 34.38 
L 1020.652097 34.38 
z
" clip-path="url(#p66faf4fb01)" style="fill: #7070ff"/>
    <path d="M 1022.645763 34.38 
L 1022.645763 7.2 
L 1024.639429 7.2 
L 1024.639429 34.38 
L 1022.645763 34.38 
z
" clip-path="url(#p66faf4fb01)" style="fill: #b8b8ff"/>
    <path d="M 1024.639429 34.38 
L 1024.639429 7.2 
L 1026.633095 7.2 
L 1026.633095 34.38 
L 1024.639429 34.38 
z
" clip-path="url(#p66faf4fb01)" style="fill: #bcbcff"/>
    <path d="M 1026.633095 34.38 
L 1026.633095 7.2 
L 1028.626762 7.2 
L 1028.626762 34.38 
L 1026.633095 34.38 
z
" clip-path="url(#p66faf4fb01)" style="fill: #bebeff"/>
    <path d="M 1028.626762 34.38 
L 1028.626762 7.2 
L 1030.620428 7.2 
L 1030.620428 34.38 
L 1028.626762 34.38 
z
" clip-path="url(#p66faf4fb01)" style="fill: #7272ff"/>
    <path d="M 1030.620428 34.38 
L 1030.620428 7.2 
L 1032.614094 7.2 
L 1032.614094 34.38 
L 1030.620428 34.38 
z
" clip-path="url(#p66faf4fb01)" style="fill: #7474ff"/>
    <path d="M 1032.614094 34.38 
L 1032.614094 7.2 
L 1034.60776 7.2 
L 1034.60776 34.38 
L 1032.614094 34.38 
z
" clip-path="url(#p66faf4fb01)" style="fill: #7272ff"/>
    <path d="M 1034.60776 34.38 
L 1034.60776 7.2 
L 1036.601426 7.2 
L 1036.601426 34.38 
L 1034.60776 34.38 
z
" clip-path="url(#p66faf4fb01)" style="fill: #bebeff"/>
    <path d="M 1036.601426 34.38 
L 1036.601426 7.2 
L 1038.595092 7.2 
L 1038.595092 34.38 
L 1036.601426 34.38 
z
" clip-path="url(#p66faf4fb01)" style="fill: #c0c0ff"/>
    <path d="M 1038.595092 34.38 
L 1038.595092 7.2 
L 1040.588758 7.2 
L 1040.588758 34.38 
L 1038.595092 34.38 
z
" clip-path="url(#p66faf4fb01)" style="fill: #bebeff"/>
    <path d="M 1040.588758 34.38 
L 1040.588758 7.2 
L 1042.582424 7.2 
L 1042.582424 34.38 
L 1040.588758 34.38 
z
" clip-path="url(#p66faf4fb01)" style="fill: #7e7eff"/>
    <path d="M 1042.582424 34.38 
L 1042.582424 7.2 
L 1044.57609 7.2 
L 1044.57609 34.38 
L 1042.582424 34.38 
z
" clip-path="url(#p66faf4fb01)" style="fill: #7676ff"/>
    <path d="M 1044.57609 34.38 
L 1044.57609 7.2 
L 1046.569756 7.2 
L 1046.569756 34.38 
L 1044.57609 34.38 
z
" clip-path="url(#p66faf4fb01)" style="fill: #7878ff"/>
   </g>
   <g id="patch_3">
    <path d="M 179.325 34.38 
L 179.325 7.2 
" style="fill: none; stroke: #262626; stroke-width: 1.25; stroke-linejoin: miter; stroke-linecap: square"/>
   </g>
   <g id="patch_4">
    <path d="M 1046.569756 34.38 
L 1046.569756 7.2 
" style="fill: none; stroke: #262626; stroke-width: 1.25; stroke-linejoin: miter; stroke-linecap: square"/>
   </g>
   <g id="patch_5">
    <path d="M 179.325 34.38 
L 1046.569756 34.38 
" style="fill: none; stroke: #262626; stroke-width: 1.25; stroke-linejoin: miter; stroke-linecap: square"/>
   </g>
   <g id="patch_6">
    <path d="M 179.325 7.2 
L 1046.569756 7.2 
" style="fill: none; stroke: #262626; stroke-width: 1.25; stroke-linejoin: miter; stroke-linecap: square"/>
   </g>
   <g id="text_6">
    <!-- Cells -->
    <g style="fill: #262626" transform="translate(330.776379 64.278)scale(0.18 -0.18)">
     <defs>
      <path id="ArialMT-43" d="M 3763 1606 
L 4369 1453 
Q 4178 706 3683 314 
Q 3188 -78 2472 -78 
Q 1731 -78 1267 223 
Q 803 525 561 1097 
Q 319 1669 319 2325 
Q 319 3041 592 3573 
Q 866 4106 1370 4382 
Q 1875 4659 2481 4659 
Q 3169 4659 3637 4309 
Q 4106 3959 4291 3325 
L 3694 3184 
Q 3534 3684 3231 3912 
Q 2928 4141 2469 4141 
Q 1941 4141 1586 3887 
Q 1231 3634 1087 3207 
Q 944 2781 944 2328 
Q 944 1744 1114 1308 
Q 1284 872 1643 656 
Q 2003 441 2422 441 
Q 2931 441 3284 734 
Q 3638 1028 3763 1606 
z
" transform="scale(0.015625)"/>
      <path id="ArialMT-65" d="M 2694 1069 
L 3275 997 
Q 3138 488 2766 206 
Q 2394 -75 1816 -75 
Q 1088 -75 661 373 
Q 234 822 234 1631 
Q 234 2469 665 2931 
Q 1097 3394 1784 3394 
Q 2450 3394 2872 2941 
Q 3294 2488 3294 1666 
Q 3294 1616 3291 1516 
L 816 1516 
Q 847 969 1125 678 
Q 1403 388 1819 388 
Q 2128 388 2347 550 
Q 2566 713 2694 1069 
z
M 847 1978 
L 2700 1978 
Q 2663 2397 2488 2606 
Q 2219 2931 1791 2931 
Q 1403 2931 1139 2672 
Q 875 2413 847 1978 
z
" transform="scale(0.015625)"/>
      <path id="ArialMT-6c" d="M 409 0 
L 409 4581 
L 972 4581 
L 972 0 
L 409 0 
z
" transform="scale(0.015625)"/>
      <path id="ArialMT-73" d="M 197 991 
L 753 1078 
Q 800 744 1014 566 
Q 1228 388 1613 388 
Q 2000 388 2187 545 
Q 2375 703 2375 916 
Q 2375 1106 2209 1216 
Q 2094 1291 1634 1406 
Q 1016 1563 777 1677 
Q 538 1791 414 1992 
Q 291 2194 291 2438 
Q 291 2659 392 2848 
Q 494 3038 669 3163 
Q 800 3259 1026 3326 
Q 1253 3394 1513 3394 
Q 1903 3394 2198 3281 
Q 2494 3169 2634 2976 
Q 2775 2784 2828 2463 
L 2278 2388 
Q 2241 2644 2061 2787 
Q 1881 2931 1553 2931 
Q 1166 2931 1000 2803 
Q 834 2675 834 2503 
Q 834 2394 903 2306 
Q 972 2216 1119 2156 
Q 1203 2125 1616 2013 
Q 2213 1853 2448 1751 
Q 2684 1650 2818 1456 
Q 2953 1263 2953 975 
Q 2953 694 2789 445 
Q 2625 197 2315 61 
Q 2006 -75 1616 -75 
Q 969 -75 630 194 
Q 291 463 197 991 
z
" transform="scale(0.015625)"/>
     </defs>
     <use xlink:href="#ArialMT-43"/>
     <use xlink:href="#ArialMT-65" x="72.216797"/>
     <use xlink:href="#ArialMT-6c" x="127.832031"/>
     <use xlink:href="#ArialMT-6c" x="150.048828"/>
     <use xlink:href="#ArialMT-73" x="172.265625"/>
    </g>
   </g>
   <g id="text_7">
    <!-- Cytoplasm -->
    <g style="fill: #262626" transform="translate(633.236923 64.278)scale(0.18 -0.18)">
     <defs>
      <path id="ArialMT-79" d="M 397 -1278 
L 334 -750 
Q 519 -800 656 -800 
Q 844 -800 956 -737 
Q 1069 -675 1141 -563 
Q 1194 -478 1313 -144 
Q 1328 -97 1363 -6 
L 103 3319 
L 709 3319 
L 1400 1397 
Q 1534 1031 1641 628 
Q 1738 1016 1872 1384 
L 2581 3319 
L 3144 3319 
L 1881 -56 
Q 1678 -603 1566 -809 
Q 1416 -1088 1222 -1217 
Q 1028 -1347 759 -1347 
Q 597 -1347 397 -1278 
z
" transform="scale(0.015625)"/>
      <path id="ArialMT-74" d="M 1650 503 
L 1731 6 
Q 1494 -44 1306 -44 
Q 1000 -44 831 53 
Q 663 150 594 308 
Q 525 466 525 972 
L 525 2881 
L 113 2881 
L 113 3319 
L 525 3319 
L 525 4141 
L 1084 4478 
L 1084 3319 
L 1650 3319 
L 1650 2881 
L 1084 2881 
L 1084 941 
Q 1084 700 1114 631 
Q 1144 563 1211 522 
Q 1278 481 1403 481 
Q 1497 481 1650 503 
z
" transform="scale(0.015625)"/>
      <path id="ArialMT-6f" d="M 213 1659 
Q 213 2581 725 3025 
Q 1153 3394 1769 3394 
Q 2453 3394 2887 2945 
Q 3322 2497 3322 1706 
Q 3322 1066 3130 698 
Q 2938 331 2570 128 
Q 2203 -75 1769 -75 
Q 1072 -75 642 372 
Q 213 819 213 1659 
z
M 791 1659 
Q 791 1022 1069 705 
Q 1347 388 1769 388 
Q 2188 388 2466 706 
Q 2744 1025 2744 1678 
Q 2744 2294 2464 2611 
Q 2184 2928 1769 2928 
Q 1347 2928 1069 2612 
Q 791 2297 791 1659 
z
" transform="scale(0.015625)"/>
      <path id="ArialMT-70" d="M 422 -1272 
L 422 3319 
L 934 3319 
L 934 2888 
Q 1116 3141 1344 3267 
Q 1572 3394 1897 3394 
Q 2322 3394 2647 3175 
Q 2972 2956 3137 2557 
Q 3303 2159 3303 1684 
Q 3303 1175 3120 767 
Q 2938 359 2589 142 
Q 2241 -75 1856 -75 
Q 1575 -75 1351 44 
Q 1128 163 984 344 
L 984 -1272 
L 422 -1272 
z
M 931 1641 
Q 931 1000 1190 694 
Q 1450 388 1819 388 
Q 2194 388 2461 705 
Q 2728 1022 2728 1688 
Q 2728 2322 2467 2637 
Q 2206 2953 1844 2953 
Q 1484 2953 1207 2617 
Q 931 2281 931 1641 
z
" transform="scale(0.015625)"/>
      <path id="ArialMT-61" d="M 2588 409 
Q 2275 144 1986 34 
Q 1697 -75 1366 -75 
Q 819 -75 525 192 
Q 231 459 231 875 
Q 231 1119 342 1320 
Q 453 1522 633 1644 
Q 813 1766 1038 1828 
Q 1203 1872 1538 1913 
Q 2219 1994 2541 2106 
Q 2544 2222 2544 2253 
Q 2544 2597 2384 2738 
Q 2169 2928 1744 2928 
Q 1347 2928 1158 2789 
Q 969 2650 878 2297 
L 328 2372 
Q 403 2725 575 2942 
Q 747 3159 1072 3276 
Q 1397 3394 1825 3394 
Q 2250 3394 2515 3294 
Q 2781 3194 2906 3042 
Q 3031 2891 3081 2659 
Q 3109 2516 3109 2141 
L 3109 1391 
Q 3109 606 3145 398 
Q 3181 191 3288 0 
L 2700 0 
Q 2613 175 2588 409 
z
M 2541 1666 
Q 2234 1541 1622 1453 
Q 1275 1403 1131 1340 
Q 988 1278 909 1158 
Q 831 1038 831 891 
Q 831 666 1001 516 
Q 1172 366 1500 366 
Q 1825 366 2078 508 
Q 2331 650 2450 897 
Q 2541 1088 2541 1459 
L 2541 1666 
z
" transform="scale(0.015625)"/>
      <path id="ArialMT-6d" d="M 422 0 
L 422 3319 
L 925 3319 
L 925 2853 
Q 1081 3097 1340 3245 
Q 1600 3394 1931 3394 
Q 2300 3394 2536 3241 
Q 2772 3088 2869 2813 
Q 3263 3394 3894 3394 
Q 4388 3394 4653 3120 
Q 4919 2847 4919 2278 
L 4919 0 
L 4359 0 
L 4359 2091 
Q 4359 2428 4304 2576 
Q 4250 2725 4106 2815 
Q 3963 2906 3769 2906 
Q 3419 2906 3187 2673 
Q 2956 2441 2956 1928 
L 2956 0 
L 2394 0 
L 2394 2156 
Q 2394 2531 2256 2718 
Q 2119 2906 1806 2906 
Q 1569 2906 1367 2781 
Q 1166 2656 1075 2415 
Q 984 2175 984 1722 
L 984 0 
L 422 0 
z
" transform="scale(0.015625)"/>
     </defs>
     <use xlink:href="#ArialMT-43"/>
     <use xlink:href="#ArialMT-79" x="72.216797"/>
     <use xlink:href="#ArialMT-74" x="122.216797"/>
     <use xlink:href="#ArialMT-6f" x="150"/>
     <use xlink:href="#ArialMT-70" x="205.615234"/>
     <use xlink:href="#ArialMT-6c" x="261.230469"/>
     <use xlink:href="#ArialMT-61" x="283.447266"/>
     <use xlink:href="#ArialMT-73" x="339.0625"/>
     <use xlink:href="#ArialMT-6d" x="389.0625"/>
    </g>
   </g>
   <g id="text_8">
    <!-- Nuclei -->
    <g style="fill: #262626" transform="translate(913.903037 64.278)scale(0.18 -0.18)">
     <defs>
      <path id="ArialMT-4e" d="M 488 0 
L 488 4581 
L 1109 4581 
L 3516 984 
L 3516 4581 
L 4097 4581 
L 4097 0 
L 3475 0 
L 1069 3600 
L 1069 0 
L 488 0 
z
" transform="scale(0.015625)"/>
      <path id="ArialMT-75" d="M 2597 0 
L 2597 488 
Q 2209 -75 1544 -75 
Q 1250 -75 995 37 
Q 741 150 617 320 
Q 494 491 444 738 
Q 409 903 409 1263 
L 409 3319 
L 972 3319 
L 972 1478 
Q 972 1038 1006 884 
Q 1059 663 1231 536 
Q 1403 409 1656 409 
Q 1909 409 2131 539 
Q 2353 669 2445 892 
Q 2538 1116 2538 1541 
L 2538 3319 
L 3100 3319 
L 3100 0 
L 2597 0 
z
" transform="scale(0.015625)"/>
      <path id="ArialMT-63" d="M 2588 1216 
L 3141 1144 
Q 3050 572 2676 248 
Q 2303 -75 1759 -75 
Q 1078 -75 664 370 
Q 250 816 250 1647 
Q 250 2184 428 2587 
Q 606 2991 970 3192 
Q 1334 3394 1763 3394 
Q 2303 3394 2647 3120 
Q 2991 2847 3088 2344 
L 2541 2259 
Q 2463 2594 2264 2762 
Q 2066 2931 1784 2931 
Q 1359 2931 1093 2626 
Q 828 2322 828 1663 
Q 828 994 1084 691 
Q 1341 388 1753 388 
Q 2084 388 2306 591 
Q 2528 794 2588 1216 
z
" transform="scale(0.015625)"/>
      <path id="ArialMT-69" d="M 425 3934 
L 425 4581 
L 988 4581 
L 988 3934 
L 425 3934 
z
M 425 0 
L 425 3319 
L 988 3319 
L 988 0 
L 425 0 
z
" transform="scale(0.015625)"/>
     </defs>
     <use xlink:href="#ArialMT-4e"/>
     <use xlink:href="#ArialMT-75" x="72.216797"/>
     <use xlink:href="#ArialMT-63" x="127.832031"/>
     <use xlink:href="#ArialMT-6c" x="177.832031"/>
     <use xlink:href="#ArialMT-65" x="200.048828"/>
     <use xlink:href="#ArialMT-69" x="255.664062"/>
    </g>
   </g>
  </g>
 </g>
 <defs>
  <clipPath id="p66faf4fb01">
   <rect x="179.325" y="7.2" width="867.244756" height="27.18"/>
  </clipPath>
 </defs>
</svg>
