<?xml version="1.0" encoding="utf-8" standalone="no"?>
<!DOCTYPE svg PUBLIC "-//W3C//DTD SVG 1.1//EN"
  "http://www.w3.org/Graphics/SVG/1.1/DTD/svg11.dtd">
<svg xmlns:xlink="http://www.w3.org/1999/xlink" width="919.113699pt" height="75.266437pt" viewBox="0 0 919.113699 75.266437" xmlns="http://www.w3.org/2000/svg" version="1.1">
 <metadata>
  <rdf:RDF xmlns:dc="http://purl.org/dc/elements/1.1/" xmlns:cc="http://creativecommons.org/ns#" xmlns:rdf="http://www.w3.org/1999/02/22-rdf-syntax-ns#">
   <cc:Work>
    <dc:type rdf:resource="http://purl.org/dc/dcmitype/StillImage"/>
    <dc:date>2022-05-11T11:53:58.895128</dc:date>
    <dc:format>image/svg+xml</dc:format>
    <dc:creator>
     <cc:Agent>
      <dc:title>Matplotlib v3.5.1, https://matplotlib.org/</dc:title>
     </cc:Agent>
    </dc:creator>
   </cc:Work>
  </rdf:RDF>
 </metadata>
 <defs>
  <style type="text/css">*{stroke-linejoin: round; stroke-linecap: butt}</style>
 </defs>
 <g id="figure_1">
  <g id="patch_1">
   <path d="M 0 75.266437 
L 919.113699 75.266437 
L 919.113699 0 
L 0 0 
z
" style="fill: #ffffff"/>
  </g>
  <g id="axes_1">
   <g id="patch_2">
    <path d="M 79.66875 34.38 
L 899.401589 34.38 
L 899.401589 7.2 
L 79.66875 7.2 
z
" style="fill: #ffffff"/>
   </g>
   <g id="matplotlib.axis_1">
    <g id="xtick_1">
     <g id="line2d_1"/>
     <g id="text_1">
      <!-- 1 -->
      <g style="fill: #262626" transform="translate(77.517093 54.216719)scale(0.15 -0.15)">
       <defs>
        <path id="ArialMT-31" d="M 2384 0 
L 1822 0 
L 1822 3584 
Q 1619 3391 1289 3197 
Q 959 3003 697 2906 
L 697 3450 
Q 1169 3672 1522 3987 
Q 1875 4303 2022 4600 
L 2384 4600 
L 2384 0 
z
" transform="scale(0.015625)"/>
       </defs>
       <use xlink:href="#ArialMT-31"/>
      </g>
     </g>
    </g>
    <g id="xtick_2">
     <g id="line2d_2"/>
     <g id="text_2">
      <!-- 156 -->
      <g style="fill: #262626" transform="translate(382.127879 54.216719)scale(0.15 -0.15)">
       <defs>
        <path id="ArialMT-35" d="M 266 1200 
L 856 1250 
Q 922 819 1161 601 
Q 1400 384 1738 384 
Q 2144 384 2425 690 
Q 2706 997 2706 1503 
Q 2706 1984 2436 2262 
Q 2166 2541 1728 2541 
Q 1456 2541 1237 2417 
Q 1019 2294 894 2097 
L 366 2166 
L 809 4519 
L 3088 4519 
L 3088 3981 
L 1259 3981 
L 1013 2750 
Q 1425 3038 1878 3038 
Q 2478 3038 2890 2622 
Q 3303 2206 3303 1553 
Q 3303 931 2941 478 
Q 2500 -78 1738 -78 
Q 1113 -78 717 272 
Q 322 622 266 1200 
z
" transform="scale(0.015625)"/>
        <path id="ArialMT-36" d="M 3184 3459 
L 2625 3416 
Q 2550 3747 2413 3897 
Q 2184 4138 1850 4138 
Q 1581 4138 1378 3988 
Q 1113 3794 959 3422 
Q 806 3050 800 2363 
Q 1003 2672 1297 2822 
Q 1591 2972 1913 2972 
Q 2475 2972 2870 2558 
Q 3266 2144 3266 1488 
Q 3266 1056 3080 686 
Q 2894 316 2569 119 
Q 2244 -78 1831 -78 
Q 1128 -78 684 439 
Q 241 956 241 2144 
Q 241 3472 731 4075 
Q 1159 4600 1884 4600 
Q 2425 4600 2770 4297 
Q 3116 3994 3184 3459 
z
M 888 1484 
Q 888 1194 1011 928 
Q 1134 663 1356 523 
Q 1578 384 1822 384 
Q 2178 384 2434 671 
Q 2691 959 2691 1453 
Q 2691 1928 2437 2201 
Q 2184 2475 1800 2475 
Q 1419 2475 1153 2201 
Q 888 1928 888 1484 
z
" transform="scale(0.015625)"/>
       </defs>
       <use xlink:href="#ArialMT-31"/>
       <use xlink:href="#ArialMT-35" x="55.615234"/>
       <use xlink:href="#ArialMT-36" x="111.230469"/>
      </g>
     </g>
    </g>
    <g id="xtick_3">
     <g id="line2d_3"/>
     <g id="text_3">
      <!-- 317 -->
      <g style="fill: #262626" transform="translate(707.19435 54.216719)scale(0.15 -0.15)">
       <defs>
        <path id="ArialMT-33" d="M 269 1209 
L 831 1284 
Q 928 806 1161 595 
Q 1394 384 1728 384 
Q 2125 384 2398 659 
Q 2672 934 2672 1341 
Q 2672 1728 2419 1979 
Q 2166 2231 1775 2231 
Q 1616 2231 1378 2169 
L 1441 2663 
Q 1497 2656 1531 2656 
Q 1891 2656 2178 2843 
Q 2466 3031 2466 3422 
Q 2466 3731 2256 3934 
Q 2047 4138 1716 4138 
Q 1388 4138 1169 3931 
Q 950 3725 888 3313 
L 325 3413 
Q 428 3978 793 4289 
Q 1159 4600 1703 4600 
Q 2078 4600 2393 4439 
Q 2709 4278 2876 4000 
Q 3044 3722 3044 3409 
Q 3044 3113 2884 2869 
Q 2725 2625 2413 2481 
Q 2819 2388 3044 2092 
Q 3269 1797 3269 1353 
Q 3269 753 2831 336 
Q 2394 -81 1725 -81 
Q 1122 -81 723 278 
Q 325 638 269 1209 
z
" transform="scale(0.015625)"/>
        <path id="ArialMT-37" d="M 303 3981 
L 303 4522 
L 3269 4522 
L 3269 4084 
Q 2831 3619 2401 2847 
Q 1972 2075 1738 1259 
Q 1569 684 1522 0 
L 944 0 
Q 953 541 1156 1306 
Q 1359 2072 1739 2783 
Q 2119 3494 2547 3981 
L 303 3981 
z
" transform="scale(0.015625)"/>
       </defs>
       <use xlink:href="#ArialMT-33"/>
       <use xlink:href="#ArialMT-31" x="55.615234"/>
       <use xlink:href="#ArialMT-37" x="111.230469"/>
      </g>
     </g>
    </g>
    <g id="xtick_4">
     <g id="line2d_4"/>
     <g id="text_4">
      <!-- 406 -->
      <g style="fill: #262626" transform="translate(886.88948 54.216719)scale(0.15 -0.15)">
       <defs>
        <path id="ArialMT-34" d="M 2069 0 
L 2069 1097 
L 81 1097 
L 81 1613 
L 2172 4581 
L 2631 4581 
L 2631 1613 
L 3250 1613 
L 3250 1097 
L 2631 1097 
L 2631 0 
L 2069 0 
z
M 2069 1613 
L 2069 3678 
L 634 1613 
L 2069 1613 
z
" transform="scale(0.015625)"/>
        <path id="ArialMT-30" d="M 266 2259 
Q 266 3072 433 3567 
Q 600 4063 929 4331 
Q 1259 4600 1759 4600 
Q 2128 4600 2406 4451 
Q 2684 4303 2865 4023 
Q 3047 3744 3150 3342 
Q 3253 2941 3253 2259 
Q 3253 1453 3087 958 
Q 2922 463 2592 192 
Q 2263 -78 1759 -78 
Q 1097 -78 719 397 
Q 266 969 266 2259 
z
M 844 2259 
Q 844 1131 1108 757 
Q 1372 384 1759 384 
Q 2147 384 2411 759 
Q 2675 1134 2675 2259 
Q 2675 3391 2411 3762 
Q 2147 4134 1753 4134 
Q 1366 4134 1134 3806 
Q 844 3388 844 2259 
z
" transform="scale(0.015625)"/>
       </defs>
       <use xlink:href="#ArialMT-34"/>
       <use xlink:href="#ArialMT-30" x="55.615234"/>
       <use xlink:href="#ArialMT-36" x="111.230469"/>
      </g>
     </g>
    </g>
   </g>
   <g id="matplotlib.axis_2">
    <g id="ytick_1">
     <g id="line2d_5"/>
     <g id="text_5">
      <!-- HSP90 -->
      <g style="fill: #262626" transform="translate(7.2 27.947812)scale(0.2 -0.2)">
       <defs>
        <path id="ArialMT-48" d="M 513 0 
L 513 4581 
L 1119 4581 
L 1119 2700 
L 3500 2700 
L 3500 4581 
L 4106 4581 
L 4106 0 
L 3500 0 
L 3500 2159 
L 1119 2159 
L 1119 0 
L 513 0 
z
" transform="scale(0.015625)"/>
        <path id="ArialMT-53" d="M 288 1472 
L 859 1522 
Q 900 1178 1048 958 
Q 1197 738 1509 602 
Q 1822 466 2213 466 
Q 2559 466 2825 569 
Q 3091 672 3220 851 
Q 3350 1031 3350 1244 
Q 3350 1459 3225 1620 
Q 3100 1781 2813 1891 
Q 2628 1963 1997 2114 
Q 1366 2266 1113 2400 
Q 784 2572 623 2826 
Q 463 3081 463 3397 
Q 463 3744 659 4045 
Q 856 4347 1234 4503 
Q 1613 4659 2075 4659 
Q 2584 4659 2973 4495 
Q 3363 4331 3572 4012 
Q 3781 3694 3797 3291 
L 3216 3247 
Q 3169 3681 2898 3903 
Q 2628 4125 2100 4125 
Q 1550 4125 1298 3923 
Q 1047 3722 1047 3438 
Q 1047 3191 1225 3031 
Q 1400 2872 2139 2705 
Q 2878 2538 3153 2413 
Q 3553 2228 3743 1945 
Q 3934 1663 3934 1294 
Q 3934 928 3725 604 
Q 3516 281 3123 101 
Q 2731 -78 2241 -78 
Q 1619 -78 1198 103 
Q 778 284 539 648 
Q 300 1013 288 1472 
z
" transform="scale(0.015625)"/>
        <path id="ArialMT-50" d="M 494 0 
L 494 4581 
L 2222 4581 
Q 2678 4581 2919 4538 
Q 3256 4481 3484 4323 
Q 3713 4166 3852 3881 
Q 3991 3597 3991 3256 
Q 3991 2672 3619 2267 
Q 3247 1863 2275 1863 
L 1100 1863 
L 1100 0 
L 494 0 
z
M 1100 2403 
L 2284 2403 
Q 2872 2403 3119 2622 
Q 3366 2841 3366 3238 
Q 3366 3525 3220 3729 
Q 3075 3934 2838 4000 
Q 2684 4041 2272 4041 
L 1100 4041 
L 1100 2403 
z
" transform="scale(0.015625)"/>
        <path id="ArialMT-39" d="M 350 1059 
L 891 1109 
Q 959 728 1153 556 
Q 1347 384 1650 384 
Q 1909 384 2104 503 
Q 2300 622 2425 820 
Q 2550 1019 2634 1356 
Q 2719 1694 2719 2044 
Q 2719 2081 2716 2156 
Q 2547 1888 2255 1720 
Q 1963 1553 1622 1553 
Q 1053 1553 659 1965 
Q 266 2378 266 3053 
Q 266 3750 677 4175 
Q 1088 4600 1706 4600 
Q 2153 4600 2523 4359 
Q 2894 4119 3086 3673 
Q 3278 3228 3278 2384 
Q 3278 1506 3087 986 
Q 2897 466 2520 194 
Q 2144 -78 1638 -78 
Q 1100 -78 759 220 
Q 419 519 350 1059 
z
M 2653 3081 
Q 2653 3566 2395 3850 
Q 2138 4134 1775 4134 
Q 1400 4134 1122 3828 
Q 844 3522 844 3034 
Q 844 2597 1108 2323 
Q 1372 2050 1759 2050 
Q 2150 2050 2401 2323 
Q 2653 2597 2653 3081 
z
" transform="scale(0.015625)"/>
       </defs>
       <use xlink:href="#ArialMT-48"/>
       <use xlink:href="#ArialMT-53" x="72.216797"/>
       <use xlink:href="#ArialMT-50" x="138.916016"/>
       <use xlink:href="#ArialMT-39" x="205.615234"/>
       <use xlink:href="#ArialMT-30" x="261.230469"/>
      </g>
     </g>
    </g>
   </g>
   <g id="PolyCollection_1">
    <path d="M 79.66875 34.38 
L 79.66875 7.2 
L 81.687796 7.2 
L 81.687796 34.38 
L 79.66875 34.38 
z
" clip-path="url(#p4cb7591f79)" style="fill: #ff7a7a"/>
    <path d="M 81.687796 34.38 
L 81.687796 7.2 
L 83.706843 7.2 
L 83.706843 34.38 
L 81.687796 34.38 
z
" clip-path="url(#p4cb7591f79)" style="fill: #ffaaaa"/>
    <path d="M 83.706843 34.38 
L 83.706843 7.2 
L 85.725889 7.2 
L 85.725889 34.38 
L 83.706843 34.38 
z
" clip-path="url(#p4cb7591f79)" style="fill: #f2f2ff"/>
    <path d="M 85.725889 34.38 
L 85.725889 7.2 
L 87.744936 7.2 
L 87.744936 34.38 
L 85.725889 34.38 
z
" clip-path="url(#p4cb7591f79)" style="fill: #ffd4d4"/>
    <path d="M 87.744936 34.38 
L 87.744936 7.2 
L 89.763982 7.2 
L 89.763982 34.38 
L 87.744936 34.38 
z
" clip-path="url(#p4cb7591f79)" style="fill: #dadaff"/>
    <path d="M 89.763982 34.38 
L 89.763982 7.2 
L 91.783028 7.2 
L 91.783028 34.38 
L 89.763982 34.38 
z
" clip-path="url(#p4cb7591f79)" style="fill: #c8c8ff"/>
    <path d="M 91.783028 34.38 
L 91.783028 7.2 
L 93.802075 7.2 
L 93.802075 34.38 
L 91.783028 34.38 
z
" clip-path="url(#p4cb7591f79)" style="fill: #ffcccc"/>
    <path d="M 93.802075 34.38 
L 93.802075 7.2 
L 95.821121 7.2 
L 95.821121 34.38 
L 93.802075 34.38 
z
" clip-path="url(#p4cb7591f79)" style="fill: #ffc6c6"/>
    <path d="M 95.821121 34.38 
L 95.821121 7.2 
L 97.840168 7.2 
L 97.840168 34.38 
L 95.821121 34.38 
z
" clip-path="url(#p4cb7591f79)" style="fill: #ff3232"/>
    <path d="M 97.840168 34.38 
L 97.840168 7.2 
L 99.859214 7.2 
L 99.859214 34.38 
L 97.840168 34.38 
z
" clip-path="url(#p4cb7591f79)" style="fill: #eaeaff"/>
    <path d="M 99.859214 34.38 
L 99.859214 7.2 
L 101.87826 7.2 
L 101.87826 34.38 
L 99.859214 34.38 
z
" clip-path="url(#p4cb7591f79)" style="fill: #ffbebe"/>
    <path d="M 101.87826 34.38 
L 101.87826 7.2 
L 103.897307 7.2 
L 103.897307 34.38 
L 101.87826 34.38 
z
" clip-path="url(#p4cb7591f79)" style="fill: #aaaaff"/>
    <path d="M 103.897307 34.38 
L 103.897307 7.2 
L 105.916353 7.2 
L 105.916353 34.38 
L 103.897307 34.38 
z
" clip-path="url(#p4cb7591f79)" style="fill: #ffeaea"/>
    <path d="M 105.916353 34.38 
L 105.916353 7.2 
L 107.9354 7.2 
L 107.9354 34.38 
L 105.916353 34.38 
z
" clip-path="url(#p4cb7591f79)" style="fill: #ffe6e6"/>
    <path d="M 107.9354 34.38 
L 107.9354 7.2 
L 109.954446 7.2 
L 109.954446 34.38 
L 107.9354 34.38 
z
" clip-path="url(#p4cb7591f79)" style="fill: #a8a8ff"/>
    <path d="M 109.954446 34.38 
L 109.954446 7.2 
L 111.973492 7.2 
L 111.973492 34.38 
L 109.954446 34.38 
z
" clip-path="url(#p4cb7591f79)" style="fill: #ececff"/>
    <path d="M 111.973492 34.38 
L 111.973492 7.2 
L 113.992539 7.2 
L 113.992539 34.38 
L 111.973492 34.38 
z
" clip-path="url(#p4cb7591f79)" style="fill: #dadaff"/>
    <path d="M 113.992539 34.38 
L 113.992539 7.2 
L 116.011585 7.2 
L 116.011585 34.38 
L 113.992539 34.38 
z
" clip-path="url(#p4cb7591f79)" style="fill: #e4e4ff"/>
    <path d="M 116.011585 34.38 
L 116.011585 7.2 
L 118.030632 7.2 
L 118.030632 34.38 
L 116.011585 34.38 
z
" clip-path="url(#p4cb7591f79)" style="fill: #ffbebe"/>
    <path d="M 118.030632 34.38 
L 118.030632 7.2 
L 120.049678 7.2 
L 120.049678 34.38 
L 118.030632 34.38 
z
" clip-path="url(#p4cb7591f79)" style="fill: #cacaff"/>
    <path d="M 120.049678 34.38 
L 120.049678 7.2 
L 122.068724 7.2 
L 122.068724 34.38 
L 120.049678 34.38 
z
" clip-path="url(#p4cb7591f79)" style="fill: #9494ff"/>
    <path d="M 122.068724 34.38 
L 122.068724 7.2 
L 124.087771 7.2 
L 124.087771 34.38 
L 122.068724 34.38 
z
" clip-path="url(#p4cb7591f79)" style="fill: #ffeaea"/>
    <path d="M 124.087771 34.38 
L 124.087771 7.2 
L 126.106817 7.2 
L 126.106817 34.38 
L 124.087771 34.38 
z
" clip-path="url(#p4cb7591f79)" style="fill: #ffdede"/>
    <path d="M 126.106817 34.38 
L 126.106817 7.2 
L 128.125864 7.2 
L 128.125864 34.38 
L 126.106817 34.38 
z
" clip-path="url(#p4cb7591f79)" style="fill: #bcbcff"/>
    <path d="M 128.125864 34.38 
L 128.125864 7.2 
L 130.14491 7.2 
L 130.14491 34.38 
L 128.125864 34.38 
z
" clip-path="url(#p4cb7591f79)" style="fill: #ff8a8a"/>
    <path d="M 130.14491 34.38 
L 130.14491 7.2 
L 132.163956 7.2 
L 132.163956 34.38 
L 130.14491 34.38 
z
" clip-path="url(#p4cb7591f79)" style="fill: #7c7cff"/>
    <path d="M 132.163956 34.38 
L 132.163956 7.2 
L 134.183003 7.2 
L 134.183003 34.38 
L 132.163956 34.38 
z
" clip-path="url(#p4cb7591f79)" style="fill: #9c9cff"/>
    <path d="M 134.183003 34.38 
L 134.183003 7.2 
L 136.202049 7.2 
L 136.202049 34.38 
L 134.183003 34.38 
z
" clip-path="url(#p4cb7591f79)" style="fill: #babaff"/>
    <path d="M 136.202049 34.38 
L 136.202049 7.2 
L 138.221096 7.2 
L 138.221096 34.38 
L 136.202049 34.38 
z
" clip-path="url(#p4cb7591f79)" style="fill: #cacaff"/>
    <path d="M 138.221096 34.38 
L 138.221096 7.2 
L 140.240142 7.2 
L 140.240142 34.38 
L 138.221096 34.38 
z
" clip-path="url(#p4cb7591f79)" style="fill: #ccccff"/>
    <path d="M 140.240142 34.38 
L 140.240142 7.2 
L 142.259188 7.2 
L 142.259188 34.38 
L 140.240142 34.38 
z
" clip-path="url(#p4cb7591f79)" style="fill: #ffeaea"/>
    <path d="M 142.259188 34.38 
L 142.259188 7.2 
L 144.278235 7.2 
L 144.278235 34.38 
L 142.259188 34.38 
z
" clip-path="url(#p4cb7591f79)" style="fill: #f0f0ff"/>
    <path d="M 144.278235 34.38 
L 144.278235 7.2 
L 146.297281 7.2 
L 146.297281 34.38 
L 144.278235 34.38 
z
" clip-path="url(#p4cb7591f79)" style="fill: #e4e4ff"/>
    <path d="M 146.297281 34.38 
L 146.297281 7.2 
L 148.316328 7.2 
L 148.316328 34.38 
L 146.297281 34.38 
z
" clip-path="url(#p4cb7591f79)" style="fill: #d4d4ff"/>
    <path d="M 148.316328 34.38 
L 148.316328 7.2 
L 150.335374 7.2 
L 150.335374 34.38 
L 148.316328 34.38 
z
" clip-path="url(#p4cb7591f79)" style="fill: #d2d2ff"/>
    <path d="M 150.335374 34.38 
L 150.335374 7.2 
L 152.35442 7.2 
L 152.35442 34.38 
L 150.335374 34.38 
z
" clip-path="url(#p4cb7591f79)" style="fill: #c8c8ff"/>
    <path d="M 152.35442 34.38 
L 152.35442 7.2 
L 154.373467 7.2 
L 154.373467 34.38 
L 152.35442 34.38 
z
" clip-path="url(#p4cb7591f79)" style="fill: #a6a6ff"/>
    <path d="M 154.373467 34.38 
L 154.373467 7.2 
L 156.392513 7.2 
L 156.392513 34.38 
L 154.373467 34.38 
z
" clip-path="url(#p4cb7591f79)" style="fill: #5c5cff"/>
    <path d="M 156.392513 34.38 
L 156.392513 7.2 
L 158.41156 7.2 
L 158.41156 34.38 
L 156.392513 34.38 
z
" clip-path="url(#p4cb7591f79)" style="fill: #3a3aff"/>
    <path d="M 158.41156 34.38 
L 158.41156 7.2 
L 160.430606 7.2 
L 160.430606 34.38 
L 158.41156 34.38 
z
" clip-path="url(#p4cb7591f79)" style="fill: #6c6cff"/>
    <path d="M 160.430606 34.38 
L 160.430606 7.2 
L 162.449652 7.2 
L 162.449652 34.38 
L 160.430606 34.38 
z
" clip-path="url(#p4cb7591f79)" style="fill: #7474ff"/>
    <path d="M 162.449652 34.38 
L 162.449652 7.2 
L 164.468699 7.2 
L 164.468699 34.38 
L 162.449652 34.38 
z
" clip-path="url(#p4cb7591f79)" style="fill: #7e7eff"/>
    <path d="M 164.468699 34.38 
L 164.468699 7.2 
L 166.487745 7.2 
L 166.487745 34.38 
L 164.468699 34.38 
z
" clip-path="url(#p4cb7591f79)" style="fill: #1010ff"/>
    <path d="M 166.487745 34.38 
L 166.487745 7.2 
L 168.506792 7.2 
L 168.506792 34.38 
L 166.487745 34.38 
z
" clip-path="url(#p4cb7591f79)" style="fill: #6262ff"/>
    <path d="M 168.506792 34.38 
L 168.506792 7.2 
L 170.525838 7.2 
L 170.525838 34.38 
L 168.506792 34.38 
z
" clip-path="url(#p4cb7591f79)" style="fill: #8888ff"/>
    <path d="M 170.525838 34.38 
L 170.525838 7.2 
L 172.544885 7.2 
L 172.544885 34.38 
L 170.525838 34.38 
z
" clip-path="url(#p4cb7591f79)" style="fill: #ffecec"/>
    <path d="M 172.544885 34.38 
L 172.544885 7.2 
L 174.563931 7.2 
L 174.563931 34.38 
L 172.544885 34.38 
z
" clip-path="url(#p4cb7591f79)" style="fill: #ffe8e8"/>
    <path d="M 174.563931 34.38 
L 174.563931 7.2 
L 176.582977 7.2 
L 176.582977 34.38 
L 174.563931 34.38 
z
" clip-path="url(#p4cb7591f79)" style="fill: #ffcaca"/>
    <path d="M 176.582977 34.38 
L 176.582977 7.2 
L 178.602024 7.2 
L 178.602024 34.38 
L 176.582977 34.38 
z
" clip-path="url(#p4cb7591f79)" style="fill: #ff9a9a"/>
    <path d="M 178.602024 34.38 
L 178.602024 7.2 
L 180.62107 7.2 
L 180.62107 34.38 
L 178.602024 34.38 
z
" clip-path="url(#p4cb7591f79)" style="fill: #fffefe"/>
    <path d="M 180.62107 34.38 
L 180.62107 7.2 
L 182.640117 7.2 
L 182.640117 34.38 
L 180.62107 34.38 
z
" clip-path="url(#p4cb7591f79)" style="fill: #ffa2a2"/>
    <path d="M 182.640117 34.38 
L 182.640117 7.2 
L 184.659163 7.2 
L 184.659163 34.38 
L 182.640117 34.38 
z
" clip-path="url(#p4cb7591f79)" style="fill: #ff6e6e"/>
    <path d="M 184.659163 34.38 
L 184.659163 7.2 
L 186.678209 7.2 
L 186.678209 34.38 
L 184.659163 34.38 
z
" clip-path="url(#p4cb7591f79)" style="fill: #ffcccc"/>
    <path d="M 186.678209 34.38 
L 186.678209 7.2 
L 188.697256 7.2 
L 188.697256 34.38 
L 186.678209 34.38 
z
" clip-path="url(#p4cb7591f79)" style="fill: #ff4a4a"/>
    <path d="M 188.697256 34.38 
L 188.697256 7.2 
L 190.716302 7.2 
L 190.716302 34.38 
L 188.697256 34.38 
z
" clip-path="url(#p4cb7591f79)" style="fill: #ffbcbc"/>
    <path d="M 190.716302 34.38 
L 190.716302 7.2 
L 192.735349 7.2 
L 192.735349 34.38 
L 190.716302 34.38 
z
" clip-path="url(#p4cb7591f79)" style="fill: #ffdede"/>
    <path d="M 192.735349 34.38 
L 192.735349 7.2 
L 194.754395 7.2 
L 194.754395 34.38 
L 192.735349 34.38 
z
" clip-path="url(#p4cb7591f79)" style="fill: #ffa4a4"/>
    <path d="M 194.754395 34.38 
L 194.754395 7.2 
L 196.773441 7.2 
L 196.773441 34.38 
L 194.754395 34.38 
z
" clip-path="url(#p4cb7591f79)" style="fill: #8e8eff"/>
    <path d="M 196.773441 34.38 
L 196.773441 7.2 
L 198.792488 7.2 
L 198.792488 34.38 
L 196.773441 34.38 
z
" clip-path="url(#p4cb7591f79)" style="fill: #fff8f8"/>
    <path d="M 198.792488 34.38 
L 198.792488 7.2 
L 200.811534 7.2 
L 200.811534 34.38 
L 198.792488 34.38 
z
" clip-path="url(#p4cb7591f79)" style="fill: #eeeeff"/>
    <path d="M 200.811534 34.38 
L 200.811534 7.2 
L 202.830581 7.2 
L 202.830581 34.38 
L 200.811534 34.38 
z
" clip-path="url(#p4cb7591f79)" style="fill: #ffb0b0"/>
    <path d="M 202.830581 34.38 
L 202.830581 7.2 
L 204.849627 7.2 
L 204.849627 34.38 
L 202.830581 34.38 
z
" clip-path="url(#p4cb7591f79)" style="fill: #ffecec"/>
    <path d="M 204.849627 34.38 
L 204.849627 7.2 
L 206.868673 7.2 
L 206.868673 34.38 
L 204.849627 34.38 
z
" clip-path="url(#p4cb7591f79)" style="fill: #ffb0b0"/>
    <path d="M 206.868673 34.38 
L 206.868673 7.2 
L 208.88772 7.2 
L 208.88772 34.38 
L 206.868673 34.38 
z
" clip-path="url(#p4cb7591f79)" style="fill: #dadaff"/>
    <path d="M 208.88772 34.38 
L 208.88772 7.2 
L 210.906766 7.2 
L 210.906766 34.38 
L 208.88772 34.38 
z
" clip-path="url(#p4cb7591f79)" style="fill: #dadaff"/>
    <path d="M 210.906766 34.38 
L 210.906766 7.2 
L 212.925813 7.2 
L 212.925813 34.38 
L 210.906766 34.38 
z
" clip-path="url(#p4cb7591f79)" style="fill: #ff2a2a"/>
    <path d="M 212.925813 34.38 
L 212.925813 7.2 
L 214.944859 7.2 
L 214.944859 34.38 
L 212.925813 34.38 
z
" clip-path="url(#p4cb7591f79)" style="fill: #ff5252"/>
    <path d="M 214.944859 34.38 
L 214.944859 7.2 
L 216.963905 7.2 
L 216.963905 34.38 
L 214.944859 34.38 
z
" clip-path="url(#p4cb7591f79)" style="fill: #ffaeae"/>
    <path d="M 216.963905 34.38 
L 216.963905 7.2 
L 218.982952 7.2 
L 218.982952 34.38 
L 216.963905 34.38 
z
" clip-path="url(#p4cb7591f79)" style="fill: #ffc2c2"/>
    <path d="M 218.982952 34.38 
L 218.982952 7.2 
L 221.001998 7.2 
L 221.001998 34.38 
L 218.982952 34.38 
z
" clip-path="url(#p4cb7591f79)" style="fill: #d8d8ff"/>
    <path d="M 221.001998 34.38 
L 221.001998 7.2 
L 223.021045 7.2 
L 223.021045 34.38 
L 221.001998 34.38 
z
" clip-path="url(#p4cb7591f79)" style="fill: #ffd2d2"/>
    <path d="M 223.021045 34.38 
L 223.021045 7.2 
L 225.040091 7.2 
L 225.040091 34.38 
L 223.021045 34.38 
z
" clip-path="url(#p4cb7591f79)" style="fill: #e2e2ff"/>
    <path d="M 225.040091 34.38 
L 225.040091 7.2 
L 227.059137 7.2 
L 227.059137 34.38 
L 225.040091 34.38 
z
" clip-path="url(#p4cb7591f79)" style="fill: #ffb2b2"/>
    <path d="M 227.059137 34.38 
L 227.059137 7.2 
L 229.078184 7.2 
L 229.078184 34.38 
L 227.059137 34.38 
z
" clip-path="url(#p4cb7591f79)" style="fill: #ffc6c6"/>
    <path d="M 229.078184 34.38 
L 229.078184 7.2 
L 231.09723 7.2 
L 231.09723 34.38 
L 229.078184 34.38 
z
" clip-path="url(#p4cb7591f79)" style="fill: #ffc0c0"/>
    <path d="M 231.09723 34.38 
L 231.09723 7.2 
L 233.116277 7.2 
L 233.116277 34.38 
L 231.09723 34.38 
z
" clip-path="url(#p4cb7591f79)" style="fill: #d4d4ff"/>
    <path d="M 233.116277 34.38 
L 233.116277 7.2 
L 235.135323 7.2 
L 235.135323 34.38 
L 233.116277 34.38 
z
" clip-path="url(#p4cb7591f79)" style="fill: #d2d2ff"/>
    <path d="M 235.135323 34.38 
L 235.135323 7.2 
L 237.154369 7.2 
L 237.154369 34.38 
L 235.135323 34.38 
z
" clip-path="url(#p4cb7591f79)" style="fill: #ffe6e6"/>
    <path d="M 237.154369 34.38 
L 237.154369 7.2 
L 239.173416 7.2 
L 239.173416 34.38 
L 237.154369 34.38 
z
" clip-path="url(#p4cb7591f79)" style="fill: #c2c2ff"/>
    <path d="M 239.173416 34.38 
L 239.173416 7.2 
L 241.192462 7.2 
L 241.192462 34.38 
L 239.173416 34.38 
z
" clip-path="url(#p4cb7591f79)" style="fill: #c8c8ff"/>
    <path d="M 241.192462 34.38 
L 241.192462 7.2 
L 243.211509 7.2 
L 243.211509 34.38 
L 241.192462 34.38 
z
" clip-path="url(#p4cb7591f79)" style="fill: #ffc8c8"/>
    <path d="M 243.211509 34.38 
L 243.211509 7.2 
L 245.230555 7.2 
L 245.230555 34.38 
L 243.211509 34.38 
z
" clip-path="url(#p4cb7591f79)" style="fill: #dadaff"/>
    <path d="M 245.230555 34.38 
L 245.230555 7.2 
L 247.249601 7.2 
L 247.249601 34.38 
L 245.230555 34.38 
z
" clip-path="url(#p4cb7591f79)" style="fill: #ffdcdc"/>
    <path d="M 247.249601 34.38 
L 247.249601 7.2 
L 249.268648 7.2 
L 249.268648 34.38 
L 247.249601 34.38 
z
" clip-path="url(#p4cb7591f79)" style="fill: #ff8686"/>
    <path d="M 249.268648 34.38 
L 249.268648 7.2 
L 251.287694 7.2 
L 251.287694 34.38 
L 249.268648 34.38 
z
" clip-path="url(#p4cb7591f79)" style="fill: #9090ff"/>
    <path d="M 251.287694 34.38 
L 251.287694 7.2 
L 253.306741 7.2 
L 253.306741 34.38 
L 251.287694 34.38 
z
" clip-path="url(#p4cb7591f79)" style="fill: #9696ff"/>
    <path d="M 253.306741 34.38 
L 253.306741 7.2 
L 255.325787 7.2 
L 255.325787 34.38 
L 253.306741 34.38 
z
" clip-path="url(#p4cb7591f79)" style="fill: #d0d0ff"/>
    <path d="M 255.325787 34.38 
L 255.325787 7.2 
L 257.344833 7.2 
L 257.344833 34.38 
L 255.325787 34.38 
z
" clip-path="url(#p4cb7591f79)" style="fill: #c0c0ff"/>
    <path d="M 257.344833 34.38 
L 257.344833 7.2 
L 259.36388 7.2 
L 259.36388 34.38 
L 257.344833 34.38 
z
" clip-path="url(#p4cb7591f79)" style="fill: #c6c6ff"/>
    <path d="M 259.36388 34.38 
L 259.36388 7.2 
L 261.382926 7.2 
L 261.382926 34.38 
L 259.36388 34.38 
z
" clip-path="url(#p4cb7591f79)" style="fill: #c6c6ff"/>
    <path d="M 261.382926 34.38 
L 261.382926 7.2 
L 263.401973 7.2 
L 263.401973 34.38 
L 261.382926 34.38 
z
" clip-path="url(#p4cb7591f79)" style="fill: #b4b4ff"/>
    <path d="M 263.401973 34.38 
L 263.401973 7.2 
L 265.421019 7.2 
L 265.421019 34.38 
L 263.401973 34.38 
z
" clip-path="url(#p4cb7591f79)" style="fill: #bebeff"/>
    <path d="M 265.421019 34.38 
L 265.421019 7.2 
L 267.440065 7.2 
L 267.440065 34.38 
L 265.421019 34.38 
z
" clip-path="url(#p4cb7591f79)" style="fill: #ff8a8a"/>
    <path d="M 267.440065 34.38 
L 267.440065 7.2 
L 269.459112 7.2 
L 269.459112 34.38 
L 267.440065 34.38 
z
" clip-path="url(#p4cb7591f79)" style="fill: #ffa2a2"/>
    <path d="M 269.459112 34.38 
L 269.459112 7.2 
L 271.478158 7.2 
L 271.478158 34.38 
L 269.459112 34.38 
z
" clip-path="url(#p4cb7591f79)" style="fill: #9a9aff"/>
    <path d="M 271.478158 34.38 
L 271.478158 7.2 
L 273.497205 7.2 
L 273.497205 34.38 
L 271.478158 34.38 
z
" clip-path="url(#p4cb7591f79)" style="fill: #9898ff"/>
    <path d="M 273.497205 34.38 
L 273.497205 7.2 
L 275.516251 7.2 
L 275.516251 34.38 
L 273.497205 34.38 
z
" clip-path="url(#p4cb7591f79)" style="fill: #ffe4e4"/>
    <path d="M 275.516251 34.38 
L 275.516251 7.2 
L 277.535297 7.2 
L 277.535297 34.38 
L 275.516251 34.38 
z
" clip-path="url(#p4cb7591f79)" style="fill: #dadaff"/>
    <path d="M 277.535297 34.38 
L 277.535297 7.2 
L 279.554344 7.2 
L 279.554344 34.38 
L 277.535297 34.38 
z
" clip-path="url(#p4cb7591f79)" style="fill: #dedeff"/>
    <path d="M 279.554344 34.38 
L 279.554344 7.2 
L 281.57339 7.2 
L 281.57339 34.38 
L 279.554344 34.38 
z
" clip-path="url(#p4cb7591f79)" style="fill: #ff3a3a"/>
    <path d="M 281.57339 34.38 
L 281.57339 7.2 
L 283.592437 7.2 
L 283.592437 34.38 
L 281.57339 34.38 
z
" clip-path="url(#p4cb7591f79)" style="fill: #ffc2c2"/>
    <path d="M 283.592437 34.38 
L 283.592437 7.2 
L 285.611483 7.2 
L 285.611483 34.38 
L 283.592437 34.38 
z
" clip-path="url(#p4cb7591f79)" style="fill: #ffa6a6"/>
    <path d="M 285.611483 34.38 
L 285.611483 7.2 
L 287.630529 7.2 
L 287.630529 34.38 
L 285.611483 34.38 
z
" clip-path="url(#p4cb7591f79)" style="fill: #ffb4b4"/>
    <path d="M 287.630529 34.38 
L 287.630529 7.2 
L 289.649576 7.2 
L 289.649576 34.38 
L 287.630529 34.38 
z
" clip-path="url(#p4cb7591f79)" style="fill: #dadaff"/>
    <path d="M 289.649576 34.38 
L 289.649576 7.2 
L 291.668622 7.2 
L 291.668622 34.38 
L 289.649576 34.38 
z
" clip-path="url(#p4cb7591f79)" style="fill: #ffa2a2"/>
    <path d="M 291.668622 34.38 
L 291.668622 7.2 
L 293.687669 7.2 
L 293.687669 34.38 
L 291.668622 34.38 
z
" clip-path="url(#p4cb7591f79)" style="fill: #ffbaba"/>
    <path d="M 293.687669 34.38 
L 293.687669 7.2 
L 295.706715 7.2 
L 295.706715 34.38 
L 293.687669 34.38 
z
" clip-path="url(#p4cb7591f79)" style="fill: #ceceff"/>
    <path d="M 295.706715 34.38 
L 295.706715 7.2 
L 297.725761 7.2 
L 297.725761 34.38 
L 295.706715 34.38 
z
" clip-path="url(#p4cb7591f79)" style="fill: #ccccff"/>
    <path d="M 297.725761 34.38 
L 297.725761 7.2 
L 299.744808 7.2 
L 299.744808 34.38 
L 297.725761 34.38 
z
" clip-path="url(#p4cb7591f79)" style="fill: #b6b6ff"/>
    <path d="M 299.744808 34.38 
L 299.744808 7.2 
L 301.763854 7.2 
L 301.763854 34.38 
L 299.744808 34.38 
z
" clip-path="url(#p4cb7591f79)" style="fill: #bcbcff"/>
    <path d="M 301.763854 34.38 
L 301.763854 7.2 
L 303.782901 7.2 
L 303.782901 34.38 
L 301.763854 34.38 
z
" clip-path="url(#p4cb7591f79)" style="fill: #ffcece"/>
    <path d="M 303.782901 34.38 
L 303.782901 7.2 
L 305.801947 7.2 
L 305.801947 34.38 
L 303.782901 34.38 
z
" clip-path="url(#p4cb7591f79)" style="fill: #ffc4c4"/>
    <path d="M 305.801947 34.38 
L 305.801947 7.2 
L 307.820993 7.2 
L 307.820993 34.38 
L 305.801947 34.38 
z
" clip-path="url(#p4cb7591f79)" style="fill: #ffb6b6"/>
    <path d="M 307.820993 34.38 
L 307.820993 7.2 
L 309.84004 7.2 
L 309.84004 34.38 
L 307.820993 34.38 
z
" clip-path="url(#p4cb7591f79)" style="fill: #ffbcbc"/>
    <path d="M 309.84004 34.38 
L 309.84004 7.2 
L 311.859086 7.2 
L 311.859086 34.38 
L 309.84004 34.38 
z
" clip-path="url(#p4cb7591f79)" style="fill: #ffe8e8"/>
    <path d="M 311.859086 34.38 
L 311.859086 7.2 
L 313.878133 7.2 
L 313.878133 34.38 
L 311.859086 34.38 
z
" clip-path="url(#p4cb7591f79)" style="fill: #ffd0d0"/>
    <path d="M 313.878133 34.38 
L 313.878133 7.2 
L 315.897179 7.2 
L 315.897179 34.38 
L 313.878133 34.38 
z
" clip-path="url(#p4cb7591f79)" style="fill: #ffdcdc"/>
    <path d="M 315.897179 34.38 
L 315.897179 7.2 
L 317.916225 7.2 
L 317.916225 34.38 
L 315.897179 34.38 
z
" clip-path="url(#p4cb7591f79)" style="fill: #ffd8d8"/>
    <path d="M 317.916225 34.38 
L 317.916225 7.2 
L 319.935272 7.2 
L 319.935272 34.38 
L 317.916225 34.38 
z
" clip-path="url(#p4cb7591f79)" style="fill: #dedeff"/>
    <path d="M 319.935272 34.38 
L 319.935272 7.2 
L 321.954318 7.2 
L 321.954318 34.38 
L 319.935272 34.38 
z
" clip-path="url(#p4cb7591f79)" style="fill: #d0d0ff"/>
    <path d="M 321.954318 34.38 
L 321.954318 7.2 
L 323.973365 7.2 
L 323.973365 34.38 
L 321.954318 34.38 
z
" clip-path="url(#p4cb7591f79)" style="fill: #aeaeff"/>
    <path d="M 323.973365 34.38 
L 323.973365 7.2 
L 325.992411 7.2 
L 325.992411 34.38 
L 323.973365 34.38 
z
" clip-path="url(#p4cb7591f79)" style="fill: #babaff"/>
    <path d="M 325.992411 34.38 
L 325.992411 7.2 
L 328.011457 7.2 
L 328.011457 34.38 
L 325.992411 34.38 
z
" clip-path="url(#p4cb7591f79)" style="fill: #e2e2ff"/>
    <path d="M 328.011457 34.38 
L 328.011457 7.2 
L 330.030504 7.2 
L 330.030504 34.38 
L 328.011457 34.38 
z
" clip-path="url(#p4cb7591f79)" style="fill: #b8b8ff"/>
    <path d="M 330.030504 34.38 
L 330.030504 7.2 
L 332.04955 7.2 
L 332.04955 34.38 
L 330.030504 34.38 
z
" clip-path="url(#p4cb7591f79)" style="fill: #ceceff"/>
    <path d="M 332.04955 34.38 
L 332.04955 7.2 
L 334.068597 7.2 
L 334.068597 34.38 
L 332.04955 34.38 
z
" clip-path="url(#p4cb7591f79)" style="fill: #f2f2ff"/>
    <path d="M 334.068597 34.38 
L 334.068597 7.2 
L 336.087643 7.2 
L 336.087643 34.38 
L 334.068597 34.38 
z
" clip-path="url(#p4cb7591f79)" style="fill: #eaeaff"/>
    <path d="M 336.087643 34.38 
L 336.087643 7.2 
L 338.10669 7.2 
L 338.10669 34.38 
L 336.087643 34.38 
z
" clip-path="url(#p4cb7591f79)" style="fill: #ececff"/>
    <path d="M 338.10669 34.38 
L 338.10669 7.2 
L 340.125736 7.2 
L 340.125736 34.38 
L 338.10669 34.38 
z
" clip-path="url(#p4cb7591f79)" style="fill: #ffb6b6"/>
    <path d="M 340.125736 34.38 
L 340.125736 7.2 
L 342.144782 7.2 
L 342.144782 34.38 
L 340.125736 34.38 
z
" clip-path="url(#p4cb7591f79)" style="fill: #ffa8a8"/>
    <path d="M 342.144782 34.38 
L 342.144782 7.2 
L 344.163829 7.2 
L 344.163829 34.38 
L 342.144782 34.38 
z
" clip-path="url(#p4cb7591f79)" style="fill: #ffaaaa"/>
    <path d="M 344.163829 34.38 
L 344.163829 7.2 
L 346.182875 7.2 
L 346.182875 34.38 
L 344.163829 34.38 
z
" clip-path="url(#p4cb7591f79)" style="fill: #ffc6c6"/>
    <path d="M 346.182875 34.38 
L 346.182875 7.2 
L 348.201922 7.2 
L 348.201922 34.38 
L 346.182875 34.38 
z
" clip-path="url(#p4cb7591f79)" style="fill: #ffc2c2"/>
    <path d="M 348.201922 34.38 
L 348.201922 7.2 
L 350.220968 7.2 
L 350.220968 34.38 
L 348.201922 34.38 
z
" clip-path="url(#p4cb7591f79)" style="fill: #ffc6c6"/>
    <path d="M 350.220968 34.38 
L 350.220968 7.2 
L 352.240014 7.2 
L 352.240014 34.38 
L 350.220968 34.38 
z
" clip-path="url(#p4cb7591f79)" style="fill: #fff4f4"/>
    <path d="M 352.240014 34.38 
L 352.240014 7.2 
L 354.259061 7.2 
L 354.259061 34.38 
L 352.240014 34.38 
z
" clip-path="url(#p4cb7591f79)" style="fill: #ffe2e2"/>
    <path d="M 354.259061 34.38 
L 354.259061 7.2 
L 356.278107 7.2 
L 356.278107 34.38 
L 354.259061 34.38 
z
" clip-path="url(#p4cb7591f79)" style="fill: #ffe8e8"/>
    <path d="M 356.278107 34.38 
L 356.278107 7.2 
L 358.297154 7.2 
L 358.297154 34.38 
L 356.278107 34.38 
z
" clip-path="url(#p4cb7591f79)" style="fill: #ffe0e0"/>
    <path d="M 358.297154 34.38 
L 358.297154 7.2 
L 360.3162 7.2 
L 360.3162 34.38 
L 358.297154 34.38 
z
" clip-path="url(#p4cb7591f79)" style="fill: #ffe2e2"/>
    <path d="M 360.3162 34.38 
L 360.3162 7.2 
L 362.335246 7.2 
L 362.335246 34.38 
L 360.3162 34.38 
z
" clip-path="url(#p4cb7591f79)" style="fill: #ffbebe"/>
    <path d="M 362.335246 34.38 
L 362.335246 7.2 
L 364.354293 7.2 
L 364.354293 34.38 
L 362.335246 34.38 
z
" clip-path="url(#p4cb7591f79)" style="fill: #ffbebe"/>
    <path d="M 364.354293 34.38 
L 364.354293 7.2 
L 366.373339 7.2 
L 366.373339 34.38 
L 364.354293 34.38 
z
" clip-path="url(#p4cb7591f79)" style="fill: #ffc0c0"/>
    <path d="M 366.373339 34.38 
L 366.373339 7.2 
L 368.392386 7.2 
L 368.392386 34.38 
L 366.373339 34.38 
z
" clip-path="url(#p4cb7591f79)" style="fill: #dcdcff"/>
    <path d="M 368.392386 34.38 
L 368.392386 7.2 
L 370.411432 7.2 
L 370.411432 34.38 
L 368.392386 34.38 
z
" clip-path="url(#p4cb7591f79)" style="fill: #d2d2ff"/>
    <path d="M 370.411432 34.38 
L 370.411432 7.2 
L 372.430478 7.2 
L 372.430478 34.38 
L 370.411432 34.38 
z
" clip-path="url(#p4cb7591f79)" style="fill: #d0d0ff"/>
    <path d="M 372.430478 34.38 
L 372.430478 7.2 
L 374.449525 7.2 
L 374.449525 34.38 
L 372.430478 34.38 
z
" clip-path="url(#p4cb7591f79)" style="fill: #ffcece"/>
    <path d="M 374.449525 34.38 
L 374.449525 7.2 
L 376.468571 7.2 
L 376.468571 34.38 
L 374.449525 34.38 
z
" clip-path="url(#p4cb7591f79)" style="fill: #ffcece"/>
    <path d="M 376.468571 34.38 
L 376.468571 7.2 
L 378.487618 7.2 
L 378.487618 34.38 
L 376.468571 34.38 
z
" clip-path="url(#p4cb7591f79)" style="fill: #ffc4c4"/>
    <path d="M 378.487618 34.38 
L 378.487618 7.2 
L 380.506664 7.2 
L 380.506664 34.38 
L 378.487618 34.38 
z
" clip-path="url(#p4cb7591f79)" style="fill: #ffbebe"/>
    <path d="M 380.506664 34.38 
L 380.506664 7.2 
L 382.52571 7.2 
L 382.52571 34.38 
L 380.506664 34.38 
z
" clip-path="url(#p4cb7591f79)" style="fill: #ffc2c2"/>
    <path d="M 382.52571 34.38 
L 382.52571 7.2 
L 384.544757 7.2 
L 384.544757 34.38 
L 382.52571 34.38 
z
" clip-path="url(#p4cb7591f79)" style="fill: #c4c4ff"/>
    <path d="M 384.544757 34.38 
L 384.544757 7.2 
L 386.563803 7.2 
L 386.563803 34.38 
L 384.544757 34.38 
z
" clip-path="url(#p4cb7591f79)" style="fill: #d2d2ff"/>
    <path d="M 386.563803 34.38 
L 386.563803 7.2 
L 388.58285 7.2 
L 388.58285 34.38 
L 386.563803 34.38 
z
" clip-path="url(#p4cb7591f79)" style="fill: #c8c8ff"/>
    <path d="M 388.58285 34.38 
L 388.58285 7.2 
L 390.601896 7.2 
L 390.601896 34.38 
L 388.58285 34.38 
z
" clip-path="url(#p4cb7591f79)" style="fill: #ffd4d4"/>
    <path d="M 390.601896 34.38 
L 390.601896 7.2 
L 392.620942 7.2 
L 392.620942 34.38 
L 390.601896 34.38 
z
" clip-path="url(#p4cb7591f79)" style="fill: #ffd2d2"/>
    <path d="M 392.620942 34.38 
L 392.620942 7.2 
L 394.639989 7.2 
L 394.639989 34.38 
L 392.620942 34.38 
z
" clip-path="url(#p4cb7591f79)" style="fill: #ffe4e4"/>
    <path d="M 394.639989 34.38 
L 394.639989 7.2 
L 396.659035 7.2 
L 396.659035 34.38 
L 394.639989 34.38 
z
" clip-path="url(#p4cb7591f79)" style="fill: #ff8484"/>
    <path d="M 396.659035 34.38 
L 396.659035 7.2 
L 398.678082 7.2 
L 398.678082 34.38 
L 396.659035 34.38 
z
" clip-path="url(#p4cb7591f79)" style="fill: #ff4040"/>
    <path d="M 398.678082 34.38 
L 398.678082 7.2 
L 400.697128 7.2 
L 400.697128 34.38 
L 398.678082 34.38 
z
" clip-path="url(#p4cb7591f79)" style="fill: #ffbebe"/>
    <path d="M 400.697128 34.38 
L 400.697128 7.2 
L 402.716174 7.2 
L 402.716174 34.38 
L 400.697128 34.38 
z
" clip-path="url(#p4cb7591f79)" style="fill: #ffc8c8"/>
    <path d="M 402.716174 34.38 
L 402.716174 7.2 
L 404.735221 7.2 
L 404.735221 34.38 
L 402.716174 34.38 
z
" clip-path="url(#p4cb7591f79)" style="fill: #bebeff"/>
    <path d="M 404.735221 34.38 
L 404.735221 7.2 
L 406.754267 7.2 
L 406.754267 34.38 
L 404.735221 34.38 
z
" clip-path="url(#p4cb7591f79)" style="fill: #ffd2d2"/>
    <path d="M 406.754267 34.38 
L 406.754267 7.2 
L 408.773314 7.2 
L 408.773314 34.38 
L 406.754267 34.38 
z
" clip-path="url(#p4cb7591f79)" style="fill: #ffb0b0"/>
    <path d="M 408.773314 34.38 
L 408.773314 7.2 
L 410.79236 7.2 
L 410.79236 34.38 
L 408.773314 34.38 
z
" clip-path="url(#p4cb7591f79)" style="fill: #ff0202"/>
    <path d="M 410.79236 34.38 
L 410.79236 7.2 
L 412.811406 7.2 
L 412.811406 34.38 
L 410.79236 34.38 
z
" clip-path="url(#p4cb7591f79)" style="fill: #e8e8ff"/>
    <path d="M 412.811406 34.38 
L 412.811406 7.2 
L 414.830453 7.2 
L 414.830453 34.38 
L 412.811406 34.38 
z
" clip-path="url(#p4cb7591f79)" style="fill: #ffbcbc"/>
    <path d="M 414.830453 34.38 
L 414.830453 7.2 
L 416.849499 7.2 
L 416.849499 34.38 
L 414.830453 34.38 
z
" clip-path="url(#p4cb7591f79)" style="fill: #f8f8ff"/>
    <path d="M 416.849499 34.38 
L 416.849499 7.2 
L 418.868546 7.2 
L 418.868546 34.38 
L 416.849499 34.38 
z
" clip-path="url(#p4cb7591f79)" style="fill: #ffe4e4"/>
    <path d="M 418.868546 34.38 
L 418.868546 7.2 
L 420.887592 7.2 
L 420.887592 34.38 
L 418.868546 34.38 
z
" clip-path="url(#p4cb7591f79)" style="fill: #b0b0ff"/>
    <path d="M 420.887592 34.38 
L 420.887592 7.2 
L 422.906638 7.2 
L 422.906638 34.38 
L 420.887592 34.38 
z
" clip-path="url(#p4cb7591f79)" style="fill: #dadaff"/>
    <path d="M 422.906638 34.38 
L 422.906638 7.2 
L 424.925685 7.2 
L 424.925685 34.38 
L 422.906638 34.38 
z
" clip-path="url(#p4cb7591f79)" style="fill: #ffe6e6"/>
    <path d="M 424.925685 34.38 
L 424.925685 7.2 
L 426.944731 7.2 
L 426.944731 34.38 
L 424.925685 34.38 
z
" clip-path="url(#p4cb7591f79)" style="fill: #ffe8e8"/>
    <path d="M 426.944731 34.38 
L 426.944731 7.2 
L 428.963778 7.2 
L 428.963778 34.38 
L 426.944731 34.38 
z
" clip-path="url(#p4cb7591f79)" style="fill: #e0e0ff"/>
    <path d="M 428.963778 34.38 
L 428.963778 7.2 
L 430.982824 7.2 
L 430.982824 34.38 
L 428.963778 34.38 
z
" clip-path="url(#p4cb7591f79)" style="fill: #ffdcdc"/>
    <path d="M 430.982824 34.38 
L 430.982824 7.2 
L 433.00187 7.2 
L 433.00187 34.38 
L 430.982824 34.38 
z
" clip-path="url(#p4cb7591f79)" style="fill: #e4e4ff"/>
    <path d="M 433.00187 34.38 
L 433.00187 7.2 
L 435.020917 7.2 
L 435.020917 34.38 
L 433.00187 34.38 
z
" clip-path="url(#p4cb7591f79)" style="fill: #f4f4ff"/>
    <path d="M 435.020917 34.38 
L 435.020917 7.2 
L 437.039963 7.2 
L 437.039963 34.38 
L 435.020917 34.38 
z
" clip-path="url(#p4cb7591f79)" style="fill: #fffefe"/>
    <path d="M 437.039963 34.38 
L 437.039963 7.2 
L 439.05901 7.2 
L 439.05901 34.38 
L 437.039963 34.38 
z
" clip-path="url(#p4cb7591f79)" style="fill: #fffefe"/>
    <path d="M 439.05901 34.38 
L 439.05901 7.2 
L 441.078056 7.2 
L 441.078056 34.38 
L 439.05901 34.38 
z
" clip-path="url(#p4cb7591f79)" style="fill: #f8f8ff"/>
    <path d="M 441.078056 34.38 
L 441.078056 7.2 
L 443.097102 7.2 
L 443.097102 34.38 
L 441.078056 34.38 
z
" clip-path="url(#p4cb7591f79)" style="fill: #fffefe"/>
    <path d="M 443.097102 34.38 
L 443.097102 7.2 
L 445.116149 7.2 
L 445.116149 34.38 
L 443.097102 34.38 
z
" clip-path="url(#p4cb7591f79)" style="fill: #f6f6ff"/>
    <path d="M 445.116149 34.38 
L 445.116149 7.2 
L 447.135195 7.2 
L 447.135195 34.38 
L 445.116149 34.38 
z
" clip-path="url(#p4cb7591f79)" style="fill: #fffefe"/>
    <path d="M 447.135195 34.38 
L 447.135195 7.2 
L 449.154242 7.2 
L 449.154242 34.38 
L 447.135195 34.38 
z
" clip-path="url(#p4cb7591f79)" style="fill: #fafaff"/>
    <path d="M 449.154242 34.38 
L 449.154242 7.2 
L 451.173288 7.2 
L 451.173288 34.38 
L 449.154242 34.38 
z
" clip-path="url(#p4cb7591f79)" style="fill: #ffeaea"/>
    <path d="M 451.173288 34.38 
L 451.173288 7.2 
L 453.192334 7.2 
L 453.192334 34.38 
L 451.173288 34.38 
z
" clip-path="url(#p4cb7591f79)" style="fill: #eaeaff"/>
    <path d="M 453.192334 34.38 
L 453.192334 7.2 
L 455.211381 7.2 
L 455.211381 34.38 
L 453.192334 34.38 
z
" clip-path="url(#p4cb7591f79)" style="fill: #fff2f2"/>
    <path d="M 455.211381 34.38 
L 455.211381 7.2 
L 457.230427 7.2 
L 457.230427 34.38 
L 455.211381 34.38 
z
" clip-path="url(#p4cb7591f79)" style="fill: #f2f2ff"/>
    <path d="M 457.230427 34.38 
L 457.230427 7.2 
L 459.249474 7.2 
L 459.249474 34.38 
L 457.230427 34.38 
z
" clip-path="url(#p4cb7591f79)" style="fill: #9292ff"/>
    <path d="M 459.249474 34.38 
L 459.249474 7.2 
L 461.26852 7.2 
L 461.26852 34.38 
L 459.249474 34.38 
z
" clip-path="url(#p4cb7591f79)" style="fill: #aaaaff"/>
    <path d="M 461.26852 34.38 
L 461.26852 7.2 
L 463.287566 7.2 
L 463.287566 34.38 
L 461.26852 34.38 
z
" clip-path="url(#p4cb7591f79)" style="fill: #8a8aff"/>
    <path d="M 463.287566 34.38 
L 463.287566 7.2 
L 465.306613 7.2 
L 465.306613 34.38 
L 463.287566 34.38 
z
" clip-path="url(#p4cb7591f79)" style="fill: #cacaff"/>
    <path d="M 465.306613 34.38 
L 465.306613 7.2 
L 467.325659 7.2 
L 467.325659 34.38 
L 465.306613 34.38 
z
" clip-path="url(#p4cb7591f79)" style="fill: #eaeaff"/>
    <path d="M 467.325659 34.38 
L 467.325659 7.2 
L 469.344706 7.2 
L 469.344706 34.38 
L 467.325659 34.38 
z
" clip-path="url(#p4cb7591f79)" style="fill: #e8e8ff"/>
    <path d="M 469.344706 34.38 
L 469.344706 7.2 
L 471.363752 7.2 
L 471.363752 34.38 
L 469.344706 34.38 
z
" clip-path="url(#p4cb7591f79)" style="fill: #f0f0ff"/>
    <path d="M 471.363752 34.38 
L 471.363752 7.2 
L 473.382798 7.2 
L 473.382798 34.38 
L 471.363752 34.38 
z
" clip-path="url(#p4cb7591f79)" style="fill: #d0d0ff"/>
    <path d="M 473.382798 34.38 
L 473.382798 7.2 
L 475.401845 7.2 
L 475.401845 34.38 
L 473.382798 34.38 
z
" clip-path="url(#p4cb7591f79)" style="fill: #d4d4ff"/>
    <path d="M 475.401845 34.38 
L 475.401845 7.2 
L 477.420891 7.2 
L 477.420891 34.38 
L 475.401845 34.38 
z
" clip-path="url(#p4cb7591f79)" style="fill: #ccccff"/>
    <path d="M 477.420891 34.38 
L 477.420891 7.2 
L 479.439938 7.2 
L 479.439938 34.38 
L 477.420891 34.38 
z
" clip-path="url(#p4cb7591f79)" style="fill: #8e8eff"/>
    <path d="M 479.439938 34.38 
L 479.439938 7.2 
L 481.458984 7.2 
L 481.458984 34.38 
L 479.439938 34.38 
z
" clip-path="url(#p4cb7591f79)" style="fill: #acacff"/>
    <path d="M 481.458984 34.38 
L 481.458984 7.2 
L 483.47803 7.2 
L 483.47803 34.38 
L 481.458984 34.38 
z
" clip-path="url(#p4cb7591f79)" style="fill: #7676ff"/>
    <path d="M 483.47803 34.38 
L 483.47803 7.2 
L 485.497077 7.2 
L 485.497077 34.38 
L 483.47803 34.38 
z
" clip-path="url(#p4cb7591f79)" style="fill: #8e8eff"/>
    <path d="M 485.497077 34.38 
L 485.497077 7.2 
L 487.516123 7.2 
L 487.516123 34.38 
L 485.497077 34.38 
z
" clip-path="url(#p4cb7591f79)" style="fill: #7272ff"/>
    <path d="M 487.516123 34.38 
L 487.516123 7.2 
L 489.53517 7.2 
L 489.53517 34.38 
L 487.516123 34.38 
z
" clip-path="url(#p4cb7591f79)" style="fill: #7070ff"/>
    <path d="M 489.53517 34.38 
L 489.53517 7.2 
L 491.554216 7.2 
L 491.554216 34.38 
L 489.53517 34.38 
z
" clip-path="url(#p4cb7591f79)" style="fill: #5656ff"/>
    <path d="M 491.554216 34.38 
L 491.554216 7.2 
L 493.573262 7.2 
L 493.573262 34.38 
L 491.554216 34.38 
z
" clip-path="url(#p4cb7591f79)" style="fill: #7070ff"/>
    <path d="M 493.573262 34.38 
L 493.573262 7.2 
L 495.592309 7.2 
L 495.592309 34.38 
L 493.573262 34.38 
z
" clip-path="url(#p4cb7591f79)" style="fill: #c6c6ff"/>
    <path d="M 495.592309 34.38 
L 495.592309 7.2 
L 497.611355 7.2 
L 497.611355 34.38 
L 495.592309 34.38 
z
" clip-path="url(#p4cb7591f79)" style="fill: #8c8cff"/>
    <path d="M 497.611355 34.38 
L 497.611355 7.2 
L 499.630402 7.2 
L 499.630402 34.38 
L 497.611355 34.38 
z
" clip-path="url(#p4cb7591f79)" style="fill: #f2f2ff"/>
    <path d="M 499.630402 34.38 
L 499.630402 7.2 
L 501.649448 7.2 
L 501.649448 34.38 
L 499.630402 34.38 
z
" clip-path="url(#p4cb7591f79)" style="fill: #ffd2d2"/>
    <path d="M 501.649448 34.38 
L 501.649448 7.2 
L 503.668495 7.2 
L 503.668495 34.38 
L 501.649448 34.38 
z
" clip-path="url(#p4cb7591f79)" style="fill: #ffd2d2"/>
    <path d="M 503.668495 34.38 
L 503.668495 7.2 
L 505.687541 7.2 
L 505.687541 34.38 
L 503.668495 34.38 
z
" clip-path="url(#p4cb7591f79)" style="fill: #ff8080"/>
    <path d="M 505.687541 34.38 
L 505.687541 7.2 
L 507.706587 7.2 
L 507.706587 34.38 
L 505.687541 34.38 
z
" clip-path="url(#p4cb7591f79)" style="fill: #fffefe"/>
    <path d="M 507.706587 34.38 
L 507.706587 7.2 
L 509.725634 7.2 
L 509.725634 34.38 
L 507.706587 34.38 
z
" clip-path="url(#p4cb7591f79)" style="fill: #ff7c7c"/>
    <path d="M 509.725634 34.38 
L 509.725634 7.2 
L 511.74468 7.2 
L 511.74468 34.38 
L 509.725634 34.38 
z
" clip-path="url(#p4cb7591f79)" style="fill: #ff3a3a"/>
    <path d="M 511.74468 34.38 
L 511.74468 7.2 
L 513.763727 7.2 
L 513.763727 34.38 
L 511.74468 34.38 
z
" clip-path="url(#p4cb7591f79)" style="fill: #ffb8b8"/>
    <path d="M 513.763727 34.38 
L 513.763727 7.2 
L 515.782773 7.2 
L 515.782773 34.38 
L 513.763727 34.38 
z
" clip-path="url(#p4cb7591f79)" style="fill: #ffeeee"/>
    <path d="M 515.782773 34.38 
L 515.782773 7.2 
L 517.801819 7.2 
L 517.801819 34.38 
L 515.782773 34.38 
z
" clip-path="url(#p4cb7591f79)" style="fill: #ffb2b2"/>
    <path d="M 517.801819 34.38 
L 517.801819 7.2 
L 519.820866 7.2 
L 519.820866 34.38 
L 517.801819 34.38 
z
" clip-path="url(#p4cb7591f79)" style="fill: #b8b8ff"/>
    <path d="M 519.820866 34.38 
L 519.820866 7.2 
L 521.839912 7.2 
L 521.839912 34.38 
L 519.820866 34.38 
z
" clip-path="url(#p4cb7591f79)" style="fill: #ffeeee"/>
    <path d="M 521.839912 34.38 
L 521.839912 7.2 
L 523.858959 7.2 
L 523.858959 34.38 
L 521.839912 34.38 
z
" clip-path="url(#p4cb7591f79)" style="fill: #ffa4a4"/>
    <path d="M 523.858959 34.38 
L 523.858959 7.2 
L 525.878005 7.2 
L 525.878005 34.38 
L 523.858959 34.38 
z
" clip-path="url(#p4cb7591f79)" style="fill: #a6a6ff"/>
    <path d="M 525.878005 34.38 
L 525.878005 7.2 
L 527.897051 7.2 
L 527.897051 34.38 
L 525.878005 34.38 
z
" clip-path="url(#p4cb7591f79)" style="fill: #ffb0b0"/>
    <path d="M 527.897051 34.38 
L 527.897051 7.2 
L 529.916098 7.2 
L 529.916098 34.38 
L 527.897051 34.38 
z
" clip-path="url(#p4cb7591f79)" style="fill: #ffecec"/>
    <path d="M 529.916098 34.38 
L 529.916098 7.2 
L 531.935144 7.2 
L 531.935144 34.38 
L 529.916098 34.38 
z
" clip-path="url(#p4cb7591f79)" style="fill: #ffacac"/>
    <path d="M 531.935144 34.38 
L 531.935144 7.2 
L 533.954191 7.2 
L 533.954191 34.38 
L 531.935144 34.38 
z
" clip-path="url(#p4cb7591f79)" style="fill: #dadaff"/>
    <path d="M 533.954191 34.38 
L 533.954191 7.2 
L 535.973237 7.2 
L 535.973237 34.38 
L 533.954191 34.38 
z
" clip-path="url(#p4cb7591f79)" style="fill: #dadaff"/>
    <path d="M 535.973237 34.38 
L 535.973237 7.2 
L 537.992283 7.2 
L 537.992283 34.38 
L 535.973237 34.38 
z
" clip-path="url(#p4cb7591f79)" style="fill: #ffe8e8"/>
    <path d="M 537.992283 34.38 
L 537.992283 7.2 
L 540.01133 7.2 
L 540.01133 34.38 
L 537.992283 34.38 
z
" clip-path="url(#p4cb7591f79)" style="fill: #ffa8a8"/>
    <path d="M 540.01133 34.38 
L 540.01133 7.2 
L 542.030376 7.2 
L 542.030376 34.38 
L 540.01133 34.38 
z
" clip-path="url(#p4cb7591f79)" style="fill: #ffbcbc"/>
    <path d="M 542.030376 34.38 
L 542.030376 7.2 
L 544.049423 7.2 
L 544.049423 34.38 
L 542.030376 34.38 
z
" clip-path="url(#p4cb7591f79)" style="fill: #fff8f8"/>
    <path d="M 544.049423 34.38 
L 544.049423 7.2 
L 546.068469 7.2 
L 546.068469 34.38 
L 544.049423 34.38 
z
" clip-path="url(#p4cb7591f79)" style="fill: #ffaaaa"/>
    <path d="M 546.068469 34.38 
L 546.068469 7.2 
L 548.087515 7.2 
L 548.087515 34.38 
L 546.068469 34.38 
z
" clip-path="url(#p4cb7591f79)" style="fill: #ffcece"/>
    <path d="M 548.087515 34.38 
L 548.087515 7.2 
L 550.106562 7.2 
L 550.106562 34.38 
L 548.087515 34.38 
z
" clip-path="url(#p4cb7591f79)" style="fill: #ffeaea"/>
    <path d="M 550.106562 34.38 
L 550.106562 7.2 
L 552.125608 7.2 
L 552.125608 34.38 
L 550.106562 34.38 
z
" clip-path="url(#p4cb7591f79)" style="fill: #ff9696"/>
    <path d="M 552.125608 34.38 
L 552.125608 7.2 
L 554.144655 7.2 
L 554.144655 34.38 
L 552.125608 34.38 
z
" clip-path="url(#p4cb7591f79)" style="fill: #ffc6c6"/>
    <path d="M 554.144655 34.38 
L 554.144655 7.2 
L 556.163701 7.2 
L 556.163701 34.38 
L 554.144655 34.38 
z
" clip-path="url(#p4cb7591f79)" style="fill: #ffd4d4"/>
    <path d="M 556.163701 34.38 
L 556.163701 7.2 
L 558.182747 7.2 
L 558.182747 34.38 
L 556.163701 34.38 
z
" clip-path="url(#p4cb7591f79)" style="fill: #8a8aff"/>
    <path d="M 558.182747 34.38 
L 558.182747 7.2 
L 560.201794 7.2 
L 560.201794 34.38 
L 558.182747 34.38 
z
" clip-path="url(#p4cb7591f79)" style="fill: #ffc4c4"/>
    <path d="M 560.201794 34.38 
L 560.201794 7.2 
L 562.22084 7.2 
L 562.22084 34.38 
L 560.201794 34.38 
z
" clip-path="url(#p4cb7591f79)" style="fill: #babaff"/>
    <path d="M 562.22084 34.38 
L 562.22084 7.2 
L 564.239887 7.2 
L 564.239887 34.38 
L 562.22084 34.38 
z
" clip-path="url(#p4cb7591f79)" style="fill: #ffc6c6"/>
    <path d="M 564.239887 34.38 
L 564.239887 7.2 
L 566.258933 7.2 
L 566.258933 34.38 
L 564.239887 34.38 
z
" clip-path="url(#p4cb7591f79)" style="fill: #ff7e7e"/>
    <path d="M 566.258933 34.38 
L 566.258933 7.2 
L 568.277979 7.2 
L 568.277979 34.38 
L 566.258933 34.38 
z
" clip-path="url(#p4cb7591f79)" style="fill: #ff5858"/>
    <path d="M 568.277979 34.38 
L 568.277979 7.2 
L 570.297026 7.2 
L 570.297026 34.38 
L 568.277979 34.38 
z
" clip-path="url(#p4cb7591f79)" style="fill: #ff5858"/>
    <path d="M 570.297026 34.38 
L 570.297026 7.2 
L 572.316072 7.2 
L 572.316072 34.38 
L 570.297026 34.38 
z
" clip-path="url(#p4cb7591f79)" style="fill: #ffaeae"/>
    <path d="M 572.316072 34.38 
L 572.316072 7.2 
L 574.335119 7.2 
L 574.335119 34.38 
L 572.316072 34.38 
z
" clip-path="url(#p4cb7591f79)" style="fill: #9494ff"/>
    <path d="M 574.335119 34.38 
L 574.335119 7.2 
L 576.354165 7.2 
L 576.354165 34.38 
L 574.335119 34.38 
z
" clip-path="url(#p4cb7591f79)" style="fill: #9a9aff"/>
    <path d="M 576.354165 34.38 
L 576.354165 7.2 
L 578.373211 7.2 
L 578.373211 34.38 
L 576.354165 34.38 
z
" clip-path="url(#p4cb7591f79)" style="fill: #c0c0ff"/>
    <path d="M 578.373211 34.38 
L 578.373211 7.2 
L 580.392258 7.2 
L 580.392258 34.38 
L 578.373211 34.38 
z
" clip-path="url(#p4cb7591f79)" style="fill: #b0b0ff"/>
    <path d="M 580.392258 34.38 
L 580.392258 7.2 
L 582.411304 7.2 
L 582.411304 34.38 
L 580.392258 34.38 
z
" clip-path="url(#p4cb7591f79)" style="fill: #b2b2ff"/>
    <path d="M 582.411304 34.38 
L 582.411304 7.2 
L 584.430351 7.2 
L 584.430351 34.38 
L 582.411304 34.38 
z
" clip-path="url(#p4cb7591f79)" style="fill: #a4a4ff"/>
    <path d="M 584.430351 34.38 
L 584.430351 7.2 
L 586.449397 7.2 
L 586.449397 34.38 
L 584.430351 34.38 
z
" clip-path="url(#p4cb7591f79)" style="fill: #a0a0ff"/>
    <path d="M 586.449397 34.38 
L 586.449397 7.2 
L 588.468443 7.2 
L 588.468443 34.38 
L 586.449397 34.38 
z
" clip-path="url(#p4cb7591f79)" style="fill: #a0a0ff"/>
    <path d="M 588.468443 34.38 
L 588.468443 7.2 
L 590.48749 7.2 
L 590.48749 34.38 
L 588.468443 34.38 
z
" clip-path="url(#p4cb7591f79)" style="fill: #dcdcff"/>
    <path d="M 590.48749 34.38 
L 590.48749 7.2 
L 592.506536 7.2 
L 592.506536 34.38 
L 590.48749 34.38 
z
" clip-path="url(#p4cb7591f79)" style="fill: #dadaff"/>
    <path d="M 592.506536 34.38 
L 592.506536 7.2 
L 594.525583 7.2 
L 594.525583 34.38 
L 592.506536 34.38 
z
" clip-path="url(#p4cb7591f79)" style="fill: #dcdcff"/>
    <path d="M 594.525583 34.38 
L 594.525583 7.2 
L 596.544629 7.2 
L 596.544629 34.38 
L 594.525583 34.38 
z
" clip-path="url(#p4cb7591f79)" style="fill: #ffc2c2"/>
    <path d="M 596.544629 34.38 
L 596.544629 7.2 
L 598.563675 7.2 
L 598.563675 34.38 
L 596.544629 34.38 
z
" clip-path="url(#p4cb7591f79)" style="fill: #ff7878"/>
    <path d="M 598.563675 34.38 
L 598.563675 7.2 
L 600.582722 7.2 
L 600.582722 34.38 
L 598.563675 34.38 
z
" clip-path="url(#p4cb7591f79)" style="fill: #ffa0a0"/>
    <path d="M 600.582722 34.38 
L 600.582722 7.2 
L 602.601768 7.2 
L 602.601768 34.38 
L 600.582722 34.38 
z
" clip-path="url(#p4cb7591f79)" style="fill: #aaaaff"/>
    <path d="M 602.601768 34.38 
L 602.601768 7.2 
L 604.620815 7.2 
L 604.620815 34.38 
L 602.601768 34.38 
z
" clip-path="url(#p4cb7591f79)" style="fill: #c0c0ff"/>
    <path d="M 604.620815 34.38 
L 604.620815 7.2 
L 606.639861 7.2 
L 606.639861 34.38 
L 604.620815 34.38 
z
" clip-path="url(#p4cb7591f79)" style="fill: #ff1818"/>
    <path d="M 606.639861 34.38 
L 606.639861 7.2 
L 608.658907 7.2 
L 608.658907 34.38 
L 606.639861 34.38 
z
" clip-path="url(#p4cb7591f79)" style="fill: #cacaff"/>
    <path d="M 608.658907 34.38 
L 608.658907 7.2 
L 610.677954 7.2 
L 610.677954 34.38 
L 608.658907 34.38 
z
" clip-path="url(#p4cb7591f79)" style="fill: #ffbebe"/>
    <path d="M 610.677954 34.38 
L 610.677954 7.2 
L 612.697 7.2 
L 612.697 34.38 
L 610.677954 34.38 
z
" clip-path="url(#p4cb7591f79)" style="fill: #ffc2c2"/>
    <path d="M 612.697 34.38 
L 612.697 7.2 
L 614.716047 7.2 
L 614.716047 34.38 
L 612.697 34.38 
z
" clip-path="url(#p4cb7591f79)" style="fill: #ffa0a0"/>
    <path d="M 614.716047 34.38 
L 614.716047 7.2 
L 616.735093 7.2 
L 616.735093 34.38 
L 614.716047 34.38 
z
" clip-path="url(#p4cb7591f79)" style="fill: #ffb4b4"/>
    <path d="M 616.735093 34.38 
L 616.735093 7.2 
L 618.754139 7.2 
L 618.754139 34.38 
L 616.735093 34.38 
z
" clip-path="url(#p4cb7591f79)" style="fill: #ffc6c6"/>
    <path d="M 618.754139 34.38 
L 618.754139 7.2 
L 620.773186 7.2 
L 620.773186 34.38 
L 618.754139 34.38 
z
" clip-path="url(#p4cb7591f79)" style="fill: #ffeaea"/>
    <path d="M 620.773186 34.38 
L 620.773186 7.2 
L 622.792232 7.2 
L 622.792232 34.38 
L 620.773186 34.38 
z
" clip-path="url(#p4cb7591f79)" style="fill: #c0c0ff"/>
    <path d="M 622.792232 34.38 
L 622.792232 7.2 
L 624.811279 7.2 
L 624.811279 34.38 
L 622.792232 34.38 
z
" clip-path="url(#p4cb7591f79)" style="fill: #b4b4ff"/>
    <path d="M 624.811279 34.38 
L 624.811279 7.2 
L 626.830325 7.2 
L 626.830325 34.38 
L 624.811279 34.38 
z
" clip-path="url(#p4cb7591f79)" style="fill: #babaff"/>
    <path d="M 626.830325 34.38 
L 626.830325 7.2 
L 628.849371 7.2 
L 628.849371 34.38 
L 626.830325 34.38 
z
" clip-path="url(#p4cb7591f79)" style="fill: #ffb4b4"/>
    <path d="M 628.849371 34.38 
L 628.849371 7.2 
L 630.868418 7.2 
L 630.868418 34.38 
L 628.849371 34.38 
z
" clip-path="url(#p4cb7591f79)" style="fill: #ffb6b6"/>
    <path d="M 630.868418 34.38 
L 630.868418 7.2 
L 632.887464 7.2 
L 632.887464 34.38 
L 630.868418 34.38 
z
" clip-path="url(#p4cb7591f79)" style="fill: #ffb0b0"/>
    <path d="M 632.887464 34.38 
L 632.887464 7.2 
L 634.906511 7.2 
L 634.906511 34.38 
L 632.887464 34.38 
z
" clip-path="url(#p4cb7591f79)" style="fill: #ffa4a4"/>
    <path d="M 634.906511 34.38 
L 634.906511 7.2 
L 636.925557 7.2 
L 636.925557 34.38 
L 634.906511 34.38 
z
" clip-path="url(#p4cb7591f79)" style="fill: #ffa8a8"/>
    <path d="M 636.925557 34.38 
L 636.925557 7.2 
L 638.944603 7.2 
L 638.944603 34.38 
L 636.925557 34.38 
z
" clip-path="url(#p4cb7591f79)" style="fill: #ffb0b0"/>
    <path d="M 638.944603 34.38 
L 638.944603 7.2 
L 640.96365 7.2 
L 640.96365 34.38 
L 638.944603 34.38 
z
" clip-path="url(#p4cb7591f79)" style="fill: #ffa2a2"/>
    <path d="M 640.96365 34.38 
L 640.96365 7.2 
L 642.982696 7.2 
L 642.982696 34.38 
L 640.96365 34.38 
z
" clip-path="url(#p4cb7591f79)" style="fill: #ffacac"/>
    <path d="M 642.982696 34.38 
L 642.982696 7.2 
L 645.001743 7.2 
L 645.001743 34.38 
L 642.982696 34.38 
z
" clip-path="url(#p4cb7591f79)" style="fill: #ffdede"/>
    <path d="M 645.001743 34.38 
L 645.001743 7.2 
L 647.020789 7.2 
L 647.020789 34.38 
L 645.001743 34.38 
z
" clip-path="url(#p4cb7591f79)" style="fill: #ffdede"/>
    <path d="M 647.020789 34.38 
L 647.020789 7.2 
L 649.039835 7.2 
L 649.039835 34.38 
L 647.020789 34.38 
z
" clip-path="url(#p4cb7591f79)" style="fill: #ffdede"/>
    <path d="M 649.039835 34.38 
L 649.039835 7.2 
L 651.058882 7.2 
L 651.058882 34.38 
L 649.039835 34.38 
z
" clip-path="url(#p4cb7591f79)" style="fill: #ffc0c0"/>
    <path d="M 651.058882 34.38 
L 651.058882 7.2 
L 653.077928 7.2 
L 653.077928 34.38 
L 651.058882 34.38 
z
" clip-path="url(#p4cb7591f79)" style="fill: #b2b2ff"/>
    <path d="M 653.077928 34.38 
L 653.077928 7.2 
L 655.096975 7.2 
L 655.096975 34.38 
L 653.077928 34.38 
z
" clip-path="url(#p4cb7591f79)" style="fill: #a0a0ff"/>
    <path d="M 655.096975 34.38 
L 655.096975 7.2 
L 657.116021 7.2 
L 657.116021 34.38 
L 655.096975 34.38 
z
" clip-path="url(#p4cb7591f79)" style="fill: #a2a2ff"/>
    <path d="M 657.116021 34.38 
L 657.116021 7.2 
L 659.135067 7.2 
L 659.135067 34.38 
L 657.116021 34.38 
z
" clip-path="url(#p4cb7591f79)" style="fill: #babaff"/>
    <path d="M 659.135067 34.38 
L 659.135067 7.2 
L 661.154114 7.2 
L 661.154114 34.38 
L 659.135067 34.38 
z
" clip-path="url(#p4cb7591f79)" style="fill: #9898ff"/>
    <path d="M 661.154114 34.38 
L 661.154114 7.2 
L 663.17316 7.2 
L 663.17316 34.38 
L 661.154114 34.38 
z
" clip-path="url(#p4cb7591f79)" style="fill: #aeaeff"/>
    <path d="M 663.17316 34.38 
L 663.17316 7.2 
L 665.192207 7.2 
L 665.192207 34.38 
L 663.17316 34.38 
z
" clip-path="url(#p4cb7591f79)" style="fill: #d8d8ff"/>
    <path d="M 665.192207 34.38 
L 665.192207 7.2 
L 667.211253 7.2 
L 667.211253 34.38 
L 665.192207 34.38 
z
" clip-path="url(#p4cb7591f79)" style="fill: #dedeff"/>
    <path d="M 667.211253 34.38 
L 667.211253 7.2 
L 669.2303 7.2 
L 669.2303 34.38 
L 667.211253 34.38 
z
" clip-path="url(#p4cb7591f79)" style="fill: #e4e4ff"/>
    <path d="M 669.2303 34.38 
L 669.2303 7.2 
L 671.249346 7.2 
L 671.249346 34.38 
L 669.2303 34.38 
z
" clip-path="url(#p4cb7591f79)" style="fill: #ffb6b6"/>
    <path d="M 671.249346 34.38 
L 671.249346 7.2 
L 673.268392 7.2 
L 673.268392 34.38 
L 671.249346 34.38 
z
" clip-path="url(#p4cb7591f79)" style="fill: #ffb4b4"/>
    <path d="M 673.268392 34.38 
L 673.268392 7.2 
L 675.287439 7.2 
L 675.287439 34.38 
L 673.268392 34.38 
z
" clip-path="url(#p4cb7591f79)" style="fill: #ffb2b2"/>
    <path d="M 675.287439 34.38 
L 675.287439 7.2 
L 677.306485 7.2 
L 677.306485 34.38 
L 675.287439 34.38 
z
" clip-path="url(#p4cb7591f79)" style="fill: #ffb4b4"/>
    <path d="M 677.306485 34.38 
L 677.306485 7.2 
L 679.325532 7.2 
L 679.325532 34.38 
L 677.306485 34.38 
z
" clip-path="url(#p4cb7591f79)" style="fill: #ffb4b4"/>
    <path d="M 679.325532 34.38 
L 679.325532 7.2 
L 681.344578 7.2 
L 681.344578 34.38 
L 679.325532 34.38 
z
" clip-path="url(#p4cb7591f79)" style="fill: #ffaeae"/>
    <path d="M 681.344578 34.38 
L 681.344578 7.2 
L 683.363624 7.2 
L 683.363624 34.38 
L 681.344578 34.38 
z
" clip-path="url(#p4cb7591f79)" style="fill: #ffaaaa"/>
    <path d="M 683.363624 34.38 
L 683.363624 7.2 
L 685.382671 7.2 
L 685.382671 34.38 
L 683.363624 34.38 
z
" clip-path="url(#p4cb7591f79)" style="fill: #ff9e9e"/>
    <path d="M 685.382671 34.38 
L 685.382671 7.2 
L 687.401717 7.2 
L 687.401717 34.38 
L 685.382671 34.38 
z
" clip-path="url(#p4cb7591f79)" style="fill: #ffa4a4"/>
    <path d="M 687.401717 34.38 
L 687.401717 7.2 
L 689.420764 7.2 
L 689.420764 34.38 
L 687.401717 34.38 
z
" clip-path="url(#p4cb7591f79)" style="fill: #ffd8d8"/>
    <path d="M 689.420764 34.38 
L 689.420764 7.2 
L 691.43981 7.2 
L 691.43981 34.38 
L 689.420764 34.38 
z
" clip-path="url(#p4cb7591f79)" style="fill: #ffd8d8"/>
    <path d="M 691.43981 34.38 
L 691.43981 7.2 
L 693.458856 7.2 
L 693.458856 34.38 
L 691.43981 34.38 
z
" clip-path="url(#p4cb7591f79)" style="fill: #ffdada"/>
    <path d="M 693.458856 34.38 
L 693.458856 7.2 
L 695.477903 7.2 
L 695.477903 34.38 
L 693.458856 34.38 
z
" clip-path="url(#p4cb7591f79)" style="fill: #ffbcbc"/>
    <path d="M 695.477903 34.38 
L 695.477903 7.2 
L 697.496949 7.2 
L 697.496949 34.38 
L 695.477903 34.38 
z
" clip-path="url(#p4cb7591f79)" style="fill: #ffacac"/>
    <path d="M 697.496949 34.38 
L 697.496949 7.2 
L 699.515996 7.2 
L 699.515996 34.38 
L 697.496949 34.38 
z
" clip-path="url(#p4cb7591f79)" style="fill: #ffb4b4"/>
    <path d="M 699.515996 34.38 
L 699.515996 7.2 
L 701.535042 7.2 
L 701.535042 34.38 
L 699.515996 34.38 
z
" clip-path="url(#p4cb7591f79)" style="fill: #ffcece"/>
    <path d="M 701.535042 34.38 
L 701.535042 7.2 
L 703.554088 7.2 
L 703.554088 34.38 
L 701.535042 34.38 
z
" clip-path="url(#p4cb7591f79)" style="fill: #ffcaca"/>
    <path d="M 703.554088 34.38 
L 703.554088 7.2 
L 705.573135 7.2 
L 705.573135 34.38 
L 703.554088 34.38 
z
" clip-path="url(#p4cb7591f79)" style="fill: #ffcccc"/>
    <path d="M 705.573135 34.38 
L 705.573135 7.2 
L 707.592181 7.2 
L 707.592181 34.38 
L 705.573135 34.38 
z
" clip-path="url(#p4cb7591f79)" style="fill: #ffb8b8"/>
    <path d="M 707.592181 34.38 
L 707.592181 7.2 
L 709.611228 7.2 
L 709.611228 34.38 
L 707.592181 34.38 
z
" clip-path="url(#p4cb7591f79)" style="fill: #ffaaaa"/>
    <path d="M 709.611228 34.38 
L 709.611228 7.2 
L 711.630274 7.2 
L 711.630274 34.38 
L 709.611228 34.38 
z
" clip-path="url(#p4cb7591f79)" style="fill: #ffaeae"/>
    <path d="M 711.630274 34.38 
L 711.630274 7.2 
L 713.64932 7.2 
L 713.64932 34.38 
L 711.630274 34.38 
z
" clip-path="url(#p4cb7591f79)" style="fill: #ffd4d4"/>
    <path d="M 713.64932 34.38 
L 713.64932 7.2 
L 715.668367 7.2 
L 715.668367 34.38 
L 713.64932 34.38 
z
" clip-path="url(#p4cb7591f79)" style="fill: #ffcaca"/>
    <path d="M 715.668367 34.38 
L 715.668367 7.2 
L 717.687413 7.2 
L 717.687413 34.38 
L 715.668367 34.38 
z
" clip-path="url(#p4cb7591f79)" style="fill: #ffcccc"/>
    <path d="M 717.687413 34.38 
L 717.687413 7.2 
L 719.70646 7.2 
L 719.70646 34.38 
L 717.687413 34.38 
z
" clip-path="url(#p4cb7591f79)" style="fill: #6666ff"/>
    <path d="M 719.70646 34.38 
L 719.70646 7.2 
L 721.725506 7.2 
L 721.725506 34.38 
L 719.70646 34.38 
z
" clip-path="url(#p4cb7591f79)" style="fill: #7a7aff"/>
    <path d="M 721.725506 34.38 
L 721.725506 7.2 
L 723.744552 7.2 
L 723.744552 34.38 
L 721.725506 34.38 
z
" clip-path="url(#p4cb7591f79)" style="fill: #7878ff"/>
    <path d="M 723.744552 34.38 
L 723.744552 7.2 
L 725.763599 7.2 
L 725.763599 34.38 
L 723.744552 34.38 
z
" clip-path="url(#p4cb7591f79)" style="fill: #6a6aff"/>
    <path d="M 725.763599 34.38 
L 725.763599 7.2 
L 727.782645 7.2 
L 727.782645 34.38 
L 725.763599 34.38 
z
" clip-path="url(#p4cb7591f79)" style="fill: #bcbcff"/>
    <path d="M 727.782645 34.38 
L 727.782645 7.2 
L 729.801692 7.2 
L 729.801692 34.38 
L 727.782645 34.38 
z
" clip-path="url(#p4cb7591f79)" style="fill: #e4e4ff"/>
    <path d="M 729.801692 34.38 
L 729.801692 7.2 
L 731.820738 7.2 
L 731.820738 34.38 
L 729.801692 34.38 
z
" clip-path="url(#p4cb7591f79)" style="fill: #4646ff"/>
    <path d="M 731.820738 34.38 
L 731.820738 7.2 
L 733.839784 7.2 
L 733.839784 34.38 
L 731.820738 34.38 
z
" clip-path="url(#p4cb7591f79)" style="fill: #ececff"/>
    <path d="M 733.839784 34.38 
L 733.839784 7.2 
L 735.858831 7.2 
L 735.858831 34.38 
L 733.839784 34.38 
z
" clip-path="url(#p4cb7591f79)" style="fill: #dcdcff"/>
    <path d="M 735.858831 34.38 
L 735.858831 7.2 
L 737.877877 7.2 
L 737.877877 34.38 
L 735.858831 34.38 
z
" clip-path="url(#p4cb7591f79)" style="fill: #ffd8d8"/>
    <path d="M 737.877877 34.38 
L 737.877877 7.2 
L 739.896924 7.2 
L 739.896924 34.38 
L 737.877877 34.38 
z
" clip-path="url(#p4cb7591f79)" style="fill: #ffecec"/>
    <path d="M 739.896924 34.38 
L 739.896924 7.2 
L 741.91597 7.2 
L 741.91597 34.38 
L 739.896924 34.38 
z
" clip-path="url(#p4cb7591f79)" style="fill: #f2f2ff"/>
    <path d="M 741.91597 34.38 
L 741.91597 7.2 
L 743.935016 7.2 
L 743.935016 34.38 
L 741.91597 34.38 
z
" clip-path="url(#p4cb7591f79)" style="fill: #ff9494"/>
    <path d="M 743.935016 34.38 
L 743.935016 7.2 
L 745.954063 7.2 
L 745.954063 34.38 
L 743.935016 34.38 
z
" clip-path="url(#p4cb7591f79)" style="fill: #ff9c9c"/>
    <path d="M 745.954063 34.38 
L 745.954063 7.2 
L 747.973109 7.2 
L 747.973109 34.38 
L 745.954063 34.38 
z
" clip-path="url(#p4cb7591f79)" style="fill: #ffcaca"/>
    <path d="M 747.973109 34.38 
L 747.973109 7.2 
L 749.992156 7.2 
L 749.992156 34.38 
L 747.973109 34.38 
z
" clip-path="url(#p4cb7591f79)" style="fill: #ffcece"/>
    <path d="M 749.992156 34.38 
L 749.992156 7.2 
L 752.011202 7.2 
L 752.011202 34.38 
L 749.992156 34.38 
z
" clip-path="url(#p4cb7591f79)" style="fill: #d8d8ff"/>
    <path d="M 752.011202 34.38 
L 752.011202 7.2 
L 754.030248 7.2 
L 754.030248 34.38 
L 752.011202 34.38 
z
" clip-path="url(#p4cb7591f79)" style="fill: #e4e4ff"/>
    <path d="M 754.030248 34.38 
L 754.030248 7.2 
L 756.049295 7.2 
L 756.049295 34.38 
L 754.030248 34.38 
z
" clip-path="url(#p4cb7591f79)" style="fill: #a6a6ff"/>
    <path d="M 756.049295 34.38 
L 756.049295 7.2 
L 758.068341 7.2 
L 758.068341 34.38 
L 756.049295 34.38 
z
" clip-path="url(#p4cb7591f79)" style="fill: #a4a4ff"/>
    <path d="M 758.068341 34.38 
L 758.068341 7.2 
L 760.087388 7.2 
L 760.087388 34.38 
L 758.068341 34.38 
z
" clip-path="url(#p4cb7591f79)" style="fill: #6262ff"/>
    <path d="M 760.087388 34.38 
L 760.087388 7.2 
L 762.106434 7.2 
L 762.106434 34.38 
L 760.087388 34.38 
z
" clip-path="url(#p4cb7591f79)" style="fill: #eaeaff"/>
    <path d="M 762.106434 34.38 
L 762.106434 7.2 
L 764.12548 7.2 
L 764.12548 34.38 
L 762.106434 34.38 
z
" clip-path="url(#p4cb7591f79)" style="fill: #ffe2e2"/>
    <path d="M 764.12548 34.38 
L 764.12548 7.2 
L 766.144527 7.2 
L 766.144527 34.38 
L 764.12548 34.38 
z
" clip-path="url(#p4cb7591f79)" style="fill: #ffc4c4"/>
    <path d="M 766.144527 34.38 
L 766.144527 7.2 
L 768.163573 7.2 
L 768.163573 34.38 
L 766.144527 34.38 
z
" clip-path="url(#p4cb7591f79)" style="fill: #acacff"/>
    <path d="M 768.163573 34.38 
L 768.163573 7.2 
L 770.18262 7.2 
L 770.18262 34.38 
L 768.163573 34.38 
z
" clip-path="url(#p4cb7591f79)" style="fill: #ffdede"/>
    <path d="M 770.18262 34.38 
L 770.18262 7.2 
L 772.201666 7.2 
L 772.201666 34.38 
L 770.18262 34.38 
z
" clip-path="url(#p4cb7591f79)" style="fill: #ffcaca"/>
    <path d="M 772.201666 34.38 
L 772.201666 7.2 
L 774.220712 7.2 
L 774.220712 34.38 
L 772.201666 34.38 
z
" clip-path="url(#p4cb7591f79)" style="fill: #b6b6ff"/>
    <path d="M 774.220712 34.38 
L 774.220712 7.2 
L 776.239759 7.2 
L 776.239759 34.38 
L 774.220712 34.38 
z
" clip-path="url(#p4cb7591f79)" style="fill: #ffe8e8"/>
    <path d="M 776.239759 34.38 
L 776.239759 7.2 
L 778.258805 7.2 
L 778.258805 34.38 
L 776.239759 34.38 
z
" clip-path="url(#p4cb7591f79)" style="fill: #ffeaea"/>
    <path d="M 778.258805 34.38 
L 778.258805 7.2 
L 780.277852 7.2 
L 780.277852 34.38 
L 778.258805 34.38 
z
" clip-path="url(#p4cb7591f79)" style="fill: #ffeeee"/>
    <path d="M 780.277852 34.38 
L 780.277852 7.2 
L 782.296898 7.2 
L 782.296898 34.38 
L 780.277852 34.38 
z
" clip-path="url(#p4cb7591f79)" style="fill: #fff0f0"/>
    <path d="M 782.296898 34.38 
L 782.296898 7.2 
L 784.315944 7.2 
L 784.315944 34.38 
L 782.296898 34.38 
z
" clip-path="url(#p4cb7591f79)" style="fill: #eeeeff"/>
    <path d="M 784.315944 34.38 
L 784.315944 7.2 
L 786.334991 7.2 
L 786.334991 34.38 
L 784.315944 34.38 
z
" clip-path="url(#p4cb7591f79)" style="fill: #0000ff"/>
    <path d="M 786.334991 34.38 
L 786.334991 7.2 
L 788.354037 7.2 
L 788.354037 34.38 
L 786.334991 34.38 
z
" clip-path="url(#p4cb7591f79)" style="fill: #c8c8ff"/>
    <path d="M 788.354037 34.38 
L 788.354037 7.2 
L 790.373084 7.2 
L 790.373084 34.38 
L 788.354037 34.38 
z
" clip-path="url(#p4cb7591f79)" style="fill: #2e2eff"/>
    <path d="M 790.373084 34.38 
L 790.373084 7.2 
L 792.39213 7.2 
L 792.39213 34.38 
L 790.373084 34.38 
z
" clip-path="url(#p4cb7591f79)" style="fill: #ffeeee"/>
    <path d="M 792.39213 34.38 
L 792.39213 7.2 
L 794.411176 7.2 
L 794.411176 34.38 
L 792.39213 34.38 
z
" clip-path="url(#p4cb7591f79)" style="fill: #ffc8c8"/>
    <path d="M 794.411176 34.38 
L 794.411176 7.2 
L 796.430223 7.2 
L 796.430223 34.38 
L 794.411176 34.38 
z
" clip-path="url(#p4cb7591f79)" style="fill: #ececff"/>
    <path d="M 796.430223 34.38 
L 796.430223 7.2 
L 798.449269 7.2 
L 798.449269 34.38 
L 796.430223 34.38 
z
" clip-path="url(#p4cb7591f79)" style="fill: #dadaff"/>
    <path d="M 798.449269 34.38 
L 798.449269 7.2 
L 800.468316 7.2 
L 800.468316 34.38 
L 798.449269 34.38 
z
" clip-path="url(#p4cb7591f79)" style="fill: #ccccff"/>
    <path d="M 800.468316 34.38 
L 800.468316 7.2 
L 802.487362 7.2 
L 802.487362 34.38 
L 800.468316 34.38 
z
" clip-path="url(#p4cb7591f79)" style="fill: #ffdede"/>
    <path d="M 802.487362 34.38 
L 802.487362 7.2 
L 804.506408 7.2 
L 804.506408 34.38 
L 802.487362 34.38 
z
" clip-path="url(#p4cb7591f79)" style="fill: #ffd6d6"/>
    <path d="M 804.506408 34.38 
L 804.506408 7.2 
L 806.525455 7.2 
L 806.525455 34.38 
L 804.506408 34.38 
z
" clip-path="url(#p4cb7591f79)" style="fill: #ffdcdc"/>
    <path d="M 806.525455 34.38 
L 806.525455 7.2 
L 808.544501 7.2 
L 808.544501 34.38 
L 806.525455 34.38 
z
" clip-path="url(#p4cb7591f79)" style="fill: #d8d8ff"/>
    <path d="M 808.544501 34.38 
L 808.544501 7.2 
L 810.563548 7.2 
L 810.563548 34.38 
L 808.544501 34.38 
z
" clip-path="url(#p4cb7591f79)" style="fill: #dedeff"/>
    <path d="M 810.563548 34.38 
L 810.563548 7.2 
L 812.582594 7.2 
L 812.582594 34.38 
L 810.563548 34.38 
z
" clip-path="url(#p4cb7591f79)" style="fill: #ffb8b8"/>
    <path d="M 812.582594 34.38 
L 812.582594 7.2 
L 814.60164 7.2 
L 814.60164 34.38 
L 812.582594 34.38 
z
" clip-path="url(#p4cb7591f79)" style="fill: #ffcccc"/>
    <path d="M 814.60164 34.38 
L 814.60164 7.2 
L 816.620687 7.2 
L 816.620687 34.38 
L 814.60164 34.38 
z
" clip-path="url(#p4cb7591f79)" style="fill: #6868ff"/>
    <path d="M 816.620687 34.38 
L 816.620687 7.2 
L 818.639733 7.2 
L 818.639733 34.38 
L 816.620687 34.38 
z
" clip-path="url(#p4cb7591f79)" style="fill: #7676ff"/>
    <path d="M 818.639733 34.38 
L 818.639733 7.2 
L 820.65878 7.2 
L 820.65878 34.38 
L 818.639733 34.38 
z
" clip-path="url(#p4cb7591f79)" style="fill: #6a6aff"/>
    <path d="M 820.65878 34.38 
L 820.65878 7.2 
L 822.677826 7.2 
L 822.677826 34.38 
L 820.65878 34.38 
z
" clip-path="url(#p4cb7591f79)" style="fill: #0000ff"/>
    <path d="M 822.677826 34.38 
L 822.677826 7.2 
L 824.696872 7.2 
L 824.696872 34.38 
L 822.677826 34.38 
z
" clip-path="url(#p4cb7591f79)" style="fill: #ffbebe"/>
    <path d="M 824.696872 34.38 
L 824.696872 7.2 
L 826.715919 7.2 
L 826.715919 34.38 
L 824.696872 34.38 
z
" clip-path="url(#p4cb7591f79)" style="fill: #ffdcdc"/>
    <path d="M 826.715919 34.38 
L 826.715919 7.2 
L 828.734965 7.2 
L 828.734965 34.38 
L 826.715919 34.38 
z
" clip-path="url(#p4cb7591f79)" style="fill: #ffcccc"/>
    <path d="M 828.734965 34.38 
L 828.734965 7.2 
L 830.754012 7.2 
L 830.754012 34.38 
L 828.734965 34.38 
z
" clip-path="url(#p4cb7591f79)" style="fill: #b0b0ff"/>
    <path d="M 830.754012 34.38 
L 830.754012 7.2 
L 832.773058 7.2 
L 832.773058 34.38 
L 830.754012 34.38 
z
" clip-path="url(#p4cb7591f79)" style="fill: #9696ff"/>
    <path d="M 832.773058 34.38 
L 832.773058 7.2 
L 834.792105 7.2 
L 834.792105 34.38 
L 832.773058 34.38 
z
" clip-path="url(#p4cb7591f79)" style="fill: #cacaff"/>
    <path d="M 834.792105 34.38 
L 834.792105 7.2 
L 836.811151 7.2 
L 836.811151 34.38 
L 834.792105 34.38 
z
" clip-path="url(#p4cb7591f79)" style="fill: #d4d4ff"/>
    <path d="M 836.811151 34.38 
L 836.811151 7.2 
L 838.830197 7.2 
L 838.830197 34.38 
L 836.811151 34.38 
z
" clip-path="url(#p4cb7591f79)" style="fill: #ff8282"/>
    <path d="M 838.830197 34.38 
L 838.830197 7.2 
L 840.849244 7.2 
L 840.849244 34.38 
L 838.830197 34.38 
z
" clip-path="url(#p4cb7591f79)" style="fill: #ffa8a8"/>
    <path d="M 840.849244 34.38 
L 840.849244 7.2 
L 842.86829 7.2 
L 842.86829 34.38 
L 840.849244 34.38 
z
" clip-path="url(#p4cb7591f79)" style="fill: #ffaaaa"/>
    <path d="M 842.86829 34.38 
L 842.86829 7.2 
L 844.887337 7.2 
L 844.887337 34.38 
L 842.86829 34.38 
z
" clip-path="url(#p4cb7591f79)" style="fill: #f0f0ff"/>
    <path d="M 844.887337 34.38 
L 844.887337 7.2 
L 846.906383 7.2 
L 846.906383 34.38 
L 844.887337 34.38 
z
" clip-path="url(#p4cb7591f79)" style="fill: #ffd2d2"/>
    <path d="M 846.906383 34.38 
L 846.906383 7.2 
L 848.925429 7.2 
L 848.925429 34.38 
L 846.906383 34.38 
z
" clip-path="url(#p4cb7591f79)" style="fill: #c0c0ff"/>
    <path d="M 848.925429 34.38 
L 848.925429 7.2 
L 850.944476 7.2 
L 850.944476 34.38 
L 848.925429 34.38 
z
" clip-path="url(#p4cb7591f79)" style="fill: #4444ff"/>
    <path d="M 850.944476 34.38 
L 850.944476 7.2 
L 852.963522 7.2 
L 852.963522 34.38 
L 850.944476 34.38 
z
" clip-path="url(#p4cb7591f79)" style="fill: #0000ff"/>
    <path d="M 852.963522 34.38 
L 852.963522 7.2 
L 854.982569 7.2 
L 854.982569 34.38 
L 852.963522 34.38 
z
" clip-path="url(#p4cb7591f79)" style="fill: #0000ff"/>
    <path d="M 854.982569 34.38 
L 854.982569 7.2 
L 857.001615 7.2 
L 857.001615 34.38 
L 854.982569 34.38 
z
" clip-path="url(#p4cb7591f79)" style="fill: #c4c4ff"/>
    <path d="M 857.001615 34.38 
L 857.001615 7.2 
L 859.020661 7.2 
L 859.020661 34.38 
L 857.001615 34.38 
z
" clip-path="url(#p4cb7591f79)" style="fill: #dcdcff"/>
    <path d="M 859.020661 34.38 
L 859.020661 7.2 
L 861.039708 7.2 
L 861.039708 34.38 
L 859.020661 34.38 
z
" clip-path="url(#p4cb7591f79)" style="fill: #fff4f4"/>
    <path d="M 861.039708 34.38 
L 861.039708 7.2 
L 863.058754 7.2 
L 863.058754 34.38 
L 861.039708 34.38 
z
" clip-path="url(#p4cb7591f79)" style="fill: #ffecec"/>
    <path d="M 863.058754 34.38 
L 863.058754 7.2 
L 865.077801 7.2 
L 865.077801 34.38 
L 863.058754 34.38 
z
" clip-path="url(#p4cb7591f79)" style="fill: #ececff"/>
    <path d="M 865.077801 34.38 
L 865.077801 7.2 
L 867.096847 7.2 
L 867.096847 34.38 
L 865.077801 34.38 
z
" clip-path="url(#p4cb7591f79)" style="fill: #e6e6ff"/>
    <path d="M 867.096847 34.38 
L 867.096847 7.2 
L 869.115893 7.2 
L 869.115893 34.38 
L 867.096847 34.38 
z
" clip-path="url(#p4cb7591f79)" style="fill: #e6e6ff"/>
    <path d="M 869.115893 34.38 
L 869.115893 7.2 
L 871.13494 7.2 
L 871.13494 34.38 
L 869.115893 34.38 
z
" clip-path="url(#p4cb7591f79)" style="fill: #6c6cff"/>
    <path d="M 871.13494 34.38 
L 871.13494 7.2 
L 873.153986 7.2 
L 873.153986 34.38 
L 871.13494 34.38 
z
" clip-path="url(#p4cb7591f79)" style="fill: #9696ff"/>
    <path d="M 873.153986 34.38 
L 873.153986 7.2 
L 875.173033 7.2 
L 875.173033 34.38 
L 873.153986 34.38 
z
" clip-path="url(#p4cb7591f79)" style="fill: #7c7cff"/>
    <path d="M 875.173033 34.38 
L 875.173033 7.2 
L 877.192079 7.2 
L 877.192079 34.38 
L 875.173033 34.38 
z
" clip-path="url(#p4cb7591f79)" style="fill: #f0f0ff"/>
    <path d="M 877.192079 34.38 
L 877.192079 7.2 
L 879.211125 7.2 
L 879.211125 34.38 
L 877.192079 34.38 
z
" clip-path="url(#p4cb7591f79)" style="fill: #e8e8ff"/>
    <path d="M 879.211125 34.38 
L 879.211125 7.2 
L 881.230172 7.2 
L 881.230172 34.38 
L 879.211125 34.38 
z
" clip-path="url(#p4cb7591f79)" style="fill: #e4e4ff"/>
    <path d="M 881.230172 34.38 
L 881.230172 7.2 
L 883.249218 7.2 
L 883.249218 34.38 
L 881.230172 34.38 
z
" clip-path="url(#p4cb7591f79)" style="fill: #5e5eff"/>
    <path d="M 883.249218 34.38 
L 883.249218 7.2 
L 885.268265 7.2 
L 885.268265 34.38 
L 883.249218 34.38 
z
" clip-path="url(#p4cb7591f79)" style="fill: #6c6cff"/>
    <path d="M 885.268265 34.38 
L 885.268265 7.2 
L 887.287311 7.2 
L 887.287311 34.38 
L 885.268265 34.38 
z
" clip-path="url(#p4cb7591f79)" style="fill: #5c5cff"/>
    <path d="M 887.287311 34.38 
L 887.287311 7.2 
L 889.306357 7.2 
L 889.306357 34.38 
L 887.287311 34.38 
z
" clip-path="url(#p4cb7591f79)" style="fill: #f2f2ff"/>
    <path d="M 889.306357 34.38 
L 889.306357 7.2 
L 891.325404 7.2 
L 891.325404 34.38 
L 889.306357 34.38 
z
" clip-path="url(#p4cb7591f79)" style="fill: #eeeeff"/>
    <path d="M 891.325404 34.38 
L 891.325404 7.2 
L 893.34445 7.2 
L 893.34445 34.38 
L 891.325404 34.38 
z
" clip-path="url(#p4cb7591f79)" style="fill: #f0f0ff"/>
    <path d="M 893.34445 34.38 
L 893.34445 7.2 
L 895.363497 7.2 
L 895.363497 34.38 
L 893.34445 34.38 
z
" clip-path="url(#p4cb7591f79)" style="fill: #5252ff"/>
    <path d="M 895.363497 34.38 
L 895.363497 7.2 
L 897.382543 7.2 
L 897.382543 34.38 
L 895.363497 34.38 
z
" clip-path="url(#p4cb7591f79)" style="fill: #6a6aff"/>
    <path d="M 897.382543 34.38 
L 897.382543 7.2 
L 899.401589 7.2 
L 899.401589 34.38 
L 897.382543 34.38 
z
" clip-path="url(#p4cb7591f79)" style="fill: #6060ff"/>
   </g>
   <g id="patch_3">
    <path d="M 79.66875 34.38 
L 79.66875 7.2 
" style="fill: none; stroke: #262626; stroke-width: 1.25; stroke-linejoin: miter; stroke-linecap: square"/>
   </g>
   <g id="patch_4">
    <path d="M 899.401589 34.38 
L 899.401589 7.2 
" style="fill: none; stroke: #262626; stroke-width: 1.25; stroke-linejoin: miter; stroke-linecap: square"/>
   </g>
   <g id="patch_5">
    <path d="M 79.66875 34.38 
L 899.401589 34.38 
" style="fill: none; stroke: #262626; stroke-width: 1.25; stroke-linejoin: miter; stroke-linecap: square"/>
   </g>
   <g id="patch_6">
    <path d="M 79.66875 7.2 
L 899.401589 7.2 
" style="fill: none; stroke: #262626; stroke-width: 1.25; stroke-linejoin: miter; stroke-linecap: square"/>
   </g>
   <g id="text_6">
    <!-- Cells -->
    <g style="fill: #262626" transform="translate(217.150463 64.278)scale(0.18 -0.18)">
     <defs>
      <path id="ArialMT-43" d="M 3763 1606 
L 4369 1453 
Q 4178 706 3683 314 
Q 3188 -78 2472 -78 
Q 1731 -78 1267 223 
Q 803 525 561 1097 
Q 319 1669 319 2325 
Q 319 3041 592 3573 
Q 866 4106 1370 4382 
Q 1875 4659 2481 4659 
Q 3169 4659 3637 4309 
Q 4106 3959 4291 3325 
L 3694 3184 
Q 3534 3684 3231 3912 
Q 2928 4141 2469 4141 
Q 1941 4141 1586 3887 
Q 1231 3634 1087 3207 
Q 944 2781 944 2328 
Q 944 1744 1114 1308 
Q 1284 872 1643 656 
Q 2003 441 2422 441 
Q 2931 441 3284 734 
Q 3638 1028 3763 1606 
z
" transform="scale(0.015625)"/>
      <path id="ArialMT-65" d="M 2694 1069 
L 3275 997 
Q 3138 488 2766 206 
Q 2394 -75 1816 -75 
Q 1088 -75 661 373 
Q 234 822 234 1631 
Q 234 2469 665 2931 
Q 1097 3394 1784 3394 
Q 2450 3394 2872 2941 
Q 3294 2488 3294 1666 
Q 3294 1616 3291 1516 
L 816 1516 
Q 847 969 1125 678 
Q 1403 388 1819 388 
Q 2128 388 2347 550 
Q 2566 713 2694 1069 
z
M 847 1978 
L 2700 1978 
Q 2663 2397 2488 2606 
Q 2219 2931 1791 2931 
Q 1403 2931 1139 2672 
Q 875 2413 847 1978 
z
" transform="scale(0.015625)"/>
      <path id="ArialMT-6c" d="M 409 0 
L 409 4581 
L 972 4581 
L 972 0 
L 409 0 
z
" transform="scale(0.015625)"/>
      <path id="ArialMT-73" d="M 197 991 
L 753 1078 
Q 800 744 1014 566 
Q 1228 388 1613 388 
Q 2000 388 2187 545 
Q 2375 703 2375 916 
Q 2375 1106 2209 1216 
Q 2094 1291 1634 1406 
Q 1016 1563 777 1677 
Q 538 1791 414 1992 
Q 291 2194 291 2438 
Q 291 2659 392 2848 
Q 494 3038 669 3163 
Q 800 3259 1026 3326 
Q 1253 3394 1513 3394 
Q 1903 3394 2198 3281 
Q 2494 3169 2634 2976 
Q 2775 2784 2828 2463 
L 2278 2388 
Q 2241 2644 2061 2787 
Q 1881 2931 1553 2931 
Q 1166 2931 1000 2803 
Q 834 2675 834 2503 
Q 834 2394 903 2306 
Q 972 2216 1119 2156 
Q 1203 2125 1616 2013 
Q 2213 1853 2448 1751 
Q 2684 1650 2818 1456 
Q 2953 1263 2953 975 
Q 2953 694 2789 445 
Q 2625 197 2315 61 
Q 2006 -75 1616 -75 
Q 969 -75 630 194 
Q 291 463 197 991 
z
" transform="scale(0.015625)"/>
     </defs>
     <use xlink:href="#ArialMT-43"/>
     <use xlink:href="#ArialMT-65" x="72.216797"/>
     <use xlink:href="#ArialMT-6c" x="127.832031"/>
     <use xlink:href="#ArialMT-6c" x="150.048828"/>
     <use xlink:href="#ArialMT-73" x="172.265625"/>
    </g>
   </g>
   <g id="text_7">
    <!-- Cytoplasm -->
    <g style="fill: #262626" transform="translate(513.652763 64.278)scale(0.18 -0.18)">
     <defs>
      <path id="ArialMT-79" d="M 397 -1278 
L 334 -750 
Q 519 -800 656 -800 
Q 844 -800 956 -737 
Q 1069 -675 1141 -563 
Q 1194 -478 1313 -144 
Q 1328 -97 1363 -6 
L 103 3319 
L 709 3319 
L 1400 1397 
Q 1534 1031 1641 628 
Q 1738 1016 1872 1384 
L 2581 3319 
L 3144 3319 
L 1881 -56 
Q 1678 -603 1566 -809 
Q 1416 -1088 1222 -1217 
Q 1028 -1347 759 -1347 
Q 597 -1347 397 -1278 
z
" transform="scale(0.015625)"/>
      <path id="ArialMT-74" d="M 1650 503 
L 1731 6 
Q 1494 -44 1306 -44 
Q 1000 -44 831 53 
Q 663 150 594 308 
Q 525 466 525 972 
L 525 2881 
L 113 2881 
L 113 3319 
L 525 3319 
L 525 4141 
L 1084 4478 
L 1084 3319 
L 1650 3319 
L 1650 2881 
L 1084 2881 
L 1084 941 
Q 1084 700 1114 631 
Q 1144 563 1211 522 
Q 1278 481 1403 481 
Q 1497 481 1650 503 
z
" transform="scale(0.015625)"/>
      <path id="ArialMT-6f" d="M 213 1659 
Q 213 2581 725 3025 
Q 1153 3394 1769 3394 
Q 2453 3394 2887 2945 
Q 3322 2497 3322 1706 
Q 3322 1066 3130 698 
Q 2938 331 2570 128 
Q 2203 -75 1769 -75 
Q 1072 -75 642 372 
Q 213 819 213 1659 
z
M 791 1659 
Q 791 1022 1069 705 
Q 1347 388 1769 388 
Q 2188 388 2466 706 
Q 2744 1025 2744 1678 
Q 2744 2294 2464 2611 
Q 2184 2928 1769 2928 
Q 1347 2928 1069 2612 
Q 791 2297 791 1659 
z
" transform="scale(0.015625)"/>
      <path id="ArialMT-70" d="M 422 -1272 
L 422 3319 
L 934 3319 
L 934 2888 
Q 1116 3141 1344 3267 
Q 1572 3394 1897 3394 
Q 2322 3394 2647 3175 
Q 2972 2956 3137 2557 
Q 3303 2159 3303 1684 
Q 3303 1175 3120 767 
Q 2938 359 2589 142 
Q 2241 -75 1856 -75 
Q 1575 -75 1351 44 
Q 1128 163 984 344 
L 984 -1272 
L 422 -1272 
z
M 931 1641 
Q 931 1000 1190 694 
Q 1450 388 1819 388 
Q 2194 388 2461 705 
Q 2728 1022 2728 1688 
Q 2728 2322 2467 2637 
Q 2206 2953 1844 2953 
Q 1484 2953 1207 2617 
Q 931 2281 931 1641 
z
" transform="scale(0.015625)"/>
      <path id="ArialMT-61" d="M 2588 409 
Q 2275 144 1986 34 
Q 1697 -75 1366 -75 
Q 819 -75 525 192 
Q 231 459 231 875 
Q 231 1119 342 1320 
Q 453 1522 633 1644 
Q 813 1766 1038 1828 
Q 1203 1872 1538 1913 
Q 2219 1994 2541 2106 
Q 2544 2222 2544 2253 
Q 2544 2597 2384 2738 
Q 2169 2928 1744 2928 
Q 1347 2928 1158 2789 
Q 969 2650 878 2297 
L 328 2372 
Q 403 2725 575 2942 
Q 747 3159 1072 3276 
Q 1397 3394 1825 3394 
Q 2250 3394 2515 3294 
Q 2781 3194 2906 3042 
Q 3031 2891 3081 2659 
Q 3109 2516 3109 2141 
L 3109 1391 
Q 3109 606 3145 398 
Q 3181 191 3288 0 
L 2700 0 
Q 2613 175 2588 409 
z
M 2541 1666 
Q 2234 1541 1622 1453 
Q 1275 1403 1131 1340 
Q 988 1278 909 1158 
Q 831 1038 831 891 
Q 831 666 1001 516 
Q 1172 366 1500 366 
Q 1825 366 2078 508 
Q 2331 650 2450 897 
Q 2541 1088 2541 1459 
L 2541 1666 
z
" transform="scale(0.015625)"/>
      <path id="ArialMT-6d" d="M 422 0 
L 422 3319 
L 925 3319 
L 925 2853 
Q 1081 3097 1340 3245 
Q 1600 3394 1931 3394 
Q 2300 3394 2536 3241 
Q 2772 3088 2869 2813 
Q 3263 3394 3894 3394 
Q 4388 3394 4653 3120 
Q 4919 2847 4919 2278 
L 4919 0 
L 4359 0 
L 4359 2091 
Q 4359 2428 4304 2576 
Q 4250 2725 4106 2815 
Q 3963 2906 3769 2906 
Q 3419 2906 3187 2673 
Q 2956 2441 2956 1928 
L 2956 0 
L 2394 0 
L 2394 2156 
Q 2394 2531 2256 2718 
Q 2119 2906 1806 2906 
Q 1569 2906 1367 2781 
Q 1166 2656 1075 2415 
Q 984 2175 984 1722 
L 984 0 
L 422 0 
z
" transform="scale(0.015625)"/>
     </defs>
     <use xlink:href="#ArialMT-43"/>
     <use xlink:href="#ArialMT-79" x="72.216797"/>
     <use xlink:href="#ArialMT-74" x="122.216797"/>
     <use xlink:href="#ArialMT-6f" x="150"/>
     <use xlink:href="#ArialMT-70" x="205.615234"/>
     <use xlink:href="#ArialMT-6c" x="261.230469"/>
     <use xlink:href="#ArialMT-61" x="283.447266"/>
     <use xlink:href="#ArialMT-73" x="339.0625"/>
     <use xlink:href="#ArialMT-6d" x="389.0625"/>
    </g>
   </g>
   <g id="text_8">
    <!-- Nuclei -->
    <g style="fill: #262626" transform="translate(783.535751 64.278)scale(0.18 -0.18)">
     <defs>
      <path id="ArialMT-4e" d="M 488 0 
L 488 4581 
L 1109 4581 
L 3516 984 
L 3516 4581 
L 4097 4581 
L 4097 0 
L 3475 0 
L 1069 3600 
L 1069 0 
L 488 0 
z
" transform="scale(0.015625)"/>
      <path id="ArialMT-75" d="M 2597 0 
L 2597 488 
Q 2209 -75 1544 -75 
Q 1250 -75 995 37 
Q 741 150 617 320 
Q 494 491 444 738 
Q 409 903 409 1263 
L 409 3319 
L 972 3319 
L 972 1478 
Q 972 1038 1006 884 
Q 1059 663 1231 536 
Q 1403 409 1656 409 
Q 1909 409 2131 539 
Q 2353 669 2445 892 
Q 2538 1116 2538 1541 
L 2538 3319 
L 3100 3319 
L 3100 0 
L 2597 0 
z
" transform="scale(0.015625)"/>
      <path id="ArialMT-63" d="M 2588 1216 
L 3141 1144 
Q 3050 572 2676 248 
Q 2303 -75 1759 -75 
Q 1078 -75 664 370 
Q 250 816 250 1647 
Q 250 2184 428 2587 
Q 606 2991 970 3192 
Q 1334 3394 1763 3394 
Q 2303 3394 2647 3120 
Q 2991 2847 3088 2344 
L 2541 2259 
Q 2463 2594 2264 2762 
Q 2066 2931 1784 2931 
Q 1359 2931 1093 2626 
Q 828 2322 828 1663 
Q 828 994 1084 691 
Q 1341 388 1753 388 
Q 2084 388 2306 591 
Q 2528 794 2588 1216 
z
" transform="scale(0.015625)"/>
      <path id="ArialMT-69" d="M 425 3934 
L 425 4581 
L 988 4581 
L 988 3934 
L 425 3934 
z
M 425 0 
L 425 3319 
L 988 3319 
L 988 0 
L 425 0 
z
" transform="scale(0.015625)"/>
     </defs>
     <use xlink:href="#ArialMT-4e"/>
     <use xlink:href="#ArialMT-75" x="72.216797"/>
     <use xlink:href="#ArialMT-63" x="127.832031"/>
     <use xlink:href="#ArialMT-6c" x="177.832031"/>
     <use xlink:href="#ArialMT-65" x="200.048828"/>
     <use xlink:href="#ArialMT-69" x="255.664062"/>
    </g>
   </g>
  </g>
 </g>
 <defs>
  <clipPath id="p4cb7591f79">
   <rect x="79.66875" y="7.2" width="819.732839" height="27.18"/>
  </clipPath>
 </defs>
</svg>
