<?xml version="1.0" encoding="utf-8" standalone="no"?>
<!DOCTYPE svg PUBLIC "-//W3C//DTD SVG 1.1//EN"
  "http://www.w3.org/Graphics/SVG/1.1/DTD/svg11.dtd">
<svg xmlns:xlink="http://www.w3.org/1999/xlink" width="998.256963pt" height="75.266437pt" viewBox="0 0 998.256963 75.266437" xmlns="http://www.w3.org/2000/svg" version="1.1">
 <metadata>
  <rdf:RDF xmlns:dc="http://purl.org/dc/elements/1.1/" xmlns:cc="http://creativecommons.org/ns#" xmlns:rdf="http://www.w3.org/1999/02/22-rdf-syntax-ns#">
   <cc:Work>
    <dc:type rdf:resource="http://purl.org/dc/dcmitype/StillImage"/>
    <dc:date>2023-02-13T13:56:28.998169</dc:date>
    <dc:format>image/svg+xml</dc:format>
    <dc:creator>
     <cc:Agent>
      <dc:title>Matplotlib v3.5.1, https://matplotlib.org/</dc:title>
     </cc:Agent>
    </dc:creator>
   </cc:Work>
  </rdf:RDF>
 </metadata>
 <defs>
  <style type="text/css">*{stroke-linejoin: round; stroke-linecap: butt}</style>
 </defs>
 <g id="figure_1">
  <g id="patch_1">
   <path d="M 0 75.266437 
L 998.256963 75.266437 
L 998.256963 0 
L 0 0 
z
" style="fill: #ffffff"/>
  </g>
  <g id="axes_1">
   <g id="patch_2">
    <path d="M 171.91875 34.38 
L 978.544854 34.38 
L 978.544854 7.2 
L 171.91875 7.2 
z
" style="fill: #ffffff"/>
   </g>
   <g id="matplotlib.axis_1">
    <g id="xtick_1">
     <g id="line2d_1"/>
     <g id="text_1">
      <text style="fill: #262626; font: 15px 'sans-serif'; text-anchor: middle" x="173.945449" y="54.216719" transform="rotate(-0, 173.945449, 54.216719)">1</text>
     </g>
    </g>
    <g id="xtick_2">
     <g id="line2d_2"/>
     <g id="text_2">
      <text style="fill: #262626; font: 15px 'sans-serif'; text-anchor: middle" x="473.896864" y="54.216719" transform="rotate(-0, 473.896864, 54.216719)">149</text>
     </g>
    </g>
    <g id="xtick_3">
     <g id="line2d_3"/>
     <g id="text_3">
      <text style="fill: #262626; font: 15px 'sans-serif'; text-anchor: middle" x="812.355556" y="54.216719" transform="rotate(-0, 812.355556, 54.216719)">316</text>
     </g>
    </g>
    <g id="xtick_4">
     <g id="line2d_4"/>
     <g id="text_4">
      <text style="fill: #262626; font: 15px 'sans-serif'; text-anchor: middle" x="978.544854" y="54.216719" transform="rotate(-0, 978.544854, 54.216719)">398</text>
     </g>
    </g>
   </g>
   <g id="matplotlib.axis_2">
    <g id="ytick_1">
     <g id="line2d_5"/>
     <g id="text_5">
      <text style="fill: #262626; font: 20px 'sans-serif'; text-anchor: end" x="162.81875" y="28.069687" transform="rotate(-0, 162.81875, 28.069687)">Pyrimidine_Synth</text>
     </g>
    </g>
   </g>
   <g id="PolyCollection_1">
    <path d="M 171.91875 34.38 
L 171.91875 7.2 
L 173.945449 7.2 
L 173.945449 34.38 
L 171.91875 34.38 
z
" clip-path="url(#p14e5a5ba0e)" style="fill: #ff7878"/>
    <path d="M 173.945449 34.38 
L 173.945449 7.2 
L 175.972148 7.2 
L 175.972148 34.38 
L 173.945449 34.38 
z
" clip-path="url(#p14e5a5ba0e)" style="fill: #ff8888"/>
    <path d="M 175.972148 34.38 
L 175.972148 7.2 
L 177.998846 7.2 
L 177.998846 34.38 
L 175.972148 34.38 
z
" clip-path="url(#p14e5a5ba0e)" style="fill: #ff9a9a"/>
    <path d="M 177.998846 34.38 
L 177.998846 7.2 
L 180.025545 7.2 
L 180.025545 34.38 
L 177.998846 34.38 
z
" clip-path="url(#p14e5a5ba0e)" style="fill: #ff9696"/>
    <path d="M 180.025545 34.38 
L 180.025545 7.2 
L 182.052244 7.2 
L 182.052244 34.38 
L 180.025545 34.38 
z
" clip-path="url(#p14e5a5ba0e)" style="fill: #ff8686"/>
    <path d="M 182.052244 34.38 
L 182.052244 7.2 
L 184.078943 7.2 
L 184.078943 34.38 
L 182.052244 34.38 
z
" clip-path="url(#p14e5a5ba0e)" style="fill: #ff7c7c"/>
    <path d="M 184.078943 34.38 
L 184.078943 7.2 
L 186.105641 7.2 
L 186.105641 34.38 
L 184.078943 34.38 
z
" clip-path="url(#p14e5a5ba0e)" style="fill: #fff4f4"/>
    <path d="M 186.105641 34.38 
L 186.105641 7.2 
L 188.13234 7.2 
L 188.13234 34.38 
L 186.105641 34.38 
z
" clip-path="url(#p14e5a5ba0e)" style="fill: #ffe2e2"/>
    <path d="M 188.13234 34.38 
L 188.13234 7.2 
L 190.159039 7.2 
L 190.159039 34.38 
L 188.13234 34.38 
z
" clip-path="url(#p14e5a5ba0e)" style="fill: #ffd2d2"/>
    <path d="M 190.159039 34.38 
L 190.159039 7.2 
L 192.185738 7.2 
L 192.185738 34.38 
L 190.159039 34.38 
z
" clip-path="url(#p14e5a5ba0e)" style="fill: #fff0f0"/>
    <path d="M 192.185738 34.38 
L 192.185738 7.2 
L 194.212436 7.2 
L 194.212436 34.38 
L 192.185738 34.38 
z
" clip-path="url(#p14e5a5ba0e)" style="fill: #ffe6e6"/>
    <path d="M 194.212436 34.38 
L 194.212436 7.2 
L 196.239135 7.2 
L 196.239135 34.38 
L 194.212436 34.38 
z
" clip-path="url(#p14e5a5ba0e)" style="fill: #ffe0e0"/>
    <path d="M 196.239135 34.38 
L 196.239135 7.2 
L 198.265834 7.2 
L 198.265834 34.38 
L 196.239135 34.38 
z
" clip-path="url(#p14e5a5ba0e)" style="fill: #dadaff"/>
    <path d="M 198.265834 34.38 
L 198.265834 7.2 
L 200.292533 7.2 
L 200.292533 34.38 
L 198.265834 34.38 
z
" clip-path="url(#p14e5a5ba0e)" style="fill: #e6e6ff"/>
    <path d="M 200.292533 34.38 
L 200.292533 7.2 
L 202.319231 7.2 
L 202.319231 34.38 
L 200.292533 34.38 
z
" clip-path="url(#p14e5a5ba0e)" style="fill: #dcdcff"/>
    <path d="M 202.319231 34.38 
L 202.319231 7.2 
L 204.34593 7.2 
L 204.34593 34.38 
L 202.319231 34.38 
z
" clip-path="url(#p14e5a5ba0e)" style="fill: #ffd8d8"/>
    <path d="M 204.34593 34.38 
L 204.34593 7.2 
L 206.372629 7.2 
L 206.372629 34.38 
L 204.34593 34.38 
z
" clip-path="url(#p14e5a5ba0e)" style="fill: #ffd8d8"/>
    <path d="M 206.372629 34.38 
L 206.372629 7.2 
L 208.399328 7.2 
L 208.399328 34.38 
L 206.372629 34.38 
z
" clip-path="url(#p14e5a5ba0e)" style="fill: #e0e0ff"/>
    <path d="M 208.399328 34.38 
L 208.399328 7.2 
L 210.426026 7.2 
L 210.426026 34.38 
L 208.399328 34.38 
z
" clip-path="url(#p14e5a5ba0e)" style="fill: #d8d8ff"/>
    <path d="M 210.426026 34.38 
L 210.426026 7.2 
L 212.452725 7.2 
L 212.452725 34.38 
L 210.426026 34.38 
z
" clip-path="url(#p14e5a5ba0e)" style="fill: #ffeeee"/>
    <path d="M 212.452725 34.38 
L 212.452725 7.2 
L 214.479424 7.2 
L 214.479424 34.38 
L 212.452725 34.38 
z
" clip-path="url(#p14e5a5ba0e)" style="fill: #a4a4ff"/>
    <path d="M 214.479424 34.38 
L 214.479424 7.2 
L 216.506123 7.2 
L 216.506123 34.38 
L 214.479424 34.38 
z
" clip-path="url(#p14e5a5ba0e)" style="fill: #dadaff"/>
    <path d="M 216.506123 34.38 
L 216.506123 7.2 
L 218.532821 7.2 
L 218.532821 34.38 
L 216.506123 34.38 
z
" clip-path="url(#p14e5a5ba0e)" style="fill: #e2e2ff"/>
    <path d="M 218.532821 34.38 
L 218.532821 7.2 
L 220.55952 7.2 
L 220.55952 34.38 
L 218.532821 34.38 
z
" clip-path="url(#p14e5a5ba0e)" style="fill: #fff8f8"/>
    <path d="M 220.55952 34.38 
L 220.55952 7.2 
L 222.586219 7.2 
L 222.586219 34.38 
L 220.55952 34.38 
z
" clip-path="url(#p14e5a5ba0e)" style="fill: #ffdada"/>
    <path d="M 222.586219 34.38 
L 222.586219 7.2 
L 224.612918 7.2 
L 224.612918 34.38 
L 222.586219 34.38 
z
" clip-path="url(#p14e5a5ba0e)" style="fill: #ffd0d0"/>
    <path d="M 224.612918 34.38 
L 224.612918 7.2 
L 226.639616 7.2 
L 226.639616 34.38 
L 224.612918 34.38 
z
" clip-path="url(#p14e5a5ba0e)" style="fill: #ffcaca"/>
    <path d="M 226.639616 34.38 
L 226.639616 7.2 
L 228.666315 7.2 
L 228.666315 34.38 
L 226.639616 34.38 
z
" clip-path="url(#p14e5a5ba0e)" style="fill: #b8b8ff"/>
    <path d="M 228.666315 34.38 
L 228.666315 7.2 
L 230.693014 7.2 
L 230.693014 34.38 
L 228.666315 34.38 
z
" clip-path="url(#p14e5a5ba0e)" style="fill: #5656ff"/>
    <path d="M 230.693014 34.38 
L 230.693014 7.2 
L 232.719713 7.2 
L 232.719713 34.38 
L 230.693014 34.38 
z
" clip-path="url(#p14e5a5ba0e)" style="fill: #c4c4ff"/>
    <path d="M 232.719713 34.38 
L 232.719713 7.2 
L 234.746411 7.2 
L 234.746411 34.38 
L 232.719713 34.38 
z
" clip-path="url(#p14e5a5ba0e)" style="fill: #d4d4ff"/>
    <path d="M 234.746411 34.38 
L 234.746411 7.2 
L 236.77311 7.2 
L 236.77311 34.38 
L 234.746411 34.38 
z
" clip-path="url(#p14e5a5ba0e)" style="fill: #bebeff"/>
    <path d="M 236.77311 34.38 
L 236.77311 7.2 
L 238.799809 7.2 
L 238.799809 34.38 
L 236.77311 34.38 
z
" clip-path="url(#p14e5a5ba0e)" style="fill: #e2e2ff"/>
    <path d="M 238.799809 34.38 
L 238.799809 7.2 
L 240.826508 7.2 
L 240.826508 34.38 
L 238.799809 34.38 
z
" clip-path="url(#p14e5a5ba0e)" style="fill: #ffdada"/>
    <path d="M 240.826508 34.38 
L 240.826508 7.2 
L 242.853206 7.2 
L 242.853206 34.38 
L 240.826508 34.38 
z
" clip-path="url(#p14e5a5ba0e)" style="fill: #d0d0ff"/>
    <path d="M 242.853206 34.38 
L 242.853206 7.2 
L 244.879905 7.2 
L 244.879905 34.38 
L 242.853206 34.38 
z
" clip-path="url(#p14e5a5ba0e)" style="fill: #c6c6ff"/>
    <path d="M 244.879905 34.38 
L 244.879905 7.2 
L 246.906604 7.2 
L 246.906604 34.38 
L 244.879905 34.38 
z
" clip-path="url(#p14e5a5ba0e)" style="fill: #fff8f8"/>
    <path d="M 246.906604 34.38 
L 246.906604 7.2 
L 248.933303 7.2 
L 248.933303 34.38 
L 246.906604 34.38 
z
" clip-path="url(#p14e5a5ba0e)" style="fill: #e0e0ff"/>
    <path d="M 248.933303 34.38 
L 248.933303 7.2 
L 250.960001 7.2 
L 250.960001 34.38 
L 248.933303 34.38 
z
" clip-path="url(#p14e5a5ba0e)" style="fill: #d0d0ff"/>
    <path d="M 250.960001 34.38 
L 250.960001 7.2 
L 252.9867 7.2 
L 252.9867 34.38 
L 250.960001 34.38 
z
" clip-path="url(#p14e5a5ba0e)" style="fill: #c6c6ff"/>
    <path d="M 252.9867 34.38 
L 252.9867 7.2 
L 255.013399 7.2 
L 255.013399 34.38 
L 252.9867 34.38 
z
" clip-path="url(#p14e5a5ba0e)" style="fill: #8686ff"/>
    <path d="M 255.013399 34.38 
L 255.013399 7.2 
L 257.040098 7.2 
L 257.040098 34.38 
L 255.013399 34.38 
z
" clip-path="url(#p14e5a5ba0e)" style="fill: #aaaaff"/>
    <path d="M 257.040098 34.38 
L 257.040098 7.2 
L 259.066796 7.2 
L 259.066796 34.38 
L 257.040098 34.38 
z
" clip-path="url(#p14e5a5ba0e)" style="fill: #d8d8ff"/>
    <path d="M 259.066796 34.38 
L 259.066796 7.2 
L 261.093495 7.2 
L 261.093495 34.38 
L 259.066796 34.38 
z
" clip-path="url(#p14e5a5ba0e)" style="fill: #4e4eff"/>
    <path d="M 261.093495 34.38 
L 261.093495 7.2 
L 263.120194 7.2 
L 263.120194 34.38 
L 261.093495 34.38 
z
" clip-path="url(#p14e5a5ba0e)" style="fill: #c6c6ff"/>
    <path d="M 263.120194 34.38 
L 263.120194 7.2 
L 265.146893 7.2 
L 265.146893 34.38 
L 263.120194 34.38 
z
" clip-path="url(#p14e5a5ba0e)" style="fill: #d2d2ff"/>
    <path d="M 265.146893 34.38 
L 265.146893 7.2 
L 267.173591 7.2 
L 267.173591 34.38 
L 265.146893 34.38 
z
" clip-path="url(#p14e5a5ba0e)" style="fill: #cacaff"/>
    <path d="M 267.173591 34.38 
L 267.173591 7.2 
L 269.20029 7.2 
L 269.20029 34.38 
L 267.173591 34.38 
z
" clip-path="url(#p14e5a5ba0e)" style="fill: #ffe2e2"/>
    <path d="M 269.20029 34.38 
L 269.20029 7.2 
L 271.226989 7.2 
L 271.226989 34.38 
L 269.20029 34.38 
z
" clip-path="url(#p14e5a5ba0e)" style="fill: #bebeff"/>
    <path d="M 271.226989 34.38 
L 271.226989 7.2 
L 273.253688 7.2 
L 273.253688 34.38 
L 271.226989 34.38 
z
" clip-path="url(#p14e5a5ba0e)" style="fill: #e8e8ff"/>
    <path d="M 273.253688 34.38 
L 273.253688 7.2 
L 275.280386 7.2 
L 275.280386 34.38 
L 273.253688 34.38 
z
" clip-path="url(#p14e5a5ba0e)" style="fill: #c8c8ff"/>
    <path d="M 275.280386 34.38 
L 275.280386 7.2 
L 277.307085 7.2 
L 277.307085 34.38 
L 275.280386 34.38 
z
" clip-path="url(#p14e5a5ba0e)" style="fill: #7c7cff"/>
    <path d="M 277.307085 34.38 
L 277.307085 7.2 
L 279.333784 7.2 
L 279.333784 34.38 
L 277.307085 34.38 
z
" clip-path="url(#p14e5a5ba0e)" style="fill: #d8d8ff"/>
    <path d="M 279.333784 34.38 
L 279.333784 7.2 
L 281.360483 7.2 
L 281.360483 34.38 
L 279.333784 34.38 
z
" clip-path="url(#p14e5a5ba0e)" style="fill: #dadaff"/>
    <path d="M 281.360483 34.38 
L 281.360483 7.2 
L 283.387181 7.2 
L 283.387181 34.38 
L 281.360483 34.38 
z
" clip-path="url(#p14e5a5ba0e)" style="fill: #a8a8ff"/>
    <path d="M 283.387181 34.38 
L 283.387181 7.2 
L 285.41388 7.2 
L 285.41388 34.38 
L 283.387181 34.38 
z
" clip-path="url(#p14e5a5ba0e)" style="fill: #fff4f4"/>
    <path d="M 285.41388 34.38 
L 285.41388 7.2 
L 287.440579 7.2 
L 287.440579 34.38 
L 285.41388 34.38 
z
" clip-path="url(#p14e5a5ba0e)" style="fill: #cacaff"/>
    <path d="M 287.440579 34.38 
L 287.440579 7.2 
L 289.467278 7.2 
L 289.467278 34.38 
L 287.440579 34.38 
z
" clip-path="url(#p14e5a5ba0e)" style="fill: #ffecec"/>
    <path d="M 289.467278 34.38 
L 289.467278 7.2 
L 291.493976 7.2 
L 291.493976 34.38 
L 289.467278 34.38 
z
" clip-path="url(#p14e5a5ba0e)" style="fill: #e6e6ff"/>
    <path d="M 291.493976 34.38 
L 291.493976 7.2 
L 293.520675 7.2 
L 293.520675 34.38 
L 291.493976 34.38 
z
" clip-path="url(#p14e5a5ba0e)" style="fill: #e6e6ff"/>
    <path d="M 293.520675 34.38 
L 293.520675 7.2 
L 295.547374 7.2 
L 295.547374 34.38 
L 293.520675 34.38 
z
" clip-path="url(#p14e5a5ba0e)" style="fill: #ffe4e4"/>
    <path d="M 295.547374 34.38 
L 295.547374 7.2 
L 297.574073 7.2 
L 297.574073 34.38 
L 295.547374 34.38 
z
" clip-path="url(#p14e5a5ba0e)" style="fill: #ffd4d4"/>
    <path d="M 297.574073 34.38 
L 297.574073 7.2 
L 299.600771 7.2 
L 299.600771 34.38 
L 297.574073 34.38 
z
" clip-path="url(#p14e5a5ba0e)" style="fill: #fff4f4"/>
    <path d="M 299.600771 34.38 
L 299.600771 7.2 
L 301.62747 7.2 
L 301.62747 34.38 
L 299.600771 34.38 
z
" clip-path="url(#p14e5a5ba0e)" style="fill: #eaeaff"/>
    <path d="M 301.62747 34.38 
L 301.62747 7.2 
L 303.654169 7.2 
L 303.654169 34.38 
L 301.62747 34.38 
z
" clip-path="url(#p14e5a5ba0e)" style="fill: #cacaff"/>
    <path d="M 303.654169 34.38 
L 303.654169 7.2 
L 305.680868 7.2 
L 305.680868 34.38 
L 303.654169 34.38 
z
" clip-path="url(#p14e5a5ba0e)" style="fill: #dedeff"/>
    <path d="M 305.680868 34.38 
L 305.680868 7.2 
L 307.707566 7.2 
L 307.707566 34.38 
L 305.680868 34.38 
z
" clip-path="url(#p14e5a5ba0e)" style="fill: #ffdcdc"/>
    <path d="M 307.707566 34.38 
L 307.707566 7.2 
L 309.734265 7.2 
L 309.734265 34.38 
L 307.707566 34.38 
z
" clip-path="url(#p14e5a5ba0e)" style="fill: #ffc6c6"/>
    <path d="M 309.734265 34.38 
L 309.734265 7.2 
L 311.760964 7.2 
L 311.760964 34.38 
L 309.734265 34.38 
z
" clip-path="url(#p14e5a5ba0e)" style="fill: #ffd4d4"/>
    <path d="M 311.760964 34.38 
L 311.760964 7.2 
L 313.787663 7.2 
L 313.787663 34.38 
L 311.760964 34.38 
z
" clip-path="url(#p14e5a5ba0e)" style="fill: #ffc0c0"/>
    <path d="M 313.787663 34.38 
L 313.787663 7.2 
L 315.814361 7.2 
L 315.814361 34.38 
L 313.787663 34.38 
z
" clip-path="url(#p14e5a5ba0e)" style="fill: #ffb8b8"/>
    <path d="M 315.814361 34.38 
L 315.814361 7.2 
L 317.84106 7.2 
L 317.84106 34.38 
L 315.814361 34.38 
z
" clip-path="url(#p14e5a5ba0e)" style="fill: #ffb0b0"/>
    <path d="M 317.84106 34.38 
L 317.84106 7.2 
L 319.867759 7.2 
L 319.867759 34.38 
L 317.84106 34.38 
z
" clip-path="url(#p14e5a5ba0e)" style="fill: #d4d4ff"/>
    <path d="M 319.867759 34.38 
L 319.867759 7.2 
L 321.894458 7.2 
L 321.894458 34.38 
L 319.867759 34.38 
z
" clip-path="url(#p14e5a5ba0e)" style="fill: #d2d2ff"/>
    <path d="M 321.894458 34.38 
L 321.894458 7.2 
L 323.921156 7.2 
L 323.921156 34.38 
L 321.894458 34.38 
z
" clip-path="url(#p14e5a5ba0e)" style="fill: #8888ff"/>
    <path d="M 323.921156 34.38 
L 323.921156 7.2 
L 325.947855 7.2 
L 325.947855 34.38 
L 323.921156 34.38 
z
" clip-path="url(#p14e5a5ba0e)" style="fill: #9494ff"/>
    <path d="M 325.947855 34.38 
L 325.947855 7.2 
L 327.974554 7.2 
L 327.974554 34.38 
L 325.947855 34.38 
z
" clip-path="url(#p14e5a5ba0e)" style="fill: #9090ff"/>
    <path d="M 327.974554 34.38 
L 327.974554 7.2 
L 330.001253 7.2 
L 330.001253 34.38 
L 327.974554 34.38 
z
" clip-path="url(#p14e5a5ba0e)" style="fill: #bcbcff"/>
    <path d="M 330.001253 34.38 
L 330.001253 7.2 
L 332.027951 7.2 
L 332.027951 34.38 
L 330.001253 34.38 
z
" clip-path="url(#p14e5a5ba0e)" style="fill: #ceceff"/>
    <path d="M 332.027951 34.38 
L 332.027951 7.2 
L 334.05465 7.2 
L 334.05465 34.38 
L 332.027951 34.38 
z
" clip-path="url(#p14e5a5ba0e)" style="fill: #c8c8ff"/>
    <path d="M 334.05465 34.38 
L 334.05465 7.2 
L 336.081349 7.2 
L 336.081349 34.38 
L 334.05465 34.38 
z
" clip-path="url(#p14e5a5ba0e)" style="fill: #c8c8ff"/>
    <path d="M 336.081349 34.38 
L 336.081349 7.2 
L 338.108048 7.2 
L 338.108048 34.38 
L 336.081349 34.38 
z
" clip-path="url(#p14e5a5ba0e)" style="fill: #ccccff"/>
    <path d="M 338.108048 34.38 
L 338.108048 7.2 
L 340.134746 7.2 
L 340.134746 34.38 
L 338.108048 34.38 
z
" clip-path="url(#p14e5a5ba0e)" style="fill: #c8c8ff"/>
    <path d="M 340.134746 34.38 
L 340.134746 7.2 
L 342.161445 7.2 
L 342.161445 34.38 
L 340.134746 34.38 
z
" clip-path="url(#p14e5a5ba0e)" style="fill: #ffeeee"/>
    <path d="M 342.161445 34.38 
L 342.161445 7.2 
L 344.188144 7.2 
L 344.188144 34.38 
L 342.161445 34.38 
z
" clip-path="url(#p14e5a5ba0e)" style="fill: #ffc8c8"/>
    <path d="M 344.188144 34.38 
L 344.188144 7.2 
L 346.214843 7.2 
L 346.214843 34.38 
L 344.188144 34.38 
z
" clip-path="url(#p14e5a5ba0e)" style="fill: #ffe4e4"/>
    <path d="M 346.214843 34.38 
L 346.214843 7.2 
L 348.241541 7.2 
L 348.241541 34.38 
L 346.214843 34.38 
z
" clip-path="url(#p14e5a5ba0e)" style="fill: #ffdcdc"/>
    <path d="M 348.241541 34.38 
L 348.241541 7.2 
L 350.26824 7.2 
L 350.26824 34.38 
L 348.241541 34.38 
z
" clip-path="url(#p14e5a5ba0e)" style="fill: #ffdcdc"/>
    <path d="M 350.26824 34.38 
L 350.26824 7.2 
L 352.294939 7.2 
L 352.294939 34.38 
L 350.26824 34.38 
z
" clip-path="url(#p14e5a5ba0e)" style="fill: #8080ff"/>
    <path d="M 352.294939 34.38 
L 352.294939 7.2 
L 354.321638 7.2 
L 354.321638 34.38 
L 352.294939 34.38 
z
" clip-path="url(#p14e5a5ba0e)" style="fill: #c8c8ff"/>
    <path d="M 354.321638 34.38 
L 354.321638 7.2 
L 356.348337 7.2 
L 356.348337 34.38 
L 354.321638 34.38 
z
" clip-path="url(#p14e5a5ba0e)" style="fill: #d0d0ff"/>
    <path d="M 356.348337 34.38 
L 356.348337 7.2 
L 358.375035 7.2 
L 358.375035 34.38 
L 356.348337 34.38 
z
" clip-path="url(#p14e5a5ba0e)" style="fill: #c8c8ff"/>
    <path d="M 358.375035 34.38 
L 358.375035 7.2 
L 360.401734 7.2 
L 360.401734 34.38 
L 358.375035 34.38 
z
" clip-path="url(#p14e5a5ba0e)" style="fill: #babaff"/>
    <path d="M 360.401734 34.38 
L 360.401734 7.2 
L 362.428433 7.2 
L 362.428433 34.38 
L 360.401734 34.38 
z
" clip-path="url(#p14e5a5ba0e)" style="fill: #b2b2ff"/>
    <path d="M 362.428433 34.38 
L 362.428433 7.2 
L 364.455132 7.2 
L 364.455132 34.38 
L 362.428433 34.38 
z
" clip-path="url(#p14e5a5ba0e)" style="fill: #acacff"/>
    <path d="M 364.455132 34.38 
L 364.455132 7.2 
L 366.48183 7.2 
L 366.48183 34.38 
L 364.455132 34.38 
z
" clip-path="url(#p14e5a5ba0e)" style="fill: #ffc6c6"/>
    <path d="M 366.48183 34.38 
L 366.48183 7.2 
L 368.508529 7.2 
L 368.508529 34.38 
L 366.48183 34.38 
z
" clip-path="url(#p14e5a5ba0e)" style="fill: #ffb8b8"/>
    <path d="M 368.508529 34.38 
L 368.508529 7.2 
L 370.535228 7.2 
L 370.535228 34.38 
L 368.508529 34.38 
z
" clip-path="url(#p14e5a5ba0e)" style="fill: #ffc0c0"/>
    <path d="M 370.535228 34.38 
L 370.535228 7.2 
L 372.561927 7.2 
L 372.561927 34.38 
L 370.535228 34.38 
z
" clip-path="url(#p14e5a5ba0e)" style="fill: #ffe8e8"/>
    <path d="M 372.561927 34.38 
L 372.561927 7.2 
L 374.588625 7.2 
L 374.588625 34.38 
L 372.561927 34.38 
z
" clip-path="url(#p14e5a5ba0e)" style="fill: #ffcece"/>
    <path d="M 374.588625 34.38 
L 374.588625 7.2 
L 376.615324 7.2 
L 376.615324 34.38 
L 374.588625 34.38 
z
" clip-path="url(#p14e5a5ba0e)" style="fill: #ffd4d4"/>
    <path d="M 376.615324 34.38 
L 376.615324 7.2 
L 378.642023 7.2 
L 378.642023 34.38 
L 376.615324 34.38 
z
" clip-path="url(#p14e5a5ba0e)" style="fill: #dadaff"/>
    <path d="M 378.642023 34.38 
L 378.642023 7.2 
L 380.668722 7.2 
L 380.668722 34.38 
L 378.642023 34.38 
z
" clip-path="url(#p14e5a5ba0e)" style="fill: #d6d6ff"/>
    <path d="M 380.668722 34.38 
L 380.668722 7.2 
L 382.69542 7.2 
L 382.69542 34.38 
L 380.668722 34.38 
z
" clip-path="url(#p14e5a5ba0e)" style="fill: #d2d2ff"/>
    <path d="M 382.69542 34.38 
L 382.69542 7.2 
L 384.722119 7.2 
L 384.722119 34.38 
L 382.69542 34.38 
z
" clip-path="url(#p14e5a5ba0e)" style="fill: #ccccff"/>
    <path d="M 384.722119 34.38 
L 384.722119 7.2 
L 386.748818 7.2 
L 386.748818 34.38 
L 384.722119 34.38 
z
" clip-path="url(#p14e5a5ba0e)" style="fill: #b8b8ff"/>
    <path d="M 386.748818 34.38 
L 386.748818 7.2 
L 388.775517 7.2 
L 388.775517 34.38 
L 386.748818 34.38 
z
" clip-path="url(#p14e5a5ba0e)" style="fill: #bcbcff"/>
    <path d="M 388.775517 34.38 
L 388.775517 7.2 
L 390.802215 7.2 
L 390.802215 34.38 
L 388.775517 34.38 
z
" clip-path="url(#p14e5a5ba0e)" style="fill: #f4f4ff"/>
    <path d="M 390.802215 34.38 
L 390.802215 7.2 
L 392.828914 7.2 
L 392.828914 34.38 
L 390.802215 34.38 
z
" clip-path="url(#p14e5a5ba0e)" style="fill: #eaeaff"/>
    <path d="M 392.828914 34.38 
L 392.828914 7.2 
L 394.855613 7.2 
L 394.855613 34.38 
L 392.828914 34.38 
z
" clip-path="url(#p14e5a5ba0e)" style="fill: #f6f6ff"/>
    <path d="M 394.855613 34.38 
L 394.855613 7.2 
L 396.882312 7.2 
L 396.882312 34.38 
L 394.855613 34.38 
z
" clip-path="url(#p14e5a5ba0e)" style="fill: #ffcaca"/>
    <path d="M 396.882312 34.38 
L 396.882312 7.2 
L 398.90901 7.2 
L 398.90901 34.38 
L 396.882312 34.38 
z
" clip-path="url(#p14e5a5ba0e)" style="fill: #ffc4c4"/>
    <path d="M 398.90901 34.38 
L 398.90901 7.2 
L 400.935709 7.2 
L 400.935709 34.38 
L 398.90901 34.38 
z
" clip-path="url(#p14e5a5ba0e)" style="fill: #ffb8b8"/>
    <path d="M 400.935709 34.38 
L 400.935709 7.2 
L 402.962408 7.2 
L 402.962408 34.38 
L 400.935709 34.38 
z
" clip-path="url(#p14e5a5ba0e)" style="fill: #ffcece"/>
    <path d="M 402.962408 34.38 
L 402.962408 7.2 
L 404.989107 7.2 
L 404.989107 34.38 
L 402.962408 34.38 
z
" clip-path="url(#p14e5a5ba0e)" style="fill: #ffcccc"/>
    <path d="M 404.989107 34.38 
L 404.989107 7.2 
L 407.015805 7.2 
L 407.015805 34.38 
L 404.989107 34.38 
z
" clip-path="url(#p14e5a5ba0e)" style="fill: #ffcccc"/>
    <path d="M 407.015805 34.38 
L 407.015805 7.2 
L 409.042504 7.2 
L 409.042504 34.38 
L 407.015805 34.38 
z
" clip-path="url(#p14e5a5ba0e)" style="fill: #ffb6b6"/>
    <path d="M 409.042504 34.38 
L 409.042504 7.2 
L 411.069203 7.2 
L 411.069203 34.38 
L 409.042504 34.38 
z
" clip-path="url(#p14e5a5ba0e)" style="fill: #ffb4b4"/>
    <path d="M 411.069203 34.38 
L 411.069203 7.2 
L 413.095902 7.2 
L 413.095902 34.38 
L 411.069203 34.38 
z
" clip-path="url(#p14e5a5ba0e)" style="fill: #ffbaba"/>
    <path d="M 413.095902 34.38 
L 413.095902 7.2 
L 415.1226 7.2 
L 415.1226 34.38 
L 413.095902 34.38 
z
" clip-path="url(#p14e5a5ba0e)" style="fill: #6666ff"/>
    <path d="M 415.1226 34.38 
L 415.1226 7.2 
L 417.149299 7.2 
L 417.149299 34.38 
L 415.1226 34.38 
z
" clip-path="url(#p14e5a5ba0e)" style="fill: #5e5eff"/>
    <path d="M 417.149299 34.38 
L 417.149299 7.2 
L 419.175998 7.2 
L 419.175998 34.38 
L 417.149299 34.38 
z
" clip-path="url(#p14e5a5ba0e)" style="fill: #5c5cff"/>
    <path d="M 419.175998 34.38 
L 419.175998 7.2 
L 421.202697 7.2 
L 421.202697 34.38 
L 419.175998 34.38 
z
" clip-path="url(#p14e5a5ba0e)" style="fill: #c4c4ff"/>
    <path d="M 421.202697 34.38 
L 421.202697 7.2 
L 423.229395 7.2 
L 423.229395 34.38 
L 421.202697 34.38 
z
" clip-path="url(#p14e5a5ba0e)" style="fill: #c0c0ff"/>
    <path d="M 423.229395 34.38 
L 423.229395 7.2 
L 425.256094 7.2 
L 425.256094 34.38 
L 423.229395 34.38 
z
" clip-path="url(#p14e5a5ba0e)" style="fill: #c0c0ff"/>
    <path d="M 425.256094 34.38 
L 425.256094 7.2 
L 427.282793 7.2 
L 427.282793 34.38 
L 425.256094 34.38 
z
" clip-path="url(#p14e5a5ba0e)" style="fill: #e4e4ff"/>
    <path d="M 427.282793 34.38 
L 427.282793 7.2 
L 429.309492 7.2 
L 429.309492 34.38 
L 427.282793 34.38 
z
" clip-path="url(#p14e5a5ba0e)" style="fill: #dcdcff"/>
    <path d="M 429.309492 34.38 
L 429.309492 7.2 
L 431.33619 7.2 
L 431.33619 34.38 
L 429.309492 34.38 
z
" clip-path="url(#p14e5a5ba0e)" style="fill: #e0e0ff"/>
    <path d="M 431.33619 34.38 
L 431.33619 7.2 
L 433.362889 7.2 
L 433.362889 34.38 
L 431.33619 34.38 
z
" clip-path="url(#p14e5a5ba0e)" style="fill: #ccccff"/>
    <path d="M 433.362889 34.38 
L 433.362889 7.2 
L 435.389588 7.2 
L 435.389588 34.38 
L 433.362889 34.38 
z
" clip-path="url(#p14e5a5ba0e)" style="fill: #c6c6ff"/>
    <path d="M 435.389588 34.38 
L 435.389588 7.2 
L 437.416287 7.2 
L 437.416287 34.38 
L 435.389588 34.38 
z
" clip-path="url(#p14e5a5ba0e)" style="fill: #c2c2ff"/>
    <path d="M 437.416287 34.38 
L 437.416287 7.2 
L 439.442985 7.2 
L 439.442985 34.38 
L 437.416287 34.38 
z
" clip-path="url(#p14e5a5ba0e)" style="fill: #8c8cff"/>
    <path d="M 439.442985 34.38 
L 439.442985 7.2 
L 441.469684 7.2 
L 441.469684 34.38 
L 439.442985 34.38 
z
" clip-path="url(#p14e5a5ba0e)" style="fill: #8080ff"/>
    <path d="M 441.469684 34.38 
L 441.469684 7.2 
L 443.496383 7.2 
L 443.496383 34.38 
L 441.469684 34.38 
z
" clip-path="url(#p14e5a5ba0e)" style="fill: #8686ff"/>
    <path d="M 443.496383 34.38 
L 443.496383 7.2 
L 445.523082 7.2 
L 445.523082 34.38 
L 443.496383 34.38 
z
" clip-path="url(#p14e5a5ba0e)" style="fill: #e6e6ff"/>
    <path d="M 445.523082 34.38 
L 445.523082 7.2 
L 447.54978 7.2 
L 447.54978 34.38 
L 445.523082 34.38 
z
" clip-path="url(#p14e5a5ba0e)" style="fill: #dcdcff"/>
    <path d="M 447.54978 34.38 
L 447.54978 7.2 
L 449.576479 7.2 
L 449.576479 34.38 
L 447.54978 34.38 
z
" clip-path="url(#p14e5a5ba0e)" style="fill: #e0e0ff"/>
    <path d="M 449.576479 34.38 
L 449.576479 7.2 
L 451.603178 7.2 
L 451.603178 34.38 
L 449.576479 34.38 
z
" clip-path="url(#p14e5a5ba0e)" style="fill: #dadaff"/>
    <path d="M 451.603178 34.38 
L 451.603178 7.2 
L 453.629877 7.2 
L 453.629877 34.38 
L 451.603178 34.38 
z
" clip-path="url(#p14e5a5ba0e)" style="fill: #d8d8ff"/>
    <path d="M 453.629877 34.38 
L 453.629877 7.2 
L 455.656575 7.2 
L 455.656575 34.38 
L 453.629877 34.38 
z
" clip-path="url(#p14e5a5ba0e)" style="fill: #8a8aff"/>
    <path d="M 455.656575 34.38 
L 455.656575 7.2 
L 457.683274 7.2 
L 457.683274 34.38 
L 455.656575 34.38 
z
" clip-path="url(#p14e5a5ba0e)" style="fill: #8686ff"/>
    <path d="M 457.683274 34.38 
L 457.683274 7.2 
L 459.709973 7.2 
L 459.709973 34.38 
L 457.683274 34.38 
z
" clip-path="url(#p14e5a5ba0e)" style="fill: #8484ff"/>
    <path d="M 459.709973 34.38 
L 459.709973 7.2 
L 461.736672 7.2 
L 461.736672 34.38 
L 459.709973 34.38 
z
" clip-path="url(#p14e5a5ba0e)" style="fill: #dadaff"/>
    <path d="M 461.736672 34.38 
L 461.736672 7.2 
L 463.76337 7.2 
L 463.76337 34.38 
L 461.736672 34.38 
z
" clip-path="url(#p14e5a5ba0e)" style="fill: #dcdcff"/>
    <path d="M 463.76337 34.38 
L 463.76337 7.2 
L 465.790069 7.2 
L 465.790069 34.38 
L 463.76337 34.38 
z
" clip-path="url(#p14e5a5ba0e)" style="fill: #dadaff"/>
    <path d="M 465.790069 34.38 
L 465.790069 7.2 
L 467.816768 7.2 
L 467.816768 34.38 
L 465.790069 34.38 
z
" clip-path="url(#p14e5a5ba0e)" style="fill: #d8d8ff"/>
    <path d="M 467.816768 34.38 
L 467.816768 7.2 
L 469.843467 7.2 
L 469.843467 34.38 
L 467.816768 34.38 
z
" clip-path="url(#p14e5a5ba0e)" style="fill: #dadaff"/>
    <path d="M 469.843467 34.38 
L 469.843467 7.2 
L 471.870165 7.2 
L 471.870165 34.38 
L 469.843467 34.38 
z
" clip-path="url(#p14e5a5ba0e)" style="fill: #dadaff"/>
    <path d="M 471.870165 34.38 
L 471.870165 7.2 
L 473.896864 7.2 
L 473.896864 34.38 
L 471.870165 34.38 
z
" clip-path="url(#p14e5a5ba0e)" style="fill: #ff8080"/>
    <path d="M 473.896864 34.38 
L 473.896864 7.2 
L 475.923563 7.2 
L 475.923563 34.38 
L 473.896864 34.38 
z
" clip-path="url(#p14e5a5ba0e)" style="fill: #ff9696"/>
    <path d="M 475.923563 34.38 
L 475.923563 7.2 
L 477.950262 7.2 
L 477.950262 34.38 
L 475.923563 34.38 
z
" clip-path="url(#p14e5a5ba0e)" style="fill: #ff9898"/>
    <path d="M 477.950262 34.38 
L 477.950262 7.2 
L 479.97696 7.2 
L 479.97696 34.38 
L 477.950262 34.38 
z
" clip-path="url(#p14e5a5ba0e)" style="fill: #ff8484"/>
    <path d="M 479.97696 34.38 
L 479.97696 7.2 
L 482.003659 7.2 
L 482.003659 34.38 
L 479.97696 34.38 
z
" clip-path="url(#p14e5a5ba0e)" style="fill: #fff0f0"/>
    <path d="M 482.003659 34.38 
L 482.003659 7.2 
L 484.030358 7.2 
L 484.030358 34.38 
L 482.003659 34.38 
z
" clip-path="url(#p14e5a5ba0e)" style="fill: #ffe6e6"/>
    <path d="M 484.030358 34.38 
L 484.030358 7.2 
L 486.057057 7.2 
L 486.057057 34.38 
L 484.030358 34.38 
z
" clip-path="url(#p14e5a5ba0e)" style="fill: #ffe0e0"/>
    <path d="M 486.057057 34.38 
L 486.057057 7.2 
L 488.083755 7.2 
L 488.083755 34.38 
L 486.057057 34.38 
z
" clip-path="url(#p14e5a5ba0e)" style="fill: #ffd4d4"/>
    <path d="M 488.083755 34.38 
L 488.083755 7.2 
L 490.110454 7.2 
L 490.110454 34.38 
L 488.083755 34.38 
z
" clip-path="url(#p14e5a5ba0e)" style="fill: #ffecec"/>
    <path d="M 490.110454 34.38 
L 490.110454 7.2 
L 492.137153 7.2 
L 492.137153 34.38 
L 490.110454 34.38 
z
" clip-path="url(#p14e5a5ba0e)" style="fill: #ccccff"/>
    <path d="M 492.137153 34.38 
L 492.137153 7.2 
L 494.163852 7.2 
L 494.163852 34.38 
L 492.137153 34.38 
z
" clip-path="url(#p14e5a5ba0e)" style="fill: #ffe0e0"/>
    <path d="M 494.163852 34.38 
L 494.163852 7.2 
L 496.19055 7.2 
L 496.19055 34.38 
L 494.163852 34.38 
z
" clip-path="url(#p14e5a5ba0e)" style="fill: #ffecec"/>
    <path d="M 496.19055 34.38 
L 496.19055 7.2 
L 498.217249 7.2 
L 498.217249 34.38 
L 496.19055 34.38 
z
" clip-path="url(#p14e5a5ba0e)" style="fill: #d6d6ff"/>
    <path d="M 498.217249 34.38 
L 498.217249 7.2 
L 500.243948 7.2 
L 500.243948 34.38 
L 498.217249 34.38 
z
" clip-path="url(#p14e5a5ba0e)" style="fill: #ffc6c6"/>
    <path d="M 500.243948 34.38 
L 500.243948 7.2 
L 502.270647 7.2 
L 502.270647 34.38 
L 500.243948 34.38 
z
" clip-path="url(#p14e5a5ba0e)" style="fill: #ffc0c0"/>
    <path d="M 502.270647 34.38 
L 502.270647 7.2 
L 504.297345 7.2 
L 504.297345 34.38 
L 502.270647 34.38 
z
" clip-path="url(#p14e5a5ba0e)" style="fill: #ffb6b6"/>
    <path d="M 504.297345 34.38 
L 504.297345 7.2 
L 506.324044 7.2 
L 506.324044 34.38 
L 504.297345 34.38 
z
" clip-path="url(#p14e5a5ba0e)" style="fill: #d0d0ff"/>
    <path d="M 506.324044 34.38 
L 506.324044 7.2 
L 508.350743 7.2 
L 508.350743 34.38 
L 506.324044 34.38 
z
" clip-path="url(#p14e5a5ba0e)" style="fill: #d0d0ff"/>
    <path d="M 508.350743 34.38 
L 508.350743 7.2 
L 510.377442 7.2 
L 510.377442 34.38 
L 508.350743 34.38 
z
" clip-path="url(#p14e5a5ba0e)" style="fill: #dadaff"/>
    <path d="M 510.377442 34.38 
L 510.377442 7.2 
L 512.40414 7.2 
L 512.40414 34.38 
L 510.377442 34.38 
z
" clip-path="url(#p14e5a5ba0e)" style="fill: #ffd8d8"/>
    <path d="M 512.40414 34.38 
L 512.40414 7.2 
L 514.430839 7.2 
L 514.430839 34.38 
L 512.40414 34.38 
z
" clip-path="url(#p14e5a5ba0e)" style="fill: #ffeeee"/>
    <path d="M 514.430839 34.38 
L 514.430839 7.2 
L 516.457538 7.2 
L 516.457538 34.38 
L 514.430839 34.38 
z
" clip-path="url(#p14e5a5ba0e)" style="fill: #ffc8c8"/>
    <path d="M 516.457538 34.38 
L 516.457538 7.2 
L 518.484237 7.2 
L 518.484237 34.38 
L 516.457538 34.38 
z
" clip-path="url(#p14e5a5ba0e)" style="fill: #ffdada"/>
    <path d="M 518.484237 34.38 
L 518.484237 7.2 
L 520.510935 7.2 
L 520.510935 34.38 
L 518.484237 34.38 
z
" clip-path="url(#p14e5a5ba0e)" style="fill: #ffe4e4"/>
    <path d="M 520.510935 34.38 
L 520.510935 7.2 
L 522.537634 7.2 
L 522.537634 34.38 
L 520.510935 34.38 
z
" clip-path="url(#p14e5a5ba0e)" style="fill: #fffefe"/>
    <path d="M 522.537634 34.38 
L 522.537634 7.2 
L 524.564333 7.2 
L 524.564333 34.38 
L 522.537634 34.38 
z
" clip-path="url(#p14e5a5ba0e)" style="fill: #fffefe"/>
    <path d="M 524.564333 34.38 
L 524.564333 7.2 
L 526.591032 7.2 
L 526.591032 34.38 
L 524.564333 34.38 
z
" clip-path="url(#p14e5a5ba0e)" style="fill: #ffe2e2"/>
    <path d="M 526.591032 34.38 
L 526.591032 7.2 
L 528.61773 7.2 
L 528.61773 34.38 
L 526.591032 34.38 
z
" clip-path="url(#p14e5a5ba0e)" style="fill: #fffefe"/>
    <path d="M 528.61773 34.38 
L 528.61773 7.2 
L 530.644429 7.2 
L 530.644429 34.38 
L 528.61773 34.38 
z
" clip-path="url(#p14e5a5ba0e)" style="fill: #ffe2e2"/>
    <path d="M 530.644429 34.38 
L 530.644429 7.2 
L 532.671128 7.2 
L 532.671128 34.38 
L 530.644429 34.38 
z
" clip-path="url(#p14e5a5ba0e)" style="fill: #fffefe"/>
    <path d="M 532.671128 34.38 
L 532.671128 7.2 
L 534.697827 7.2 
L 534.697827 34.38 
L 532.671128 34.38 
z
" clip-path="url(#p14e5a5ba0e)" style="fill: #ffe2e2"/>
    <path d="M 534.697827 34.38 
L 534.697827 7.2 
L 536.724526 7.2 
L 536.724526 34.38 
L 534.697827 34.38 
z
" clip-path="url(#p14e5a5ba0e)" style="fill: #ffb4b4"/>
    <path d="M 536.724526 34.38 
L 536.724526 7.2 
L 538.751224 7.2 
L 538.751224 34.38 
L 536.724526 34.38 
z
" clip-path="url(#p14e5a5ba0e)" style="fill: #ffc0c0"/>
    <path d="M 538.751224 34.38 
L 538.751224 7.2 
L 540.777923 7.2 
L 540.777923 34.38 
L 538.751224 34.38 
z
" clip-path="url(#p14e5a5ba0e)" style="fill: #ffaeae"/>
    <path d="M 540.777923 34.38 
L 540.777923 7.2 
L 542.804622 7.2 
L 542.804622 34.38 
L 540.777923 34.38 
z
" clip-path="url(#p14e5a5ba0e)" style="fill: #ffe4e4"/>
    <path d="M 542.804622 34.38 
L 542.804622 7.2 
L 544.831321 7.2 
L 544.831321 34.38 
L 542.804622 34.38 
z
" clip-path="url(#p14e5a5ba0e)" style="fill: #ffe4e4"/>
    <path d="M 544.831321 34.38 
L 544.831321 7.2 
L 546.858019 7.2 
L 546.858019 34.38 
L 544.831321 34.38 
z
" clip-path="url(#p14e5a5ba0e)" style="fill: #ffd8d8"/>
    <path d="M 546.858019 34.38 
L 546.858019 7.2 
L 548.884718 7.2 
L 548.884718 34.38 
L 546.858019 34.38 
z
" clip-path="url(#p14e5a5ba0e)" style="fill: #ffb8b8"/>
    <path d="M 548.884718 34.38 
L 548.884718 7.2 
L 550.911417 7.2 
L 550.911417 34.38 
L 548.884718 34.38 
z
" clip-path="url(#p14e5a5ba0e)" style="fill: #ffdcdc"/>
    <path d="M 550.911417 34.38 
L 550.911417 7.2 
L 552.938116 7.2 
L 552.938116 34.38 
L 550.911417 34.38 
z
" clip-path="url(#p14e5a5ba0e)" style="fill: #ffd0d0"/>
    <path d="M 552.938116 34.38 
L 552.938116 7.2 
L 554.964814 7.2 
L 554.964814 34.38 
L 552.938116 34.38 
z
" clip-path="url(#p14e5a5ba0e)" style="fill: #ffe0e0"/>
    <path d="M 554.964814 34.38 
L 554.964814 7.2 
L 556.991513 7.2 
L 556.991513 34.38 
L 554.964814 34.38 
z
" clip-path="url(#p14e5a5ba0e)" style="fill: #ffdada"/>
    <path d="M 556.991513 34.38 
L 556.991513 7.2 
L 559.018212 7.2 
L 559.018212 34.38 
L 556.991513 34.38 
z
" clip-path="url(#p14e5a5ba0e)" style="fill: #ffcaca"/>
    <path d="M 559.018212 34.38 
L 559.018212 7.2 
L 561.044911 7.2 
L 561.044911 34.38 
L 559.018212 34.38 
z
" clip-path="url(#p14e5a5ba0e)" style="fill: #ffd0d0"/>
    <path d="M 561.044911 34.38 
L 561.044911 7.2 
L 563.071609 7.2 
L 563.071609 34.38 
L 561.044911 34.38 
z
" clip-path="url(#p14e5a5ba0e)" style="fill: #ffbebe"/>
    <path d="M 563.071609 34.38 
L 563.071609 7.2 
L 565.098308 7.2 
L 565.098308 34.38 
L 563.071609 34.38 
z
" clip-path="url(#p14e5a5ba0e)" style="fill: #ffc0c0"/>
    <path d="M 565.098308 34.38 
L 565.098308 7.2 
L 567.125007 7.2 
L 567.125007 34.38 
L 565.098308 34.38 
z
" clip-path="url(#p14e5a5ba0e)" style="fill: #e2e2ff"/>
    <path d="M 567.125007 34.38 
L 567.125007 7.2 
L 569.151706 7.2 
L 569.151706 34.38 
L 567.125007 34.38 
z
" clip-path="url(#p14e5a5ba0e)" style="fill: #ccccff"/>
    <path d="M 569.151706 34.38 
L 569.151706 7.2 
L 571.178404 7.2 
L 571.178404 34.38 
L 569.151706 34.38 
z
" clip-path="url(#p14e5a5ba0e)" style="fill: #9e9eff"/>
    <path d="M 571.178404 34.38 
L 571.178404 7.2 
L 573.205103 7.2 
L 573.205103 34.38 
L 571.178404 34.38 
z
" clip-path="url(#p14e5a5ba0e)" style="fill: #aeaeff"/>
    <path d="M 573.205103 34.38 
L 573.205103 7.2 
L 575.231802 7.2 
L 575.231802 34.38 
L 573.205103 34.38 
z
" clip-path="url(#p14e5a5ba0e)" style="fill: #a8a8ff"/>
    <path d="M 575.231802 34.38 
L 575.231802 7.2 
L 577.258501 7.2 
L 577.258501 34.38 
L 575.231802 34.38 
z
" clip-path="url(#p14e5a5ba0e)" style="fill: #8e8eff"/>
    <path d="M 577.258501 34.38 
L 577.258501 7.2 
L 579.285199 7.2 
L 579.285199 34.38 
L 577.258501 34.38 
z
" clip-path="url(#p14e5a5ba0e)" style="fill: #d6d6ff"/>
    <path d="M 579.285199 34.38 
L 579.285199 7.2 
L 581.311898 7.2 
L 581.311898 34.38 
L 579.285199 34.38 
z
" clip-path="url(#p14e5a5ba0e)" style="fill: #ffe2e2"/>
    <path d="M 581.311898 34.38 
L 581.311898 7.2 
L 583.338597 7.2 
L 583.338597 34.38 
L 581.311898 34.38 
z
" clip-path="url(#p14e5a5ba0e)" style="fill: #ffdcdc"/>
    <path d="M 583.338597 34.38 
L 583.338597 7.2 
L 585.365296 7.2 
L 585.365296 34.38 
L 583.338597 34.38 
z
" clip-path="url(#p14e5a5ba0e)" style="fill: #ffd8d8"/>
    <path d="M 585.365296 34.38 
L 585.365296 7.2 
L 587.391994 7.2 
L 587.391994 34.38 
L 585.365296 34.38 
z
" clip-path="url(#p14e5a5ba0e)" style="fill: #c0c0ff"/>
    <path d="M 587.391994 34.38 
L 587.391994 7.2 
L 589.418693 7.2 
L 589.418693 34.38 
L 587.391994 34.38 
z
" clip-path="url(#p14e5a5ba0e)" style="fill: #e0e0ff"/>
    <path d="M 589.418693 34.38 
L 589.418693 7.2 
L 591.445392 7.2 
L 591.445392 34.38 
L 589.418693 34.38 
z
" clip-path="url(#p14e5a5ba0e)" style="fill: #aeaeff"/>
    <path d="M 591.445392 34.38 
L 591.445392 7.2 
L 593.472091 7.2 
L 593.472091 34.38 
L 591.445392 34.38 
z
" clip-path="url(#p14e5a5ba0e)" style="fill: #d6d6ff"/>
    <path d="M 593.472091 34.38 
L 593.472091 7.2 
L 595.498789 7.2 
L 595.498789 34.38 
L 593.472091 34.38 
z
" clip-path="url(#p14e5a5ba0e)" style="fill: #7e7eff"/>
    <path d="M 595.498789 34.38 
L 595.498789 7.2 
L 597.525488 7.2 
L 597.525488 34.38 
L 595.498789 34.38 
z
" clip-path="url(#p14e5a5ba0e)" style="fill: #a8a8ff"/>
    <path d="M 597.525488 34.38 
L 597.525488 7.2 
L 599.552187 7.2 
L 599.552187 34.38 
L 597.525488 34.38 
z
" clip-path="url(#p14e5a5ba0e)" style="fill: #cacaff"/>
    <path d="M 599.552187 34.38 
L 599.552187 7.2 
L 601.578886 7.2 
L 601.578886 34.38 
L 599.552187 34.38 
z
" clip-path="url(#p14e5a5ba0e)" style="fill: #7e7eff"/>
    <path d="M 601.578886 34.38 
L 601.578886 7.2 
L 603.605584 7.2 
L 603.605584 34.38 
L 601.578886 34.38 
z
" clip-path="url(#p14e5a5ba0e)" style="fill: #a4a4ff"/>
    <path d="M 603.605584 34.38 
L 603.605584 7.2 
L 605.632283 7.2 
L 605.632283 34.38 
L 603.605584 34.38 
z
" clip-path="url(#p14e5a5ba0e)" style="fill: #ccccff"/>
    <path d="M 605.632283 34.38 
L 605.632283 7.2 
L 607.658982 7.2 
L 607.658982 34.38 
L 605.632283 34.38 
z
" clip-path="url(#p14e5a5ba0e)" style="fill: #6666ff"/>
    <path d="M 607.658982 34.38 
L 607.658982 7.2 
L 609.685681 7.2 
L 609.685681 34.38 
L 607.658982 34.38 
z
" clip-path="url(#p14e5a5ba0e)" style="fill: #ccccff"/>
    <path d="M 609.685681 34.38 
L 609.685681 7.2 
L 611.712379 7.2 
L 611.712379 34.38 
L 609.685681 34.38 
z
" clip-path="url(#p14e5a5ba0e)" style="fill: #d4d4ff"/>
    <path d="M 611.712379 34.38 
L 611.712379 7.2 
L 613.739078 7.2 
L 613.739078 34.38 
L 611.712379 34.38 
z
" clip-path="url(#p14e5a5ba0e)" style="fill: #c8c8ff"/>
    <path d="M 613.739078 34.38 
L 613.739078 7.2 
L 615.765777 7.2 
L 615.765777 34.38 
L 613.739078 34.38 
z
" clip-path="url(#p14e5a5ba0e)" style="fill: #ffe2e2"/>
    <path d="M 615.765777 34.38 
L 615.765777 7.2 
L 617.792476 7.2 
L 617.792476 34.38 
L 615.765777 34.38 
z
" clip-path="url(#p14e5a5ba0e)" style="fill: #9696ff"/>
    <path d="M 617.792476 34.38 
L 617.792476 7.2 
L 619.819174 7.2 
L 619.819174 34.38 
L 617.792476 34.38 
z
" clip-path="url(#p14e5a5ba0e)" style="fill: #e4e4ff"/>
    <path d="M 619.819174 34.38 
L 619.819174 7.2 
L 621.845873 7.2 
L 621.845873 34.38 
L 619.819174 34.38 
z
" clip-path="url(#p14e5a5ba0e)" style="fill: #d0d0ff"/>
    <path d="M 621.845873 34.38 
L 621.845873 7.2 
L 623.872572 7.2 
L 623.872572 34.38 
L 621.845873 34.38 
z
" clip-path="url(#p14e5a5ba0e)" style="fill: #6666ff"/>
    <path d="M 623.872572 34.38 
L 623.872572 7.2 
L 625.899271 7.2 
L 625.899271 34.38 
L 623.872572 34.38 
z
" clip-path="url(#p14e5a5ba0e)" style="fill: #acacff"/>
    <path d="M 625.899271 34.38 
L 625.899271 7.2 
L 627.925969 7.2 
L 627.925969 34.38 
L 625.899271 34.38 
z
" clip-path="url(#p14e5a5ba0e)" style="fill: #d6d6ff"/>
    <path d="M 627.925969 34.38 
L 627.925969 7.2 
L 629.952668 7.2 
L 629.952668 34.38 
L 627.925969 34.38 
z
" clip-path="url(#p14e5a5ba0e)" style="fill: #d0d0ff"/>
    <path d="M 629.952668 34.38 
L 629.952668 7.2 
L 631.979367 7.2 
L 631.979367 34.38 
L 629.952668 34.38 
z
" clip-path="url(#p14e5a5ba0e)" style="fill: #d2d2ff"/>
    <path d="M 631.979367 34.38 
L 631.979367 7.2 
L 634.006066 7.2 
L 634.006066 34.38 
L 631.979367 34.38 
z
" clip-path="url(#p14e5a5ba0e)" style="fill: #eeeeff"/>
    <path d="M 634.006066 34.38 
L 634.006066 7.2 
L 636.032764 7.2 
L 636.032764 34.38 
L 634.006066 34.38 
z
" clip-path="url(#p14e5a5ba0e)" style="fill: #dcdcff"/>
    <path d="M 636.032764 34.38 
L 636.032764 7.2 
L 638.059463 7.2 
L 638.059463 34.38 
L 636.032764 34.38 
z
" clip-path="url(#p14e5a5ba0e)" style="fill: #ffdcdc"/>
    <path d="M 638.059463 34.38 
L 638.059463 7.2 
L 640.086162 7.2 
L 640.086162 34.38 
L 638.059463 34.38 
z
" clip-path="url(#p14e5a5ba0e)" style="fill: #eeeeff"/>
    <path d="M 640.086162 34.38 
L 640.086162 7.2 
L 642.112861 7.2 
L 642.112861 34.38 
L 640.086162 34.38 
z
" clip-path="url(#p14e5a5ba0e)" style="fill: #d2d2ff"/>
    <path d="M 642.112861 34.38 
L 642.112861 7.2 
L 644.139559 7.2 
L 644.139559 34.38 
L 642.112861 34.38 
z
" clip-path="url(#p14e5a5ba0e)" style="fill: #babaff"/>
    <path d="M 644.139559 34.38 
L 644.139559 7.2 
L 646.166258 7.2 
L 646.166258 34.38 
L 644.139559 34.38 
z
" clip-path="url(#p14e5a5ba0e)" style="fill: #bebeff"/>
    <path d="M 646.166258 34.38 
L 646.166258 7.2 
L 648.192957 7.2 
L 648.192957 34.38 
L 646.166258 34.38 
z
" clip-path="url(#p14e5a5ba0e)" style="fill: #ffacac"/>
    <path d="M 648.192957 34.38 
L 648.192957 7.2 
L 650.219656 7.2 
L 650.219656 34.38 
L 648.192957 34.38 
z
" clip-path="url(#p14e5a5ba0e)" style="fill: #ffaaaa"/>
    <path d="M 650.219656 34.38 
L 650.219656 7.2 
L 652.246354 7.2 
L 652.246354 34.38 
L 650.219656 34.38 
z
" clip-path="url(#p14e5a5ba0e)" style="fill: #ffa2a2"/>
    <path d="M 652.246354 34.38 
L 652.246354 7.2 
L 654.273053 7.2 
L 654.273053 34.38 
L 652.246354 34.38 
z
" clip-path="url(#p14e5a5ba0e)" style="fill: #ffb2b2"/>
    <path d="M 654.273053 34.38 
L 654.273053 7.2 
L 656.299752 7.2 
L 656.299752 34.38 
L 654.273053 34.38 
z
" clip-path="url(#p14e5a5ba0e)" style="fill: #ffaaaa"/>
    <path d="M 656.299752 34.38 
L 656.299752 7.2 
L 658.326451 7.2 
L 658.326451 34.38 
L 656.299752 34.38 
z
" clip-path="url(#p14e5a5ba0e)" style="fill: #ffc6c6"/>
    <path d="M 658.326451 34.38 
L 658.326451 7.2 
L 660.353149 7.2 
L 660.353149 34.38 
L 658.326451 34.38 
z
" clip-path="url(#p14e5a5ba0e)" style="fill: #ffb2b2"/>
    <path d="M 660.353149 34.38 
L 660.353149 7.2 
L 662.379848 7.2 
L 662.379848 34.38 
L 660.353149 34.38 
z
" clip-path="url(#p14e5a5ba0e)" style="fill: #ffbaba"/>
    <path d="M 662.379848 34.38 
L 662.379848 7.2 
L 664.406547 7.2 
L 664.406547 34.38 
L 662.379848 34.38 
z
" clip-path="url(#p14e5a5ba0e)" style="fill: #d6d6ff"/>
    <path d="M 664.406547 34.38 
L 664.406547 7.2 
L 666.433246 7.2 
L 666.433246 34.38 
L 664.406547 34.38 
z
" clip-path="url(#p14e5a5ba0e)" style="fill: #d4d4ff"/>
    <path d="M 666.433246 34.38 
L 666.433246 7.2 
L 668.459944 7.2 
L 668.459944 34.38 
L 666.433246 34.38 
z
" clip-path="url(#p14e5a5ba0e)" style="fill: #ceceff"/>
    <path d="M 668.459944 34.38 
L 668.459944 7.2 
L 670.486643 7.2 
L 670.486643 34.38 
L 668.459944 34.38 
z
" clip-path="url(#p14e5a5ba0e)" style="fill: #8484ff"/>
    <path d="M 670.486643 34.38 
L 670.486643 7.2 
L 672.513342 7.2 
L 672.513342 34.38 
L 670.486643 34.38 
z
" clip-path="url(#p14e5a5ba0e)" style="fill: #9e9eff"/>
    <path d="M 672.513342 34.38 
L 672.513342 7.2 
L 674.540041 7.2 
L 674.540041 34.38 
L 672.513342 34.38 
z
" clip-path="url(#p14e5a5ba0e)" style="fill: #9494ff"/>
    <path d="M 674.540041 34.38 
L 674.540041 7.2 
L 676.566739 7.2 
L 676.566739 34.38 
L 674.540041 34.38 
z
" clip-path="url(#p14e5a5ba0e)" style="fill: #b8b8ff"/>
    <path d="M 676.566739 34.38 
L 676.566739 7.2 
L 678.593438 7.2 
L 678.593438 34.38 
L 676.566739 34.38 
z
" clip-path="url(#p14e5a5ba0e)" style="fill: #d0d0ff"/>
    <path d="M 678.593438 34.38 
L 678.593438 7.2 
L 680.620137 7.2 
L 680.620137 34.38 
L 678.593438 34.38 
z
" clip-path="url(#p14e5a5ba0e)" style="fill: #cacaff"/>
    <path d="M 680.620137 34.38 
L 680.620137 7.2 
L 682.646836 7.2 
L 682.646836 34.38 
L 680.620137 34.38 
z
" clip-path="url(#p14e5a5ba0e)" style="fill: #d4d4ff"/>
    <path d="M 682.646836 34.38 
L 682.646836 7.2 
L 684.673534 7.2 
L 684.673534 34.38 
L 682.646836 34.38 
z
" clip-path="url(#p14e5a5ba0e)" style="fill: #d2d2ff"/>
    <path d="M 684.673534 34.38 
L 684.673534 7.2 
L 686.700233 7.2 
L 686.700233 34.38 
L 684.673534 34.38 
z
" clip-path="url(#p14e5a5ba0e)" style="fill: #c6c6ff"/>
    <path d="M 686.700233 34.38 
L 686.700233 7.2 
L 688.726932 7.2 
L 688.726932 34.38 
L 686.700233 34.38 
z
" clip-path="url(#p14e5a5ba0e)" style="fill: #d2d2ff"/>
    <path d="M 688.726932 34.38 
L 688.726932 7.2 
L 690.753631 7.2 
L 690.753631 34.38 
L 688.726932 34.38 
z
" clip-path="url(#p14e5a5ba0e)" style="fill: #d0d0ff"/>
    <path d="M 690.753631 34.38 
L 690.753631 7.2 
L 692.780329 7.2 
L 692.780329 34.38 
L 690.753631 34.38 
z
" clip-path="url(#p14e5a5ba0e)" style="fill: #cacaff"/>
    <path d="M 692.780329 34.38 
L 692.780329 7.2 
L 694.807028 7.2 
L 694.807028 34.38 
L 692.780329 34.38 
z
" clip-path="url(#p14e5a5ba0e)" style="fill: #aaaaff"/>
    <path d="M 694.807028 34.38 
L 694.807028 7.2 
L 696.833727 7.2 
L 696.833727 34.38 
L 694.807028 34.38 
z
" clip-path="url(#p14e5a5ba0e)" style="fill: #d6d6ff"/>
    <path d="M 696.833727 34.38 
L 696.833727 7.2 
L 698.860426 7.2 
L 698.860426 34.38 
L 696.833727 34.38 
z
" clip-path="url(#p14e5a5ba0e)" style="fill: #ccccff"/>
    <path d="M 698.860426 34.38 
L 698.860426 7.2 
L 700.887124 7.2 
L 700.887124 34.38 
L 698.860426 34.38 
z
" clip-path="url(#p14e5a5ba0e)" style="fill: #ccccff"/>
    <path d="M 700.887124 34.38 
L 700.887124 7.2 
L 702.913823 7.2 
L 702.913823 34.38 
L 700.887124 34.38 
z
" clip-path="url(#p14e5a5ba0e)" style="fill: #ccccff"/>
    <path d="M 702.913823 34.38 
L 702.913823 7.2 
L 704.940522 7.2 
L 704.940522 34.38 
L 702.913823 34.38 
z
" clip-path="url(#p14e5a5ba0e)" style="fill: #cacaff"/>
    <path d="M 704.940522 34.38 
L 704.940522 7.2 
L 706.967221 7.2 
L 706.967221 34.38 
L 704.940522 34.38 
z
" clip-path="url(#p14e5a5ba0e)" style="fill: #ffacac"/>
    <path d="M 706.967221 34.38 
L 706.967221 7.2 
L 708.99392 7.2 
L 708.99392 34.38 
L 706.967221 34.38 
z
" clip-path="url(#p14e5a5ba0e)" style="fill: #ffb4b4"/>
    <path d="M 708.99392 34.38 
L 708.99392 7.2 
L 711.020618 7.2 
L 711.020618 34.38 
L 708.99392 34.38 
z
" clip-path="url(#p14e5a5ba0e)" style="fill: #ffb2b2"/>
    <path d="M 711.020618 34.38 
L 711.020618 7.2 
L 713.047317 7.2 
L 713.047317 34.38 
L 711.020618 34.38 
z
" clip-path="url(#p14e5a5ba0e)" style="fill: #ffcaca"/>
    <path d="M 713.047317 34.38 
L 713.047317 7.2 
L 715.074016 7.2 
L 715.074016 34.38 
L 713.047317 34.38 
z
" clip-path="url(#p14e5a5ba0e)" style="fill: #ffc4c4"/>
    <path d="M 715.074016 34.38 
L 715.074016 7.2 
L 717.100715 7.2 
L 717.100715 34.38 
L 715.074016 34.38 
z
" clip-path="url(#p14e5a5ba0e)" style="fill: #ffc2c2"/>
    <path d="M 717.100715 34.38 
L 717.100715 7.2 
L 719.127413 7.2 
L 719.127413 34.38 
L 717.100715 34.38 
z
" clip-path="url(#p14e5a5ba0e)" style="fill: #bcbcff"/>
    <path d="M 719.127413 34.38 
L 719.127413 7.2 
L 721.154112 7.2 
L 721.154112 34.38 
L 719.127413 34.38 
z
" clip-path="url(#p14e5a5ba0e)" style="fill: #bebeff"/>
    <path d="M 721.154112 34.38 
L 721.154112 7.2 
L 723.180811 7.2 
L 723.180811 34.38 
L 721.154112 34.38 
z
" clip-path="url(#p14e5a5ba0e)" style="fill: #a4a4ff"/>
    <path d="M 723.180811 34.38 
L 723.180811 7.2 
L 725.20751 7.2 
L 725.20751 34.38 
L 723.180811 34.38 
z
" clip-path="url(#p14e5a5ba0e)" style="fill: #acacff"/>
    <path d="M 725.20751 34.38 
L 725.20751 7.2 
L 727.234208 7.2 
L 727.234208 34.38 
L 725.20751 34.38 
z
" clip-path="url(#p14e5a5ba0e)" style="fill: #a8a8ff"/>
    <path d="M 727.234208 34.38 
L 727.234208 7.2 
L 729.260907 7.2 
L 729.260907 34.38 
L 727.234208 34.38 
z
" clip-path="url(#p14e5a5ba0e)" style="fill: #d6d6ff"/>
    <path d="M 729.260907 34.38 
L 729.260907 7.2 
L 731.287606 7.2 
L 731.287606 34.38 
L 729.260907 34.38 
z
" clip-path="url(#p14e5a5ba0e)" style="fill: #cacaff"/>
    <path d="M 731.287606 34.38 
L 731.287606 7.2 
L 733.314305 7.2 
L 733.314305 34.38 
L 731.287606 34.38 
z
" clip-path="url(#p14e5a5ba0e)" style="fill: #cacaff"/>
    <path d="M 733.314305 34.38 
L 733.314305 7.2 
L 735.341003 7.2 
L 735.341003 34.38 
L 733.314305 34.38 
z
" clip-path="url(#p14e5a5ba0e)" style="fill: #b6b6ff"/>
    <path d="M 735.341003 34.38 
L 735.341003 7.2 
L 737.367702 7.2 
L 737.367702 34.38 
L 735.341003 34.38 
z
" clip-path="url(#p14e5a5ba0e)" style="fill: #ffc8c8"/>
    <path d="M 737.367702 34.38 
L 737.367702 7.2 
L 739.394401 7.2 
L 739.394401 34.38 
L 737.367702 34.38 
z
" clip-path="url(#p14e5a5ba0e)" style="fill: #ffbaba"/>
    <path d="M 739.394401 34.38 
L 739.394401 7.2 
L 741.4211 7.2 
L 741.4211 34.38 
L 739.394401 34.38 
z
" clip-path="url(#p14e5a5ba0e)" style="fill: #ffb8b8"/>
    <path d="M 741.4211 34.38 
L 741.4211 7.2 
L 743.447798 7.2 
L 743.447798 34.38 
L 741.4211 34.38 
z
" clip-path="url(#p14e5a5ba0e)" style="fill: #ffa0a0"/>
    <path d="M 743.447798 34.38 
L 743.447798 7.2 
L 745.474497 7.2 
L 745.474497 34.38 
L 743.447798 34.38 
z
" clip-path="url(#p14e5a5ba0e)" style="fill: #ffcccc"/>
    <path d="M 745.474497 34.38 
L 745.474497 7.2 
L 747.501196 7.2 
L 747.501196 34.38 
L 745.474497 34.38 
z
" clip-path="url(#p14e5a5ba0e)" style="fill: #ffaeae"/>
    <path d="M 747.501196 34.38 
L 747.501196 7.2 
L 749.527895 7.2 
L 749.527895 34.38 
L 747.501196 34.38 
z
" clip-path="url(#p14e5a5ba0e)" style="fill: #ffc4c4"/>
    <path d="M 749.527895 34.38 
L 749.527895 7.2 
L 751.554593 7.2 
L 751.554593 34.38 
L 749.527895 34.38 
z
" clip-path="url(#p14e5a5ba0e)" style="fill: #ffc8c8"/>
    <path d="M 751.554593 34.38 
L 751.554593 7.2 
L 753.581292 7.2 
L 753.581292 34.38 
L 751.554593 34.38 
z
" clip-path="url(#p14e5a5ba0e)" style="fill: #ffcaca"/>
    <path d="M 753.581292 34.38 
L 753.581292 7.2 
L 755.607991 7.2 
L 755.607991 34.38 
L 753.581292 34.38 
z
" clip-path="url(#p14e5a5ba0e)" style="fill: #cacaff"/>
    <path d="M 755.607991 34.38 
L 755.607991 7.2 
L 757.63469 7.2 
L 757.63469 34.38 
L 755.607991 34.38 
z
" clip-path="url(#p14e5a5ba0e)" style="fill: #ceceff"/>
    <path d="M 757.63469 34.38 
L 757.63469 7.2 
L 759.661388 7.2 
L 759.661388 34.38 
L 757.63469 34.38 
z
" clip-path="url(#p14e5a5ba0e)" style="fill: #cacaff"/>
    <path d="M 759.661388 34.38 
L 759.661388 7.2 
L 761.688087 7.2 
L 761.688087 34.38 
L 759.661388 34.38 
z
" clip-path="url(#p14e5a5ba0e)" style="fill: #ccccff"/>
    <path d="M 761.688087 34.38 
L 761.688087 7.2 
L 763.714786 7.2 
L 763.714786 34.38 
L 761.688087 34.38 
z
" clip-path="url(#p14e5a5ba0e)" style="fill: #a6a6ff"/>
    <path d="M 763.714786 34.38 
L 763.714786 7.2 
L 765.741485 7.2 
L 765.741485 34.38 
L 763.714786 34.38 
z
" clip-path="url(#p14e5a5ba0e)" style="fill: #a6a6ff"/>
    <path d="M 765.741485 34.38 
L 765.741485 7.2 
L 767.768183 7.2 
L 767.768183 34.38 
L 765.741485 34.38 
z
" clip-path="url(#p14e5a5ba0e)" style="fill: #a6a6ff"/>
    <path d="M 767.768183 34.38 
L 767.768183 7.2 
L 769.794882 7.2 
L 769.794882 34.38 
L 767.768183 34.38 
z
" clip-path="url(#p14e5a5ba0e)" style="fill: #d2d2ff"/>
    <path d="M 769.794882 34.38 
L 769.794882 7.2 
L 771.821581 7.2 
L 771.821581 34.38 
L 769.794882 34.38 
z
" clip-path="url(#p14e5a5ba0e)" style="fill: #c8c8ff"/>
    <path d="M 771.821581 34.38 
L 771.821581 7.2 
L 773.84828 7.2 
L 773.84828 34.38 
L 771.821581 34.38 
z
" clip-path="url(#p14e5a5ba0e)" style="fill: #ceceff"/>
    <path d="M 773.84828 34.38 
L 773.84828 7.2 
L 775.874978 7.2 
L 775.874978 34.38 
L 773.84828 34.38 
z
" clip-path="url(#p14e5a5ba0e)" style="fill: #7878ff"/>
    <path d="M 775.874978 34.38 
L 775.874978 7.2 
L 777.901677 7.2 
L 777.901677 34.38 
L 775.874978 34.38 
z
" clip-path="url(#p14e5a5ba0e)" style="fill: #6a6aff"/>
    <path d="M 777.901677 34.38 
L 777.901677 7.2 
L 779.928376 7.2 
L 779.928376 34.38 
L 777.901677 34.38 
z
" clip-path="url(#p14e5a5ba0e)" style="fill: #6868ff"/>
    <path d="M 779.928376 34.38 
L 779.928376 7.2 
L 781.955075 7.2 
L 781.955075 34.38 
L 779.928376 34.38 
z
" clip-path="url(#p14e5a5ba0e)" style="fill: #a4a4ff"/>
    <path d="M 781.955075 34.38 
L 781.955075 7.2 
L 783.981773 7.2 
L 783.981773 34.38 
L 781.955075 34.38 
z
" clip-path="url(#p14e5a5ba0e)" style="fill: #aaaaff"/>
    <path d="M 783.981773 34.38 
L 783.981773 7.2 
L 786.008472 7.2 
L 786.008472 34.38 
L 783.981773 34.38 
z
" clip-path="url(#p14e5a5ba0e)" style="fill: #a2a2ff"/>
    <path d="M 786.008472 34.38 
L 786.008472 7.2 
L 788.035171 7.2 
L 788.035171 34.38 
L 786.008472 34.38 
z
" clip-path="url(#p14e5a5ba0e)" style="fill: #dcdcff"/>
    <path d="M 788.035171 34.38 
L 788.035171 7.2 
L 790.06187 7.2 
L 790.06187 34.38 
L 788.035171 34.38 
z
" clip-path="url(#p14e5a5ba0e)" style="fill: #dadaff"/>
    <path d="M 790.06187 34.38 
L 790.06187 7.2 
L 792.088568 7.2 
L 792.088568 34.38 
L 790.06187 34.38 
z
" clip-path="url(#p14e5a5ba0e)" style="fill: #dadaff"/>
    <path d="M 792.088568 34.38 
L 792.088568 7.2 
L 794.115267 7.2 
L 794.115267 34.38 
L 792.088568 34.38 
z
" clip-path="url(#p14e5a5ba0e)" style="fill: #6e6eff"/>
    <path d="M 794.115267 34.38 
L 794.115267 7.2 
L 796.141966 7.2 
L 796.141966 34.38 
L 794.115267 34.38 
z
" clip-path="url(#p14e5a5ba0e)" style="fill: #6c6cff"/>
    <path d="M 796.141966 34.38 
L 796.141966 7.2 
L 798.168665 7.2 
L 798.168665 34.38 
L 796.141966 34.38 
z
" clip-path="url(#p14e5a5ba0e)" style="fill: #6666ff"/>
    <path d="M 798.168665 34.38 
L 798.168665 7.2 
L 800.195363 7.2 
L 800.195363 34.38 
L 798.168665 34.38 
z
" clip-path="url(#p14e5a5ba0e)" style="fill: #aaaaff"/>
    <path d="M 800.195363 34.38 
L 800.195363 7.2 
L 802.222062 7.2 
L 802.222062 34.38 
L 800.195363 34.38 
z
" clip-path="url(#p14e5a5ba0e)" style="fill: #aaaaff"/>
    <path d="M 802.222062 34.38 
L 802.222062 7.2 
L 804.248761 7.2 
L 804.248761 34.38 
L 802.222062 34.38 
z
" clip-path="url(#p14e5a5ba0e)" style="fill: #acacff"/>
    <path d="M 804.248761 34.38 
L 804.248761 7.2 
L 806.27546 7.2 
L 806.27546 34.38 
L 804.248761 34.38 
z
" clip-path="url(#p14e5a5ba0e)" style="fill: #d8d8ff"/>
    <path d="M 806.27546 34.38 
L 806.27546 7.2 
L 808.302158 7.2 
L 808.302158 34.38 
L 806.27546 34.38 
z
" clip-path="url(#p14e5a5ba0e)" style="fill: #dadaff"/>
    <path d="M 808.302158 34.38 
L 808.302158 7.2 
L 810.328857 7.2 
L 810.328857 34.38 
L 808.302158 34.38 
z
" clip-path="url(#p14e5a5ba0e)" style="fill: #d8d8ff"/>
    <path d="M 810.328857 34.38 
L 810.328857 7.2 
L 812.355556 7.2 
L 812.355556 34.38 
L 810.328857 34.38 
z
" clip-path="url(#p14e5a5ba0e)" style="fill: #ffaaaa"/>
    <path d="M 812.355556 34.38 
L 812.355556 7.2 
L 814.382255 7.2 
L 814.382255 34.38 
L 812.355556 34.38 
z
" clip-path="url(#p14e5a5ba0e)" style="fill: #ff9a9a"/>
    <path d="M 814.382255 34.38 
L 814.382255 7.2 
L 816.408953 7.2 
L 816.408953 34.38 
L 814.382255 34.38 
z
" clip-path="url(#p14e5a5ba0e)" style="fill: #ff9696"/>
    <path d="M 816.408953 34.38 
L 816.408953 7.2 
L 818.435652 7.2 
L 818.435652 34.38 
L 816.408953 34.38 
z
" clip-path="url(#p14e5a5ba0e)" style="fill: #ff9494"/>
    <path d="M 818.435652 34.38 
L 818.435652 7.2 
L 820.462351 7.2 
L 820.462351 34.38 
L 818.435652 34.38 
z
" clip-path="url(#p14e5a5ba0e)" style="fill: #ff7e7e"/>
    <path d="M 820.462351 34.38 
L 820.462351 7.2 
L 822.48905 7.2 
L 822.48905 34.38 
L 820.462351 34.38 
z
" clip-path="url(#p14e5a5ba0e)" style="fill: #8a8aff"/>
    <path d="M 822.48905 34.38 
L 822.48905 7.2 
L 824.515748 7.2 
L 824.515748 34.38 
L 822.48905 34.38 
z
" clip-path="url(#p14e5a5ba0e)" style="fill: #f6f6ff"/>
    <path d="M 824.515748 34.38 
L 824.515748 7.2 
L 826.542447 7.2 
L 826.542447 34.38 
L 824.515748 34.38 
z
" clip-path="url(#p14e5a5ba0e)" style="fill: #fff4f4"/>
    <path d="M 826.542447 34.38 
L 826.542447 7.2 
L 828.569146 7.2 
L 828.569146 34.38 
L 826.542447 34.38 
z
" clip-path="url(#p14e5a5ba0e)" style="fill: #e2e2ff"/>
    <path d="M 828.569146 34.38 
L 828.569146 7.2 
L 830.595845 7.2 
L 830.595845 34.38 
L 828.569146 34.38 
z
" clip-path="url(#p14e5a5ba0e)" style="fill: #ffe0e0"/>
    <path d="M 830.595845 34.38 
L 830.595845 7.2 
L 832.622543 7.2 
L 832.622543 34.38 
L 830.595845 34.38 
z
" clip-path="url(#p14e5a5ba0e)" style="fill: #ffb8b8"/>
    <path d="M 832.622543 34.38 
L 832.622543 7.2 
L 834.649242 7.2 
L 834.649242 34.38 
L 832.622543 34.38 
z
" clip-path="url(#p14e5a5ba0e)" style="fill: #ff8a8a"/>
    <path d="M 834.649242 34.38 
L 834.649242 7.2 
L 836.675941 7.2 
L 836.675941 34.38 
L 834.649242 34.38 
z
" clip-path="url(#p14e5a5ba0e)" style="fill: #ffdcdc"/>
    <path d="M 836.675941 34.38 
L 836.675941 7.2 
L 838.70264 7.2 
L 838.70264 34.38 
L 836.675941 34.38 
z
" clip-path="url(#p14e5a5ba0e)" style="fill: #ffe4e4"/>
    <path d="M 838.70264 34.38 
L 838.70264 7.2 
L 840.729338 7.2 
L 840.729338 34.38 
L 838.70264 34.38 
z
" clip-path="url(#p14e5a5ba0e)" style="fill: #ccccff"/>
    <path d="M 840.729338 34.38 
L 840.729338 7.2 
L 842.756037 7.2 
L 842.756037 34.38 
L 840.729338 34.38 
z
" clip-path="url(#p14e5a5ba0e)" style="fill: #eaeaff"/>
    <path d="M 842.756037 34.38 
L 842.756037 7.2 
L 844.782736 7.2 
L 844.782736 34.38 
L 842.756037 34.38 
z
" clip-path="url(#p14e5a5ba0e)" style="fill: #9898ff"/>
    <path d="M 844.782736 34.38 
L 844.782736 7.2 
L 846.809435 7.2 
L 846.809435 34.38 
L 844.782736 34.38 
z
" clip-path="url(#p14e5a5ba0e)" style="fill: #9c9cff"/>
    <path d="M 846.809435 34.38 
L 846.809435 7.2 
L 848.836133 7.2 
L 848.836133 34.38 
L 846.809435 34.38 
z
" clip-path="url(#p14e5a5ba0e)" style="fill: #f0f0ff"/>
    <path d="M 848.836133 34.38 
L 848.836133 7.2 
L 850.862832 7.2 
L 850.862832 34.38 
L 848.836133 34.38 
z
" clip-path="url(#p14e5a5ba0e)" style="fill: #8282ff"/>
    <path d="M 850.862832 34.38 
L 850.862832 7.2 
L 852.889531 7.2 
L 852.889531 34.38 
L 850.862832 34.38 
z
" clip-path="url(#p14e5a5ba0e)" style="fill: #aaaaff"/>
    <path d="M 852.889531 34.38 
L 852.889531 7.2 
L 854.91623 7.2 
L 854.91623 34.38 
L 852.889531 34.38 
z
" clip-path="url(#p14e5a5ba0e)" style="fill: #c6c6ff"/>
    <path d="M 854.91623 34.38 
L 854.91623 7.2 
L 856.942928 7.2 
L 856.942928 34.38 
L 854.91623 34.38 
z
" clip-path="url(#p14e5a5ba0e)" style="fill: #8686ff"/>
    <path d="M 856.942928 34.38 
L 856.942928 7.2 
L 858.969627 7.2 
L 858.969627 34.38 
L 856.942928 34.38 
z
" clip-path="url(#p14e5a5ba0e)" style="fill: #b4b4ff"/>
    <path d="M 858.969627 34.38 
L 858.969627 7.2 
L 860.996326 7.2 
L 860.996326 34.38 
L 858.969627 34.38 
z
" clip-path="url(#p14e5a5ba0e)" style="fill: #8484ff"/>
    <path d="M 860.996326 34.38 
L 860.996326 7.2 
L 863.023025 7.2 
L 863.023025 34.38 
L 860.996326 34.38 
z
" clip-path="url(#p14e5a5ba0e)" style="fill: #8a8aff"/>
    <path d="M 863.023025 34.38 
L 863.023025 7.2 
L 865.049723 7.2 
L 865.049723 34.38 
L 863.023025 34.38 
z
" clip-path="url(#p14e5a5ba0e)" style="fill: #9494ff"/>
    <path d="M 865.049723 34.38 
L 865.049723 7.2 
L 867.076422 7.2 
L 867.076422 34.38 
L 865.049723 34.38 
z
" clip-path="url(#p14e5a5ba0e)" style="fill: #7272ff"/>
    <path d="M 867.076422 34.38 
L 867.076422 7.2 
L 869.103121 7.2 
L 869.103121 34.38 
L 867.076422 34.38 
z
" clip-path="url(#p14e5a5ba0e)" style="fill: #6868ff"/>
    <path d="M 869.103121 34.38 
L 869.103121 7.2 
L 871.12982 7.2 
L 871.12982 34.38 
L 869.103121 34.38 
z
" clip-path="url(#p14e5a5ba0e)" style="fill: #8e8eff"/>
    <path d="M 871.12982 34.38 
L 871.12982 7.2 
L 873.156518 7.2 
L 873.156518 34.38 
L 871.12982 34.38 
z
" clip-path="url(#p14e5a5ba0e)" style="fill: #9898ff"/>
    <path d="M 873.156518 34.38 
L 873.156518 7.2 
L 875.183217 7.2 
L 875.183217 34.38 
L 873.156518 34.38 
z
" clip-path="url(#p14e5a5ba0e)" style="fill: #a2a2ff"/>
    <path d="M 875.183217 34.38 
L 875.183217 7.2 
L 877.209916 7.2 
L 877.209916 34.38 
L 875.183217 34.38 
z
" clip-path="url(#p14e5a5ba0e)" style="fill: #8c8cff"/>
    <path d="M 877.209916 34.38 
L 877.209916 7.2 
L 879.236615 7.2 
L 879.236615 34.38 
L 877.209916 34.38 
z
" clip-path="url(#p14e5a5ba0e)" style="fill: #ffe2e2"/>
    <path d="M 879.236615 34.38 
L 879.236615 7.2 
L 881.263313 7.2 
L 881.263313 34.38 
L 879.236615 34.38 
z
" clip-path="url(#p14e5a5ba0e)" style="fill: #ffd6d6"/>
    <path d="M 881.263313 34.38 
L 881.263313 7.2 
L 883.290012 7.2 
L 883.290012 34.38 
L 881.263313 34.38 
z
" clip-path="url(#p14e5a5ba0e)" style="fill: #ffe0e0"/>
    <path d="M 883.290012 34.38 
L 883.290012 7.2 
L 885.316711 7.2 
L 885.316711 34.38 
L 883.290012 34.38 
z
" clip-path="url(#p14e5a5ba0e)" style="fill: #d8d8ff"/>
    <path d="M 885.316711 34.38 
L 885.316711 7.2 
L 887.34341 7.2 
L 887.34341 34.38 
L 885.316711 34.38 
z
" clip-path="url(#p14e5a5ba0e)" style="fill: #ff8a8a"/>
    <path d="M 887.34341 34.38 
L 887.34341 7.2 
L 889.370109 7.2 
L 889.370109 34.38 
L 887.34341 34.38 
z
" clip-path="url(#p14e5a5ba0e)" style="fill: #ff8a8a"/>
    <path d="M 889.370109 34.38 
L 889.370109 7.2 
L 891.396807 7.2 
L 891.396807 34.38 
L 889.370109 34.38 
z
" clip-path="url(#p14e5a5ba0e)" style="fill: #ff8c8c"/>
    <path d="M 891.396807 34.38 
L 891.396807 7.2 
L 893.423506 7.2 
L 893.423506 34.38 
L 891.396807 34.38 
z
" clip-path="url(#p14e5a5ba0e)" style="fill: #b2b2ff"/>
    <path d="M 893.423506 34.38 
L 893.423506 7.2 
L 895.450205 7.2 
L 895.450205 34.38 
L 893.423506 34.38 
z
" clip-path="url(#p14e5a5ba0e)" style="fill: #a6a6ff"/>
    <path d="M 895.450205 34.38 
L 895.450205 7.2 
L 897.476904 7.2 
L 897.476904 34.38 
L 895.450205 34.38 
z
" clip-path="url(#p14e5a5ba0e)" style="fill: #b0b0ff"/>
    <path d="M 897.476904 34.38 
L 897.476904 7.2 
L 899.503602 7.2 
L 899.503602 34.38 
L 897.476904 34.38 
z
" clip-path="url(#p14e5a5ba0e)" style="fill: #c0c0ff"/>
    <path d="M 899.503602 34.38 
L 899.503602 7.2 
L 901.530301 7.2 
L 901.530301 34.38 
L 899.503602 34.38 
z
" clip-path="url(#p14e5a5ba0e)" style="fill: #bcbcff"/>
    <path d="M 901.530301 34.38 
L 901.530301 7.2 
L 903.557 7.2 
L 903.557 34.38 
L 901.530301 34.38 
z
" clip-path="url(#p14e5a5ba0e)" style="fill: #a6a6ff"/>
    <path d="M 903.557 34.38 
L 903.557 7.2 
L 905.583699 7.2 
L 905.583699 34.38 
L 903.557 34.38 
z
" clip-path="url(#p14e5a5ba0e)" style="fill: #a0a0ff"/>
    <path d="M 905.583699 34.38 
L 905.583699 7.2 
L 907.610397 7.2 
L 907.610397 34.38 
L 905.583699 34.38 
z
" clip-path="url(#p14e5a5ba0e)" style="fill: #a0a0ff"/>
    <path d="M 907.610397 34.38 
L 907.610397 7.2 
L 909.637096 7.2 
L 909.637096 34.38 
L 907.610397 34.38 
z
" clip-path="url(#p14e5a5ba0e)" style="fill: #a0a0ff"/>
    <path d="M 909.637096 34.38 
L 909.637096 7.2 
L 911.663795 7.2 
L 911.663795 34.38 
L 909.637096 34.38 
z
" clip-path="url(#p14e5a5ba0e)" style="fill: #bcbcff"/>
    <path d="M 911.663795 34.38 
L 911.663795 7.2 
L 913.690494 7.2 
L 913.690494 34.38 
L 911.663795 34.38 
z
" clip-path="url(#p14e5a5ba0e)" style="fill: #b2b2ff"/>
    <path d="M 913.690494 34.38 
L 913.690494 7.2 
L 915.717192 7.2 
L 915.717192 34.38 
L 913.690494 34.38 
z
" clip-path="url(#p14e5a5ba0e)" style="fill: #ff9a9a"/>
    <path d="M 915.717192 34.38 
L 915.717192 7.2 
L 917.743891 7.2 
L 917.743891 34.38 
L 915.717192 34.38 
z
" clip-path="url(#p14e5a5ba0e)" style="fill: #ff8e8e"/>
    <path d="M 917.743891 34.38 
L 917.743891 7.2 
L 919.77059 7.2 
L 919.77059 34.38 
L 917.743891 34.38 
z
" clip-path="url(#p14e5a5ba0e)" style="fill: #ff8484"/>
    <path d="M 919.77059 34.38 
L 919.77059 7.2 
L 921.797289 7.2 
L 921.797289 34.38 
L 919.77059 34.38 
z
" clip-path="url(#p14e5a5ba0e)" style="fill: #ffaeae"/>
    <path d="M 921.797289 34.38 
L 921.797289 7.2 
L 923.823987 7.2 
L 923.823987 34.38 
L 921.797289 34.38 
z
" clip-path="url(#p14e5a5ba0e)" style="fill: #ffb4b4"/>
    <path d="M 923.823987 34.38 
L 923.823987 7.2 
L 925.850686 7.2 
L 925.850686 34.38 
L 923.823987 34.38 
z
" clip-path="url(#p14e5a5ba0e)" style="fill: #ffbcbc"/>
    <path d="M 925.850686 34.38 
L 925.850686 7.2 
L 927.877385 7.2 
L 927.877385 34.38 
L 925.850686 34.38 
z
" clip-path="url(#p14e5a5ba0e)" style="fill: #8e8eff"/>
    <path d="M 927.877385 34.38 
L 927.877385 7.2 
L 929.904084 7.2 
L 929.904084 34.38 
L 927.877385 34.38 
z
" clip-path="url(#p14e5a5ba0e)" style="fill: #9898ff"/>
    <path d="M 929.904084 34.38 
L 929.904084 7.2 
L 931.930782 7.2 
L 931.930782 34.38 
L 929.904084 34.38 
z
" clip-path="url(#p14e5a5ba0e)" style="fill: #9696ff"/>
    <path d="M 931.930782 34.38 
L 931.930782 7.2 
L 933.957481 7.2 
L 933.957481 34.38 
L 931.930782 34.38 
z
" clip-path="url(#p14e5a5ba0e)" style="fill: #e4e4ff"/>
    <path d="M 933.957481 34.38 
L 933.957481 7.2 
L 935.98418 7.2 
L 935.98418 34.38 
L 933.957481 34.38 
z
" clip-path="url(#p14e5a5ba0e)" style="fill: #a0a0ff"/>
    <path d="M 935.98418 34.38 
L 935.98418 7.2 
L 938.010879 7.2 
L 938.010879 34.38 
L 935.98418 34.38 
z
" clip-path="url(#p14e5a5ba0e)" style="fill: #9494ff"/>
    <path d="M 938.010879 34.38 
L 938.010879 7.2 
L 940.037577 7.2 
L 940.037577 34.38 
L 938.010879 34.38 
z
" clip-path="url(#p14e5a5ba0e)" style="fill: #8080ff"/>
    <path d="M 940.037577 34.38 
L 940.037577 7.2 
L 942.064276 7.2 
L 942.064276 34.38 
L 940.037577 34.38 
z
" clip-path="url(#p14e5a5ba0e)" style="fill: #ff8a8a"/>
    <path d="M 942.064276 34.38 
L 942.064276 7.2 
L 944.090975 7.2 
L 944.090975 34.38 
L 942.064276 34.38 
z
" clip-path="url(#p14e5a5ba0e)" style="fill: #ff9898"/>
    <path d="M 944.090975 34.38 
L 944.090975 7.2 
L 946.117674 7.2 
L 946.117674 34.38 
L 944.090975 34.38 
z
" clip-path="url(#p14e5a5ba0e)" style="fill: #ff9898"/>
    <path d="M 946.117674 34.38 
L 946.117674 7.2 
L 948.144372 7.2 
L 948.144372 34.38 
L 946.117674 34.38 
z
" clip-path="url(#p14e5a5ba0e)" style="fill: #fff0f0"/>
    <path d="M 948.144372 34.38 
L 948.144372 7.2 
L 950.171071 7.2 
L 950.171071 34.38 
L 948.144372 34.38 
z
" clip-path="url(#p14e5a5ba0e)" style="fill: #8c8cff"/>
    <path d="M 950.171071 34.38 
L 950.171071 7.2 
L 952.19777 7.2 
L 952.19777 34.38 
L 950.171071 34.38 
z
" clip-path="url(#p14e5a5ba0e)" style="fill: #8686ff"/>
    <path d="M 952.19777 34.38 
L 952.19777 7.2 
L 954.224469 7.2 
L 954.224469 34.38 
L 952.19777 34.38 
z
" clip-path="url(#p14e5a5ba0e)" style="fill: #8282ff"/>
    <path d="M 954.224469 34.38 
L 954.224469 7.2 
L 956.251167 7.2 
L 956.251167 34.38 
L 954.224469 34.38 
z
" clip-path="url(#p14e5a5ba0e)" style="fill: #eaeaff"/>
    <path d="M 956.251167 34.38 
L 956.251167 7.2 
L 958.277866 7.2 
L 958.277866 34.38 
L 956.251167 34.38 
z
" clip-path="url(#p14e5a5ba0e)" style="fill: #ececff"/>
    <path d="M 958.277866 34.38 
L 958.277866 7.2 
L 960.304565 7.2 
L 960.304565 34.38 
L 958.277866 34.38 
z
" clip-path="url(#p14e5a5ba0e)" style="fill: #c2c2ff"/>
    <path d="M 960.304565 34.38 
L 960.304565 7.2 
L 962.331264 7.2 
L 962.331264 34.38 
L 960.304565 34.38 
z
" clip-path="url(#p14e5a5ba0e)" style="fill: #c2c2ff"/>
    <path d="M 962.331264 34.38 
L 962.331264 7.2 
L 964.357962 7.2 
L 964.357962 34.38 
L 962.331264 34.38 
z
" clip-path="url(#p14e5a5ba0e)" style="fill: #c0c0ff"/>
    <path d="M 964.357962 34.38 
L 964.357962 7.2 
L 966.384661 7.2 
L 966.384661 34.38 
L 964.357962 34.38 
z
" clip-path="url(#p14e5a5ba0e)" style="fill: #e8e8ff"/>
    <path d="M 966.384661 34.38 
L 966.384661 7.2 
L 968.41136 7.2 
L 968.41136 34.38 
L 966.384661 34.38 
z
" clip-path="url(#p14e5a5ba0e)" style="fill: #aaaaff"/>
    <path d="M 968.41136 34.38 
L 968.41136 7.2 
L 970.438059 7.2 
L 970.438059 34.38 
L 968.41136 34.38 
z
" clip-path="url(#p14e5a5ba0e)" style="fill: #acacff"/>
    <path d="M 970.438059 34.38 
L 970.438059 7.2 
L 972.464757 7.2 
L 972.464757 34.38 
L 970.438059 34.38 
z
" clip-path="url(#p14e5a5ba0e)" style="fill: #b0b0ff"/>
    <path d="M 972.464757 34.38 
L 972.464757 7.2 
L 974.491456 7.2 
L 974.491456 34.38 
L 972.464757 34.38 
z
" clip-path="url(#p14e5a5ba0e)" style="fill: #acacff"/>
    <path d="M 974.491456 34.38 
L 974.491456 7.2 
L 976.518155 7.2 
L 976.518155 34.38 
L 974.491456 34.38 
z
" clip-path="url(#p14e5a5ba0e)" style="fill: #a8a8ff"/>
    <path d="M 976.518155 34.38 
L 976.518155 7.2 
L 978.544854 7.2 
L 978.544854 34.38 
L 976.518155 34.38 
z
" clip-path="url(#p14e5a5ba0e)" style="fill: #aeaeff"/>
   </g>
   <g id="patch_3">
    <path d="M 171.91875 34.38 
L 171.91875 7.2 
" style="fill: none; stroke: #262626; stroke-width: 1.25; stroke-linejoin: miter; stroke-linecap: square"/>
   </g>
   <g id="patch_4">
    <path d="M 978.544854 34.38 
L 978.544854 7.2 
" style="fill: none; stroke: #262626; stroke-width: 1.25; stroke-linejoin: miter; stroke-linecap: square"/>
   </g>
   <g id="patch_5">
    <path d="M 171.91875 34.38 
L 978.544854 34.38 
" style="fill: none; stroke: #262626; stroke-width: 1.25; stroke-linejoin: miter; stroke-linecap: square"/>
   </g>
   <g id="patch_6">
    <path d="M 171.91875 7.2 
L 978.544854 7.2 
" style="fill: none; stroke: #262626; stroke-width: 1.25; stroke-linejoin: miter; stroke-linecap: square"/>
   </g>
   <g id="text_6">
    <text style="fill: #262626; font: 18px 'sans-serif'; text-anchor: middle" x="321.894458" y="64.278" transform="rotate(-0, 321.894458, 64.278)">Cells</text>
   </g>
   <g id="text_7">
    <text style="fill: #262626; font: 18px 'sans-serif'; text-anchor: middle" x="642.112861" y="64.278" transform="rotate(-0, 642.112861, 64.278)">Cytoplasm</text>
   </g>
   <g id="text_8">
    <text style="fill: #262626; font: 18px 'sans-serif'; text-anchor: middle" x="895.450205" y="64.278" transform="rotate(-0, 895.450205, 64.278)">Nuclei</text>
   </g>
  </g>
 </g>
 <defs>
  <clipPath id="p14e5a5ba0e">
   <rect x="171.91875" y="7.2" width="806.626104" height="27.18"/>
  </clipPath>
 </defs>
</svg>
