<?xml version="1.0" encoding="utf-8" standalone="no"?>
<!DOCTYPE svg PUBLIC "-//W3C//DTD SVG 1.1//EN"
  "http://www.w3.org/Graphics/SVG/1.1/DTD/svg11.dtd">
<svg xmlns:xlink="http://www.w3.org/1999/xlink" width="766.911221pt" height="75.266437pt" viewBox="0 0 766.911221 75.266437" xmlns="http://www.w3.org/2000/svg" version="1.1">
 <metadata>
  <rdf:RDF xmlns:dc="http://purl.org/dc/elements/1.1/" xmlns:cc="http://creativecommons.org/ns#" xmlns:rdf="http://www.w3.org/1999/02/22-rdf-syntax-ns#">
   <cc:Work>
    <dc:type rdf:resource="http://purl.org/dc/dcmitype/StillImage"/>
    <dc:date>2022-05-11T11:53:57.590786</dc:date>
    <dc:format>image/svg+xml</dc:format>
    <dc:creator>
     <cc:Agent>
      <dc:title>Matplotlib v3.5.1, https://matplotlib.org/</dc:title>
     </cc:Agent>
    </dc:creator>
   </cc:Work>
  </rdf:RDF>
 </metadata>
 <defs>
  <style type="text/css">*{stroke-linejoin: round; stroke-linecap: butt}</style>
 </defs>
 <g id="figure_1">
  <g id="patch_1">
   <path d="M 0 75.266437 
L 766.911221 75.266437 
L 766.911221 0 
L 0 0 
z
" style="fill: #ffffff"/>
  </g>
  <g id="axes_1">
   <g id="patch_2">
    <path d="M 120.790625 34.38 
L 747.199112 34.38 
L 747.199112 7.2 
L 120.790625 7.2 
z
" style="fill: #ffffff"/>
   </g>
   <g id="matplotlib.axis_1">
    <g id="xtick_1">
     <g id="line2d_1"/>
     <g id="text_1">
      <!-- 1 -->
      <g style="fill: #262626" transform="translate(118.794951 54.216719)scale(0.15 -0.15)">
       <defs>
        <path id="ArialMT-31" d="M 2384 0 
L 1822 0 
L 1822 3584 
Q 1619 3391 1289 3197 
Q 959 3003 697 2906 
L 697 3450 
Q 1169 3672 1522 3987 
Q 1875 4303 2022 4600 
L 2384 4600 
L 2384 0 
z
" transform="scale(0.015625)"/>
       </defs>
       <use xlink:href="#ArialMT-31"/>
      </g>
     </g>
    </g>
    <g id="xtick_2">
     <g id="line2d_2"/>
     <g id="text_2">
      <!-- 119 -->
      <g style="fill: #262626" transform="translate(367.660147 54.216719)scale(0.15 -0.15)">
       <defs>
        <path id="ArialMT-39" d="M 350 1059 
L 891 1109 
Q 959 728 1153 556 
Q 1347 384 1650 384 
Q 1909 384 2104 503 
Q 2300 622 2425 820 
Q 2550 1019 2634 1356 
Q 2719 1694 2719 2044 
Q 2719 2081 2716 2156 
Q 2547 1888 2255 1720 
Q 1963 1553 1622 1553 
Q 1053 1553 659 1965 
Q 266 2378 266 3053 
Q 266 3750 677 4175 
Q 1088 4600 1706 4600 
Q 2153 4600 2523 4359 
Q 2894 4119 3086 3673 
Q 3278 3228 3278 2384 
Q 3278 1506 3087 986 
Q 2897 466 2520 194 
Q 2144 -78 1638 -78 
Q 1100 -78 759 220 
Q 419 519 350 1059 
z
M 2653 3081 
Q 2653 3566 2395 3850 
Q 2138 4134 1775 4134 
Q 1400 4134 1122 3828 
Q 844 3522 844 3034 
Q 844 2597 1108 2323 
Q 1372 2050 1759 2050 
Q 2150 2050 2401 2323 
Q 2653 2597 2653 3081 
z
" transform="scale(0.015625)"/>
       </defs>
       <use xlink:href="#ArialMT-31"/>
       <use xlink:href="#ArialMT-31" x="48.240234"/>
       <use xlink:href="#ArialMT-39" x="103.855469"/>
      </g>
     </g>
    </g>
    <g id="xtick_3">
     <g id="line2d_3"/>
     <g id="text_3">
      <!-- 245 -->
      <g style="fill: #262626" transform="translate(641.160736 54.216719)scale(0.15 -0.15)">
       <defs>
        <path id="ArialMT-32" d="M 3222 541 
L 3222 0 
L 194 0 
Q 188 203 259 391 
Q 375 700 629 1000 
Q 884 1300 1366 1694 
Q 2113 2306 2375 2664 
Q 2638 3022 2638 3341 
Q 2638 3675 2398 3904 
Q 2159 4134 1775 4134 
Q 1369 4134 1125 3890 
Q 881 3647 878 3216 
L 300 3275 
Q 359 3922 746 4261 
Q 1134 4600 1788 4600 
Q 2447 4600 2831 4234 
Q 3216 3869 3216 3328 
Q 3216 3053 3103 2787 
Q 2991 2522 2730 2228 
Q 2469 1934 1863 1422 
Q 1356 997 1212 845 
Q 1069 694 975 541 
L 3222 541 
z
" transform="scale(0.015625)"/>
        <path id="ArialMT-34" d="M 2069 0 
L 2069 1097 
L 81 1097 
L 81 1613 
L 2172 4581 
L 2631 4581 
L 2631 1613 
L 3250 1613 
L 3250 1097 
L 2631 1097 
L 2631 0 
L 2069 0 
z
M 2069 1613 
L 2069 3678 
L 634 1613 
L 2069 1613 
z
" transform="scale(0.015625)"/>
        <path id="ArialMT-35" d="M 266 1200 
L 856 1250 
Q 922 819 1161 601 
Q 1400 384 1738 384 
Q 2144 384 2425 690 
Q 2706 997 2706 1503 
Q 2706 1984 2436 2262 
Q 2166 2541 1728 2541 
Q 1456 2541 1237 2417 
Q 1019 2294 894 2097 
L 366 2166 
L 809 4519 
L 3088 4519 
L 3088 3981 
L 1259 3981 
L 1013 2750 
Q 1425 3038 1878 3038 
Q 2478 3038 2890 2622 
Q 3303 2206 3303 1553 
Q 3303 931 2941 478 
Q 2500 -78 1738 -78 
Q 1113 -78 717 272 
Q 322 622 266 1200 
z
" transform="scale(0.015625)"/>
       </defs>
       <use xlink:href="#ArialMT-32"/>
       <use xlink:href="#ArialMT-34" x="55.615234"/>
       <use xlink:href="#ArialMT-35" x="111.230469"/>
      </g>
     </g>
    </g>
    <g id="xtick_4">
     <g id="line2d_4"/>
     <g id="text_4">
      <!-- 288 -->
      <g style="fill: #262626" transform="translate(734.687003 54.216719)scale(0.15 -0.15)">
       <defs>
        <path id="ArialMT-38" d="M 1131 2484 
Q 781 2613 612 2850 
Q 444 3088 444 3419 
Q 444 3919 803 4259 
Q 1163 4600 1759 4600 
Q 2359 4600 2725 4251 
Q 3091 3903 3091 3403 
Q 3091 3084 2923 2848 
Q 2756 2613 2416 2484 
Q 2838 2347 3058 2040 
Q 3278 1734 3278 1309 
Q 3278 722 2862 322 
Q 2447 -78 1769 -78 
Q 1091 -78 675 323 
Q 259 725 259 1325 
Q 259 1772 486 2073 
Q 713 2375 1131 2484 
z
M 1019 3438 
Q 1019 3113 1228 2906 
Q 1438 2700 1772 2700 
Q 2097 2700 2305 2904 
Q 2513 3109 2513 3406 
Q 2513 3716 2298 3927 
Q 2084 4138 1766 4138 
Q 1444 4138 1231 3931 
Q 1019 3725 1019 3438 
z
M 838 1322 
Q 838 1081 952 856 
Q 1066 631 1291 507 
Q 1516 384 1775 384 
Q 2178 384 2440 643 
Q 2703 903 2703 1303 
Q 2703 1709 2433 1975 
Q 2163 2241 1756 2241 
Q 1359 2241 1098 1978 
Q 838 1716 838 1322 
z
" transform="scale(0.015625)"/>
       </defs>
       <use xlink:href="#ArialMT-32"/>
       <use xlink:href="#ArialMT-38" x="55.615234"/>
       <use xlink:href="#ArialMT-38" x="111.230469"/>
      </g>
     </g>
    </g>
   </g>
   <g id="matplotlib.axis_2">
    <g id="ytick_1">
     <g id="line2d_5"/>
     <g id="text_5">
      <!-- DNA_Synth -->
      <g style="fill: #262626" transform="translate(7.2 28.069687)scale(0.2 -0.2)">
       <defs>
        <path id="ArialMT-44" d="M 494 0 
L 494 4581 
L 2072 4581 
Q 2606 4581 2888 4516 
Q 3281 4425 3559 4188 
Q 3922 3881 4101 3404 
Q 4281 2928 4281 2316 
Q 4281 1794 4159 1391 
Q 4038 988 3847 723 
Q 3656 459 3429 307 
Q 3203 156 2883 78 
Q 2563 0 2147 0 
L 494 0 
z
M 1100 541 
L 2078 541 
Q 2531 541 2789 625 
Q 3047 709 3200 863 
Q 3416 1078 3536 1442 
Q 3656 1806 3656 2325 
Q 3656 3044 3420 3430 
Q 3184 3816 2847 3947 
Q 2603 4041 2063 4041 
L 1100 4041 
L 1100 541 
z
" transform="scale(0.015625)"/>
        <path id="ArialMT-4e" d="M 488 0 
L 488 4581 
L 1109 4581 
L 3516 984 
L 3516 4581 
L 4097 4581 
L 4097 0 
L 3475 0 
L 1069 3600 
L 1069 0 
L 488 0 
z
" transform="scale(0.015625)"/>
        <path id="ArialMT-41" d="M -9 0 
L 1750 4581 
L 2403 4581 
L 4278 0 
L 3588 0 
L 3053 1388 
L 1138 1388 
L 634 0 
L -9 0 
z
M 1313 1881 
L 2866 1881 
L 2388 3150 
Q 2169 3728 2063 4100 
Q 1975 3659 1816 3225 
L 1313 1881 
z
" transform="scale(0.015625)"/>
        <path id="ArialMT-5f" d="M -97 -1272 
L -97 -866 
L 3631 -866 
L 3631 -1272 
L -97 -1272 
z
" transform="scale(0.015625)"/>
        <path id="ArialMT-53" d="M 288 1472 
L 859 1522 
Q 900 1178 1048 958 
Q 1197 738 1509 602 
Q 1822 466 2213 466 
Q 2559 466 2825 569 
Q 3091 672 3220 851 
Q 3350 1031 3350 1244 
Q 3350 1459 3225 1620 
Q 3100 1781 2813 1891 
Q 2628 1963 1997 2114 
Q 1366 2266 1113 2400 
Q 784 2572 623 2826 
Q 463 3081 463 3397 
Q 463 3744 659 4045 
Q 856 4347 1234 4503 
Q 1613 4659 2075 4659 
Q 2584 4659 2973 4495 
Q 3363 4331 3572 4012 
Q 3781 3694 3797 3291 
L 3216 3247 
Q 3169 3681 2898 3903 
Q 2628 4125 2100 4125 
Q 1550 4125 1298 3923 
Q 1047 3722 1047 3438 
Q 1047 3191 1225 3031 
Q 1400 2872 2139 2705 
Q 2878 2538 3153 2413 
Q 3553 2228 3743 1945 
Q 3934 1663 3934 1294 
Q 3934 928 3725 604 
Q 3516 281 3123 101 
Q 2731 -78 2241 -78 
Q 1619 -78 1198 103 
Q 778 284 539 648 
Q 300 1013 288 1472 
z
" transform="scale(0.015625)"/>
        <path id="ArialMT-79" d="M 397 -1278 
L 334 -750 
Q 519 -800 656 -800 
Q 844 -800 956 -737 
Q 1069 -675 1141 -563 
Q 1194 -478 1313 -144 
Q 1328 -97 1363 -6 
L 103 3319 
L 709 3319 
L 1400 1397 
Q 1534 1031 1641 628 
Q 1738 1016 1872 1384 
L 2581 3319 
L 3144 3319 
L 1881 -56 
Q 1678 -603 1566 -809 
Q 1416 -1088 1222 -1217 
Q 1028 -1347 759 -1347 
Q 597 -1347 397 -1278 
z
" transform="scale(0.015625)"/>
        <path id="ArialMT-6e" d="M 422 0 
L 422 3319 
L 928 3319 
L 928 2847 
Q 1294 3394 1984 3394 
Q 2284 3394 2536 3286 
Q 2788 3178 2913 3003 
Q 3038 2828 3088 2588 
Q 3119 2431 3119 2041 
L 3119 0 
L 2556 0 
L 2556 2019 
Q 2556 2363 2490 2533 
Q 2425 2703 2258 2804 
Q 2091 2906 1866 2906 
Q 1506 2906 1245 2678 
Q 984 2450 984 1813 
L 984 0 
L 422 0 
z
" transform="scale(0.015625)"/>
        <path id="ArialMT-74" d="M 1650 503 
L 1731 6 
Q 1494 -44 1306 -44 
Q 1000 -44 831 53 
Q 663 150 594 308 
Q 525 466 525 972 
L 525 2881 
L 113 2881 
L 113 3319 
L 525 3319 
L 525 4141 
L 1084 4478 
L 1084 3319 
L 1650 3319 
L 1650 2881 
L 1084 2881 
L 1084 941 
Q 1084 700 1114 631 
Q 1144 563 1211 522 
Q 1278 481 1403 481 
Q 1497 481 1650 503 
z
" transform="scale(0.015625)"/>
        <path id="ArialMT-68" d="M 422 0 
L 422 4581 
L 984 4581 
L 984 2938 
Q 1378 3394 1978 3394 
Q 2347 3394 2619 3248 
Q 2891 3103 3008 2847 
Q 3125 2591 3125 2103 
L 3125 0 
L 2563 0 
L 2563 2103 
Q 2563 2525 2380 2717 
Q 2197 2909 1863 2909 
Q 1613 2909 1392 2779 
Q 1172 2650 1078 2428 
Q 984 2206 984 1816 
L 984 0 
L 422 0 
z
" transform="scale(0.015625)"/>
       </defs>
       <use xlink:href="#ArialMT-44"/>
       <use xlink:href="#ArialMT-4e" x="72.216797"/>
       <use xlink:href="#ArialMT-41" x="144.433594"/>
       <use xlink:href="#ArialMT-5f" x="211.132812"/>
       <use xlink:href="#ArialMT-53" x="266.748047"/>
       <use xlink:href="#ArialMT-79" x="333.447266"/>
       <use xlink:href="#ArialMT-6e" x="383.447266"/>
       <use xlink:href="#ArialMT-74" x="439.0625"/>
       <use xlink:href="#ArialMT-68" x="466.845703"/>
      </g>
     </g>
    </g>
   </g>
   <g id="PolyCollection_1">
    <path d="M 120.790625 34.38 
L 120.790625 7.2 
L 122.965654 7.2 
L 122.965654 34.38 
L 120.790625 34.38 
z
" clip-path="url(#p4754cabc98)" style="fill: #ff0000"/>
    <path d="M 122.965654 34.38 
L 122.965654 7.2 
L 125.140684 7.2 
L 125.140684 34.38 
L 122.965654 34.38 
z
" clip-path="url(#p4754cabc98)" style="fill: #ff0000"/>
    <path d="M 125.140684 34.38 
L 125.140684 7.2 
L 127.315713 7.2 
L 127.315713 34.38 
L 125.140684 34.38 
z
" clip-path="url(#p4754cabc98)" style="fill: #ff1a1a"/>
    <path d="M 127.315713 34.38 
L 127.315713 7.2 
L 129.490743 7.2 
L 129.490743 34.38 
L 127.315713 34.38 
z
" clip-path="url(#p4754cabc98)" style="fill: #ff0000"/>
    <path d="M 129.490743 34.38 
L 129.490743 7.2 
L 131.665772 7.2 
L 131.665772 34.38 
L 129.490743 34.38 
z
" clip-path="url(#p4754cabc98)" style="fill: #ff0000"/>
    <path d="M 131.665772 34.38 
L 131.665772 7.2 
L 133.840802 7.2 
L 133.840802 34.38 
L 131.665772 34.38 
z
" clip-path="url(#p4754cabc98)" style="fill: #ff0000"/>
    <path d="M 133.840802 34.38 
L 133.840802 7.2 
L 136.015831 7.2 
L 136.015831 34.38 
L 133.840802 34.38 
z
" clip-path="url(#p4754cabc98)" style="fill: #ffe8e8"/>
    <path d="M 136.015831 34.38 
L 136.015831 7.2 
L 138.190861 7.2 
L 138.190861 34.38 
L 136.015831 34.38 
z
" clip-path="url(#p4754cabc98)" style="fill: #e6e6ff"/>
    <path d="M 138.190861 34.38 
L 138.190861 7.2 
L 140.36589 7.2 
L 140.36589 34.38 
L 138.190861 34.38 
z
" clip-path="url(#p4754cabc98)" style="fill: #f2f2ff"/>
    <path d="M 140.36589 34.38 
L 140.36589 7.2 
L 142.54092 7.2 
L 142.54092 34.38 
L 140.36589 34.38 
z
" clip-path="url(#p4754cabc98)" style="fill: #ff7e7e"/>
    <path d="M 142.54092 34.38 
L 142.54092 7.2 
L 144.715949 7.2 
L 144.715949 34.38 
L 142.54092 34.38 
z
" clip-path="url(#p4754cabc98)" style="fill: #aeaeff"/>
    <path d="M 144.715949 34.38 
L 144.715949 7.2 
L 146.890979 7.2 
L 146.890979 34.38 
L 144.715949 34.38 
z
" clip-path="url(#p4754cabc98)" style="fill: #f0f0ff"/>
    <path d="M 146.890979 34.38 
L 146.890979 7.2 
L 149.066008 7.2 
L 149.066008 34.38 
L 146.890979 34.38 
z
" clip-path="url(#p4754cabc98)" style="fill: #ffeeee"/>
    <path d="M 149.066008 34.38 
L 149.066008 7.2 
L 151.241038 7.2 
L 151.241038 34.38 
L 149.066008 34.38 
z
" clip-path="url(#p4754cabc98)" style="fill: #8e8eff"/>
    <path d="M 151.241038 34.38 
L 151.241038 7.2 
L 153.416067 7.2 
L 153.416067 34.38 
L 151.241038 34.38 
z
" clip-path="url(#p4754cabc98)" style="fill: #fff0f0"/>
    <path d="M 153.416067 34.38 
L 153.416067 7.2 
L 155.591097 7.2 
L 155.591097 34.38 
L 153.416067 34.38 
z
" clip-path="url(#p4754cabc98)" style="fill: #7878ff"/>
    <path d="M 155.591097 34.38 
L 155.591097 7.2 
L 157.766126 7.2 
L 157.766126 34.38 
L 155.591097 34.38 
z
" clip-path="url(#p4754cabc98)" style="fill: #8484ff"/>
    <path d="M 157.766126 34.38 
L 157.766126 7.2 
L 159.941155 7.2 
L 159.941155 34.38 
L 157.766126 34.38 
z
" clip-path="url(#p4754cabc98)" style="fill: #b2b2ff"/>
    <path d="M 159.941155 34.38 
L 159.941155 7.2 
L 162.116185 7.2 
L 162.116185 34.38 
L 159.941155 34.38 
z
" clip-path="url(#p4754cabc98)" style="fill: #aaaaff"/>
    <path d="M 162.116185 34.38 
L 162.116185 7.2 
L 164.291214 7.2 
L 164.291214 34.38 
L 162.116185 34.38 
z
" clip-path="url(#p4754cabc98)" style="fill: #ff9e9e"/>
    <path d="M 164.291214 34.38 
L 164.291214 7.2 
L 166.466244 7.2 
L 166.466244 34.38 
L 164.291214 34.38 
z
" clip-path="url(#p4754cabc98)" style="fill: #b6b6ff"/>
    <path d="M 166.466244 34.38 
L 166.466244 7.2 
L 168.641273 7.2 
L 168.641273 34.38 
L 166.466244 34.38 
z
" clip-path="url(#p4754cabc98)" style="fill: #bebeff"/>
    <path d="M 168.641273 34.38 
L 168.641273 7.2 
L 170.816303 7.2 
L 170.816303 34.38 
L 168.641273 34.38 
z
" clip-path="url(#p4754cabc98)" style="fill: #fff2f2"/>
    <path d="M 170.816303 34.38 
L 170.816303 7.2 
L 172.991332 7.2 
L 172.991332 34.38 
L 170.816303 34.38 
z
" clip-path="url(#p4754cabc98)" style="fill: #ffeeee"/>
    <path d="M 172.991332 34.38 
L 172.991332 7.2 
L 175.166362 7.2 
L 175.166362 34.38 
L 172.991332 34.38 
z
" clip-path="url(#p4754cabc98)" style="fill: #ffe6e6"/>
    <path d="M 175.166362 34.38 
L 175.166362 7.2 
L 177.341391 7.2 
L 177.341391 34.38 
L 175.166362 34.38 
z
" clip-path="url(#p4754cabc98)" style="fill: #d2d2ff"/>
    <path d="M 177.341391 34.38 
L 177.341391 7.2 
L 179.516421 7.2 
L 179.516421 34.38 
L 177.341391 34.38 
z
" clip-path="url(#p4754cabc98)" style="fill: #dcdcff"/>
    <path d="M 179.516421 34.38 
L 179.516421 7.2 
L 181.69145 7.2 
L 181.69145 34.38 
L 179.516421 34.38 
z
" clip-path="url(#p4754cabc98)" style="fill: #ffbcbc"/>
    <path d="M 181.69145 34.38 
L 181.69145 7.2 
L 183.86648 7.2 
L 183.86648 34.38 
L 181.69145 34.38 
z
" clip-path="url(#p4754cabc98)" style="fill: #ff9090"/>
    <path d="M 183.86648 34.38 
L 183.86648 7.2 
L 186.041509 7.2 
L 186.041509 34.38 
L 183.86648 34.38 
z
" clip-path="url(#p4754cabc98)" style="fill: #f2f2ff"/>
    <path d="M 186.041509 34.38 
L 186.041509 7.2 
L 188.216539 7.2 
L 188.216539 34.38 
L 186.041509 34.38 
z
" clip-path="url(#p4754cabc98)" style="fill: #cacaff"/>
    <path d="M 188.216539 34.38 
L 188.216539 7.2 
L 190.391568 7.2 
L 190.391568 34.38 
L 188.216539 34.38 
z
" clip-path="url(#p4754cabc98)" style="fill: #e6e6ff"/>
    <path d="M 190.391568 34.38 
L 190.391568 7.2 
L 192.566597 7.2 
L 192.566597 34.38 
L 190.391568 34.38 
z
" clip-path="url(#p4754cabc98)" style="fill: #d0d0ff"/>
    <path d="M 192.566597 34.38 
L 192.566597 7.2 
L 194.741627 7.2 
L 194.741627 34.38 
L 192.566597 34.38 
z
" clip-path="url(#p4754cabc98)" style="fill: #2222ff"/>
    <path d="M 194.741627 34.38 
L 194.741627 7.2 
L 196.916656 7.2 
L 196.916656 34.38 
L 194.741627 34.38 
z
" clip-path="url(#p4754cabc98)" style="fill: #ffe4e4"/>
    <path d="M 196.916656 34.38 
L 196.916656 7.2 
L 199.091686 7.2 
L 199.091686 34.38 
L 196.916656 34.38 
z
" clip-path="url(#p4754cabc98)" style="fill: #d2d2ff"/>
    <path d="M 199.091686 34.38 
L 199.091686 7.2 
L 201.266715 7.2 
L 201.266715 34.38 
L 199.091686 34.38 
z
" clip-path="url(#p4754cabc98)" style="fill: #0000ff"/>
    <path d="M 201.266715 34.38 
L 201.266715 7.2 
L 203.441745 7.2 
L 203.441745 34.38 
L 201.266715 34.38 
z
" clip-path="url(#p4754cabc98)" style="fill: #f6f6ff"/>
    <path d="M 203.441745 34.38 
L 203.441745 7.2 
L 205.616774 7.2 
L 205.616774 34.38 
L 203.441745 34.38 
z
" clip-path="url(#p4754cabc98)" style="fill: #dedeff"/>
    <path d="M 205.616774 34.38 
L 205.616774 7.2 
L 207.791804 7.2 
L 207.791804 34.38 
L 205.616774 34.38 
z
" clip-path="url(#p4754cabc98)" style="fill: #e0e0ff"/>
    <path d="M 207.791804 34.38 
L 207.791804 7.2 
L 209.966833 7.2 
L 209.966833 34.38 
L 207.791804 34.38 
z
" clip-path="url(#p4754cabc98)" style="fill: #f0f0ff"/>
    <path d="M 209.966833 34.38 
L 209.966833 7.2 
L 212.141863 7.2 
L 212.141863 34.38 
L 209.966833 34.38 
z
" clip-path="url(#p4754cabc98)" style="fill: #d4d4ff"/>
    <path d="M 212.141863 34.38 
L 212.141863 7.2 
L 214.316892 7.2 
L 214.316892 34.38 
L 212.141863 34.38 
z
" clip-path="url(#p4754cabc98)" style="fill: #acacff"/>
    <path d="M 214.316892 34.38 
L 214.316892 7.2 
L 216.491922 7.2 
L 216.491922 34.38 
L 214.316892 34.38 
z
" clip-path="url(#p4754cabc98)" style="fill: #dedeff"/>
    <path d="M 216.491922 34.38 
L 216.491922 7.2 
L 218.666951 7.2 
L 218.666951 34.38 
L 216.491922 34.38 
z
" clip-path="url(#p4754cabc98)" style="fill: #ccccff"/>
    <path d="M 218.666951 34.38 
L 218.666951 7.2 
L 220.841981 7.2 
L 220.841981 34.38 
L 218.666951 34.38 
z
" clip-path="url(#p4754cabc98)" style="fill: #0000ff"/>
    <path d="M 220.841981 34.38 
L 220.841981 7.2 
L 223.01701 7.2 
L 223.01701 34.38 
L 220.841981 34.38 
z
" clip-path="url(#p4754cabc98)" style="fill: #fff2f2"/>
    <path d="M 223.01701 34.38 
L 223.01701 7.2 
L 225.19204 7.2 
L 225.19204 34.38 
L 223.01701 34.38 
z
" clip-path="url(#p4754cabc98)" style="fill: #7e7eff"/>
    <path d="M 225.19204 34.38 
L 225.19204 7.2 
L 227.367069 7.2 
L 227.367069 34.38 
L 225.19204 34.38 
z
" clip-path="url(#p4754cabc98)" style="fill: #e2e2ff"/>
    <path d="M 227.367069 34.38 
L 227.367069 7.2 
L 229.542098 7.2 
L 229.542098 34.38 
L 227.367069 34.38 
z
" clip-path="url(#p4754cabc98)" style="fill: #ffdede"/>
    <path d="M 229.542098 34.38 
L 229.542098 7.2 
L 231.717128 7.2 
L 231.717128 34.38 
L 229.542098 34.38 
z
" clip-path="url(#p4754cabc98)" style="fill: #ffd8d8"/>
    <path d="M 231.717128 34.38 
L 231.717128 7.2 
L 233.892157 7.2 
L 233.892157 34.38 
L 231.717128 34.38 
z
" clip-path="url(#p4754cabc98)" style="fill: #ffe0e0"/>
    <path d="M 233.892157 34.38 
L 233.892157 7.2 
L 236.067187 7.2 
L 236.067187 34.38 
L 233.892157 34.38 
z
" clip-path="url(#p4754cabc98)" style="fill: #e4e4ff"/>
    <path d="M 236.067187 34.38 
L 236.067187 7.2 
L 238.242216 7.2 
L 238.242216 34.38 
L 236.067187 34.38 
z
" clip-path="url(#p4754cabc98)" style="fill: #ffe8e8"/>
    <path d="M 238.242216 34.38 
L 238.242216 7.2 
L 240.417246 7.2 
L 240.417246 34.38 
L 238.242216 34.38 
z
" clip-path="url(#p4754cabc98)" style="fill: #ffdede"/>
    <path d="M 240.417246 34.38 
L 240.417246 7.2 
L 242.592275 7.2 
L 242.592275 34.38 
L 240.417246 34.38 
z
" clip-path="url(#p4754cabc98)" style="fill: #ffd2d2"/>
    <path d="M 242.592275 34.38 
L 242.592275 7.2 
L 244.767305 7.2 
L 244.767305 34.38 
L 242.592275 34.38 
z
" clip-path="url(#p4754cabc98)" style="fill: #ffd6d6"/>
    <path d="M 244.767305 34.38 
L 244.767305 7.2 
L 246.942334 7.2 
L 246.942334 34.38 
L 244.767305 34.38 
z
" clip-path="url(#p4754cabc98)" style="fill: #ffeaea"/>
    <path d="M 246.942334 34.38 
L 246.942334 7.2 
L 249.117364 7.2 
L 249.117364 34.38 
L 246.942334 34.38 
z
" clip-path="url(#p4754cabc98)" style="fill: #ffdcdc"/>
    <path d="M 249.117364 34.38 
L 249.117364 7.2 
L 251.292393 7.2 
L 251.292393 34.38 
L 249.117364 34.38 
z
" clip-path="url(#p4754cabc98)" style="fill: #ffdede"/>
    <path d="M 251.292393 34.38 
L 251.292393 7.2 
L 253.467423 7.2 
L 253.467423 34.38 
L 251.292393 34.38 
z
" clip-path="url(#p4754cabc98)" style="fill: #dedeff"/>
    <path d="M 253.467423 34.38 
L 253.467423 7.2 
L 255.642452 7.2 
L 255.642452 34.38 
L 253.467423 34.38 
z
" clip-path="url(#p4754cabc98)" style="fill: #e2e2ff"/>
    <path d="M 255.642452 34.38 
L 255.642452 7.2 
L 257.817482 7.2 
L 257.817482 34.38 
L 255.642452 34.38 
z
" clip-path="url(#p4754cabc98)" style="fill: #1414ff"/>
    <path d="M 257.817482 34.38 
L 257.817482 7.2 
L 259.992511 7.2 
L 259.992511 34.38 
L 257.817482 34.38 
z
" clip-path="url(#p4754cabc98)" style="fill: #2626ff"/>
    <path d="M 259.992511 34.38 
L 259.992511 7.2 
L 262.16754 7.2 
L 262.16754 34.38 
L 259.992511 34.38 
z
" clip-path="url(#p4754cabc98)" style="fill: #2c2cff"/>
    <path d="M 262.16754 34.38 
L 262.16754 7.2 
L 264.34257 7.2 
L 264.34257 34.38 
L 262.16754 34.38 
z
" clip-path="url(#p4754cabc98)" style="fill: #dedeff"/>
    <path d="M 264.34257 34.38 
L 264.34257 7.2 
L 266.517599 7.2 
L 266.517599 34.38 
L 264.34257 34.38 
z
" clip-path="url(#p4754cabc98)" style="fill: #dcdcff"/>
    <path d="M 266.517599 34.38 
L 266.517599 7.2 
L 268.692629 7.2 
L 268.692629 34.38 
L 266.517599 34.38 
z
" clip-path="url(#p4754cabc98)" style="fill: #dedeff"/>
    <path d="M 268.692629 34.38 
L 268.692629 7.2 
L 270.867658 7.2 
L 270.867658 34.38 
L 268.692629 34.38 
z
" clip-path="url(#p4754cabc98)" style="fill: #ffb6b6"/>
    <path d="M 270.867658 34.38 
L 270.867658 7.2 
L 273.042688 7.2 
L 273.042688 34.38 
L 270.867658 34.38 
z
" clip-path="url(#p4754cabc98)" style="fill: #ffe4e4"/>
    <path d="M 273.042688 34.38 
L 273.042688 7.2 
L 275.217717 7.2 
L 275.217717 34.38 
L 273.042688 34.38 
z
" clip-path="url(#p4754cabc98)" style="fill: #ffd0d0"/>
    <path d="M 275.217717 34.38 
L 275.217717 7.2 
L 277.392747 7.2 
L 277.392747 34.38 
L 275.217717 34.38 
z
" clip-path="url(#p4754cabc98)" style="fill: #ffd8d8"/>
    <path d="M 277.392747 34.38 
L 277.392747 7.2 
L 279.567776 7.2 
L 279.567776 34.38 
L 277.392747 34.38 
z
" clip-path="url(#p4754cabc98)" style="fill: #ffd6d6"/>
    <path d="M 279.567776 34.38 
L 279.567776 7.2 
L 281.742806 7.2 
L 281.742806 34.38 
L 279.567776 34.38 
z
" clip-path="url(#p4754cabc98)" style="fill: #ffe6e6"/>
    <path d="M 281.742806 34.38 
L 281.742806 7.2 
L 283.917835 7.2 
L 283.917835 34.38 
L 281.742806 34.38 
z
" clip-path="url(#p4754cabc98)" style="fill: #ffdede"/>
    <path d="M 283.917835 34.38 
L 283.917835 7.2 
L 286.092865 7.2 
L 286.092865 34.38 
L 283.917835 34.38 
z
" clip-path="url(#p4754cabc98)" style="fill: #ffb8b8"/>
    <path d="M 286.092865 34.38 
L 286.092865 7.2 
L 288.267894 7.2 
L 288.267894 34.38 
L 286.092865 34.38 
z
" clip-path="url(#p4754cabc98)" style="fill: #ffc4c4"/>
    <path d="M 288.267894 34.38 
L 288.267894 7.2 
L 290.442924 7.2 
L 290.442924 34.38 
L 288.267894 34.38 
z
" clip-path="url(#p4754cabc98)" style="fill: #2424ff"/>
    <path d="M 290.442924 34.38 
L 290.442924 7.2 
L 292.617953 7.2 
L 292.617953 34.38 
L 290.442924 34.38 
z
" clip-path="url(#p4754cabc98)" style="fill: #e0e0ff"/>
    <path d="M 292.617953 34.38 
L 292.617953 7.2 
L 294.792983 7.2 
L 294.792983 34.38 
L 292.617953 34.38 
z
" clip-path="url(#p4754cabc98)" style="fill: #dadaff"/>
    <path d="M 294.792983 34.38 
L 294.792983 7.2 
L 296.968012 7.2 
L 296.968012 34.38 
L 294.792983 34.38 
z
" clip-path="url(#p4754cabc98)" style="fill: #dcdcff"/>
    <path d="M 296.968012 34.38 
L 296.968012 7.2 
L 299.143041 7.2 
L 299.143041 34.38 
L 296.968012 34.38 
z
" clip-path="url(#p4754cabc98)" style="fill: #ffecec"/>
    <path d="M 299.143041 34.38 
L 299.143041 7.2 
L 301.318071 7.2 
L 301.318071 34.38 
L 299.143041 34.38 
z
" clip-path="url(#p4754cabc98)" style="fill: #ffdcdc"/>
    <path d="M 301.318071 34.38 
L 301.318071 7.2 
L 303.4931 7.2 
L 303.4931 34.38 
L 301.318071 34.38 
z
" clip-path="url(#p4754cabc98)" style="fill: #ffdcdc"/>
    <path d="M 303.4931 34.38 
L 303.4931 7.2 
L 305.66813 7.2 
L 305.66813 34.38 
L 303.4931 34.38 
z
" clip-path="url(#p4754cabc98)" style="fill: #eeeeff"/>
    <path d="M 305.66813 34.38 
L 305.66813 7.2 
L 307.843159 7.2 
L 307.843159 34.38 
L 305.66813 34.38 
z
" clip-path="url(#p4754cabc98)" style="fill: #e4e4ff"/>
    <path d="M 307.843159 34.38 
L 307.843159 7.2 
L 310.018189 7.2 
L 310.018189 34.38 
L 307.843159 34.38 
z
" clip-path="url(#p4754cabc98)" style="fill: #e4e4ff"/>
    <path d="M 310.018189 34.38 
L 310.018189 7.2 
L 312.193218 7.2 
L 312.193218 34.38 
L 310.018189 34.38 
z
" clip-path="url(#p4754cabc98)" style="fill: #ffe6e6"/>
    <path d="M 312.193218 34.38 
L 312.193218 7.2 
L 314.368248 7.2 
L 314.368248 34.38 
L 312.193218 34.38 
z
" clip-path="url(#p4754cabc98)" style="fill: #ffeeee"/>
    <path d="M 314.368248 34.38 
L 314.368248 7.2 
L 316.543277 7.2 
L 316.543277 34.38 
L 314.368248 34.38 
z
" clip-path="url(#p4754cabc98)" style="fill: #ffe8e8"/>
    <path d="M 316.543277 34.38 
L 316.543277 7.2 
L 318.718307 7.2 
L 318.718307 34.38 
L 316.543277 34.38 
z
" clip-path="url(#p4754cabc98)" style="fill: #ffd4d4"/>
    <path d="M 318.718307 34.38 
L 318.718307 7.2 
L 320.893336 7.2 
L 320.893336 34.38 
L 318.718307 34.38 
z
" clip-path="url(#p4754cabc98)" style="fill: #ffd6d6"/>
    <path d="M 320.893336 34.38 
L 320.893336 7.2 
L 323.068366 7.2 
L 323.068366 34.38 
L 320.893336 34.38 
z
" clip-path="url(#p4754cabc98)" style="fill: #ffcece"/>
    <path d="M 323.068366 34.38 
L 323.068366 7.2 
L 325.243395 7.2 
L 325.243395 34.38 
L 323.068366 34.38 
z
" clip-path="url(#p4754cabc98)" style="fill: #fff4f4"/>
    <path d="M 325.243395 34.38 
L 325.243395 7.2 
L 327.418425 7.2 
L 327.418425 34.38 
L 325.243395 34.38 
z
" clip-path="url(#p4754cabc98)" style="fill: #ffcece"/>
    <path d="M 327.418425 34.38 
L 327.418425 7.2 
L 329.593454 7.2 
L 329.593454 34.38 
L 327.418425 34.38 
z
" clip-path="url(#p4754cabc98)" style="fill: #ffcece"/>
    <path d="M 329.593454 34.38 
L 329.593454 7.2 
L 331.768483 7.2 
L 331.768483 34.38 
L 329.593454 34.38 
z
" clip-path="url(#p4754cabc98)" style="fill: #ffd4d4"/>
    <path d="M 331.768483 34.38 
L 331.768483 7.2 
L 333.943513 7.2 
L 333.943513 34.38 
L 331.768483 34.38 
z
" clip-path="url(#p4754cabc98)" style="fill: #ffcccc"/>
    <path d="M 333.943513 34.38 
L 333.943513 7.2 
L 336.118542 7.2 
L 336.118542 34.38 
L 333.943513 34.38 
z
" clip-path="url(#p4754cabc98)" style="fill: #ffd6d6"/>
    <path d="M 336.118542 34.38 
L 336.118542 7.2 
L 338.293572 7.2 
L 338.293572 34.38 
L 336.118542 34.38 
z
" clip-path="url(#p4754cabc98)" style="fill: #ffcece"/>
    <path d="M 338.293572 34.38 
L 338.293572 7.2 
L 340.468601 7.2 
L 340.468601 34.38 
L 338.293572 34.38 
z
" clip-path="url(#p4754cabc98)" style="fill: #0000ff"/>
    <path d="M 340.468601 34.38 
L 340.468601 7.2 
L 342.643631 7.2 
L 342.643631 34.38 
L 340.468601 34.38 
z
" clip-path="url(#p4754cabc98)" style="fill: #0000ff"/>
    <path d="M 342.643631 34.38 
L 342.643631 7.2 
L 344.81866 7.2 
L 344.81866 34.38 
L 342.643631 34.38 
z
" clip-path="url(#p4754cabc98)" style="fill: #0000ff"/>
    <path d="M 344.81866 34.38 
L 344.81866 7.2 
L 346.99369 7.2 
L 346.99369 34.38 
L 344.81866 34.38 
z
" clip-path="url(#p4754cabc98)" style="fill: #f6f6ff"/>
    <path d="M 346.99369 34.38 
L 346.99369 7.2 
L 349.168719 7.2 
L 349.168719 34.38 
L 346.99369 34.38 
z
" clip-path="url(#p4754cabc98)" style="fill: #f6f6ff"/>
    <path d="M 349.168719 34.38 
L 349.168719 7.2 
L 351.343749 7.2 
L 351.343749 34.38 
L 349.168719 34.38 
z
" clip-path="url(#p4754cabc98)" style="fill: #f6f6ff"/>
    <path d="M 351.343749 34.38 
L 351.343749 7.2 
L 353.518778 7.2 
L 353.518778 34.38 
L 351.343749 34.38 
z
" clip-path="url(#p4754cabc98)" style="fill: #dcdcff"/>
    <path d="M 353.518778 34.38 
L 353.518778 7.2 
L 355.693808 7.2 
L 355.693808 34.38 
L 353.518778 34.38 
z
" clip-path="url(#p4754cabc98)" style="fill: #dcdcff"/>
    <path d="M 355.693808 34.38 
L 355.693808 7.2 
L 357.868837 7.2 
L 357.868837 34.38 
L 355.693808 34.38 
z
" clip-path="url(#p4754cabc98)" style="fill: #dcdcff"/>
    <path d="M 357.868837 34.38 
L 357.868837 7.2 
L 360.043867 7.2 
L 360.043867 34.38 
L 357.868837 34.38 
z
" clip-path="url(#p4754cabc98)" style="fill: #ececff"/>
    <path d="M 360.043867 34.38 
L 360.043867 7.2 
L 362.218896 7.2 
L 362.218896 34.38 
L 360.043867 34.38 
z
" clip-path="url(#p4754cabc98)" style="fill: #2222ff"/>
    <path d="M 362.218896 34.38 
L 362.218896 7.2 
L 364.393926 7.2 
L 364.393926 34.38 
L 362.218896 34.38 
z
" clip-path="url(#p4754cabc98)" style="fill: #0e0eff"/>
    <path d="M 364.393926 34.38 
L 364.393926 7.2 
L 366.568955 7.2 
L 366.568955 34.38 
L 364.393926 34.38 
z
" clip-path="url(#p4754cabc98)" style="fill: #1010ff"/>
    <path d="M 366.568955 34.38 
L 366.568955 7.2 
L 368.743984 7.2 
L 368.743984 34.38 
L 366.568955 34.38 
z
" clip-path="url(#p4754cabc98)" style="fill: #ffeeee"/>
    <path d="M 368.743984 34.38 
L 368.743984 7.2 
L 370.919014 7.2 
L 370.919014 34.38 
L 368.743984 34.38 
z
" clip-path="url(#p4754cabc98)" style="fill: #fff0f0"/>
    <path d="M 370.919014 34.38 
L 370.919014 7.2 
L 373.094043 7.2 
L 373.094043 34.38 
L 370.919014 34.38 
z
" clip-path="url(#p4754cabc98)" style="fill: #0e0eff"/>
    <path d="M 373.094043 34.38 
L 373.094043 7.2 
L 375.269073 7.2 
L 375.269073 34.38 
L 373.094043 34.38 
z
" clip-path="url(#p4754cabc98)" style="fill: #1a1aff"/>
    <path d="M 375.269073 34.38 
L 375.269073 7.2 
L 377.444102 7.2 
L 377.444102 34.38 
L 375.269073 34.38 
z
" clip-path="url(#p4754cabc98)" style="fill: #1818ff"/>
    <path d="M 377.444102 34.38 
L 377.444102 7.2 
L 379.619132 7.2 
L 379.619132 34.38 
L 377.444102 34.38 
z
" clip-path="url(#p4754cabc98)" style="fill: #ff0000"/>
    <path d="M 379.619132 34.38 
L 379.619132 7.2 
L 381.794161 7.2 
L 381.794161 34.38 
L 379.619132 34.38 
z
" clip-path="url(#p4754cabc98)" style="fill: #ff0000"/>
    <path d="M 381.794161 34.38 
L 381.794161 7.2 
L 383.969191 7.2 
L 383.969191 34.38 
L 381.794161 34.38 
z
" clip-path="url(#p4754cabc98)" style="fill: #ff0000"/>
    <path d="M 383.969191 34.38 
L 383.969191 7.2 
L 386.14422 7.2 
L 386.14422 34.38 
L 383.969191 34.38 
z
" clip-path="url(#p4754cabc98)" style="fill: #ff0000"/>
    <path d="M 386.14422 34.38 
L 386.14422 7.2 
L 388.31925 7.2 
L 388.31925 34.38 
L 386.14422 34.38 
z
" clip-path="url(#p4754cabc98)" style="fill: #ffe4e4"/>
    <path d="M 388.31925 34.38 
L 388.31925 7.2 
L 390.494279 7.2 
L 390.494279 34.38 
L 388.31925 34.38 
z
" clip-path="url(#p4754cabc98)" style="fill: #dcdcff"/>
    <path d="M 390.494279 34.38 
L 390.494279 7.2 
L 392.669309 7.2 
L 392.669309 34.38 
L 390.494279 34.38 
z
" clip-path="url(#p4754cabc98)" style="fill: #ff5858"/>
    <path d="M 392.669309 34.38 
L 392.669309 7.2 
L 394.844338 7.2 
L 394.844338 34.38 
L 392.669309 34.38 
z
" clip-path="url(#p4754cabc98)" style="fill: #ff9696"/>
    <path d="M 394.844338 34.38 
L 394.844338 7.2 
L 397.019368 7.2 
L 397.019368 34.38 
L 394.844338 34.38 
z
" clip-path="url(#p4754cabc98)" style="fill: #ff3e3e"/>
    <path d="M 397.019368 34.38 
L 397.019368 7.2 
L 399.194397 7.2 
L 399.194397 34.38 
L 397.019368 34.38 
z
" clip-path="url(#p4754cabc98)" style="fill: #ffa2a2"/>
    <path d="M 399.194397 34.38 
L 399.194397 7.2 
L 401.369426 7.2 
L 401.369426 34.38 
L 399.194397 34.38 
z
" clip-path="url(#p4754cabc98)" style="fill: #c4c4ff"/>
    <path d="M 401.369426 34.38 
L 401.369426 7.2 
L 403.544456 7.2 
L 403.544456 34.38 
L 401.369426 34.38 
z
" clip-path="url(#p4754cabc98)" style="fill: #f0f0ff"/>
    <path d="M 403.544456 34.38 
L 403.544456 7.2 
L 405.719485 7.2 
L 405.719485 34.38 
L 403.544456 34.38 
z
" clip-path="url(#p4754cabc98)" style="fill: #f0f0ff"/>
    <path d="M 405.719485 34.38 
L 405.719485 7.2 
L 407.894515 7.2 
L 407.894515 34.38 
L 405.719485 34.38 
z
" clip-path="url(#p4754cabc98)" style="fill: #ffecec"/>
    <path d="M 407.894515 34.38 
L 407.894515 7.2 
L 410.069544 7.2 
L 410.069544 34.38 
L 407.894515 34.38 
z
" clip-path="url(#p4754cabc98)" style="fill: #ceceff"/>
    <path d="M 410.069544 34.38 
L 410.069544 7.2 
L 412.244574 7.2 
L 412.244574 34.38 
L 410.069544 34.38 
z
" clip-path="url(#p4754cabc98)" style="fill: #fff2f2"/>
    <path d="M 412.244574 34.38 
L 412.244574 7.2 
L 414.419603 7.2 
L 414.419603 34.38 
L 412.244574 34.38 
z
" clip-path="url(#p4754cabc98)" style="fill: #fff2f2"/>
    <path d="M 414.419603 34.38 
L 414.419603 7.2 
L 416.594633 7.2 
L 416.594633 34.38 
L 414.419603 34.38 
z
" clip-path="url(#p4754cabc98)" style="fill: #ffaaaa"/>
    <path d="M 416.594633 34.38 
L 416.594633 7.2 
L 418.769662 7.2 
L 418.769662 34.38 
L 416.594633 34.38 
z
" clip-path="url(#p4754cabc98)" style="fill: #fffefe"/>
    <path d="M 418.769662 34.38 
L 418.769662 7.2 
L 420.944692 7.2 
L 420.944692 34.38 
L 418.769662 34.38 
z
" clip-path="url(#p4754cabc98)" style="fill: #fffefe"/>
    <path d="M 420.944692 34.38 
L 420.944692 7.2 
L 423.119721 7.2 
L 423.119721 34.38 
L 420.944692 34.38 
z
" clip-path="url(#p4754cabc98)" style="fill: #ffa8a8"/>
    <path d="M 423.119721 34.38 
L 423.119721 7.2 
L 425.294751 7.2 
L 425.294751 34.38 
L 423.119721 34.38 
z
" clip-path="url(#p4754cabc98)" style="fill: #fffefe"/>
    <path d="M 425.294751 34.38 
L 425.294751 7.2 
L 427.46978 7.2 
L 427.46978 34.38 
L 425.294751 34.38 
z
" clip-path="url(#p4754cabc98)" style="fill: #ff9e9e"/>
    <path d="M 427.46978 34.38 
L 427.46978 7.2 
L 429.64481 7.2 
L 429.64481 34.38 
L 427.46978 34.38 
z
" clip-path="url(#p4754cabc98)" style="fill: #fffefe"/>
    <path d="M 429.64481 34.38 
L 429.64481 7.2 
L 431.819839 7.2 
L 431.819839 34.38 
L 429.64481 34.38 
z
" clip-path="url(#p4754cabc98)" style="fill: #ffb0b0"/>
    <path d="M 431.819839 34.38 
L 431.819839 7.2 
L 433.994869 7.2 
L 433.994869 34.38 
L 431.819839 34.38 
z
" clip-path="url(#p4754cabc98)" style="fill: #ff6060"/>
    <path d="M 433.994869 34.38 
L 433.994869 7.2 
L 436.169898 7.2 
L 436.169898 34.38 
L 433.994869 34.38 
z
" clip-path="url(#p4754cabc98)" style="fill: #ff5252"/>
    <path d="M 436.169898 34.38 
L 436.169898 7.2 
L 438.344927 7.2 
L 438.344927 34.38 
L 436.169898 34.38 
z
" clip-path="url(#p4754cabc98)" style="fill: #ff0c0c"/>
    <path d="M 438.344927 34.38 
L 438.344927 7.2 
L 440.519957 7.2 
L 440.519957 34.38 
L 438.344927 34.38 
z
" clip-path="url(#p4754cabc98)" style="fill: #ffacac"/>
    <path d="M 440.519957 34.38 
L 440.519957 7.2 
L 442.694986 7.2 
L 442.694986 34.38 
L 440.519957 34.38 
z
" clip-path="url(#p4754cabc98)" style="fill: #ffeeee"/>
    <path d="M 442.694986 34.38 
L 442.694986 7.2 
L 444.870016 7.2 
L 444.870016 34.38 
L 442.694986 34.38 
z
" clip-path="url(#p4754cabc98)" style="fill: #ffcccc"/>
    <path d="M 444.870016 34.38 
L 444.870016 7.2 
L 447.045045 7.2 
L 447.045045 34.38 
L 444.870016 34.38 
z
" clip-path="url(#p4754cabc98)" style="fill: #ff7070"/>
    <path d="M 447.045045 34.38 
L 447.045045 7.2 
L 449.220075 7.2 
L 449.220075 34.38 
L 447.045045 34.38 
z
" clip-path="url(#p4754cabc98)" style="fill: #ff8c8c"/>
    <path d="M 449.220075 34.38 
L 449.220075 7.2 
L 451.395104 7.2 
L 451.395104 34.38 
L 449.220075 34.38 
z
" clip-path="url(#p4754cabc98)" style="fill: #ffecec"/>
    <path d="M 451.395104 34.38 
L 451.395104 7.2 
L 453.570134 7.2 
L 453.570134 34.38 
L 451.395104 34.38 
z
" clip-path="url(#p4754cabc98)" style="fill: #ff8686"/>
    <path d="M 453.570134 34.38 
L 453.570134 7.2 
L 455.745163 7.2 
L 455.745163 34.38 
L 453.570134 34.38 
z
" clip-path="url(#p4754cabc98)" style="fill: #fff0f0"/>
    <path d="M 455.745163 34.38 
L 455.745163 7.2 
L 457.920193 7.2 
L 457.920193 34.38 
L 455.745163 34.38 
z
" clip-path="url(#p4754cabc98)" style="fill: #ff7c7c"/>
    <path d="M 457.920193 34.38 
L 457.920193 7.2 
L 460.095222 7.2 
L 460.095222 34.38 
L 457.920193 34.38 
z
" clip-path="url(#p4754cabc98)" style="fill: #fff4f4"/>
    <path d="M 460.095222 34.38 
L 460.095222 7.2 
L 462.270252 7.2 
L 462.270252 34.38 
L 460.095222 34.38 
z
" clip-path="url(#p4754cabc98)" style="fill: #ffe8e8"/>
    <path d="M 462.270252 34.38 
L 462.270252 7.2 
L 464.445281 7.2 
L 464.445281 34.38 
L 462.270252 34.38 
z
" clip-path="url(#p4754cabc98)" style="fill: #ffe6e6"/>
    <path d="M 464.445281 34.38 
L 464.445281 7.2 
L 466.620311 7.2 
L 466.620311 34.38 
L 464.445281 34.38 
z
" clip-path="url(#p4754cabc98)" style="fill: #c2c2ff"/>
    <path d="M 466.620311 34.38 
L 466.620311 7.2 
L 468.79534 7.2 
L 468.79534 34.38 
L 466.620311 34.38 
z
" clip-path="url(#p4754cabc98)" style="fill: #dadaff"/>
    <path d="M 468.79534 34.38 
L 468.79534 7.2 
L 470.970369 7.2 
L 470.970369 34.38 
L 468.79534 34.38 
z
" clip-path="url(#p4754cabc98)" style="fill: #ffe4e4"/>
    <path d="M 470.970369 34.38 
L 470.970369 7.2 
L 473.145399 7.2 
L 473.145399 34.38 
L 470.970369 34.38 
z
" clip-path="url(#p4754cabc98)" style="fill: #ff9292"/>
    <path d="M 473.145399 34.38 
L 473.145399 7.2 
L 475.320428 7.2 
L 475.320428 34.38 
L 473.145399 34.38 
z
" clip-path="url(#p4754cabc98)" style="fill: #e2e2ff"/>
    <path d="M 475.320428 34.38 
L 475.320428 7.2 
L 477.495458 7.2 
L 477.495458 34.38 
L 475.320428 34.38 
z
" clip-path="url(#p4754cabc98)" style="fill: #0000ff"/>
    <path d="M 477.495458 34.38 
L 477.495458 7.2 
L 479.670487 7.2 
L 479.670487 34.38 
L 477.495458 34.38 
z
" clip-path="url(#p4754cabc98)" style="fill: #e6e6ff"/>
    <path d="M 479.670487 34.38 
L 479.670487 7.2 
L 481.845517 7.2 
L 481.845517 34.38 
L 479.670487 34.38 
z
" clip-path="url(#p4754cabc98)" style="fill: #0202ff"/>
    <path d="M 481.845517 34.38 
L 481.845517 7.2 
L 484.020546 7.2 
L 484.020546 34.38 
L 481.845517 34.38 
z
" clip-path="url(#p4754cabc98)" style="fill: #ffe0e0"/>
    <path d="M 484.020546 34.38 
L 484.020546 7.2 
L 486.195576 7.2 
L 486.195576 34.38 
L 484.020546 34.38 
z
" clip-path="url(#p4754cabc98)" style="fill: #0000ff"/>
    <path d="M 486.195576 34.38 
L 486.195576 7.2 
L 488.370605 7.2 
L 488.370605 34.38 
L 486.195576 34.38 
z
" clip-path="url(#p4754cabc98)" style="fill: #dedeff"/>
    <path d="M 488.370605 34.38 
L 488.370605 7.2 
L 490.545635 7.2 
L 490.545635 34.38 
L 488.370605 34.38 
z
" clip-path="url(#p4754cabc98)" style="fill: #e4e4ff"/>
    <path d="M 490.545635 34.38 
L 490.545635 7.2 
L 492.720664 7.2 
L 492.720664 34.38 
L 490.545635 34.38 
z
" clip-path="url(#p4754cabc98)" style="fill: #f2f2ff"/>
    <path d="M 492.720664 34.38 
L 492.720664 7.2 
L 494.895694 7.2 
L 494.895694 34.38 
L 492.720664 34.38 
z
" clip-path="url(#p4754cabc98)" style="fill: #d8d8ff"/>
    <path d="M 494.895694 34.38 
L 494.895694 7.2 
L 497.070723 7.2 
L 497.070723 34.38 
L 494.895694 34.38 
z
" clip-path="url(#p4754cabc98)" style="fill: #0000ff"/>
    <path d="M 497.070723 34.38 
L 497.070723 7.2 
L 499.245753 7.2 
L 499.245753 34.38 
L 497.070723 34.38 
z
" clip-path="url(#p4754cabc98)" style="fill: #e6e6ff"/>
    <path d="M 499.245753 34.38 
L 499.245753 7.2 
L 501.420782 7.2 
L 501.420782 34.38 
L 499.245753 34.38 
z
" clip-path="url(#p4754cabc98)" style="fill: #0000ff"/>
    <path d="M 501.420782 34.38 
L 501.420782 7.2 
L 503.595812 7.2 
L 503.595812 34.38 
L 501.420782 34.38 
z
" clip-path="url(#p4754cabc98)" style="fill: #e4e4ff"/>
    <path d="M 503.595812 34.38 
L 503.595812 7.2 
L 505.770841 7.2 
L 505.770841 34.38 
L 503.595812 34.38 
z
" clip-path="url(#p4754cabc98)" style="fill: #f0f0ff"/>
    <path d="M 505.770841 34.38 
L 505.770841 7.2 
L 507.94587 7.2 
L 507.94587 34.38 
L 505.770841 34.38 
z
" clip-path="url(#p4754cabc98)" style="fill: #e0e0ff"/>
    <path d="M 507.94587 34.38 
L 507.94587 7.2 
L 510.1209 7.2 
L 510.1209 34.38 
L 507.94587 34.38 
z
" clip-path="url(#p4754cabc98)" style="fill: #ffc0c0"/>
    <path d="M 510.1209 34.38 
L 510.1209 7.2 
L 512.295929 7.2 
L 512.295929 34.38 
L 510.1209 34.38 
z
" clip-path="url(#p4754cabc98)" style="fill: #ffbcbc"/>
    <path d="M 512.295929 34.38 
L 512.295929 7.2 
L 514.470959 7.2 
L 514.470959 34.38 
L 512.295929 34.38 
z
" clip-path="url(#p4754cabc98)" style="fill: #ffcaca"/>
    <path d="M 514.470959 34.38 
L 514.470959 7.2 
L 516.645988 7.2 
L 516.645988 34.38 
L 514.470959 34.38 
z
" clip-path="url(#p4754cabc98)" style="fill: #ffc4c4"/>
    <path d="M 516.645988 34.38 
L 516.645988 7.2 
L 518.821018 7.2 
L 518.821018 34.38 
L 516.645988 34.38 
z
" clip-path="url(#p4754cabc98)" style="fill: #ffc8c8"/>
    <path d="M 518.821018 34.38 
L 518.821018 7.2 
L 520.996047 7.2 
L 520.996047 34.38 
L 518.821018 34.38 
z
" clip-path="url(#p4754cabc98)" style="fill: #c0c0ff"/>
    <path d="M 520.996047 34.38 
L 520.996047 7.2 
L 523.171077 7.2 
L 523.171077 34.38 
L 520.996047 34.38 
z
" clip-path="url(#p4754cabc98)" style="fill: #ffd6d6"/>
    <path d="M 523.171077 34.38 
L 523.171077 7.2 
L 525.346106 7.2 
L 525.346106 34.38 
L 523.171077 34.38 
z
" clip-path="url(#p4754cabc98)" style="fill: #eaeaff"/>
    <path d="M 525.346106 34.38 
L 525.346106 7.2 
L 527.521136 7.2 
L 527.521136 34.38 
L 525.346106 34.38 
z
" clip-path="url(#p4754cabc98)" style="fill: #ffd2d2"/>
    <path d="M 527.521136 34.38 
L 527.521136 7.2 
L 529.696165 7.2 
L 529.696165 34.38 
L 527.521136 34.38 
z
" clip-path="url(#p4754cabc98)" style="fill: #ffd0d0"/>
    <path d="M 529.696165 34.38 
L 529.696165 7.2 
L 531.871195 7.2 
L 531.871195 34.38 
L 529.696165 34.38 
z
" clip-path="url(#p4754cabc98)" style="fill: #fff4f4"/>
    <path d="M 531.871195 34.38 
L 531.871195 7.2 
L 534.046224 7.2 
L 534.046224 34.38 
L 531.871195 34.38 
z
" clip-path="url(#p4754cabc98)" style="fill: #ffcccc"/>
    <path d="M 534.046224 34.38 
L 534.046224 7.2 
L 536.221254 7.2 
L 536.221254 34.38 
L 534.046224 34.38 
z
" clip-path="url(#p4754cabc98)" style="fill: #ffc4c4"/>
    <path d="M 536.221254 34.38 
L 536.221254 7.2 
L 538.396283 7.2 
L 538.396283 34.38 
L 536.221254 34.38 
z
" clip-path="url(#p4754cabc98)" style="fill: #ffc6c6"/>
    <path d="M 538.396283 34.38 
L 538.396283 7.2 
L 540.571312 7.2 
L 540.571312 34.38 
L 538.396283 34.38 
z
" clip-path="url(#p4754cabc98)" style="fill: #ffeeee"/>
    <path d="M 540.571312 34.38 
L 540.571312 7.2 
L 542.746342 7.2 
L 542.746342 34.38 
L 540.571312 34.38 
z
" clip-path="url(#p4754cabc98)" style="fill: #ffe0e0"/>
    <path d="M 542.746342 34.38 
L 542.746342 7.2 
L 544.921371 7.2 
L 544.921371 34.38 
L 542.746342 34.38 
z
" clip-path="url(#p4754cabc98)" style="fill: #ffe0e0"/>
    <path d="M 544.921371 34.38 
L 544.921371 7.2 
L 547.096401 7.2 
L 547.096401 34.38 
L 544.921371 34.38 
z
" clip-path="url(#p4754cabc98)" style="fill: #e6e6ff"/>
    <path d="M 547.096401 34.38 
L 547.096401 7.2 
L 549.27143 7.2 
L 549.27143 34.38 
L 547.096401 34.38 
z
" clip-path="url(#p4754cabc98)" style="fill: #e0e0ff"/>
    <path d="M 549.27143 34.38 
L 549.27143 7.2 
L 551.44646 7.2 
L 551.44646 34.38 
L 549.27143 34.38 
z
" clip-path="url(#p4754cabc98)" style="fill: #e0e0ff"/>
    <path d="M 551.44646 34.38 
L 551.44646 7.2 
L 553.621489 7.2 
L 553.621489 34.38 
L 551.44646 34.38 
z
" clip-path="url(#p4754cabc98)" style="fill: #2626ff"/>
    <path d="M 553.621489 34.38 
L 553.621489 7.2 
L 555.796519 7.2 
L 555.796519 34.38 
L 553.621489 34.38 
z
" clip-path="url(#p4754cabc98)" style="fill: #2e2eff"/>
    <path d="M 555.796519 34.38 
L 555.796519 7.2 
L 557.971548 7.2 
L 557.971548 34.38 
L 555.796519 34.38 
z
" clip-path="url(#p4754cabc98)" style="fill: #1e1eff"/>
    <path d="M 557.971548 34.38 
L 557.971548 7.2 
L 560.146578 7.2 
L 560.146578 34.38 
L 557.971548 34.38 
z
" clip-path="url(#p4754cabc98)" style="fill: #ececff"/>
    <path d="M 560.146578 34.38 
L 560.146578 7.2 
L 562.321607 7.2 
L 562.321607 34.38 
L 560.146578 34.38 
z
" clip-path="url(#p4754cabc98)" style="fill: #e8e8ff"/>
    <path d="M 562.321607 34.38 
L 562.321607 7.2 
L 564.496637 7.2 
L 564.496637 34.38 
L 562.321607 34.38 
z
" clip-path="url(#p4754cabc98)" style="fill: #ff9c9c"/>
    <path d="M 564.496637 34.38 
L 564.496637 7.2 
L 566.671666 7.2 
L 566.671666 34.38 
L 564.496637 34.38 
z
" clip-path="url(#p4754cabc98)" style="fill: #ffcaca"/>
    <path d="M 566.671666 34.38 
L 566.671666 7.2 
L 568.846696 7.2 
L 568.846696 34.38 
L 566.671666 34.38 
z
" clip-path="url(#p4754cabc98)" style="fill: #ffa8a8"/>
    <path d="M 568.846696 34.38 
L 568.846696 7.2 
L 571.021725 7.2 
L 571.021725 34.38 
L 568.846696 34.38 
z
" clip-path="url(#p4754cabc98)" style="fill: #dcdcff"/>
    <path d="M 571.021725 34.38 
L 571.021725 7.2 
L 573.196755 7.2 
L 573.196755 34.38 
L 571.021725 34.38 
z
" clip-path="url(#p4754cabc98)" style="fill: #dedeff"/>
    <path d="M 573.196755 34.38 
L 573.196755 7.2 
L 575.371784 7.2 
L 575.371784 34.38 
L 573.196755 34.38 
z
" clip-path="url(#p4754cabc98)" style="fill: #e4e4ff"/>
    <path d="M 575.371784 34.38 
L 575.371784 7.2 
L 577.546813 7.2 
L 577.546813 34.38 
L 575.371784 34.38 
z
" clip-path="url(#p4754cabc98)" style="fill: #e0e0ff"/>
    <path d="M 577.546813 34.38 
L 577.546813 7.2 
L 579.721843 7.2 
L 579.721843 34.38 
L 577.546813 34.38 
z
" clip-path="url(#p4754cabc98)" style="fill: #e0e0ff"/>
    <path d="M 579.721843 34.38 
L 579.721843 7.2 
L 581.896872 7.2 
L 581.896872 34.38 
L 579.721843 34.38 
z
" clip-path="url(#p4754cabc98)" style="fill: #ececff"/>
    <path d="M 581.896872 34.38 
L 581.896872 7.2 
L 584.071902 7.2 
L 584.071902 34.38 
L 581.896872 34.38 
z
" clip-path="url(#p4754cabc98)" style="fill: #e4e4ff"/>
    <path d="M 584.071902 34.38 
L 584.071902 7.2 
L 586.246931 7.2 
L 586.246931 34.38 
L 584.071902 34.38 
z
" clip-path="url(#p4754cabc98)" style="fill: #e6e6ff"/>
    <path d="M 586.246931 34.38 
L 586.246931 7.2 
L 588.421961 7.2 
L 588.421961 34.38 
L 586.246931 34.38 
z
" clip-path="url(#p4754cabc98)" style="fill: #ffecec"/>
    <path d="M 588.421961 34.38 
L 588.421961 7.2 
L 590.59699 7.2 
L 590.59699 34.38 
L 588.421961 34.38 
z
" clip-path="url(#p4754cabc98)" style="fill: #ffe6e6"/>
    <path d="M 590.59699 34.38 
L 590.59699 7.2 
L 592.77202 7.2 
L 592.77202 34.38 
L 590.59699 34.38 
z
" clip-path="url(#p4754cabc98)" style="fill: #ffe6e6"/>
    <path d="M 592.77202 34.38 
L 592.77202 7.2 
L 594.947049 7.2 
L 594.947049 34.38 
L 592.77202 34.38 
z
" clip-path="url(#p4754cabc98)" style="fill: #eaeaff"/>
    <path d="M 594.947049 34.38 
L 594.947049 7.2 
L 597.122079 7.2 
L 597.122079 34.38 
L 594.947049 34.38 
z
" clip-path="url(#p4754cabc98)" style="fill: #ececff"/>
    <path d="M 597.122079 34.38 
L 597.122079 7.2 
L 599.297108 7.2 
L 599.297108 34.38 
L 597.122079 34.38 
z
" clip-path="url(#p4754cabc98)" style="fill: #f2f2ff"/>
    <path d="M 599.297108 34.38 
L 599.297108 7.2 
L 601.472138 7.2 
L 601.472138 34.38 
L 599.297108 34.38 
z
" clip-path="url(#p4754cabc98)" style="fill: #eaeaff"/>
    <path d="M 601.472138 34.38 
L 601.472138 7.2 
L 603.647167 7.2 
L 603.647167 34.38 
L 601.472138 34.38 
z
" clip-path="url(#p4754cabc98)" style="fill: #ffcccc"/>
    <path d="M 603.647167 34.38 
L 603.647167 7.2 
L 605.822197 7.2 
L 605.822197 34.38 
L 603.647167 34.38 
z
" clip-path="url(#p4754cabc98)" style="fill: #ffd6d6"/>
    <path d="M 605.822197 34.38 
L 605.822197 7.2 
L 607.997226 7.2 
L 607.997226 34.38 
L 605.822197 34.38 
z
" clip-path="url(#p4754cabc98)" style="fill: #ffcccc"/>
    <path d="M 607.997226 34.38 
L 607.997226 7.2 
L 610.172256 7.2 
L 610.172256 34.38 
L 607.997226 34.38 
z
" clip-path="url(#p4754cabc98)" style="fill: #ffeeee"/>
    <path d="M 610.172256 34.38 
L 610.172256 7.2 
L 612.347285 7.2 
L 612.347285 34.38 
L 610.172256 34.38 
z
" clip-path="url(#p4754cabc98)" style="fill: #ffb6b6"/>
    <path d="M 612.347285 34.38 
L 612.347285 7.2 
L 614.522314 7.2 
L 614.522314 34.38 
L 612.347285 34.38 
z
" clip-path="url(#p4754cabc98)" style="fill: #ffc4c4"/>
    <path d="M 614.522314 34.38 
L 614.522314 7.2 
L 616.697344 7.2 
L 616.697344 34.38 
L 614.522314 34.38 
z
" clip-path="url(#p4754cabc98)" style="fill: #ffc0c0"/>
    <path d="M 616.697344 34.38 
L 616.697344 7.2 
L 618.872373 7.2 
L 618.872373 34.38 
L 616.697344 34.38 
z
" clip-path="url(#p4754cabc98)" style="fill: #ffdada"/>
    <path d="M 618.872373 34.38 
L 618.872373 7.2 
L 621.047403 7.2 
L 621.047403 34.38 
L 618.872373 34.38 
z
" clip-path="url(#p4754cabc98)" style="fill: #ffd6d6"/>
    <path d="M 621.047403 34.38 
L 621.047403 7.2 
L 623.222432 7.2 
L 623.222432 34.38 
L 621.047403 34.38 
z
" clip-path="url(#p4754cabc98)" style="fill: #ffd6d6"/>
    <path d="M 623.222432 34.38 
L 623.222432 7.2 
L 625.397462 7.2 
L 625.397462 34.38 
L 623.222432 34.38 
z
" clip-path="url(#p4754cabc98)" style="fill: #e8e8ff"/>
    <path d="M 625.397462 34.38 
L 625.397462 7.2 
L 627.572491 7.2 
L 627.572491 34.38 
L 625.397462 34.38 
z
" clip-path="url(#p4754cabc98)" style="fill: #f4f4ff"/>
    <path d="M 627.572491 34.38 
L 627.572491 7.2 
L 629.747521 7.2 
L 629.747521 34.38 
L 627.572491 34.38 
z
" clip-path="url(#p4754cabc98)" style="fill: #f4f4ff"/>
    <path d="M 629.747521 34.38 
L 629.747521 7.2 
L 631.92255 7.2 
L 631.92255 34.38 
L 629.747521 34.38 
z
" clip-path="url(#p4754cabc98)" style="fill: #f4f4ff"/>
    <path d="M 631.92255 34.38 
L 631.92255 7.2 
L 634.09758 7.2 
L 634.09758 34.38 
L 631.92255 34.38 
z
" clip-path="url(#p4754cabc98)" style="fill: #e0e0ff"/>
    <path d="M 634.09758 34.38 
L 634.09758 7.2 
L 636.272609 7.2 
L 636.272609 34.38 
L 634.09758 34.38 
z
" clip-path="url(#p4754cabc98)" style="fill: #e0e0ff"/>
    <path d="M 636.272609 34.38 
L 636.272609 7.2 
L 638.447639 7.2 
L 638.447639 34.38 
L 636.272609 34.38 
z
" clip-path="url(#p4754cabc98)" style="fill: #e0e0ff"/>
    <path d="M 638.447639 34.38 
L 638.447639 7.2 
L 640.622668 7.2 
L 640.622668 34.38 
L 638.447639 34.38 
z
" clip-path="url(#p4754cabc98)" style="fill: #3636ff"/>
    <path d="M 640.622668 34.38 
L 640.622668 7.2 
L 642.797698 7.2 
L 642.797698 34.38 
L 640.622668 34.38 
z
" clip-path="url(#p4754cabc98)" style="fill: #3e3eff"/>
    <path d="M 642.797698 34.38 
L 642.797698 7.2 
L 644.972727 7.2 
L 644.972727 34.38 
L 642.797698 34.38 
z
" clip-path="url(#p4754cabc98)" style="fill: #3c3cff"/>
    <path d="M 644.972727 34.38 
L 644.972727 7.2 
L 647.147756 7.2 
L 647.147756 34.38 
L 644.972727 34.38 
z
" clip-path="url(#p4754cabc98)" style="fill: #2828ff"/>
    <path d="M 647.147756 34.38 
L 647.147756 7.2 
L 649.322786 7.2 
L 649.322786 34.38 
L 647.147756 34.38 
z
" clip-path="url(#p4754cabc98)" style="fill: #2626ff"/>
    <path d="M 649.322786 34.38 
L 649.322786 7.2 
L 651.497815 7.2 
L 651.497815 34.38 
L 649.322786 34.38 
z
" clip-path="url(#p4754cabc98)" style="fill: #2626ff"/>
    <path d="M 651.497815 34.38 
L 651.497815 7.2 
L 653.672845 7.2 
L 653.672845 34.38 
L 651.497815 34.38 
z
" clip-path="url(#p4754cabc98)" style="fill: #ff1212"/>
    <path d="M 653.672845 34.38 
L 653.672845 7.2 
L 655.847874 7.2 
L 655.847874 34.38 
L 653.672845 34.38 
z
" clip-path="url(#p4754cabc98)" style="fill: #ff2626"/>
    <path d="M 655.847874 34.38 
L 655.847874 7.2 
L 658.022904 7.2 
L 658.022904 34.38 
L 655.847874 34.38 
z
" clip-path="url(#p4754cabc98)" style="fill: #ff2c2c"/>
    <path d="M 658.022904 34.38 
L 658.022904 7.2 
L 660.197933 7.2 
L 660.197933 34.38 
L 658.022904 34.38 
z
" clip-path="url(#p4754cabc98)" style="fill: #ff2222"/>
    <path d="M 660.197933 34.38 
L 660.197933 7.2 
L 662.372963 7.2 
L 662.372963 34.38 
L 660.197933 34.38 
z
" clip-path="url(#p4754cabc98)" style="fill: #ff7070"/>
    <path d="M 662.372963 34.38 
L 662.372963 7.2 
L 664.547992 7.2 
L 664.547992 34.38 
L 662.372963 34.38 
z
" clip-path="url(#p4754cabc98)" style="fill: #ffdcdc"/>
    <path d="M 664.547992 34.38 
L 664.547992 7.2 
L 666.723022 7.2 
L 666.723022 34.38 
L 664.547992 34.38 
z
" clip-path="url(#p4754cabc98)" style="fill: #f0f0ff"/>
    <path d="M 666.723022 34.38 
L 666.723022 7.2 
L 668.898051 7.2 
L 668.898051 34.38 
L 666.723022 34.38 
z
" clip-path="url(#p4754cabc98)" style="fill: #fff0f0"/>
    <path d="M 668.898051 34.38 
L 668.898051 7.2 
L 671.073081 7.2 
L 671.073081 34.38 
L 668.898051 34.38 
z
" clip-path="url(#p4754cabc98)" style="fill: #ffc8c8"/>
    <path d="M 671.073081 34.38 
L 671.073081 7.2 
L 673.24811 7.2 
L 673.24811 34.38 
L 671.073081 34.38 
z
" clip-path="url(#p4754cabc98)" style="fill: #ffe8e8"/>
    <path d="M 673.24811 34.38 
L 673.24811 7.2 
L 675.42314 7.2 
L 675.42314 34.38 
L 673.24811 34.38 
z
" clip-path="url(#p4754cabc98)" style="fill: #ffe6e6"/>
    <path d="M 675.42314 34.38 
L 675.42314 7.2 
L 677.598169 7.2 
L 677.598169 34.38 
L 675.42314 34.38 
z
" clip-path="url(#p4754cabc98)" style="fill: #4444ff"/>
    <path d="M 677.598169 34.38 
L 677.598169 7.2 
L 679.773199 7.2 
L 679.773199 34.38 
L 677.598169 34.38 
z
" clip-path="url(#p4754cabc98)" style="fill: #e0e0ff"/>
    <path d="M 679.773199 34.38 
L 679.773199 7.2 
L 681.948228 7.2 
L 681.948228 34.38 
L 679.773199 34.38 
z
" clip-path="url(#p4754cabc98)" style="fill: #0404ff"/>
    <path d="M 681.948228 34.38 
L 681.948228 7.2 
L 684.123257 7.2 
L 684.123257 34.38 
L 681.948228 34.38 
z
" clip-path="url(#p4754cabc98)" style="fill: #2020ff"/>
    <path d="M 684.123257 34.38 
L 684.123257 7.2 
L 686.298287 7.2 
L 686.298287 34.38 
L 684.123257 34.38 
z
" clip-path="url(#p4754cabc98)" style="fill: #1a1aff"/>
    <path d="M 686.298287 34.38 
L 686.298287 7.2 
L 688.473316 7.2 
L 688.473316 34.38 
L 686.298287 34.38 
z
" clip-path="url(#p4754cabc98)" style="fill: #ffeaea"/>
    <path d="M 688.473316 34.38 
L 688.473316 7.2 
L 690.648346 7.2 
L 690.648346 34.38 
L 688.473316 34.38 
z
" clip-path="url(#p4754cabc98)" style="fill: #2222ff"/>
    <path d="M 690.648346 34.38 
L 690.648346 7.2 
L 692.823375 7.2 
L 692.823375 34.38 
L 690.648346 34.38 
z
" clip-path="url(#p4754cabc98)" style="fill: #0000ff"/>
    <path d="M 692.823375 34.38 
L 692.823375 7.2 
L 694.998405 7.2 
L 694.998405 34.38 
L 692.823375 34.38 
z
" clip-path="url(#p4754cabc98)" style="fill: #0a0aff"/>
    <path d="M 694.998405 34.38 
L 694.998405 7.2 
L 697.173434 7.2 
L 697.173434 34.38 
L 694.998405 34.38 
z
" clip-path="url(#p4754cabc98)" style="fill: #0000ff"/>
    <path d="M 697.173434 34.38 
L 697.173434 7.2 
L 699.348464 7.2 
L 699.348464 34.38 
L 697.173434 34.38 
z
" clip-path="url(#p4754cabc98)" style="fill: #1212ff"/>
    <path d="M 699.348464 34.38 
L 699.348464 7.2 
L 701.523493 7.2 
L 701.523493 34.38 
L 699.348464 34.38 
z
" clip-path="url(#p4754cabc98)" style="fill: #1616ff"/>
    <path d="M 701.523493 34.38 
L 701.523493 7.2 
L 703.698523 7.2 
L 703.698523 34.38 
L 701.523493 34.38 
z
" clip-path="url(#p4754cabc98)" style="fill: #0000ff"/>
    <path d="M 703.698523 34.38 
L 703.698523 7.2 
L 705.873552 7.2 
L 705.873552 34.38 
L 703.698523 34.38 
z
" clip-path="url(#p4754cabc98)" style="fill: #ff0000"/>
    <path d="M 705.873552 34.38 
L 705.873552 7.2 
L 708.048582 7.2 
L 708.048582 34.38 
L 705.873552 34.38 
z
" clip-path="url(#p4754cabc98)" style="fill: #ff0000"/>
    <path d="M 708.048582 34.38 
L 708.048582 7.2 
L 710.223611 7.2 
L 710.223611 34.38 
L 708.048582 34.38 
z
" clip-path="url(#p4754cabc98)" style="fill: #ff0000"/>
    <path d="M 710.223611 34.38 
L 710.223611 7.2 
L 712.398641 7.2 
L 712.398641 34.38 
L 710.223611 34.38 
z
" clip-path="url(#p4754cabc98)" style="fill: #3636ff"/>
    <path d="M 712.398641 34.38 
L 712.398641 7.2 
L 714.57367 7.2 
L 714.57367 34.38 
L 712.398641 34.38 
z
" clip-path="url(#p4754cabc98)" style="fill: #4444ff"/>
    <path d="M 714.57367 34.38 
L 714.57367 7.2 
L 716.748699 7.2 
L 716.748699 34.38 
L 714.57367 34.38 
z
" clip-path="url(#p4754cabc98)" style="fill: #0000ff"/>
    <path d="M 716.748699 34.38 
L 716.748699 7.2 
L 718.923729 7.2 
L 718.923729 34.38 
L 716.748699 34.38 
z
" clip-path="url(#p4754cabc98)" style="fill: #0202ff"/>
    <path d="M 718.923729 34.38 
L 718.923729 7.2 
L 721.098758 7.2 
L 721.098758 34.38 
L 718.923729 34.38 
z
" clip-path="url(#p4754cabc98)" style="fill: #0c0cff"/>
    <path d="M 721.098758 34.38 
L 721.098758 7.2 
L 723.273788 7.2 
L 723.273788 34.38 
L 721.098758 34.38 
z
" clip-path="url(#p4754cabc98)" style="fill: #ff0000"/>
    <path d="M 723.273788 34.38 
L 723.273788 7.2 
L 725.448817 7.2 
L 725.448817 34.38 
L 723.273788 34.38 
z
" clip-path="url(#p4754cabc98)" style="fill: #ff0000"/>
    <path d="M 725.448817 34.38 
L 725.448817 7.2 
L 727.623847 7.2 
L 727.623847 34.38 
L 725.448817 34.38 
z
" clip-path="url(#p4754cabc98)" style="fill: #ff0000"/>
    <path d="M 727.623847 34.38 
L 727.623847 7.2 
L 729.798876 7.2 
L 729.798876 34.38 
L 727.623847 34.38 
z
" clip-path="url(#p4754cabc98)" style="fill: #0000ff"/>
    <path d="M 729.798876 34.38 
L 729.798876 7.2 
L 731.973906 7.2 
L 731.973906 34.38 
L 729.798876 34.38 
z
" clip-path="url(#p4754cabc98)" style="fill: #0000ff"/>
    <path d="M 731.973906 34.38 
L 731.973906 7.2 
L 734.148935 7.2 
L 734.148935 34.38 
L 731.973906 34.38 
z
" clip-path="url(#p4754cabc98)" style="fill: #0000ff"/>
    <path d="M 734.148935 34.38 
L 734.148935 7.2 
L 736.323965 7.2 
L 736.323965 34.38 
L 734.148935 34.38 
z
" clip-path="url(#p4754cabc98)" style="fill: #ff0000"/>
    <path d="M 736.323965 34.38 
L 736.323965 7.2 
L 738.498994 7.2 
L 738.498994 34.38 
L 736.323965 34.38 
z
" clip-path="url(#p4754cabc98)" style="fill: #ff0000"/>
    <path d="M 738.498994 34.38 
L 738.498994 7.2 
L 740.674024 7.2 
L 740.674024 34.38 
L 738.498994 34.38 
z
" clip-path="url(#p4754cabc98)" style="fill: #ff0000"/>
    <path d="M 740.674024 34.38 
L 740.674024 7.2 
L 742.849053 7.2 
L 742.849053 34.38 
L 740.674024 34.38 
z
" clip-path="url(#p4754cabc98)" style="fill: #0404ff"/>
    <path d="M 742.849053 34.38 
L 742.849053 7.2 
L 745.024083 7.2 
L 745.024083 34.38 
L 742.849053 34.38 
z
" clip-path="url(#p4754cabc98)" style="fill: #0000ff"/>
    <path d="M 745.024083 34.38 
L 745.024083 7.2 
L 747.199112 7.2 
L 747.199112 34.38 
L 745.024083 34.38 
z
" clip-path="url(#p4754cabc98)" style="fill: #0000ff"/>
   </g>
   <g id="patch_3">
    <path d="M 120.790625 34.38 
L 120.790625 7.2 
" style="fill: none; stroke: #262626; stroke-width: 1.25; stroke-linejoin: miter; stroke-linecap: square"/>
   </g>
   <g id="patch_4">
    <path d="M 747.199112 34.38 
L 747.199112 7.2 
" style="fill: none; stroke: #262626; stroke-width: 1.25; stroke-linejoin: miter; stroke-linecap: square"/>
   </g>
   <g id="patch_5">
    <path d="M 120.790625 34.38 
L 747.199112 34.38 
" style="fill: none; stroke: #262626; stroke-width: 1.25; stroke-linejoin: miter; stroke-linecap: square"/>
   </g>
   <g id="patch_6">
    <path d="M 120.790625 7.2 
L 747.199112 7.2 
" style="fill: none; stroke: #262626; stroke-width: 1.25; stroke-linejoin: miter; stroke-linecap: square"/>
   </g>
   <g id="text_6">
    <!-- Cells -->
    <g style="fill: #262626" transform="translate(229.113457 64.278)scale(0.18 -0.18)">
     <defs>
      <path id="ArialMT-43" d="M 3763 1606 
L 4369 1453 
Q 4178 706 3683 314 
Q 3188 -78 2472 -78 
Q 1731 -78 1267 223 
Q 803 525 561 1097 
Q 319 1669 319 2325 
Q 319 3041 592 3573 
Q 866 4106 1370 4382 
Q 1875 4659 2481 4659 
Q 3169 4659 3637 4309 
Q 4106 3959 4291 3325 
L 3694 3184 
Q 3534 3684 3231 3912 
Q 2928 4141 2469 4141 
Q 1941 4141 1586 3887 
Q 1231 3634 1087 3207 
Q 944 2781 944 2328 
Q 944 1744 1114 1308 
Q 1284 872 1643 656 
Q 2003 441 2422 441 
Q 2931 441 3284 734 
Q 3638 1028 3763 1606 
z
" transform="scale(0.015625)"/>
      <path id="ArialMT-65" d="M 2694 1069 
L 3275 997 
Q 3138 488 2766 206 
Q 2394 -75 1816 -75 
Q 1088 -75 661 373 
Q 234 822 234 1631 
Q 234 2469 665 2931 
Q 1097 3394 1784 3394 
Q 2450 3394 2872 2941 
Q 3294 2488 3294 1666 
Q 3294 1616 3291 1516 
L 816 1516 
Q 847 969 1125 678 
Q 1403 388 1819 388 
Q 2128 388 2347 550 
Q 2566 713 2694 1069 
z
M 847 1978 
L 2700 1978 
Q 2663 2397 2488 2606 
Q 2219 2931 1791 2931 
Q 1403 2931 1139 2672 
Q 875 2413 847 1978 
z
" transform="scale(0.015625)"/>
      <path id="ArialMT-6c" d="M 409 0 
L 409 4581 
L 972 4581 
L 972 0 
L 409 0 
z
" transform="scale(0.015625)"/>
      <path id="ArialMT-73" d="M 197 991 
L 753 1078 
Q 800 744 1014 566 
Q 1228 388 1613 388 
Q 2000 388 2187 545 
Q 2375 703 2375 916 
Q 2375 1106 2209 1216 
Q 2094 1291 1634 1406 
Q 1016 1563 777 1677 
Q 538 1791 414 1992 
Q 291 2194 291 2438 
Q 291 2659 392 2848 
Q 494 3038 669 3163 
Q 800 3259 1026 3326 
Q 1253 3394 1513 3394 
Q 1903 3394 2198 3281 
Q 2494 3169 2634 2976 
Q 2775 2784 2828 2463 
L 2278 2388 
Q 2241 2644 2061 2787 
Q 1881 2931 1553 2931 
Q 1166 2931 1000 2803 
Q 834 2675 834 2503 
Q 834 2394 903 2306 
Q 972 2216 1119 2156 
Q 1203 2125 1616 2013 
Q 2213 1853 2448 1751 
Q 2684 1650 2818 1456 
Q 2953 1263 2953 975 
Q 2953 694 2789 445 
Q 2625 197 2315 61 
Q 2006 -75 1616 -75 
Q 969 -75 630 194 
Q 291 463 197 991 
z
" transform="scale(0.015625)"/>
     </defs>
     <use xlink:href="#ArialMT-43"/>
     <use xlink:href="#ArialMT-65" x="72.216797"/>
     <use xlink:href="#ArialMT-6c" x="127.832031"/>
     <use xlink:href="#ArialMT-6c" x="150.048828"/>
     <use xlink:href="#ArialMT-73" x="172.265625"/>
    </g>
   </g>
   <g id="text_7">
    <!-- Cytoplasm -->
    <g style="fill: #262626" transform="translate(474.135051 64.278)scale(0.18 -0.18)">
     <defs>
      <path id="ArialMT-6f" d="M 213 1659 
Q 213 2581 725 3025 
Q 1153 3394 1769 3394 
Q 2453 3394 2887 2945 
Q 3322 2497 3322 1706 
Q 3322 1066 3130 698 
Q 2938 331 2570 128 
Q 2203 -75 1769 -75 
Q 1072 -75 642 372 
Q 213 819 213 1659 
z
M 791 1659 
Q 791 1022 1069 705 
Q 1347 388 1769 388 
Q 2188 388 2466 706 
Q 2744 1025 2744 1678 
Q 2744 2294 2464 2611 
Q 2184 2928 1769 2928 
Q 1347 2928 1069 2612 
Q 791 2297 791 1659 
z
" transform="scale(0.015625)"/>
      <path id="ArialMT-70" d="M 422 -1272 
L 422 3319 
L 934 3319 
L 934 2888 
Q 1116 3141 1344 3267 
Q 1572 3394 1897 3394 
Q 2322 3394 2647 3175 
Q 2972 2956 3137 2557 
Q 3303 2159 3303 1684 
Q 3303 1175 3120 767 
Q 2938 359 2589 142 
Q 2241 -75 1856 -75 
Q 1575 -75 1351 44 
Q 1128 163 984 344 
L 984 -1272 
L 422 -1272 
z
M 931 1641 
Q 931 1000 1190 694 
Q 1450 388 1819 388 
Q 2194 388 2461 705 
Q 2728 1022 2728 1688 
Q 2728 2322 2467 2637 
Q 2206 2953 1844 2953 
Q 1484 2953 1207 2617 
Q 931 2281 931 1641 
z
" transform="scale(0.015625)"/>
      <path id="ArialMT-61" d="M 2588 409 
Q 2275 144 1986 34 
Q 1697 -75 1366 -75 
Q 819 -75 525 192 
Q 231 459 231 875 
Q 231 1119 342 1320 
Q 453 1522 633 1644 
Q 813 1766 1038 1828 
Q 1203 1872 1538 1913 
Q 2219 1994 2541 2106 
Q 2544 2222 2544 2253 
Q 2544 2597 2384 2738 
Q 2169 2928 1744 2928 
Q 1347 2928 1158 2789 
Q 969 2650 878 2297 
L 328 2372 
Q 403 2725 575 2942 
Q 747 3159 1072 3276 
Q 1397 3394 1825 3394 
Q 2250 3394 2515 3294 
Q 2781 3194 2906 3042 
Q 3031 2891 3081 2659 
Q 3109 2516 3109 2141 
L 3109 1391 
Q 3109 606 3145 398 
Q 3181 191 3288 0 
L 2700 0 
Q 2613 175 2588 409 
z
M 2541 1666 
Q 2234 1541 1622 1453 
Q 1275 1403 1131 1340 
Q 988 1278 909 1158 
Q 831 1038 831 891 
Q 831 666 1001 516 
Q 1172 366 1500 366 
Q 1825 366 2078 508 
Q 2331 650 2450 897 
Q 2541 1088 2541 1459 
L 2541 1666 
z
" transform="scale(0.015625)"/>
      <path id="ArialMT-6d" d="M 422 0 
L 422 3319 
L 925 3319 
L 925 2853 
Q 1081 3097 1340 3245 
Q 1600 3394 1931 3394 
Q 2300 3394 2536 3241 
Q 2772 3088 2869 2813 
Q 3263 3394 3894 3394 
Q 4388 3394 4653 3120 
Q 4919 2847 4919 2278 
L 4919 0 
L 4359 0 
L 4359 2091 
Q 4359 2428 4304 2576 
Q 4250 2725 4106 2815 
Q 3963 2906 3769 2906 
Q 3419 2906 3187 2673 
Q 2956 2441 2956 1928 
L 2956 0 
L 2394 0 
L 2394 2156 
Q 2394 2531 2256 2718 
Q 2119 2906 1806 2906 
Q 1569 2906 1367 2781 
Q 1166 2656 1075 2415 
Q 984 2175 984 1722 
L 984 0 
L 422 0 
z
" transform="scale(0.015625)"/>
     </defs>
     <use xlink:href="#ArialMT-43"/>
     <use xlink:href="#ArialMT-79" x="72.216797"/>
     <use xlink:href="#ArialMT-74" x="122.216797"/>
     <use xlink:href="#ArialMT-6f" x="150"/>
     <use xlink:href="#ArialMT-70" x="205.615234"/>
     <use xlink:href="#ArialMT-6c" x="261.230469"/>
     <use xlink:href="#ArialMT-61" x="283.447266"/>
     <use xlink:href="#ArialMT-73" x="339.0625"/>
     <use xlink:href="#ArialMT-6d" x="389.0625"/>
    </g>
   </g>
   <g id="text_8">
    <!-- Nuclei -->
    <g style="fill: #262626" transform="translate(674.339714 64.278)scale(0.18 -0.18)">
     <defs>
      <path id="ArialMT-75" d="M 2597 0 
L 2597 488 
Q 2209 -75 1544 -75 
Q 1250 -75 995 37 
Q 741 150 617 320 
Q 494 491 444 738 
Q 409 903 409 1263 
L 409 3319 
L 972 3319 
L 972 1478 
Q 972 1038 1006 884 
Q 1059 663 1231 536 
Q 1403 409 1656 409 
Q 1909 409 2131 539 
Q 2353 669 2445 892 
Q 2538 1116 2538 1541 
L 2538 3319 
L 3100 3319 
L 3100 0 
L 2597 0 
z
" transform="scale(0.015625)"/>
      <path id="ArialMT-63" d="M 2588 1216 
L 3141 1144 
Q 3050 572 2676 248 
Q 2303 -75 1759 -75 
Q 1078 -75 664 370 
Q 250 816 250 1647 
Q 250 2184 428 2587 
Q 606 2991 970 3192 
Q 1334 3394 1763 3394 
Q 2303 3394 2647 3120 
Q 2991 2847 3088 2344 
L 2541 2259 
Q 2463 2594 2264 2762 
Q 2066 2931 1784 2931 
Q 1359 2931 1093 2626 
Q 828 2322 828 1663 
Q 828 994 1084 691 
Q 1341 388 1753 388 
Q 2084 388 2306 591 
Q 2528 794 2588 1216 
z
" transform="scale(0.015625)"/>
      <path id="ArialMT-69" d="M 425 3934 
L 425 4581 
L 988 4581 
L 988 3934 
L 425 3934 
z
M 425 0 
L 425 3319 
L 988 3319 
L 988 0 
L 425 0 
z
" transform="scale(0.015625)"/>
     </defs>
     <use xlink:href="#ArialMT-4e"/>
     <use xlink:href="#ArialMT-75" x="72.216797"/>
     <use xlink:href="#ArialMT-63" x="127.832031"/>
     <use xlink:href="#ArialMT-6c" x="177.832031"/>
     <use xlink:href="#ArialMT-65" x="200.048828"/>
     <use xlink:href="#ArialMT-69" x="255.664062"/>
    </g>
   </g>
  </g>
 </g>
 <defs>
  <clipPath id="p4754cabc98">
   <rect x="120.790625" y="7.2" width="626.408487" height="27.18"/>
  </clipPath>
 </defs>
</svg>
