<?xml version="1.0" encoding="utf-8" standalone="no"?>
<!DOCTYPE svg PUBLIC "-//W3C//DTD SVG 1.1//EN"
  "http://www.w3.org/Graphics/SVG/1.1/DTD/svg11.dtd">
<svg xmlns:xlink="http://www.w3.org/1999/xlink" width="961.646276pt" height="76.400437pt" viewBox="0 0 961.646276 76.400437" xmlns="http://www.w3.org/2000/svg" version="1.1">
 <metadata>
  <rdf:RDF xmlns:dc="http://purl.org/dc/elements/1.1/" xmlns:cc="http://creativecommons.org/ns#" xmlns:rdf="http://www.w3.org/1999/02/22-rdf-syntax-ns#">
   <cc:Work>
    <dc:type rdf:resource="http://purl.org/dc/dcmitype/StillImage"/>
    <dc:date>2023-11-13T11:17:29.867206</dc:date>
    <dc:format>image/svg+xml</dc:format>
    <dc:creator>
     <cc:Agent>
      <dc:title>Matplotlib v3.6.3, https://matplotlib.org/</dc:title>
     </cc:Agent>
    </dc:creator>
   </cc:Work>
  </rdf:RDF>
 </metadata>
 <defs>
  <style type="text/css">*{stroke-linejoin: round; stroke-linecap: butt}</style>
 </defs>
 <g id="figure_1">
  <g id="patch_1">
   <path d="M 0 76.400437 
L 961.646276 76.400437 
L 961.646276 0 
L 0 0 
z
" style="fill: #ffffff"/>
  </g>
  <g id="axes_1">
   <g id="patch_2">
    <path d="M 107.45625 34.92 
L 941.934167 34.92 
L 941.934167 7.2 
L 107.45625 7.2 
z
" style="fill: #ffffff"/>
   </g>
   <g id="matplotlib.axis_1">
    <g id="xtick_1">
     <g id="line2d_1"/>
     <g id="text_1">
      <text style="fill: #262626; font: 15px 'Arial', 'Liberation Sans', 'DejaVu Sans', 'Bitstream Vera Sans', sans-serif; text-anchor: middle" x="109.46704" y="54.756719" transform="rotate(-0 109.46704 54.756719)">1</text>
     </g>
    </g>
    <g id="xtick_2">
     <g id="line2d_2"/>
     <g id="text_2">
      <text style="fill: #262626; font: 15px 'Arial', 'Liberation Sans', 'DejaVu Sans', 'Bitstream Vera Sans', sans-serif; text-anchor: middle" x="433.204256" y="54.756719" transform="rotate(-0 433.204256 54.756719)">162</text>
     </g>
    </g>
    <g id="xtick_3">
     <g id="line2d_3"/>
     <g id="text_3">
      <text style="fill: #262626; font: 15px 'Arial', 'Liberation Sans', 'DejaVu Sans', 'Bitstream Vera Sans', sans-serif; text-anchor: middle" x="787.103325" y="54.756719" transform="rotate(-0 787.103325 54.756719)">338</text>
     </g>
    </g>
    <g id="xtick_4">
     <g id="line2d_4"/>
     <g id="text_4">
      <text style="fill: #262626; font: 15px 'Arial', 'Liberation Sans', 'DejaVu Sans', 'Bitstream Vera Sans', sans-serif; text-anchor: middle" x="941.934167" y="54.756719" transform="rotate(-0 941.934167 54.756719)">415</text>
     </g>
    </g>
   </g>
   <g id="matplotlib.axis_2">
    <g id="ytick_1">
     <g id="line2d_5"/>
     <g id="text_5">
      <text style="fill: #262626; font: 20px 'Arial', 'Liberation Sans', 'DejaVu Sans', 'Bitstream Vera Sans', sans-serif; text-anchor: end" x="98.35625" y="28.217812" transform="rotate(-0 98.35625 28.217812)">Uncoupler</text>
     </g>
    </g>
   </g>
   <g id="PolyCollection_1">
    <path d="M 107.45625 34.92 
L 107.45625 7.2 
L 109.46704 7.2 
L 109.46704 34.92 
L 107.45625 34.92 
z
" clip-path="url(#p5c8529873c)" style="fill: #3c3cff"/>
    <path d="M 109.46704 34.92 
L 109.46704 7.2 
L 111.47783 7.2 
L 111.47783 34.92 
L 109.46704 34.92 
z
" clip-path="url(#p5c8529873c)" style="fill: #2424ff"/>
    <path d="M 111.47783 34.92 
L 111.47783 7.2 
L 113.48862 7.2 
L 113.48862 34.92 
L 111.47783 34.92 
z
" clip-path="url(#p5c8529873c)" style="fill: #2020ff"/>
    <path d="M 113.48862 34.92 
L 113.48862 7.2 
L 115.499411 7.2 
L 115.499411 34.92 
L 113.48862 34.92 
z
" clip-path="url(#p5c8529873c)" style="fill: #1414ff"/>
    <path d="M 115.499411 34.92 
L 115.499411 7.2 
L 117.510201 7.2 
L 117.510201 34.92 
L 115.499411 34.92 
z
" clip-path="url(#p5c8529873c)" style="fill: #0404ff"/>
    <path d="M 117.510201 34.92 
L 117.510201 7.2 
L 119.520991 7.2 
L 119.520991 34.92 
L 117.510201 34.92 
z
" clip-path="url(#p5c8529873c)" style="fill: #5656ff"/>
    <path d="M 119.520991 34.92 
L 119.520991 7.2 
L 121.531781 7.2 
L 121.531781 34.92 
L 119.520991 34.92 
z
" clip-path="url(#p5c8529873c)" style="fill: #ffd2d2"/>
    <path d="M 121.531781 34.92 
L 121.531781 7.2 
L 123.542571 7.2 
L 123.542571 34.92 
L 121.531781 34.92 
z
" clip-path="url(#p5c8529873c)" style="fill: #ffdcdc"/>
    <path d="M 123.542571 34.92 
L 123.542571 7.2 
L 125.553361 7.2 
L 125.553361 34.92 
L 123.542571 34.92 
z
" clip-path="url(#p5c8529873c)" style="fill: #bebeff"/>
    <path d="M 125.553361 34.92 
L 125.553361 7.2 
L 127.564152 7.2 
L 127.564152 34.92 
L 125.553361 34.92 
z
" clip-path="url(#p5c8529873c)" style="fill: #ffcccc"/>
    <path d="M 127.564152 34.92 
L 127.564152 7.2 
L 129.574942 7.2 
L 129.574942 34.92 
L 127.564152 34.92 
z
" clip-path="url(#p5c8529873c)" style="fill: #ffe2e2"/>
    <path d="M 129.574942 34.92 
L 129.574942 7.2 
L 131.585732 7.2 
L 131.585732 34.92 
L 129.574942 34.92 
z
" clip-path="url(#p5c8529873c)" style="fill: #e0e0ff"/>
    <path d="M 131.585732 34.92 
L 131.585732 7.2 
L 133.596522 7.2 
L 133.596522 34.92 
L 131.585732 34.92 
z
" clip-path="url(#p5c8529873c)" style="fill: #ffb6b6"/>
    <path d="M 133.596522 34.92 
L 133.596522 7.2 
L 135.607312 7.2 
L 135.607312 34.92 
L 133.596522 34.92 
z
" clip-path="url(#p5c8529873c)" style="fill: #ffd8d8"/>
    <path d="M 135.607312 34.92 
L 135.607312 7.2 
L 137.618102 7.2 
L 137.618102 34.92 
L 135.607312 34.92 
z
" clip-path="url(#p5c8529873c)" style="fill: #ffd4d4"/>
    <path d="M 137.618102 34.92 
L 137.618102 7.2 
L 139.628893 7.2 
L 139.628893 34.92 
L 137.618102 34.92 
z
" clip-path="url(#p5c8529873c)" style="fill: #fff4f4"/>
    <path d="M 139.628893 34.92 
L 139.628893 7.2 
L 141.639683 7.2 
L 141.639683 34.92 
L 139.628893 34.92 
z
" clip-path="url(#p5c8529873c)" style="fill: #ffdcdc"/>
    <path d="M 141.639683 34.92 
L 141.639683 7.2 
L 143.650473 7.2 
L 143.650473 34.92 
L 141.639683 34.92 
z
" clip-path="url(#p5c8529873c)" style="fill: #fffafa"/>
    <path d="M 143.650473 34.92 
L 143.650473 7.2 
L 145.661263 7.2 
L 145.661263 34.92 
L 143.650473 34.92 
z
" clip-path="url(#p5c8529873c)" style="fill: #ffe2e2"/>
    <path d="M 145.661263 34.92 
L 145.661263 7.2 
L 147.672053 7.2 
L 147.672053 34.92 
L 145.661263 34.92 
z
" clip-path="url(#p5c8529873c)" style="fill: #f2f2ff"/>
    <path d="M 147.672053 34.92 
L 147.672053 7.2 
L 149.682843 7.2 
L 149.682843 34.92 
L 147.672053 34.92 
z
" clip-path="url(#p5c8529873c)" style="fill: #dedeff"/>
    <path d="M 149.682843 34.92 
L 149.682843 7.2 
L 151.693634 7.2 
L 151.693634 34.92 
L 149.682843 34.92 
z
" clip-path="url(#p5c8529873c)" style="fill: #eaeaff"/>
    <path d="M 151.693634 34.92 
L 151.693634 7.2 
L 153.704424 7.2 
L 153.704424 34.92 
L 151.693634 34.92 
z
" clip-path="url(#p5c8529873c)" style="fill: #ffcaca"/>
    <path d="M 153.704424 34.92 
L 153.704424 7.2 
L 155.715214 7.2 
L 155.715214 34.92 
L 153.704424 34.92 
z
" clip-path="url(#p5c8529873c)" style="fill: #a4a4ff"/>
    <path d="M 155.715214 34.92 
L 155.715214 7.2 
L 157.726004 7.2 
L 157.726004 34.92 
L 155.715214 34.92 
z
" clip-path="url(#p5c8529873c)" style="fill: #ffcaca"/>
    <path d="M 157.726004 34.92 
L 157.726004 7.2 
L 159.736794 7.2 
L 159.736794 34.92 
L 157.726004 34.92 
z
" clip-path="url(#p5c8529873c)" style="fill: #ff7a7a"/>
    <path d="M 159.736794 34.92 
L 159.736794 7.2 
L 161.747584 7.2 
L 161.747584 34.92 
L 159.736794 34.92 
z
" clip-path="url(#p5c8529873c)" style="fill: #ffbebe"/>
    <path d="M 161.747584 34.92 
L 161.747584 7.2 
L 163.758375 7.2 
L 163.758375 34.92 
L 161.747584 34.92 
z
" clip-path="url(#p5c8529873c)" style="fill: #e2e2ff"/>
    <path d="M 163.758375 34.92 
L 163.758375 7.2 
L 165.769165 7.2 
L 165.769165 34.92 
L 163.758375 34.92 
z
" clip-path="url(#p5c8529873c)" style="fill: #ffe8e8"/>
    <path d="M 165.769165 34.92 
L 165.769165 7.2 
L 167.779955 7.2 
L 167.779955 34.92 
L 165.769165 34.92 
z
" clip-path="url(#p5c8529873c)" style="fill: #e4e4ff"/>
    <path d="M 167.779955 34.92 
L 167.779955 7.2 
L 169.790745 7.2 
L 169.790745 34.92 
L 167.779955 34.92 
z
" clip-path="url(#p5c8529873c)" style="fill: #ffcccc"/>
    <path d="M 169.790745 34.92 
L 169.790745 7.2 
L 171.801535 7.2 
L 171.801535 34.92 
L 169.790745 34.92 
z
" clip-path="url(#p5c8529873c)" style="fill: #ffa8a8"/>
    <path d="M 171.801535 34.92 
L 171.801535 7.2 
L 173.812325 7.2 
L 173.812325 34.92 
L 171.801535 34.92 
z
" clip-path="url(#p5c8529873c)" style="fill: #ffd6d6"/>
    <path d="M 173.812325 34.92 
L 173.812325 7.2 
L 175.823115 7.2 
L 175.823115 34.92 
L 173.812325 34.92 
z
" clip-path="url(#p5c8529873c)" style="fill: #dcdcff"/>
    <path d="M 175.823115 34.92 
L 175.823115 7.2 
L 177.833906 7.2 
L 177.833906 34.92 
L 175.823115 34.92 
z
" clip-path="url(#p5c8529873c)" style="fill: #ffeaea"/>
    <path d="M 177.833906 34.92 
L 177.833906 7.2 
L 179.844696 7.2 
L 179.844696 34.92 
L 177.833906 34.92 
z
" clip-path="url(#p5c8529873c)" style="fill: #c6c6ff"/>
    <path d="M 179.844696 34.92 
L 179.844696 7.2 
L 181.855486 7.2 
L 181.855486 34.92 
L 179.844696 34.92 
z
" clip-path="url(#p5c8529873c)" style="fill: #b4b4ff"/>
    <path d="M 181.855486 34.92 
L 181.855486 7.2 
L 183.866276 7.2 
L 183.866276 34.92 
L 181.855486 34.92 
z
" clip-path="url(#p5c8529873c)" style="fill: #ffcccc"/>
    <path d="M 183.866276 34.92 
L 183.866276 7.2 
L 185.877066 7.2 
L 185.877066 34.92 
L 183.866276 34.92 
z
" clip-path="url(#p5c8529873c)" style="fill: #a4a4ff"/>
    <path d="M 185.877066 34.92 
L 185.877066 7.2 
L 187.887856 7.2 
L 187.887856 34.92 
L 185.877066 34.92 
z
" clip-path="url(#p5c8529873c)" style="fill: #ffcaca"/>
    <path d="M 187.887856 34.92 
L 187.887856 7.2 
L 189.898647 7.2 
L 189.898647 34.92 
L 187.887856 34.92 
z
" clip-path="url(#p5c8529873c)" style="fill: #e0e0ff"/>
    <path d="M 189.898647 34.92 
L 189.898647 7.2 
L 191.909437 7.2 
L 191.909437 34.92 
L 189.898647 34.92 
z
" clip-path="url(#p5c8529873c)" style="fill: #c4c4ff"/>
    <path d="M 191.909437 34.92 
L 191.909437 7.2 
L 193.920227 7.2 
L 193.920227 34.92 
L 191.909437 34.92 
z
" clip-path="url(#p5c8529873c)" style="fill: #9e9eff"/>
    <path d="M 193.920227 34.92 
L 193.920227 7.2 
L 195.931017 7.2 
L 195.931017 34.92 
L 193.920227 34.92 
z
" clip-path="url(#p5c8529873c)" style="fill: #e8e8ff"/>
    <path d="M 195.931017 34.92 
L 195.931017 7.2 
L 197.941807 7.2 
L 197.941807 34.92 
L 195.931017 34.92 
z
" clip-path="url(#p5c8529873c)" style="fill: #bebeff"/>
    <path d="M 197.941807 34.92 
L 197.941807 7.2 
L 199.952597 7.2 
L 199.952597 34.92 
L 197.941807 34.92 
z
" clip-path="url(#p5c8529873c)" style="fill: #ffb6b6"/>
    <path d="M 199.952597 34.92 
L 199.952597 7.2 
L 201.963388 7.2 
L 201.963388 34.92 
L 199.952597 34.92 
z
" clip-path="url(#p5c8529873c)" style="fill: #ffa6a6"/>
    <path d="M 201.963388 34.92 
L 201.963388 7.2 
L 203.974178 7.2 
L 203.974178 34.92 
L 201.963388 34.92 
z
" clip-path="url(#p5c8529873c)" style="fill: #ffb2b2"/>
    <path d="M 203.974178 34.92 
L 203.974178 7.2 
L 205.984968 7.2 
L 205.984968 34.92 
L 203.974178 34.92 
z
" clip-path="url(#p5c8529873c)" style="fill: #ffb6b6"/>
    <path d="M 205.984968 34.92 
L 205.984968 7.2 
L 207.995758 7.2 
L 207.995758 34.92 
L 205.984968 34.92 
z
" clip-path="url(#p5c8529873c)" style="fill: #ffcccc"/>
    <path d="M 207.995758 34.92 
L 207.995758 7.2 
L 210.006548 7.2 
L 210.006548 34.92 
L 207.995758 34.92 
z
" clip-path="url(#p5c8529873c)" style="fill: #ffd2d2"/>
    <path d="M 210.006548 34.92 
L 210.006548 7.2 
L 212.017338 7.2 
L 212.017338 34.92 
L 210.006548 34.92 
z
" clip-path="url(#p5c8529873c)" style="fill: #b6b6ff"/>
    <path d="M 212.017338 34.92 
L 212.017338 7.2 
L 214.028129 7.2 
L 214.028129 34.92 
L 212.017338 34.92 
z
" clip-path="url(#p5c8529873c)" style="fill: #bcbcff"/>
    <path d="M 214.028129 34.92 
L 214.028129 7.2 
L 216.038919 7.2 
L 216.038919 34.92 
L 214.028129 34.92 
z
" clip-path="url(#p5c8529873c)" style="fill: #ffc2c2"/>
    <path d="M 216.038919 34.92 
L 216.038919 7.2 
L 218.049709 7.2 
L 218.049709 34.92 
L 216.038919 34.92 
z
" clip-path="url(#p5c8529873c)" style="fill: #ffc4c4"/>
    <path d="M 218.049709 34.92 
L 218.049709 7.2 
L 220.060499 7.2 
L 220.060499 34.92 
L 218.049709 34.92 
z
" clip-path="url(#p5c8529873c)" style="fill: #ffecec"/>
    <path d="M 220.060499 34.92 
L 220.060499 7.2 
L 222.071289 7.2 
L 222.071289 34.92 
L 220.060499 34.92 
z
" clip-path="url(#p5c8529873c)" style="fill: #ff9696"/>
    <path d="M 222.071289 34.92 
L 222.071289 7.2 
L 224.082079 7.2 
L 224.082079 34.92 
L 222.071289 34.92 
z
" clip-path="url(#p5c8529873c)" style="fill: #ffbebe"/>
    <path d="M 224.082079 34.92 
L 224.082079 7.2 
L 226.09287 7.2 
L 226.09287 34.92 
L 224.082079 34.92 
z
" clip-path="url(#p5c8529873c)" style="fill: #e4e4ff"/>
    <path d="M 226.09287 34.92 
L 226.09287 7.2 
L 228.10366 7.2 
L 228.10366 34.92 
L 226.09287 34.92 
z
" clip-path="url(#p5c8529873c)" style="fill: #ffe2e2"/>
    <path d="M 228.10366 34.92 
L 228.10366 7.2 
L 230.11445 7.2 
L 230.11445 34.92 
L 228.10366 34.92 
z
" clip-path="url(#p5c8529873c)" style="fill: #e2e2ff"/>
    <path d="M 230.11445 34.92 
L 230.11445 7.2 
L 232.12524 7.2 
L 232.12524 34.92 
L 230.11445 34.92 
z
" clip-path="url(#p5c8529873c)" style="fill: #d0d0ff"/>
    <path d="M 232.12524 34.92 
L 232.12524 7.2 
L 234.13603 7.2 
L 234.13603 34.92 
L 232.12524 34.92 
z
" clip-path="url(#p5c8529873c)" style="fill: #d8d8ff"/>
    <path d="M 234.13603 34.92 
L 234.13603 7.2 
L 236.14682 7.2 
L 236.14682 34.92 
L 234.13603 34.92 
z
" clip-path="url(#p5c8529873c)" style="fill: #fffefe"/>
    <path d="M 236.14682 34.92 
L 236.14682 7.2 
L 238.157611 7.2 
L 238.157611 34.92 
L 236.14682 34.92 
z
" clip-path="url(#p5c8529873c)" style="fill: #ffbcbc"/>
    <path d="M 238.157611 34.92 
L 238.157611 7.2 
L 240.168401 7.2 
L 240.168401 34.92 
L 238.157611 34.92 
z
" clip-path="url(#p5c8529873c)" style="fill: #ffd8d8"/>
    <path d="M 240.168401 34.92 
L 240.168401 7.2 
L 242.179191 7.2 
L 242.179191 34.92 
L 240.168401 34.92 
z
" clip-path="url(#p5c8529873c)" style="fill: #ffd0d0"/>
    <path d="M 242.179191 34.92 
L 242.179191 7.2 
L 244.189981 7.2 
L 244.189981 34.92 
L 242.179191 34.92 
z
" clip-path="url(#p5c8529873c)" style="fill: #ffc2c2"/>
    <path d="M 244.189981 34.92 
L 244.189981 7.2 
L 246.200771 7.2 
L 246.200771 34.92 
L 244.189981 34.92 
z
" clip-path="url(#p5c8529873c)" style="fill: #ffcaca"/>
    <path d="M 246.200771 34.92 
L 246.200771 7.2 
L 248.211561 7.2 
L 248.211561 34.92 
L 246.200771 34.92 
z
" clip-path="url(#p5c8529873c)" style="fill: #ffcccc"/>
    <path d="M 248.211561 34.92 
L 248.211561 7.2 
L 250.222351 7.2 
L 250.222351 34.92 
L 248.211561 34.92 
z
" clip-path="url(#p5c8529873c)" style="fill: #ffe8e8"/>
    <path d="M 250.222351 34.92 
L 250.222351 7.2 
L 252.233142 7.2 
L 252.233142 34.92 
L 250.222351 34.92 
z
" clip-path="url(#p5c8529873c)" style="fill: #ffd0d0"/>
    <path d="M 252.233142 34.92 
L 252.233142 7.2 
L 254.243932 7.2 
L 254.243932 34.92 
L 252.233142 34.92 
z
" clip-path="url(#p5c8529873c)" style="fill: #ff8c8c"/>
    <path d="M 254.243932 34.92 
L 254.243932 7.2 
L 256.254722 7.2 
L 256.254722 34.92 
L 254.243932 34.92 
z
" clip-path="url(#p5c8529873c)" style="fill: #ffcaca"/>
    <path d="M 256.254722 34.92 
L 256.254722 7.2 
L 258.265512 7.2 
L 258.265512 34.92 
L 256.254722 34.92 
z
" clip-path="url(#p5c8529873c)" style="fill: #ffdada"/>
    <path d="M 258.265512 34.92 
L 258.265512 7.2 
L 260.276302 7.2 
L 260.276302 34.92 
L 258.265512 34.92 
z
" clip-path="url(#p5c8529873c)" style="fill: #f6f6ff"/>
    <path d="M 260.276302 34.92 
L 260.276302 7.2 
L 262.287092 7.2 
L 262.287092 34.92 
L 260.276302 34.92 
z
" clip-path="url(#p5c8529873c)" style="fill: #ffe0e0"/>
    <path d="M 262.287092 34.92 
L 262.287092 7.2 
L 264.297883 7.2 
L 264.297883 34.92 
L 262.287092 34.92 
z
" clip-path="url(#p5c8529873c)" style="fill: #ffdcdc"/>
    <path d="M 264.297883 34.92 
L 264.297883 7.2 
L 266.308673 7.2 
L 266.308673 34.92 
L 264.297883 34.92 
z
" clip-path="url(#p5c8529873c)" style="fill: #e4e4ff"/>
    <path d="M 266.308673 34.92 
L 266.308673 7.2 
L 268.319463 7.2 
L 268.319463 34.92 
L 266.308673 34.92 
z
" clip-path="url(#p5c8529873c)" style="fill: #bcbcff"/>
    <path d="M 268.319463 34.92 
L 268.319463 7.2 
L 270.330253 7.2 
L 270.330253 34.92 
L 268.319463 34.92 
z
" clip-path="url(#p5c8529873c)" style="fill: #c0c0ff"/>
    <path d="M 270.330253 34.92 
L 270.330253 7.2 
L 272.341043 7.2 
L 272.341043 34.92 
L 270.330253 34.92 
z
" clip-path="url(#p5c8529873c)" style="fill: #e8e8ff"/>
    <path d="M 272.341043 34.92 
L 272.341043 7.2 
L 274.351833 7.2 
L 274.351833 34.92 
L 272.341043 34.92 
z
" clip-path="url(#p5c8529873c)" style="fill: #fffafa"/>
    <path d="M 274.351833 34.92 
L 274.351833 7.2 
L 276.362624 7.2 
L 276.362624 34.92 
L 274.351833 34.92 
z
" clip-path="url(#p5c8529873c)" style="fill: #f4f4ff"/>
    <path d="M 276.362624 34.92 
L 276.362624 7.2 
L 278.373414 7.2 
L 278.373414 34.92 
L 276.362624 34.92 
z
" clip-path="url(#p5c8529873c)" style="fill: #f6f6ff"/>
    <path d="M 278.373414 34.92 
L 278.373414 7.2 
L 280.384204 7.2 
L 280.384204 34.92 
L 278.373414 34.92 
z
" clip-path="url(#p5c8529873c)" style="fill: #babaff"/>
    <path d="M 280.384204 34.92 
L 280.384204 7.2 
L 282.394994 7.2 
L 282.394994 34.92 
L 280.384204 34.92 
z
" clip-path="url(#p5c8529873c)" style="fill: #b0b0ff"/>
    <path d="M 282.394994 34.92 
L 282.394994 7.2 
L 284.405784 7.2 
L 284.405784 34.92 
L 282.394994 34.92 
z
" clip-path="url(#p5c8529873c)" style="fill: #b0b0ff"/>
    <path d="M 284.405784 34.92 
L 284.405784 7.2 
L 286.416574 7.2 
L 286.416574 34.92 
L 284.405784 34.92 
z
" clip-path="url(#p5c8529873c)" style="fill: #d4d4ff"/>
    <path d="M 286.416574 34.92 
L 286.416574 7.2 
L 288.427365 7.2 
L 288.427365 34.92 
L 286.416574 34.92 
z
" clip-path="url(#p5c8529873c)" style="fill: #d0d0ff"/>
    <path d="M 288.427365 34.92 
L 288.427365 7.2 
L 290.438155 7.2 
L 290.438155 34.92 
L 288.427365 34.92 
z
" clip-path="url(#p5c8529873c)" style="fill: #d0d0ff"/>
    <path d="M 290.438155 34.92 
L 290.438155 7.2 
L 292.448945 7.2 
L 292.448945 34.92 
L 290.438155 34.92 
z
" clip-path="url(#p5c8529873c)" style="fill: #ff9292"/>
    <path d="M 292.448945 34.92 
L 292.448945 7.2 
L 294.459735 7.2 
L 294.459735 34.92 
L 292.448945 34.92 
z
" clip-path="url(#p5c8529873c)" style="fill: #ffa0a0"/>
    <path d="M 294.459735 34.92 
L 294.459735 7.2 
L 296.470525 7.2 
L 296.470525 34.92 
L 294.459735 34.92 
z
" clip-path="url(#p5c8529873c)" style="fill: #ffdada"/>
    <path d="M 296.470525 34.92 
L 296.470525 7.2 
L 298.481315 7.2 
L 298.481315 34.92 
L 296.470525 34.92 
z
" clip-path="url(#p5c8529873c)" style="fill: #ffc6c6"/>
    <path d="M 298.481315 34.92 
L 298.481315 7.2 
L 300.492106 7.2 
L 300.492106 34.92 
L 298.481315 34.92 
z
" clip-path="url(#p5c8529873c)" style="fill: #ffcaca"/>
    <path d="M 300.492106 34.92 
L 300.492106 7.2 
L 302.502896 7.2 
L 302.502896 34.92 
L 300.492106 34.92 
z
" clip-path="url(#p5c8529873c)" style="fill: #ffb6b6"/>
    <path d="M 302.502896 34.92 
L 302.502896 7.2 
L 304.513686 7.2 
L 304.513686 34.92 
L 302.502896 34.92 
z
" clip-path="url(#p5c8529873c)" style="fill: #ffcece"/>
    <path d="M 304.513686 34.92 
L 304.513686 7.2 
L 306.524476 7.2 
L 306.524476 34.92 
L 304.513686 34.92 
z
" clip-path="url(#p5c8529873c)" style="fill: #ffc4c4"/>
    <path d="M 306.524476 34.92 
L 306.524476 7.2 
L 308.535266 7.2 
L 308.535266 34.92 
L 306.524476 34.92 
z
" clip-path="url(#p5c8529873c)" style="fill: #8888ff"/>
    <path d="M 308.535266 34.92 
L 308.535266 7.2 
L 310.546056 7.2 
L 310.546056 34.92 
L 308.535266 34.92 
z
" clip-path="url(#p5c8529873c)" style="fill: #e8e8ff"/>
    <path d="M 310.546056 34.92 
L 310.546056 7.2 
L 312.556846 7.2 
L 312.556846 34.92 
L 310.546056 34.92 
z
" clip-path="url(#p5c8529873c)" style="fill: #c4c4ff"/>
    <path d="M 312.556846 34.92 
L 312.556846 7.2 
L 314.567637 7.2 
L 314.567637 34.92 
L 312.556846 34.92 
z
" clip-path="url(#p5c8529873c)" style="fill: #e6e6ff"/>
    <path d="M 314.567637 34.92 
L 314.567637 7.2 
L 316.578427 7.2 
L 316.578427 34.92 
L 314.567637 34.92 
z
" clip-path="url(#p5c8529873c)" style="fill: #f2f2ff"/>
    <path d="M 316.578427 34.92 
L 316.578427 7.2 
L 318.589217 7.2 
L 318.589217 34.92 
L 316.578427 34.92 
z
" clip-path="url(#p5c8529873c)" style="fill: #f0f0ff"/>
    <path d="M 318.589217 34.92 
L 318.589217 7.2 
L 320.600007 7.2 
L 320.600007 34.92 
L 318.589217 34.92 
z
" clip-path="url(#p5c8529873c)" style="fill: #ececff"/>
    <path d="M 320.600007 34.92 
L 320.600007 7.2 
L 322.610797 7.2 
L 322.610797 34.92 
L 320.600007 34.92 
z
" clip-path="url(#p5c8529873c)" style="fill: #9292ff"/>
    <path d="M 322.610797 34.92 
L 322.610797 7.2 
L 324.621587 7.2 
L 324.621587 34.92 
L 322.610797 34.92 
z
" clip-path="url(#p5c8529873c)" style="fill: #bcbcff"/>
    <path d="M 324.621587 34.92 
L 324.621587 7.2 
L 326.632378 7.2 
L 326.632378 34.92 
L 324.621587 34.92 
z
" clip-path="url(#p5c8529873c)" style="fill: #ff9898"/>
    <path d="M 326.632378 34.92 
L 326.632378 7.2 
L 328.643168 7.2 
L 328.643168 34.92 
L 326.632378 34.92 
z
" clip-path="url(#p5c8529873c)" style="fill: #ffbebe"/>
    <path d="M 328.643168 34.92 
L 328.643168 7.2 
L 330.653958 7.2 
L 330.653958 34.92 
L 328.643168 34.92 
z
" clip-path="url(#p5c8529873c)" style="fill: #ffc8c8"/>
    <path d="M 330.653958 34.92 
L 330.653958 7.2 
L 332.664748 7.2 
L 332.664748 34.92 
L 330.653958 34.92 
z
" clip-path="url(#p5c8529873c)" style="fill: #ffc4c4"/>
    <path d="M 332.664748 34.92 
L 332.664748 7.2 
L 334.675538 7.2 
L 334.675538 34.92 
L 332.664748 34.92 
z
" clip-path="url(#p5c8529873c)" style="fill: #ffbebe"/>
    <path d="M 334.675538 34.92 
L 334.675538 7.2 
L 336.686328 7.2 
L 336.686328 34.92 
L 334.675538 34.92 
z
" clip-path="url(#p5c8529873c)" style="fill: #ffcaca"/>
    <path d="M 336.686328 34.92 
L 336.686328 7.2 
L 338.697119 7.2 
L 338.697119 34.92 
L 336.686328 34.92 
z
" clip-path="url(#p5c8529873c)" style="fill: #ffc2c2"/>
    <path d="M 338.697119 34.92 
L 338.697119 7.2 
L 340.707909 7.2 
L 340.707909 34.92 
L 338.697119 34.92 
z
" clip-path="url(#p5c8529873c)" style="fill: #ffeeee"/>
    <path d="M 340.707909 34.92 
L 340.707909 7.2 
L 342.718699 7.2 
L 342.718699 34.92 
L 340.707909 34.92 
z
" clip-path="url(#p5c8529873c)" style="fill: #ffd6d6"/>
    <path d="M 342.718699 34.92 
L 342.718699 7.2 
L 344.729489 7.2 
L 344.729489 34.92 
L 342.718699 34.92 
z
" clip-path="url(#p5c8529873c)" style="fill: #d8d8ff"/>
    <path d="M 344.729489 34.92 
L 344.729489 7.2 
L 346.740279 7.2 
L 346.740279 34.92 
L 344.729489 34.92 
z
" clip-path="url(#p5c8529873c)" style="fill: #e2e2ff"/>
    <path d="M 346.740279 34.92 
L 346.740279 7.2 
L 348.751069 7.2 
L 348.751069 34.92 
L 346.740279 34.92 
z
" clip-path="url(#p5c8529873c)" style="fill: #d8d8ff"/>
    <path d="M 348.751069 34.92 
L 348.751069 7.2 
L 350.76186 7.2 
L 350.76186 34.92 
L 348.751069 34.92 
z
" clip-path="url(#p5c8529873c)" style="fill: #dcdcff"/>
    <path d="M 350.76186 34.92 
L 350.76186 7.2 
L 352.77265 7.2 
L 352.77265 34.92 
L 350.76186 34.92 
z
" clip-path="url(#p5c8529873c)" style="fill: #ffc6c6"/>
    <path d="M 352.77265 34.92 
L 352.77265 7.2 
L 354.78344 7.2 
L 354.78344 34.92 
L 352.77265 34.92 
z
" clip-path="url(#p5c8529873c)" style="fill: #ffbebe"/>
    <path d="M 354.78344 34.92 
L 354.78344 7.2 
L 356.79423 7.2 
L 356.79423 34.92 
L 354.78344 34.92 
z
" clip-path="url(#p5c8529873c)" style="fill: #ffc2c2"/>
    <path d="M 356.79423 34.92 
L 356.79423 7.2 
L 358.80502 7.2 
L 358.80502 34.92 
L 356.79423 34.92 
z
" clip-path="url(#p5c8529873c)" style="fill: #ffd8d8"/>
    <path d="M 358.80502 34.92 
L 358.80502 7.2 
L 360.81581 7.2 
L 360.81581 34.92 
L 358.80502 34.92 
z
" clip-path="url(#p5c8529873c)" style="fill: #ffd0d0"/>
    <path d="M 360.81581 34.92 
L 360.81581 7.2 
L 362.826601 7.2 
L 362.826601 34.92 
L 360.81581 34.92 
z
" clip-path="url(#p5c8529873c)" style="fill: #ffd6d6"/>
    <path d="M 362.826601 34.92 
L 362.826601 7.2 
L 364.837391 7.2 
L 364.837391 34.92 
L 362.826601 34.92 
z
" clip-path="url(#p5c8529873c)" style="fill: #fffafa"/>
    <path d="M 364.837391 34.92 
L 364.837391 7.2 
L 366.848181 7.2 
L 366.848181 34.92 
L 364.837391 34.92 
z
" clip-path="url(#p5c8529873c)" style="fill: #fff8f8"/>
    <path d="M 366.848181 34.92 
L 366.848181 7.2 
L 368.858971 7.2 
L 368.858971 34.92 
L 366.848181 34.92 
z
" clip-path="url(#p5c8529873c)" style="fill: #b0b0ff"/>
    <path d="M 368.858971 34.92 
L 368.858971 7.2 
L 370.869761 7.2 
L 370.869761 34.92 
L 368.858971 34.92 
z
" clip-path="url(#p5c8529873c)" style="fill: #9494ff"/>
    <path d="M 370.869761 34.92 
L 370.869761 7.2 
L 372.880551 7.2 
L 372.880551 34.92 
L 370.869761 34.92 
z
" clip-path="url(#p5c8529873c)" style="fill: #9090ff"/>
    <path d="M 372.880551 34.92 
L 372.880551 7.2 
L 374.891342 7.2 
L 374.891342 34.92 
L 372.880551 34.92 
z
" clip-path="url(#p5c8529873c)" style="fill: #f0f0ff"/>
    <path d="M 374.891342 34.92 
L 374.891342 7.2 
L 376.902132 7.2 
L 376.902132 34.92 
L 374.891342 34.92 
z
" clip-path="url(#p5c8529873c)" style="fill: #9e9eff"/>
    <path d="M 376.902132 34.92 
L 376.902132 7.2 
L 378.912922 7.2 
L 378.912922 34.92 
L 376.902132 34.92 
z
" clip-path="url(#p5c8529873c)" style="fill: #b8b8ff"/>
    <path d="M 378.912922 34.92 
L 378.912922 7.2 
L 380.923712 7.2 
L 380.923712 34.92 
L 378.912922 34.92 
z
" clip-path="url(#p5c8529873c)" style="fill: #a2a2ff"/>
    <path d="M 380.923712 34.92 
L 380.923712 7.2 
L 382.934502 7.2 
L 382.934502 34.92 
L 380.923712 34.92 
z
" clip-path="url(#p5c8529873c)" style="fill: #b6b6ff"/>
    <path d="M 382.934502 34.92 
L 382.934502 7.2 
L 384.945292 7.2 
L 384.945292 34.92 
L 382.934502 34.92 
z
" clip-path="url(#p5c8529873c)" style="fill: #aeaeff"/>
    <path d="M 384.945292 34.92 
L 384.945292 7.2 
L 386.956082 7.2 
L 386.956082 34.92 
L 384.945292 34.92 
z
" clip-path="url(#p5c8529873c)" style="fill: #b4b4ff"/>
    <path d="M 386.956082 34.92 
L 386.956082 7.2 
L 388.966873 7.2 
L 388.966873 34.92 
L 386.956082 34.92 
z
" clip-path="url(#p5c8529873c)" style="fill: #ffa2a2"/>
    <path d="M 388.966873 34.92 
L 388.966873 7.2 
L 390.977663 7.2 
L 390.977663 34.92 
L 388.966873 34.92 
z
" clip-path="url(#p5c8529873c)" style="fill: #ffb8b8"/>
    <path d="M 390.977663 34.92 
L 390.977663 7.2 
L 392.988453 7.2 
L 392.988453 34.92 
L 390.977663 34.92 
z
" clip-path="url(#p5c8529873c)" style="fill: #ffacac"/>
    <path d="M 392.988453 34.92 
L 392.988453 7.2 
L 394.999243 7.2 
L 394.999243 34.92 
L 392.988453 34.92 
z
" clip-path="url(#p5c8529873c)" style="fill: #ffcccc"/>
    <path d="M 394.999243 34.92 
L 394.999243 7.2 
L 397.010033 7.2 
L 397.010033 34.92 
L 394.999243 34.92 
z
" clip-path="url(#p5c8529873c)" style="fill: #ffcece"/>
    <path d="M 397.010033 34.92 
L 397.010033 7.2 
L 399.020823 7.2 
L 399.020823 34.92 
L 397.010033 34.92 
z
" clip-path="url(#p5c8529873c)" style="fill: #ffcccc"/>
    <path d="M 399.020823 34.92 
L 399.020823 7.2 
L 401.031614 7.2 
L 401.031614 34.92 
L 399.020823 34.92 
z
" clip-path="url(#p5c8529873c)" style="fill: #ffe2e2"/>
    <path d="M 401.031614 34.92 
L 401.031614 7.2 
L 403.042404 7.2 
L 403.042404 34.92 
L 401.031614 34.92 
z
" clip-path="url(#p5c8529873c)" style="fill: #ffd4d4"/>
    <path d="M 403.042404 34.92 
L 403.042404 7.2 
L 405.053194 7.2 
L 405.053194 34.92 
L 403.042404 34.92 
z
" clip-path="url(#p5c8529873c)" style="fill: #ffd4d4"/>
    <path d="M 405.053194 34.92 
L 405.053194 7.2 
L 407.063984 7.2 
L 407.063984 34.92 
L 405.053194 34.92 
z
" clip-path="url(#p5c8529873c)" style="fill: #ffdada"/>
    <path d="M 407.063984 34.92 
L 407.063984 7.2 
L 409.074774 7.2 
L 409.074774 34.92 
L 407.063984 34.92 
z
" clip-path="url(#p5c8529873c)" style="fill: #ffd6d6"/>
    <path d="M 409.074774 34.92 
L 409.074774 7.2 
L 411.085564 7.2 
L 411.085564 34.92 
L 409.074774 34.92 
z
" clip-path="url(#p5c8529873c)" style="fill: #ffd8d8"/>
    <path d="M 411.085564 34.92 
L 411.085564 7.2 
L 413.096355 7.2 
L 413.096355 34.92 
L 411.085564 34.92 
z
" clip-path="url(#p5c8529873c)" style="fill: #fff0f0"/>
    <path d="M 413.096355 34.92 
L 413.096355 7.2 
L 415.107145 7.2 
L 415.107145 34.92 
L 413.096355 34.92 
z
" clip-path="url(#p5c8529873c)" style="fill: #ffecec"/>
    <path d="M 415.107145 34.92 
L 415.107145 7.2 
L 417.117935 7.2 
L 417.117935 34.92 
L 415.107145 34.92 
z
" clip-path="url(#p5c8529873c)" style="fill: #ffd8d8"/>
    <path d="M 417.117935 34.92 
L 417.117935 7.2 
L 419.128725 7.2 
L 419.128725 34.92 
L 417.117935 34.92 
z
" clip-path="url(#p5c8529873c)" style="fill: #ffd4d4"/>
    <path d="M 419.128725 34.92 
L 419.128725 7.2 
L 421.139515 7.2 
L 421.139515 34.92 
L 419.128725 34.92 
z
" clip-path="url(#p5c8529873c)" style="fill: #fff4f4"/>
    <path d="M 421.139515 34.92 
L 421.139515 7.2 
L 423.150305 7.2 
L 423.150305 34.92 
L 421.139515 34.92 
z
" clip-path="url(#p5c8529873c)" style="fill: #ffeeee"/>
    <path d="M 423.150305 34.92 
L 423.150305 7.2 
L 425.161096 7.2 
L 425.161096 34.92 
L 423.150305 34.92 
z
" clip-path="url(#p5c8529873c)" style="fill: #fff0f0"/>
    <path d="M 425.161096 34.92 
L 425.161096 7.2 
L 427.171886 7.2 
L 427.171886 34.92 
L 425.161096 34.92 
z
" clip-path="url(#p5c8529873c)" style="fill: #ffd4d4"/>
    <path d="M 427.171886 34.92 
L 427.171886 7.2 
L 429.182676 7.2 
L 429.182676 34.92 
L 427.171886 34.92 
z
" clip-path="url(#p5c8529873c)" style="fill: #ffd8d8"/>
    <path d="M 429.182676 34.92 
L 429.182676 7.2 
L 431.193466 7.2 
L 431.193466 34.92 
L 429.182676 34.92 
z
" clip-path="url(#p5c8529873c)" style="fill: #ffd8d8"/>
    <path d="M 431.193466 34.92 
L 431.193466 7.2 
L 433.204256 7.2 
L 433.204256 34.92 
L 431.193466 34.92 
z
" clip-path="url(#p5c8529873c)" style="fill: #4848ff"/>
    <path d="M 433.204256 34.92 
L 433.204256 7.2 
L 435.215046 7.2 
L 435.215046 34.92 
L 433.204256 34.92 
z
" clip-path="url(#p5c8529873c)" style="fill: #1414ff"/>
    <path d="M 435.215046 34.92 
L 435.215046 7.2 
L 437.225837 7.2 
L 437.225837 34.92 
L 435.215046 34.92 
z
" clip-path="url(#p5c8529873c)" style="fill: #1e1eff"/>
    <path d="M 437.225837 34.92 
L 437.225837 7.2 
L 439.236627 7.2 
L 439.236627 34.92 
L 437.225837 34.92 
z
" clip-path="url(#p5c8529873c)" style="fill: #4c4cff"/>
    <path d="M 439.236627 34.92 
L 439.236627 7.2 
L 441.247417 7.2 
L 441.247417 34.92 
L 439.236627 34.92 
z
" clip-path="url(#p5c8529873c)" style="fill: #ffbaba"/>
    <path d="M 441.247417 34.92 
L 441.247417 7.2 
L 443.258207 7.2 
L 443.258207 34.92 
L 441.247417 34.92 
z
" clip-path="url(#p5c8529873c)" style="fill: #ffcccc"/>
    <path d="M 443.258207 34.92 
L 443.258207 7.2 
L 445.268997 7.2 
L 445.268997 34.92 
L 443.258207 34.92 
z
" clip-path="url(#p5c8529873c)" style="fill: #e4e4ff"/>
    <path d="M 445.268997 34.92 
L 445.268997 7.2 
L 447.279787 7.2 
L 447.279787 34.92 
L 445.268997 34.92 
z
" clip-path="url(#p5c8529873c)" style="fill: #ffd6d6"/>
    <path d="M 447.279787 34.92 
L 447.279787 7.2 
L 449.290577 7.2 
L 449.290577 34.92 
L 447.279787 34.92 
z
" clip-path="url(#p5c8529873c)" style="fill: #ffeaea"/>
    <path d="M 449.290577 34.92 
L 449.290577 7.2 
L 451.301368 7.2 
L 451.301368 34.92 
L 449.290577 34.92 
z
" clip-path="url(#p5c8529873c)" style="fill: #ff9c9c"/>
    <path d="M 451.301368 34.92 
L 451.301368 7.2 
L 453.312158 7.2 
L 453.312158 34.92 
L 451.301368 34.92 
z
" clip-path="url(#p5c8529873c)" style="fill: #ffdada"/>
    <path d="M 453.312158 34.92 
L 453.312158 7.2 
L 455.322948 7.2 
L 455.322948 34.92 
L 453.312158 34.92 
z
" clip-path="url(#p5c8529873c)" style="fill: #ffc2c2"/>
    <path d="M 455.322948 34.92 
L 455.322948 7.2 
L 457.333738 7.2 
L 457.333738 34.92 
L 455.322948 34.92 
z
" clip-path="url(#p5c8529873c)" style="fill: #fff2f2"/>
    <path d="M 457.333738 34.92 
L 457.333738 7.2 
L 459.344528 7.2 
L 459.344528 34.92 
L 457.333738 34.92 
z
" clip-path="url(#p5c8529873c)" style="fill: #ffecec"/>
    <path d="M 459.344528 34.92 
L 459.344528 7.2 
L 461.355318 7.2 
L 461.355318 34.92 
L 459.344528 34.92 
z
" clip-path="url(#p5c8529873c)" style="fill: #ffeeee"/>
    <path d="M 461.355318 34.92 
L 461.355318 7.2 
L 463.366109 7.2 
L 463.366109 34.92 
L 461.355318 34.92 
z
" clip-path="url(#p5c8529873c)" style="fill: #ffcece"/>
    <path d="M 463.366109 34.92 
L 463.366109 7.2 
L 465.376899 7.2 
L 465.376899 34.92 
L 463.366109 34.92 
z
" clip-path="url(#p5c8529873c)" style="fill: #ffdcdc"/>
    <path d="M 465.376899 34.92 
L 465.376899 7.2 
L 467.387689 7.2 
L 467.387689 34.92 
L 465.376899 34.92 
z
" clip-path="url(#p5c8529873c)" style="fill: #f0f0ff"/>
    <path d="M 467.387689 34.92 
L 467.387689 7.2 
L 469.398479 7.2 
L 469.398479 34.92 
L 467.387689 34.92 
z
" clip-path="url(#p5c8529873c)" style="fill: #ececff"/>
    <path d="M 469.398479 34.92 
L 469.398479 7.2 
L 471.409269 7.2 
L 471.409269 34.92 
L 469.398479 34.92 
z
" clip-path="url(#p5c8529873c)" style="fill: #d6d6ff"/>
    <path d="M 471.409269 34.92 
L 471.409269 7.2 
L 473.420059 7.2 
L 473.420059 34.92 
L 471.409269 34.92 
z
" clip-path="url(#p5c8529873c)" style="fill: #e0e0ff"/>
    <path d="M 473.420059 34.92 
L 473.420059 7.2 
L 475.43085 7.2 
L 475.43085 34.92 
L 473.420059 34.92 
z
" clip-path="url(#p5c8529873c)" style="fill: #fffefe"/>
    <path d="M 475.43085 34.92 
L 475.43085 7.2 
L 477.44164 7.2 
L 477.44164 34.92 
L 475.43085 34.92 
z
" clip-path="url(#p5c8529873c)" style="fill: #fffefe"/>
    <path d="M 477.44164 34.92 
L 477.44164 7.2 
L 479.45243 7.2 
L 479.45243 34.92 
L 477.44164 34.92 
z
" clip-path="url(#p5c8529873c)" style="fill: #fffefe"/>
    <path d="M 479.45243 34.92 
L 479.45243 7.2 
L 481.46322 7.2 
L 481.46322 34.92 
L 479.45243 34.92 
z
" clip-path="url(#p5c8529873c)" style="fill: #fffefe"/>
    <path d="M 481.46322 34.92 
L 481.46322 7.2 
L 483.47401 7.2 
L 483.47401 34.92 
L 481.46322 34.92 
z
" clip-path="url(#p5c8529873c)" style="fill: #e8e8ff"/>
    <path d="M 483.47401 34.92 
L 483.47401 7.2 
L 485.4848 7.2 
L 485.4848 34.92 
L 483.47401 34.92 
z
" clip-path="url(#p5c8529873c)" style="fill: #ffa2a2"/>
    <path d="M 485.4848 34.92 
L 485.4848 7.2 
L 487.495591 7.2 
L 487.495591 34.92 
L 485.4848 34.92 
z
" clip-path="url(#p5c8529873c)" style="fill: #d6d6ff"/>
    <path d="M 487.495591 34.92 
L 487.495591 7.2 
L 489.506381 7.2 
L 489.506381 34.92 
L 487.495591 34.92 
z
" clip-path="url(#p5c8529873c)" style="fill: #ceceff"/>
    <path d="M 489.506381 34.92 
L 489.506381 7.2 
L 491.517171 7.2 
L 491.517171 34.92 
L 489.506381 34.92 
z
" clip-path="url(#p5c8529873c)" style="fill: #c8c8ff"/>
    <path d="M 491.517171 34.92 
L 491.517171 7.2 
L 493.527961 7.2 
L 493.527961 34.92 
L 491.517171 34.92 
z
" clip-path="url(#p5c8529873c)" style="fill: #babaff"/>
    <path d="M 493.527961 34.92 
L 493.527961 7.2 
L 495.538751 7.2 
L 495.538751 34.92 
L 493.527961 34.92 
z
" clip-path="url(#p5c8529873c)" style="fill: #a2a2ff"/>
    <path d="M 495.538751 34.92 
L 495.538751 7.2 
L 497.549541 7.2 
L 497.549541 34.92 
L 495.538751 34.92 
z
" clip-path="url(#p5c8529873c)" style="fill: #eaeaff"/>
    <path d="M 497.549541 34.92 
L 497.549541 7.2 
L 499.560332 7.2 
L 499.560332 34.92 
L 497.549541 34.92 
z
" clip-path="url(#p5c8529873c)" style="fill: #a8a8ff"/>
    <path d="M 499.560332 34.92 
L 499.560332 7.2 
L 501.571122 7.2 
L 501.571122 34.92 
L 499.560332 34.92 
z
" clip-path="url(#p5c8529873c)" style="fill: #fafaff"/>
    <path d="M 501.571122 34.92 
L 501.571122 7.2 
L 503.581912 7.2 
L 503.581912 34.92 
L 501.571122 34.92 
z
" clip-path="url(#p5c8529873c)" style="fill: #b0b0ff"/>
    <path d="M 503.581912 34.92 
L 503.581912 7.2 
L 505.592702 7.2 
L 505.592702 34.92 
L 503.581912 34.92 
z
" clip-path="url(#p5c8529873c)" style="fill: #ececff"/>
    <path d="M 505.592702 34.92 
L 505.592702 7.2 
L 507.603492 7.2 
L 507.603492 34.92 
L 505.592702 34.92 
z
" clip-path="url(#p5c8529873c)" style="fill: #c4c4ff"/>
    <path d="M 507.603492 34.92 
L 507.603492 7.2 
L 509.614282 7.2 
L 509.614282 34.92 
L 507.603492 34.92 
z
" clip-path="url(#p5c8529873c)" style="fill: #ffc2c2"/>
    <path d="M 509.614282 34.92 
L 509.614282 7.2 
L 511.625072 7.2 
L 511.625072 34.92 
L 509.614282 34.92 
z
" clip-path="url(#p5c8529873c)" style="fill: #b0b0ff"/>
    <path d="M 511.625072 34.92 
L 511.625072 7.2 
L 513.635863 7.2 
L 513.635863 34.92 
L 511.625072 34.92 
z
" clip-path="url(#p5c8529873c)" style="fill: #ff8686"/>
    <path d="M 513.635863 34.92 
L 513.635863 7.2 
L 515.646653 7.2 
L 515.646653 34.92 
L 513.635863 34.92 
z
" clip-path="url(#p5c8529873c)" style="fill: #ff7272"/>
    <path d="M 515.646653 34.92 
L 515.646653 7.2 
L 517.657443 7.2 
L 517.657443 34.92 
L 515.646653 34.92 
z
" clip-path="url(#p5c8529873c)" style="fill: #ff9c9c"/>
    <path d="M 517.657443 34.92 
L 517.657443 7.2 
L 519.668233 7.2 
L 519.668233 34.92 
L 517.657443 34.92 
z
" clip-path="url(#p5c8529873c)" style="fill: #ffb2b2"/>
    <path d="M 519.668233 34.92 
L 519.668233 7.2 
L 521.679023 7.2 
L 521.679023 34.92 
L 519.668233 34.92 
z
" clip-path="url(#p5c8529873c)" style="fill: #ffc0c0"/>
    <path d="M 521.679023 34.92 
L 521.679023 7.2 
L 523.689813 7.2 
L 523.689813 34.92 
L 521.679023 34.92 
z
" clip-path="url(#p5c8529873c)" style="fill: #ffd8d8"/>
    <path d="M 523.689813 34.92 
L 523.689813 7.2 
L 525.700604 7.2 
L 525.700604 34.92 
L 523.689813 34.92 
z
" clip-path="url(#p5c8529873c)" style="fill: #c4c4ff"/>
    <path d="M 525.700604 34.92 
L 525.700604 7.2 
L 527.711394 7.2 
L 527.711394 34.92 
L 525.700604 34.92 
z
" clip-path="url(#p5c8529873c)" style="fill: #ff9494"/>
    <path d="M 527.711394 34.92 
L 527.711394 7.2 
L 529.722184 7.2 
L 529.722184 34.92 
L 527.711394 34.92 
z
" clip-path="url(#p5c8529873c)" style="fill: #ffdede"/>
    <path d="M 529.722184 34.92 
L 529.722184 7.2 
L 531.732974 7.2 
L 531.732974 34.92 
L 529.722184 34.92 
z
" clip-path="url(#p5c8529873c)" style="fill: #ffe6e6"/>
    <path d="M 531.732974 34.92 
L 531.732974 7.2 
L 533.743764 7.2 
L 533.743764 34.92 
L 531.732974 34.92 
z
" clip-path="url(#p5c8529873c)" style="fill: #ff3434"/>
    <path d="M 533.743764 34.92 
L 533.743764 7.2 
L 535.754554 7.2 
L 535.754554 34.92 
L 533.743764 34.92 
z
" clip-path="url(#p5c8529873c)" style="fill: #ffc0c0"/>
    <path d="M 535.754554 34.92 
L 535.754554 7.2 
L 537.765345 7.2 
L 537.765345 34.92 
L 535.754554 34.92 
z
" clip-path="url(#p5c8529873c)" style="fill: #dadaff"/>
    <path d="M 537.765345 34.92 
L 537.765345 7.2 
L 539.776135 7.2 
L 539.776135 34.92 
L 537.765345 34.92 
z
" clip-path="url(#p5c8529873c)" style="fill: #d6d6ff"/>
    <path d="M 539.776135 34.92 
L 539.776135 7.2 
L 541.786925 7.2 
L 541.786925 34.92 
L 539.776135 34.92 
z
" clip-path="url(#p5c8529873c)" style="fill: #ffe4e4"/>
    <path d="M 541.786925 34.92 
L 541.786925 7.2 
L 543.797715 7.2 
L 543.797715 34.92 
L 541.786925 34.92 
z
" clip-path="url(#p5c8529873c)" style="fill: #d2d2ff"/>
    <path d="M 543.797715 34.92 
L 543.797715 7.2 
L 545.808505 7.2 
L 545.808505 34.92 
L 543.797715 34.92 
z
" clip-path="url(#p5c8529873c)" style="fill: #ceceff"/>
    <path d="M 545.808505 34.92 
L 545.808505 7.2 
L 547.819295 7.2 
L 547.819295 34.92 
L 545.808505 34.92 
z
" clip-path="url(#p5c8529873c)" style="fill: #ffe8e8"/>
    <path d="M 547.819295 34.92 
L 547.819295 7.2 
L 549.830086 7.2 
L 549.830086 34.92 
L 547.819295 34.92 
z
" clip-path="url(#p5c8529873c)" style="fill: #ffe6e6"/>
    <path d="M 549.830086 34.92 
L 549.830086 7.2 
L 551.840876 7.2 
L 551.840876 34.92 
L 549.830086 34.92 
z
" clip-path="url(#p5c8529873c)" style="fill: #ffd8d8"/>
    <path d="M 551.840876 34.92 
L 551.840876 7.2 
L 553.851666 7.2 
L 553.851666 34.92 
L 551.840876 34.92 
z
" clip-path="url(#p5c8529873c)" style="fill: #ffdede"/>
    <path d="M 553.851666 34.92 
L 553.851666 7.2 
L 555.862456 7.2 
L 555.862456 34.92 
L 553.851666 34.92 
z
" clip-path="url(#p5c8529873c)" style="fill: #ffcaca"/>
    <path d="M 555.862456 34.92 
L 555.862456 7.2 
L 557.873246 7.2 
L 557.873246 34.92 
L 555.862456 34.92 
z
" clip-path="url(#p5c8529873c)" style="fill: #ffd6d6"/>
    <path d="M 557.873246 34.92 
L 557.873246 7.2 
L 559.884036 7.2 
L 559.884036 34.92 
L 557.873246 34.92 
z
" clip-path="url(#p5c8529873c)" style="fill: #ffd0d0"/>
    <path d="M 559.884036 34.92 
L 559.884036 7.2 
L 561.894827 7.2 
L 561.894827 34.92 
L 559.884036 34.92 
z
" clip-path="url(#p5c8529873c)" style="fill: #ffbcbc"/>
    <path d="M 561.894827 34.92 
L 561.894827 7.2 
L 563.905617 7.2 
L 563.905617 34.92 
L 561.894827 34.92 
z
" clip-path="url(#p5c8529873c)" style="fill: #ffdada"/>
    <path d="M 563.905617 34.92 
L 563.905617 7.2 
L 565.916407 7.2 
L 565.916407 34.92 
L 563.905617 34.92 
z
" clip-path="url(#p5c8529873c)" style="fill: #ffd0d0"/>
    <path d="M 565.916407 34.92 
L 565.916407 7.2 
L 567.927197 7.2 
L 567.927197 34.92 
L 565.916407 34.92 
z
" clip-path="url(#p5c8529873c)" style="fill: #ffc8c8"/>
    <path d="M 567.927197 34.92 
L 567.927197 7.2 
L 569.937987 7.2 
L 569.937987 34.92 
L 567.927197 34.92 
z
" clip-path="url(#p5c8529873c)" style="fill: #ffcccc"/>
    <path d="M 569.937987 34.92 
L 569.937987 7.2 
L 571.948777 7.2 
L 571.948777 34.92 
L 569.937987 34.92 
z
" clip-path="url(#p5c8529873c)" style="fill: #ff2a2a"/>
    <path d="M 571.948777 34.92 
L 571.948777 7.2 
L 573.959568 7.2 
L 573.959568 34.92 
L 571.948777 34.92 
z
" clip-path="url(#p5c8529873c)" style="fill: #ff0c0c"/>
    <path d="M 573.959568 34.92 
L 573.959568 7.2 
L 575.970358 7.2 
L 575.970358 34.92 
L 573.959568 34.92 
z
" clip-path="url(#p5c8529873c)" style="fill: #ff6c6c"/>
    <path d="M 575.970358 34.92 
L 575.970358 7.2 
L 577.981148 7.2 
L 577.981148 34.92 
L 575.970358 34.92 
z
" clip-path="url(#p5c8529873c)" style="fill: #ff9a9a"/>
    <path d="M 577.981148 34.92 
L 577.981148 7.2 
L 579.991938 7.2 
L 579.991938 34.92 
L 577.981148 34.92 
z
" clip-path="url(#p5c8529873c)" style="fill: #ffc8c8"/>
    <path d="M 579.991938 34.92 
L 579.991938 7.2 
L 582.002728 7.2 
L 582.002728 34.92 
L 579.991938 34.92 
z
" clip-path="url(#p5c8529873c)" style="fill: #b0b0ff"/>
    <path d="M 582.002728 34.92 
L 582.002728 7.2 
L 584.013518 7.2 
L 584.013518 34.92 
L 582.002728 34.92 
z
" clip-path="url(#p5c8529873c)" style="fill: #ffa8a8"/>
    <path d="M 584.013518 34.92 
L 584.013518 7.2 
L 586.024308 7.2 
L 586.024308 34.92 
L 584.013518 34.92 
z
" clip-path="url(#p5c8529873c)" style="fill: #ffbcbc"/>
    <path d="M 586.024308 34.92 
L 586.024308 7.2 
L 588.035099 7.2 
L 588.035099 34.92 
L 586.024308 34.92 
z
" clip-path="url(#p5c8529873c)" style="fill: #ffc6c6"/>
    <path d="M 588.035099 34.92 
L 588.035099 7.2 
L 590.045889 7.2 
L 590.045889 34.92 
L 588.035099 34.92 
z
" clip-path="url(#p5c8529873c)" style="fill: #d0d0ff"/>
    <path d="M 590.045889 34.92 
L 590.045889 7.2 
L 592.056679 7.2 
L 592.056679 34.92 
L 590.045889 34.92 
z
" clip-path="url(#p5c8529873c)" style="fill: #ffeaea"/>
    <path d="M 592.056679 34.92 
L 592.056679 7.2 
L 594.067469 7.2 
L 594.067469 34.92 
L 592.056679 34.92 
z
" clip-path="url(#p5c8529873c)" style="fill: #ff9e9e"/>
    <path d="M 594.067469 34.92 
L 594.067469 7.2 
L 596.078259 7.2 
L 596.078259 34.92 
L 594.067469 34.92 
z
" clip-path="url(#p5c8529873c)" style="fill: #ffbaba"/>
    <path d="M 596.078259 34.92 
L 596.078259 7.2 
L 598.089049 7.2 
L 598.089049 34.92 
L 596.078259 34.92 
z
" clip-path="url(#p5c8529873c)" style="fill: #a4a4ff"/>
    <path d="M 598.089049 34.92 
L 598.089049 7.2 
L 600.09984 7.2 
L 600.09984 34.92 
L 598.089049 34.92 
z
" clip-path="url(#p5c8529873c)" style="fill: #b0b0ff"/>
    <path d="M 600.09984 34.92 
L 600.09984 7.2 
L 602.11063 7.2 
L 602.11063 34.92 
L 600.09984 34.92 
z
" clip-path="url(#p5c8529873c)" style="fill: #eeeeff"/>
    <path d="M 602.11063 34.92 
L 602.11063 7.2 
L 604.12142 7.2 
L 604.12142 34.92 
L 602.11063 34.92 
z
" clip-path="url(#p5c8529873c)" style="fill: #ececff"/>
    <path d="M 604.12142 34.92 
L 604.12142 7.2 
L 606.13221 7.2 
L 606.13221 34.92 
L 604.12142 34.92 
z
" clip-path="url(#p5c8529873c)" style="fill: #eaeaff"/>
    <path d="M 606.13221 34.92 
L 606.13221 7.2 
L 608.143 7.2 
L 608.143 34.92 
L 606.13221 34.92 
z
" clip-path="url(#p5c8529873c)" style="fill: #8c8cff"/>
    <path d="M 608.143 34.92 
L 608.143 7.2 
L 610.15379 7.2 
L 610.15379 34.92 
L 608.143 34.92 
z
" clip-path="url(#p5c8529873c)" style="fill: #9a9aff"/>
    <path d="M 610.15379 34.92 
L 610.15379 7.2 
L 612.164581 7.2 
L 612.164581 34.92 
L 610.15379 34.92 
z
" clip-path="url(#p5c8529873c)" style="fill: #8e8eff"/>
    <path d="M 612.164581 34.92 
L 612.164581 7.2 
L 614.175371 7.2 
L 614.175371 34.92 
L 612.164581 34.92 
z
" clip-path="url(#p5c8529873c)" style="fill: #d4d4ff"/>
    <path d="M 614.175371 34.92 
L 614.175371 7.2 
L 616.186161 7.2 
L 616.186161 34.92 
L 614.175371 34.92 
z
" clip-path="url(#p5c8529873c)" style="fill: #cacaff"/>
    <path d="M 616.186161 34.92 
L 616.186161 7.2 
L 618.196951 7.2 
L 618.196951 34.92 
L 616.186161 34.92 
z
" clip-path="url(#p5c8529873c)" style="fill: #ccccff"/>
    <path d="M 618.196951 34.92 
L 618.196951 7.2 
L 620.207741 7.2 
L 620.207741 34.92 
L 618.196951 34.92 
z
" clip-path="url(#p5c8529873c)" style="fill: #ffa0a0"/>
    <path d="M 620.207741 34.92 
L 620.207741 7.2 
L 622.218531 7.2 
L 622.218531 34.92 
L 620.207741 34.92 
z
" clip-path="url(#p5c8529873c)" style="fill: #ff8686"/>
    <path d="M 622.218531 34.92 
L 622.218531 7.2 
L 624.229322 7.2 
L 624.229322 34.92 
L 622.218531 34.92 
z
" clip-path="url(#p5c8529873c)" style="fill: #ff8080"/>
    <path d="M 624.229322 34.92 
L 624.229322 7.2 
L 626.240112 7.2 
L 626.240112 34.92 
L 624.229322 34.92 
z
" clip-path="url(#p5c8529873c)" style="fill: #ffc4c4"/>
    <path d="M 626.240112 34.92 
L 626.240112 7.2 
L 628.250902 7.2 
L 628.250902 34.92 
L 626.240112 34.92 
z
" clip-path="url(#p5c8529873c)" style="fill: #ffc6c6"/>
    <path d="M 628.250902 34.92 
L 628.250902 7.2 
L 630.261692 7.2 
L 630.261692 34.92 
L 628.250902 34.92 
z
" clip-path="url(#p5c8529873c)" style="fill: #ffc8c8"/>
    <path d="M 630.261692 34.92 
L 630.261692 7.2 
L 632.272482 7.2 
L 632.272482 34.92 
L 630.261692 34.92 
z
" clip-path="url(#p5c8529873c)" style="fill: #ffcaca"/>
    <path d="M 632.272482 34.92 
L 632.272482 7.2 
L 634.283272 7.2 
L 634.283272 34.92 
L 632.272482 34.92 
z
" clip-path="url(#p5c8529873c)" style="fill: #ffe8e8"/>
    <path d="M 634.283272 34.92 
L 634.283272 7.2 
L 636.294063 7.2 
L 636.294063 34.92 
L 634.283272 34.92 
z
" clip-path="url(#p5c8529873c)" style="fill: #ffcece"/>
    <path d="M 636.294063 34.92 
L 636.294063 7.2 
L 638.304853 7.2 
L 638.304853 34.92 
L 636.294063 34.92 
z
" clip-path="url(#p5c8529873c)" style="fill: #ffaeae"/>
    <path d="M 638.304853 34.92 
L 638.304853 7.2 
L 640.315643 7.2 
L 640.315643 34.92 
L 638.304853 34.92 
z
" clip-path="url(#p5c8529873c)" style="fill: #ffb2b2"/>
    <path d="M 640.315643 34.92 
L 640.315643 7.2 
L 642.326433 7.2 
L 642.326433 34.92 
L 640.315643 34.92 
z
" clip-path="url(#p5c8529873c)" style="fill: #bebeff"/>
    <path d="M 642.326433 34.92 
L 642.326433 7.2 
L 644.337223 7.2 
L 644.337223 34.92 
L 642.326433 34.92 
z
" clip-path="url(#p5c8529873c)" style="fill: #e6e6ff"/>
    <path d="M 644.337223 34.92 
L 644.337223 7.2 
L 646.348013 7.2 
L 646.348013 34.92 
L 644.337223 34.92 
z
" clip-path="url(#p5c8529873c)" style="fill: #d4d4ff"/>
    <path d="M 646.348013 34.92 
L 646.348013 7.2 
L 648.358803 7.2 
L 648.358803 34.92 
L 646.348013 34.92 
z
" clip-path="url(#p5c8529873c)" style="fill: #ff9a9a"/>
    <path d="M 648.358803 34.92 
L 648.358803 7.2 
L 650.369594 7.2 
L 650.369594 34.92 
L 648.358803 34.92 
z
" clip-path="url(#p5c8529873c)" style="fill: #ffa4a4"/>
    <path d="M 650.369594 34.92 
L 650.369594 7.2 
L 652.380384 7.2 
L 652.380384 34.92 
L 650.369594 34.92 
z
" clip-path="url(#p5c8529873c)" style="fill: #ffa0a0"/>
    <path d="M 652.380384 34.92 
L 652.380384 7.2 
L 654.391174 7.2 
L 654.391174 34.92 
L 652.380384 34.92 
z
" clip-path="url(#p5c8529873c)" style="fill: #ffcaca"/>
    <path d="M 654.391174 34.92 
L 654.391174 7.2 
L 656.401964 7.2 
L 656.401964 34.92 
L 654.391174 34.92 
z
" clip-path="url(#p5c8529873c)" style="fill: #ffb2b2"/>
    <path d="M 656.401964 34.92 
L 656.401964 7.2 
L 658.412754 7.2 
L 658.412754 34.92 
L 656.401964 34.92 
z
" clip-path="url(#p5c8529873c)" style="fill: #ffbcbc"/>
    <path d="M 658.412754 34.92 
L 658.412754 7.2 
L 660.423544 7.2 
L 660.423544 34.92 
L 658.412754 34.92 
z
" clip-path="url(#p5c8529873c)" style="fill: #ffbebe"/>
    <path d="M 660.423544 34.92 
L 660.423544 7.2 
L 662.434335 7.2 
L 662.434335 34.92 
L 660.423544 34.92 
z
" clip-path="url(#p5c8529873c)" style="fill: #ffc2c2"/>
    <path d="M 662.434335 34.92 
L 662.434335 7.2 
L 664.445125 7.2 
L 664.445125 34.92 
L 662.434335 34.92 
z
" clip-path="url(#p5c8529873c)" style="fill: #ffe8e8"/>
    <path d="M 664.445125 34.92 
L 664.445125 7.2 
L 666.455915 7.2 
L 666.455915 34.92 
L 664.445125 34.92 
z
" clip-path="url(#p5c8529873c)" style="fill: #ffdada"/>
    <path d="M 666.455915 34.92 
L 666.455915 7.2 
L 668.466705 7.2 
L 668.466705 34.92 
L 666.455915 34.92 
z
" clip-path="url(#p5c8529873c)" style="fill: #ffe0e0"/>
    <path d="M 668.466705 34.92 
L 668.466705 7.2 
L 670.477495 7.2 
L 670.477495 34.92 
L 668.466705 34.92 
z
" clip-path="url(#p5c8529873c)" style="fill: #c8c8ff"/>
    <path d="M 670.477495 34.92 
L 670.477495 7.2 
L 672.488285 7.2 
L 672.488285 34.92 
L 670.477495 34.92 
z
" clip-path="url(#p5c8529873c)" style="fill: #d0d0ff"/>
    <path d="M 672.488285 34.92 
L 672.488285 7.2 
L 674.499076 7.2 
L 674.499076 34.92 
L 672.488285 34.92 
z
" clip-path="url(#p5c8529873c)" style="fill: #d2d2ff"/>
    <path d="M 674.499076 34.92 
L 674.499076 7.2 
L 676.509866 7.2 
L 676.509866 34.92 
L 674.499076 34.92 
z
" clip-path="url(#p5c8529873c)" style="fill: #d0d0ff"/>
    <path d="M 676.509866 34.92 
L 676.509866 7.2 
L 678.520656 7.2 
L 678.520656 34.92 
L 676.509866 34.92 
z
" clip-path="url(#p5c8529873c)" style="fill: #ffb4b4"/>
    <path d="M 678.520656 34.92 
L 678.520656 7.2 
L 680.531446 7.2 
L 680.531446 34.92 
L 678.520656 34.92 
z
" clip-path="url(#p5c8529873c)" style="fill: #ffb4b4"/>
    <path d="M 680.531446 34.92 
L 680.531446 7.2 
L 682.542236 7.2 
L 682.542236 34.92 
L 680.531446 34.92 
z
" clip-path="url(#p5c8529873c)" style="fill: #ff9292"/>
    <path d="M 682.542236 34.92 
L 682.542236 7.2 
L 684.553026 7.2 
L 684.553026 34.92 
L 682.542236 34.92 
z
" clip-path="url(#p5c8529873c)" style="fill: #ff9696"/>
    <path d="M 684.553026 34.92 
L 684.553026 7.2 
L 686.563817 7.2 
L 686.563817 34.92 
L 684.553026 34.92 
z
" clip-path="url(#p5c8529873c)" style="fill: #ff9898"/>
    <path d="M 686.563817 34.92 
L 686.563817 7.2 
L 688.574607 7.2 
L 688.574607 34.92 
L 686.563817 34.92 
z
" clip-path="url(#p5c8529873c)" style="fill: #ffd4d4"/>
    <path d="M 688.574607 34.92 
L 688.574607 7.2 
L 690.585397 7.2 
L 690.585397 34.92 
L 688.574607 34.92 
z
" clip-path="url(#p5c8529873c)" style="fill: #ffc8c8"/>
    <path d="M 690.585397 34.92 
L 690.585397 7.2 
L 692.596187 7.2 
L 692.596187 34.92 
L 690.585397 34.92 
z
" clip-path="url(#p5c8529873c)" style="fill: #ffcccc"/>
    <path d="M 692.596187 34.92 
L 692.596187 7.2 
L 694.606977 7.2 
L 694.606977 34.92 
L 692.596187 34.92 
z
" clip-path="url(#p5c8529873c)" style="fill: #ffd0d0"/>
    <path d="M 694.606977 34.92 
L 694.606977 7.2 
L 696.617767 7.2 
L 696.617767 34.92 
L 694.606977 34.92 
z
" clip-path="url(#p5c8529873c)" style="fill: #8686ff"/>
    <path d="M 696.617767 34.92 
L 696.617767 7.2 
L 698.628558 7.2 
L 698.628558 34.92 
L 696.617767 34.92 
z
" clip-path="url(#p5c8529873c)" style="fill: #6a6aff"/>
    <path d="M 698.628558 34.92 
L 698.628558 7.2 
L 700.639348 7.2 
L 700.639348 34.92 
L 698.628558 34.92 
z
" clip-path="url(#p5c8529873c)" style="fill: #8080ff"/>
    <path d="M 700.639348 34.92 
L 700.639348 7.2 
L 702.650138 7.2 
L 702.650138 34.92 
L 700.639348 34.92 
z
" clip-path="url(#p5c8529873c)" style="fill: #e8e8ff"/>
    <path d="M 702.650138 34.92 
L 702.650138 7.2 
L 704.660928 7.2 
L 704.660928 34.92 
L 702.650138 34.92 
z
" clip-path="url(#p5c8529873c)" style="fill: #f2f2ff"/>
    <path d="M 704.660928 34.92 
L 704.660928 7.2 
L 706.671718 7.2 
L 706.671718 34.92 
L 704.660928 34.92 
z
" clip-path="url(#p5c8529873c)" style="fill: #7878ff"/>
    <path d="M 706.671718 34.92 
L 706.671718 7.2 
L 708.682508 7.2 
L 708.682508 34.92 
L 706.671718 34.92 
z
" clip-path="url(#p5c8529873c)" style="fill: #babaff"/>
    <path d="M 708.682508 34.92 
L 708.682508 7.2 
L 710.693299 7.2 
L 710.693299 34.92 
L 708.682508 34.92 
z
" clip-path="url(#p5c8529873c)" style="fill: #a0a0ff"/>
    <path d="M 710.693299 34.92 
L 710.693299 7.2 
L 712.704089 7.2 
L 712.704089 34.92 
L 710.693299 34.92 
z
" clip-path="url(#p5c8529873c)" style="fill: #a8a8ff"/>
    <path d="M 712.704089 34.92 
L 712.704089 7.2 
L 714.714879 7.2 
L 714.714879 34.92 
L 712.704089 34.92 
z
" clip-path="url(#p5c8529873c)" style="fill: #a2a2ff"/>
    <path d="M 714.714879 34.92 
L 714.714879 7.2 
L 716.725669 7.2 
L 716.725669 34.92 
L 714.714879 34.92 
z
" clip-path="url(#p5c8529873c)" style="fill: #b0b0ff"/>
    <path d="M 716.725669 34.92 
L 716.725669 7.2 
L 718.736459 7.2 
L 718.736459 34.92 
L 716.725669 34.92 
z
" clip-path="url(#p5c8529873c)" style="fill: #ffd8d8"/>
    <path d="M 718.736459 34.92 
L 718.736459 7.2 
L 720.747249 7.2 
L 720.747249 34.92 
L 718.736459 34.92 
z
" clip-path="url(#p5c8529873c)" style="fill: #ffd4d4"/>
    <path d="M 720.747249 34.92 
L 720.747249 7.2 
L 722.758039 7.2 
L 722.758039 34.92 
L 720.747249 34.92 
z
" clip-path="url(#p5c8529873c)" style="fill: #ffd6d6"/>
    <path d="M 722.758039 34.92 
L 722.758039 7.2 
L 724.76883 7.2 
L 724.76883 34.92 
L 722.758039 34.92 
z
" clip-path="url(#p5c8529873c)" style="fill: #ffd6d6"/>
    <path d="M 724.76883 34.92 
L 724.76883 7.2 
L 726.77962 7.2 
L 726.77962 34.92 
L 724.76883 34.92 
z
" clip-path="url(#p5c8529873c)" style="fill: #ffa6a6"/>
    <path d="M 726.77962 34.92 
L 726.77962 7.2 
L 728.79041 7.2 
L 728.79041 34.92 
L 726.77962 34.92 
z
" clip-path="url(#p5c8529873c)" style="fill: #ff9696"/>
    <path d="M 728.79041 34.92 
L 728.79041 7.2 
L 730.8012 7.2 
L 730.8012 34.92 
L 728.79041 34.92 
z
" clip-path="url(#p5c8529873c)" style="fill: #ffa2a2"/>
    <path d="M 730.8012 34.92 
L 730.8012 7.2 
L 732.81199 7.2 
L 732.81199 34.92 
L 730.8012 34.92 
z
" clip-path="url(#p5c8529873c)" style="fill: #ffdada"/>
    <path d="M 732.81199 34.92 
L 732.81199 7.2 
L 734.82278 7.2 
L 734.82278 34.92 
L 732.81199 34.92 
z
" clip-path="url(#p5c8529873c)" style="fill: #ffd6d6"/>
    <path d="M 734.82278 34.92 
L 734.82278 7.2 
L 736.833571 7.2 
L 736.833571 34.92 
L 734.82278 34.92 
z
" clip-path="url(#p5c8529873c)" style="fill: #ffd8d8"/>
    <path d="M 736.833571 34.92 
L 736.833571 7.2 
L 738.844361 7.2 
L 738.844361 34.92 
L 736.833571 34.92 
z
" clip-path="url(#p5c8529873c)" style="fill: #ffcaca"/>
    <path d="M 738.844361 34.92 
L 738.844361 7.2 
L 740.855151 7.2 
L 740.855151 34.92 
L 738.844361 34.92 
z
" clip-path="url(#p5c8529873c)" style="fill: #ffc8c8"/>
    <path d="M 740.855151 34.92 
L 740.855151 7.2 
L 742.865941 7.2 
L 742.865941 34.92 
L 740.855151 34.92 
z
" clip-path="url(#p5c8529873c)" style="fill: #ffdada"/>
    <path d="M 742.865941 34.92 
L 742.865941 7.2 
L 744.876731 7.2 
L 744.876731 34.92 
L 742.865941 34.92 
z
" clip-path="url(#p5c8529873c)" style="fill: #dcdcff"/>
    <path d="M 744.876731 34.92 
L 744.876731 7.2 
L 746.887521 7.2 
L 746.887521 34.92 
L 744.876731 34.92 
z
" clip-path="url(#p5c8529873c)" style="fill: #dcdcff"/>
    <path d="M 746.887521 34.92 
L 746.887521 7.2 
L 748.898312 7.2 
L 748.898312 34.92 
L 746.887521 34.92 
z
" clip-path="url(#p5c8529873c)" style="fill: #dcdcff"/>
    <path d="M 748.898312 34.92 
L 748.898312 7.2 
L 750.909102 7.2 
L 750.909102 34.92 
L 748.898312 34.92 
z
" clip-path="url(#p5c8529873c)" style="fill: #ffdcdc"/>
    <path d="M 750.909102 34.92 
L 750.909102 7.2 
L 752.919892 7.2 
L 752.919892 34.92 
L 750.909102 34.92 
z
" clip-path="url(#p5c8529873c)" style="fill: #ffdcdc"/>
    <path d="M 752.919892 34.92 
L 752.919892 7.2 
L 754.930682 7.2 
L 754.930682 34.92 
L 752.919892 34.92 
z
" clip-path="url(#p5c8529873c)" style="fill: #ffdede"/>
    <path d="M 754.930682 34.92 
L 754.930682 7.2 
L 756.941472 7.2 
L 756.941472 34.92 
L 754.930682 34.92 
z
" clip-path="url(#p5c8529873c)" style="fill: #ffdada"/>
    <path d="M 756.941472 34.92 
L 756.941472 7.2 
L 758.952262 7.2 
L 758.952262 34.92 
L 756.941472 34.92 
z
" clip-path="url(#p5c8529873c)" style="fill: #ffcece"/>
    <path d="M 758.952262 34.92 
L 758.952262 7.2 
L 760.963053 7.2 
L 760.963053 34.92 
L 758.952262 34.92 
z
" clip-path="url(#p5c8529873c)" style="fill: #ffd8d8"/>
    <path d="M 760.963053 34.92 
L 760.963053 7.2 
L 762.973843 7.2 
L 762.973843 34.92 
L 760.963053 34.92 
z
" clip-path="url(#p5c8529873c)" style="fill: #ffcece"/>
    <path d="M 762.973843 34.92 
L 762.973843 7.2 
L 764.984633 7.2 
L 764.984633 34.92 
L 762.973843 34.92 
z
" clip-path="url(#p5c8529873c)" style="fill: #ffd6d6"/>
    <path d="M 764.984633 34.92 
L 764.984633 7.2 
L 766.995423 7.2 
L 766.995423 34.92 
L 764.984633 34.92 
z
" clip-path="url(#p5c8529873c)" style="fill: #ffd6d6"/>
    <path d="M 766.995423 34.92 
L 766.995423 7.2 
L 769.006213 7.2 
L 769.006213 34.92 
L 766.995423 34.92 
z
" clip-path="url(#p5c8529873c)" style="fill: #e0e0ff"/>
    <path d="M 769.006213 34.92 
L 769.006213 7.2 
L 771.017003 7.2 
L 771.017003 34.92 
L 769.006213 34.92 
z
" clip-path="url(#p5c8529873c)" style="fill: #dcdcff"/>
    <path d="M 771.017003 34.92 
L 771.017003 7.2 
L 773.027794 7.2 
L 773.027794 34.92 
L 771.017003 34.92 
z
" clip-path="url(#p5c8529873c)" style="fill: #dedeff"/>
    <path d="M 773.027794 34.92 
L 773.027794 7.2 
L 775.038584 7.2 
L 775.038584 34.92 
L 773.027794 34.92 
z
" clip-path="url(#p5c8529873c)" style="fill: #ffd4d4"/>
    <path d="M 775.038584 34.92 
L 775.038584 7.2 
L 777.049374 7.2 
L 777.049374 34.92 
L 775.038584 34.92 
z
" clip-path="url(#p5c8529873c)" style="fill: #ffdcdc"/>
    <path d="M 777.049374 34.92 
L 777.049374 7.2 
L 779.060164 7.2 
L 779.060164 34.92 
L 777.049374 34.92 
z
" clip-path="url(#p5c8529873c)" style="fill: #ffe4e4"/>
    <path d="M 779.060164 34.92 
L 779.060164 7.2 
L 781.070954 7.2 
L 781.070954 34.92 
L 779.060164 34.92 
z
" clip-path="url(#p5c8529873c)" style="fill: #ffcece"/>
    <path d="M 781.070954 34.92 
L 781.070954 7.2 
L 783.081744 7.2 
L 783.081744 34.92 
L 781.070954 34.92 
z
" clip-path="url(#p5c8529873c)" style="fill: #ffd2d2"/>
    <path d="M 783.081744 34.92 
L 783.081744 7.2 
L 785.092534 7.2 
L 785.092534 34.92 
L 783.081744 34.92 
z
" clip-path="url(#p5c8529873c)" style="fill: #ffd0d0"/>
    <path d="M 785.092534 34.92 
L 785.092534 7.2 
L 787.103325 7.2 
L 787.103325 34.92 
L 785.092534 34.92 
z
" clip-path="url(#p5c8529873c)" style="fill: #6060ff"/>
    <path d="M 787.103325 34.92 
L 787.103325 7.2 
L 789.114115 7.2 
L 789.114115 34.92 
L 787.103325 34.92 
z
" clip-path="url(#p5c8529873c)" style="fill: #7676ff"/>
    <path d="M 789.114115 34.92 
L 789.114115 7.2 
L 791.124905 7.2 
L 791.124905 34.92 
L 789.114115 34.92 
z
" clip-path="url(#p5c8529873c)" style="fill: #6868ff"/>
    <path d="M 791.124905 34.92 
L 791.124905 7.2 
L 793.135695 7.2 
L 793.135695 34.92 
L 791.124905 34.92 
z
" clip-path="url(#p5c8529873c)" style="fill: #3c3cff"/>
    <path d="M 793.135695 34.92 
L 793.135695 7.2 
L 795.146485 7.2 
L 795.146485 34.92 
L 793.135695 34.92 
z
" clip-path="url(#p5c8529873c)" style="fill: #a8a8ff"/>
    <path d="M 795.146485 34.92 
L 795.146485 7.2 
L 797.157275 7.2 
L 797.157275 34.92 
L 795.146485 34.92 
z
" clip-path="url(#p5c8529873c)" style="fill: #a0a0ff"/>
    <path d="M 797.157275 34.92 
L 797.157275 7.2 
L 799.168066 7.2 
L 799.168066 34.92 
L 797.157275 34.92 
z
" clip-path="url(#p5c8529873c)" style="fill: #ffe2e2"/>
    <path d="M 799.168066 34.92 
L 799.168066 7.2 
L 801.178856 7.2 
L 801.178856 34.92 
L 799.168066 34.92 
z
" clip-path="url(#p5c8529873c)" style="fill: #fff8f8"/>
    <path d="M 801.178856 34.92 
L 801.178856 7.2 
L 803.189646 7.2 
L 803.189646 34.92 
L 801.178856 34.92 
z
" clip-path="url(#p5c8529873c)" style="fill: #ff9696"/>
    <path d="M 803.189646 34.92 
L 803.189646 7.2 
L 805.200436 7.2 
L 805.200436 34.92 
L 803.189646 34.92 
z
" clip-path="url(#p5c8529873c)" style="fill: #ffc2c2"/>
    <path d="M 805.200436 34.92 
L 805.200436 7.2 
L 807.211226 7.2 
L 807.211226 34.92 
L 805.200436 34.92 
z
" clip-path="url(#p5c8529873c)" style="fill: #ceceff"/>
    <path d="M 807.211226 34.92 
L 807.211226 7.2 
L 809.222016 7.2 
L 809.222016 34.92 
L 807.211226 34.92 
z
" clip-path="url(#p5c8529873c)" style="fill: #e2e2ff"/>
    <path d="M 809.222016 34.92 
L 809.222016 7.2 
L 811.232807 7.2 
L 811.232807 34.92 
L 809.222016 34.92 
z
" clip-path="url(#p5c8529873c)" style="fill: #ff6262"/>
    <path d="M 811.232807 34.92 
L 811.232807 7.2 
L 813.243597 7.2 
L 813.243597 34.92 
L 811.232807 34.92 
z
" clip-path="url(#p5c8529873c)" style="fill: #ffbaba"/>
    <path d="M 813.243597 34.92 
L 813.243597 7.2 
L 815.254387 7.2 
L 815.254387 34.92 
L 813.243597 34.92 
z
" clip-path="url(#p5c8529873c)" style="fill: #ffcece"/>
    <path d="M 815.254387 34.92 
L 815.254387 7.2 
L 817.265177 7.2 
L 817.265177 34.92 
L 815.254387 34.92 
z
" clip-path="url(#p5c8529873c)" style="fill: #a0a0ff"/>
    <path d="M 817.265177 34.92 
L 817.265177 7.2 
L 819.275967 7.2 
L 819.275967 34.92 
L 817.265177 34.92 
z
" clip-path="url(#p5c8529873c)" style="fill: #dadaff"/>
    <path d="M 819.275967 34.92 
L 819.275967 7.2 
L 821.286757 7.2 
L 821.286757 34.92 
L 819.275967 34.92 
z
" clip-path="url(#p5c8529873c)" style="fill: #d6d6ff"/>
    <path d="M 821.286757 34.92 
L 821.286757 7.2 
L 823.297548 7.2 
L 823.297548 34.92 
L 821.286757 34.92 
z
" clip-path="url(#p5c8529873c)" style="fill: #ffe6e6"/>
    <path d="M 823.297548 34.92 
L 823.297548 7.2 
L 825.308338 7.2 
L 825.308338 34.92 
L 823.297548 34.92 
z
" clip-path="url(#p5c8529873c)" style="fill: #e2e2ff"/>
    <path d="M 825.308338 34.92 
L 825.308338 7.2 
L 827.319128 7.2 
L 827.319128 34.92 
L 825.308338 34.92 
z
" clip-path="url(#p5c8529873c)" style="fill: #dadaff"/>
    <path d="M 827.319128 34.92 
L 827.319128 7.2 
L 829.329918 7.2 
L 829.329918 34.92 
L 827.319128 34.92 
z
" clip-path="url(#p5c8529873c)" style="fill: #e2e2ff"/>
    <path d="M 829.329918 34.92 
L 829.329918 7.2 
L 831.340708 7.2 
L 831.340708 34.92 
L 829.329918 34.92 
z
" clip-path="url(#p5c8529873c)" style="fill: #d4d4ff"/>
    <path d="M 831.340708 34.92 
L 831.340708 7.2 
L 833.351498 7.2 
L 833.351498 34.92 
L 831.340708 34.92 
z
" clip-path="url(#p5c8529873c)" style="fill: #d6d6ff"/>
    <path d="M 833.351498 34.92 
L 833.351498 7.2 
L 835.362289 7.2 
L 835.362289 34.92 
L 833.351498 34.92 
z
" clip-path="url(#p5c8529873c)" style="fill: #bebeff"/>
    <path d="M 835.362289 34.92 
L 835.362289 7.2 
L 837.373079 7.2 
L 837.373079 34.92 
L 835.362289 34.92 
z
" clip-path="url(#p5c8529873c)" style="fill: #b0b0ff"/>
    <path d="M 837.373079 34.92 
L 837.373079 7.2 
L 839.383869 7.2 
L 839.383869 34.92 
L 837.373079 34.92 
z
" clip-path="url(#p5c8529873c)" style="fill: #dcdcff"/>
    <path d="M 839.383869 34.92 
L 839.383869 7.2 
L 841.394659 7.2 
L 841.394659 34.92 
L 839.383869 34.92 
z
" clip-path="url(#p5c8529873c)" style="fill: #d0d0ff"/>
    <path d="M 841.394659 34.92 
L 841.394659 7.2 
L 843.405449 7.2 
L 843.405449 34.92 
L 841.394659 34.92 
z
" clip-path="url(#p5c8529873c)" style="fill: #ffc0c0"/>
    <path d="M 843.405449 34.92 
L 843.405449 7.2 
L 845.416239 7.2 
L 845.416239 34.92 
L 843.405449 34.92 
z
" clip-path="url(#p5c8529873c)" style="fill: #ffaaaa"/>
    <path d="M 845.416239 34.92 
L 845.416239 7.2 
L 847.427029 7.2 
L 847.427029 34.92 
L 845.416239 34.92 
z
" clip-path="url(#p5c8529873c)" style="fill: #ffe0e0"/>
    <path d="M 847.427029 34.92 
L 847.427029 7.2 
L 849.43782 7.2 
L 849.43782 34.92 
L 847.427029 34.92 
z
" clip-path="url(#p5c8529873c)" style="fill: #ffdada"/>
    <path d="M 849.43782 34.92 
L 849.43782 7.2 
L 851.44861 7.2 
L 851.44861 34.92 
L 849.43782 34.92 
z
" clip-path="url(#p5c8529873c)" style="fill: #dadaff"/>
    <path d="M 851.44861 34.92 
L 851.44861 7.2 
L 853.4594 7.2 
L 853.4594 34.92 
L 851.44861 34.92 
z
" clip-path="url(#p5c8529873c)" style="fill: #ffb4b4"/>
    <path d="M 853.4594 34.92 
L 853.4594 7.2 
L 855.47019 7.2 
L 855.47019 34.92 
L 853.4594 34.92 
z
" clip-path="url(#p5c8529873c)" style="fill: #ffd0d0"/>
    <path d="M 855.47019 34.92 
L 855.47019 7.2 
L 857.48098 7.2 
L 857.48098 34.92 
L 855.47019 34.92 
z
" clip-path="url(#p5c8529873c)" style="fill: #ffc8c8"/>
    <path d="M 857.48098 34.92 
L 857.48098 7.2 
L 859.49177 7.2 
L 859.49177 34.92 
L 857.48098 34.92 
z
" clip-path="url(#p5c8529873c)" style="fill: #ffe8e8"/>
    <path d="M 859.49177 34.92 
L 859.49177 7.2 
L 861.502561 7.2 
L 861.502561 34.92 
L 859.49177 34.92 
z
" clip-path="url(#p5c8529873c)" style="fill: #d2d2ff"/>
    <path d="M 861.502561 34.92 
L 861.502561 7.2 
L 863.513351 7.2 
L 863.513351 34.92 
L 861.502561 34.92 
z
" clip-path="url(#p5c8529873c)" style="fill: #dedeff"/>
    <path d="M 863.513351 34.92 
L 863.513351 7.2 
L 865.524141 7.2 
L 865.524141 34.92 
L 863.513351 34.92 
z
" clip-path="url(#p5c8529873c)" style="fill: #dadaff"/>
    <path d="M 865.524141 34.92 
L 865.524141 7.2 
L 867.534931 7.2 
L 867.534931 34.92 
L 865.524141 34.92 
z
" clip-path="url(#p5c8529873c)" style="fill: #dcdcff"/>
    <path d="M 867.534931 34.92 
L 867.534931 7.2 
L 869.545721 7.2 
L 869.545721 34.92 
L 867.534931 34.92 
z
" clip-path="url(#p5c8529873c)" style="fill: #dcdcff"/>
    <path d="M 869.545721 34.92 
L 869.545721 7.2 
L 871.556511 7.2 
L 871.556511 34.92 
L 869.545721 34.92 
z
" clip-path="url(#p5c8529873c)" style="fill: #c8c8ff"/>
    <path d="M 871.556511 34.92 
L 871.556511 7.2 
L 873.567302 7.2 
L 873.567302 34.92 
L 871.556511 34.92 
z
" clip-path="url(#p5c8529873c)" style="fill: #d4d4ff"/>
    <path d="M 873.567302 34.92 
L 873.567302 7.2 
L 875.578092 7.2 
L 875.578092 34.92 
L 873.567302 34.92 
z
" clip-path="url(#p5c8529873c)" style="fill: #e0e0ff"/>
    <path d="M 875.578092 34.92 
L 875.578092 7.2 
L 877.588882 7.2 
L 877.588882 34.92 
L 875.578092 34.92 
z
" clip-path="url(#p5c8529873c)" style="fill: #e4e4ff"/>
    <path d="M 877.588882 34.92 
L 877.588882 7.2 
L 879.599672 7.2 
L 879.599672 34.92 
L 877.588882 34.92 
z
" clip-path="url(#p5c8529873c)" style="fill: #e8e8ff"/>
    <path d="M 879.599672 34.92 
L 879.599672 7.2 
L 881.610462 7.2 
L 881.610462 34.92 
L 879.599672 34.92 
z
" clip-path="url(#p5c8529873c)" style="fill: #ffd0d0"/>
    <path d="M 881.610462 34.92 
L 881.610462 7.2 
L 883.621252 7.2 
L 883.621252 34.92 
L 881.610462 34.92 
z
" clip-path="url(#p5c8529873c)" style="fill: #ffe6e6"/>
    <path d="M 883.621252 34.92 
L 883.621252 7.2 
L 885.632043 7.2 
L 885.632043 34.92 
L 883.621252 34.92 
z
" clip-path="url(#p5c8529873c)" style="fill: #ffd4d4"/>
    <path d="M 885.632043 34.92 
L 885.632043 7.2 
L 887.642833 7.2 
L 887.642833 34.92 
L 885.632043 34.92 
z
" clip-path="url(#p5c8529873c)" style="fill: #ffdada"/>
    <path d="M 887.642833 34.92 
L 887.642833 7.2 
L 889.653623 7.2 
L 889.653623 34.92 
L 887.642833 34.92 
z
" clip-path="url(#p5c8529873c)" style="fill: #ffe6e6"/>
    <path d="M 889.653623 34.92 
L 889.653623 7.2 
L 891.664413 7.2 
L 891.664413 34.92 
L 889.653623 34.92 
z
" clip-path="url(#p5c8529873c)" style="fill: #ffe8e8"/>
    <path d="M 891.664413 34.92 
L 891.664413 7.2 
L 893.675203 7.2 
L 893.675203 34.92 
L 891.664413 34.92 
z
" clip-path="url(#p5c8529873c)" style="fill: #ffe6e6"/>
    <path d="M 893.675203 34.92 
L 893.675203 7.2 
L 895.685993 7.2 
L 895.685993 34.92 
L 893.675203 34.92 
z
" clip-path="url(#p5c8529873c)" style="fill: #dadaff"/>
    <path d="M 895.685993 34.92 
L 895.685993 7.2 
L 897.696784 7.2 
L 897.696784 34.92 
L 895.685993 34.92 
z
" clip-path="url(#p5c8529873c)" style="fill: #c4c4ff"/>
    <path d="M 897.696784 34.92 
L 897.696784 7.2 
L 899.707574 7.2 
L 899.707574 34.92 
L 897.696784 34.92 
z
" clip-path="url(#p5c8529873c)" style="fill: #e0e0ff"/>
    <path d="M 899.707574 34.92 
L 899.707574 7.2 
L 901.718364 7.2 
L 901.718364 34.92 
L 899.707574 34.92 
z
" clip-path="url(#p5c8529873c)" style="fill: #ececff"/>
    <path d="M 901.718364 34.92 
L 901.718364 7.2 
L 903.729154 7.2 
L 903.729154 34.92 
L 901.718364 34.92 
z
" clip-path="url(#p5c8529873c)" style="fill: #ececff"/>
    <path d="M 903.729154 34.92 
L 903.729154 7.2 
L 905.739944 7.2 
L 905.739944 34.92 
L 903.729154 34.92 
z
" clip-path="url(#p5c8529873c)" style="fill: #ffc8c8"/>
    <path d="M 905.739944 34.92 
L 905.739944 7.2 
L 907.750734 7.2 
L 907.750734 34.92 
L 905.739944 34.92 
z
" clip-path="url(#p5c8529873c)" style="fill: #dadaff"/>
    <path d="M 907.750734 34.92 
L 907.750734 7.2 
L 909.761525 7.2 
L 909.761525 34.92 
L 907.750734 34.92 
z
" clip-path="url(#p5c8529873c)" style="fill: #e2e2ff"/>
    <path d="M 909.761525 34.92 
L 909.761525 7.2 
L 911.772315 7.2 
L 911.772315 34.92 
L 909.761525 34.92 
z
" clip-path="url(#p5c8529873c)" style="fill: #dedeff"/>
    <path d="M 911.772315 34.92 
L 911.772315 7.2 
L 913.783105 7.2 
L 913.783105 34.92 
L 911.772315 34.92 
z
" clip-path="url(#p5c8529873c)" style="fill: #dedeff"/>
    <path d="M 913.783105 34.92 
L 913.783105 7.2 
L 915.793895 7.2 
L 915.793895 34.92 
L 913.783105 34.92 
z
" clip-path="url(#p5c8529873c)" style="fill: #f0f0ff"/>
    <path d="M 915.793895 34.92 
L 915.793895 7.2 
L 917.804685 7.2 
L 917.804685 34.92 
L 915.793895 34.92 
z
" clip-path="url(#p5c8529873c)" style="fill: #eaeaff"/>
    <path d="M 917.804685 34.92 
L 917.804685 7.2 
L 919.815475 7.2 
L 919.815475 34.92 
L 917.804685 34.92 
z
" clip-path="url(#p5c8529873c)" style="fill: #d8d8ff"/>
    <path d="M 919.815475 34.92 
L 919.815475 7.2 
L 921.826265 7.2 
L 921.826265 34.92 
L 919.815475 34.92 
z
" clip-path="url(#p5c8529873c)" style="fill: #e2e2ff"/>
    <path d="M 921.826265 34.92 
L 921.826265 7.2 
L 923.837056 7.2 
L 923.837056 34.92 
L 921.826265 34.92 
z
" clip-path="url(#p5c8529873c)" style="fill: #dedeff"/>
    <path d="M 923.837056 34.92 
L 923.837056 7.2 
L 925.847846 7.2 
L 925.847846 34.92 
L 923.837056 34.92 
z
" clip-path="url(#p5c8529873c)" style="fill: #ccccff"/>
    <path d="M 925.847846 34.92 
L 925.847846 7.2 
L 927.858636 7.2 
L 927.858636 34.92 
L 925.847846 34.92 
z
" clip-path="url(#p5c8529873c)" style="fill: #d8d8ff"/>
    <path d="M 927.858636 34.92 
L 927.858636 7.2 
L 929.869426 7.2 
L 929.869426 34.92 
L 927.858636 34.92 
z
" clip-path="url(#p5c8529873c)" style="fill: #d6d6ff"/>
    <path d="M 929.869426 34.92 
L 929.869426 7.2 
L 931.880216 7.2 
L 931.880216 34.92 
L 929.869426 34.92 
z
" clip-path="url(#p5c8529873c)" style="fill: #e0e0ff"/>
    <path d="M 931.880216 34.92 
L 931.880216 7.2 
L 933.891006 7.2 
L 933.891006 34.92 
L 931.880216 34.92 
z
" clip-path="url(#p5c8529873c)" style="fill: #dedeff"/>
    <path d="M 933.891006 34.92 
L 933.891006 7.2 
L 935.901797 7.2 
L 935.901797 34.92 
L 933.891006 34.92 
z
" clip-path="url(#p5c8529873c)" style="fill: #e0e0ff"/>
    <path d="M 935.901797 34.92 
L 935.901797 7.2 
L 937.912587 7.2 
L 937.912587 34.92 
L 935.901797 34.92 
z
" clip-path="url(#p5c8529873c)" style="fill: #d4d4ff"/>
    <path d="M 937.912587 34.92 
L 937.912587 7.2 
L 939.923377 7.2 
L 939.923377 34.92 
L 937.912587 34.92 
z
" clip-path="url(#p5c8529873c)" style="fill: #dadaff"/>
    <path d="M 939.923377 34.92 
L 939.923377 7.2 
L 941.934167 7.2 
L 941.934167 34.92 
L 939.923377 34.92 
z
" clip-path="url(#p5c8529873c)" style="fill: #d8d8ff"/>
   </g>
   <g id="patch_3">
    <path d="M 107.45625 34.92 
L 107.45625 7.2 
" style="fill: none; stroke: #262626; stroke-width: 1.25; stroke-linejoin: miter; stroke-linecap: square"/>
   </g>
   <g id="patch_4">
    <path d="M 941.934167 34.92 
L 941.934167 7.2 
" style="fill: none; stroke: #262626; stroke-width: 1.25; stroke-linejoin: miter; stroke-linecap: square"/>
   </g>
   <g id="patch_5">
    <path d="M 107.45625 34.92 
L 941.934167 34.92 
" style="fill: none; stroke: #262626; stroke-width: 1.25; stroke-linejoin: miter; stroke-linecap: square"/>
   </g>
   <g id="patch_6">
    <path d="M 107.45625 7.2 
L 941.934167 7.2 
" style="fill: none; stroke: #262626; stroke-width: 1.25; stroke-linejoin: miter; stroke-linecap: square"/>
   </g>
   <g id="text_6">
    <text style="fill: #262626; font: 18px 'Arial', 'Liberation Sans', 'DejaVu Sans', 'Bitstream Vera Sans', sans-serif; text-anchor: middle" x="270.330253" y="65.412" transform="rotate(-0 270.330253 65.412)">Cells</text>
   </g>
   <g id="text_7">
    <text style="fill: #262626; font: 18px 'Arial', 'Liberation Sans', 'DejaVu Sans', 'Bitstream Vera Sans', sans-serif; text-anchor: middle" x="610.15379" y="65.412" transform="rotate(-0 610.15379 65.412)">Cytoplasm</text>
   </g>
   <g id="text_8">
    <text style="fill: #262626; font: 18px 'Arial', 'Liberation Sans', 'DejaVu Sans', 'Bitstream Vera Sans', sans-serif; text-anchor: middle" x="863.513351" y="65.412" transform="rotate(-0 863.513351 65.412)">Nuclei</text>
   </g>
  </g>
 </g>
 <defs>
  <clipPath id="p5c8529873c">
   <rect x="107.45625" y="7.2" width="834.477917" height="27.72"/>
  </clipPath>
 </defs>
</svg>
