<?xml version="1.0" encoding="utf-8" standalone="no"?>
<!DOCTYPE svg PUBLIC "-//W3C//DTD SVG 1.1//EN"
  "http://www.w3.org/Graphics/SVG/1.1/DTD/svg11.dtd">
<svg xmlns:xlink="http://www.w3.org/1999/xlink" width="961.646276pt" height="75.266437pt" viewBox="0 0 961.646276 75.266437" xmlns="http://www.w3.org/2000/svg" version="1.1">
 <metadata>
  <rdf:RDF xmlns:dc="http://purl.org/dc/elements/1.1/" xmlns:cc="http://creativecommons.org/ns#" xmlns:rdf="http://www.w3.org/1999/02/22-rdf-syntax-ns#">
   <cc:Work>
    <dc:type rdf:resource="http://purl.org/dc/dcmitype/StillImage"/>
    <dc:date>2022-05-11T11:54:03.078462</dc:date>
    <dc:format>image/svg+xml</dc:format>
    <dc:creator>
     <cc:Agent>
      <dc:title>Matplotlib v3.5.1, https://matplotlib.org/</dc:title>
     </cc:Agent>
    </dc:creator>
   </cc:Work>
  </rdf:RDF>
 </metadata>
 <defs>
  <style type="text/css">*{stroke-linejoin: round; stroke-linecap: butt}</style>
 </defs>
 <g id="figure_1">
  <g id="patch_1">
   <path d="M 0 75.266437 
L 961.646276 75.266437 
L 961.646276 0 
L 0 0 
z
" style="fill: #ffffff"/>
  </g>
  <g id="axes_1">
   <g id="patch_2">
    <path d="M 107.45625 34.38 
L 941.934167 34.38 
L 941.934167 7.2 
L 107.45625 7.2 
z
" style="fill: #ffffff"/>
   </g>
   <g id="matplotlib.axis_1">
    <g id="xtick_1">
     <g id="line2d_1"/>
     <g id="text_1">
      <!-- 1 -->
      <g style="fill: #262626" transform="translate(105.296337 54.216719)scale(0.15 -0.15)">
       <defs>
        <path id="ArialMT-31" d="M 2384 0 
L 1822 0 
L 1822 3584 
Q 1619 3391 1289 3197 
Q 959 3003 697 2906 
L 697 3450 
Q 1169 3672 1522 3987 
Q 1875 4303 2022 4600 
L 2384 4600 
L 2384 0 
z
" transform="scale(0.015625)"/>
       </defs>
       <use xlink:href="#ArialMT-31"/>
      </g>
     </g>
    </g>
    <g id="xtick_2">
     <g id="line2d_2"/>
     <g id="text_2">
      <!-- 162 -->
      <g style="fill: #262626" transform="translate(420.692147 54.216719)scale(0.15 -0.15)">
       <defs>
        <path id="ArialMT-36" d="M 3184 3459 
L 2625 3416 
Q 2550 3747 2413 3897 
Q 2184 4138 1850 4138 
Q 1581 4138 1378 3988 
Q 1113 3794 959 3422 
Q 806 3050 800 2363 
Q 1003 2672 1297 2822 
Q 1591 2972 1913 2972 
Q 2475 2972 2870 2558 
Q 3266 2144 3266 1488 
Q 3266 1056 3080 686 
Q 2894 316 2569 119 
Q 2244 -78 1831 -78 
Q 1128 -78 684 439 
Q 241 956 241 2144 
Q 241 3472 731 4075 
Q 1159 4600 1884 4600 
Q 2425 4600 2770 4297 
Q 3116 3994 3184 3459 
z
M 888 1484 
Q 888 1194 1011 928 
Q 1134 663 1356 523 
Q 1578 384 1822 384 
Q 2178 384 2434 671 
Q 2691 959 2691 1453 
Q 2691 1928 2437 2201 
Q 2184 2475 1800 2475 
Q 1419 2475 1153 2201 
Q 888 1928 888 1484 
z
" transform="scale(0.015625)"/>
        <path id="ArialMT-32" d="M 3222 541 
L 3222 0 
L 194 0 
Q 188 203 259 391 
Q 375 700 629 1000 
Q 884 1300 1366 1694 
Q 2113 2306 2375 2664 
Q 2638 3022 2638 3341 
Q 2638 3675 2398 3904 
Q 2159 4134 1775 4134 
Q 1369 4134 1125 3890 
Q 881 3647 878 3216 
L 300 3275 
Q 359 3922 746 4261 
Q 1134 4600 1788 4600 
Q 2447 4600 2831 4234 
Q 3216 3869 3216 3328 
Q 3216 3053 3103 2787 
Q 2991 2522 2730 2228 
Q 2469 1934 1863 1422 
Q 1356 997 1212 845 
Q 1069 694 975 541 
L 3222 541 
z
" transform="scale(0.015625)"/>
       </defs>
       <use xlink:href="#ArialMT-31"/>
       <use xlink:href="#ArialMT-36" x="55.615234"/>
       <use xlink:href="#ArialMT-32" x="111.230469"/>
      </g>
     </g>
    </g>
    <g id="xtick_3">
     <g id="line2d_3"/>
     <g id="text_3">
      <!-- 338 -->
      <g style="fill: #262626" transform="translate(774.591215 54.216719)scale(0.15 -0.15)">
       <defs>
        <path id="ArialMT-33" d="M 269 1209 
L 831 1284 
Q 928 806 1161 595 
Q 1394 384 1728 384 
Q 2125 384 2398 659 
Q 2672 934 2672 1341 
Q 2672 1728 2419 1979 
Q 2166 2231 1775 2231 
Q 1616 2231 1378 2169 
L 1441 2663 
Q 1497 2656 1531 2656 
Q 1891 2656 2178 2843 
Q 2466 3031 2466 3422 
Q 2466 3731 2256 3934 
Q 2047 4138 1716 4138 
Q 1388 4138 1169 3931 
Q 950 3725 888 3313 
L 325 3413 
Q 428 3978 793 4289 
Q 1159 4600 1703 4600 
Q 2078 4600 2393 4439 
Q 2709 4278 2876 4000 
Q 3044 3722 3044 3409 
Q 3044 3113 2884 2869 
Q 2725 2625 2413 2481 
Q 2819 2388 3044 2092 
Q 3269 1797 3269 1353 
Q 3269 753 2831 336 
Q 2394 -81 1725 -81 
Q 1122 -81 723 278 
Q 325 638 269 1209 
z
" transform="scale(0.015625)"/>
        <path id="ArialMT-38" d="M 1131 2484 
Q 781 2613 612 2850 
Q 444 3088 444 3419 
Q 444 3919 803 4259 
Q 1163 4600 1759 4600 
Q 2359 4600 2725 4251 
Q 3091 3903 3091 3403 
Q 3091 3084 2923 2848 
Q 2756 2613 2416 2484 
Q 2838 2347 3058 2040 
Q 3278 1734 3278 1309 
Q 3278 722 2862 322 
Q 2447 -78 1769 -78 
Q 1091 -78 675 323 
Q 259 725 259 1325 
Q 259 1772 486 2073 
Q 713 2375 1131 2484 
z
M 1019 3438 
Q 1019 3113 1228 2906 
Q 1438 2700 1772 2700 
Q 2097 2700 2305 2904 
Q 2513 3109 2513 3406 
Q 2513 3716 2298 3927 
Q 2084 4138 1766 4138 
Q 1444 4138 1231 3931 
Q 1019 3725 1019 3438 
z
M 838 1322 
Q 838 1081 952 856 
Q 1066 631 1291 507 
Q 1516 384 1775 384 
Q 2178 384 2440 643 
Q 2703 903 2703 1303 
Q 2703 1709 2433 1975 
Q 2163 2241 1756 2241 
Q 1359 2241 1098 1978 
Q 838 1716 838 1322 
z
" transform="scale(0.015625)"/>
       </defs>
       <use xlink:href="#ArialMT-33"/>
       <use xlink:href="#ArialMT-33" x="55.615234"/>
       <use xlink:href="#ArialMT-38" x="111.230469"/>
      </g>
     </g>
    </g>
    <g id="xtick_4">
     <g id="line2d_4"/>
     <g id="text_4">
      <!-- 415 -->
      <g style="fill: #262626" transform="translate(929.422058 54.216719)scale(0.15 -0.15)">
       <defs>
        <path id="ArialMT-34" d="M 2069 0 
L 2069 1097 
L 81 1097 
L 81 1613 
L 2172 4581 
L 2631 4581 
L 2631 1613 
L 3250 1613 
L 3250 1097 
L 2631 1097 
L 2631 0 
L 2069 0 
z
M 2069 1613 
L 2069 3678 
L 634 1613 
L 2069 1613 
z
" transform="scale(0.015625)"/>
        <path id="ArialMT-35" d="M 266 1200 
L 856 1250 
Q 922 819 1161 601 
Q 1400 384 1738 384 
Q 2144 384 2425 690 
Q 2706 997 2706 1503 
Q 2706 1984 2436 2262 
Q 2166 2541 1728 2541 
Q 1456 2541 1237 2417 
Q 1019 2294 894 2097 
L 366 2166 
L 809 4519 
L 3088 4519 
L 3088 3981 
L 1259 3981 
L 1013 2750 
Q 1425 3038 1878 3038 
Q 2478 3038 2890 2622 
Q 3303 2206 3303 1553 
Q 3303 931 2941 478 
Q 2500 -78 1738 -78 
Q 1113 -78 717 272 
Q 322 622 266 1200 
z
" transform="scale(0.015625)"/>
       </defs>
       <use xlink:href="#ArialMT-34"/>
       <use xlink:href="#ArialMT-31" x="55.615234"/>
       <use xlink:href="#ArialMT-35" x="111.230469"/>
      </g>
     </g>
    </g>
   </g>
   <g id="matplotlib.axis_2">
    <g id="ytick_1">
     <g id="line2d_5"/>
     <g id="text_5">
      <!-- Uncoupler -->
      <g style="fill: #262626" transform="translate(7.2 27.947812)scale(0.2 -0.2)">
       <defs>
        <path id="ArialMT-55" d="M 3500 4581 
L 4106 4581 
L 4106 1934 
Q 4106 1244 3950 837 
Q 3794 431 3386 176 
Q 2978 -78 2316 -78 
Q 1672 -78 1262 144 
Q 853 366 678 786 
Q 503 1206 503 1934 
L 503 4581 
L 1109 4581 
L 1109 1938 
Q 1109 1341 1220 1058 
Q 1331 775 1601 622 
Q 1872 469 2263 469 
Q 2931 469 3215 772 
Q 3500 1075 3500 1938 
L 3500 4581 
z
" transform="scale(0.015625)"/>
        <path id="ArialMT-6e" d="M 422 0 
L 422 3319 
L 928 3319 
L 928 2847 
Q 1294 3394 1984 3394 
Q 2284 3394 2536 3286 
Q 2788 3178 2913 3003 
Q 3038 2828 3088 2588 
Q 3119 2431 3119 2041 
L 3119 0 
L 2556 0 
L 2556 2019 
Q 2556 2363 2490 2533 
Q 2425 2703 2258 2804 
Q 2091 2906 1866 2906 
Q 1506 2906 1245 2678 
Q 984 2450 984 1813 
L 984 0 
L 422 0 
z
" transform="scale(0.015625)"/>
        <path id="ArialMT-63" d="M 2588 1216 
L 3141 1144 
Q 3050 572 2676 248 
Q 2303 -75 1759 -75 
Q 1078 -75 664 370 
Q 250 816 250 1647 
Q 250 2184 428 2587 
Q 606 2991 970 3192 
Q 1334 3394 1763 3394 
Q 2303 3394 2647 3120 
Q 2991 2847 3088 2344 
L 2541 2259 
Q 2463 2594 2264 2762 
Q 2066 2931 1784 2931 
Q 1359 2931 1093 2626 
Q 828 2322 828 1663 
Q 828 994 1084 691 
Q 1341 388 1753 388 
Q 2084 388 2306 591 
Q 2528 794 2588 1216 
z
" transform="scale(0.015625)"/>
        <path id="ArialMT-6f" d="M 213 1659 
Q 213 2581 725 3025 
Q 1153 3394 1769 3394 
Q 2453 3394 2887 2945 
Q 3322 2497 3322 1706 
Q 3322 1066 3130 698 
Q 2938 331 2570 128 
Q 2203 -75 1769 -75 
Q 1072 -75 642 372 
Q 213 819 213 1659 
z
M 791 1659 
Q 791 1022 1069 705 
Q 1347 388 1769 388 
Q 2188 388 2466 706 
Q 2744 1025 2744 1678 
Q 2744 2294 2464 2611 
Q 2184 2928 1769 2928 
Q 1347 2928 1069 2612 
Q 791 2297 791 1659 
z
" transform="scale(0.015625)"/>
        <path id="ArialMT-75" d="M 2597 0 
L 2597 488 
Q 2209 -75 1544 -75 
Q 1250 -75 995 37 
Q 741 150 617 320 
Q 494 491 444 738 
Q 409 903 409 1263 
L 409 3319 
L 972 3319 
L 972 1478 
Q 972 1038 1006 884 
Q 1059 663 1231 536 
Q 1403 409 1656 409 
Q 1909 409 2131 539 
Q 2353 669 2445 892 
Q 2538 1116 2538 1541 
L 2538 3319 
L 3100 3319 
L 3100 0 
L 2597 0 
z
" transform="scale(0.015625)"/>
        <path id="ArialMT-70" d="M 422 -1272 
L 422 3319 
L 934 3319 
L 934 2888 
Q 1116 3141 1344 3267 
Q 1572 3394 1897 3394 
Q 2322 3394 2647 3175 
Q 2972 2956 3137 2557 
Q 3303 2159 3303 1684 
Q 3303 1175 3120 767 
Q 2938 359 2589 142 
Q 2241 -75 1856 -75 
Q 1575 -75 1351 44 
Q 1128 163 984 344 
L 984 -1272 
L 422 -1272 
z
M 931 1641 
Q 931 1000 1190 694 
Q 1450 388 1819 388 
Q 2194 388 2461 705 
Q 2728 1022 2728 1688 
Q 2728 2322 2467 2637 
Q 2206 2953 1844 2953 
Q 1484 2953 1207 2617 
Q 931 2281 931 1641 
z
" transform="scale(0.015625)"/>
        <path id="ArialMT-6c" d="M 409 0 
L 409 4581 
L 972 4581 
L 972 0 
L 409 0 
z
" transform="scale(0.015625)"/>
        <path id="ArialMT-65" d="M 2694 1069 
L 3275 997 
Q 3138 488 2766 206 
Q 2394 -75 1816 -75 
Q 1088 -75 661 373 
Q 234 822 234 1631 
Q 234 2469 665 2931 
Q 1097 3394 1784 3394 
Q 2450 3394 2872 2941 
Q 3294 2488 3294 1666 
Q 3294 1616 3291 1516 
L 816 1516 
Q 847 969 1125 678 
Q 1403 388 1819 388 
Q 2128 388 2347 550 
Q 2566 713 2694 1069 
z
M 847 1978 
L 2700 1978 
Q 2663 2397 2488 2606 
Q 2219 2931 1791 2931 
Q 1403 2931 1139 2672 
Q 875 2413 847 1978 
z
" transform="scale(0.015625)"/>
        <path id="ArialMT-72" d="M 416 0 
L 416 3319 
L 922 3319 
L 922 2816 
Q 1116 3169 1280 3281 
Q 1444 3394 1641 3394 
Q 1925 3394 2219 3213 
L 2025 2691 
Q 1819 2813 1613 2813 
Q 1428 2813 1281 2702 
Q 1134 2591 1072 2394 
Q 978 2094 978 1738 
L 978 0 
L 416 0 
z
" transform="scale(0.015625)"/>
       </defs>
       <use xlink:href="#ArialMT-55"/>
       <use xlink:href="#ArialMT-6e" x="72.216797"/>
       <use xlink:href="#ArialMT-63" x="127.832031"/>
       <use xlink:href="#ArialMT-6f" x="177.832031"/>
       <use xlink:href="#ArialMT-75" x="233.447266"/>
       <use xlink:href="#ArialMT-70" x="289.0625"/>
       <use xlink:href="#ArialMT-6c" x="344.677734"/>
       <use xlink:href="#ArialMT-65" x="366.894531"/>
       <use xlink:href="#ArialMT-72" x="422.509766"/>
      </g>
     </g>
    </g>
   </g>
   <g id="PolyCollection_1">
    <path d="M 107.45625 34.38 
L 107.45625 7.2 
L 109.46704 7.2 
L 109.46704 34.38 
L 107.45625 34.38 
z
" clip-path="url(#p0b43e954bc)" style="fill: #3c3cff"/>
    <path d="M 109.46704 34.38 
L 109.46704 7.2 
L 111.47783 7.2 
L 111.47783 34.38 
L 109.46704 34.38 
z
" clip-path="url(#p0b43e954bc)" style="fill: #2424ff"/>
    <path d="M 111.47783 34.38 
L 111.47783 7.2 
L 113.48862 7.2 
L 113.48862 34.38 
L 111.47783 34.38 
z
" clip-path="url(#p0b43e954bc)" style="fill: #2020ff"/>
    <path d="M 113.48862 34.38 
L 113.48862 7.2 
L 115.499411 7.2 
L 115.499411 34.38 
L 113.48862 34.38 
z
" clip-path="url(#p0b43e954bc)" style="fill: #1414ff"/>
    <path d="M 115.499411 34.38 
L 115.499411 7.2 
L 117.510201 7.2 
L 117.510201 34.38 
L 115.499411 34.38 
z
" clip-path="url(#p0b43e954bc)" style="fill: #0404ff"/>
    <path d="M 117.510201 34.38 
L 117.510201 7.2 
L 119.520991 7.2 
L 119.520991 34.38 
L 117.510201 34.38 
z
" clip-path="url(#p0b43e954bc)" style="fill: #5656ff"/>
    <path d="M 119.520991 34.38 
L 119.520991 7.2 
L 121.531781 7.2 
L 121.531781 34.38 
L 119.520991 34.38 
z
" clip-path="url(#p0b43e954bc)" style="fill: #ffd2d2"/>
    <path d="M 121.531781 34.38 
L 121.531781 7.2 
L 123.542571 7.2 
L 123.542571 34.38 
L 121.531781 34.38 
z
" clip-path="url(#p0b43e954bc)" style="fill: #ffdcdc"/>
    <path d="M 123.542571 34.38 
L 123.542571 7.2 
L 125.553361 7.2 
L 125.553361 34.38 
L 123.542571 34.38 
z
" clip-path="url(#p0b43e954bc)" style="fill: #bebeff"/>
    <path d="M 125.553361 34.38 
L 125.553361 7.2 
L 127.564152 7.2 
L 127.564152 34.38 
L 125.553361 34.38 
z
" clip-path="url(#p0b43e954bc)" style="fill: #ffcccc"/>
    <path d="M 127.564152 34.38 
L 127.564152 7.2 
L 129.574942 7.2 
L 129.574942 34.38 
L 127.564152 34.38 
z
" clip-path="url(#p0b43e954bc)" style="fill: #ffe2e2"/>
    <path d="M 129.574942 34.38 
L 129.574942 7.2 
L 131.585732 7.2 
L 131.585732 34.38 
L 129.574942 34.38 
z
" clip-path="url(#p0b43e954bc)" style="fill: #e0e0ff"/>
    <path d="M 131.585732 34.38 
L 131.585732 7.2 
L 133.596522 7.2 
L 133.596522 34.38 
L 131.585732 34.38 
z
" clip-path="url(#p0b43e954bc)" style="fill: #ffb6b6"/>
    <path d="M 133.596522 34.38 
L 133.596522 7.2 
L 135.607312 7.2 
L 135.607312 34.38 
L 133.596522 34.38 
z
" clip-path="url(#p0b43e954bc)" style="fill: #ffd8d8"/>
    <path d="M 135.607312 34.38 
L 135.607312 7.2 
L 137.618102 7.2 
L 137.618102 34.38 
L 135.607312 34.38 
z
" clip-path="url(#p0b43e954bc)" style="fill: #ffd4d4"/>
    <path d="M 137.618102 34.38 
L 137.618102 7.2 
L 139.628893 7.2 
L 139.628893 34.38 
L 137.618102 34.38 
z
" clip-path="url(#p0b43e954bc)" style="fill: #fff4f4"/>
    <path d="M 139.628893 34.38 
L 139.628893 7.2 
L 141.639683 7.2 
L 141.639683 34.38 
L 139.628893 34.38 
z
" clip-path="url(#p0b43e954bc)" style="fill: #ffdcdc"/>
    <path d="M 141.639683 34.38 
L 141.639683 7.2 
L 143.650473 7.2 
L 143.650473 34.38 
L 141.639683 34.38 
z
" clip-path="url(#p0b43e954bc)" style="fill: #fffafa"/>
    <path d="M 143.650473 34.38 
L 143.650473 7.2 
L 145.661263 7.2 
L 145.661263 34.38 
L 143.650473 34.38 
z
" clip-path="url(#p0b43e954bc)" style="fill: #ffe2e2"/>
    <path d="M 145.661263 34.38 
L 145.661263 7.2 
L 147.672053 7.2 
L 147.672053 34.38 
L 145.661263 34.38 
z
" clip-path="url(#p0b43e954bc)" style="fill: #f2f2ff"/>
    <path d="M 147.672053 34.38 
L 147.672053 7.2 
L 149.682843 7.2 
L 149.682843 34.38 
L 147.672053 34.38 
z
" clip-path="url(#p0b43e954bc)" style="fill: #dedeff"/>
    <path d="M 149.682843 34.38 
L 149.682843 7.2 
L 151.693634 7.2 
L 151.693634 34.38 
L 149.682843 34.38 
z
" clip-path="url(#p0b43e954bc)" style="fill: #eaeaff"/>
    <path d="M 151.693634 34.38 
L 151.693634 7.2 
L 153.704424 7.2 
L 153.704424 34.38 
L 151.693634 34.38 
z
" clip-path="url(#p0b43e954bc)" style="fill: #ffcaca"/>
    <path d="M 153.704424 34.38 
L 153.704424 7.2 
L 155.715214 7.2 
L 155.715214 34.38 
L 153.704424 34.38 
z
" clip-path="url(#p0b43e954bc)" style="fill: #a4a4ff"/>
    <path d="M 155.715214 34.38 
L 155.715214 7.2 
L 157.726004 7.2 
L 157.726004 34.38 
L 155.715214 34.38 
z
" clip-path="url(#p0b43e954bc)" style="fill: #ffcaca"/>
    <path d="M 157.726004 34.38 
L 157.726004 7.2 
L 159.736794 7.2 
L 159.736794 34.38 
L 157.726004 34.38 
z
" clip-path="url(#p0b43e954bc)" style="fill: #ff7a7a"/>
    <path d="M 159.736794 34.38 
L 159.736794 7.2 
L 161.747584 7.2 
L 161.747584 34.38 
L 159.736794 34.38 
z
" clip-path="url(#p0b43e954bc)" style="fill: #ffbebe"/>
    <path d="M 161.747584 34.38 
L 161.747584 7.2 
L 163.758375 7.2 
L 163.758375 34.38 
L 161.747584 34.38 
z
" clip-path="url(#p0b43e954bc)" style="fill: #e2e2ff"/>
    <path d="M 163.758375 34.38 
L 163.758375 7.2 
L 165.769165 7.2 
L 165.769165 34.38 
L 163.758375 34.38 
z
" clip-path="url(#p0b43e954bc)" style="fill: #ffe8e8"/>
    <path d="M 165.769165 34.38 
L 165.769165 7.2 
L 167.779955 7.2 
L 167.779955 34.38 
L 165.769165 34.38 
z
" clip-path="url(#p0b43e954bc)" style="fill: #e4e4ff"/>
    <path d="M 167.779955 34.38 
L 167.779955 7.2 
L 169.790745 7.2 
L 169.790745 34.38 
L 167.779955 34.38 
z
" clip-path="url(#p0b43e954bc)" style="fill: #ffcccc"/>
    <path d="M 169.790745 34.38 
L 169.790745 7.2 
L 171.801535 7.2 
L 171.801535 34.38 
L 169.790745 34.38 
z
" clip-path="url(#p0b43e954bc)" style="fill: #ffa8a8"/>
    <path d="M 171.801535 34.38 
L 171.801535 7.2 
L 173.812325 7.2 
L 173.812325 34.38 
L 171.801535 34.38 
z
" clip-path="url(#p0b43e954bc)" style="fill: #ffd6d6"/>
    <path d="M 173.812325 34.38 
L 173.812325 7.2 
L 175.823115 7.2 
L 175.823115 34.38 
L 173.812325 34.38 
z
" clip-path="url(#p0b43e954bc)" style="fill: #dcdcff"/>
    <path d="M 175.823115 34.38 
L 175.823115 7.2 
L 177.833906 7.2 
L 177.833906 34.38 
L 175.823115 34.38 
z
" clip-path="url(#p0b43e954bc)" style="fill: #ffeaea"/>
    <path d="M 177.833906 34.38 
L 177.833906 7.2 
L 179.844696 7.2 
L 179.844696 34.38 
L 177.833906 34.38 
z
" clip-path="url(#p0b43e954bc)" style="fill: #c6c6ff"/>
    <path d="M 179.844696 34.38 
L 179.844696 7.2 
L 181.855486 7.2 
L 181.855486 34.38 
L 179.844696 34.38 
z
" clip-path="url(#p0b43e954bc)" style="fill: #b4b4ff"/>
    <path d="M 181.855486 34.38 
L 181.855486 7.2 
L 183.866276 7.2 
L 183.866276 34.38 
L 181.855486 34.38 
z
" clip-path="url(#p0b43e954bc)" style="fill: #ffcccc"/>
    <path d="M 183.866276 34.38 
L 183.866276 7.2 
L 185.877066 7.2 
L 185.877066 34.38 
L 183.866276 34.38 
z
" clip-path="url(#p0b43e954bc)" style="fill: #a4a4ff"/>
    <path d="M 185.877066 34.38 
L 185.877066 7.2 
L 187.887856 7.2 
L 187.887856 34.38 
L 185.877066 34.38 
z
" clip-path="url(#p0b43e954bc)" style="fill: #ffcaca"/>
    <path d="M 187.887856 34.38 
L 187.887856 7.2 
L 189.898647 7.2 
L 189.898647 34.38 
L 187.887856 34.38 
z
" clip-path="url(#p0b43e954bc)" style="fill: #e0e0ff"/>
    <path d="M 189.898647 34.38 
L 189.898647 7.2 
L 191.909437 7.2 
L 191.909437 34.38 
L 189.898647 34.38 
z
" clip-path="url(#p0b43e954bc)" style="fill: #c4c4ff"/>
    <path d="M 191.909437 34.38 
L 191.909437 7.2 
L 193.920227 7.2 
L 193.920227 34.38 
L 191.909437 34.38 
z
" clip-path="url(#p0b43e954bc)" style="fill: #9e9eff"/>
    <path d="M 193.920227 34.38 
L 193.920227 7.2 
L 195.931017 7.2 
L 195.931017 34.38 
L 193.920227 34.38 
z
" clip-path="url(#p0b43e954bc)" style="fill: #e8e8ff"/>
    <path d="M 195.931017 34.38 
L 195.931017 7.2 
L 197.941807 7.2 
L 197.941807 34.38 
L 195.931017 34.38 
z
" clip-path="url(#p0b43e954bc)" style="fill: #bebeff"/>
    <path d="M 197.941807 34.38 
L 197.941807 7.2 
L 199.952597 7.2 
L 199.952597 34.38 
L 197.941807 34.38 
z
" clip-path="url(#p0b43e954bc)" style="fill: #ffb6b6"/>
    <path d="M 199.952597 34.38 
L 199.952597 7.2 
L 201.963388 7.2 
L 201.963388 34.38 
L 199.952597 34.38 
z
" clip-path="url(#p0b43e954bc)" style="fill: #ffa6a6"/>
    <path d="M 201.963388 34.38 
L 201.963388 7.2 
L 203.974178 7.2 
L 203.974178 34.38 
L 201.963388 34.38 
z
" clip-path="url(#p0b43e954bc)" style="fill: #ffb2b2"/>
    <path d="M 203.974178 34.38 
L 203.974178 7.2 
L 205.984968 7.2 
L 205.984968 34.38 
L 203.974178 34.38 
z
" clip-path="url(#p0b43e954bc)" style="fill: #ffb6b6"/>
    <path d="M 205.984968 34.38 
L 205.984968 7.2 
L 207.995758 7.2 
L 207.995758 34.38 
L 205.984968 34.38 
z
" clip-path="url(#p0b43e954bc)" style="fill: #ffcccc"/>
    <path d="M 207.995758 34.38 
L 207.995758 7.2 
L 210.006548 7.2 
L 210.006548 34.38 
L 207.995758 34.38 
z
" clip-path="url(#p0b43e954bc)" style="fill: #ffd2d2"/>
    <path d="M 210.006548 34.38 
L 210.006548 7.2 
L 212.017338 7.2 
L 212.017338 34.38 
L 210.006548 34.38 
z
" clip-path="url(#p0b43e954bc)" style="fill: #b6b6ff"/>
    <path d="M 212.017338 34.38 
L 212.017338 7.2 
L 214.028129 7.2 
L 214.028129 34.38 
L 212.017338 34.38 
z
" clip-path="url(#p0b43e954bc)" style="fill: #bcbcff"/>
    <path d="M 214.028129 34.38 
L 214.028129 7.2 
L 216.038919 7.2 
L 216.038919 34.38 
L 214.028129 34.38 
z
" clip-path="url(#p0b43e954bc)" style="fill: #ffc2c2"/>
    <path d="M 216.038919 34.38 
L 216.038919 7.2 
L 218.049709 7.2 
L 218.049709 34.38 
L 216.038919 34.38 
z
" clip-path="url(#p0b43e954bc)" style="fill: #ffc4c4"/>
    <path d="M 218.049709 34.38 
L 218.049709 7.2 
L 220.060499 7.2 
L 220.060499 34.38 
L 218.049709 34.38 
z
" clip-path="url(#p0b43e954bc)" style="fill: #ffecec"/>
    <path d="M 220.060499 34.38 
L 220.060499 7.2 
L 222.071289 7.2 
L 222.071289 34.38 
L 220.060499 34.38 
z
" clip-path="url(#p0b43e954bc)" style="fill: #ff9696"/>
    <path d="M 222.071289 34.38 
L 222.071289 7.2 
L 224.082079 7.2 
L 224.082079 34.38 
L 222.071289 34.38 
z
" clip-path="url(#p0b43e954bc)" style="fill: #ffbebe"/>
    <path d="M 224.082079 34.38 
L 224.082079 7.2 
L 226.09287 7.2 
L 226.09287 34.38 
L 224.082079 34.38 
z
" clip-path="url(#p0b43e954bc)" style="fill: #e4e4ff"/>
    <path d="M 226.09287 34.38 
L 226.09287 7.2 
L 228.10366 7.2 
L 228.10366 34.38 
L 226.09287 34.38 
z
" clip-path="url(#p0b43e954bc)" style="fill: #ffe2e2"/>
    <path d="M 228.10366 34.38 
L 228.10366 7.2 
L 230.11445 7.2 
L 230.11445 34.38 
L 228.10366 34.38 
z
" clip-path="url(#p0b43e954bc)" style="fill: #e2e2ff"/>
    <path d="M 230.11445 34.38 
L 230.11445 7.2 
L 232.12524 7.2 
L 232.12524 34.38 
L 230.11445 34.38 
z
" clip-path="url(#p0b43e954bc)" style="fill: #d0d0ff"/>
    <path d="M 232.12524 34.38 
L 232.12524 7.2 
L 234.13603 7.2 
L 234.13603 34.38 
L 232.12524 34.38 
z
" clip-path="url(#p0b43e954bc)" style="fill: #d8d8ff"/>
    <path d="M 234.13603 34.38 
L 234.13603 7.2 
L 236.14682 7.2 
L 236.14682 34.38 
L 234.13603 34.38 
z
" clip-path="url(#p0b43e954bc)" style="fill: #fffefe"/>
    <path d="M 236.14682 34.38 
L 236.14682 7.2 
L 238.157611 7.2 
L 238.157611 34.38 
L 236.14682 34.38 
z
" clip-path="url(#p0b43e954bc)" style="fill: #ffbcbc"/>
    <path d="M 238.157611 34.38 
L 238.157611 7.2 
L 240.168401 7.2 
L 240.168401 34.38 
L 238.157611 34.38 
z
" clip-path="url(#p0b43e954bc)" style="fill: #ffd8d8"/>
    <path d="M 240.168401 34.38 
L 240.168401 7.2 
L 242.179191 7.2 
L 242.179191 34.38 
L 240.168401 34.38 
z
" clip-path="url(#p0b43e954bc)" style="fill: #ffd0d0"/>
    <path d="M 242.179191 34.38 
L 242.179191 7.2 
L 244.189981 7.2 
L 244.189981 34.38 
L 242.179191 34.38 
z
" clip-path="url(#p0b43e954bc)" style="fill: #ffc2c2"/>
    <path d="M 244.189981 34.38 
L 244.189981 7.2 
L 246.200771 7.2 
L 246.200771 34.38 
L 244.189981 34.38 
z
" clip-path="url(#p0b43e954bc)" style="fill: #ffcaca"/>
    <path d="M 246.200771 34.38 
L 246.200771 7.2 
L 248.211561 7.2 
L 248.211561 34.38 
L 246.200771 34.38 
z
" clip-path="url(#p0b43e954bc)" style="fill: #ffcccc"/>
    <path d="M 248.211561 34.38 
L 248.211561 7.2 
L 250.222351 7.2 
L 250.222351 34.38 
L 248.211561 34.38 
z
" clip-path="url(#p0b43e954bc)" style="fill: #ffe8e8"/>
    <path d="M 250.222351 34.38 
L 250.222351 7.2 
L 252.233142 7.2 
L 252.233142 34.38 
L 250.222351 34.38 
z
" clip-path="url(#p0b43e954bc)" style="fill: #ffd0d0"/>
    <path d="M 252.233142 34.38 
L 252.233142 7.2 
L 254.243932 7.2 
L 254.243932 34.38 
L 252.233142 34.38 
z
" clip-path="url(#p0b43e954bc)" style="fill: #ff8c8c"/>
    <path d="M 254.243932 34.38 
L 254.243932 7.2 
L 256.254722 7.2 
L 256.254722 34.38 
L 254.243932 34.38 
z
" clip-path="url(#p0b43e954bc)" style="fill: #ffcaca"/>
    <path d="M 256.254722 34.38 
L 256.254722 7.2 
L 258.265512 7.2 
L 258.265512 34.38 
L 256.254722 34.38 
z
" clip-path="url(#p0b43e954bc)" style="fill: #ffdada"/>
    <path d="M 258.265512 34.38 
L 258.265512 7.2 
L 260.276302 7.2 
L 260.276302 34.38 
L 258.265512 34.38 
z
" clip-path="url(#p0b43e954bc)" style="fill: #f6f6ff"/>
    <path d="M 260.276302 34.38 
L 260.276302 7.2 
L 262.287092 7.2 
L 262.287092 34.38 
L 260.276302 34.38 
z
" clip-path="url(#p0b43e954bc)" style="fill: #ffe0e0"/>
    <path d="M 262.287092 34.38 
L 262.287092 7.2 
L 264.297883 7.2 
L 264.297883 34.38 
L 262.287092 34.38 
z
" clip-path="url(#p0b43e954bc)" style="fill: #ffdcdc"/>
    <path d="M 264.297883 34.38 
L 264.297883 7.2 
L 266.308673 7.2 
L 266.308673 34.38 
L 264.297883 34.38 
z
" clip-path="url(#p0b43e954bc)" style="fill: #e4e4ff"/>
    <path d="M 266.308673 34.38 
L 266.308673 7.2 
L 268.319463 7.2 
L 268.319463 34.38 
L 266.308673 34.38 
z
" clip-path="url(#p0b43e954bc)" style="fill: #bcbcff"/>
    <path d="M 268.319463 34.38 
L 268.319463 7.2 
L 270.330253 7.2 
L 270.330253 34.38 
L 268.319463 34.38 
z
" clip-path="url(#p0b43e954bc)" style="fill: #c0c0ff"/>
    <path d="M 270.330253 34.38 
L 270.330253 7.2 
L 272.341043 7.2 
L 272.341043 34.38 
L 270.330253 34.38 
z
" clip-path="url(#p0b43e954bc)" style="fill: #e8e8ff"/>
    <path d="M 272.341043 34.38 
L 272.341043 7.2 
L 274.351833 7.2 
L 274.351833 34.38 
L 272.341043 34.38 
z
" clip-path="url(#p0b43e954bc)" style="fill: #fffafa"/>
    <path d="M 274.351833 34.38 
L 274.351833 7.2 
L 276.362624 7.2 
L 276.362624 34.38 
L 274.351833 34.38 
z
" clip-path="url(#p0b43e954bc)" style="fill: #f4f4ff"/>
    <path d="M 276.362624 34.38 
L 276.362624 7.2 
L 278.373414 7.2 
L 278.373414 34.38 
L 276.362624 34.38 
z
" clip-path="url(#p0b43e954bc)" style="fill: #f6f6ff"/>
    <path d="M 278.373414 34.38 
L 278.373414 7.2 
L 280.384204 7.2 
L 280.384204 34.38 
L 278.373414 34.38 
z
" clip-path="url(#p0b43e954bc)" style="fill: #babaff"/>
    <path d="M 280.384204 34.38 
L 280.384204 7.2 
L 282.394994 7.2 
L 282.394994 34.38 
L 280.384204 34.38 
z
" clip-path="url(#p0b43e954bc)" style="fill: #b0b0ff"/>
    <path d="M 282.394994 34.38 
L 282.394994 7.2 
L 284.405784 7.2 
L 284.405784 34.38 
L 282.394994 34.38 
z
" clip-path="url(#p0b43e954bc)" style="fill: #b0b0ff"/>
    <path d="M 284.405784 34.38 
L 284.405784 7.2 
L 286.416574 7.2 
L 286.416574 34.38 
L 284.405784 34.38 
z
" clip-path="url(#p0b43e954bc)" style="fill: #d4d4ff"/>
    <path d="M 286.416574 34.38 
L 286.416574 7.2 
L 288.427365 7.2 
L 288.427365 34.38 
L 286.416574 34.38 
z
" clip-path="url(#p0b43e954bc)" style="fill: #d0d0ff"/>
    <path d="M 288.427365 34.38 
L 288.427365 7.2 
L 290.438155 7.2 
L 290.438155 34.38 
L 288.427365 34.38 
z
" clip-path="url(#p0b43e954bc)" style="fill: #d0d0ff"/>
    <path d="M 290.438155 34.38 
L 290.438155 7.2 
L 292.448945 7.2 
L 292.448945 34.38 
L 290.438155 34.38 
z
" clip-path="url(#p0b43e954bc)" style="fill: #ff9292"/>
    <path d="M 292.448945 34.38 
L 292.448945 7.2 
L 294.459735 7.2 
L 294.459735 34.38 
L 292.448945 34.38 
z
" clip-path="url(#p0b43e954bc)" style="fill: #ffa0a0"/>
    <path d="M 294.459735 34.38 
L 294.459735 7.2 
L 296.470525 7.2 
L 296.470525 34.38 
L 294.459735 34.38 
z
" clip-path="url(#p0b43e954bc)" style="fill: #ffdada"/>
    <path d="M 296.470525 34.38 
L 296.470525 7.2 
L 298.481315 7.2 
L 298.481315 34.38 
L 296.470525 34.38 
z
" clip-path="url(#p0b43e954bc)" style="fill: #ffc6c6"/>
    <path d="M 298.481315 34.38 
L 298.481315 7.2 
L 300.492106 7.2 
L 300.492106 34.38 
L 298.481315 34.38 
z
" clip-path="url(#p0b43e954bc)" style="fill: #ffcaca"/>
    <path d="M 300.492106 34.38 
L 300.492106 7.2 
L 302.502896 7.2 
L 302.502896 34.38 
L 300.492106 34.38 
z
" clip-path="url(#p0b43e954bc)" style="fill: #ffb6b6"/>
    <path d="M 302.502896 34.38 
L 302.502896 7.2 
L 304.513686 7.2 
L 304.513686 34.38 
L 302.502896 34.38 
z
" clip-path="url(#p0b43e954bc)" style="fill: #ffcece"/>
    <path d="M 304.513686 34.38 
L 304.513686 7.2 
L 306.524476 7.2 
L 306.524476 34.38 
L 304.513686 34.38 
z
" clip-path="url(#p0b43e954bc)" style="fill: #ffc4c4"/>
    <path d="M 306.524476 34.38 
L 306.524476 7.2 
L 308.535266 7.2 
L 308.535266 34.38 
L 306.524476 34.38 
z
" clip-path="url(#p0b43e954bc)" style="fill: #8888ff"/>
    <path d="M 308.535266 34.38 
L 308.535266 7.2 
L 310.546056 7.2 
L 310.546056 34.38 
L 308.535266 34.38 
z
" clip-path="url(#p0b43e954bc)" style="fill: #e8e8ff"/>
    <path d="M 310.546056 34.38 
L 310.546056 7.2 
L 312.556846 7.2 
L 312.556846 34.38 
L 310.546056 34.38 
z
" clip-path="url(#p0b43e954bc)" style="fill: #c4c4ff"/>
    <path d="M 312.556846 34.38 
L 312.556846 7.2 
L 314.567637 7.2 
L 314.567637 34.38 
L 312.556846 34.38 
z
" clip-path="url(#p0b43e954bc)" style="fill: #e6e6ff"/>
    <path d="M 314.567637 34.38 
L 314.567637 7.2 
L 316.578427 7.2 
L 316.578427 34.38 
L 314.567637 34.38 
z
" clip-path="url(#p0b43e954bc)" style="fill: #f2f2ff"/>
    <path d="M 316.578427 34.38 
L 316.578427 7.2 
L 318.589217 7.2 
L 318.589217 34.38 
L 316.578427 34.38 
z
" clip-path="url(#p0b43e954bc)" style="fill: #f0f0ff"/>
    <path d="M 318.589217 34.38 
L 318.589217 7.2 
L 320.600007 7.2 
L 320.600007 34.38 
L 318.589217 34.38 
z
" clip-path="url(#p0b43e954bc)" style="fill: #ececff"/>
    <path d="M 320.600007 34.38 
L 320.600007 7.2 
L 322.610797 7.2 
L 322.610797 34.38 
L 320.600007 34.38 
z
" clip-path="url(#p0b43e954bc)" style="fill: #9292ff"/>
    <path d="M 322.610797 34.38 
L 322.610797 7.2 
L 324.621587 7.2 
L 324.621587 34.38 
L 322.610797 34.38 
z
" clip-path="url(#p0b43e954bc)" style="fill: #bcbcff"/>
    <path d="M 324.621587 34.38 
L 324.621587 7.2 
L 326.632378 7.2 
L 326.632378 34.38 
L 324.621587 34.38 
z
" clip-path="url(#p0b43e954bc)" style="fill: #ff9898"/>
    <path d="M 326.632378 34.38 
L 326.632378 7.2 
L 328.643168 7.2 
L 328.643168 34.38 
L 326.632378 34.38 
z
" clip-path="url(#p0b43e954bc)" style="fill: #ffbebe"/>
    <path d="M 328.643168 34.38 
L 328.643168 7.2 
L 330.653958 7.2 
L 330.653958 34.38 
L 328.643168 34.38 
z
" clip-path="url(#p0b43e954bc)" style="fill: #ffc8c8"/>
    <path d="M 330.653958 34.38 
L 330.653958 7.2 
L 332.664748 7.2 
L 332.664748 34.38 
L 330.653958 34.38 
z
" clip-path="url(#p0b43e954bc)" style="fill: #ffc4c4"/>
    <path d="M 332.664748 34.38 
L 332.664748 7.2 
L 334.675538 7.2 
L 334.675538 34.38 
L 332.664748 34.38 
z
" clip-path="url(#p0b43e954bc)" style="fill: #ffbebe"/>
    <path d="M 334.675538 34.38 
L 334.675538 7.2 
L 336.686328 7.2 
L 336.686328 34.38 
L 334.675538 34.38 
z
" clip-path="url(#p0b43e954bc)" style="fill: #ffcaca"/>
    <path d="M 336.686328 34.38 
L 336.686328 7.2 
L 338.697119 7.2 
L 338.697119 34.38 
L 336.686328 34.38 
z
" clip-path="url(#p0b43e954bc)" style="fill: #ffc2c2"/>
    <path d="M 338.697119 34.38 
L 338.697119 7.2 
L 340.707909 7.2 
L 340.707909 34.38 
L 338.697119 34.38 
z
" clip-path="url(#p0b43e954bc)" style="fill: #ffeeee"/>
    <path d="M 340.707909 34.38 
L 340.707909 7.2 
L 342.718699 7.2 
L 342.718699 34.38 
L 340.707909 34.38 
z
" clip-path="url(#p0b43e954bc)" style="fill: #ffd6d6"/>
    <path d="M 342.718699 34.38 
L 342.718699 7.2 
L 344.729489 7.2 
L 344.729489 34.38 
L 342.718699 34.38 
z
" clip-path="url(#p0b43e954bc)" style="fill: #d8d8ff"/>
    <path d="M 344.729489 34.38 
L 344.729489 7.2 
L 346.740279 7.2 
L 346.740279 34.38 
L 344.729489 34.38 
z
" clip-path="url(#p0b43e954bc)" style="fill: #e2e2ff"/>
    <path d="M 346.740279 34.38 
L 346.740279 7.2 
L 348.751069 7.2 
L 348.751069 34.38 
L 346.740279 34.38 
z
" clip-path="url(#p0b43e954bc)" style="fill: #d8d8ff"/>
    <path d="M 348.751069 34.38 
L 348.751069 7.2 
L 350.76186 7.2 
L 350.76186 34.38 
L 348.751069 34.38 
z
" clip-path="url(#p0b43e954bc)" style="fill: #dcdcff"/>
    <path d="M 350.76186 34.38 
L 350.76186 7.2 
L 352.77265 7.2 
L 352.77265 34.38 
L 350.76186 34.38 
z
" clip-path="url(#p0b43e954bc)" style="fill: #ffc6c6"/>
    <path d="M 352.77265 34.38 
L 352.77265 7.2 
L 354.78344 7.2 
L 354.78344 34.38 
L 352.77265 34.38 
z
" clip-path="url(#p0b43e954bc)" style="fill: #ffbebe"/>
    <path d="M 354.78344 34.38 
L 354.78344 7.2 
L 356.79423 7.2 
L 356.79423 34.38 
L 354.78344 34.38 
z
" clip-path="url(#p0b43e954bc)" style="fill: #ffc2c2"/>
    <path d="M 356.79423 34.38 
L 356.79423 7.2 
L 358.80502 7.2 
L 358.80502 34.38 
L 356.79423 34.38 
z
" clip-path="url(#p0b43e954bc)" style="fill: #ffd8d8"/>
    <path d="M 358.80502 34.38 
L 358.80502 7.2 
L 360.81581 7.2 
L 360.81581 34.38 
L 358.80502 34.38 
z
" clip-path="url(#p0b43e954bc)" style="fill: #ffd0d0"/>
    <path d="M 360.81581 34.38 
L 360.81581 7.2 
L 362.826601 7.2 
L 362.826601 34.38 
L 360.81581 34.38 
z
" clip-path="url(#p0b43e954bc)" style="fill: #ffd6d6"/>
    <path d="M 362.826601 34.38 
L 362.826601 7.2 
L 364.837391 7.2 
L 364.837391 34.38 
L 362.826601 34.38 
z
" clip-path="url(#p0b43e954bc)" style="fill: #fffafa"/>
    <path d="M 364.837391 34.38 
L 364.837391 7.2 
L 366.848181 7.2 
L 366.848181 34.38 
L 364.837391 34.38 
z
" clip-path="url(#p0b43e954bc)" style="fill: #fff8f8"/>
    <path d="M 366.848181 34.38 
L 366.848181 7.2 
L 368.858971 7.2 
L 368.858971 34.38 
L 366.848181 34.38 
z
" clip-path="url(#p0b43e954bc)" style="fill: #b0b0ff"/>
    <path d="M 368.858971 34.38 
L 368.858971 7.2 
L 370.869761 7.2 
L 370.869761 34.38 
L 368.858971 34.38 
z
" clip-path="url(#p0b43e954bc)" style="fill: #9494ff"/>
    <path d="M 370.869761 34.38 
L 370.869761 7.2 
L 372.880551 7.2 
L 372.880551 34.38 
L 370.869761 34.38 
z
" clip-path="url(#p0b43e954bc)" style="fill: #9090ff"/>
    <path d="M 372.880551 34.38 
L 372.880551 7.2 
L 374.891342 7.2 
L 374.891342 34.38 
L 372.880551 34.38 
z
" clip-path="url(#p0b43e954bc)" style="fill: #f0f0ff"/>
    <path d="M 374.891342 34.38 
L 374.891342 7.2 
L 376.902132 7.2 
L 376.902132 34.38 
L 374.891342 34.38 
z
" clip-path="url(#p0b43e954bc)" style="fill: #9e9eff"/>
    <path d="M 376.902132 34.38 
L 376.902132 7.2 
L 378.912922 7.2 
L 378.912922 34.38 
L 376.902132 34.38 
z
" clip-path="url(#p0b43e954bc)" style="fill: #b8b8ff"/>
    <path d="M 378.912922 34.38 
L 378.912922 7.2 
L 380.923712 7.2 
L 380.923712 34.38 
L 378.912922 34.38 
z
" clip-path="url(#p0b43e954bc)" style="fill: #a2a2ff"/>
    <path d="M 380.923712 34.38 
L 380.923712 7.2 
L 382.934502 7.2 
L 382.934502 34.38 
L 380.923712 34.38 
z
" clip-path="url(#p0b43e954bc)" style="fill: #b6b6ff"/>
    <path d="M 382.934502 34.38 
L 382.934502 7.2 
L 384.945292 7.2 
L 384.945292 34.38 
L 382.934502 34.38 
z
" clip-path="url(#p0b43e954bc)" style="fill: #aeaeff"/>
    <path d="M 384.945292 34.38 
L 384.945292 7.2 
L 386.956082 7.2 
L 386.956082 34.38 
L 384.945292 34.38 
z
" clip-path="url(#p0b43e954bc)" style="fill: #b4b4ff"/>
    <path d="M 386.956082 34.38 
L 386.956082 7.2 
L 388.966873 7.2 
L 388.966873 34.38 
L 386.956082 34.38 
z
" clip-path="url(#p0b43e954bc)" style="fill: #ffa2a2"/>
    <path d="M 388.966873 34.38 
L 388.966873 7.2 
L 390.977663 7.2 
L 390.977663 34.38 
L 388.966873 34.38 
z
" clip-path="url(#p0b43e954bc)" style="fill: #ffb8b8"/>
    <path d="M 390.977663 34.38 
L 390.977663 7.2 
L 392.988453 7.2 
L 392.988453 34.38 
L 390.977663 34.38 
z
" clip-path="url(#p0b43e954bc)" style="fill: #ffacac"/>
    <path d="M 392.988453 34.38 
L 392.988453 7.2 
L 394.999243 7.2 
L 394.999243 34.38 
L 392.988453 34.38 
z
" clip-path="url(#p0b43e954bc)" style="fill: #ffcccc"/>
    <path d="M 394.999243 34.38 
L 394.999243 7.2 
L 397.010033 7.2 
L 397.010033 34.38 
L 394.999243 34.38 
z
" clip-path="url(#p0b43e954bc)" style="fill: #ffcece"/>
    <path d="M 397.010033 34.38 
L 397.010033 7.2 
L 399.020823 7.2 
L 399.020823 34.38 
L 397.010033 34.38 
z
" clip-path="url(#p0b43e954bc)" style="fill: #ffcccc"/>
    <path d="M 399.020823 34.38 
L 399.020823 7.2 
L 401.031614 7.2 
L 401.031614 34.38 
L 399.020823 34.38 
z
" clip-path="url(#p0b43e954bc)" style="fill: #ffe2e2"/>
    <path d="M 401.031614 34.38 
L 401.031614 7.2 
L 403.042404 7.2 
L 403.042404 34.38 
L 401.031614 34.38 
z
" clip-path="url(#p0b43e954bc)" style="fill: #ffd4d4"/>
    <path d="M 403.042404 34.38 
L 403.042404 7.2 
L 405.053194 7.2 
L 405.053194 34.38 
L 403.042404 34.38 
z
" clip-path="url(#p0b43e954bc)" style="fill: #ffd4d4"/>
    <path d="M 405.053194 34.38 
L 405.053194 7.2 
L 407.063984 7.2 
L 407.063984 34.38 
L 405.053194 34.38 
z
" clip-path="url(#p0b43e954bc)" style="fill: #ffdada"/>
    <path d="M 407.063984 34.38 
L 407.063984 7.2 
L 409.074774 7.2 
L 409.074774 34.38 
L 407.063984 34.38 
z
" clip-path="url(#p0b43e954bc)" style="fill: #ffd6d6"/>
    <path d="M 409.074774 34.38 
L 409.074774 7.2 
L 411.085564 7.2 
L 411.085564 34.38 
L 409.074774 34.38 
z
" clip-path="url(#p0b43e954bc)" style="fill: #ffd8d8"/>
    <path d="M 411.085564 34.38 
L 411.085564 7.2 
L 413.096355 7.2 
L 413.096355 34.38 
L 411.085564 34.38 
z
" clip-path="url(#p0b43e954bc)" style="fill: #fff0f0"/>
    <path d="M 413.096355 34.38 
L 413.096355 7.2 
L 415.107145 7.2 
L 415.107145 34.38 
L 413.096355 34.38 
z
" clip-path="url(#p0b43e954bc)" style="fill: #ffecec"/>
    <path d="M 415.107145 34.38 
L 415.107145 7.2 
L 417.117935 7.2 
L 417.117935 34.38 
L 415.107145 34.38 
z
" clip-path="url(#p0b43e954bc)" style="fill: #ffd8d8"/>
    <path d="M 417.117935 34.38 
L 417.117935 7.2 
L 419.128725 7.2 
L 419.128725 34.38 
L 417.117935 34.38 
z
" clip-path="url(#p0b43e954bc)" style="fill: #ffd4d4"/>
    <path d="M 419.128725 34.38 
L 419.128725 7.2 
L 421.139515 7.2 
L 421.139515 34.38 
L 419.128725 34.38 
z
" clip-path="url(#p0b43e954bc)" style="fill: #fff4f4"/>
    <path d="M 421.139515 34.38 
L 421.139515 7.2 
L 423.150305 7.2 
L 423.150305 34.38 
L 421.139515 34.38 
z
" clip-path="url(#p0b43e954bc)" style="fill: #ffeeee"/>
    <path d="M 423.150305 34.38 
L 423.150305 7.2 
L 425.161096 7.2 
L 425.161096 34.38 
L 423.150305 34.38 
z
" clip-path="url(#p0b43e954bc)" style="fill: #fff0f0"/>
    <path d="M 425.161096 34.38 
L 425.161096 7.2 
L 427.171886 7.2 
L 427.171886 34.38 
L 425.161096 34.38 
z
" clip-path="url(#p0b43e954bc)" style="fill: #ffd4d4"/>
    <path d="M 427.171886 34.38 
L 427.171886 7.2 
L 429.182676 7.2 
L 429.182676 34.38 
L 427.171886 34.38 
z
" clip-path="url(#p0b43e954bc)" style="fill: #ffd8d8"/>
    <path d="M 429.182676 34.38 
L 429.182676 7.2 
L 431.193466 7.2 
L 431.193466 34.38 
L 429.182676 34.38 
z
" clip-path="url(#p0b43e954bc)" style="fill: #ffd8d8"/>
    <path d="M 431.193466 34.38 
L 431.193466 7.2 
L 433.204256 7.2 
L 433.204256 34.38 
L 431.193466 34.38 
z
" clip-path="url(#p0b43e954bc)" style="fill: #4848ff"/>
    <path d="M 433.204256 34.38 
L 433.204256 7.2 
L 435.215046 7.2 
L 435.215046 34.38 
L 433.204256 34.38 
z
" clip-path="url(#p0b43e954bc)" style="fill: #1414ff"/>
    <path d="M 435.215046 34.38 
L 435.215046 7.2 
L 437.225837 7.2 
L 437.225837 34.38 
L 435.215046 34.38 
z
" clip-path="url(#p0b43e954bc)" style="fill: #1e1eff"/>
    <path d="M 437.225837 34.38 
L 437.225837 7.2 
L 439.236627 7.2 
L 439.236627 34.38 
L 437.225837 34.38 
z
" clip-path="url(#p0b43e954bc)" style="fill: #4c4cff"/>
    <path d="M 439.236627 34.38 
L 439.236627 7.2 
L 441.247417 7.2 
L 441.247417 34.38 
L 439.236627 34.38 
z
" clip-path="url(#p0b43e954bc)" style="fill: #ffbaba"/>
    <path d="M 441.247417 34.38 
L 441.247417 7.2 
L 443.258207 7.2 
L 443.258207 34.38 
L 441.247417 34.38 
z
" clip-path="url(#p0b43e954bc)" style="fill: #ffcccc"/>
    <path d="M 443.258207 34.38 
L 443.258207 7.2 
L 445.268997 7.2 
L 445.268997 34.38 
L 443.258207 34.38 
z
" clip-path="url(#p0b43e954bc)" style="fill: #e4e4ff"/>
    <path d="M 445.268997 34.38 
L 445.268997 7.2 
L 447.279787 7.2 
L 447.279787 34.38 
L 445.268997 34.38 
z
" clip-path="url(#p0b43e954bc)" style="fill: #ffd6d6"/>
    <path d="M 447.279787 34.38 
L 447.279787 7.2 
L 449.290577 7.2 
L 449.290577 34.38 
L 447.279787 34.38 
z
" clip-path="url(#p0b43e954bc)" style="fill: #ffeaea"/>
    <path d="M 449.290577 34.38 
L 449.290577 7.2 
L 451.301368 7.2 
L 451.301368 34.38 
L 449.290577 34.38 
z
" clip-path="url(#p0b43e954bc)" style="fill: #ff9c9c"/>
    <path d="M 451.301368 34.38 
L 451.301368 7.2 
L 453.312158 7.2 
L 453.312158 34.38 
L 451.301368 34.38 
z
" clip-path="url(#p0b43e954bc)" style="fill: #ffdada"/>
    <path d="M 453.312158 34.38 
L 453.312158 7.2 
L 455.322948 7.2 
L 455.322948 34.38 
L 453.312158 34.38 
z
" clip-path="url(#p0b43e954bc)" style="fill: #ffc2c2"/>
    <path d="M 455.322948 34.38 
L 455.322948 7.2 
L 457.333738 7.2 
L 457.333738 34.38 
L 455.322948 34.38 
z
" clip-path="url(#p0b43e954bc)" style="fill: #fff2f2"/>
    <path d="M 457.333738 34.38 
L 457.333738 7.2 
L 459.344528 7.2 
L 459.344528 34.38 
L 457.333738 34.38 
z
" clip-path="url(#p0b43e954bc)" style="fill: #ffecec"/>
    <path d="M 459.344528 34.38 
L 459.344528 7.2 
L 461.355318 7.2 
L 461.355318 34.38 
L 459.344528 34.38 
z
" clip-path="url(#p0b43e954bc)" style="fill: #ffeeee"/>
    <path d="M 461.355318 34.38 
L 461.355318 7.2 
L 463.366109 7.2 
L 463.366109 34.38 
L 461.355318 34.38 
z
" clip-path="url(#p0b43e954bc)" style="fill: #ffcece"/>
    <path d="M 463.366109 34.38 
L 463.366109 7.2 
L 465.376899 7.2 
L 465.376899 34.38 
L 463.366109 34.38 
z
" clip-path="url(#p0b43e954bc)" style="fill: #ffdcdc"/>
    <path d="M 465.376899 34.38 
L 465.376899 7.2 
L 467.387689 7.2 
L 467.387689 34.38 
L 465.376899 34.38 
z
" clip-path="url(#p0b43e954bc)" style="fill: #f0f0ff"/>
    <path d="M 467.387689 34.38 
L 467.387689 7.2 
L 469.398479 7.2 
L 469.398479 34.38 
L 467.387689 34.38 
z
" clip-path="url(#p0b43e954bc)" style="fill: #ececff"/>
    <path d="M 469.398479 34.38 
L 469.398479 7.2 
L 471.409269 7.2 
L 471.409269 34.38 
L 469.398479 34.38 
z
" clip-path="url(#p0b43e954bc)" style="fill: #d6d6ff"/>
    <path d="M 471.409269 34.38 
L 471.409269 7.2 
L 473.420059 7.2 
L 473.420059 34.38 
L 471.409269 34.38 
z
" clip-path="url(#p0b43e954bc)" style="fill: #e0e0ff"/>
    <path d="M 473.420059 34.38 
L 473.420059 7.2 
L 475.43085 7.2 
L 475.43085 34.38 
L 473.420059 34.38 
z
" clip-path="url(#p0b43e954bc)" style="fill: #fffefe"/>
    <path d="M 475.43085 34.38 
L 475.43085 7.2 
L 477.44164 7.2 
L 477.44164 34.38 
L 475.43085 34.38 
z
" clip-path="url(#p0b43e954bc)" style="fill: #fffefe"/>
    <path d="M 477.44164 34.38 
L 477.44164 7.2 
L 479.45243 7.2 
L 479.45243 34.38 
L 477.44164 34.38 
z
" clip-path="url(#p0b43e954bc)" style="fill: #fffefe"/>
    <path d="M 479.45243 34.38 
L 479.45243 7.2 
L 481.46322 7.2 
L 481.46322 34.38 
L 479.45243 34.38 
z
" clip-path="url(#p0b43e954bc)" style="fill: #fffefe"/>
    <path d="M 481.46322 34.38 
L 481.46322 7.2 
L 483.47401 7.2 
L 483.47401 34.38 
L 481.46322 34.38 
z
" clip-path="url(#p0b43e954bc)" style="fill: #e8e8ff"/>
    <path d="M 483.47401 34.38 
L 483.47401 7.2 
L 485.4848 7.2 
L 485.4848 34.38 
L 483.47401 34.38 
z
" clip-path="url(#p0b43e954bc)" style="fill: #ffa2a2"/>
    <path d="M 485.4848 34.38 
L 485.4848 7.2 
L 487.495591 7.2 
L 487.495591 34.38 
L 485.4848 34.38 
z
" clip-path="url(#p0b43e954bc)" style="fill: #d6d6ff"/>
    <path d="M 487.495591 34.38 
L 487.495591 7.2 
L 489.506381 7.2 
L 489.506381 34.38 
L 487.495591 34.38 
z
" clip-path="url(#p0b43e954bc)" style="fill: #ceceff"/>
    <path d="M 489.506381 34.38 
L 489.506381 7.2 
L 491.517171 7.2 
L 491.517171 34.38 
L 489.506381 34.38 
z
" clip-path="url(#p0b43e954bc)" style="fill: #c8c8ff"/>
    <path d="M 491.517171 34.38 
L 491.517171 7.2 
L 493.527961 7.2 
L 493.527961 34.38 
L 491.517171 34.38 
z
" clip-path="url(#p0b43e954bc)" style="fill: #babaff"/>
    <path d="M 493.527961 34.38 
L 493.527961 7.2 
L 495.538751 7.2 
L 495.538751 34.38 
L 493.527961 34.38 
z
" clip-path="url(#p0b43e954bc)" style="fill: #a2a2ff"/>
    <path d="M 495.538751 34.38 
L 495.538751 7.2 
L 497.549541 7.2 
L 497.549541 34.38 
L 495.538751 34.38 
z
" clip-path="url(#p0b43e954bc)" style="fill: #eaeaff"/>
    <path d="M 497.549541 34.38 
L 497.549541 7.2 
L 499.560332 7.2 
L 499.560332 34.38 
L 497.549541 34.38 
z
" clip-path="url(#p0b43e954bc)" style="fill: #a8a8ff"/>
    <path d="M 499.560332 34.38 
L 499.560332 7.2 
L 501.571122 7.2 
L 501.571122 34.38 
L 499.560332 34.38 
z
" clip-path="url(#p0b43e954bc)" style="fill: #fafaff"/>
    <path d="M 501.571122 34.38 
L 501.571122 7.2 
L 503.581912 7.2 
L 503.581912 34.38 
L 501.571122 34.38 
z
" clip-path="url(#p0b43e954bc)" style="fill: #b0b0ff"/>
    <path d="M 503.581912 34.38 
L 503.581912 7.2 
L 505.592702 7.2 
L 505.592702 34.38 
L 503.581912 34.38 
z
" clip-path="url(#p0b43e954bc)" style="fill: #ececff"/>
    <path d="M 505.592702 34.38 
L 505.592702 7.2 
L 507.603492 7.2 
L 507.603492 34.38 
L 505.592702 34.38 
z
" clip-path="url(#p0b43e954bc)" style="fill: #c4c4ff"/>
    <path d="M 507.603492 34.38 
L 507.603492 7.2 
L 509.614282 7.2 
L 509.614282 34.38 
L 507.603492 34.38 
z
" clip-path="url(#p0b43e954bc)" style="fill: #ffc2c2"/>
    <path d="M 509.614282 34.38 
L 509.614282 7.2 
L 511.625072 7.2 
L 511.625072 34.38 
L 509.614282 34.38 
z
" clip-path="url(#p0b43e954bc)" style="fill: #b0b0ff"/>
    <path d="M 511.625072 34.38 
L 511.625072 7.2 
L 513.635863 7.2 
L 513.635863 34.38 
L 511.625072 34.38 
z
" clip-path="url(#p0b43e954bc)" style="fill: #ff8686"/>
    <path d="M 513.635863 34.38 
L 513.635863 7.2 
L 515.646653 7.2 
L 515.646653 34.38 
L 513.635863 34.38 
z
" clip-path="url(#p0b43e954bc)" style="fill: #ff7272"/>
    <path d="M 515.646653 34.38 
L 515.646653 7.2 
L 517.657443 7.2 
L 517.657443 34.38 
L 515.646653 34.38 
z
" clip-path="url(#p0b43e954bc)" style="fill: #ff9c9c"/>
    <path d="M 517.657443 34.38 
L 517.657443 7.2 
L 519.668233 7.2 
L 519.668233 34.38 
L 517.657443 34.38 
z
" clip-path="url(#p0b43e954bc)" style="fill: #ffb2b2"/>
    <path d="M 519.668233 34.38 
L 519.668233 7.2 
L 521.679023 7.2 
L 521.679023 34.38 
L 519.668233 34.38 
z
" clip-path="url(#p0b43e954bc)" style="fill: #ffc0c0"/>
    <path d="M 521.679023 34.38 
L 521.679023 7.2 
L 523.689813 7.2 
L 523.689813 34.38 
L 521.679023 34.38 
z
" clip-path="url(#p0b43e954bc)" style="fill: #ffd8d8"/>
    <path d="M 523.689813 34.38 
L 523.689813 7.2 
L 525.700604 7.2 
L 525.700604 34.38 
L 523.689813 34.38 
z
" clip-path="url(#p0b43e954bc)" style="fill: #c4c4ff"/>
    <path d="M 525.700604 34.38 
L 525.700604 7.2 
L 527.711394 7.2 
L 527.711394 34.38 
L 525.700604 34.38 
z
" clip-path="url(#p0b43e954bc)" style="fill: #ff9494"/>
    <path d="M 527.711394 34.38 
L 527.711394 7.2 
L 529.722184 7.2 
L 529.722184 34.38 
L 527.711394 34.38 
z
" clip-path="url(#p0b43e954bc)" style="fill: #ffdede"/>
    <path d="M 529.722184 34.38 
L 529.722184 7.2 
L 531.732974 7.2 
L 531.732974 34.38 
L 529.722184 34.38 
z
" clip-path="url(#p0b43e954bc)" style="fill: #ffe6e6"/>
    <path d="M 531.732974 34.38 
L 531.732974 7.2 
L 533.743764 7.2 
L 533.743764 34.38 
L 531.732974 34.38 
z
" clip-path="url(#p0b43e954bc)" style="fill: #ff3434"/>
    <path d="M 533.743764 34.38 
L 533.743764 7.2 
L 535.754554 7.2 
L 535.754554 34.38 
L 533.743764 34.38 
z
" clip-path="url(#p0b43e954bc)" style="fill: #ffc0c0"/>
    <path d="M 535.754554 34.38 
L 535.754554 7.2 
L 537.765345 7.2 
L 537.765345 34.38 
L 535.754554 34.38 
z
" clip-path="url(#p0b43e954bc)" style="fill: #dadaff"/>
    <path d="M 537.765345 34.38 
L 537.765345 7.2 
L 539.776135 7.2 
L 539.776135 34.38 
L 537.765345 34.38 
z
" clip-path="url(#p0b43e954bc)" style="fill: #d6d6ff"/>
    <path d="M 539.776135 34.38 
L 539.776135 7.2 
L 541.786925 7.2 
L 541.786925 34.38 
L 539.776135 34.38 
z
" clip-path="url(#p0b43e954bc)" style="fill: #ffe4e4"/>
    <path d="M 541.786925 34.38 
L 541.786925 7.2 
L 543.797715 7.2 
L 543.797715 34.38 
L 541.786925 34.38 
z
" clip-path="url(#p0b43e954bc)" style="fill: #d2d2ff"/>
    <path d="M 543.797715 34.38 
L 543.797715 7.2 
L 545.808505 7.2 
L 545.808505 34.38 
L 543.797715 34.38 
z
" clip-path="url(#p0b43e954bc)" style="fill: #ceceff"/>
    <path d="M 545.808505 34.38 
L 545.808505 7.2 
L 547.819295 7.2 
L 547.819295 34.38 
L 545.808505 34.38 
z
" clip-path="url(#p0b43e954bc)" style="fill: #ffe8e8"/>
    <path d="M 547.819295 34.38 
L 547.819295 7.2 
L 549.830086 7.2 
L 549.830086 34.38 
L 547.819295 34.38 
z
" clip-path="url(#p0b43e954bc)" style="fill: #ffe6e6"/>
    <path d="M 549.830086 34.38 
L 549.830086 7.2 
L 551.840876 7.2 
L 551.840876 34.38 
L 549.830086 34.38 
z
" clip-path="url(#p0b43e954bc)" style="fill: #ffd8d8"/>
    <path d="M 551.840876 34.38 
L 551.840876 7.2 
L 553.851666 7.2 
L 553.851666 34.38 
L 551.840876 34.38 
z
" clip-path="url(#p0b43e954bc)" style="fill: #ffdede"/>
    <path d="M 553.851666 34.38 
L 553.851666 7.2 
L 555.862456 7.2 
L 555.862456 34.38 
L 553.851666 34.38 
z
" clip-path="url(#p0b43e954bc)" style="fill: #ffcaca"/>
    <path d="M 555.862456 34.38 
L 555.862456 7.2 
L 557.873246 7.2 
L 557.873246 34.38 
L 555.862456 34.38 
z
" clip-path="url(#p0b43e954bc)" style="fill: #ffd6d6"/>
    <path d="M 557.873246 34.38 
L 557.873246 7.2 
L 559.884036 7.2 
L 559.884036 34.38 
L 557.873246 34.38 
z
" clip-path="url(#p0b43e954bc)" style="fill: #ffd0d0"/>
    <path d="M 559.884036 34.38 
L 559.884036 7.2 
L 561.894827 7.2 
L 561.894827 34.38 
L 559.884036 34.38 
z
" clip-path="url(#p0b43e954bc)" style="fill: #ffbcbc"/>
    <path d="M 561.894827 34.38 
L 561.894827 7.2 
L 563.905617 7.2 
L 563.905617 34.38 
L 561.894827 34.38 
z
" clip-path="url(#p0b43e954bc)" style="fill: #ffdada"/>
    <path d="M 563.905617 34.38 
L 563.905617 7.2 
L 565.916407 7.2 
L 565.916407 34.38 
L 563.905617 34.38 
z
" clip-path="url(#p0b43e954bc)" style="fill: #ffd0d0"/>
    <path d="M 565.916407 34.38 
L 565.916407 7.2 
L 567.927197 7.2 
L 567.927197 34.38 
L 565.916407 34.38 
z
" clip-path="url(#p0b43e954bc)" style="fill: #ffc8c8"/>
    <path d="M 567.927197 34.38 
L 567.927197 7.2 
L 569.937987 7.2 
L 569.937987 34.38 
L 567.927197 34.38 
z
" clip-path="url(#p0b43e954bc)" style="fill: #ffcccc"/>
    <path d="M 569.937987 34.38 
L 569.937987 7.2 
L 571.948777 7.2 
L 571.948777 34.38 
L 569.937987 34.38 
z
" clip-path="url(#p0b43e954bc)" style="fill: #ff2a2a"/>
    <path d="M 571.948777 34.38 
L 571.948777 7.2 
L 573.959568 7.2 
L 573.959568 34.38 
L 571.948777 34.38 
z
" clip-path="url(#p0b43e954bc)" style="fill: #ff0c0c"/>
    <path d="M 573.959568 34.38 
L 573.959568 7.2 
L 575.970358 7.2 
L 575.970358 34.38 
L 573.959568 34.38 
z
" clip-path="url(#p0b43e954bc)" style="fill: #ff6c6c"/>
    <path d="M 575.970358 34.38 
L 575.970358 7.2 
L 577.981148 7.2 
L 577.981148 34.38 
L 575.970358 34.38 
z
" clip-path="url(#p0b43e954bc)" style="fill: #ff9a9a"/>
    <path d="M 577.981148 34.38 
L 577.981148 7.2 
L 579.991938 7.2 
L 579.991938 34.38 
L 577.981148 34.38 
z
" clip-path="url(#p0b43e954bc)" style="fill: #ffc8c8"/>
    <path d="M 579.991938 34.38 
L 579.991938 7.2 
L 582.002728 7.2 
L 582.002728 34.38 
L 579.991938 34.38 
z
" clip-path="url(#p0b43e954bc)" style="fill: #b0b0ff"/>
    <path d="M 582.002728 34.38 
L 582.002728 7.2 
L 584.013518 7.2 
L 584.013518 34.38 
L 582.002728 34.38 
z
" clip-path="url(#p0b43e954bc)" style="fill: #ffa8a8"/>
    <path d="M 584.013518 34.38 
L 584.013518 7.2 
L 586.024308 7.2 
L 586.024308 34.38 
L 584.013518 34.38 
z
" clip-path="url(#p0b43e954bc)" style="fill: #ffbcbc"/>
    <path d="M 586.024308 34.38 
L 586.024308 7.2 
L 588.035099 7.2 
L 588.035099 34.38 
L 586.024308 34.38 
z
" clip-path="url(#p0b43e954bc)" style="fill: #ffc6c6"/>
    <path d="M 588.035099 34.38 
L 588.035099 7.2 
L 590.045889 7.2 
L 590.045889 34.38 
L 588.035099 34.38 
z
" clip-path="url(#p0b43e954bc)" style="fill: #d0d0ff"/>
    <path d="M 590.045889 34.38 
L 590.045889 7.2 
L 592.056679 7.2 
L 592.056679 34.38 
L 590.045889 34.38 
z
" clip-path="url(#p0b43e954bc)" style="fill: #ffeaea"/>
    <path d="M 592.056679 34.38 
L 592.056679 7.2 
L 594.067469 7.2 
L 594.067469 34.38 
L 592.056679 34.38 
z
" clip-path="url(#p0b43e954bc)" style="fill: #ff9e9e"/>
    <path d="M 594.067469 34.38 
L 594.067469 7.2 
L 596.078259 7.2 
L 596.078259 34.38 
L 594.067469 34.38 
z
" clip-path="url(#p0b43e954bc)" style="fill: #ffbaba"/>
    <path d="M 596.078259 34.38 
L 596.078259 7.2 
L 598.089049 7.2 
L 598.089049 34.38 
L 596.078259 34.38 
z
" clip-path="url(#p0b43e954bc)" style="fill: #a4a4ff"/>
    <path d="M 598.089049 34.38 
L 598.089049 7.2 
L 600.09984 7.2 
L 600.09984 34.38 
L 598.089049 34.38 
z
" clip-path="url(#p0b43e954bc)" style="fill: #b0b0ff"/>
    <path d="M 600.09984 34.38 
L 600.09984 7.2 
L 602.11063 7.2 
L 602.11063 34.38 
L 600.09984 34.38 
z
" clip-path="url(#p0b43e954bc)" style="fill: #eeeeff"/>
    <path d="M 602.11063 34.38 
L 602.11063 7.2 
L 604.12142 7.2 
L 604.12142 34.38 
L 602.11063 34.38 
z
" clip-path="url(#p0b43e954bc)" style="fill: #ececff"/>
    <path d="M 604.12142 34.38 
L 604.12142 7.2 
L 606.13221 7.2 
L 606.13221 34.38 
L 604.12142 34.38 
z
" clip-path="url(#p0b43e954bc)" style="fill: #eaeaff"/>
    <path d="M 606.13221 34.38 
L 606.13221 7.2 
L 608.143 7.2 
L 608.143 34.38 
L 606.13221 34.38 
z
" clip-path="url(#p0b43e954bc)" style="fill: #8c8cff"/>
    <path d="M 608.143 34.38 
L 608.143 7.2 
L 610.15379 7.2 
L 610.15379 34.38 
L 608.143 34.38 
z
" clip-path="url(#p0b43e954bc)" style="fill: #9a9aff"/>
    <path d="M 610.15379 34.38 
L 610.15379 7.2 
L 612.164581 7.2 
L 612.164581 34.38 
L 610.15379 34.38 
z
" clip-path="url(#p0b43e954bc)" style="fill: #8e8eff"/>
    <path d="M 612.164581 34.38 
L 612.164581 7.2 
L 614.175371 7.2 
L 614.175371 34.38 
L 612.164581 34.38 
z
" clip-path="url(#p0b43e954bc)" style="fill: #d4d4ff"/>
    <path d="M 614.175371 34.38 
L 614.175371 7.2 
L 616.186161 7.2 
L 616.186161 34.38 
L 614.175371 34.38 
z
" clip-path="url(#p0b43e954bc)" style="fill: #cacaff"/>
    <path d="M 616.186161 34.38 
L 616.186161 7.2 
L 618.196951 7.2 
L 618.196951 34.38 
L 616.186161 34.38 
z
" clip-path="url(#p0b43e954bc)" style="fill: #ccccff"/>
    <path d="M 618.196951 34.38 
L 618.196951 7.2 
L 620.207741 7.2 
L 620.207741 34.38 
L 618.196951 34.38 
z
" clip-path="url(#p0b43e954bc)" style="fill: #ffa0a0"/>
    <path d="M 620.207741 34.38 
L 620.207741 7.2 
L 622.218531 7.2 
L 622.218531 34.38 
L 620.207741 34.38 
z
" clip-path="url(#p0b43e954bc)" style="fill: #ff8686"/>
    <path d="M 622.218531 34.38 
L 622.218531 7.2 
L 624.229322 7.2 
L 624.229322 34.38 
L 622.218531 34.38 
z
" clip-path="url(#p0b43e954bc)" style="fill: #ff8080"/>
    <path d="M 624.229322 34.38 
L 624.229322 7.2 
L 626.240112 7.2 
L 626.240112 34.38 
L 624.229322 34.38 
z
" clip-path="url(#p0b43e954bc)" style="fill: #ffc4c4"/>
    <path d="M 626.240112 34.38 
L 626.240112 7.2 
L 628.250902 7.2 
L 628.250902 34.38 
L 626.240112 34.38 
z
" clip-path="url(#p0b43e954bc)" style="fill: #ffc6c6"/>
    <path d="M 628.250902 34.38 
L 628.250902 7.2 
L 630.261692 7.2 
L 630.261692 34.38 
L 628.250902 34.38 
z
" clip-path="url(#p0b43e954bc)" style="fill: #ffc8c8"/>
    <path d="M 630.261692 34.38 
L 630.261692 7.2 
L 632.272482 7.2 
L 632.272482 34.38 
L 630.261692 34.38 
z
" clip-path="url(#p0b43e954bc)" style="fill: #ffcaca"/>
    <path d="M 632.272482 34.38 
L 632.272482 7.2 
L 634.283272 7.2 
L 634.283272 34.38 
L 632.272482 34.38 
z
" clip-path="url(#p0b43e954bc)" style="fill: #ffe8e8"/>
    <path d="M 634.283272 34.38 
L 634.283272 7.2 
L 636.294063 7.2 
L 636.294063 34.38 
L 634.283272 34.38 
z
" clip-path="url(#p0b43e954bc)" style="fill: #ffcece"/>
    <path d="M 636.294063 34.38 
L 636.294063 7.2 
L 638.304853 7.2 
L 638.304853 34.38 
L 636.294063 34.38 
z
" clip-path="url(#p0b43e954bc)" style="fill: #ffaeae"/>
    <path d="M 638.304853 34.38 
L 638.304853 7.2 
L 640.315643 7.2 
L 640.315643 34.38 
L 638.304853 34.38 
z
" clip-path="url(#p0b43e954bc)" style="fill: #ffb2b2"/>
    <path d="M 640.315643 34.38 
L 640.315643 7.2 
L 642.326433 7.2 
L 642.326433 34.38 
L 640.315643 34.38 
z
" clip-path="url(#p0b43e954bc)" style="fill: #bebeff"/>
    <path d="M 642.326433 34.38 
L 642.326433 7.2 
L 644.337223 7.2 
L 644.337223 34.38 
L 642.326433 34.38 
z
" clip-path="url(#p0b43e954bc)" style="fill: #e6e6ff"/>
    <path d="M 644.337223 34.38 
L 644.337223 7.2 
L 646.348013 7.2 
L 646.348013 34.38 
L 644.337223 34.38 
z
" clip-path="url(#p0b43e954bc)" style="fill: #d4d4ff"/>
    <path d="M 646.348013 34.38 
L 646.348013 7.2 
L 648.358803 7.2 
L 648.358803 34.38 
L 646.348013 34.38 
z
" clip-path="url(#p0b43e954bc)" style="fill: #ff9a9a"/>
    <path d="M 648.358803 34.38 
L 648.358803 7.2 
L 650.369594 7.2 
L 650.369594 34.38 
L 648.358803 34.38 
z
" clip-path="url(#p0b43e954bc)" style="fill: #ffa4a4"/>
    <path d="M 650.369594 34.38 
L 650.369594 7.2 
L 652.380384 7.2 
L 652.380384 34.38 
L 650.369594 34.38 
z
" clip-path="url(#p0b43e954bc)" style="fill: #ffa0a0"/>
    <path d="M 652.380384 34.38 
L 652.380384 7.2 
L 654.391174 7.2 
L 654.391174 34.38 
L 652.380384 34.38 
z
" clip-path="url(#p0b43e954bc)" style="fill: #ffcaca"/>
    <path d="M 654.391174 34.38 
L 654.391174 7.2 
L 656.401964 7.2 
L 656.401964 34.38 
L 654.391174 34.38 
z
" clip-path="url(#p0b43e954bc)" style="fill: #ffb2b2"/>
    <path d="M 656.401964 34.38 
L 656.401964 7.2 
L 658.412754 7.2 
L 658.412754 34.38 
L 656.401964 34.38 
z
" clip-path="url(#p0b43e954bc)" style="fill: #ffbcbc"/>
    <path d="M 658.412754 34.38 
L 658.412754 7.2 
L 660.423544 7.2 
L 660.423544 34.38 
L 658.412754 34.38 
z
" clip-path="url(#p0b43e954bc)" style="fill: #ffbebe"/>
    <path d="M 660.423544 34.38 
L 660.423544 7.2 
L 662.434335 7.2 
L 662.434335 34.38 
L 660.423544 34.38 
z
" clip-path="url(#p0b43e954bc)" style="fill: #ffc2c2"/>
    <path d="M 662.434335 34.38 
L 662.434335 7.2 
L 664.445125 7.2 
L 664.445125 34.38 
L 662.434335 34.38 
z
" clip-path="url(#p0b43e954bc)" style="fill: #ffe8e8"/>
    <path d="M 664.445125 34.38 
L 664.445125 7.2 
L 666.455915 7.2 
L 666.455915 34.38 
L 664.445125 34.38 
z
" clip-path="url(#p0b43e954bc)" style="fill: #ffdada"/>
    <path d="M 666.455915 34.38 
L 666.455915 7.2 
L 668.466705 7.2 
L 668.466705 34.38 
L 666.455915 34.38 
z
" clip-path="url(#p0b43e954bc)" style="fill: #ffe0e0"/>
    <path d="M 668.466705 34.38 
L 668.466705 7.2 
L 670.477495 7.2 
L 670.477495 34.38 
L 668.466705 34.38 
z
" clip-path="url(#p0b43e954bc)" style="fill: #c8c8ff"/>
    <path d="M 670.477495 34.38 
L 670.477495 7.2 
L 672.488285 7.2 
L 672.488285 34.38 
L 670.477495 34.38 
z
" clip-path="url(#p0b43e954bc)" style="fill: #d0d0ff"/>
    <path d="M 672.488285 34.38 
L 672.488285 7.2 
L 674.499076 7.2 
L 674.499076 34.38 
L 672.488285 34.38 
z
" clip-path="url(#p0b43e954bc)" style="fill: #d2d2ff"/>
    <path d="M 674.499076 34.38 
L 674.499076 7.2 
L 676.509866 7.2 
L 676.509866 34.38 
L 674.499076 34.38 
z
" clip-path="url(#p0b43e954bc)" style="fill: #d0d0ff"/>
    <path d="M 676.509866 34.38 
L 676.509866 7.2 
L 678.520656 7.2 
L 678.520656 34.38 
L 676.509866 34.38 
z
" clip-path="url(#p0b43e954bc)" style="fill: #ffb4b4"/>
    <path d="M 678.520656 34.38 
L 678.520656 7.2 
L 680.531446 7.2 
L 680.531446 34.38 
L 678.520656 34.38 
z
" clip-path="url(#p0b43e954bc)" style="fill: #ffb4b4"/>
    <path d="M 680.531446 34.38 
L 680.531446 7.2 
L 682.542236 7.2 
L 682.542236 34.38 
L 680.531446 34.38 
z
" clip-path="url(#p0b43e954bc)" style="fill: #ff9292"/>
    <path d="M 682.542236 34.38 
L 682.542236 7.2 
L 684.553026 7.2 
L 684.553026 34.38 
L 682.542236 34.38 
z
" clip-path="url(#p0b43e954bc)" style="fill: #ff9696"/>
    <path d="M 684.553026 34.38 
L 684.553026 7.2 
L 686.563817 7.2 
L 686.563817 34.38 
L 684.553026 34.38 
z
" clip-path="url(#p0b43e954bc)" style="fill: #ff9898"/>
    <path d="M 686.563817 34.38 
L 686.563817 7.2 
L 688.574607 7.2 
L 688.574607 34.38 
L 686.563817 34.38 
z
" clip-path="url(#p0b43e954bc)" style="fill: #ffd4d4"/>
    <path d="M 688.574607 34.38 
L 688.574607 7.2 
L 690.585397 7.2 
L 690.585397 34.38 
L 688.574607 34.38 
z
" clip-path="url(#p0b43e954bc)" style="fill: #ffc8c8"/>
    <path d="M 690.585397 34.38 
L 690.585397 7.2 
L 692.596187 7.2 
L 692.596187 34.38 
L 690.585397 34.38 
z
" clip-path="url(#p0b43e954bc)" style="fill: #ffcccc"/>
    <path d="M 692.596187 34.38 
L 692.596187 7.2 
L 694.606977 7.2 
L 694.606977 34.38 
L 692.596187 34.38 
z
" clip-path="url(#p0b43e954bc)" style="fill: #ffd0d0"/>
    <path d="M 694.606977 34.38 
L 694.606977 7.2 
L 696.617767 7.2 
L 696.617767 34.38 
L 694.606977 34.38 
z
" clip-path="url(#p0b43e954bc)" style="fill: #8686ff"/>
    <path d="M 696.617767 34.38 
L 696.617767 7.2 
L 698.628558 7.2 
L 698.628558 34.38 
L 696.617767 34.38 
z
" clip-path="url(#p0b43e954bc)" style="fill: #6a6aff"/>
    <path d="M 698.628558 34.38 
L 698.628558 7.2 
L 700.639348 7.2 
L 700.639348 34.38 
L 698.628558 34.38 
z
" clip-path="url(#p0b43e954bc)" style="fill: #8080ff"/>
    <path d="M 700.639348 34.38 
L 700.639348 7.2 
L 702.650138 7.2 
L 702.650138 34.38 
L 700.639348 34.38 
z
" clip-path="url(#p0b43e954bc)" style="fill: #e8e8ff"/>
    <path d="M 702.650138 34.38 
L 702.650138 7.2 
L 704.660928 7.2 
L 704.660928 34.38 
L 702.650138 34.38 
z
" clip-path="url(#p0b43e954bc)" style="fill: #f2f2ff"/>
    <path d="M 704.660928 34.38 
L 704.660928 7.2 
L 706.671718 7.2 
L 706.671718 34.38 
L 704.660928 34.38 
z
" clip-path="url(#p0b43e954bc)" style="fill: #7878ff"/>
    <path d="M 706.671718 34.38 
L 706.671718 7.2 
L 708.682508 7.2 
L 708.682508 34.38 
L 706.671718 34.38 
z
" clip-path="url(#p0b43e954bc)" style="fill: #babaff"/>
    <path d="M 708.682508 34.38 
L 708.682508 7.2 
L 710.693299 7.2 
L 710.693299 34.38 
L 708.682508 34.38 
z
" clip-path="url(#p0b43e954bc)" style="fill: #a0a0ff"/>
    <path d="M 710.693299 34.38 
L 710.693299 7.2 
L 712.704089 7.2 
L 712.704089 34.38 
L 710.693299 34.38 
z
" clip-path="url(#p0b43e954bc)" style="fill: #a8a8ff"/>
    <path d="M 712.704089 34.38 
L 712.704089 7.2 
L 714.714879 7.2 
L 714.714879 34.38 
L 712.704089 34.38 
z
" clip-path="url(#p0b43e954bc)" style="fill: #a2a2ff"/>
    <path d="M 714.714879 34.38 
L 714.714879 7.2 
L 716.725669 7.2 
L 716.725669 34.38 
L 714.714879 34.38 
z
" clip-path="url(#p0b43e954bc)" style="fill: #b0b0ff"/>
    <path d="M 716.725669 34.38 
L 716.725669 7.2 
L 718.736459 7.2 
L 718.736459 34.38 
L 716.725669 34.38 
z
" clip-path="url(#p0b43e954bc)" style="fill: #ffd8d8"/>
    <path d="M 718.736459 34.38 
L 718.736459 7.2 
L 720.747249 7.2 
L 720.747249 34.38 
L 718.736459 34.38 
z
" clip-path="url(#p0b43e954bc)" style="fill: #ffd4d4"/>
    <path d="M 720.747249 34.38 
L 720.747249 7.2 
L 722.758039 7.2 
L 722.758039 34.38 
L 720.747249 34.38 
z
" clip-path="url(#p0b43e954bc)" style="fill: #ffd6d6"/>
    <path d="M 722.758039 34.38 
L 722.758039 7.2 
L 724.76883 7.2 
L 724.76883 34.38 
L 722.758039 34.38 
z
" clip-path="url(#p0b43e954bc)" style="fill: #ffd6d6"/>
    <path d="M 724.76883 34.38 
L 724.76883 7.2 
L 726.77962 7.2 
L 726.77962 34.38 
L 724.76883 34.38 
z
" clip-path="url(#p0b43e954bc)" style="fill: #ffa6a6"/>
    <path d="M 726.77962 34.38 
L 726.77962 7.2 
L 728.79041 7.2 
L 728.79041 34.38 
L 726.77962 34.38 
z
" clip-path="url(#p0b43e954bc)" style="fill: #ff9696"/>
    <path d="M 728.79041 34.38 
L 728.79041 7.2 
L 730.8012 7.2 
L 730.8012 34.38 
L 728.79041 34.38 
z
" clip-path="url(#p0b43e954bc)" style="fill: #ffa2a2"/>
    <path d="M 730.8012 34.38 
L 730.8012 7.2 
L 732.81199 7.2 
L 732.81199 34.38 
L 730.8012 34.38 
z
" clip-path="url(#p0b43e954bc)" style="fill: #ffdada"/>
    <path d="M 732.81199 34.38 
L 732.81199 7.2 
L 734.82278 7.2 
L 734.82278 34.38 
L 732.81199 34.38 
z
" clip-path="url(#p0b43e954bc)" style="fill: #ffd6d6"/>
    <path d="M 734.82278 34.38 
L 734.82278 7.2 
L 736.833571 7.2 
L 736.833571 34.38 
L 734.82278 34.38 
z
" clip-path="url(#p0b43e954bc)" style="fill: #ffd8d8"/>
    <path d="M 736.833571 34.38 
L 736.833571 7.2 
L 738.844361 7.2 
L 738.844361 34.38 
L 736.833571 34.38 
z
" clip-path="url(#p0b43e954bc)" style="fill: #ffcaca"/>
    <path d="M 738.844361 34.38 
L 738.844361 7.2 
L 740.855151 7.2 
L 740.855151 34.38 
L 738.844361 34.38 
z
" clip-path="url(#p0b43e954bc)" style="fill: #ffc8c8"/>
    <path d="M 740.855151 34.38 
L 740.855151 7.2 
L 742.865941 7.2 
L 742.865941 34.38 
L 740.855151 34.38 
z
" clip-path="url(#p0b43e954bc)" style="fill: #ffdada"/>
    <path d="M 742.865941 34.38 
L 742.865941 7.2 
L 744.876731 7.2 
L 744.876731 34.38 
L 742.865941 34.38 
z
" clip-path="url(#p0b43e954bc)" style="fill: #dcdcff"/>
    <path d="M 744.876731 34.38 
L 744.876731 7.2 
L 746.887521 7.2 
L 746.887521 34.38 
L 744.876731 34.38 
z
" clip-path="url(#p0b43e954bc)" style="fill: #dcdcff"/>
    <path d="M 746.887521 34.38 
L 746.887521 7.2 
L 748.898312 7.2 
L 748.898312 34.38 
L 746.887521 34.38 
z
" clip-path="url(#p0b43e954bc)" style="fill: #dcdcff"/>
    <path d="M 748.898312 34.38 
L 748.898312 7.2 
L 750.909102 7.2 
L 750.909102 34.38 
L 748.898312 34.38 
z
" clip-path="url(#p0b43e954bc)" style="fill: #ffdcdc"/>
    <path d="M 750.909102 34.38 
L 750.909102 7.2 
L 752.919892 7.2 
L 752.919892 34.38 
L 750.909102 34.38 
z
" clip-path="url(#p0b43e954bc)" style="fill: #ffdcdc"/>
    <path d="M 752.919892 34.38 
L 752.919892 7.2 
L 754.930682 7.2 
L 754.930682 34.38 
L 752.919892 34.38 
z
" clip-path="url(#p0b43e954bc)" style="fill: #ffdede"/>
    <path d="M 754.930682 34.38 
L 754.930682 7.2 
L 756.941472 7.2 
L 756.941472 34.38 
L 754.930682 34.38 
z
" clip-path="url(#p0b43e954bc)" style="fill: #ffdada"/>
    <path d="M 756.941472 34.38 
L 756.941472 7.2 
L 758.952262 7.2 
L 758.952262 34.38 
L 756.941472 34.38 
z
" clip-path="url(#p0b43e954bc)" style="fill: #ffcece"/>
    <path d="M 758.952262 34.38 
L 758.952262 7.2 
L 760.963053 7.2 
L 760.963053 34.38 
L 758.952262 34.38 
z
" clip-path="url(#p0b43e954bc)" style="fill: #ffd8d8"/>
    <path d="M 760.963053 34.38 
L 760.963053 7.2 
L 762.973843 7.2 
L 762.973843 34.38 
L 760.963053 34.38 
z
" clip-path="url(#p0b43e954bc)" style="fill: #ffcece"/>
    <path d="M 762.973843 34.38 
L 762.973843 7.2 
L 764.984633 7.2 
L 764.984633 34.38 
L 762.973843 34.38 
z
" clip-path="url(#p0b43e954bc)" style="fill: #ffd6d6"/>
    <path d="M 764.984633 34.38 
L 764.984633 7.2 
L 766.995423 7.2 
L 766.995423 34.38 
L 764.984633 34.38 
z
" clip-path="url(#p0b43e954bc)" style="fill: #ffd6d6"/>
    <path d="M 766.995423 34.38 
L 766.995423 7.2 
L 769.006213 7.2 
L 769.006213 34.38 
L 766.995423 34.38 
z
" clip-path="url(#p0b43e954bc)" style="fill: #e0e0ff"/>
    <path d="M 769.006213 34.38 
L 769.006213 7.2 
L 771.017003 7.2 
L 771.017003 34.38 
L 769.006213 34.38 
z
" clip-path="url(#p0b43e954bc)" style="fill: #dcdcff"/>
    <path d="M 771.017003 34.38 
L 771.017003 7.2 
L 773.027794 7.2 
L 773.027794 34.38 
L 771.017003 34.38 
z
" clip-path="url(#p0b43e954bc)" style="fill: #dedeff"/>
    <path d="M 773.027794 34.38 
L 773.027794 7.2 
L 775.038584 7.2 
L 775.038584 34.38 
L 773.027794 34.38 
z
" clip-path="url(#p0b43e954bc)" style="fill: #ffd4d4"/>
    <path d="M 775.038584 34.38 
L 775.038584 7.2 
L 777.049374 7.2 
L 777.049374 34.38 
L 775.038584 34.38 
z
" clip-path="url(#p0b43e954bc)" style="fill: #ffdcdc"/>
    <path d="M 777.049374 34.38 
L 777.049374 7.2 
L 779.060164 7.2 
L 779.060164 34.38 
L 777.049374 34.38 
z
" clip-path="url(#p0b43e954bc)" style="fill: #ffe4e4"/>
    <path d="M 779.060164 34.38 
L 779.060164 7.2 
L 781.070954 7.2 
L 781.070954 34.38 
L 779.060164 34.38 
z
" clip-path="url(#p0b43e954bc)" style="fill: #ffcece"/>
    <path d="M 781.070954 34.38 
L 781.070954 7.2 
L 783.081744 7.2 
L 783.081744 34.38 
L 781.070954 34.38 
z
" clip-path="url(#p0b43e954bc)" style="fill: #ffd2d2"/>
    <path d="M 783.081744 34.38 
L 783.081744 7.2 
L 785.092534 7.2 
L 785.092534 34.38 
L 783.081744 34.38 
z
" clip-path="url(#p0b43e954bc)" style="fill: #ffd0d0"/>
    <path d="M 785.092534 34.38 
L 785.092534 7.2 
L 787.103325 7.2 
L 787.103325 34.38 
L 785.092534 34.38 
z
" clip-path="url(#p0b43e954bc)" style="fill: #6060ff"/>
    <path d="M 787.103325 34.38 
L 787.103325 7.2 
L 789.114115 7.2 
L 789.114115 34.38 
L 787.103325 34.38 
z
" clip-path="url(#p0b43e954bc)" style="fill: #7676ff"/>
    <path d="M 789.114115 34.38 
L 789.114115 7.2 
L 791.124905 7.2 
L 791.124905 34.38 
L 789.114115 34.38 
z
" clip-path="url(#p0b43e954bc)" style="fill: #6868ff"/>
    <path d="M 791.124905 34.38 
L 791.124905 7.2 
L 793.135695 7.2 
L 793.135695 34.38 
L 791.124905 34.38 
z
" clip-path="url(#p0b43e954bc)" style="fill: #3c3cff"/>
    <path d="M 793.135695 34.38 
L 793.135695 7.2 
L 795.146485 7.2 
L 795.146485 34.38 
L 793.135695 34.38 
z
" clip-path="url(#p0b43e954bc)" style="fill: #a8a8ff"/>
    <path d="M 795.146485 34.38 
L 795.146485 7.2 
L 797.157275 7.2 
L 797.157275 34.38 
L 795.146485 34.38 
z
" clip-path="url(#p0b43e954bc)" style="fill: #a0a0ff"/>
    <path d="M 797.157275 34.38 
L 797.157275 7.2 
L 799.168066 7.2 
L 799.168066 34.38 
L 797.157275 34.38 
z
" clip-path="url(#p0b43e954bc)" style="fill: #ffe2e2"/>
    <path d="M 799.168066 34.38 
L 799.168066 7.2 
L 801.178856 7.2 
L 801.178856 34.38 
L 799.168066 34.38 
z
" clip-path="url(#p0b43e954bc)" style="fill: #fff8f8"/>
    <path d="M 801.178856 34.38 
L 801.178856 7.2 
L 803.189646 7.2 
L 803.189646 34.38 
L 801.178856 34.38 
z
" clip-path="url(#p0b43e954bc)" style="fill: #ff9696"/>
    <path d="M 803.189646 34.38 
L 803.189646 7.2 
L 805.200436 7.2 
L 805.200436 34.38 
L 803.189646 34.38 
z
" clip-path="url(#p0b43e954bc)" style="fill: #ffc2c2"/>
    <path d="M 805.200436 34.38 
L 805.200436 7.2 
L 807.211226 7.2 
L 807.211226 34.38 
L 805.200436 34.38 
z
" clip-path="url(#p0b43e954bc)" style="fill: #ceceff"/>
    <path d="M 807.211226 34.38 
L 807.211226 7.2 
L 809.222016 7.2 
L 809.222016 34.38 
L 807.211226 34.38 
z
" clip-path="url(#p0b43e954bc)" style="fill: #e2e2ff"/>
    <path d="M 809.222016 34.38 
L 809.222016 7.2 
L 811.232807 7.2 
L 811.232807 34.38 
L 809.222016 34.38 
z
" clip-path="url(#p0b43e954bc)" style="fill: #ff6262"/>
    <path d="M 811.232807 34.38 
L 811.232807 7.2 
L 813.243597 7.2 
L 813.243597 34.38 
L 811.232807 34.38 
z
" clip-path="url(#p0b43e954bc)" style="fill: #ffbaba"/>
    <path d="M 813.243597 34.38 
L 813.243597 7.2 
L 815.254387 7.2 
L 815.254387 34.38 
L 813.243597 34.38 
z
" clip-path="url(#p0b43e954bc)" style="fill: #ffcece"/>
    <path d="M 815.254387 34.38 
L 815.254387 7.2 
L 817.265177 7.2 
L 817.265177 34.38 
L 815.254387 34.38 
z
" clip-path="url(#p0b43e954bc)" style="fill: #a0a0ff"/>
    <path d="M 817.265177 34.38 
L 817.265177 7.2 
L 819.275967 7.2 
L 819.275967 34.38 
L 817.265177 34.38 
z
" clip-path="url(#p0b43e954bc)" style="fill: #dadaff"/>
    <path d="M 819.275967 34.38 
L 819.275967 7.2 
L 821.286757 7.2 
L 821.286757 34.38 
L 819.275967 34.38 
z
" clip-path="url(#p0b43e954bc)" style="fill: #d6d6ff"/>
    <path d="M 821.286757 34.38 
L 821.286757 7.2 
L 823.297548 7.2 
L 823.297548 34.38 
L 821.286757 34.38 
z
" clip-path="url(#p0b43e954bc)" style="fill: #ffe6e6"/>
    <path d="M 823.297548 34.38 
L 823.297548 7.2 
L 825.308338 7.2 
L 825.308338 34.38 
L 823.297548 34.38 
z
" clip-path="url(#p0b43e954bc)" style="fill: #e2e2ff"/>
    <path d="M 825.308338 34.38 
L 825.308338 7.2 
L 827.319128 7.2 
L 827.319128 34.38 
L 825.308338 34.38 
z
" clip-path="url(#p0b43e954bc)" style="fill: #dadaff"/>
    <path d="M 827.319128 34.38 
L 827.319128 7.2 
L 829.329918 7.2 
L 829.329918 34.38 
L 827.319128 34.38 
z
" clip-path="url(#p0b43e954bc)" style="fill: #e2e2ff"/>
    <path d="M 829.329918 34.38 
L 829.329918 7.2 
L 831.340708 7.2 
L 831.340708 34.38 
L 829.329918 34.38 
z
" clip-path="url(#p0b43e954bc)" style="fill: #d4d4ff"/>
    <path d="M 831.340708 34.38 
L 831.340708 7.2 
L 833.351498 7.2 
L 833.351498 34.38 
L 831.340708 34.38 
z
" clip-path="url(#p0b43e954bc)" style="fill: #d6d6ff"/>
    <path d="M 833.351498 34.38 
L 833.351498 7.2 
L 835.362289 7.2 
L 835.362289 34.38 
L 833.351498 34.38 
z
" clip-path="url(#p0b43e954bc)" style="fill: #bebeff"/>
    <path d="M 835.362289 34.38 
L 835.362289 7.2 
L 837.373079 7.2 
L 837.373079 34.38 
L 835.362289 34.38 
z
" clip-path="url(#p0b43e954bc)" style="fill: #b0b0ff"/>
    <path d="M 837.373079 34.38 
L 837.373079 7.2 
L 839.383869 7.2 
L 839.383869 34.38 
L 837.373079 34.38 
z
" clip-path="url(#p0b43e954bc)" style="fill: #dcdcff"/>
    <path d="M 839.383869 34.38 
L 839.383869 7.2 
L 841.394659 7.2 
L 841.394659 34.38 
L 839.383869 34.38 
z
" clip-path="url(#p0b43e954bc)" style="fill: #d0d0ff"/>
    <path d="M 841.394659 34.38 
L 841.394659 7.2 
L 843.405449 7.2 
L 843.405449 34.38 
L 841.394659 34.38 
z
" clip-path="url(#p0b43e954bc)" style="fill: #ffc0c0"/>
    <path d="M 843.405449 34.38 
L 843.405449 7.2 
L 845.416239 7.2 
L 845.416239 34.38 
L 843.405449 34.38 
z
" clip-path="url(#p0b43e954bc)" style="fill: #ffaaaa"/>
    <path d="M 845.416239 34.38 
L 845.416239 7.2 
L 847.427029 7.2 
L 847.427029 34.38 
L 845.416239 34.38 
z
" clip-path="url(#p0b43e954bc)" style="fill: #ffe0e0"/>
    <path d="M 847.427029 34.38 
L 847.427029 7.2 
L 849.43782 7.2 
L 849.43782 34.38 
L 847.427029 34.38 
z
" clip-path="url(#p0b43e954bc)" style="fill: #ffdada"/>
    <path d="M 849.43782 34.38 
L 849.43782 7.2 
L 851.44861 7.2 
L 851.44861 34.38 
L 849.43782 34.38 
z
" clip-path="url(#p0b43e954bc)" style="fill: #dadaff"/>
    <path d="M 851.44861 34.38 
L 851.44861 7.2 
L 853.4594 7.2 
L 853.4594 34.38 
L 851.44861 34.38 
z
" clip-path="url(#p0b43e954bc)" style="fill: #ffb4b4"/>
    <path d="M 853.4594 34.38 
L 853.4594 7.2 
L 855.47019 7.2 
L 855.47019 34.38 
L 853.4594 34.38 
z
" clip-path="url(#p0b43e954bc)" style="fill: #ffd0d0"/>
    <path d="M 855.47019 34.38 
L 855.47019 7.2 
L 857.48098 7.2 
L 857.48098 34.38 
L 855.47019 34.38 
z
" clip-path="url(#p0b43e954bc)" style="fill: #ffc8c8"/>
    <path d="M 857.48098 34.38 
L 857.48098 7.2 
L 859.49177 7.2 
L 859.49177 34.38 
L 857.48098 34.38 
z
" clip-path="url(#p0b43e954bc)" style="fill: #ffe8e8"/>
    <path d="M 859.49177 34.38 
L 859.49177 7.2 
L 861.502561 7.2 
L 861.502561 34.38 
L 859.49177 34.38 
z
" clip-path="url(#p0b43e954bc)" style="fill: #d2d2ff"/>
    <path d="M 861.502561 34.38 
L 861.502561 7.2 
L 863.513351 7.2 
L 863.513351 34.38 
L 861.502561 34.38 
z
" clip-path="url(#p0b43e954bc)" style="fill: #dedeff"/>
    <path d="M 863.513351 34.38 
L 863.513351 7.2 
L 865.524141 7.2 
L 865.524141 34.38 
L 863.513351 34.38 
z
" clip-path="url(#p0b43e954bc)" style="fill: #dadaff"/>
    <path d="M 865.524141 34.38 
L 865.524141 7.2 
L 867.534931 7.2 
L 867.534931 34.38 
L 865.524141 34.38 
z
" clip-path="url(#p0b43e954bc)" style="fill: #dcdcff"/>
    <path d="M 867.534931 34.38 
L 867.534931 7.2 
L 869.545721 7.2 
L 869.545721 34.38 
L 867.534931 34.38 
z
" clip-path="url(#p0b43e954bc)" style="fill: #dcdcff"/>
    <path d="M 869.545721 34.38 
L 869.545721 7.2 
L 871.556511 7.2 
L 871.556511 34.38 
L 869.545721 34.38 
z
" clip-path="url(#p0b43e954bc)" style="fill: #c8c8ff"/>
    <path d="M 871.556511 34.38 
L 871.556511 7.2 
L 873.567302 7.2 
L 873.567302 34.38 
L 871.556511 34.38 
z
" clip-path="url(#p0b43e954bc)" style="fill: #d4d4ff"/>
    <path d="M 873.567302 34.38 
L 873.567302 7.2 
L 875.578092 7.2 
L 875.578092 34.38 
L 873.567302 34.38 
z
" clip-path="url(#p0b43e954bc)" style="fill: #e0e0ff"/>
    <path d="M 875.578092 34.38 
L 875.578092 7.2 
L 877.588882 7.2 
L 877.588882 34.38 
L 875.578092 34.38 
z
" clip-path="url(#p0b43e954bc)" style="fill: #e4e4ff"/>
    <path d="M 877.588882 34.38 
L 877.588882 7.2 
L 879.599672 7.2 
L 879.599672 34.38 
L 877.588882 34.38 
z
" clip-path="url(#p0b43e954bc)" style="fill: #e8e8ff"/>
    <path d="M 879.599672 34.38 
L 879.599672 7.2 
L 881.610462 7.2 
L 881.610462 34.38 
L 879.599672 34.38 
z
" clip-path="url(#p0b43e954bc)" style="fill: #ffd0d0"/>
    <path d="M 881.610462 34.38 
L 881.610462 7.2 
L 883.621252 7.2 
L 883.621252 34.38 
L 881.610462 34.38 
z
" clip-path="url(#p0b43e954bc)" style="fill: #ffe6e6"/>
    <path d="M 883.621252 34.38 
L 883.621252 7.2 
L 885.632043 7.2 
L 885.632043 34.38 
L 883.621252 34.38 
z
" clip-path="url(#p0b43e954bc)" style="fill: #ffd4d4"/>
    <path d="M 885.632043 34.38 
L 885.632043 7.2 
L 887.642833 7.2 
L 887.642833 34.38 
L 885.632043 34.38 
z
" clip-path="url(#p0b43e954bc)" style="fill: #ffdada"/>
    <path d="M 887.642833 34.38 
L 887.642833 7.2 
L 889.653623 7.2 
L 889.653623 34.38 
L 887.642833 34.38 
z
" clip-path="url(#p0b43e954bc)" style="fill: #ffe6e6"/>
    <path d="M 889.653623 34.38 
L 889.653623 7.2 
L 891.664413 7.2 
L 891.664413 34.38 
L 889.653623 34.38 
z
" clip-path="url(#p0b43e954bc)" style="fill: #ffe8e8"/>
    <path d="M 891.664413 34.38 
L 891.664413 7.2 
L 893.675203 7.2 
L 893.675203 34.38 
L 891.664413 34.38 
z
" clip-path="url(#p0b43e954bc)" style="fill: #ffe6e6"/>
    <path d="M 893.675203 34.38 
L 893.675203 7.2 
L 895.685993 7.2 
L 895.685993 34.38 
L 893.675203 34.38 
z
" clip-path="url(#p0b43e954bc)" style="fill: #dadaff"/>
    <path d="M 895.685993 34.38 
L 895.685993 7.2 
L 897.696784 7.2 
L 897.696784 34.38 
L 895.685993 34.38 
z
" clip-path="url(#p0b43e954bc)" style="fill: #c4c4ff"/>
    <path d="M 897.696784 34.38 
L 897.696784 7.2 
L 899.707574 7.2 
L 899.707574 34.38 
L 897.696784 34.38 
z
" clip-path="url(#p0b43e954bc)" style="fill: #e0e0ff"/>
    <path d="M 899.707574 34.38 
L 899.707574 7.2 
L 901.718364 7.2 
L 901.718364 34.38 
L 899.707574 34.38 
z
" clip-path="url(#p0b43e954bc)" style="fill: #ececff"/>
    <path d="M 901.718364 34.38 
L 901.718364 7.2 
L 903.729154 7.2 
L 903.729154 34.38 
L 901.718364 34.38 
z
" clip-path="url(#p0b43e954bc)" style="fill: #ececff"/>
    <path d="M 903.729154 34.38 
L 903.729154 7.2 
L 905.739944 7.2 
L 905.739944 34.38 
L 903.729154 34.38 
z
" clip-path="url(#p0b43e954bc)" style="fill: #ffc8c8"/>
    <path d="M 905.739944 34.38 
L 905.739944 7.2 
L 907.750734 7.2 
L 907.750734 34.38 
L 905.739944 34.38 
z
" clip-path="url(#p0b43e954bc)" style="fill: #dadaff"/>
    <path d="M 907.750734 34.38 
L 907.750734 7.2 
L 909.761525 7.2 
L 909.761525 34.38 
L 907.750734 34.38 
z
" clip-path="url(#p0b43e954bc)" style="fill: #e2e2ff"/>
    <path d="M 909.761525 34.38 
L 909.761525 7.2 
L 911.772315 7.2 
L 911.772315 34.38 
L 909.761525 34.38 
z
" clip-path="url(#p0b43e954bc)" style="fill: #dedeff"/>
    <path d="M 911.772315 34.38 
L 911.772315 7.2 
L 913.783105 7.2 
L 913.783105 34.38 
L 911.772315 34.38 
z
" clip-path="url(#p0b43e954bc)" style="fill: #dedeff"/>
    <path d="M 913.783105 34.38 
L 913.783105 7.2 
L 915.793895 7.2 
L 915.793895 34.38 
L 913.783105 34.38 
z
" clip-path="url(#p0b43e954bc)" style="fill: #f0f0ff"/>
    <path d="M 915.793895 34.38 
L 915.793895 7.2 
L 917.804685 7.2 
L 917.804685 34.38 
L 915.793895 34.38 
z
" clip-path="url(#p0b43e954bc)" style="fill: #eaeaff"/>
    <path d="M 917.804685 34.38 
L 917.804685 7.2 
L 919.815475 7.2 
L 919.815475 34.38 
L 917.804685 34.38 
z
" clip-path="url(#p0b43e954bc)" style="fill: #d8d8ff"/>
    <path d="M 919.815475 34.38 
L 919.815475 7.2 
L 921.826265 7.2 
L 921.826265 34.38 
L 919.815475 34.38 
z
" clip-path="url(#p0b43e954bc)" style="fill: #e2e2ff"/>
    <path d="M 921.826265 34.38 
L 921.826265 7.2 
L 923.837056 7.2 
L 923.837056 34.38 
L 921.826265 34.38 
z
" clip-path="url(#p0b43e954bc)" style="fill: #dedeff"/>
    <path d="M 923.837056 34.38 
L 923.837056 7.2 
L 925.847846 7.2 
L 925.847846 34.38 
L 923.837056 34.38 
z
" clip-path="url(#p0b43e954bc)" style="fill: #ccccff"/>
    <path d="M 925.847846 34.38 
L 925.847846 7.2 
L 927.858636 7.2 
L 927.858636 34.38 
L 925.847846 34.38 
z
" clip-path="url(#p0b43e954bc)" style="fill: #d8d8ff"/>
    <path d="M 927.858636 34.38 
L 927.858636 7.2 
L 929.869426 7.2 
L 929.869426 34.38 
L 927.858636 34.38 
z
" clip-path="url(#p0b43e954bc)" style="fill: #d6d6ff"/>
    <path d="M 929.869426 34.38 
L 929.869426 7.2 
L 931.880216 7.2 
L 931.880216 34.38 
L 929.869426 34.38 
z
" clip-path="url(#p0b43e954bc)" style="fill: #e0e0ff"/>
    <path d="M 931.880216 34.38 
L 931.880216 7.2 
L 933.891006 7.2 
L 933.891006 34.38 
L 931.880216 34.38 
z
" clip-path="url(#p0b43e954bc)" style="fill: #dedeff"/>
    <path d="M 933.891006 34.38 
L 933.891006 7.2 
L 935.901797 7.2 
L 935.901797 34.38 
L 933.891006 34.38 
z
" clip-path="url(#p0b43e954bc)" style="fill: #e0e0ff"/>
    <path d="M 935.901797 34.38 
L 935.901797 7.2 
L 937.912587 7.2 
L 937.912587 34.38 
L 935.901797 34.38 
z
" clip-path="url(#p0b43e954bc)" style="fill: #d4d4ff"/>
    <path d="M 937.912587 34.38 
L 937.912587 7.2 
L 939.923377 7.2 
L 939.923377 34.38 
L 937.912587 34.38 
z
" clip-path="url(#p0b43e954bc)" style="fill: #dadaff"/>
    <path d="M 939.923377 34.38 
L 939.923377 7.2 
L 941.934167 7.2 
L 941.934167 34.38 
L 939.923377 34.38 
z
" clip-path="url(#p0b43e954bc)" style="fill: #d8d8ff"/>
   </g>
   <g id="patch_3">
    <path d="M 107.45625 34.38 
L 107.45625 7.2 
" style="fill: none; stroke: #262626; stroke-width: 1.25; stroke-linejoin: miter; stroke-linecap: square"/>
   </g>
   <g id="patch_4">
    <path d="M 941.934167 34.38 
L 941.934167 7.2 
" style="fill: none; stroke: #262626; stroke-width: 1.25; stroke-linejoin: miter; stroke-linecap: square"/>
   </g>
   <g id="patch_5">
    <path d="M 107.45625 34.38 
L 941.934167 34.38 
" style="fill: none; stroke: #262626; stroke-width: 1.25; stroke-linejoin: miter; stroke-linecap: square"/>
   </g>
   <g id="patch_6">
    <path d="M 107.45625 7.2 
L 941.934167 7.2 
" style="fill: none; stroke: #262626; stroke-width: 1.25; stroke-linejoin: miter; stroke-linecap: square"/>
   </g>
   <g id="text_6">
    <!-- Cells -->
    <g style="fill: #262626" transform="translate(250.326347 64.278)scale(0.18 -0.18)">
     <defs>
      <path id="ArialMT-43" d="M 3763 1606 
L 4369 1453 
Q 4178 706 3683 314 
Q 3188 -78 2472 -78 
Q 1731 -78 1267 223 
Q 803 525 561 1097 
Q 319 1669 319 2325 
Q 319 3041 592 3573 
Q 866 4106 1370 4382 
Q 1875 4659 2481 4659 
Q 3169 4659 3637 4309 
Q 4106 3959 4291 3325 
L 3694 3184 
Q 3534 3684 3231 3912 
Q 2928 4141 2469 4141 
Q 1941 4141 1586 3887 
Q 1231 3634 1087 3207 
Q 944 2781 944 2328 
Q 944 1744 1114 1308 
Q 1284 872 1643 656 
Q 2003 441 2422 441 
Q 2931 441 3284 734 
Q 3638 1028 3763 1606 
z
" transform="scale(0.015625)"/>
      <path id="ArialMT-73" d="M 197 991 
L 753 1078 
Q 800 744 1014 566 
Q 1228 388 1613 388 
Q 2000 388 2187 545 
Q 2375 703 2375 916 
Q 2375 1106 2209 1216 
Q 2094 1291 1634 1406 
Q 1016 1563 777 1677 
Q 538 1791 414 1992 
Q 291 2194 291 2438 
Q 291 2659 392 2848 
Q 494 3038 669 3163 
Q 800 3259 1026 3326 
Q 1253 3394 1513 3394 
Q 1903 3394 2198 3281 
Q 2494 3169 2634 2976 
Q 2775 2784 2828 2463 
L 2278 2388 
Q 2241 2644 2061 2787 
Q 1881 2931 1553 2931 
Q 1166 2931 1000 2803 
Q 834 2675 834 2503 
Q 834 2394 903 2306 
Q 972 2216 1119 2156 
Q 1203 2125 1616 2013 
Q 2213 1853 2448 1751 
Q 2684 1650 2818 1456 
Q 2953 1263 2953 975 
Q 2953 694 2789 445 
Q 2625 197 2315 61 
Q 2006 -75 1616 -75 
Q 969 -75 630 194 
Q 291 463 197 991 
z
" transform="scale(0.015625)"/>
     </defs>
     <use xlink:href="#ArialMT-43"/>
     <use xlink:href="#ArialMT-65" x="72.216797"/>
     <use xlink:href="#ArialMT-6c" x="127.832031"/>
     <use xlink:href="#ArialMT-6c" x="150.048828"/>
     <use xlink:href="#ArialMT-73" x="172.265625"/>
    </g>
   </g>
   <g id="text_7">
    <!-- Cytoplasm -->
    <g style="fill: #262626" transform="translate(567.642853 64.278)scale(0.18 -0.18)">
     <defs>
      <path id="ArialMT-79" d="M 397 -1278 
L 334 -750 
Q 519 -800 656 -800 
Q 844 -800 956 -737 
Q 1069 -675 1141 -563 
Q 1194 -478 1313 -144 
Q 1328 -97 1363 -6 
L 103 3319 
L 709 3319 
L 1400 1397 
Q 1534 1031 1641 628 
Q 1738 1016 1872 1384 
L 2581 3319 
L 3144 3319 
L 1881 -56 
Q 1678 -603 1566 -809 
Q 1416 -1088 1222 -1217 
Q 1028 -1347 759 -1347 
Q 597 -1347 397 -1278 
z
" transform="scale(0.015625)"/>
      <path id="ArialMT-74" d="M 1650 503 
L 1731 6 
Q 1494 -44 1306 -44 
Q 1000 -44 831 53 
Q 663 150 594 308 
Q 525 466 525 972 
L 525 2881 
L 113 2881 
L 113 3319 
L 525 3319 
L 525 4141 
L 1084 4478 
L 1084 3319 
L 1650 3319 
L 1650 2881 
L 1084 2881 
L 1084 941 
Q 1084 700 1114 631 
Q 1144 563 1211 522 
Q 1278 481 1403 481 
Q 1497 481 1650 503 
z
" transform="scale(0.015625)"/>
      <path id="ArialMT-61" d="M 2588 409 
Q 2275 144 1986 34 
Q 1697 -75 1366 -75 
Q 819 -75 525 192 
Q 231 459 231 875 
Q 231 1119 342 1320 
Q 453 1522 633 1644 
Q 813 1766 1038 1828 
Q 1203 1872 1538 1913 
Q 2219 1994 2541 2106 
Q 2544 2222 2544 2253 
Q 2544 2597 2384 2738 
Q 2169 2928 1744 2928 
Q 1347 2928 1158 2789 
Q 969 2650 878 2297 
L 328 2372 
Q 403 2725 575 2942 
Q 747 3159 1072 3276 
Q 1397 3394 1825 3394 
Q 2250 3394 2515 3294 
Q 2781 3194 2906 3042 
Q 3031 2891 3081 2659 
Q 3109 2516 3109 2141 
L 3109 1391 
Q 3109 606 3145 398 
Q 3181 191 3288 0 
L 2700 0 
Q 2613 175 2588 409 
z
M 2541 1666 
Q 2234 1541 1622 1453 
Q 1275 1403 1131 1340 
Q 988 1278 909 1158 
Q 831 1038 831 891 
Q 831 666 1001 516 
Q 1172 366 1500 366 
Q 1825 366 2078 508 
Q 2331 650 2450 897 
Q 2541 1088 2541 1459 
L 2541 1666 
z
" transform="scale(0.015625)"/>
      <path id="ArialMT-6d" d="M 422 0 
L 422 3319 
L 925 3319 
L 925 2853 
Q 1081 3097 1340 3245 
Q 1600 3394 1931 3394 
Q 2300 3394 2536 3241 
Q 2772 3088 2869 2813 
Q 3263 3394 3894 3394 
Q 4388 3394 4653 3120 
Q 4919 2847 4919 2278 
L 4919 0 
L 4359 0 
L 4359 2091 
Q 4359 2428 4304 2576 
Q 4250 2725 4106 2815 
Q 3963 2906 3769 2906 
Q 3419 2906 3187 2673 
Q 2956 2441 2956 1928 
L 2956 0 
L 2394 0 
L 2394 2156 
Q 2394 2531 2256 2718 
Q 2119 2906 1806 2906 
Q 1569 2906 1367 2781 
Q 1166 2656 1075 2415 
Q 984 2175 984 1722 
L 984 0 
L 422 0 
z
" transform="scale(0.015625)"/>
     </defs>
     <use xlink:href="#ArialMT-43"/>
     <use xlink:href="#ArialMT-79" x="72.216797"/>
     <use xlink:href="#ArialMT-74" x="122.216797"/>
     <use xlink:href="#ArialMT-6f" x="150"/>
     <use xlink:href="#ArialMT-70" x="205.615234"/>
     <use xlink:href="#ArialMT-6c" x="261.230469"/>
     <use xlink:href="#ArialMT-61" x="283.447266"/>
     <use xlink:href="#ArialMT-73" x="339.0625"/>
     <use xlink:href="#ArialMT-6d" x="389.0625"/>
    </g>
   </g>
   <g id="text_8">
    <!-- Nuclei -->
    <g style="fill: #262626" transform="translate(838.504601 64.278)scale(0.18 -0.18)">
     <defs>
      <path id="ArialMT-4e" d="M 488 0 
L 488 4581 
L 1109 4581 
L 3516 984 
L 3516 4581 
L 4097 4581 
L 4097 0 
L 3475 0 
L 1069 3600 
L 1069 0 
L 488 0 
z
" transform="scale(0.015625)"/>
      <path id="ArialMT-69" d="M 425 3934 
L 425 4581 
L 988 4581 
L 988 3934 
L 425 3934 
z
M 425 0 
L 425 3319 
L 988 3319 
L 988 0 
L 425 0 
z
" transform="scale(0.015625)"/>
     </defs>
     <use xlink:href="#ArialMT-4e"/>
     <use xlink:href="#ArialMT-75" x="72.216797"/>
     <use xlink:href="#ArialMT-63" x="127.832031"/>
     <use xlink:href="#ArialMT-6c" x="177.832031"/>
     <use xlink:href="#ArialMT-65" x="200.048828"/>
     <use xlink:href="#ArialMT-69" x="255.664062"/>
    </g>
   </g>
  </g>
 </g>
 <defs>
  <clipPath id="p0b43e954bc">
   <rect x="107.45625" y="7.2" width="834.477917" height="27.18"/>
  </clipPath>
 </defs>
</svg>
