<?xml version="1.0" encoding="utf-8" standalone="no"?>
<!DOCTYPE svg PUBLIC "-//W3C//DTD SVG 1.1//EN"
  "http://www.w3.org/Graphics/SVG/1.1/DTD/svg11.dtd">
<svg xmlns:xlink="http://www.w3.org/1999/xlink" width="766.911221pt" height="75.266437pt" viewBox="0 0 766.911221 75.266437" xmlns="http://www.w3.org/2000/svg" version="1.1">
 <metadata>
  <rdf:RDF xmlns:dc="http://purl.org/dc/elements/1.1/" xmlns:cc="http://creativecommons.org/ns#" xmlns:rdf="http://www.w3.org/1999/02/22-rdf-syntax-ns#">
   <cc:Work>
    <dc:type rdf:resource="http://purl.org/dc/dcmitype/StillImage"/>
    <dc:date>2023-02-13T13:56:27.387413</dc:date>
    <dc:format>image/svg+xml</dc:format>
    <dc:creator>
     <cc:Agent>
      <dc:title>Matplotlib v3.5.1, https://matplotlib.org/</dc:title>
     </cc:Agent>
    </dc:creator>
   </cc:Work>
  </rdf:RDF>
 </metadata>
 <defs>
  <style type="text/css">*{stroke-linejoin: round; stroke-linecap: butt}</style>
 </defs>
 <g id="figure_1">
  <g id="patch_1">
   <path d="M 0 75.266437 
L 766.911221 75.266437 
L 766.911221 0 
L 0 0 
z
" style="fill: #ffffff"/>
  </g>
  <g id="axes_1">
   <g id="patch_2">
    <path d="M 120.790625 34.38 
L 747.199112 34.38 
L 747.199112 7.2 
L 120.790625 7.2 
z
" style="fill: #ffffff"/>
   </g>
   <g id="matplotlib.axis_1">
    <g id="xtick_1">
     <g id="line2d_1"/>
     <g id="text_1">
      <text style="fill: #262626; font: 15px 'sans-serif'; text-anchor: middle" x="122.965654" y="54.216719" transform="rotate(-0, 122.965654, 54.216719)">1</text>
     </g>
    </g>
    <g id="xtick_2">
     <g id="line2d_2"/>
     <g id="text_2">
      <text style="fill: #262626; font: 15px 'sans-serif'; text-anchor: middle" x="379.619132" y="54.216719" transform="rotate(-0, 379.619132, 54.216719)">119</text>
     </g>
    </g>
    <g id="xtick_3">
     <g id="line2d_3"/>
     <g id="text_3">
      <text style="fill: #262626; font: 15px 'sans-serif'; text-anchor: middle" x="653.672845" y="54.216719" transform="rotate(-0, 653.672845, 54.216719)">245</text>
     </g>
    </g>
    <g id="xtick_4">
     <g id="line2d_4"/>
     <g id="text_4">
      <text style="fill: #262626; font: 15px 'sans-serif'; text-anchor: middle" x="747.199112" y="54.216719" transform="rotate(-0, 747.199112, 54.216719)">288</text>
     </g>
    </g>
   </g>
   <g id="matplotlib.axis_2">
    <g id="ytick_1">
     <g id="line2d_5"/>
     <g id="text_5">
      <text style="fill: #262626; font: 20px 'sans-serif'; text-anchor: end" x="111.690625" y="28.069687" transform="rotate(-0, 111.690625, 28.069687)">DNA_Synth</text>
     </g>
    </g>
   </g>
   <g id="PolyCollection_1">
    <path d="M 120.790625 34.38 
L 120.790625 7.2 
L 122.965654 7.2 
L 122.965654 34.38 
L 120.790625 34.38 
z
" clip-path="url(#pcf44172a60)" style="fill: #ff0000"/>
    <path d="M 122.965654 34.38 
L 122.965654 7.2 
L 125.140684 7.2 
L 125.140684 34.38 
L 122.965654 34.38 
z
" clip-path="url(#pcf44172a60)" style="fill: #ff0000"/>
    <path d="M 125.140684 34.38 
L 125.140684 7.2 
L 127.315713 7.2 
L 127.315713 34.38 
L 125.140684 34.38 
z
" clip-path="url(#pcf44172a60)" style="fill: #ff1a1a"/>
    <path d="M 127.315713 34.38 
L 127.315713 7.2 
L 129.490743 7.2 
L 129.490743 34.38 
L 127.315713 34.38 
z
" clip-path="url(#pcf44172a60)" style="fill: #ff0000"/>
    <path d="M 129.490743 34.38 
L 129.490743 7.2 
L 131.665772 7.2 
L 131.665772 34.38 
L 129.490743 34.38 
z
" clip-path="url(#pcf44172a60)" style="fill: #ff0000"/>
    <path d="M 131.665772 34.38 
L 131.665772 7.2 
L 133.840802 7.2 
L 133.840802 34.38 
L 131.665772 34.38 
z
" clip-path="url(#pcf44172a60)" style="fill: #ff0000"/>
    <path d="M 133.840802 34.38 
L 133.840802 7.2 
L 136.015831 7.2 
L 136.015831 34.38 
L 133.840802 34.38 
z
" clip-path="url(#pcf44172a60)" style="fill: #ffe8e8"/>
    <path d="M 136.015831 34.38 
L 136.015831 7.2 
L 138.190861 7.2 
L 138.190861 34.38 
L 136.015831 34.38 
z
" clip-path="url(#pcf44172a60)" style="fill: #e6e6ff"/>
    <path d="M 138.190861 34.38 
L 138.190861 7.2 
L 140.36589 7.2 
L 140.36589 34.38 
L 138.190861 34.38 
z
" clip-path="url(#pcf44172a60)" style="fill: #f2f2ff"/>
    <path d="M 140.36589 34.38 
L 140.36589 7.2 
L 142.54092 7.2 
L 142.54092 34.38 
L 140.36589 34.38 
z
" clip-path="url(#pcf44172a60)" style="fill: #ff7e7e"/>
    <path d="M 142.54092 34.38 
L 142.54092 7.2 
L 144.715949 7.2 
L 144.715949 34.38 
L 142.54092 34.38 
z
" clip-path="url(#pcf44172a60)" style="fill: #aeaeff"/>
    <path d="M 144.715949 34.38 
L 144.715949 7.2 
L 146.890979 7.2 
L 146.890979 34.38 
L 144.715949 34.38 
z
" clip-path="url(#pcf44172a60)" style="fill: #f0f0ff"/>
    <path d="M 146.890979 34.38 
L 146.890979 7.2 
L 149.066008 7.2 
L 149.066008 34.38 
L 146.890979 34.38 
z
" clip-path="url(#pcf44172a60)" style="fill: #ffeeee"/>
    <path d="M 149.066008 34.38 
L 149.066008 7.2 
L 151.241038 7.2 
L 151.241038 34.38 
L 149.066008 34.38 
z
" clip-path="url(#pcf44172a60)" style="fill: #8e8eff"/>
    <path d="M 151.241038 34.38 
L 151.241038 7.2 
L 153.416067 7.2 
L 153.416067 34.38 
L 151.241038 34.38 
z
" clip-path="url(#pcf44172a60)" style="fill: #fff0f0"/>
    <path d="M 153.416067 34.38 
L 153.416067 7.2 
L 155.591097 7.2 
L 155.591097 34.38 
L 153.416067 34.38 
z
" clip-path="url(#pcf44172a60)" style="fill: #7878ff"/>
    <path d="M 155.591097 34.38 
L 155.591097 7.2 
L 157.766126 7.2 
L 157.766126 34.38 
L 155.591097 34.38 
z
" clip-path="url(#pcf44172a60)" style="fill: #8484ff"/>
    <path d="M 157.766126 34.38 
L 157.766126 7.2 
L 159.941155 7.2 
L 159.941155 34.38 
L 157.766126 34.38 
z
" clip-path="url(#pcf44172a60)" style="fill: #b2b2ff"/>
    <path d="M 159.941155 34.38 
L 159.941155 7.2 
L 162.116185 7.2 
L 162.116185 34.38 
L 159.941155 34.38 
z
" clip-path="url(#pcf44172a60)" style="fill: #aaaaff"/>
    <path d="M 162.116185 34.38 
L 162.116185 7.2 
L 164.291214 7.2 
L 164.291214 34.38 
L 162.116185 34.38 
z
" clip-path="url(#pcf44172a60)" style="fill: #ff9e9e"/>
    <path d="M 164.291214 34.38 
L 164.291214 7.2 
L 166.466244 7.2 
L 166.466244 34.38 
L 164.291214 34.38 
z
" clip-path="url(#pcf44172a60)" style="fill: #b6b6ff"/>
    <path d="M 166.466244 34.38 
L 166.466244 7.2 
L 168.641273 7.2 
L 168.641273 34.38 
L 166.466244 34.38 
z
" clip-path="url(#pcf44172a60)" style="fill: #bebeff"/>
    <path d="M 168.641273 34.38 
L 168.641273 7.2 
L 170.816303 7.2 
L 170.816303 34.38 
L 168.641273 34.38 
z
" clip-path="url(#pcf44172a60)" style="fill: #fff2f2"/>
    <path d="M 170.816303 34.38 
L 170.816303 7.2 
L 172.991332 7.2 
L 172.991332 34.38 
L 170.816303 34.38 
z
" clip-path="url(#pcf44172a60)" style="fill: #ffeeee"/>
    <path d="M 172.991332 34.38 
L 172.991332 7.2 
L 175.166362 7.2 
L 175.166362 34.38 
L 172.991332 34.38 
z
" clip-path="url(#pcf44172a60)" style="fill: #ffe6e6"/>
    <path d="M 175.166362 34.38 
L 175.166362 7.2 
L 177.341391 7.2 
L 177.341391 34.38 
L 175.166362 34.38 
z
" clip-path="url(#pcf44172a60)" style="fill: #d2d2ff"/>
    <path d="M 177.341391 34.38 
L 177.341391 7.2 
L 179.516421 7.2 
L 179.516421 34.38 
L 177.341391 34.38 
z
" clip-path="url(#pcf44172a60)" style="fill: #dcdcff"/>
    <path d="M 179.516421 34.38 
L 179.516421 7.2 
L 181.69145 7.2 
L 181.69145 34.38 
L 179.516421 34.38 
z
" clip-path="url(#pcf44172a60)" style="fill: #ffbcbc"/>
    <path d="M 181.69145 34.38 
L 181.69145 7.2 
L 183.86648 7.2 
L 183.86648 34.38 
L 181.69145 34.38 
z
" clip-path="url(#pcf44172a60)" style="fill: #ff9090"/>
    <path d="M 183.86648 34.38 
L 183.86648 7.2 
L 186.041509 7.2 
L 186.041509 34.38 
L 183.86648 34.38 
z
" clip-path="url(#pcf44172a60)" style="fill: #f2f2ff"/>
    <path d="M 186.041509 34.38 
L 186.041509 7.2 
L 188.216539 7.2 
L 188.216539 34.38 
L 186.041509 34.38 
z
" clip-path="url(#pcf44172a60)" style="fill: #cacaff"/>
    <path d="M 188.216539 34.38 
L 188.216539 7.2 
L 190.391568 7.2 
L 190.391568 34.38 
L 188.216539 34.38 
z
" clip-path="url(#pcf44172a60)" style="fill: #e6e6ff"/>
    <path d="M 190.391568 34.38 
L 190.391568 7.2 
L 192.566597 7.2 
L 192.566597 34.38 
L 190.391568 34.38 
z
" clip-path="url(#pcf44172a60)" style="fill: #d0d0ff"/>
    <path d="M 192.566597 34.38 
L 192.566597 7.2 
L 194.741627 7.2 
L 194.741627 34.38 
L 192.566597 34.38 
z
" clip-path="url(#pcf44172a60)" style="fill: #2222ff"/>
    <path d="M 194.741627 34.38 
L 194.741627 7.2 
L 196.916656 7.2 
L 196.916656 34.38 
L 194.741627 34.38 
z
" clip-path="url(#pcf44172a60)" style="fill: #ffe4e4"/>
    <path d="M 196.916656 34.38 
L 196.916656 7.2 
L 199.091686 7.2 
L 199.091686 34.38 
L 196.916656 34.38 
z
" clip-path="url(#pcf44172a60)" style="fill: #d2d2ff"/>
    <path d="M 199.091686 34.38 
L 199.091686 7.2 
L 201.266715 7.2 
L 201.266715 34.38 
L 199.091686 34.38 
z
" clip-path="url(#pcf44172a60)" style="fill: #0000ff"/>
    <path d="M 201.266715 34.38 
L 201.266715 7.2 
L 203.441745 7.2 
L 203.441745 34.38 
L 201.266715 34.38 
z
" clip-path="url(#pcf44172a60)" style="fill: #f6f6ff"/>
    <path d="M 203.441745 34.38 
L 203.441745 7.2 
L 205.616774 7.2 
L 205.616774 34.38 
L 203.441745 34.38 
z
" clip-path="url(#pcf44172a60)" style="fill: #dedeff"/>
    <path d="M 205.616774 34.38 
L 205.616774 7.2 
L 207.791804 7.2 
L 207.791804 34.38 
L 205.616774 34.38 
z
" clip-path="url(#pcf44172a60)" style="fill: #e0e0ff"/>
    <path d="M 207.791804 34.38 
L 207.791804 7.2 
L 209.966833 7.2 
L 209.966833 34.38 
L 207.791804 34.38 
z
" clip-path="url(#pcf44172a60)" style="fill: #f0f0ff"/>
    <path d="M 209.966833 34.38 
L 209.966833 7.2 
L 212.141863 7.2 
L 212.141863 34.38 
L 209.966833 34.38 
z
" clip-path="url(#pcf44172a60)" style="fill: #d4d4ff"/>
    <path d="M 212.141863 34.38 
L 212.141863 7.2 
L 214.316892 7.2 
L 214.316892 34.38 
L 212.141863 34.38 
z
" clip-path="url(#pcf44172a60)" style="fill: #acacff"/>
    <path d="M 214.316892 34.38 
L 214.316892 7.2 
L 216.491922 7.2 
L 216.491922 34.38 
L 214.316892 34.38 
z
" clip-path="url(#pcf44172a60)" style="fill: #dedeff"/>
    <path d="M 216.491922 34.38 
L 216.491922 7.2 
L 218.666951 7.2 
L 218.666951 34.38 
L 216.491922 34.38 
z
" clip-path="url(#pcf44172a60)" style="fill: #ccccff"/>
    <path d="M 218.666951 34.38 
L 218.666951 7.2 
L 220.841981 7.2 
L 220.841981 34.38 
L 218.666951 34.38 
z
" clip-path="url(#pcf44172a60)" style="fill: #0000ff"/>
    <path d="M 220.841981 34.38 
L 220.841981 7.2 
L 223.01701 7.2 
L 223.01701 34.38 
L 220.841981 34.38 
z
" clip-path="url(#pcf44172a60)" style="fill: #fff2f2"/>
    <path d="M 223.01701 34.38 
L 223.01701 7.2 
L 225.19204 7.2 
L 225.19204 34.38 
L 223.01701 34.38 
z
" clip-path="url(#pcf44172a60)" style="fill: #7e7eff"/>
    <path d="M 225.19204 34.38 
L 225.19204 7.2 
L 227.367069 7.2 
L 227.367069 34.38 
L 225.19204 34.38 
z
" clip-path="url(#pcf44172a60)" style="fill: #e2e2ff"/>
    <path d="M 227.367069 34.38 
L 227.367069 7.2 
L 229.542098 7.2 
L 229.542098 34.38 
L 227.367069 34.38 
z
" clip-path="url(#pcf44172a60)" style="fill: #ffdede"/>
    <path d="M 229.542098 34.38 
L 229.542098 7.2 
L 231.717128 7.2 
L 231.717128 34.38 
L 229.542098 34.38 
z
" clip-path="url(#pcf44172a60)" style="fill: #ffd8d8"/>
    <path d="M 231.717128 34.38 
L 231.717128 7.2 
L 233.892157 7.2 
L 233.892157 34.38 
L 231.717128 34.38 
z
" clip-path="url(#pcf44172a60)" style="fill: #ffe0e0"/>
    <path d="M 233.892157 34.38 
L 233.892157 7.2 
L 236.067187 7.2 
L 236.067187 34.38 
L 233.892157 34.38 
z
" clip-path="url(#pcf44172a60)" style="fill: #e4e4ff"/>
    <path d="M 236.067187 34.38 
L 236.067187 7.2 
L 238.242216 7.2 
L 238.242216 34.38 
L 236.067187 34.38 
z
" clip-path="url(#pcf44172a60)" style="fill: #ffe8e8"/>
    <path d="M 238.242216 34.38 
L 238.242216 7.2 
L 240.417246 7.2 
L 240.417246 34.38 
L 238.242216 34.38 
z
" clip-path="url(#pcf44172a60)" style="fill: #ffdede"/>
    <path d="M 240.417246 34.38 
L 240.417246 7.2 
L 242.592275 7.2 
L 242.592275 34.38 
L 240.417246 34.38 
z
" clip-path="url(#pcf44172a60)" style="fill: #ffd2d2"/>
    <path d="M 242.592275 34.38 
L 242.592275 7.2 
L 244.767305 7.2 
L 244.767305 34.38 
L 242.592275 34.38 
z
" clip-path="url(#pcf44172a60)" style="fill: #ffd6d6"/>
    <path d="M 244.767305 34.38 
L 244.767305 7.2 
L 246.942334 7.2 
L 246.942334 34.38 
L 244.767305 34.38 
z
" clip-path="url(#pcf44172a60)" style="fill: #ffeaea"/>
    <path d="M 246.942334 34.38 
L 246.942334 7.2 
L 249.117364 7.2 
L 249.117364 34.38 
L 246.942334 34.38 
z
" clip-path="url(#pcf44172a60)" style="fill: #ffdcdc"/>
    <path d="M 249.117364 34.38 
L 249.117364 7.2 
L 251.292393 7.2 
L 251.292393 34.38 
L 249.117364 34.38 
z
" clip-path="url(#pcf44172a60)" style="fill: #ffdede"/>
    <path d="M 251.292393 34.38 
L 251.292393 7.2 
L 253.467423 7.2 
L 253.467423 34.38 
L 251.292393 34.38 
z
" clip-path="url(#pcf44172a60)" style="fill: #dedeff"/>
    <path d="M 253.467423 34.38 
L 253.467423 7.2 
L 255.642452 7.2 
L 255.642452 34.38 
L 253.467423 34.38 
z
" clip-path="url(#pcf44172a60)" style="fill: #e2e2ff"/>
    <path d="M 255.642452 34.38 
L 255.642452 7.2 
L 257.817482 7.2 
L 257.817482 34.38 
L 255.642452 34.38 
z
" clip-path="url(#pcf44172a60)" style="fill: #1414ff"/>
    <path d="M 257.817482 34.38 
L 257.817482 7.2 
L 259.992511 7.2 
L 259.992511 34.38 
L 257.817482 34.38 
z
" clip-path="url(#pcf44172a60)" style="fill: #2626ff"/>
    <path d="M 259.992511 34.38 
L 259.992511 7.2 
L 262.16754 7.2 
L 262.16754 34.38 
L 259.992511 34.38 
z
" clip-path="url(#pcf44172a60)" style="fill: #2c2cff"/>
    <path d="M 262.16754 34.38 
L 262.16754 7.2 
L 264.34257 7.2 
L 264.34257 34.38 
L 262.16754 34.38 
z
" clip-path="url(#pcf44172a60)" style="fill: #dedeff"/>
    <path d="M 264.34257 34.38 
L 264.34257 7.2 
L 266.517599 7.2 
L 266.517599 34.38 
L 264.34257 34.38 
z
" clip-path="url(#pcf44172a60)" style="fill: #dcdcff"/>
    <path d="M 266.517599 34.38 
L 266.517599 7.2 
L 268.692629 7.2 
L 268.692629 34.38 
L 266.517599 34.38 
z
" clip-path="url(#pcf44172a60)" style="fill: #dedeff"/>
    <path d="M 268.692629 34.38 
L 268.692629 7.2 
L 270.867658 7.2 
L 270.867658 34.38 
L 268.692629 34.38 
z
" clip-path="url(#pcf44172a60)" style="fill: #ffb6b6"/>
    <path d="M 270.867658 34.38 
L 270.867658 7.2 
L 273.042688 7.2 
L 273.042688 34.38 
L 270.867658 34.38 
z
" clip-path="url(#pcf44172a60)" style="fill: #ffe4e4"/>
    <path d="M 273.042688 34.38 
L 273.042688 7.2 
L 275.217717 7.2 
L 275.217717 34.38 
L 273.042688 34.38 
z
" clip-path="url(#pcf44172a60)" style="fill: #ffd0d0"/>
    <path d="M 275.217717 34.38 
L 275.217717 7.2 
L 277.392747 7.2 
L 277.392747 34.38 
L 275.217717 34.38 
z
" clip-path="url(#pcf44172a60)" style="fill: #ffd8d8"/>
    <path d="M 277.392747 34.38 
L 277.392747 7.2 
L 279.567776 7.2 
L 279.567776 34.38 
L 277.392747 34.38 
z
" clip-path="url(#pcf44172a60)" style="fill: #ffd6d6"/>
    <path d="M 279.567776 34.38 
L 279.567776 7.2 
L 281.742806 7.2 
L 281.742806 34.38 
L 279.567776 34.38 
z
" clip-path="url(#pcf44172a60)" style="fill: #ffe6e6"/>
    <path d="M 281.742806 34.38 
L 281.742806 7.2 
L 283.917835 7.2 
L 283.917835 34.38 
L 281.742806 34.38 
z
" clip-path="url(#pcf44172a60)" style="fill: #ffdede"/>
    <path d="M 283.917835 34.38 
L 283.917835 7.2 
L 286.092865 7.2 
L 286.092865 34.38 
L 283.917835 34.38 
z
" clip-path="url(#pcf44172a60)" style="fill: #ffb8b8"/>
    <path d="M 286.092865 34.38 
L 286.092865 7.2 
L 288.267894 7.2 
L 288.267894 34.38 
L 286.092865 34.38 
z
" clip-path="url(#pcf44172a60)" style="fill: #ffc4c4"/>
    <path d="M 288.267894 34.38 
L 288.267894 7.2 
L 290.442924 7.2 
L 290.442924 34.38 
L 288.267894 34.38 
z
" clip-path="url(#pcf44172a60)" style="fill: #2424ff"/>
    <path d="M 290.442924 34.38 
L 290.442924 7.2 
L 292.617953 7.2 
L 292.617953 34.38 
L 290.442924 34.38 
z
" clip-path="url(#pcf44172a60)" style="fill: #e0e0ff"/>
    <path d="M 292.617953 34.38 
L 292.617953 7.2 
L 294.792983 7.2 
L 294.792983 34.38 
L 292.617953 34.38 
z
" clip-path="url(#pcf44172a60)" style="fill: #dadaff"/>
    <path d="M 294.792983 34.38 
L 294.792983 7.2 
L 296.968012 7.2 
L 296.968012 34.38 
L 294.792983 34.38 
z
" clip-path="url(#pcf44172a60)" style="fill: #dcdcff"/>
    <path d="M 296.968012 34.38 
L 296.968012 7.2 
L 299.143041 7.2 
L 299.143041 34.38 
L 296.968012 34.38 
z
" clip-path="url(#pcf44172a60)" style="fill: #ffecec"/>
    <path d="M 299.143041 34.38 
L 299.143041 7.2 
L 301.318071 7.2 
L 301.318071 34.38 
L 299.143041 34.38 
z
" clip-path="url(#pcf44172a60)" style="fill: #ffdcdc"/>
    <path d="M 301.318071 34.38 
L 301.318071 7.2 
L 303.4931 7.2 
L 303.4931 34.38 
L 301.318071 34.38 
z
" clip-path="url(#pcf44172a60)" style="fill: #ffdcdc"/>
    <path d="M 303.4931 34.38 
L 303.4931 7.2 
L 305.66813 7.2 
L 305.66813 34.38 
L 303.4931 34.38 
z
" clip-path="url(#pcf44172a60)" style="fill: #eeeeff"/>
    <path d="M 305.66813 34.38 
L 305.66813 7.2 
L 307.843159 7.2 
L 307.843159 34.38 
L 305.66813 34.38 
z
" clip-path="url(#pcf44172a60)" style="fill: #e4e4ff"/>
    <path d="M 307.843159 34.38 
L 307.843159 7.2 
L 310.018189 7.2 
L 310.018189 34.38 
L 307.843159 34.38 
z
" clip-path="url(#pcf44172a60)" style="fill: #e4e4ff"/>
    <path d="M 310.018189 34.38 
L 310.018189 7.2 
L 312.193218 7.2 
L 312.193218 34.38 
L 310.018189 34.38 
z
" clip-path="url(#pcf44172a60)" style="fill: #ffe6e6"/>
    <path d="M 312.193218 34.38 
L 312.193218 7.2 
L 314.368248 7.2 
L 314.368248 34.38 
L 312.193218 34.38 
z
" clip-path="url(#pcf44172a60)" style="fill: #ffeeee"/>
    <path d="M 314.368248 34.38 
L 314.368248 7.2 
L 316.543277 7.2 
L 316.543277 34.38 
L 314.368248 34.38 
z
" clip-path="url(#pcf44172a60)" style="fill: #ffe8e8"/>
    <path d="M 316.543277 34.38 
L 316.543277 7.2 
L 318.718307 7.2 
L 318.718307 34.38 
L 316.543277 34.38 
z
" clip-path="url(#pcf44172a60)" style="fill: #ffd4d4"/>
    <path d="M 318.718307 34.38 
L 318.718307 7.2 
L 320.893336 7.2 
L 320.893336 34.38 
L 318.718307 34.38 
z
" clip-path="url(#pcf44172a60)" style="fill: #ffd6d6"/>
    <path d="M 320.893336 34.38 
L 320.893336 7.2 
L 323.068366 7.2 
L 323.068366 34.38 
L 320.893336 34.38 
z
" clip-path="url(#pcf44172a60)" style="fill: #ffcece"/>
    <path d="M 323.068366 34.38 
L 323.068366 7.2 
L 325.243395 7.2 
L 325.243395 34.38 
L 323.068366 34.38 
z
" clip-path="url(#pcf44172a60)" style="fill: #fff4f4"/>
    <path d="M 325.243395 34.38 
L 325.243395 7.2 
L 327.418425 7.2 
L 327.418425 34.38 
L 325.243395 34.38 
z
" clip-path="url(#pcf44172a60)" style="fill: #ffcece"/>
    <path d="M 327.418425 34.38 
L 327.418425 7.2 
L 329.593454 7.2 
L 329.593454 34.38 
L 327.418425 34.38 
z
" clip-path="url(#pcf44172a60)" style="fill: #ffcece"/>
    <path d="M 329.593454 34.38 
L 329.593454 7.2 
L 331.768483 7.2 
L 331.768483 34.38 
L 329.593454 34.38 
z
" clip-path="url(#pcf44172a60)" style="fill: #ffd4d4"/>
    <path d="M 331.768483 34.38 
L 331.768483 7.2 
L 333.943513 7.2 
L 333.943513 34.38 
L 331.768483 34.38 
z
" clip-path="url(#pcf44172a60)" style="fill: #ffcccc"/>
    <path d="M 333.943513 34.38 
L 333.943513 7.2 
L 336.118542 7.2 
L 336.118542 34.38 
L 333.943513 34.38 
z
" clip-path="url(#pcf44172a60)" style="fill: #ffd6d6"/>
    <path d="M 336.118542 34.38 
L 336.118542 7.2 
L 338.293572 7.2 
L 338.293572 34.38 
L 336.118542 34.38 
z
" clip-path="url(#pcf44172a60)" style="fill: #ffcece"/>
    <path d="M 338.293572 34.38 
L 338.293572 7.2 
L 340.468601 7.2 
L 340.468601 34.38 
L 338.293572 34.38 
z
" clip-path="url(#pcf44172a60)" style="fill: #0000ff"/>
    <path d="M 340.468601 34.38 
L 340.468601 7.2 
L 342.643631 7.2 
L 342.643631 34.38 
L 340.468601 34.38 
z
" clip-path="url(#pcf44172a60)" style="fill: #0000ff"/>
    <path d="M 342.643631 34.38 
L 342.643631 7.2 
L 344.81866 7.2 
L 344.81866 34.38 
L 342.643631 34.38 
z
" clip-path="url(#pcf44172a60)" style="fill: #0000ff"/>
    <path d="M 344.81866 34.38 
L 344.81866 7.2 
L 346.99369 7.2 
L 346.99369 34.38 
L 344.81866 34.38 
z
" clip-path="url(#pcf44172a60)" style="fill: #f6f6ff"/>
    <path d="M 346.99369 34.38 
L 346.99369 7.2 
L 349.168719 7.2 
L 349.168719 34.38 
L 346.99369 34.38 
z
" clip-path="url(#pcf44172a60)" style="fill: #f6f6ff"/>
    <path d="M 349.168719 34.38 
L 349.168719 7.2 
L 351.343749 7.2 
L 351.343749 34.38 
L 349.168719 34.38 
z
" clip-path="url(#pcf44172a60)" style="fill: #f6f6ff"/>
    <path d="M 351.343749 34.38 
L 351.343749 7.2 
L 353.518778 7.2 
L 353.518778 34.38 
L 351.343749 34.38 
z
" clip-path="url(#pcf44172a60)" style="fill: #dcdcff"/>
    <path d="M 353.518778 34.38 
L 353.518778 7.2 
L 355.693808 7.2 
L 355.693808 34.38 
L 353.518778 34.38 
z
" clip-path="url(#pcf44172a60)" style="fill: #dcdcff"/>
    <path d="M 355.693808 34.38 
L 355.693808 7.2 
L 357.868837 7.2 
L 357.868837 34.38 
L 355.693808 34.38 
z
" clip-path="url(#pcf44172a60)" style="fill: #dcdcff"/>
    <path d="M 357.868837 34.38 
L 357.868837 7.2 
L 360.043867 7.2 
L 360.043867 34.38 
L 357.868837 34.38 
z
" clip-path="url(#pcf44172a60)" style="fill: #ececff"/>
    <path d="M 360.043867 34.38 
L 360.043867 7.2 
L 362.218896 7.2 
L 362.218896 34.38 
L 360.043867 34.38 
z
" clip-path="url(#pcf44172a60)" style="fill: #2222ff"/>
    <path d="M 362.218896 34.38 
L 362.218896 7.2 
L 364.393926 7.2 
L 364.393926 34.38 
L 362.218896 34.38 
z
" clip-path="url(#pcf44172a60)" style="fill: #0e0eff"/>
    <path d="M 364.393926 34.38 
L 364.393926 7.2 
L 366.568955 7.2 
L 366.568955 34.38 
L 364.393926 34.38 
z
" clip-path="url(#pcf44172a60)" style="fill: #1010ff"/>
    <path d="M 366.568955 34.38 
L 366.568955 7.2 
L 368.743984 7.2 
L 368.743984 34.38 
L 366.568955 34.38 
z
" clip-path="url(#pcf44172a60)" style="fill: #ffeeee"/>
    <path d="M 368.743984 34.38 
L 368.743984 7.2 
L 370.919014 7.2 
L 370.919014 34.38 
L 368.743984 34.38 
z
" clip-path="url(#pcf44172a60)" style="fill: #fff0f0"/>
    <path d="M 370.919014 34.38 
L 370.919014 7.2 
L 373.094043 7.2 
L 373.094043 34.38 
L 370.919014 34.38 
z
" clip-path="url(#pcf44172a60)" style="fill: #0e0eff"/>
    <path d="M 373.094043 34.38 
L 373.094043 7.2 
L 375.269073 7.2 
L 375.269073 34.38 
L 373.094043 34.38 
z
" clip-path="url(#pcf44172a60)" style="fill: #1a1aff"/>
    <path d="M 375.269073 34.38 
L 375.269073 7.2 
L 377.444102 7.2 
L 377.444102 34.38 
L 375.269073 34.38 
z
" clip-path="url(#pcf44172a60)" style="fill: #1818ff"/>
    <path d="M 377.444102 34.38 
L 377.444102 7.2 
L 379.619132 7.2 
L 379.619132 34.38 
L 377.444102 34.38 
z
" clip-path="url(#pcf44172a60)" style="fill: #ff0000"/>
    <path d="M 379.619132 34.38 
L 379.619132 7.2 
L 381.794161 7.2 
L 381.794161 34.38 
L 379.619132 34.38 
z
" clip-path="url(#pcf44172a60)" style="fill: #ff0000"/>
    <path d="M 381.794161 34.38 
L 381.794161 7.2 
L 383.969191 7.2 
L 383.969191 34.38 
L 381.794161 34.38 
z
" clip-path="url(#pcf44172a60)" style="fill: #ff0000"/>
    <path d="M 383.969191 34.38 
L 383.969191 7.2 
L 386.14422 7.2 
L 386.14422 34.38 
L 383.969191 34.38 
z
" clip-path="url(#pcf44172a60)" style="fill: #ff0000"/>
    <path d="M 386.14422 34.38 
L 386.14422 7.2 
L 388.31925 7.2 
L 388.31925 34.38 
L 386.14422 34.38 
z
" clip-path="url(#pcf44172a60)" style="fill: #ffe4e4"/>
    <path d="M 388.31925 34.38 
L 388.31925 7.2 
L 390.494279 7.2 
L 390.494279 34.38 
L 388.31925 34.38 
z
" clip-path="url(#pcf44172a60)" style="fill: #dcdcff"/>
    <path d="M 390.494279 34.38 
L 390.494279 7.2 
L 392.669309 7.2 
L 392.669309 34.38 
L 390.494279 34.38 
z
" clip-path="url(#pcf44172a60)" style="fill: #ff5858"/>
    <path d="M 392.669309 34.38 
L 392.669309 7.2 
L 394.844338 7.2 
L 394.844338 34.38 
L 392.669309 34.38 
z
" clip-path="url(#pcf44172a60)" style="fill: #ff9696"/>
    <path d="M 394.844338 34.38 
L 394.844338 7.2 
L 397.019368 7.2 
L 397.019368 34.38 
L 394.844338 34.38 
z
" clip-path="url(#pcf44172a60)" style="fill: #ff3e3e"/>
    <path d="M 397.019368 34.38 
L 397.019368 7.2 
L 399.194397 7.2 
L 399.194397 34.38 
L 397.019368 34.38 
z
" clip-path="url(#pcf44172a60)" style="fill: #ffa2a2"/>
    <path d="M 399.194397 34.38 
L 399.194397 7.2 
L 401.369426 7.2 
L 401.369426 34.38 
L 399.194397 34.38 
z
" clip-path="url(#pcf44172a60)" style="fill: #c4c4ff"/>
    <path d="M 401.369426 34.38 
L 401.369426 7.2 
L 403.544456 7.2 
L 403.544456 34.38 
L 401.369426 34.38 
z
" clip-path="url(#pcf44172a60)" style="fill: #f0f0ff"/>
    <path d="M 403.544456 34.38 
L 403.544456 7.2 
L 405.719485 7.2 
L 405.719485 34.38 
L 403.544456 34.38 
z
" clip-path="url(#pcf44172a60)" style="fill: #f0f0ff"/>
    <path d="M 405.719485 34.38 
L 405.719485 7.2 
L 407.894515 7.2 
L 407.894515 34.38 
L 405.719485 34.38 
z
" clip-path="url(#pcf44172a60)" style="fill: #ffecec"/>
    <path d="M 407.894515 34.38 
L 407.894515 7.2 
L 410.069544 7.2 
L 410.069544 34.38 
L 407.894515 34.38 
z
" clip-path="url(#pcf44172a60)" style="fill: #ceceff"/>
    <path d="M 410.069544 34.38 
L 410.069544 7.2 
L 412.244574 7.2 
L 412.244574 34.38 
L 410.069544 34.38 
z
" clip-path="url(#pcf44172a60)" style="fill: #fff2f2"/>
    <path d="M 412.244574 34.38 
L 412.244574 7.2 
L 414.419603 7.2 
L 414.419603 34.38 
L 412.244574 34.38 
z
" clip-path="url(#pcf44172a60)" style="fill: #fff2f2"/>
    <path d="M 414.419603 34.38 
L 414.419603 7.2 
L 416.594633 7.2 
L 416.594633 34.38 
L 414.419603 34.38 
z
" clip-path="url(#pcf44172a60)" style="fill: #ffaaaa"/>
    <path d="M 416.594633 34.38 
L 416.594633 7.2 
L 418.769662 7.2 
L 418.769662 34.38 
L 416.594633 34.38 
z
" clip-path="url(#pcf44172a60)" style="fill: #fffefe"/>
    <path d="M 418.769662 34.38 
L 418.769662 7.2 
L 420.944692 7.2 
L 420.944692 34.38 
L 418.769662 34.38 
z
" clip-path="url(#pcf44172a60)" style="fill: #fffefe"/>
    <path d="M 420.944692 34.38 
L 420.944692 7.2 
L 423.119721 7.2 
L 423.119721 34.38 
L 420.944692 34.38 
z
" clip-path="url(#pcf44172a60)" style="fill: #ffa8a8"/>
    <path d="M 423.119721 34.38 
L 423.119721 7.2 
L 425.294751 7.2 
L 425.294751 34.38 
L 423.119721 34.38 
z
" clip-path="url(#pcf44172a60)" style="fill: #fffefe"/>
    <path d="M 425.294751 34.38 
L 425.294751 7.2 
L 427.46978 7.2 
L 427.46978 34.38 
L 425.294751 34.38 
z
" clip-path="url(#pcf44172a60)" style="fill: #ff9e9e"/>
    <path d="M 427.46978 34.38 
L 427.46978 7.2 
L 429.64481 7.2 
L 429.64481 34.38 
L 427.46978 34.38 
z
" clip-path="url(#pcf44172a60)" style="fill: #fffefe"/>
    <path d="M 429.64481 34.38 
L 429.64481 7.2 
L 431.819839 7.2 
L 431.819839 34.38 
L 429.64481 34.38 
z
" clip-path="url(#pcf44172a60)" style="fill: #ffb0b0"/>
    <path d="M 431.819839 34.38 
L 431.819839 7.2 
L 433.994869 7.2 
L 433.994869 34.38 
L 431.819839 34.38 
z
" clip-path="url(#pcf44172a60)" style="fill: #ff6060"/>
    <path d="M 433.994869 34.38 
L 433.994869 7.2 
L 436.169898 7.2 
L 436.169898 34.38 
L 433.994869 34.38 
z
" clip-path="url(#pcf44172a60)" style="fill: #ff5252"/>
    <path d="M 436.169898 34.38 
L 436.169898 7.2 
L 438.344927 7.2 
L 438.344927 34.38 
L 436.169898 34.38 
z
" clip-path="url(#pcf44172a60)" style="fill: #ff0c0c"/>
    <path d="M 438.344927 34.38 
L 438.344927 7.2 
L 440.519957 7.2 
L 440.519957 34.38 
L 438.344927 34.38 
z
" clip-path="url(#pcf44172a60)" style="fill: #ffacac"/>
    <path d="M 440.519957 34.38 
L 440.519957 7.2 
L 442.694986 7.2 
L 442.694986 34.38 
L 440.519957 34.38 
z
" clip-path="url(#pcf44172a60)" style="fill: #ffeeee"/>
    <path d="M 442.694986 34.38 
L 442.694986 7.2 
L 444.870016 7.2 
L 444.870016 34.38 
L 442.694986 34.38 
z
" clip-path="url(#pcf44172a60)" style="fill: #ffcccc"/>
    <path d="M 444.870016 34.38 
L 444.870016 7.2 
L 447.045045 7.2 
L 447.045045 34.38 
L 444.870016 34.38 
z
" clip-path="url(#pcf44172a60)" style="fill: #ff7070"/>
    <path d="M 447.045045 34.38 
L 447.045045 7.2 
L 449.220075 7.2 
L 449.220075 34.38 
L 447.045045 34.38 
z
" clip-path="url(#pcf44172a60)" style="fill: #ff8c8c"/>
    <path d="M 449.220075 34.38 
L 449.220075 7.2 
L 451.395104 7.2 
L 451.395104 34.38 
L 449.220075 34.38 
z
" clip-path="url(#pcf44172a60)" style="fill: #ffecec"/>
    <path d="M 451.395104 34.38 
L 451.395104 7.2 
L 453.570134 7.2 
L 453.570134 34.38 
L 451.395104 34.38 
z
" clip-path="url(#pcf44172a60)" style="fill: #ff8686"/>
    <path d="M 453.570134 34.38 
L 453.570134 7.2 
L 455.745163 7.2 
L 455.745163 34.38 
L 453.570134 34.38 
z
" clip-path="url(#pcf44172a60)" style="fill: #fff0f0"/>
    <path d="M 455.745163 34.38 
L 455.745163 7.2 
L 457.920193 7.2 
L 457.920193 34.38 
L 455.745163 34.38 
z
" clip-path="url(#pcf44172a60)" style="fill: #ff7c7c"/>
    <path d="M 457.920193 34.38 
L 457.920193 7.2 
L 460.095222 7.2 
L 460.095222 34.38 
L 457.920193 34.38 
z
" clip-path="url(#pcf44172a60)" style="fill: #fff4f4"/>
    <path d="M 460.095222 34.38 
L 460.095222 7.2 
L 462.270252 7.2 
L 462.270252 34.38 
L 460.095222 34.38 
z
" clip-path="url(#pcf44172a60)" style="fill: #ffe8e8"/>
    <path d="M 462.270252 34.38 
L 462.270252 7.2 
L 464.445281 7.2 
L 464.445281 34.38 
L 462.270252 34.38 
z
" clip-path="url(#pcf44172a60)" style="fill: #ffe6e6"/>
    <path d="M 464.445281 34.38 
L 464.445281 7.2 
L 466.620311 7.2 
L 466.620311 34.38 
L 464.445281 34.38 
z
" clip-path="url(#pcf44172a60)" style="fill: #c2c2ff"/>
    <path d="M 466.620311 34.38 
L 466.620311 7.2 
L 468.79534 7.2 
L 468.79534 34.38 
L 466.620311 34.38 
z
" clip-path="url(#pcf44172a60)" style="fill: #dadaff"/>
    <path d="M 468.79534 34.38 
L 468.79534 7.2 
L 470.970369 7.2 
L 470.970369 34.38 
L 468.79534 34.38 
z
" clip-path="url(#pcf44172a60)" style="fill: #ffe4e4"/>
    <path d="M 470.970369 34.38 
L 470.970369 7.2 
L 473.145399 7.2 
L 473.145399 34.38 
L 470.970369 34.38 
z
" clip-path="url(#pcf44172a60)" style="fill: #ff9292"/>
    <path d="M 473.145399 34.38 
L 473.145399 7.2 
L 475.320428 7.2 
L 475.320428 34.38 
L 473.145399 34.38 
z
" clip-path="url(#pcf44172a60)" style="fill: #e2e2ff"/>
    <path d="M 475.320428 34.38 
L 475.320428 7.2 
L 477.495458 7.2 
L 477.495458 34.38 
L 475.320428 34.38 
z
" clip-path="url(#pcf44172a60)" style="fill: #0000ff"/>
    <path d="M 477.495458 34.38 
L 477.495458 7.2 
L 479.670487 7.2 
L 479.670487 34.38 
L 477.495458 34.38 
z
" clip-path="url(#pcf44172a60)" style="fill: #e6e6ff"/>
    <path d="M 479.670487 34.38 
L 479.670487 7.2 
L 481.845517 7.2 
L 481.845517 34.38 
L 479.670487 34.38 
z
" clip-path="url(#pcf44172a60)" style="fill: #0202ff"/>
    <path d="M 481.845517 34.38 
L 481.845517 7.2 
L 484.020546 7.2 
L 484.020546 34.38 
L 481.845517 34.38 
z
" clip-path="url(#pcf44172a60)" style="fill: #ffe0e0"/>
    <path d="M 484.020546 34.38 
L 484.020546 7.2 
L 486.195576 7.2 
L 486.195576 34.38 
L 484.020546 34.38 
z
" clip-path="url(#pcf44172a60)" style="fill: #0000ff"/>
    <path d="M 486.195576 34.38 
L 486.195576 7.2 
L 488.370605 7.2 
L 488.370605 34.38 
L 486.195576 34.38 
z
" clip-path="url(#pcf44172a60)" style="fill: #dedeff"/>
    <path d="M 488.370605 34.38 
L 488.370605 7.2 
L 490.545635 7.2 
L 490.545635 34.38 
L 488.370605 34.38 
z
" clip-path="url(#pcf44172a60)" style="fill: #e4e4ff"/>
    <path d="M 490.545635 34.38 
L 490.545635 7.2 
L 492.720664 7.2 
L 492.720664 34.38 
L 490.545635 34.38 
z
" clip-path="url(#pcf44172a60)" style="fill: #f2f2ff"/>
    <path d="M 492.720664 34.38 
L 492.720664 7.2 
L 494.895694 7.2 
L 494.895694 34.38 
L 492.720664 34.38 
z
" clip-path="url(#pcf44172a60)" style="fill: #d8d8ff"/>
    <path d="M 494.895694 34.38 
L 494.895694 7.2 
L 497.070723 7.2 
L 497.070723 34.38 
L 494.895694 34.38 
z
" clip-path="url(#pcf44172a60)" style="fill: #0000ff"/>
    <path d="M 497.070723 34.38 
L 497.070723 7.2 
L 499.245753 7.2 
L 499.245753 34.38 
L 497.070723 34.38 
z
" clip-path="url(#pcf44172a60)" style="fill: #e6e6ff"/>
    <path d="M 499.245753 34.38 
L 499.245753 7.2 
L 501.420782 7.2 
L 501.420782 34.38 
L 499.245753 34.38 
z
" clip-path="url(#pcf44172a60)" style="fill: #0000ff"/>
    <path d="M 501.420782 34.38 
L 501.420782 7.2 
L 503.595812 7.2 
L 503.595812 34.38 
L 501.420782 34.38 
z
" clip-path="url(#pcf44172a60)" style="fill: #e4e4ff"/>
    <path d="M 503.595812 34.38 
L 503.595812 7.2 
L 505.770841 7.2 
L 505.770841 34.38 
L 503.595812 34.38 
z
" clip-path="url(#pcf44172a60)" style="fill: #f0f0ff"/>
    <path d="M 505.770841 34.38 
L 505.770841 7.2 
L 507.94587 7.2 
L 507.94587 34.38 
L 505.770841 34.38 
z
" clip-path="url(#pcf44172a60)" style="fill: #e0e0ff"/>
    <path d="M 507.94587 34.38 
L 507.94587 7.2 
L 510.1209 7.2 
L 510.1209 34.38 
L 507.94587 34.38 
z
" clip-path="url(#pcf44172a60)" style="fill: #ffc0c0"/>
    <path d="M 510.1209 34.38 
L 510.1209 7.2 
L 512.295929 7.2 
L 512.295929 34.38 
L 510.1209 34.38 
z
" clip-path="url(#pcf44172a60)" style="fill: #ffbcbc"/>
    <path d="M 512.295929 34.38 
L 512.295929 7.2 
L 514.470959 7.2 
L 514.470959 34.38 
L 512.295929 34.38 
z
" clip-path="url(#pcf44172a60)" style="fill: #ffcaca"/>
    <path d="M 514.470959 34.38 
L 514.470959 7.2 
L 516.645988 7.2 
L 516.645988 34.38 
L 514.470959 34.38 
z
" clip-path="url(#pcf44172a60)" style="fill: #ffc4c4"/>
    <path d="M 516.645988 34.38 
L 516.645988 7.2 
L 518.821018 7.2 
L 518.821018 34.38 
L 516.645988 34.38 
z
" clip-path="url(#pcf44172a60)" style="fill: #ffc8c8"/>
    <path d="M 518.821018 34.38 
L 518.821018 7.2 
L 520.996047 7.2 
L 520.996047 34.38 
L 518.821018 34.38 
z
" clip-path="url(#pcf44172a60)" style="fill: #c0c0ff"/>
    <path d="M 520.996047 34.38 
L 520.996047 7.2 
L 523.171077 7.2 
L 523.171077 34.38 
L 520.996047 34.38 
z
" clip-path="url(#pcf44172a60)" style="fill: #ffd6d6"/>
    <path d="M 523.171077 34.38 
L 523.171077 7.2 
L 525.346106 7.2 
L 525.346106 34.38 
L 523.171077 34.38 
z
" clip-path="url(#pcf44172a60)" style="fill: #eaeaff"/>
    <path d="M 525.346106 34.38 
L 525.346106 7.2 
L 527.521136 7.2 
L 527.521136 34.38 
L 525.346106 34.38 
z
" clip-path="url(#pcf44172a60)" style="fill: #ffd2d2"/>
    <path d="M 527.521136 34.38 
L 527.521136 7.2 
L 529.696165 7.2 
L 529.696165 34.38 
L 527.521136 34.38 
z
" clip-path="url(#pcf44172a60)" style="fill: #ffd0d0"/>
    <path d="M 529.696165 34.38 
L 529.696165 7.2 
L 531.871195 7.2 
L 531.871195 34.38 
L 529.696165 34.38 
z
" clip-path="url(#pcf44172a60)" style="fill: #fff4f4"/>
    <path d="M 531.871195 34.38 
L 531.871195 7.2 
L 534.046224 7.2 
L 534.046224 34.38 
L 531.871195 34.38 
z
" clip-path="url(#pcf44172a60)" style="fill: #ffcccc"/>
    <path d="M 534.046224 34.38 
L 534.046224 7.2 
L 536.221254 7.2 
L 536.221254 34.38 
L 534.046224 34.38 
z
" clip-path="url(#pcf44172a60)" style="fill: #ffc4c4"/>
    <path d="M 536.221254 34.38 
L 536.221254 7.2 
L 538.396283 7.2 
L 538.396283 34.38 
L 536.221254 34.38 
z
" clip-path="url(#pcf44172a60)" style="fill: #ffc6c6"/>
    <path d="M 538.396283 34.38 
L 538.396283 7.2 
L 540.571312 7.2 
L 540.571312 34.38 
L 538.396283 34.38 
z
" clip-path="url(#pcf44172a60)" style="fill: #ffeeee"/>
    <path d="M 540.571312 34.38 
L 540.571312 7.2 
L 542.746342 7.2 
L 542.746342 34.38 
L 540.571312 34.38 
z
" clip-path="url(#pcf44172a60)" style="fill: #ffe0e0"/>
    <path d="M 542.746342 34.38 
L 542.746342 7.2 
L 544.921371 7.2 
L 544.921371 34.38 
L 542.746342 34.38 
z
" clip-path="url(#pcf44172a60)" style="fill: #ffe0e0"/>
    <path d="M 544.921371 34.38 
L 544.921371 7.2 
L 547.096401 7.2 
L 547.096401 34.38 
L 544.921371 34.38 
z
" clip-path="url(#pcf44172a60)" style="fill: #e6e6ff"/>
    <path d="M 547.096401 34.38 
L 547.096401 7.2 
L 549.27143 7.2 
L 549.27143 34.38 
L 547.096401 34.38 
z
" clip-path="url(#pcf44172a60)" style="fill: #e0e0ff"/>
    <path d="M 549.27143 34.38 
L 549.27143 7.2 
L 551.44646 7.2 
L 551.44646 34.38 
L 549.27143 34.38 
z
" clip-path="url(#pcf44172a60)" style="fill: #e0e0ff"/>
    <path d="M 551.44646 34.38 
L 551.44646 7.2 
L 553.621489 7.2 
L 553.621489 34.38 
L 551.44646 34.38 
z
" clip-path="url(#pcf44172a60)" style="fill: #2626ff"/>
    <path d="M 553.621489 34.38 
L 553.621489 7.2 
L 555.796519 7.2 
L 555.796519 34.38 
L 553.621489 34.38 
z
" clip-path="url(#pcf44172a60)" style="fill: #2e2eff"/>
    <path d="M 555.796519 34.38 
L 555.796519 7.2 
L 557.971548 7.2 
L 557.971548 34.38 
L 555.796519 34.38 
z
" clip-path="url(#pcf44172a60)" style="fill: #1e1eff"/>
    <path d="M 557.971548 34.38 
L 557.971548 7.2 
L 560.146578 7.2 
L 560.146578 34.38 
L 557.971548 34.38 
z
" clip-path="url(#pcf44172a60)" style="fill: #ececff"/>
    <path d="M 560.146578 34.38 
L 560.146578 7.2 
L 562.321607 7.2 
L 562.321607 34.38 
L 560.146578 34.38 
z
" clip-path="url(#pcf44172a60)" style="fill: #e8e8ff"/>
    <path d="M 562.321607 34.38 
L 562.321607 7.2 
L 564.496637 7.2 
L 564.496637 34.38 
L 562.321607 34.38 
z
" clip-path="url(#pcf44172a60)" style="fill: #ff9c9c"/>
    <path d="M 564.496637 34.38 
L 564.496637 7.2 
L 566.671666 7.2 
L 566.671666 34.38 
L 564.496637 34.38 
z
" clip-path="url(#pcf44172a60)" style="fill: #ffcaca"/>
    <path d="M 566.671666 34.38 
L 566.671666 7.2 
L 568.846696 7.2 
L 568.846696 34.38 
L 566.671666 34.38 
z
" clip-path="url(#pcf44172a60)" style="fill: #ffa8a8"/>
    <path d="M 568.846696 34.38 
L 568.846696 7.2 
L 571.021725 7.2 
L 571.021725 34.38 
L 568.846696 34.38 
z
" clip-path="url(#pcf44172a60)" style="fill: #dcdcff"/>
    <path d="M 571.021725 34.38 
L 571.021725 7.2 
L 573.196755 7.2 
L 573.196755 34.38 
L 571.021725 34.38 
z
" clip-path="url(#pcf44172a60)" style="fill: #dedeff"/>
    <path d="M 573.196755 34.38 
L 573.196755 7.2 
L 575.371784 7.2 
L 575.371784 34.38 
L 573.196755 34.38 
z
" clip-path="url(#pcf44172a60)" style="fill: #e4e4ff"/>
    <path d="M 575.371784 34.38 
L 575.371784 7.2 
L 577.546813 7.2 
L 577.546813 34.38 
L 575.371784 34.38 
z
" clip-path="url(#pcf44172a60)" style="fill: #e0e0ff"/>
    <path d="M 577.546813 34.38 
L 577.546813 7.2 
L 579.721843 7.2 
L 579.721843 34.38 
L 577.546813 34.38 
z
" clip-path="url(#pcf44172a60)" style="fill: #e0e0ff"/>
    <path d="M 579.721843 34.38 
L 579.721843 7.2 
L 581.896872 7.2 
L 581.896872 34.38 
L 579.721843 34.38 
z
" clip-path="url(#pcf44172a60)" style="fill: #ececff"/>
    <path d="M 581.896872 34.38 
L 581.896872 7.2 
L 584.071902 7.2 
L 584.071902 34.38 
L 581.896872 34.38 
z
" clip-path="url(#pcf44172a60)" style="fill: #e4e4ff"/>
    <path d="M 584.071902 34.38 
L 584.071902 7.2 
L 586.246931 7.2 
L 586.246931 34.38 
L 584.071902 34.38 
z
" clip-path="url(#pcf44172a60)" style="fill: #e6e6ff"/>
    <path d="M 586.246931 34.38 
L 586.246931 7.2 
L 588.421961 7.2 
L 588.421961 34.38 
L 586.246931 34.38 
z
" clip-path="url(#pcf44172a60)" style="fill: #ffecec"/>
    <path d="M 588.421961 34.38 
L 588.421961 7.2 
L 590.59699 7.2 
L 590.59699 34.38 
L 588.421961 34.38 
z
" clip-path="url(#pcf44172a60)" style="fill: #ffe6e6"/>
    <path d="M 590.59699 34.38 
L 590.59699 7.2 
L 592.77202 7.2 
L 592.77202 34.38 
L 590.59699 34.38 
z
" clip-path="url(#pcf44172a60)" style="fill: #ffe6e6"/>
    <path d="M 592.77202 34.38 
L 592.77202 7.2 
L 594.947049 7.2 
L 594.947049 34.38 
L 592.77202 34.38 
z
" clip-path="url(#pcf44172a60)" style="fill: #eaeaff"/>
    <path d="M 594.947049 34.38 
L 594.947049 7.2 
L 597.122079 7.2 
L 597.122079 34.38 
L 594.947049 34.38 
z
" clip-path="url(#pcf44172a60)" style="fill: #ececff"/>
    <path d="M 597.122079 34.38 
L 597.122079 7.2 
L 599.297108 7.2 
L 599.297108 34.38 
L 597.122079 34.38 
z
" clip-path="url(#pcf44172a60)" style="fill: #f2f2ff"/>
    <path d="M 599.297108 34.38 
L 599.297108 7.2 
L 601.472138 7.2 
L 601.472138 34.38 
L 599.297108 34.38 
z
" clip-path="url(#pcf44172a60)" style="fill: #eaeaff"/>
    <path d="M 601.472138 34.38 
L 601.472138 7.2 
L 603.647167 7.2 
L 603.647167 34.38 
L 601.472138 34.38 
z
" clip-path="url(#pcf44172a60)" style="fill: #ffcccc"/>
    <path d="M 603.647167 34.38 
L 603.647167 7.2 
L 605.822197 7.2 
L 605.822197 34.38 
L 603.647167 34.38 
z
" clip-path="url(#pcf44172a60)" style="fill: #ffd6d6"/>
    <path d="M 605.822197 34.38 
L 605.822197 7.2 
L 607.997226 7.2 
L 607.997226 34.38 
L 605.822197 34.38 
z
" clip-path="url(#pcf44172a60)" style="fill: #ffcccc"/>
    <path d="M 607.997226 34.38 
L 607.997226 7.2 
L 610.172256 7.2 
L 610.172256 34.38 
L 607.997226 34.38 
z
" clip-path="url(#pcf44172a60)" style="fill: #ffeeee"/>
    <path d="M 610.172256 34.38 
L 610.172256 7.2 
L 612.347285 7.2 
L 612.347285 34.38 
L 610.172256 34.38 
z
" clip-path="url(#pcf44172a60)" style="fill: #ffb6b6"/>
    <path d="M 612.347285 34.38 
L 612.347285 7.2 
L 614.522314 7.2 
L 614.522314 34.38 
L 612.347285 34.38 
z
" clip-path="url(#pcf44172a60)" style="fill: #ffc4c4"/>
    <path d="M 614.522314 34.38 
L 614.522314 7.2 
L 616.697344 7.2 
L 616.697344 34.38 
L 614.522314 34.38 
z
" clip-path="url(#pcf44172a60)" style="fill: #ffc0c0"/>
    <path d="M 616.697344 34.38 
L 616.697344 7.2 
L 618.872373 7.2 
L 618.872373 34.38 
L 616.697344 34.38 
z
" clip-path="url(#pcf44172a60)" style="fill: #ffdada"/>
    <path d="M 618.872373 34.38 
L 618.872373 7.2 
L 621.047403 7.2 
L 621.047403 34.38 
L 618.872373 34.38 
z
" clip-path="url(#pcf44172a60)" style="fill: #ffd6d6"/>
    <path d="M 621.047403 34.38 
L 621.047403 7.2 
L 623.222432 7.2 
L 623.222432 34.38 
L 621.047403 34.38 
z
" clip-path="url(#pcf44172a60)" style="fill: #ffd6d6"/>
    <path d="M 623.222432 34.38 
L 623.222432 7.2 
L 625.397462 7.2 
L 625.397462 34.38 
L 623.222432 34.38 
z
" clip-path="url(#pcf44172a60)" style="fill: #e8e8ff"/>
    <path d="M 625.397462 34.38 
L 625.397462 7.2 
L 627.572491 7.2 
L 627.572491 34.38 
L 625.397462 34.38 
z
" clip-path="url(#pcf44172a60)" style="fill: #f4f4ff"/>
    <path d="M 627.572491 34.38 
L 627.572491 7.2 
L 629.747521 7.2 
L 629.747521 34.38 
L 627.572491 34.38 
z
" clip-path="url(#pcf44172a60)" style="fill: #f4f4ff"/>
    <path d="M 629.747521 34.38 
L 629.747521 7.2 
L 631.92255 7.2 
L 631.92255 34.38 
L 629.747521 34.38 
z
" clip-path="url(#pcf44172a60)" style="fill: #f4f4ff"/>
    <path d="M 631.92255 34.38 
L 631.92255 7.2 
L 634.09758 7.2 
L 634.09758 34.38 
L 631.92255 34.38 
z
" clip-path="url(#pcf44172a60)" style="fill: #e0e0ff"/>
    <path d="M 634.09758 34.38 
L 634.09758 7.2 
L 636.272609 7.2 
L 636.272609 34.38 
L 634.09758 34.38 
z
" clip-path="url(#pcf44172a60)" style="fill: #e0e0ff"/>
    <path d="M 636.272609 34.38 
L 636.272609 7.2 
L 638.447639 7.2 
L 638.447639 34.38 
L 636.272609 34.38 
z
" clip-path="url(#pcf44172a60)" style="fill: #e0e0ff"/>
    <path d="M 638.447639 34.38 
L 638.447639 7.2 
L 640.622668 7.2 
L 640.622668 34.38 
L 638.447639 34.38 
z
" clip-path="url(#pcf44172a60)" style="fill: #3636ff"/>
    <path d="M 640.622668 34.38 
L 640.622668 7.2 
L 642.797698 7.2 
L 642.797698 34.38 
L 640.622668 34.38 
z
" clip-path="url(#pcf44172a60)" style="fill: #3e3eff"/>
    <path d="M 642.797698 34.38 
L 642.797698 7.2 
L 644.972727 7.2 
L 644.972727 34.38 
L 642.797698 34.38 
z
" clip-path="url(#pcf44172a60)" style="fill: #3c3cff"/>
    <path d="M 644.972727 34.38 
L 644.972727 7.2 
L 647.147756 7.2 
L 647.147756 34.38 
L 644.972727 34.38 
z
" clip-path="url(#pcf44172a60)" style="fill: #2828ff"/>
    <path d="M 647.147756 34.38 
L 647.147756 7.2 
L 649.322786 7.2 
L 649.322786 34.38 
L 647.147756 34.38 
z
" clip-path="url(#pcf44172a60)" style="fill: #2626ff"/>
    <path d="M 649.322786 34.38 
L 649.322786 7.2 
L 651.497815 7.2 
L 651.497815 34.38 
L 649.322786 34.38 
z
" clip-path="url(#pcf44172a60)" style="fill: #2626ff"/>
    <path d="M 651.497815 34.38 
L 651.497815 7.2 
L 653.672845 7.2 
L 653.672845 34.38 
L 651.497815 34.38 
z
" clip-path="url(#pcf44172a60)" style="fill: #ff1212"/>
    <path d="M 653.672845 34.38 
L 653.672845 7.2 
L 655.847874 7.2 
L 655.847874 34.38 
L 653.672845 34.38 
z
" clip-path="url(#pcf44172a60)" style="fill: #ff2626"/>
    <path d="M 655.847874 34.38 
L 655.847874 7.2 
L 658.022904 7.2 
L 658.022904 34.38 
L 655.847874 34.38 
z
" clip-path="url(#pcf44172a60)" style="fill: #ff2c2c"/>
    <path d="M 658.022904 34.38 
L 658.022904 7.2 
L 660.197933 7.2 
L 660.197933 34.38 
L 658.022904 34.38 
z
" clip-path="url(#pcf44172a60)" style="fill: #ff2222"/>
    <path d="M 660.197933 34.38 
L 660.197933 7.2 
L 662.372963 7.2 
L 662.372963 34.38 
L 660.197933 34.38 
z
" clip-path="url(#pcf44172a60)" style="fill: #ff7070"/>
    <path d="M 662.372963 34.38 
L 662.372963 7.2 
L 664.547992 7.2 
L 664.547992 34.38 
L 662.372963 34.38 
z
" clip-path="url(#pcf44172a60)" style="fill: #ffdcdc"/>
    <path d="M 664.547992 34.38 
L 664.547992 7.2 
L 666.723022 7.2 
L 666.723022 34.38 
L 664.547992 34.38 
z
" clip-path="url(#pcf44172a60)" style="fill: #f0f0ff"/>
    <path d="M 666.723022 34.38 
L 666.723022 7.2 
L 668.898051 7.2 
L 668.898051 34.38 
L 666.723022 34.38 
z
" clip-path="url(#pcf44172a60)" style="fill: #fff0f0"/>
    <path d="M 668.898051 34.38 
L 668.898051 7.2 
L 671.073081 7.2 
L 671.073081 34.38 
L 668.898051 34.38 
z
" clip-path="url(#pcf44172a60)" style="fill: #ffc8c8"/>
    <path d="M 671.073081 34.38 
L 671.073081 7.2 
L 673.24811 7.2 
L 673.24811 34.38 
L 671.073081 34.38 
z
" clip-path="url(#pcf44172a60)" style="fill: #ffe8e8"/>
    <path d="M 673.24811 34.38 
L 673.24811 7.2 
L 675.42314 7.2 
L 675.42314 34.38 
L 673.24811 34.38 
z
" clip-path="url(#pcf44172a60)" style="fill: #ffe6e6"/>
    <path d="M 675.42314 34.38 
L 675.42314 7.2 
L 677.598169 7.2 
L 677.598169 34.38 
L 675.42314 34.38 
z
" clip-path="url(#pcf44172a60)" style="fill: #4444ff"/>
    <path d="M 677.598169 34.38 
L 677.598169 7.2 
L 679.773199 7.2 
L 679.773199 34.38 
L 677.598169 34.38 
z
" clip-path="url(#pcf44172a60)" style="fill: #e0e0ff"/>
    <path d="M 679.773199 34.38 
L 679.773199 7.2 
L 681.948228 7.2 
L 681.948228 34.38 
L 679.773199 34.38 
z
" clip-path="url(#pcf44172a60)" style="fill: #0404ff"/>
    <path d="M 681.948228 34.38 
L 681.948228 7.2 
L 684.123257 7.2 
L 684.123257 34.38 
L 681.948228 34.38 
z
" clip-path="url(#pcf44172a60)" style="fill: #2020ff"/>
    <path d="M 684.123257 34.38 
L 684.123257 7.2 
L 686.298287 7.2 
L 686.298287 34.38 
L 684.123257 34.38 
z
" clip-path="url(#pcf44172a60)" style="fill: #1a1aff"/>
    <path d="M 686.298287 34.38 
L 686.298287 7.2 
L 688.473316 7.2 
L 688.473316 34.38 
L 686.298287 34.38 
z
" clip-path="url(#pcf44172a60)" style="fill: #ffeaea"/>
    <path d="M 688.473316 34.38 
L 688.473316 7.2 
L 690.648346 7.2 
L 690.648346 34.38 
L 688.473316 34.38 
z
" clip-path="url(#pcf44172a60)" style="fill: #2222ff"/>
    <path d="M 690.648346 34.38 
L 690.648346 7.2 
L 692.823375 7.2 
L 692.823375 34.38 
L 690.648346 34.38 
z
" clip-path="url(#pcf44172a60)" style="fill: #0000ff"/>
    <path d="M 692.823375 34.38 
L 692.823375 7.2 
L 694.998405 7.2 
L 694.998405 34.38 
L 692.823375 34.38 
z
" clip-path="url(#pcf44172a60)" style="fill: #0a0aff"/>
    <path d="M 694.998405 34.38 
L 694.998405 7.2 
L 697.173434 7.2 
L 697.173434 34.38 
L 694.998405 34.38 
z
" clip-path="url(#pcf44172a60)" style="fill: #0000ff"/>
    <path d="M 697.173434 34.38 
L 697.173434 7.2 
L 699.348464 7.2 
L 699.348464 34.38 
L 697.173434 34.38 
z
" clip-path="url(#pcf44172a60)" style="fill: #1212ff"/>
    <path d="M 699.348464 34.38 
L 699.348464 7.2 
L 701.523493 7.2 
L 701.523493 34.38 
L 699.348464 34.38 
z
" clip-path="url(#pcf44172a60)" style="fill: #1616ff"/>
    <path d="M 701.523493 34.38 
L 701.523493 7.2 
L 703.698523 7.2 
L 703.698523 34.38 
L 701.523493 34.38 
z
" clip-path="url(#pcf44172a60)" style="fill: #0000ff"/>
    <path d="M 703.698523 34.38 
L 703.698523 7.2 
L 705.873552 7.2 
L 705.873552 34.38 
L 703.698523 34.38 
z
" clip-path="url(#pcf44172a60)" style="fill: #ff0000"/>
    <path d="M 705.873552 34.38 
L 705.873552 7.2 
L 708.048582 7.2 
L 708.048582 34.38 
L 705.873552 34.38 
z
" clip-path="url(#pcf44172a60)" style="fill: #ff0000"/>
    <path d="M 708.048582 34.38 
L 708.048582 7.2 
L 710.223611 7.2 
L 710.223611 34.38 
L 708.048582 34.38 
z
" clip-path="url(#pcf44172a60)" style="fill: #ff0000"/>
    <path d="M 710.223611 34.38 
L 710.223611 7.2 
L 712.398641 7.2 
L 712.398641 34.38 
L 710.223611 34.38 
z
" clip-path="url(#pcf44172a60)" style="fill: #3636ff"/>
    <path d="M 712.398641 34.38 
L 712.398641 7.2 
L 714.57367 7.2 
L 714.57367 34.38 
L 712.398641 34.38 
z
" clip-path="url(#pcf44172a60)" style="fill: #4444ff"/>
    <path d="M 714.57367 34.38 
L 714.57367 7.2 
L 716.748699 7.2 
L 716.748699 34.38 
L 714.57367 34.38 
z
" clip-path="url(#pcf44172a60)" style="fill: #0000ff"/>
    <path d="M 716.748699 34.38 
L 716.748699 7.2 
L 718.923729 7.2 
L 718.923729 34.38 
L 716.748699 34.38 
z
" clip-path="url(#pcf44172a60)" style="fill: #0202ff"/>
    <path d="M 718.923729 34.38 
L 718.923729 7.2 
L 721.098758 7.2 
L 721.098758 34.38 
L 718.923729 34.38 
z
" clip-path="url(#pcf44172a60)" style="fill: #0c0cff"/>
    <path d="M 721.098758 34.38 
L 721.098758 7.2 
L 723.273788 7.2 
L 723.273788 34.38 
L 721.098758 34.38 
z
" clip-path="url(#pcf44172a60)" style="fill: #ff0000"/>
    <path d="M 723.273788 34.38 
L 723.273788 7.2 
L 725.448817 7.2 
L 725.448817 34.38 
L 723.273788 34.38 
z
" clip-path="url(#pcf44172a60)" style="fill: #ff0000"/>
    <path d="M 725.448817 34.38 
L 725.448817 7.2 
L 727.623847 7.2 
L 727.623847 34.38 
L 725.448817 34.38 
z
" clip-path="url(#pcf44172a60)" style="fill: #ff0000"/>
    <path d="M 727.623847 34.38 
L 727.623847 7.2 
L 729.798876 7.2 
L 729.798876 34.38 
L 727.623847 34.38 
z
" clip-path="url(#pcf44172a60)" style="fill: #0000ff"/>
    <path d="M 729.798876 34.38 
L 729.798876 7.2 
L 731.973906 7.2 
L 731.973906 34.38 
L 729.798876 34.38 
z
" clip-path="url(#pcf44172a60)" style="fill: #0000ff"/>
    <path d="M 731.973906 34.38 
L 731.973906 7.2 
L 734.148935 7.2 
L 734.148935 34.38 
L 731.973906 34.38 
z
" clip-path="url(#pcf44172a60)" style="fill: #0000ff"/>
    <path d="M 734.148935 34.38 
L 734.148935 7.2 
L 736.323965 7.2 
L 736.323965 34.38 
L 734.148935 34.38 
z
" clip-path="url(#pcf44172a60)" style="fill: #ff0000"/>
    <path d="M 736.323965 34.38 
L 736.323965 7.2 
L 738.498994 7.2 
L 738.498994 34.38 
L 736.323965 34.38 
z
" clip-path="url(#pcf44172a60)" style="fill: #ff0000"/>
    <path d="M 738.498994 34.38 
L 738.498994 7.2 
L 740.674024 7.2 
L 740.674024 34.38 
L 738.498994 34.38 
z
" clip-path="url(#pcf44172a60)" style="fill: #ff0000"/>
    <path d="M 740.674024 34.38 
L 740.674024 7.2 
L 742.849053 7.2 
L 742.849053 34.38 
L 740.674024 34.38 
z
" clip-path="url(#pcf44172a60)" style="fill: #0404ff"/>
    <path d="M 742.849053 34.38 
L 742.849053 7.2 
L 745.024083 7.2 
L 745.024083 34.38 
L 742.849053 34.38 
z
" clip-path="url(#pcf44172a60)" style="fill: #0000ff"/>
    <path d="M 745.024083 34.38 
L 745.024083 7.2 
L 747.199112 7.2 
L 747.199112 34.38 
L 745.024083 34.38 
z
" clip-path="url(#pcf44172a60)" style="fill: #0000ff"/>
   </g>
   <g id="patch_3">
    <path d="M 120.790625 34.38 
L 120.790625 7.2 
" style="fill: none; stroke: #262626; stroke-width: 1.25; stroke-linejoin: miter; stroke-linecap: square"/>
   </g>
   <g id="patch_4">
    <path d="M 747.199112 34.38 
L 747.199112 7.2 
" style="fill: none; stroke: #262626; stroke-width: 1.25; stroke-linejoin: miter; stroke-linecap: square"/>
   </g>
   <g id="patch_5">
    <path d="M 120.790625 34.38 
L 747.199112 34.38 
" style="fill: none; stroke: #262626; stroke-width: 1.25; stroke-linejoin: miter; stroke-linecap: square"/>
   </g>
   <g id="patch_6">
    <path d="M 120.790625 7.2 
L 747.199112 7.2 
" style="fill: none; stroke: #262626; stroke-width: 1.25; stroke-linejoin: miter; stroke-linecap: square"/>
   </g>
   <g id="text_6">
    <text style="fill: #262626; font: 18px 'sans-serif'; text-anchor: middle" x="249.117364" y="64.278" transform="rotate(-0, 249.117364, 64.278)">Cells</text>
   </g>
   <g id="text_7">
    <text style="fill: #262626; font: 18px 'sans-serif'; text-anchor: middle" x="516.645988" y="64.278" transform="rotate(-0, 516.645988, 64.278)">Cytoplasm</text>
   </g>
   <g id="text_8">
    <text style="fill: #262626; font: 18px 'sans-serif'; text-anchor: middle" x="699.348464" y="64.278" transform="rotate(-0, 699.348464, 64.278)">Nuclei</text>
   </g>
  </g>
 </g>
 <defs>
  <clipPath id="pcf44172a60">
   <rect x="120.790625" y="7.2" width="626.408487" height="27.18"/>
  </clipPath>
 </defs>
</svg>
