<?xml version="1.0" encoding="utf-8" standalone="no"?>
<!DOCTYPE svg PUBLIC "-//W3C//DTD SVG 1.1//EN"
  "http://www.w3.org/Graphics/SVG/1.1/DTD/svg11.dtd">
<svg xmlns:xlink="http://www.w3.org/1999/xlink" width="837.129534pt" height="75.266437pt" viewBox="0 0 837.129534 75.266437" xmlns="http://www.w3.org/2000/svg" version="1.1">
 <metadata>
  <rdf:RDF xmlns:dc="http://purl.org/dc/elements/1.1/" xmlns:cc="http://creativecommons.org/ns#" xmlns:rdf="http://www.w3.org/1999/02/22-rdf-syntax-ns#">
   <cc:Work>
    <dc:type rdf:resource="http://purl.org/dc/dcmitype/StillImage"/>
    <dc:date>2022-05-11T11:53:56.077954</dc:date>
    <dc:format>image/svg+xml</dc:format>
    <dc:creator>
     <cc:Agent>
      <dc:title>Matplotlib v3.5.1, https://matplotlib.org/</dc:title>
     </cc:Agent>
    </dc:creator>
   </cc:Work>
  </rdf:RDF>
 </metadata>
 <defs>
  <style type="text/css">*{stroke-linejoin: round; stroke-linecap: butt}</style>
 </defs>
 <g id="figure_1">
  <g id="patch_1">
   <path d="M 0 75.266437 
L 837.129534 75.266437 
L 837.129534 0 
L 0 0 
z
" style="fill: #ffffff"/>
  </g>
  <g id="axes_1">
   <g id="patch_2">
    <path d="M 76.325 34.38 
L 817.417425 34.38 
L 817.417425 7.2 
L 76.325 7.2 
z
" style="fill: #ffffff"/>
   </g>
   <g id="matplotlib.axis_1">
    <g id="xtick_1">
     <g id="line2d_1"/>
     <g id="text_1">
      <!-- 1 -->
      <g style="fill: #262626" transform="translate(74.224387 54.216719)scale(0.15 -0.15)">
       <defs>
        <path id="ArialMT-31" d="M 2384 0 
L 1822 0 
L 1822 3584 
Q 1619 3391 1289 3197 
Q 959 3003 697 2906 
L 697 3450 
Q 1169 3672 1522 3987 
Q 1875 4303 2022 4600 
L 2384 4600 
L 2384 0 
z
" transform="scale(0.015625)"/>
       </defs>
       <use xlink:href="#ArialMT-31"/>
      </g>
     </g>
    </g>
    <g id="xtick_2">
     <g id="line2d_2"/>
     <g id="text_2">
      <!-- 134 -->
      <g style="fill: #262626" transform="translate(341.205027 54.216719)scale(0.15 -0.15)">
       <defs>
        <path id="ArialMT-33" d="M 269 1209 
L 831 1284 
Q 928 806 1161 595 
Q 1394 384 1728 384 
Q 2125 384 2398 659 
Q 2672 934 2672 1341 
Q 2672 1728 2419 1979 
Q 2166 2231 1775 2231 
Q 1616 2231 1378 2169 
L 1441 2663 
Q 1497 2656 1531 2656 
Q 1891 2656 2178 2843 
Q 2466 3031 2466 3422 
Q 2466 3731 2256 3934 
Q 2047 4138 1716 4138 
Q 1388 4138 1169 3931 
Q 950 3725 888 3313 
L 325 3413 
Q 428 3978 793 4289 
Q 1159 4600 1703 4600 
Q 2078 4600 2393 4439 
Q 2709 4278 2876 4000 
Q 3044 3722 3044 3409 
Q 3044 3113 2884 2869 
Q 2725 2625 2413 2481 
Q 2819 2388 3044 2092 
Q 3269 1797 3269 1353 
Q 3269 753 2831 336 
Q 2394 -81 1725 -81 
Q 1122 -81 723 278 
Q 325 638 269 1209 
z
" transform="scale(0.015625)"/>
        <path id="ArialMT-34" d="M 2069 0 
L 2069 1097 
L 81 1097 
L 81 1613 
L 2172 4581 
L 2631 4581 
L 2631 1613 
L 3250 1613 
L 3250 1097 
L 2631 1097 
L 2631 0 
L 2069 0 
z
M 2069 1613 
L 2069 3678 
L 634 1613 
L 2069 1613 
z
" transform="scale(0.015625)"/>
       </defs>
       <use xlink:href="#ArialMT-31"/>
       <use xlink:href="#ArialMT-33" x="55.615234"/>
       <use xlink:href="#ArialMT-34" x="111.230469"/>
      </g>
     </g>
    </g>
    <g id="xtick_3">
     <g id="line2d_3"/>
     <g id="text_3">
      <!-- 258 -->
      <g style="fill: #262626" transform="translate(597.896258 54.216719)scale(0.15 -0.15)">
       <defs>
        <path id="ArialMT-32" d="M 3222 541 
L 3222 0 
L 194 0 
Q 188 203 259 391 
Q 375 700 629 1000 
Q 884 1300 1366 1694 
Q 2113 2306 2375 2664 
Q 2638 3022 2638 3341 
Q 2638 3675 2398 3904 
Q 2159 4134 1775 4134 
Q 1369 4134 1125 3890 
Q 881 3647 878 3216 
L 300 3275 
Q 359 3922 746 4261 
Q 1134 4600 1788 4600 
Q 2447 4600 2831 4234 
Q 3216 3869 3216 3328 
Q 3216 3053 3103 2787 
Q 2991 2522 2730 2228 
Q 2469 1934 1863 1422 
Q 1356 997 1212 845 
Q 1069 694 975 541 
L 3222 541 
z
" transform="scale(0.015625)"/>
        <path id="ArialMT-35" d="M 266 1200 
L 856 1250 
Q 922 819 1161 601 
Q 1400 384 1738 384 
Q 2144 384 2425 690 
Q 2706 997 2706 1503 
Q 2706 1984 2436 2262 
Q 2166 2541 1728 2541 
Q 1456 2541 1237 2417 
Q 1019 2294 894 2097 
L 366 2166 
L 809 4519 
L 3088 4519 
L 3088 3981 
L 1259 3981 
L 1013 2750 
Q 1425 3038 1878 3038 
Q 2478 3038 2890 2622 
Q 3303 2206 3303 1553 
Q 3303 931 2941 478 
Q 2500 -78 1738 -78 
Q 1113 -78 717 272 
Q 322 622 266 1200 
z
" transform="scale(0.015625)"/>
        <path id="ArialMT-38" d="M 1131 2484 
Q 781 2613 612 2850 
Q 444 3088 444 3419 
Q 444 3919 803 4259 
Q 1163 4600 1759 4600 
Q 2359 4600 2725 4251 
Q 3091 3903 3091 3403 
Q 3091 3084 2923 2848 
Q 2756 2613 2416 2484 
Q 2838 2347 3058 2040 
Q 3278 1734 3278 1309 
Q 3278 722 2862 322 
Q 2447 -78 1769 -78 
Q 1091 -78 675 323 
Q 259 725 259 1325 
Q 259 1772 486 2073 
Q 713 2375 1131 2484 
z
M 1019 3438 
Q 1019 3113 1228 2906 
Q 1438 2700 1772 2700 
Q 2097 2700 2305 2904 
Q 2513 3109 2513 3406 
Q 2513 3716 2298 3927 
Q 2084 4138 1766 4138 
Q 1444 4138 1231 3931 
Q 1019 3725 1019 3438 
z
M 838 1322 
Q 838 1081 952 856 
Q 1066 631 1291 507 
Q 1516 384 1775 384 
Q 2178 384 2440 643 
Q 2703 903 2703 1303 
Q 2703 1709 2433 1975 
Q 2163 2241 1756 2241 
Q 1359 2241 1098 1978 
Q 838 1716 838 1322 
z
" transform="scale(0.015625)"/>
       </defs>
       <use xlink:href="#ArialMT-32"/>
       <use xlink:href="#ArialMT-35" x="55.615234"/>
       <use xlink:href="#ArialMT-38" x="111.230469"/>
      </g>
     </g>
    </g>
    <g id="xtick_4">
     <g id="line2d_4"/>
     <g id="text_4">
      <!-- 358 -->
      <g style="fill: #262626" transform="translate(804.905315 54.216719)scale(0.15 -0.15)">
       <use xlink:href="#ArialMT-33"/>
       <use xlink:href="#ArialMT-35" x="55.615234"/>
       <use xlink:href="#ArialMT-38" x="111.230469"/>
      </g>
     </g>
    </g>
   </g>
   <g id="matplotlib.axis_2">
    <g id="ytick_1">
     <g id="line2d_5"/>
     <g id="text_5">
      <!-- Aurora -->
      <g style="fill: #262626" transform="translate(7.2 27.947812)scale(0.2 -0.2)">
       <defs>
        <path id="ArialMT-41" d="M -9 0 
L 1750 4581 
L 2403 4581 
L 4278 0 
L 3588 0 
L 3053 1388 
L 1138 1388 
L 634 0 
L -9 0 
z
M 1313 1881 
L 2866 1881 
L 2388 3150 
Q 2169 3728 2063 4100 
Q 1975 3659 1816 3225 
L 1313 1881 
z
" transform="scale(0.015625)"/>
        <path id="ArialMT-75" d="M 2597 0 
L 2597 488 
Q 2209 -75 1544 -75 
Q 1250 -75 995 37 
Q 741 150 617 320 
Q 494 491 444 738 
Q 409 903 409 1263 
L 409 3319 
L 972 3319 
L 972 1478 
Q 972 1038 1006 884 
Q 1059 663 1231 536 
Q 1403 409 1656 409 
Q 1909 409 2131 539 
Q 2353 669 2445 892 
Q 2538 1116 2538 1541 
L 2538 3319 
L 3100 3319 
L 3100 0 
L 2597 0 
z
" transform="scale(0.015625)"/>
        <path id="ArialMT-72" d="M 416 0 
L 416 3319 
L 922 3319 
L 922 2816 
Q 1116 3169 1280 3281 
Q 1444 3394 1641 3394 
Q 1925 3394 2219 3213 
L 2025 2691 
Q 1819 2813 1613 2813 
Q 1428 2813 1281 2702 
Q 1134 2591 1072 2394 
Q 978 2094 978 1738 
L 978 0 
L 416 0 
z
" transform="scale(0.015625)"/>
        <path id="ArialMT-6f" d="M 213 1659 
Q 213 2581 725 3025 
Q 1153 3394 1769 3394 
Q 2453 3394 2887 2945 
Q 3322 2497 3322 1706 
Q 3322 1066 3130 698 
Q 2938 331 2570 128 
Q 2203 -75 1769 -75 
Q 1072 -75 642 372 
Q 213 819 213 1659 
z
M 791 1659 
Q 791 1022 1069 705 
Q 1347 388 1769 388 
Q 2188 388 2466 706 
Q 2744 1025 2744 1678 
Q 2744 2294 2464 2611 
Q 2184 2928 1769 2928 
Q 1347 2928 1069 2612 
Q 791 2297 791 1659 
z
" transform="scale(0.015625)"/>
        <path id="ArialMT-61" d="M 2588 409 
Q 2275 144 1986 34 
Q 1697 -75 1366 -75 
Q 819 -75 525 192 
Q 231 459 231 875 
Q 231 1119 342 1320 
Q 453 1522 633 1644 
Q 813 1766 1038 1828 
Q 1203 1872 1538 1913 
Q 2219 1994 2541 2106 
Q 2544 2222 2544 2253 
Q 2544 2597 2384 2738 
Q 2169 2928 1744 2928 
Q 1347 2928 1158 2789 
Q 969 2650 878 2297 
L 328 2372 
Q 403 2725 575 2942 
Q 747 3159 1072 3276 
Q 1397 3394 1825 3394 
Q 2250 3394 2515 3294 
Q 2781 3194 2906 3042 
Q 3031 2891 3081 2659 
Q 3109 2516 3109 2141 
L 3109 1391 
Q 3109 606 3145 398 
Q 3181 191 3288 0 
L 2700 0 
Q 2613 175 2588 409 
z
M 2541 1666 
Q 2234 1541 1622 1453 
Q 1275 1403 1131 1340 
Q 988 1278 909 1158 
Q 831 1038 831 891 
Q 831 666 1001 516 
Q 1172 366 1500 366 
Q 1825 366 2078 508 
Q 2331 650 2450 897 
Q 2541 1088 2541 1459 
L 2541 1666 
z
" transform="scale(0.015625)"/>
       </defs>
       <use xlink:href="#ArialMT-41"/>
       <use xlink:href="#ArialMT-75" x="66.699219"/>
       <use xlink:href="#ArialMT-72" x="122.314453"/>
       <use xlink:href="#ArialMT-6f" x="155.615234"/>
       <use xlink:href="#ArialMT-72" x="211.230469"/>
       <use xlink:href="#ArialMT-61" x="244.53125"/>
      </g>
     </g>
    </g>
   </g>
   <g id="PolyCollection_1">
    <path d="M 76.325 34.38 
L 76.325 7.2 
L 78.395091 7.2 
L 78.395091 34.38 
L 76.325 34.38 
z
" clip-path="url(#pb1a327c3e3)" style="fill: #ff0000"/>
    <path d="M 78.395091 34.38 
L 78.395091 7.2 
L 80.465181 7.2 
L 80.465181 34.38 
L 78.395091 34.38 
z
" clip-path="url(#pb1a327c3e3)" style="fill: #ff0000"/>
    <path d="M 80.465181 34.38 
L 80.465181 7.2 
L 82.535272 7.2 
L 82.535272 34.38 
L 80.465181 34.38 
z
" clip-path="url(#pb1a327c3e3)" style="fill: #ff0000"/>
    <path d="M 82.535272 34.38 
L 82.535272 7.2 
L 84.605362 7.2 
L 84.605362 34.38 
L 82.535272 34.38 
z
" clip-path="url(#pb1a327c3e3)" style="fill: #ff0000"/>
    <path d="M 84.605362 34.38 
L 84.605362 7.2 
L 86.675453 7.2 
L 86.675453 34.38 
L 84.605362 34.38 
z
" clip-path="url(#pb1a327c3e3)" style="fill: #ff0000"/>
    <path d="M 86.675453 34.38 
L 86.675453 7.2 
L 88.745543 7.2 
L 88.745543 34.38 
L 86.675453 34.38 
z
" clip-path="url(#pb1a327c3e3)" style="fill: #ff0000"/>
    <path d="M 88.745543 34.38 
L 88.745543 7.2 
L 90.815634 7.2 
L 90.815634 34.38 
L 88.745543 34.38 
z
" clip-path="url(#pb1a327c3e3)" style="fill: #ffd8d8"/>
    <path d="M 90.815634 34.38 
L 90.815634 7.2 
L 92.885725 7.2 
L 92.885725 34.38 
L 90.815634 34.38 
z
" clip-path="url(#pb1a327c3e3)" style="fill: #ffd8d8"/>
    <path d="M 92.885725 34.38 
L 92.885725 7.2 
L 94.955815 7.2 
L 94.955815 34.38 
L 92.885725 34.38 
z
" clip-path="url(#pb1a327c3e3)" style="fill: #ffe2e2"/>
    <path d="M 94.955815 34.38 
L 94.955815 7.2 
L 97.025906 7.2 
L 97.025906 34.38 
L 94.955815 34.38 
z
" clip-path="url(#pb1a327c3e3)" style="fill: #ffdcdc"/>
    <path d="M 97.025906 34.38 
L 97.025906 7.2 
L 99.095996 7.2 
L 99.095996 34.38 
L 97.025906 34.38 
z
" clip-path="url(#pb1a327c3e3)" style="fill: #ffe2e2"/>
    <path d="M 99.095996 34.38 
L 99.095996 7.2 
L 101.166087 7.2 
L 101.166087 34.38 
L 99.095996 34.38 
z
" clip-path="url(#pb1a327c3e3)" style="fill: #ffeaea"/>
    <path d="M 101.166087 34.38 
L 101.166087 7.2 
L 103.236177 7.2 
L 103.236177 34.38 
L 101.166087 34.38 
z
" clip-path="url(#pb1a327c3e3)" style="fill: #ffd0d0"/>
    <path d="M 103.236177 34.38 
L 103.236177 7.2 
L 105.306268 7.2 
L 105.306268 34.38 
L 103.236177 34.38 
z
" clip-path="url(#pb1a327c3e3)" style="fill: #ffdede"/>
    <path d="M 105.306268 34.38 
L 105.306268 7.2 
L 107.376359 7.2 
L 107.376359 34.38 
L 105.306268 34.38 
z
" clip-path="url(#pb1a327c3e3)" style="fill: #ffd8d8"/>
    <path d="M 107.376359 34.38 
L 107.376359 7.2 
L 109.446449 7.2 
L 109.446449 34.38 
L 107.376359 34.38 
z
" clip-path="url(#pb1a327c3e3)" style="fill: #ceceff"/>
    <path d="M 109.446449 34.38 
L 109.446449 7.2 
L 111.51654 7.2 
L 111.51654 34.38 
L 109.446449 34.38 
z
" clip-path="url(#pb1a327c3e3)" style="fill: #c6c6ff"/>
    <path d="M 111.51654 34.38 
L 111.51654 7.2 
L 113.58663 7.2 
L 113.58663 34.38 
L 111.51654 34.38 
z
" clip-path="url(#pb1a327c3e3)" style="fill: #d6d6ff"/>
    <path d="M 113.58663 34.38 
L 113.58663 7.2 
L 115.656721 7.2 
L 115.656721 34.38 
L 113.58663 34.38 
z
" clip-path="url(#pb1a327c3e3)" style="fill: #babaff"/>
    <path d="M 115.656721 34.38 
L 115.656721 7.2 
L 117.726811 7.2 
L 117.726811 34.38 
L 115.656721 34.38 
z
" clip-path="url(#pb1a327c3e3)" style="fill: #d6d6ff"/>
    <path d="M 117.726811 34.38 
L 117.726811 7.2 
L 119.796902 7.2 
L 119.796902 34.38 
L 117.726811 34.38 
z
" clip-path="url(#pb1a327c3e3)" style="fill: #ffe0e0"/>
    <path d="M 119.796902 34.38 
L 119.796902 7.2 
L 121.866993 7.2 
L 121.866993 34.38 
L 119.796902 34.38 
z
" clip-path="url(#pb1a327c3e3)" style="fill: #ffdcdc"/>
    <path d="M 121.866993 34.38 
L 121.866993 7.2 
L 123.937083 7.2 
L 123.937083 34.38 
L 121.866993 34.38 
z
" clip-path="url(#pb1a327c3e3)" style="fill: #ffd6d6"/>
    <path d="M 123.937083 34.38 
L 123.937083 7.2 
L 126.007174 7.2 
L 126.007174 34.38 
L 123.937083 34.38 
z
" clip-path="url(#pb1a327c3e3)" style="fill: #ffe2e2"/>
    <path d="M 126.007174 34.38 
L 126.007174 7.2 
L 128.077264 7.2 
L 128.077264 34.38 
L 126.007174 34.38 
z
" clip-path="url(#pb1a327c3e3)" style="fill: #eaeaff"/>
    <path d="M 128.077264 34.38 
L 128.077264 7.2 
L 130.147355 7.2 
L 130.147355 34.38 
L 128.077264 34.38 
z
" clip-path="url(#pb1a327c3e3)" style="fill: #e6e6ff"/>
    <path d="M 130.147355 34.38 
L 130.147355 7.2 
L 132.217445 7.2 
L 132.217445 34.38 
L 130.147355 34.38 
z
" clip-path="url(#pb1a327c3e3)" style="fill: #d6d6ff"/>
    <path d="M 132.217445 34.38 
L 132.217445 7.2 
L 134.287536 7.2 
L 134.287536 34.38 
L 132.217445 34.38 
z
" clip-path="url(#pb1a327c3e3)" style="fill: #babaff"/>
    <path d="M 134.287536 34.38 
L 134.287536 7.2 
L 136.357627 7.2 
L 136.357627 34.38 
L 134.287536 34.38 
z
" clip-path="url(#pb1a327c3e3)" style="fill: #ccccff"/>
    <path d="M 136.357627 34.38 
L 136.357627 7.2 
L 138.427717 7.2 
L 138.427717 34.38 
L 136.357627 34.38 
z
" clip-path="url(#pb1a327c3e3)" style="fill: #9e9eff"/>
    <path d="M 138.427717 34.38 
L 138.427717 7.2 
L 140.497808 7.2 
L 140.497808 34.38 
L 138.427717 34.38 
z
" clip-path="url(#pb1a327c3e3)" style="fill: #babaff"/>
    <path d="M 140.497808 34.38 
L 140.497808 7.2 
L 142.567898 7.2 
L 142.567898 34.38 
L 140.497808 34.38 
z
" clip-path="url(#pb1a327c3e3)" style="fill: #7a7aff"/>
    <path d="M 142.567898 34.38 
L 142.567898 7.2 
L 144.637989 7.2 
L 144.637989 34.38 
L 142.567898 34.38 
z
" clip-path="url(#pb1a327c3e3)" style="fill: #a0a0ff"/>
    <path d="M 144.637989 34.38 
L 144.637989 7.2 
L 146.708079 7.2 
L 146.708079 34.38 
L 144.637989 34.38 
z
" clip-path="url(#pb1a327c3e3)" style="fill: #9e9eff"/>
    <path d="M 146.708079 34.38 
L 146.708079 7.2 
L 148.77817 7.2 
L 148.77817 34.38 
L 146.708079 34.38 
z
" clip-path="url(#pb1a327c3e3)" style="fill: #c8c8ff"/>
    <path d="M 148.77817 34.38 
L 148.77817 7.2 
L 150.848261 7.2 
L 150.848261 34.38 
L 148.77817 34.38 
z
" clip-path="url(#pb1a327c3e3)" style="fill: #aaaaff"/>
    <path d="M 150.848261 34.38 
L 150.848261 7.2 
L 152.918351 7.2 
L 152.918351 34.38 
L 150.848261 34.38 
z
" clip-path="url(#pb1a327c3e3)" style="fill: #9e9eff"/>
    <path d="M 152.918351 34.38 
L 152.918351 7.2 
L 154.988442 7.2 
L 154.988442 34.38 
L 152.918351 34.38 
z
" clip-path="url(#pb1a327c3e3)" style="fill: #dadaff"/>
    <path d="M 154.988442 34.38 
L 154.988442 7.2 
L 157.058532 7.2 
L 157.058532 34.38 
L 154.988442 34.38 
z
" clip-path="url(#pb1a327c3e3)" style="fill: #ff6c6c"/>
    <path d="M 157.058532 34.38 
L 157.058532 7.2 
L 159.128623 7.2 
L 159.128623 34.38 
L 157.058532 34.38 
z
" clip-path="url(#pb1a327c3e3)" style="fill: #ff5252"/>
    <path d="M 159.128623 34.38 
L 159.128623 7.2 
L 161.198713 7.2 
L 161.198713 34.38 
L 159.128623 34.38 
z
" clip-path="url(#pb1a327c3e3)" style="fill: #fff4f4"/>
    <path d="M 161.198713 34.38 
L 161.198713 7.2 
L 163.268804 7.2 
L 163.268804 34.38 
L 161.198713 34.38 
z
" clip-path="url(#pb1a327c3e3)" style="fill: #ffdcdc"/>
    <path d="M 163.268804 34.38 
L 163.268804 7.2 
L 165.338895 7.2 
L 165.338895 34.38 
L 163.268804 34.38 
z
" clip-path="url(#pb1a327c3e3)" style="fill: #ffa2a2"/>
    <path d="M 165.338895 34.38 
L 165.338895 7.2 
L 167.408985 7.2 
L 167.408985 34.38 
L 165.338895 34.38 
z
" clip-path="url(#pb1a327c3e3)" style="fill: #ffd6d6"/>
    <path d="M 167.408985 34.38 
L 167.408985 7.2 
L 169.479076 7.2 
L 169.479076 34.38 
L 167.408985 34.38 
z
" clip-path="url(#pb1a327c3e3)" style="fill: #ffbcbc"/>
    <path d="M 169.479076 34.38 
L 169.479076 7.2 
L 171.549166 7.2 
L 171.549166 34.38 
L 169.479076 34.38 
z
" clip-path="url(#pb1a327c3e3)" style="fill: #eeeeff"/>
    <path d="M 171.549166 34.38 
L 171.549166 7.2 
L 173.619257 7.2 
L 173.619257 34.38 
L 171.549166 34.38 
z
" clip-path="url(#pb1a327c3e3)" style="fill: #ececff"/>
    <path d="M 173.619257 34.38 
L 173.619257 7.2 
L 175.689347 7.2 
L 175.689347 34.38 
L 173.619257 34.38 
z
" clip-path="url(#pb1a327c3e3)" style="fill: #ececff"/>
    <path d="M 175.689347 34.38 
L 175.689347 7.2 
L 177.759438 7.2 
L 177.759438 34.38 
L 175.689347 34.38 
z
" clip-path="url(#pb1a327c3e3)" style="fill: #ffeaea"/>
    <path d="M 177.759438 34.38 
L 177.759438 7.2 
L 179.829529 7.2 
L 179.829529 34.38 
L 177.759438 34.38 
z
" clip-path="url(#pb1a327c3e3)" style="fill: #ffdcdc"/>
    <path d="M 179.829529 34.38 
L 179.829529 7.2 
L 181.899619 7.2 
L 181.899619 34.38 
L 179.829529 34.38 
z
" clip-path="url(#pb1a327c3e3)" style="fill: #ffeeee"/>
    <path d="M 181.899619 34.38 
L 181.899619 7.2 
L 183.96971 7.2 
L 183.96971 34.38 
L 181.899619 34.38 
z
" clip-path="url(#pb1a327c3e3)" style="fill: #ffd4d4"/>
    <path d="M 183.96971 34.38 
L 183.96971 7.2 
L 186.0398 7.2 
L 186.0398 34.38 
L 183.96971 34.38 
z
" clip-path="url(#pb1a327c3e3)" style="fill: #ffdede"/>
    <path d="M 186.0398 34.38 
L 186.0398 7.2 
L 188.109891 7.2 
L 188.109891 34.38 
L 186.0398 34.38 
z
" clip-path="url(#pb1a327c3e3)" style="fill: #ffdede"/>
    <path d="M 188.109891 34.38 
L 188.109891 7.2 
L 190.179981 7.2 
L 190.179981 34.38 
L 188.109891 34.38 
z
" clip-path="url(#pb1a327c3e3)" style="fill: #ffd8d8"/>
    <path d="M 190.179981 34.38 
L 190.179981 7.2 
L 192.250072 7.2 
L 192.250072 34.38 
L 190.179981 34.38 
z
" clip-path="url(#pb1a327c3e3)" style="fill: #c4c4ff"/>
    <path d="M 192.250072 34.38 
L 192.250072 7.2 
L 194.320163 7.2 
L 194.320163 34.38 
L 192.250072 34.38 
z
" clip-path="url(#pb1a327c3e3)" style="fill: #c6c6ff"/>
    <path d="M 194.320163 34.38 
L 194.320163 7.2 
L 196.390253 7.2 
L 196.390253 34.38 
L 194.320163 34.38 
z
" clip-path="url(#pb1a327c3e3)" style="fill: #dedeff"/>
    <path d="M 196.390253 34.38 
L 196.390253 7.2 
L 198.460344 7.2 
L 198.460344 34.38 
L 196.390253 34.38 
z
" clip-path="url(#pb1a327c3e3)" style="fill: #dcdcff"/>
    <path d="M 198.460344 34.38 
L 198.460344 7.2 
L 200.530434 7.2 
L 200.530434 34.38 
L 198.460344 34.38 
z
" clip-path="url(#pb1a327c3e3)" style="fill: #ffd8d8"/>
    <path d="M 200.530434 34.38 
L 200.530434 7.2 
L 202.600525 7.2 
L 202.600525 34.38 
L 200.530434 34.38 
z
" clip-path="url(#pb1a327c3e3)" style="fill: #ffbaba"/>
    <path d="M 202.600525 34.38 
L 202.600525 7.2 
L 204.670615 7.2 
L 204.670615 34.38 
L 202.600525 34.38 
z
" clip-path="url(#pb1a327c3e3)" style="fill: #ffbcbc"/>
    <path d="M 204.670615 34.38 
L 204.670615 7.2 
L 206.740706 7.2 
L 206.740706 34.38 
L 204.670615 34.38 
z
" clip-path="url(#pb1a327c3e3)" style="fill: #ffd0d0"/>
    <path d="M 206.740706 34.38 
L 206.740706 7.2 
L 208.810797 7.2 
L 208.810797 34.38 
L 206.740706 34.38 
z
" clip-path="url(#pb1a327c3e3)" style="fill: #fff8f8"/>
    <path d="M 208.810797 34.38 
L 208.810797 7.2 
L 210.880887 7.2 
L 210.880887 34.38 
L 208.810797 34.38 
z
" clip-path="url(#pb1a327c3e3)" style="fill: #ffecec"/>
    <path d="M 210.880887 34.38 
L 210.880887 7.2 
L 212.950978 7.2 
L 212.950978 34.38 
L 210.880887 34.38 
z
" clip-path="url(#pb1a327c3e3)" style="fill: #ffeaea"/>
    <path d="M 212.950978 34.38 
L 212.950978 7.2 
L 215.021068 7.2 
L 215.021068 34.38 
L 212.950978 34.38 
z
" clip-path="url(#pb1a327c3e3)" style="fill: #d0d0ff"/>
    <path d="M 215.021068 34.38 
L 215.021068 7.2 
L 217.091159 7.2 
L 217.091159 34.38 
L 215.021068 34.38 
z
" clip-path="url(#pb1a327c3e3)" style="fill: #dadaff"/>
    <path d="M 217.091159 34.38 
L 217.091159 7.2 
L 219.161249 7.2 
L 219.161249 34.38 
L 217.091159 34.38 
z
" clip-path="url(#pb1a327c3e3)" style="fill: #d4d4ff"/>
    <path d="M 219.161249 34.38 
L 219.161249 7.2 
L 221.23134 7.2 
L 221.23134 34.38 
L 219.161249 34.38 
z
" clip-path="url(#pb1a327c3e3)" style="fill: #ff4040"/>
    <path d="M 221.23134 34.38 
L 221.23134 7.2 
L 223.301431 7.2 
L 223.301431 34.38 
L 221.23134 34.38 
z
" clip-path="url(#pb1a327c3e3)" style="fill: #ff8e8e"/>
    <path d="M 223.301431 34.38 
L 223.301431 7.2 
L 225.371521 7.2 
L 225.371521 34.38 
L 223.301431 34.38 
z
" clip-path="url(#pb1a327c3e3)" style="fill: #ff7a7a"/>
    <path d="M 225.371521 34.38 
L 225.371521 7.2 
L 227.441612 7.2 
L 227.441612 34.38 
L 225.371521 34.38 
z
" clip-path="url(#pb1a327c3e3)" style="fill: #ff6c6c"/>
    <path d="M 227.441612 34.38 
L 227.441612 7.2 
L 229.511702 7.2 
L 229.511702 34.38 
L 227.441612 34.38 
z
" clip-path="url(#pb1a327c3e3)" style="fill: #ffcaca"/>
    <path d="M 229.511702 34.38 
L 229.511702 7.2 
L 231.581793 7.2 
L 231.581793 34.38 
L 229.511702 34.38 
z
" clip-path="url(#pb1a327c3e3)" style="fill: #ffaeae"/>
    <path d="M 231.581793 34.38 
L 231.581793 7.2 
L 233.651883 7.2 
L 233.651883 34.38 
L 231.581793 34.38 
z
" clip-path="url(#pb1a327c3e3)" style="fill: #ff9090"/>
    <path d="M 233.651883 34.38 
L 233.651883 7.2 
L 235.721974 7.2 
L 235.721974 34.38 
L 233.651883 34.38 
z
" clip-path="url(#pb1a327c3e3)" style="fill: #ffbcbc"/>
    <path d="M 235.721974 34.38 
L 235.721974 7.2 
L 237.792065 7.2 
L 237.792065 34.38 
L 235.721974 34.38 
z
" clip-path="url(#pb1a327c3e3)" style="fill: #ffb0b0"/>
    <path d="M 237.792065 34.38 
L 237.792065 7.2 
L 239.862155 7.2 
L 239.862155 34.38 
L 237.792065 34.38 
z
" clip-path="url(#pb1a327c3e3)" style="fill: #ff6666"/>
    <path d="M 239.862155 34.38 
L 239.862155 7.2 
L 241.932246 7.2 
L 241.932246 34.38 
L 239.862155 34.38 
z
" clip-path="url(#pb1a327c3e3)" style="fill: #ff8888"/>
    <path d="M 241.932246 34.38 
L 241.932246 7.2 
L 244.002336 7.2 
L 244.002336 34.38 
L 241.932246 34.38 
z
" clip-path="url(#pb1a327c3e3)" style="fill: #9e9eff"/>
    <path d="M 244.002336 34.38 
L 244.002336 7.2 
L 246.072427 7.2 
L 246.072427 34.38 
L 244.002336 34.38 
z
" clip-path="url(#pb1a327c3e3)" style="fill: #e4e4ff"/>
    <path d="M 246.072427 34.38 
L 246.072427 7.2 
L 248.142517 7.2 
L 248.142517 34.38 
L 246.072427 34.38 
z
" clip-path="url(#pb1a327c3e3)" style="fill: #e8e8ff"/>
    <path d="M 248.142517 34.38 
L 248.142517 7.2 
L 250.212608 7.2 
L 250.212608 34.38 
L 248.142517 34.38 
z
" clip-path="url(#pb1a327c3e3)" style="fill: #e4e4ff"/>
    <path d="M 250.212608 34.38 
L 250.212608 7.2 
L 252.282699 7.2 
L 252.282699 34.38 
L 250.212608 34.38 
z
" clip-path="url(#pb1a327c3e3)" style="fill: #e2e2ff"/>
    <path d="M 252.282699 34.38 
L 252.282699 7.2 
L 254.352789 7.2 
L 254.352789 34.38 
L 252.282699 34.38 
z
" clip-path="url(#pb1a327c3e3)" style="fill: #e0e0ff"/>
    <path d="M 254.352789 34.38 
L 254.352789 7.2 
L 256.42288 7.2 
L 256.42288 34.38 
L 254.352789 34.38 
z
" clip-path="url(#pb1a327c3e3)" style="fill: #eaeaff"/>
    <path d="M 256.42288 34.38 
L 256.42288 7.2 
L 258.49297 7.2 
L 258.49297 34.38 
L 256.42288 34.38 
z
" clip-path="url(#pb1a327c3e3)" style="fill: #fffefe"/>
    <path d="M 258.49297 34.38 
L 258.49297 7.2 
L 260.563061 7.2 
L 260.563061 34.38 
L 258.49297 34.38 
z
" clip-path="url(#pb1a327c3e3)" style="fill: #fffefe"/>
    <path d="M 260.563061 34.38 
L 260.563061 7.2 
L 262.633152 7.2 
L 262.633152 34.38 
L 260.563061 34.38 
z
" clip-path="url(#pb1a327c3e3)" style="fill: #ff9292"/>
    <path d="M 262.633152 34.38 
L 262.633152 7.2 
L 264.703242 7.2 
L 264.703242 34.38 
L 262.633152 34.38 
z
" clip-path="url(#pb1a327c3e3)" style="fill: #ffb0b0"/>
    <path d="M 264.703242 34.38 
L 264.703242 7.2 
L 266.773333 7.2 
L 266.773333 34.38 
L 264.703242 34.38 
z
" clip-path="url(#pb1a327c3e3)" style="fill: #ffa6a6"/>
    <path d="M 266.773333 34.38 
L 266.773333 7.2 
L 268.843423 7.2 
L 268.843423 34.38 
L 266.773333 34.38 
z
" clip-path="url(#pb1a327c3e3)" style="fill: #ffe2e2"/>
    <path d="M 268.843423 34.38 
L 268.843423 7.2 
L 270.913514 7.2 
L 270.913514 34.38 
L 268.843423 34.38 
z
" clip-path="url(#pb1a327c3e3)" style="fill: #ffeeee"/>
    <path d="M 270.913514 34.38 
L 270.913514 7.2 
L 272.983604 7.2 
L 272.983604 34.38 
L 270.913514 34.38 
z
" clip-path="url(#pb1a327c3e3)" style="fill: #ffe2e2"/>
    <path d="M 272.983604 34.38 
L 272.983604 7.2 
L 275.053695 7.2 
L 275.053695 34.38 
L 272.983604 34.38 
z
" clip-path="url(#pb1a327c3e3)" style="fill: #ffd8d8"/>
    <path d="M 275.053695 34.38 
L 275.053695 7.2 
L 277.123786 7.2 
L 277.123786 34.38 
L 275.053695 34.38 
z
" clip-path="url(#pb1a327c3e3)" style="fill: #ffe2e2"/>
    <path d="M 277.123786 34.38 
L 277.123786 7.2 
L 279.193876 7.2 
L 279.193876 34.38 
L 277.123786 34.38 
z
" clip-path="url(#pb1a327c3e3)" style="fill: #ffdcdc"/>
    <path d="M 279.193876 34.38 
L 279.193876 7.2 
L 281.263967 7.2 
L 281.263967 34.38 
L 279.193876 34.38 
z
" clip-path="url(#pb1a327c3e3)" style="fill: #ffd4d4"/>
    <path d="M 281.263967 34.38 
L 281.263967 7.2 
L 283.334057 7.2 
L 283.334057 34.38 
L 281.263967 34.38 
z
" clip-path="url(#pb1a327c3e3)" style="fill: #ffd8d8"/>
    <path d="M 283.334057 34.38 
L 283.334057 7.2 
L 285.404148 7.2 
L 285.404148 34.38 
L 283.334057 34.38 
z
" clip-path="url(#pb1a327c3e3)" style="fill: #ffd4d4"/>
    <path d="M 285.404148 34.38 
L 285.404148 7.2 
L 287.474238 7.2 
L 287.474238 34.38 
L 285.404148 34.38 
z
" clip-path="url(#pb1a327c3e3)" style="fill: #ffe8e8"/>
    <path d="M 287.474238 34.38 
L 287.474238 7.2 
L 289.544329 7.2 
L 289.544329 34.38 
L 287.474238 34.38 
z
" clip-path="url(#pb1a327c3e3)" style="fill: #ffe8e8"/>
    <path d="M 289.544329 34.38 
L 289.544329 7.2 
L 291.61442 7.2 
L 291.61442 34.38 
L 289.544329 34.38 
z
" clip-path="url(#pb1a327c3e3)" style="fill: #ffeaea"/>
    <path d="M 291.61442 34.38 
L 291.61442 7.2 
L 293.68451 7.2 
L 293.68451 34.38 
L 291.61442 34.38 
z
" clip-path="url(#pb1a327c3e3)" style="fill: #ffe6e6"/>
    <path d="M 293.68451 34.38 
L 293.68451 7.2 
L 295.754601 7.2 
L 295.754601 34.38 
L 293.68451 34.38 
z
" clip-path="url(#pb1a327c3e3)" style="fill: #ffeaea"/>
    <path d="M 295.754601 34.38 
L 295.754601 7.2 
L 297.824691 7.2 
L 297.824691 34.38 
L 295.754601 34.38 
z
" clip-path="url(#pb1a327c3e3)" style="fill: #ffeaea"/>
    <path d="M 297.824691 34.38 
L 297.824691 7.2 
L 299.894782 7.2 
L 299.894782 34.38 
L 297.824691 34.38 
z
" clip-path="url(#pb1a327c3e3)" style="fill: #ffe6e6"/>
    <path d="M 299.894782 34.38 
L 299.894782 7.2 
L 301.964872 7.2 
L 301.964872 34.38 
L 299.894782 34.38 
z
" clip-path="url(#pb1a327c3e3)" style="fill: #fff4f4"/>
    <path d="M 301.964872 34.38 
L 301.964872 7.2 
L 304.034963 7.2 
L 304.034963 34.38 
L 301.964872 34.38 
z
" clip-path="url(#pb1a327c3e3)" style="fill: #fff0f0"/>
    <path d="M 304.034963 34.38 
L 304.034963 7.2 
L 306.105054 7.2 
L 306.105054 34.38 
L 304.034963 34.38 
z
" clip-path="url(#pb1a327c3e3)" style="fill: #ffc4c4"/>
    <path d="M 306.105054 34.38 
L 306.105054 7.2 
L 308.175144 7.2 
L 308.175144 34.38 
L 306.105054 34.38 
z
" clip-path="url(#pb1a327c3e3)" style="fill: #ffd4d4"/>
    <path d="M 308.175144 34.38 
L 308.175144 7.2 
L 310.245235 7.2 
L 310.245235 34.38 
L 308.175144 34.38 
z
" clip-path="url(#pb1a327c3e3)" style="fill: #ffd0d0"/>
    <path d="M 310.245235 34.38 
L 310.245235 7.2 
L 312.315325 7.2 
L 312.315325 34.38 
L 310.245235 34.38 
z
" clip-path="url(#pb1a327c3e3)" style="fill: #ffd8d8"/>
    <path d="M 312.315325 34.38 
L 312.315325 7.2 
L 314.385416 7.2 
L 314.385416 34.38 
L 312.315325 34.38 
z
" clip-path="url(#pb1a327c3e3)" style="fill: #ffdcdc"/>
    <path d="M 314.385416 34.38 
L 314.385416 7.2 
L 316.455506 7.2 
L 316.455506 34.38 
L 314.385416 34.38 
z
" clip-path="url(#pb1a327c3e3)" style="fill: #ffdede"/>
    <path d="M 316.455506 34.38 
L 316.455506 7.2 
L 318.525597 7.2 
L 318.525597 34.38 
L 316.455506 34.38 
z
" clip-path="url(#pb1a327c3e3)" style="fill: #ffd2d2"/>
    <path d="M 318.525597 34.38 
L 318.525597 7.2 
L 320.595688 7.2 
L 320.595688 34.38 
L 318.525597 34.38 
z
" clip-path="url(#pb1a327c3e3)" style="fill: #ffd6d6"/>
    <path d="M 320.595688 34.38 
L 320.595688 7.2 
L 322.665778 7.2 
L 322.665778 34.38 
L 320.595688 34.38 
z
" clip-path="url(#pb1a327c3e3)" style="fill: #ffd2d2"/>
    <path d="M 322.665778 34.38 
L 322.665778 7.2 
L 324.735869 7.2 
L 324.735869 34.38 
L 322.665778 34.38 
z
" clip-path="url(#pb1a327c3e3)" style="fill: #ffd6d6"/>
    <path d="M 324.735869 34.38 
L 324.735869 7.2 
L 326.805959 7.2 
L 326.805959 34.38 
L 324.735869 34.38 
z
" clip-path="url(#pb1a327c3e3)" style="fill: #ffd2d2"/>
    <path d="M 326.805959 34.38 
L 326.805959 7.2 
L 328.87605 7.2 
L 328.87605 34.38 
L 326.805959 34.38 
z
" clip-path="url(#pb1a327c3e3)" style="fill: #ffdede"/>
    <path d="M 328.87605 34.38 
L 328.87605 7.2 
L 330.94614 7.2 
L 330.94614 34.38 
L 328.87605 34.38 
z
" clip-path="url(#pb1a327c3e3)" style="fill: #ffd6d6"/>
    <path d="M 330.94614 34.38 
L 330.94614 7.2 
L 333.016231 7.2 
L 333.016231 34.38 
L 330.94614 34.38 
z
" clip-path="url(#pb1a327c3e3)" style="fill: #ffd8d8"/>
    <path d="M 333.016231 34.38 
L 333.016231 7.2 
L 335.086322 7.2 
L 335.086322 34.38 
L 333.016231 34.38 
z
" clip-path="url(#pb1a327c3e3)" style="fill: #ffe0e0"/>
    <path d="M 335.086322 34.38 
L 335.086322 7.2 
L 337.156412 7.2 
L 337.156412 34.38 
L 335.086322 34.38 
z
" clip-path="url(#pb1a327c3e3)" style="fill: #ffdede"/>
    <path d="M 337.156412 34.38 
L 337.156412 7.2 
L 339.226503 7.2 
L 339.226503 34.38 
L 337.156412 34.38 
z
" clip-path="url(#pb1a327c3e3)" style="fill: #ffdede"/>
    <path d="M 339.226503 34.38 
L 339.226503 7.2 
L 341.296593 7.2 
L 341.296593 34.38 
L 339.226503 34.38 
z
" clip-path="url(#pb1a327c3e3)" style="fill: #ffdcdc"/>
    <path d="M 341.296593 34.38 
L 341.296593 7.2 
L 343.366684 7.2 
L 343.366684 34.38 
L 341.296593 34.38 
z
" clip-path="url(#pb1a327c3e3)" style="fill: #ffdcdc"/>
    <path d="M 343.366684 34.38 
L 343.366684 7.2 
L 345.436774 7.2 
L 345.436774 34.38 
L 343.366684 34.38 
z
" clip-path="url(#pb1a327c3e3)" style="fill: #ffdcdc"/>
    <path d="M 345.436774 34.38 
L 345.436774 7.2 
L 347.506865 7.2 
L 347.506865 34.38 
L 345.436774 34.38 
z
" clip-path="url(#pb1a327c3e3)" style="fill: #ffd6d6"/>
    <path d="M 347.506865 34.38 
L 347.506865 7.2 
L 349.576956 7.2 
L 349.576956 34.38 
L 347.506865 34.38 
z
" clip-path="url(#pb1a327c3e3)" style="fill: #ffd6d6"/>
    <path d="M 349.576956 34.38 
L 349.576956 7.2 
L 351.647046 7.2 
L 351.647046 34.38 
L 349.576956 34.38 
z
" clip-path="url(#pb1a327c3e3)" style="fill: #ffd6d6"/>
    <path d="M 351.647046 34.38 
L 351.647046 7.2 
L 353.717137 7.2 
L 353.717137 34.38 
L 351.647046 34.38 
z
" clip-path="url(#pb1a327c3e3)" style="fill: #ff0000"/>
    <path d="M 353.717137 34.38 
L 353.717137 7.2 
L 355.787227 7.2 
L 355.787227 34.38 
L 353.717137 34.38 
z
" clip-path="url(#pb1a327c3e3)" style="fill: #ff0000"/>
    <path d="M 355.787227 34.38 
L 355.787227 7.2 
L 357.857318 7.2 
L 357.857318 34.38 
L 355.787227 34.38 
z
" clip-path="url(#pb1a327c3e3)" style="fill: #ff0000"/>
    <path d="M 357.857318 34.38 
L 357.857318 7.2 
L 359.927408 7.2 
L 359.927408 34.38 
L 357.857318 34.38 
z
" clip-path="url(#pb1a327c3e3)" style="fill: #ff0000"/>
    <path d="M 359.927408 34.38 
L 359.927408 7.2 
L 361.997499 7.2 
L 361.997499 34.38 
L 359.927408 34.38 
z
" clip-path="url(#pb1a327c3e3)" style="fill: #ffcaca"/>
    <path d="M 361.997499 34.38 
L 361.997499 7.2 
L 364.06759 7.2 
L 364.06759 34.38 
L 361.997499 34.38 
z
" clip-path="url(#pb1a327c3e3)" style="fill: #ffd8d8"/>
    <path d="M 364.06759 34.38 
L 364.06759 7.2 
L 366.13768 7.2 
L 366.13768 34.38 
L 364.06759 34.38 
z
" clip-path="url(#pb1a327c3e3)" style="fill: #ffc2c2"/>
    <path d="M 366.13768 34.38 
L 366.13768 7.2 
L 368.207771 7.2 
L 368.207771 34.38 
L 366.13768 34.38 
z
" clip-path="url(#pb1a327c3e3)" style="fill: #ffbaba"/>
    <path d="M 368.207771 34.38 
L 368.207771 7.2 
L 370.277861 7.2 
L 370.277861 34.38 
L 368.207771 34.38 
z
" clip-path="url(#pb1a327c3e3)" style="fill: #ffc4c4"/>
    <path d="M 370.277861 34.38 
L 370.277861 7.2 
L 372.347952 7.2 
L 372.347952 34.38 
L 370.277861 34.38 
z
" clip-path="url(#pb1a327c3e3)" style="fill: #ffd8d8"/>
    <path d="M 372.347952 34.38 
L 372.347952 7.2 
L 374.418042 7.2 
L 374.418042 34.38 
L 372.347952 34.38 
z
" clip-path="url(#pb1a327c3e3)" style="fill: #ffd8d8"/>
    <path d="M 374.418042 34.38 
L 374.418042 7.2 
L 376.488133 7.2 
L 376.488133 34.38 
L 374.418042 34.38 
z
" clip-path="url(#pb1a327c3e3)" style="fill: #fff2f2"/>
    <path d="M 376.488133 34.38 
L 376.488133 7.2 
L 378.558224 7.2 
L 378.558224 34.38 
L 376.488133 34.38 
z
" clip-path="url(#pb1a327c3e3)" style="fill: #ffdcdc"/>
    <path d="M 378.558224 34.38 
L 378.558224 7.2 
L 380.628314 7.2 
L 380.628314 34.38 
L 378.558224 34.38 
z
" clip-path="url(#pb1a327c3e3)" style="fill: #dedeff"/>
    <path d="M 380.628314 34.38 
L 380.628314 7.2 
L 382.698405 7.2 
L 382.698405 34.38 
L 380.628314 34.38 
z
" clip-path="url(#pb1a327c3e3)" style="fill: #ececff"/>
    <path d="M 382.698405 34.38 
L 382.698405 7.2 
L 384.768495 7.2 
L 384.768495 34.38 
L 382.698405 34.38 
z
" clip-path="url(#pb1a327c3e3)" style="fill: #fff0f0"/>
    <path d="M 384.768495 34.38 
L 384.768495 7.2 
L 386.838586 7.2 
L 386.838586 34.38 
L 384.768495 34.38 
z
" clip-path="url(#pb1a327c3e3)" style="fill: #dcdcff"/>
    <path d="M 386.838586 34.38 
L 386.838586 7.2 
L 388.908676 7.2 
L 388.908676 34.38 
L 386.838586 34.38 
z
" clip-path="url(#pb1a327c3e3)" style="fill: #fffefe"/>
    <path d="M 388.908676 34.38 
L 388.908676 7.2 
L 390.978767 7.2 
L 390.978767 34.38 
L 388.908676 34.38 
z
" clip-path="url(#pb1a327c3e3)" style="fill: #dcdcff"/>
    <path d="M 390.978767 34.38 
L 390.978767 7.2 
L 393.048858 7.2 
L 393.048858 34.38 
L 390.978767 34.38 
z
" clip-path="url(#pb1a327c3e3)" style="fill: #dcdcff"/>
    <path d="M 393.048858 34.38 
L 393.048858 7.2 
L 395.118948 7.2 
L 395.118948 34.38 
L 393.048858 34.38 
z
" clip-path="url(#pb1a327c3e3)" style="fill: #dedeff"/>
    <path d="M 395.118948 34.38 
L 395.118948 7.2 
L 397.189039 7.2 
L 397.189039 34.38 
L 395.118948 34.38 
z
" clip-path="url(#pb1a327c3e3)" style="fill: #eaeaff"/>
    <path d="M 397.189039 34.38 
L 397.189039 7.2 
L 399.259129 7.2 
L 399.259129 34.38 
L 397.189039 34.38 
z
" clip-path="url(#pb1a327c3e3)" style="fill: #ffe2e2"/>
    <path d="M 399.259129 34.38 
L 399.259129 7.2 
L 401.32922 7.2 
L 401.32922 34.38 
L 399.259129 34.38 
z
" clip-path="url(#pb1a327c3e3)" style="fill: #ececff"/>
    <path d="M 401.32922 34.38 
L 401.32922 7.2 
L 403.39931 7.2 
L 403.39931 34.38 
L 401.32922 34.38 
z
" clip-path="url(#pb1a327c3e3)" style="fill: #dadaff"/>
    <path d="M 403.39931 34.38 
L 403.39931 7.2 
L 405.469401 7.2 
L 405.469401 34.38 
L 403.39931 34.38 
z
" clip-path="url(#pb1a327c3e3)" style="fill: #dcdcff"/>
    <path d="M 405.469401 34.38 
L 405.469401 7.2 
L 407.539492 7.2 
L 407.539492 34.38 
L 405.469401 34.38 
z
" clip-path="url(#pb1a327c3e3)" style="fill: #d4d4ff"/>
    <path d="M 407.539492 34.38 
L 407.539492 7.2 
L 409.609582 7.2 
L 409.609582 34.38 
L 407.539492 34.38 
z
" clip-path="url(#pb1a327c3e3)" style="fill: #cacaff"/>
    <path d="M 409.609582 34.38 
L 409.609582 7.2 
L 411.679673 7.2 
L 411.679673 34.38 
L 409.609582 34.38 
z
" clip-path="url(#pb1a327c3e3)" style="fill: #d0d0ff"/>
    <path d="M 411.679673 34.38 
L 411.679673 7.2 
L 413.749763 7.2 
L 413.749763 34.38 
L 411.679673 34.38 
z
" clip-path="url(#pb1a327c3e3)" style="fill: #dcdcff"/>
    <path d="M 413.749763 34.38 
L 413.749763 7.2 
L 415.819854 7.2 
L 415.819854 34.38 
L 413.749763 34.38 
z
" clip-path="url(#pb1a327c3e3)" style="fill: #dcdcff"/>
    <path d="M 415.819854 34.38 
L 415.819854 7.2 
L 417.889944 7.2 
L 417.889944 34.38 
L 415.819854 34.38 
z
" clip-path="url(#pb1a327c3e3)" style="fill: #dadaff"/>
    <path d="M 417.889944 34.38 
L 417.889944 7.2 
L 419.960035 7.2 
L 419.960035 34.38 
L 417.889944 34.38 
z
" clip-path="url(#pb1a327c3e3)" style="fill: #a4a4ff"/>
    <path d="M 419.960035 34.38 
L 419.960035 7.2 
L 422.030126 7.2 
L 422.030126 34.38 
L 419.960035 34.38 
z
" clip-path="url(#pb1a327c3e3)" style="fill: #babaff"/>
    <path d="M 422.030126 34.38 
L 422.030126 7.2 
L 424.100216 7.2 
L 424.100216 34.38 
L 422.030126 34.38 
z
" clip-path="url(#pb1a327c3e3)" style="fill: #d8d8ff"/>
    <path d="M 424.100216 34.38 
L 424.100216 7.2 
L 426.170307 7.2 
L 426.170307 34.38 
L 424.100216 34.38 
z
" clip-path="url(#pb1a327c3e3)" style="fill: #7878ff"/>
    <path d="M 426.170307 34.38 
L 426.170307 7.2 
L 428.240397 7.2 
L 428.240397 34.38 
L 426.170307 34.38 
z
" clip-path="url(#pb1a327c3e3)" style="fill: #7c7cff"/>
    <path d="M 428.240397 34.38 
L 428.240397 7.2 
L 430.310488 7.2 
L 430.310488 34.38 
L 428.240397 34.38 
z
" clip-path="url(#pb1a327c3e3)" style="fill: #8080ff"/>
    <path d="M 430.310488 34.38 
L 430.310488 7.2 
L 432.380578 7.2 
L 432.380578 34.38 
L 430.310488 34.38 
z
" clip-path="url(#pb1a327c3e3)" style="fill: #5252ff"/>
    <path d="M 432.380578 34.38 
L 432.380578 7.2 
L 434.450669 7.2 
L 434.450669 34.38 
L 432.380578 34.38 
z
" clip-path="url(#pb1a327c3e3)" style="fill: #8888ff"/>
    <path d="M 434.450669 34.38 
L 434.450669 7.2 
L 436.52076 7.2 
L 436.52076 34.38 
L 434.450669 34.38 
z
" clip-path="url(#pb1a327c3e3)" style="fill: #c0c0ff"/>
    <path d="M 436.52076 34.38 
L 436.52076 7.2 
L 438.59085 7.2 
L 438.59085 34.38 
L 436.52076 34.38 
z
" clip-path="url(#pb1a327c3e3)" style="fill: #bebeff"/>
    <path d="M 438.59085 34.38 
L 438.59085 7.2 
L 440.660941 7.2 
L 440.660941 34.38 
L 438.59085 34.38 
z
" clip-path="url(#pb1a327c3e3)" style="fill: #ff6868"/>
    <path d="M 440.660941 34.38 
L 440.660941 7.2 
L 442.731031 7.2 
L 442.731031 34.38 
L 440.660941 34.38 
z
" clip-path="url(#pb1a327c3e3)" style="fill: #fff2f2"/>
    <path d="M 442.731031 34.38 
L 442.731031 7.2 
L 444.801122 7.2 
L 444.801122 34.38 
L 442.731031 34.38 
z
" clip-path="url(#pb1a327c3e3)" style="fill: #ff9c9c"/>
    <path d="M 444.801122 34.38 
L 444.801122 7.2 
L 446.871212 7.2 
L 446.871212 34.38 
L 444.801122 34.38 
z
" clip-path="url(#pb1a327c3e3)" style="fill: #ffc8c8"/>
    <path d="M 446.871212 34.38 
L 446.871212 7.2 
L 448.941303 7.2 
L 448.941303 34.38 
L 446.871212 34.38 
z
" clip-path="url(#pb1a327c3e3)" style="fill: #ff9c9c"/>
    <path d="M 448.941303 34.38 
L 448.941303 7.2 
L 451.011394 7.2 
L 451.011394 34.38 
L 448.941303 34.38 
z
" clip-path="url(#pb1a327c3e3)" style="fill: #ffbaba"/>
    <path d="M 451.011394 34.38 
L 451.011394 7.2 
L 453.081484 7.2 
L 453.081484 34.38 
L 451.011394 34.38 
z
" clip-path="url(#pb1a327c3e3)" style="fill: #ff9c9c"/>
    <path d="M 453.081484 34.38 
L 453.081484 7.2 
L 455.151575 7.2 
L 455.151575 34.38 
L 453.081484 34.38 
z
" clip-path="url(#pb1a327c3e3)" style="fill: #ffd4d4"/>
    <path d="M 455.151575 34.38 
L 455.151575 7.2 
L 457.221665 7.2 
L 457.221665 34.38 
L 455.151575 34.38 
z
" clip-path="url(#pb1a327c3e3)" style="fill: #ffc8c8"/>
    <path d="M 457.221665 34.38 
L 457.221665 7.2 
L 459.291756 7.2 
L 459.291756 34.38 
L 457.221665 34.38 
z
" clip-path="url(#pb1a327c3e3)" style="fill: #ffbebe"/>
    <path d="M 459.291756 34.38 
L 459.291756 7.2 
L 461.361846 7.2 
L 461.361846 34.38 
L 459.291756 34.38 
z
" clip-path="url(#pb1a327c3e3)" style="fill: #ffdede"/>
    <path d="M 461.361846 34.38 
L 461.361846 7.2 
L 463.431937 7.2 
L 463.431937 34.38 
L 461.361846 34.38 
z
" clip-path="url(#pb1a327c3e3)" style="fill: #ececff"/>
    <path d="M 463.431937 34.38 
L 463.431937 7.2 
L 465.502028 7.2 
L 465.502028 34.38 
L 463.431937 34.38 
z
" clip-path="url(#pb1a327c3e3)" style="fill: #ececff"/>
    <path d="M 465.502028 34.38 
L 465.502028 7.2 
L 467.572118 7.2 
L 467.572118 34.38 
L 465.502028 34.38 
z
" clip-path="url(#pb1a327c3e3)" style="fill: #ececff"/>
    <path d="M 467.572118 34.38 
L 467.572118 7.2 
L 469.642209 7.2 
L 469.642209 34.38 
L 467.572118 34.38 
z
" clip-path="url(#pb1a327c3e3)" style="fill: #ffbebe"/>
    <path d="M 469.642209 34.38 
L 469.642209 7.2 
L 471.712299 7.2 
L 471.712299 34.38 
L 469.642209 34.38 
z
" clip-path="url(#pb1a327c3e3)" style="fill: #ffd4d4"/>
    <path d="M 471.712299 34.38 
L 471.712299 7.2 
L 473.78239 7.2 
L 473.78239 34.38 
L 471.712299 34.38 
z
" clip-path="url(#pb1a327c3e3)" style="fill: #ffbaba"/>
    <path d="M 473.78239 34.38 
L 473.78239 7.2 
L 475.85248 7.2 
L 475.85248 34.38 
L 473.78239 34.38 
z
" clip-path="url(#pb1a327c3e3)" style="fill: #ffcaca"/>
    <path d="M 475.85248 34.38 
L 475.85248 7.2 
L 477.922571 7.2 
L 477.922571 34.38 
L 475.85248 34.38 
z
" clip-path="url(#pb1a327c3e3)" style="fill: #ffe2e2"/>
    <path d="M 477.922571 34.38 
L 477.922571 7.2 
L 479.992662 7.2 
L 479.992662 34.38 
L 477.922571 34.38 
z
" clip-path="url(#pb1a327c3e3)" style="fill: #ffe6e6"/>
    <path d="M 479.992662 34.38 
L 479.992662 7.2 
L 482.062752 7.2 
L 482.062752 34.38 
L 479.992662 34.38 
z
" clip-path="url(#pb1a327c3e3)" style="fill: #ceceff"/>
    <path d="M 482.062752 34.38 
L 482.062752 7.2 
L 484.132843 7.2 
L 484.132843 34.38 
L 482.062752 34.38 
z
" clip-path="url(#pb1a327c3e3)" style="fill: #c6c6ff"/>
    <path d="M 484.132843 34.38 
L 484.132843 7.2 
L 486.202933 7.2 
L 486.202933 34.38 
L 484.132843 34.38 
z
" clip-path="url(#pb1a327c3e3)" style="fill: #c4c4ff"/>
    <path d="M 486.202933 34.38 
L 486.202933 7.2 
L 488.273024 7.2 
L 488.273024 34.38 
L 486.202933 34.38 
z
" clip-path="url(#pb1a327c3e3)" style="fill: #babaff"/>
    <path d="M 488.273024 34.38 
L 488.273024 7.2 
L 490.343114 7.2 
L 490.343114 34.38 
L 488.273024 34.38 
z
" clip-path="url(#pb1a327c3e3)" style="fill: #9c9cff"/>
    <path d="M 490.343114 34.38 
L 490.343114 7.2 
L 492.413205 7.2 
L 492.413205 34.38 
L 490.343114 34.38 
z
" clip-path="url(#pb1a327c3e3)" style="fill: #ffb4b4"/>
    <path d="M 492.413205 34.38 
L 492.413205 7.2 
L 494.483296 7.2 
L 494.483296 34.38 
L 492.413205 34.38 
z
" clip-path="url(#pb1a327c3e3)" style="fill: #dcdcff"/>
    <path d="M 494.483296 34.38 
L 494.483296 7.2 
L 496.553386 7.2 
L 496.553386 34.38 
L 494.483296 34.38 
z
" clip-path="url(#pb1a327c3e3)" style="fill: #d4d4ff"/>
    <path d="M 496.553386 34.38 
L 496.553386 7.2 
L 498.623477 7.2 
L 498.623477 34.38 
L 496.553386 34.38 
z
" clip-path="url(#pb1a327c3e3)" style="fill: #b6b6ff"/>
    <path d="M 498.623477 34.38 
L 498.623477 7.2 
L 500.693567 7.2 
L 500.693567 34.38 
L 498.623477 34.38 
z
" clip-path="url(#pb1a327c3e3)" style="fill: #ffc4c4"/>
    <path d="M 500.693567 34.38 
L 500.693567 7.2 
L 502.763658 7.2 
L 502.763658 34.38 
L 500.693567 34.38 
z
" clip-path="url(#pb1a327c3e3)" style="fill: #ffd6d6"/>
    <path d="M 502.763658 34.38 
L 502.763658 7.2 
L 504.833748 7.2 
L 504.833748 34.38 
L 502.763658 34.38 
z
" clip-path="url(#pb1a327c3e3)" style="fill: #ffeeee"/>
    <path d="M 504.833748 34.38 
L 504.833748 7.2 
L 506.903839 7.2 
L 506.903839 34.38 
L 504.833748 34.38 
z
" clip-path="url(#pb1a327c3e3)" style="fill: #ffe8e8"/>
    <path d="M 506.903839 34.38 
L 506.903839 7.2 
L 508.97393 7.2 
L 508.97393 34.38 
L 506.903839 34.38 
z
" clip-path="url(#pb1a327c3e3)" style="fill: #ffecec"/>
    <path d="M 508.97393 34.38 
L 508.97393 7.2 
L 511.04402 7.2 
L 511.04402 34.38 
L 508.97393 34.38 
z
" clip-path="url(#pb1a327c3e3)" style="fill: #fff0f0"/>
    <path d="M 511.04402 34.38 
L 511.04402 7.2 
L 513.114111 7.2 
L 513.114111 34.38 
L 511.04402 34.38 
z
" clip-path="url(#pb1a327c3e3)" style="fill: #fff4f4"/>
    <path d="M 513.114111 34.38 
L 513.114111 7.2 
L 515.184201 7.2 
L 515.184201 34.38 
L 513.114111 34.38 
z
" clip-path="url(#pb1a327c3e3)" style="fill: #ffecec"/>
    <path d="M 515.184201 34.38 
L 515.184201 7.2 
L 517.254292 7.2 
L 517.254292 34.38 
L 515.184201 34.38 
z
" clip-path="url(#pb1a327c3e3)" style="fill: #ffeaea"/>
    <path d="M 517.254292 34.38 
L 517.254292 7.2 
L 519.324382 7.2 
L 519.324382 34.38 
L 517.254292 34.38 
z
" clip-path="url(#pb1a327c3e3)" style="fill: #ececff"/>
    <path d="M 519.324382 34.38 
L 519.324382 7.2 
L 521.394473 7.2 
L 521.394473 34.38 
L 519.324382 34.38 
z
" clip-path="url(#pb1a327c3e3)" style="fill: #dedeff"/>
    <path d="M 521.394473 34.38 
L 521.394473 7.2 
L 523.464564 7.2 
L 523.464564 34.38 
L 521.394473 34.38 
z
" clip-path="url(#pb1a327c3e3)" style="fill: #d2d2ff"/>
    <path d="M 523.464564 34.38 
L 523.464564 7.2 
L 525.534654 7.2 
L 525.534654 34.38 
L 523.464564 34.38 
z
" clip-path="url(#pb1a327c3e3)" style="fill: #d2d2ff"/>
    <path d="M 525.534654 34.38 
L 525.534654 7.2 
L 527.604745 7.2 
L 527.604745 34.38 
L 525.534654 34.38 
z
" clip-path="url(#pb1a327c3e3)" style="fill: #d8d8ff"/>
    <path d="M 527.604745 34.38 
L 527.604745 7.2 
L 529.674835 7.2 
L 529.674835 34.38 
L 527.604745 34.38 
z
" clip-path="url(#pb1a327c3e3)" style="fill: #e4e4ff"/>
    <path d="M 529.674835 34.38 
L 529.674835 7.2 
L 531.744926 7.2 
L 531.744926 34.38 
L 529.674835 34.38 
z
" clip-path="url(#pb1a327c3e3)" style="fill: #dedeff"/>
    <path d="M 531.744926 34.38 
L 531.744926 7.2 
L 533.815016 7.2 
L 533.815016 34.38 
L 531.744926 34.38 
z
" clip-path="url(#pb1a327c3e3)" style="fill: #f4f4ff"/>
    <path d="M 533.815016 34.38 
L 533.815016 7.2 
L 535.885107 7.2 
L 535.885107 34.38 
L 533.815016 34.38 
z
" clip-path="url(#pb1a327c3e3)" style="fill: #ff3232"/>
    <path d="M 535.885107 34.38 
L 535.885107 7.2 
L 537.955198 7.2 
L 537.955198 34.38 
L 535.885107 34.38 
z
" clip-path="url(#pb1a327c3e3)" style="fill: #ff9898"/>
    <path d="M 537.955198 34.38 
L 537.955198 7.2 
L 540.025288 7.2 
L 540.025288 34.38 
L 537.955198 34.38 
z
" clip-path="url(#pb1a327c3e3)" style="fill: #ff6a6a"/>
    <path d="M 540.025288 34.38 
L 540.025288 7.2 
L 542.095379 7.2 
L 542.095379 34.38 
L 540.025288 34.38 
z
" clip-path="url(#pb1a327c3e3)" style="fill: #f0f0ff"/>
    <path d="M 542.095379 34.38 
L 542.095379 7.2 
L 544.165469 7.2 
L 544.165469 34.38 
L 542.095379 34.38 
z
" clip-path="url(#pb1a327c3e3)" style="fill: #e8e8ff"/>
    <path d="M 544.165469 34.38 
L 544.165469 7.2 
L 546.23556 7.2 
L 546.23556 34.38 
L 544.165469 34.38 
z
" clip-path="url(#pb1a327c3e3)" style="fill: #d0d0ff"/>
    <path d="M 546.23556 34.38 
L 546.23556 7.2 
L 548.30565 7.2 
L 548.30565 34.38 
L 546.23556 34.38 
z
" clip-path="url(#pb1a327c3e3)" style="fill: #d4d4ff"/>
    <path d="M 548.30565 34.38 
L 548.30565 7.2 
L 550.375741 7.2 
L 550.375741 34.38 
L 548.30565 34.38 
z
" clip-path="url(#pb1a327c3e3)" style="fill: #d0d0ff"/>
    <path d="M 550.375741 34.38 
L 550.375741 7.2 
L 552.445832 7.2 
L 552.445832 34.38 
L 550.375741 34.38 
z
" clip-path="url(#pb1a327c3e3)" style="fill: #f8f8ff"/>
    <path d="M 552.445832 34.38 
L 552.445832 7.2 
L 554.515922 7.2 
L 554.515922 34.38 
L 552.445832 34.38 
z
" clip-path="url(#pb1a327c3e3)" style="fill: #eaeaff"/>
    <path d="M 554.515922 34.38 
L 554.515922 7.2 
L 556.586013 7.2 
L 556.586013 34.38 
L 554.515922 34.38 
z
" clip-path="url(#pb1a327c3e3)" style="fill: #eeeeff"/>
    <path d="M 556.586013 34.38 
L 556.586013 7.2 
L 558.656103 7.2 
L 558.656103 34.38 
L 556.586013 34.38 
z
" clip-path="url(#pb1a327c3e3)" style="fill: #fffefe"/>
    <path d="M 558.656103 34.38 
L 558.656103 7.2 
L 560.726194 7.2 
L 560.726194 34.38 
L 558.656103 34.38 
z
" clip-path="url(#pb1a327c3e3)" style="fill: #ffb6b6"/>
    <path d="M 560.726194 34.38 
L 560.726194 7.2 
L 562.796284 7.2 
L 562.796284 34.38 
L 560.726194 34.38 
z
" clip-path="url(#pb1a327c3e3)" style="fill: #ffdada"/>
    <path d="M 562.796284 34.38 
L 562.796284 7.2 
L 564.866375 7.2 
L 564.866375 34.38 
L 562.796284 34.38 
z
" clip-path="url(#pb1a327c3e3)" style="fill: #ffe2e2"/>
    <path d="M 564.866375 34.38 
L 564.866375 7.2 
L 566.936466 7.2 
L 566.936466 34.38 
L 564.866375 34.38 
z
" clip-path="url(#pb1a327c3e3)" style="fill: #ffdcdc"/>
    <path d="M 566.936466 34.38 
L 566.936466 7.2 
L 569.006556 7.2 
L 569.006556 34.38 
L 566.936466 34.38 
z
" clip-path="url(#pb1a327c3e3)" style="fill: #fff6f6"/>
    <path d="M 569.006556 34.38 
L 569.006556 7.2 
L 571.076647 7.2 
L 571.076647 34.38 
L 569.006556 34.38 
z
" clip-path="url(#pb1a327c3e3)" style="fill: #ffc2c2"/>
    <path d="M 571.076647 34.38 
L 571.076647 7.2 
L 573.146737 7.2 
L 573.146737 34.38 
L 571.076647 34.38 
z
" clip-path="url(#pb1a327c3e3)" style="fill: #ffcece"/>
    <path d="M 573.146737 34.38 
L 573.146737 7.2 
L 575.216828 7.2 
L 575.216828 34.38 
L 573.146737 34.38 
z
" clip-path="url(#pb1a327c3e3)" style="fill: #ffc4c4"/>
    <path d="M 575.216828 34.38 
L 575.216828 7.2 
L 577.286918 7.2 
L 577.286918 34.38 
L 575.216828 34.38 
z
" clip-path="url(#pb1a327c3e3)" style="fill: #ffe0e0"/>
    <path d="M 577.286918 34.38 
L 577.286918 7.2 
L 579.357009 7.2 
L 579.357009 34.38 
L 577.286918 34.38 
z
" clip-path="url(#pb1a327c3e3)" style="fill: #ffe0e0"/>
    <path d="M 579.357009 34.38 
L 579.357009 7.2 
L 581.4271 7.2 
L 581.4271 34.38 
L 579.357009 34.38 
z
" clip-path="url(#pb1a327c3e3)" style="fill: #ffdede"/>
    <path d="M 581.4271 34.38 
L 581.4271 7.2 
L 583.49719 7.2 
L 583.49719 34.38 
L 581.4271 34.38 
z
" clip-path="url(#pb1a327c3e3)" style="fill: #fff0f0"/>
    <path d="M 583.49719 34.38 
L 583.49719 7.2 
L 585.567281 7.2 
L 585.567281 34.38 
L 583.49719 34.38 
z
" clip-path="url(#pb1a327c3e3)" style="fill: #fff2f2"/>
    <path d="M 585.567281 34.38 
L 585.567281 7.2 
L 587.637371 7.2 
L 587.637371 34.38 
L 585.567281 34.38 
z
" clip-path="url(#pb1a327c3e3)" style="fill: #ffe6e6"/>
    <path d="M 587.637371 34.38 
L 587.637371 7.2 
L 589.707462 7.2 
L 589.707462 34.38 
L 587.637371 34.38 
z
" clip-path="url(#pb1a327c3e3)" style="fill: #ffe8e8"/>
    <path d="M 589.707462 34.38 
L 589.707462 7.2 
L 591.777552 7.2 
L 591.777552 34.38 
L 589.707462 34.38 
z
" clip-path="url(#pb1a327c3e3)" style="fill: #ffe4e4"/>
    <path d="M 591.777552 34.38 
L 591.777552 7.2 
L 593.847643 7.2 
L 593.847643 34.38 
L 591.777552 34.38 
z
" clip-path="url(#pb1a327c3e3)" style="fill: #ffe2e2"/>
    <path d="M 593.847643 34.38 
L 593.847643 7.2 
L 595.917734 7.2 
L 595.917734 34.38 
L 593.847643 34.38 
z
" clip-path="url(#pb1a327c3e3)" style="fill: #ffe4e4"/>
    <path d="M 595.917734 34.38 
L 595.917734 7.2 
L 597.987824 7.2 
L 597.987824 34.38 
L 595.917734 34.38 
z
" clip-path="url(#pb1a327c3e3)" style="fill: #ffe2e2"/>
    <path d="M 597.987824 34.38 
L 597.987824 7.2 
L 600.057915 7.2 
L 600.057915 34.38 
L 597.987824 34.38 
z
" clip-path="url(#pb1a327c3e3)" style="fill: #ffe8e8"/>
    <path d="M 600.057915 34.38 
L 600.057915 7.2 
L 602.128005 7.2 
L 602.128005 34.38 
L 600.057915 34.38 
z
" clip-path="url(#pb1a327c3e3)" style="fill: #ffecec"/>
    <path d="M 602.128005 34.38 
L 602.128005 7.2 
L 604.198096 7.2 
L 604.198096 34.38 
L 602.128005 34.38 
z
" clip-path="url(#pb1a327c3e3)" style="fill: #ffecec"/>
    <path d="M 604.198096 34.38 
L 604.198096 7.2 
L 606.268186 7.2 
L 606.268186 34.38 
L 604.198096 34.38 
z
" clip-path="url(#pb1a327c3e3)" style="fill: #ffe4e4"/>
    <path d="M 606.268186 34.38 
L 606.268186 7.2 
L 608.338277 7.2 
L 608.338277 34.38 
L 606.268186 34.38 
z
" clip-path="url(#pb1a327c3e3)" style="fill: #ffe8e8"/>
    <path d="M 608.338277 34.38 
L 608.338277 7.2 
L 610.408368 7.2 
L 610.408368 34.38 
L 608.338277 34.38 
z
" clip-path="url(#pb1a327c3e3)" style="fill: #ff0000"/>
    <path d="M 610.408368 34.38 
L 610.408368 7.2 
L 612.478458 7.2 
L 612.478458 34.38 
L 610.408368 34.38 
z
" clip-path="url(#pb1a327c3e3)" style="fill: #ff2424"/>
    <path d="M 612.478458 34.38 
L 612.478458 7.2 
L 614.548549 7.2 
L 614.548549 34.38 
L 612.478458 34.38 
z
" clip-path="url(#pb1a327c3e3)" style="fill: #ff0e0e"/>
    <path d="M 614.548549 34.38 
L 614.548549 7.2 
L 616.618639 7.2 
L 616.618639 34.38 
L 614.548549 34.38 
z
" clip-path="url(#pb1a327c3e3)" style="fill: #ff0000"/>
    <path d="M 616.618639 34.38 
L 616.618639 7.2 
L 618.68873 7.2 
L 618.68873 34.38 
L 616.618639 34.38 
z
" clip-path="url(#pb1a327c3e3)" style="fill: #0000ff"/>
    <path d="M 618.68873 34.38 
L 618.68873 7.2 
L 620.758821 7.2 
L 620.758821 34.38 
L 618.68873 34.38 
z
" clip-path="url(#pb1a327c3e3)" style="fill: #ccccff"/>
    <path d="M 620.758821 34.38 
L 620.758821 7.2 
L 622.828911 7.2 
L 622.828911 34.38 
L 620.758821 34.38 
z
" clip-path="url(#pb1a327c3e3)" style="fill: #ffd6d6"/>
    <path d="M 622.828911 34.38 
L 622.828911 7.2 
L 624.899002 7.2 
L 624.899002 34.38 
L 622.828911 34.38 
z
" clip-path="url(#pb1a327c3e3)" style="fill: #ffeeee"/>
    <path d="M 624.899002 34.38 
L 624.899002 7.2 
L 626.969092 7.2 
L 626.969092 34.38 
L 624.899002 34.38 
z
" clip-path="url(#pb1a327c3e3)" style="fill: #8888ff"/>
    <path d="M 626.969092 34.38 
L 626.969092 7.2 
L 629.039183 7.2 
L 629.039183 34.38 
L 626.969092 34.38 
z
" clip-path="url(#pb1a327c3e3)" style="fill: #c0c0ff"/>
    <path d="M 629.039183 34.38 
L 629.039183 7.2 
L 631.109273 7.2 
L 631.109273 34.38 
L 629.039183 34.38 
z
" clip-path="url(#pb1a327c3e3)" style="fill: #d0d0ff"/>
    <path d="M 631.109273 34.38 
L 631.109273 7.2 
L 633.179364 7.2 
L 633.179364 34.38 
L 631.109273 34.38 
z
" clip-path="url(#pb1a327c3e3)" style="fill: #e6e6ff"/>
    <path d="M 633.179364 34.38 
L 633.179364 7.2 
L 635.249455 7.2 
L 635.249455 34.38 
L 633.179364 34.38 
z
" clip-path="url(#pb1a327c3e3)" style="fill: #5a5aff"/>
    <path d="M 635.249455 34.38 
L 635.249455 7.2 
L 637.319545 7.2 
L 637.319545 34.38 
L 635.249455 34.38 
z
" clip-path="url(#pb1a327c3e3)" style="fill: #acacff"/>
    <path d="M 637.319545 34.38 
L 637.319545 7.2 
L 639.389636 7.2 
L 639.389636 34.38 
L 637.319545 34.38 
z
" clip-path="url(#pb1a327c3e3)" style="fill: #dcdcff"/>
    <path d="M 639.389636 34.38 
L 639.389636 7.2 
L 641.459726 7.2 
L 641.459726 34.38 
L 639.389636 34.38 
z
" clip-path="url(#pb1a327c3e3)" style="fill: #aaaaff"/>
    <path d="M 641.459726 34.38 
L 641.459726 7.2 
L 643.529817 7.2 
L 643.529817 34.38 
L 641.459726 34.38 
z
" clip-path="url(#pb1a327c3e3)" style="fill: #ffc0c0"/>
    <path d="M 643.529817 34.38 
L 643.529817 7.2 
L 645.599907 7.2 
L 645.599907 34.38 
L 643.529817 34.38 
z
" clip-path="url(#pb1a327c3e3)" style="fill: #ff9494"/>
    <path d="M 645.599907 34.38 
L 645.599907 7.2 
L 647.669998 7.2 
L 647.669998 34.38 
L 645.599907 34.38 
z
" clip-path="url(#pb1a327c3e3)" style="fill: #ffdada"/>
    <path d="M 647.669998 34.38 
L 647.669998 7.2 
L 649.740089 7.2 
L 649.740089 34.38 
L 647.669998 34.38 
z
" clip-path="url(#pb1a327c3e3)" style="fill: #ffa4a4"/>
    <path d="M 649.740089 34.38 
L 649.740089 7.2 
L 651.810179 7.2 
L 651.810179 34.38 
L 649.740089 34.38 
z
" clip-path="url(#pb1a327c3e3)" style="fill: #ffd0d0"/>
    <path d="M 651.810179 34.38 
L 651.810179 7.2 
L 653.88027 7.2 
L 653.88027 34.38 
L 651.810179 34.38 
z
" clip-path="url(#pb1a327c3e3)" style="fill: #ffa8a8"/>
    <path d="M 653.88027 34.38 
L 653.88027 7.2 
L 655.95036 7.2 
L 655.95036 34.38 
L 653.88027 34.38 
z
" clip-path="url(#pb1a327c3e3)" style="fill: #ffb6b6"/>
    <path d="M 655.95036 34.38 
L 655.95036 7.2 
L 658.020451 7.2 
L 658.020451 34.38 
L 655.95036 34.38 
z
" clip-path="url(#pb1a327c3e3)" style="fill: #ffa0a0"/>
    <path d="M 658.020451 34.38 
L 658.020451 7.2 
L 660.090541 7.2 
L 660.090541 34.38 
L 658.020451 34.38 
z
" clip-path="url(#pb1a327c3e3)" style="fill: #ffd0d0"/>
    <path d="M 660.090541 34.38 
L 660.090541 7.2 
L 662.160632 7.2 
L 662.160632 34.38 
L 660.090541 34.38 
z
" clip-path="url(#pb1a327c3e3)" style="fill: #ff9c9c"/>
    <path d="M 662.160632 34.38 
L 662.160632 7.2 
L 664.230723 7.2 
L 664.230723 34.38 
L 662.160632 34.38 
z
" clip-path="url(#pb1a327c3e3)" style="fill: #ffb6b6"/>
    <path d="M 664.230723 34.38 
L 664.230723 7.2 
L 666.300813 7.2 
L 666.300813 34.38 
L 664.230723 34.38 
z
" clip-path="url(#pb1a327c3e3)" style="fill: #ffb8b8"/>
    <path d="M 666.300813 34.38 
L 666.300813 7.2 
L 668.370904 7.2 
L 668.370904 34.38 
L 666.300813 34.38 
z
" clip-path="url(#pb1a327c3e3)" style="fill: #ffb6b6"/>
    <path d="M 668.370904 34.38 
L 668.370904 7.2 
L 670.440994 7.2 
L 670.440994 34.38 
L 668.370904 34.38 
z
" clip-path="url(#pb1a327c3e3)" style="fill: #ffdada"/>
    <path d="M 670.440994 34.38 
L 670.440994 7.2 
L 672.511085 7.2 
L 672.511085 34.38 
L 670.440994 34.38 
z
" clip-path="url(#pb1a327c3e3)" style="fill: #ffd8d8"/>
    <path d="M 672.511085 34.38 
L 672.511085 7.2 
L 674.581175 7.2 
L 674.581175 34.38 
L 672.511085 34.38 
z
" clip-path="url(#pb1a327c3e3)" style="fill: #ffc8c8"/>
    <path d="M 674.581175 34.38 
L 674.581175 7.2 
L 676.651266 7.2 
L 676.651266 34.38 
L 674.581175 34.38 
z
" clip-path="url(#pb1a327c3e3)" style="fill: #ffaeae"/>
    <path d="M 676.651266 34.38 
L 676.651266 7.2 
L 678.721357 7.2 
L 678.721357 34.38 
L 676.651266 34.38 
z
" clip-path="url(#pb1a327c3e3)" style="fill: #ff9292"/>
    <path d="M 678.721357 34.38 
L 678.721357 7.2 
L 680.791447 7.2 
L 680.791447 34.38 
L 678.721357 34.38 
z
" clip-path="url(#pb1a327c3e3)" style="fill: #ffc6c6"/>
    <path d="M 680.791447 34.38 
L 680.791447 7.2 
L 682.861538 7.2 
L 682.861538 34.38 
L 680.791447 34.38 
z
" clip-path="url(#pb1a327c3e3)" style="fill: #ffaaaa"/>
    <path d="M 682.861538 34.38 
L 682.861538 7.2 
L 684.931628 7.2 
L 684.931628 34.38 
L 682.861538 34.38 
z
" clip-path="url(#pb1a327c3e3)" style="fill: #ffb0b0"/>
    <path d="M 684.931628 34.38 
L 684.931628 7.2 
L 687.001719 7.2 
L 687.001719 34.38 
L 684.931628 34.38 
z
" clip-path="url(#pb1a327c3e3)" style="fill: #b6b6ff"/>
    <path d="M 687.001719 34.38 
L 687.001719 7.2 
L 689.071809 7.2 
L 689.071809 34.38 
L 687.001719 34.38 
z
" clip-path="url(#pb1a327c3e3)" style="fill: #8282ff"/>
    <path d="M 689.071809 34.38 
L 689.071809 7.2 
L 691.1419 7.2 
L 691.1419 34.38 
L 689.071809 34.38 
z
" clip-path="url(#pb1a327c3e3)" style="fill: #9e9eff"/>
    <path d="M 691.1419 34.38 
L 691.1419 7.2 
L 693.211991 7.2 
L 693.211991 34.38 
L 691.1419 34.38 
z
" clip-path="url(#pb1a327c3e3)" style="fill: #a0a0ff"/>
    <path d="M 693.211991 34.38 
L 693.211991 7.2 
L 695.282081 7.2 
L 695.282081 34.38 
L 693.211991 34.38 
z
" clip-path="url(#pb1a327c3e3)" style="fill: #dedeff"/>
    <path d="M 695.282081 34.38 
L 695.282081 7.2 
L 697.352172 7.2 
L 697.352172 34.38 
L 695.282081 34.38 
z
" clip-path="url(#pb1a327c3e3)" style="fill: #e0e0ff"/>
    <path d="M 697.352172 34.38 
L 697.352172 7.2 
L 699.422262 7.2 
L 699.422262 34.38 
L 697.352172 34.38 
z
" clip-path="url(#pb1a327c3e3)" style="fill: #ffd2d2"/>
    <path d="M 699.422262 34.38 
L 699.422262 7.2 
L 701.492353 7.2 
L 701.492353 34.38 
L 699.422262 34.38 
z
" clip-path="url(#pb1a327c3e3)" style="fill: #ffc8c8"/>
    <path d="M 701.492353 34.38 
L 701.492353 7.2 
L 703.562443 7.2 
L 703.562443 34.38 
L 701.492353 34.38 
z
" clip-path="url(#pb1a327c3e3)" style="fill: #ffcece"/>
    <path d="M 703.562443 34.38 
L 703.562443 7.2 
L 705.632534 7.2 
L 705.632534 34.38 
L 703.562443 34.38 
z
" clip-path="url(#pb1a327c3e3)" style="fill: #ffc4c4"/>
    <path d="M 705.632534 34.38 
L 705.632534 7.2 
L 707.702625 7.2 
L 707.702625 34.38 
L 705.632534 34.38 
z
" clip-path="url(#pb1a327c3e3)" style="fill: #ffcccc"/>
    <path d="M 707.702625 34.38 
L 707.702625 7.2 
L 709.772715 7.2 
L 709.772715 34.38 
L 707.702625 34.38 
z
" clip-path="url(#pb1a327c3e3)" style="fill: #ffb0b0"/>
    <path d="M 709.772715 34.38 
L 709.772715 7.2 
L 711.842806 7.2 
L 711.842806 34.38 
L 709.772715 34.38 
z
" clip-path="url(#pb1a327c3e3)" style="fill: #ff9a9a"/>
    <path d="M 711.842806 34.38 
L 711.842806 7.2 
L 713.912896 7.2 
L 713.912896 34.38 
L 711.842806 34.38 
z
" clip-path="url(#pb1a327c3e3)" style="fill: #ff9e9e"/>
    <path d="M 713.912896 34.38 
L 713.912896 7.2 
L 715.982987 7.2 
L 715.982987 34.38 
L 713.912896 34.38 
z
" clip-path="url(#pb1a327c3e3)" style="fill: #ffb2b2"/>
    <path d="M 715.982987 34.38 
L 715.982987 7.2 
L 718.053077 7.2 
L 718.053077 34.38 
L 715.982987 34.38 
z
" clip-path="url(#pb1a327c3e3)" style="fill: #ffd4d4"/>
    <path d="M 718.053077 34.38 
L 718.053077 7.2 
L 720.123168 7.2 
L 720.123168 34.38 
L 718.053077 34.38 
z
" clip-path="url(#pb1a327c3e3)" style="fill: #ffcaca"/>
    <path d="M 720.123168 34.38 
L 720.123168 7.2 
L 722.193259 7.2 
L 722.193259 34.38 
L 720.123168 34.38 
z
" clip-path="url(#pb1a327c3e3)" style="fill: #ffd8d8"/>
    <path d="M 722.193259 34.38 
L 722.193259 7.2 
L 724.263349 7.2 
L 724.263349 34.38 
L 722.193259 34.38 
z
" clip-path="url(#pb1a327c3e3)" style="fill: #ffcccc"/>
    <path d="M 724.263349 34.38 
L 724.263349 7.2 
L 726.33344 7.2 
L 726.33344 34.38 
L 724.263349 34.38 
z
" clip-path="url(#pb1a327c3e3)" style="fill: #ffd0d0"/>
    <path d="M 726.33344 34.38 
L 726.33344 7.2 
L 728.40353 7.2 
L 728.40353 34.38 
L 726.33344 34.38 
z
" clip-path="url(#pb1a327c3e3)" style="fill: #ffb6b6"/>
    <path d="M 728.40353 34.38 
L 728.40353 7.2 
L 730.473621 7.2 
L 730.473621 34.38 
L 728.40353 34.38 
z
" clip-path="url(#pb1a327c3e3)" style="fill: #ffb8b8"/>
    <path d="M 730.473621 34.38 
L 730.473621 7.2 
L 732.543711 7.2 
L 732.543711 34.38 
L 730.473621 34.38 
z
" clip-path="url(#pb1a327c3e3)" style="fill: #cacaff"/>
    <path d="M 732.543711 34.38 
L 732.543711 7.2 
L 734.613802 7.2 
L 734.613802 34.38 
L 732.543711 34.38 
z
" clip-path="url(#pb1a327c3e3)" style="fill: #c4c4ff"/>
    <path d="M 734.613802 34.38 
L 734.613802 7.2 
L 736.683893 7.2 
L 736.683893 34.38 
L 734.613802 34.38 
z
" clip-path="url(#pb1a327c3e3)" style="fill: #c4c4ff"/>
    <path d="M 736.683893 34.38 
L 736.683893 7.2 
L 738.753983 7.2 
L 738.753983 34.38 
L 736.683893 34.38 
z
" clip-path="url(#pb1a327c3e3)" style="fill: #d6d6ff"/>
    <path d="M 738.753983 34.38 
L 738.753983 7.2 
L 740.824074 7.2 
L 740.824074 34.38 
L 738.753983 34.38 
z
" clip-path="url(#pb1a327c3e3)" style="fill: #dadaff"/>
    <path d="M 740.824074 34.38 
L 740.824074 7.2 
L 742.894164 7.2 
L 742.894164 34.38 
L 740.824074 34.38 
z
" clip-path="url(#pb1a327c3e3)" style="fill: #cacaff"/>
    <path d="M 742.894164 34.38 
L 742.894164 7.2 
L 744.964255 7.2 
L 744.964255 34.38 
L 742.894164 34.38 
z
" clip-path="url(#pb1a327c3e3)" style="fill: #bcbcff"/>
    <path d="M 744.964255 34.38 
L 744.964255 7.2 
L 747.034345 7.2 
L 747.034345 34.38 
L 744.964255 34.38 
z
" clip-path="url(#pb1a327c3e3)" style="fill: #c0c0ff"/>
    <path d="M 747.034345 34.38 
L 747.034345 7.2 
L 749.104436 7.2 
L 749.104436 34.38 
L 747.034345 34.38 
z
" clip-path="url(#pb1a327c3e3)" style="fill: #ff9c9c"/>
    <path d="M 749.104436 34.38 
L 749.104436 7.2 
L 751.174527 7.2 
L 751.174527 34.38 
L 749.104436 34.38 
z
" clip-path="url(#pb1a327c3e3)" style="fill: #ff9696"/>
    <path d="M 751.174527 34.38 
L 751.174527 7.2 
L 753.244617 7.2 
L 753.244617 34.38 
L 751.174527 34.38 
z
" clip-path="url(#pb1a327c3e3)" style="fill: #ffd4d4"/>
    <path d="M 753.244617 34.38 
L 753.244617 7.2 
L 755.314708 7.2 
L 755.314708 34.38 
L 753.244617 34.38 
z
" clip-path="url(#pb1a327c3e3)" style="fill: #ffd6d6"/>
    <path d="M 755.314708 34.38 
L 755.314708 7.2 
L 757.384798 7.2 
L 757.384798 34.38 
L 755.314708 34.38 
z
" clip-path="url(#pb1a327c3e3)" style="fill: #ffd4d4"/>
    <path d="M 757.384798 34.38 
L 757.384798 7.2 
L 759.454889 7.2 
L 759.454889 34.38 
L 757.384798 34.38 
z
" clip-path="url(#pb1a327c3e3)" style="fill: #ffdede"/>
    <path d="M 759.454889 34.38 
L 759.454889 7.2 
L 761.524979 7.2 
L 761.524979 34.38 
L 759.454889 34.38 
z
" clip-path="url(#pb1a327c3e3)" style="fill: #ffb0b0"/>
    <path d="M 761.524979 34.38 
L 761.524979 7.2 
L 763.59507 7.2 
L 763.59507 34.38 
L 761.524979 34.38 
z
" clip-path="url(#pb1a327c3e3)" style="fill: #b2b2ff"/>
    <path d="M 763.59507 34.38 
L 763.59507 7.2 
L 765.665161 7.2 
L 765.665161 34.38 
L 763.59507 34.38 
z
" clip-path="url(#pb1a327c3e3)" style="fill: #d6d6ff"/>
    <path d="M 765.665161 34.38 
L 765.665161 7.2 
L 767.735251 7.2 
L 767.735251 34.38 
L 765.665161 34.38 
z
" clip-path="url(#pb1a327c3e3)" style="fill: #ccccff"/>
    <path d="M 767.735251 34.38 
L 767.735251 7.2 
L 769.805342 7.2 
L 769.805342 34.38 
L 767.735251 34.38 
z
" clip-path="url(#pb1a327c3e3)" style="fill: #dcdcff"/>
    <path d="M 769.805342 34.38 
L 769.805342 7.2 
L 771.875432 7.2 
L 771.875432 34.38 
L 769.805342 34.38 
z
" clip-path="url(#pb1a327c3e3)" style="fill: #dcdcff"/>
    <path d="M 771.875432 34.38 
L 771.875432 7.2 
L 773.945523 7.2 
L 773.945523 34.38 
L 771.875432 34.38 
z
" clip-path="url(#pb1a327c3e3)" style="fill: #e0e0ff"/>
    <path d="M 773.945523 34.38 
L 773.945523 7.2 
L 776.015613 7.2 
L 776.015613 34.38 
L 773.945523 34.38 
z
" clip-path="url(#pb1a327c3e3)" style="fill: #ffb0b0"/>
    <path d="M 776.015613 34.38 
L 776.015613 7.2 
L 778.085704 7.2 
L 778.085704 34.38 
L 776.015613 34.38 
z
" clip-path="url(#pb1a327c3e3)" style="fill: #ffb6b6"/>
    <path d="M 778.085704 34.38 
L 778.085704 7.2 
L 780.155795 7.2 
L 780.155795 34.38 
L 778.085704 34.38 
z
" clip-path="url(#pb1a327c3e3)" style="fill: #ffbaba"/>
    <path d="M 780.155795 34.38 
L 780.155795 7.2 
L 782.225885 7.2 
L 782.225885 34.38 
L 780.155795 34.38 
z
" clip-path="url(#pb1a327c3e3)" style="fill: #ffc8c8"/>
    <path d="M 782.225885 34.38 
L 782.225885 7.2 
L 784.295976 7.2 
L 784.295976 34.38 
L 782.225885 34.38 
z
" clip-path="url(#pb1a327c3e3)" style="fill: #ffcece"/>
    <path d="M 784.295976 34.38 
L 784.295976 7.2 
L 786.366066 7.2 
L 786.366066 34.38 
L 784.295976 34.38 
z
" clip-path="url(#pb1a327c3e3)" style="fill: #ffcccc"/>
    <path d="M 786.366066 34.38 
L 786.366066 7.2 
L 788.436157 7.2 
L 788.436157 34.38 
L 786.366066 34.38 
z
" clip-path="url(#pb1a327c3e3)" style="fill: #ffb4b4"/>
    <path d="M 788.436157 34.38 
L 788.436157 7.2 
L 790.506247 7.2 
L 790.506247 34.38 
L 788.436157 34.38 
z
" clip-path="url(#pb1a327c3e3)" style="fill: #ffbebe"/>
    <path d="M 790.506247 34.38 
L 790.506247 7.2 
L 792.576338 7.2 
L 792.576338 34.38 
L 790.506247 34.38 
z
" clip-path="url(#pb1a327c3e3)" style="fill: #ffc0c0"/>
    <path d="M 792.576338 34.38 
L 792.576338 7.2 
L 794.646429 7.2 
L 794.646429 34.38 
L 792.576338 34.38 
z
" clip-path="url(#pb1a327c3e3)" style="fill: #ffb8b8"/>
    <path d="M 794.646429 34.38 
L 794.646429 7.2 
L 796.716519 7.2 
L 796.716519 34.38 
L 794.646429 34.38 
z
" clip-path="url(#pb1a327c3e3)" style="fill: #ffc0c0"/>
    <path d="M 796.716519 34.38 
L 796.716519 7.2 
L 798.78661 7.2 
L 798.78661 34.38 
L 796.716519 34.38 
z
" clip-path="url(#pb1a327c3e3)" style="fill: #ffbebe"/>
    <path d="M 798.78661 34.38 
L 798.78661 7.2 
L 800.8567 7.2 
L 800.8567 34.38 
L 798.78661 34.38 
z
" clip-path="url(#pb1a327c3e3)" style="fill: #ff8c8c"/>
    <path d="M 800.8567 34.38 
L 800.8567 7.2 
L 802.926791 7.2 
L 802.926791 34.38 
L 800.8567 34.38 
z
" clip-path="url(#pb1a327c3e3)" style="fill: #ffa4a4"/>
    <path d="M 802.926791 34.38 
L 802.926791 7.2 
L 804.996881 7.2 
L 804.996881 34.38 
L 802.926791 34.38 
z
" clip-path="url(#pb1a327c3e3)" style="fill: #ff9292"/>
    <path d="M 804.996881 34.38 
L 804.996881 7.2 
L 807.066972 7.2 
L 807.066972 34.38 
L 804.996881 34.38 
z
" clip-path="url(#pb1a327c3e3)" style="fill: #ffc0c0"/>
    <path d="M 807.066972 34.38 
L 807.066972 7.2 
L 809.137063 7.2 
L 809.137063 34.38 
L 807.066972 34.38 
z
" clip-path="url(#pb1a327c3e3)" style="fill: #ffbaba"/>
    <path d="M 809.137063 34.38 
L 809.137063 7.2 
L 811.207153 7.2 
L 811.207153 34.38 
L 809.137063 34.38 
z
" clip-path="url(#pb1a327c3e3)" style="fill: #ffc2c2"/>
    <path d="M 811.207153 34.38 
L 811.207153 7.2 
L 813.277244 7.2 
L 813.277244 34.38 
L 811.207153 34.38 
z
" clip-path="url(#pb1a327c3e3)" style="fill: #ffa2a2"/>
    <path d="M 813.277244 34.38 
L 813.277244 7.2 
L 815.347334 7.2 
L 815.347334 34.38 
L 813.277244 34.38 
z
" clip-path="url(#pb1a327c3e3)" style="fill: #ffa8a8"/>
    <path d="M 815.347334 34.38 
L 815.347334 7.2 
L 817.417425 7.2 
L 817.417425 34.38 
L 815.347334 34.38 
z
" clip-path="url(#pb1a327c3e3)" style="fill: #ffa2a2"/>
   </g>
   <g id="patch_3">
    <path d="M 76.325 34.38 
L 76.325 7.2 
" style="fill: none; stroke: #262626; stroke-width: 1.25; stroke-linejoin: miter; stroke-linecap: square"/>
   </g>
   <g id="patch_4">
    <path d="M 817.417425 34.38 
L 817.417425 7.2 
" style="fill: none; stroke: #262626; stroke-width: 1.25; stroke-linejoin: miter; stroke-linecap: square"/>
   </g>
   <g id="patch_5">
    <path d="M 76.325 34.38 
L 817.417425 34.38 
" style="fill: none; stroke: #262626; stroke-width: 1.25; stroke-linejoin: miter; stroke-linecap: square"/>
   </g>
   <g id="patch_6">
    <path d="M 76.325 7.2 
L 817.417425 7.2 
" style="fill: none; stroke: #262626; stroke-width: 1.25; stroke-linejoin: miter; stroke-linecap: square"/>
   </g>
   <g id="text_6">
    <!-- Cells -->
    <g style="fill: #262626" transform="translate(195.017162 64.278)scale(0.18 -0.18)">
     <defs>
      <path id="ArialMT-43" d="M 3763 1606 
L 4369 1453 
Q 4178 706 3683 314 
Q 3188 -78 2472 -78 
Q 1731 -78 1267 223 
Q 803 525 561 1097 
Q 319 1669 319 2325 
Q 319 3041 592 3573 
Q 866 4106 1370 4382 
Q 1875 4659 2481 4659 
Q 3169 4659 3637 4309 
Q 4106 3959 4291 3325 
L 3694 3184 
Q 3534 3684 3231 3912 
Q 2928 4141 2469 4141 
Q 1941 4141 1586 3887 
Q 1231 3634 1087 3207 
Q 944 2781 944 2328 
Q 944 1744 1114 1308 
Q 1284 872 1643 656 
Q 2003 441 2422 441 
Q 2931 441 3284 734 
Q 3638 1028 3763 1606 
z
" transform="scale(0.015625)"/>
      <path id="ArialMT-65" d="M 2694 1069 
L 3275 997 
Q 3138 488 2766 206 
Q 2394 -75 1816 -75 
Q 1088 -75 661 373 
Q 234 822 234 1631 
Q 234 2469 665 2931 
Q 1097 3394 1784 3394 
Q 2450 3394 2872 2941 
Q 3294 2488 3294 1666 
Q 3294 1616 3291 1516 
L 816 1516 
Q 847 969 1125 678 
Q 1403 388 1819 388 
Q 2128 388 2347 550 
Q 2566 713 2694 1069 
z
M 847 1978 
L 2700 1978 
Q 2663 2397 2488 2606 
Q 2219 2931 1791 2931 
Q 1403 2931 1139 2672 
Q 875 2413 847 1978 
z
" transform="scale(0.015625)"/>
      <path id="ArialMT-6c" d="M 409 0 
L 409 4581 
L 972 4581 
L 972 0 
L 409 0 
z
" transform="scale(0.015625)"/>
      <path id="ArialMT-73" d="M 197 991 
L 753 1078 
Q 800 744 1014 566 
Q 1228 388 1613 388 
Q 2000 388 2187 545 
Q 2375 703 2375 916 
Q 2375 1106 2209 1216 
Q 2094 1291 1634 1406 
Q 1016 1563 777 1677 
Q 538 1791 414 1992 
Q 291 2194 291 2438 
Q 291 2659 392 2848 
Q 494 3038 669 3163 
Q 800 3259 1026 3326 
Q 1253 3394 1513 3394 
Q 1903 3394 2198 3281 
Q 2494 3169 2634 2976 
Q 2775 2784 2828 2463 
L 2278 2388 
Q 2241 2644 2061 2787 
Q 1881 2931 1553 2931 
Q 1166 2931 1000 2803 
Q 834 2675 834 2503 
Q 834 2394 903 2306 
Q 972 2216 1119 2156 
Q 1203 2125 1616 2013 
Q 2213 1853 2448 1751 
Q 2684 1650 2818 1456 
Q 2953 1263 2953 975 
Q 2953 694 2789 445 
Q 2625 197 2315 61 
Q 2006 -75 1616 -75 
Q 969 -75 630 194 
Q 291 463 197 991 
z
" transform="scale(0.015625)"/>
     </defs>
     <use xlink:href="#ArialMT-43"/>
     <use xlink:href="#ArialMT-65" x="72.216797"/>
     <use xlink:href="#ArialMT-6c" x="127.832031"/>
     <use xlink:href="#ArialMT-6c" x="150.048828"/>
     <use xlink:href="#ArialMT-73" x="172.265625"/>
    </g>
   </g>
   <g id="text_7">
    <!-- Cytoplasm -->
    <g style="fill: #262626" transform="translate(439.551815 64.278)scale(0.18 -0.18)">
     <defs>
      <path id="ArialMT-79" d="M 397 -1278 
L 334 -750 
Q 519 -800 656 -800 
Q 844 -800 956 -737 
Q 1069 -675 1141 -563 
Q 1194 -478 1313 -144 
Q 1328 -97 1363 -6 
L 103 3319 
L 709 3319 
L 1400 1397 
Q 1534 1031 1641 628 
Q 1738 1016 1872 1384 
L 2581 3319 
L 3144 3319 
L 1881 -56 
Q 1678 -603 1566 -809 
Q 1416 -1088 1222 -1217 
Q 1028 -1347 759 -1347 
Q 597 -1347 397 -1278 
z
" transform="scale(0.015625)"/>
      <path id="ArialMT-74" d="M 1650 503 
L 1731 6 
Q 1494 -44 1306 -44 
Q 1000 -44 831 53 
Q 663 150 594 308 
Q 525 466 525 972 
L 525 2881 
L 113 2881 
L 113 3319 
L 525 3319 
L 525 4141 
L 1084 4478 
L 1084 3319 
L 1650 3319 
L 1650 2881 
L 1084 2881 
L 1084 941 
Q 1084 700 1114 631 
Q 1144 563 1211 522 
Q 1278 481 1403 481 
Q 1497 481 1650 503 
z
" transform="scale(0.015625)"/>
      <path id="ArialMT-70" d="M 422 -1272 
L 422 3319 
L 934 3319 
L 934 2888 
Q 1116 3141 1344 3267 
Q 1572 3394 1897 3394 
Q 2322 3394 2647 3175 
Q 2972 2956 3137 2557 
Q 3303 2159 3303 1684 
Q 3303 1175 3120 767 
Q 2938 359 2589 142 
Q 2241 -75 1856 -75 
Q 1575 -75 1351 44 
Q 1128 163 984 344 
L 984 -1272 
L 422 -1272 
z
M 931 1641 
Q 931 1000 1190 694 
Q 1450 388 1819 388 
Q 2194 388 2461 705 
Q 2728 1022 2728 1688 
Q 2728 2322 2467 2637 
Q 2206 2953 1844 2953 
Q 1484 2953 1207 2617 
Q 931 2281 931 1641 
z
" transform="scale(0.015625)"/>
      <path id="ArialMT-6d" d="M 422 0 
L 422 3319 
L 925 3319 
L 925 2853 
Q 1081 3097 1340 3245 
Q 1600 3394 1931 3394 
Q 2300 3394 2536 3241 
Q 2772 3088 2869 2813 
Q 3263 3394 3894 3394 
Q 4388 3394 4653 3120 
Q 4919 2847 4919 2278 
L 4919 0 
L 4359 0 
L 4359 2091 
Q 4359 2428 4304 2576 
Q 4250 2725 4106 2815 
Q 3963 2906 3769 2906 
Q 3419 2906 3187 2673 
Q 2956 2441 2956 1928 
L 2956 0 
L 2394 0 
L 2394 2156 
Q 2394 2531 2256 2718 
Q 2119 2906 1806 2906 
Q 1569 2906 1367 2781 
Q 1166 2656 1075 2415 
Q 984 2175 984 1722 
L 984 0 
L 422 0 
z
" transform="scale(0.015625)"/>
     </defs>
     <use xlink:href="#ArialMT-43"/>
     <use xlink:href="#ArialMT-79" x="72.216797"/>
     <use xlink:href="#ArialMT-74" x="122.216797"/>
     <use xlink:href="#ArialMT-6f" x="150"/>
     <use xlink:href="#ArialMT-70" x="205.615234"/>
     <use xlink:href="#ArialMT-6c" x="261.230469"/>
     <use xlink:href="#ArialMT-61" x="283.447266"/>
     <use xlink:href="#ArialMT-73" x="339.0625"/>
     <use xlink:href="#ArialMT-6d" x="389.0625"/>
    </g>
   </g>
   <g id="text_8">
    <!-- Nuclei -->
    <g style="fill: #262626" transform="translate(688.904146 64.278)scale(0.18 -0.18)">
     <defs>
      <path id="ArialMT-4e" d="M 488 0 
L 488 4581 
L 1109 4581 
L 3516 984 
L 3516 4581 
L 4097 4581 
L 4097 0 
L 3475 0 
L 1069 3600 
L 1069 0 
L 488 0 
z
" transform="scale(0.015625)"/>
      <path id="ArialMT-63" d="M 2588 1216 
L 3141 1144 
Q 3050 572 2676 248 
Q 2303 -75 1759 -75 
Q 1078 -75 664 370 
Q 250 816 250 1647 
Q 250 2184 428 2587 
Q 606 2991 970 3192 
Q 1334 3394 1763 3394 
Q 2303 3394 2647 3120 
Q 2991 2847 3088 2344 
L 2541 2259 
Q 2463 2594 2264 2762 
Q 2066 2931 1784 2931 
Q 1359 2931 1093 2626 
Q 828 2322 828 1663 
Q 828 994 1084 691 
Q 1341 388 1753 388 
Q 2084 388 2306 591 
Q 2528 794 2588 1216 
z
" transform="scale(0.015625)"/>
      <path id="ArialMT-69" d="M 425 3934 
L 425 4581 
L 988 4581 
L 988 3934 
L 425 3934 
z
M 425 0 
L 425 3319 
L 988 3319 
L 988 0 
L 425 0 
z
" transform="scale(0.015625)"/>
     </defs>
     <use xlink:href="#ArialMT-4e"/>
     <use xlink:href="#ArialMT-75" x="72.216797"/>
     <use xlink:href="#ArialMT-63" x="127.832031"/>
     <use xlink:href="#ArialMT-6c" x="177.832031"/>
     <use xlink:href="#ArialMT-65" x="200.048828"/>
     <use xlink:href="#ArialMT-69" x="255.664062"/>
    </g>
   </g>
  </g>
 </g>
 <defs>
  <clipPath id="pb1a327c3e3">
   <rect x="76.325" y="7.2" width="741.092425" height="27.18"/>
  </clipPath>
 </defs>
</svg>
