<?xml version="1.0" encoding="utf-8" standalone="no"?>
<!DOCTYPE svg PUBLIC "-//W3C//DTD SVG 1.1//EN"
  "http://www.w3.org/Graphics/SVG/1.1/DTD/svg11.dtd">
<svg xmlns:xlink="http://www.w3.org/1999/xlink" width="986.2881pt" height="75.266437pt" viewBox="0 0 986.2881 75.266437" xmlns="http://www.w3.org/2000/svg" version="1.1">
 <metadata>
  <rdf:RDF xmlns:dc="http://purl.org/dc/elements/1.1/" xmlns:cc="http://creativecommons.org/ns#" xmlns:rdf="http://www.w3.org/1999/02/22-rdf-syntax-ns#">
   <cc:Work>
    <dc:type rdf:resource="http://purl.org/dc/dcmitype/StillImage"/>
    <dc:date>2022-05-11T11:54:01.144596</dc:date>
    <dc:format>image/svg+xml</dc:format>
    <dc:creator>
     <cc:Agent>
      <dc:title>Matplotlib v3.5.1, https://matplotlib.org/</dc:title>
     </cc:Agent>
    </dc:creator>
   </cc:Work>
  </rdf:RDF>
 </metadata>
 <defs>
  <style type="text/css">*{stroke-linejoin: round; stroke-linecap: butt}</style>
 </defs>
 <g id="figure_1">
  <g id="patch_1">
   <path d="M 0 75.266437 
L 986.2881 75.266437 
L 986.2881 0 
L 0 0 
z
" style="fill: #ffffff"/>
  </g>
  <g id="axes_1">
   <g id="patch_2">
    <path d="M 141.928125 34.38 
L 966.57599 34.38 
L 966.57599 7.2 
L 141.928125 7.2 
z
" style="fill: #ffffff"/>
   </g>
   <g id="matplotlib.axis_1">
    <g id="xtick_1">
     <g id="line2d_1"/>
     <g id="text_1">
      <!-- 1 -->
      <g style="fill: #262626" transform="translate(139.773676 54.216719)scale(0.15 -0.15)">
       <defs>
        <path id="ArialMT-31" d="M 2384 0 
L 1822 0 
L 1822 3584 
Q 1619 3391 1289 3197 
Q 959 3003 697 2906 
L 697 3450 
Q 1169 3672 1522 3987 
Q 1875 4303 2022 4600 
L 2384 4600 
L 2384 0 
z
" transform="scale(0.015625)"/>
       </defs>
       <use xlink:href="#ArialMT-31"/>
      </g>
     </g>
    </g>
    <g id="xtick_2">
     <g id="line2d_2"/>
     <g id="text_2">
      <!-- 175 -->
      <g style="fill: #262626" transform="translate(482.260457 54.216719)scale(0.15 -0.15)">
       <defs>
        <path id="ArialMT-37" d="M 303 3981 
L 303 4522 
L 3269 4522 
L 3269 4084 
Q 2831 3619 2401 2847 
Q 1972 2075 1738 1259 
Q 1569 684 1522 0 
L 944 0 
Q 953 541 1156 1306 
Q 1359 2072 1739 2783 
Q 2119 3494 2547 3981 
L 303 3981 
z
" transform="scale(0.015625)"/>
        <path id="ArialMT-35" d="M 266 1200 
L 856 1250 
Q 922 819 1161 601 
Q 1400 384 1738 384 
Q 2144 384 2425 690 
Q 2706 997 2706 1503 
Q 2706 1984 2436 2262 
Q 2166 2541 1728 2541 
Q 1456 2541 1237 2417 
Q 1019 2294 894 2097 
L 366 2166 
L 809 4519 
L 3088 4519 
L 3088 3981 
L 1259 3981 
L 1013 2750 
Q 1425 3038 1878 3038 
Q 2478 3038 2890 2622 
Q 3303 2206 3303 1553 
Q 3303 931 2941 478 
Q 2500 -78 1738 -78 
Q 1113 -78 717 272 
Q 322 622 266 1200 
z
" transform="scale(0.015625)"/>
       </defs>
       <use xlink:href="#ArialMT-31"/>
       <use xlink:href="#ArialMT-37" x="55.615234"/>
       <use xlink:href="#ArialMT-35" x="111.230469"/>
      </g>
     </g>
    </g>
    <g id="xtick_3">
     <g id="line2d_3"/>
     <g id="text_3">
      <!-- 359 -->
      <g style="fill: #262626" transform="translate(853.251183 54.216719)scale(0.15 -0.15)">
       <defs>
        <path id="ArialMT-33" d="M 269 1209 
L 831 1284 
Q 928 806 1161 595 
Q 1394 384 1728 384 
Q 2125 384 2398 659 
Q 2672 934 2672 1341 
Q 2672 1728 2419 1979 
Q 2166 2231 1775 2231 
Q 1616 2231 1378 2169 
L 1441 2663 
Q 1497 2656 1531 2656 
Q 1891 2656 2178 2843 
Q 2466 3031 2466 3422 
Q 2466 3731 2256 3934 
Q 2047 4138 1716 4138 
Q 1388 4138 1169 3931 
Q 950 3725 888 3313 
L 325 3413 
Q 428 3978 793 4289 
Q 1159 4600 1703 4600 
Q 2078 4600 2393 4439 
Q 2709 4278 2876 4000 
Q 3044 3722 3044 3409 
Q 3044 3113 2884 2869 
Q 2725 2625 2413 2481 
Q 2819 2388 3044 2092 
Q 3269 1797 3269 1353 
Q 3269 753 2831 336 
Q 2394 -81 1725 -81 
Q 1122 -81 723 278 
Q 325 638 269 1209 
z
" transform="scale(0.015625)"/>
        <path id="ArialMT-39" d="M 350 1059 
L 891 1109 
Q 959 728 1153 556 
Q 1347 384 1650 384 
Q 1909 384 2104 503 
Q 2300 622 2425 820 
Q 2550 1019 2634 1356 
Q 2719 1694 2719 2044 
Q 2719 2081 2716 2156 
Q 2547 1888 2255 1720 
Q 1963 1553 1622 1553 
Q 1053 1553 659 1965 
Q 266 2378 266 3053 
Q 266 3750 677 4175 
Q 1088 4600 1706 4600 
Q 2153 4600 2523 4359 
Q 2894 4119 3086 3673 
Q 3278 3228 3278 2384 
Q 3278 1506 3087 986 
Q 2897 466 2520 194 
Q 2144 -78 1638 -78 
Q 1100 -78 759 220 
Q 419 519 350 1059 
z
M 2653 3081 
Q 2653 3566 2395 3850 
Q 2138 4134 1775 4134 
Q 1400 4134 1122 3828 
Q 844 3522 844 3034 
Q 844 2597 1108 2323 
Q 1372 2050 1759 2050 
Q 2150 2050 2401 2323 
Q 2653 2597 2653 3081 
z
" transform="scale(0.015625)"/>
       </defs>
       <use xlink:href="#ArialMT-33"/>
       <use xlink:href="#ArialMT-35" x="55.615234"/>
       <use xlink:href="#ArialMT-39" x="111.230469"/>
      </g>
     </g>
    </g>
    <g id="xtick_4">
     <g id="line2d_4"/>
     <g id="text_4">
      <!-- 409 -->
      <g style="fill: #262626" transform="translate(954.063881 54.216719)scale(0.15 -0.15)">
       <defs>
        <path id="ArialMT-34" d="M 2069 0 
L 2069 1097 
L 81 1097 
L 81 1613 
L 2172 4581 
L 2631 4581 
L 2631 1613 
L 3250 1613 
L 3250 1097 
L 2631 1097 
L 2631 0 
L 2069 0 
z
M 2069 1613 
L 2069 3678 
L 634 1613 
L 2069 1613 
z
" transform="scale(0.015625)"/>
        <path id="ArialMT-30" d="M 266 2259 
Q 266 3072 433 3567 
Q 600 4063 929 4331 
Q 1259 4600 1759 4600 
Q 2128 4600 2406 4451 
Q 2684 4303 2865 4023 
Q 3047 3744 3150 3342 
Q 3253 2941 3253 2259 
Q 3253 1453 3087 958 
Q 2922 463 2592 192 
Q 2263 -78 1759 -78 
Q 1097 -78 719 397 
Q 266 969 266 2259 
z
M 844 2259 
Q 844 1131 1108 757 
Q 1372 384 1759 384 
Q 2147 384 2411 759 
Q 2675 1134 2675 2259 
Q 2675 3391 2411 3762 
Q 2147 4134 1753 4134 
Q 1366 4134 1134 3806 
Q 844 3388 844 2259 
z
" transform="scale(0.015625)"/>
       </defs>
       <use xlink:href="#ArialMT-34"/>
       <use xlink:href="#ArialMT-30" x="55.615234"/>
       <use xlink:href="#ArialMT-39" x="111.230469"/>
      </g>
     </g>
    </g>
   </g>
   <g id="matplotlib.axis_2">
    <g id="ytick_1">
     <g id="line2d_5"/>
     <g id="text_5">
      <!-- Protein_Synth -->
      <g style="fill: #262626" transform="translate(7.2 28.069687)scale(0.2 -0.2)">
       <defs>
        <path id="ArialMT-50" d="M 494 0 
L 494 4581 
L 2222 4581 
Q 2678 4581 2919 4538 
Q 3256 4481 3484 4323 
Q 3713 4166 3852 3881 
Q 3991 3597 3991 3256 
Q 3991 2672 3619 2267 
Q 3247 1863 2275 1863 
L 1100 1863 
L 1100 0 
L 494 0 
z
M 1100 2403 
L 2284 2403 
Q 2872 2403 3119 2622 
Q 3366 2841 3366 3238 
Q 3366 3525 3220 3729 
Q 3075 3934 2838 4000 
Q 2684 4041 2272 4041 
L 1100 4041 
L 1100 2403 
z
" transform="scale(0.015625)"/>
        <path id="ArialMT-72" d="M 416 0 
L 416 3319 
L 922 3319 
L 922 2816 
Q 1116 3169 1280 3281 
Q 1444 3394 1641 3394 
Q 1925 3394 2219 3213 
L 2025 2691 
Q 1819 2813 1613 2813 
Q 1428 2813 1281 2702 
Q 1134 2591 1072 2394 
Q 978 2094 978 1738 
L 978 0 
L 416 0 
z
" transform="scale(0.015625)"/>
        <path id="ArialMT-6f" d="M 213 1659 
Q 213 2581 725 3025 
Q 1153 3394 1769 3394 
Q 2453 3394 2887 2945 
Q 3322 2497 3322 1706 
Q 3322 1066 3130 698 
Q 2938 331 2570 128 
Q 2203 -75 1769 -75 
Q 1072 -75 642 372 
Q 213 819 213 1659 
z
M 791 1659 
Q 791 1022 1069 705 
Q 1347 388 1769 388 
Q 2188 388 2466 706 
Q 2744 1025 2744 1678 
Q 2744 2294 2464 2611 
Q 2184 2928 1769 2928 
Q 1347 2928 1069 2612 
Q 791 2297 791 1659 
z
" transform="scale(0.015625)"/>
        <path id="ArialMT-74" d="M 1650 503 
L 1731 6 
Q 1494 -44 1306 -44 
Q 1000 -44 831 53 
Q 663 150 594 308 
Q 525 466 525 972 
L 525 2881 
L 113 2881 
L 113 3319 
L 525 3319 
L 525 4141 
L 1084 4478 
L 1084 3319 
L 1650 3319 
L 1650 2881 
L 1084 2881 
L 1084 941 
Q 1084 700 1114 631 
Q 1144 563 1211 522 
Q 1278 481 1403 481 
Q 1497 481 1650 503 
z
" transform="scale(0.015625)"/>
        <path id="ArialMT-65" d="M 2694 1069 
L 3275 997 
Q 3138 488 2766 206 
Q 2394 -75 1816 -75 
Q 1088 -75 661 373 
Q 234 822 234 1631 
Q 234 2469 665 2931 
Q 1097 3394 1784 3394 
Q 2450 3394 2872 2941 
Q 3294 2488 3294 1666 
Q 3294 1616 3291 1516 
L 816 1516 
Q 847 969 1125 678 
Q 1403 388 1819 388 
Q 2128 388 2347 550 
Q 2566 713 2694 1069 
z
M 847 1978 
L 2700 1978 
Q 2663 2397 2488 2606 
Q 2219 2931 1791 2931 
Q 1403 2931 1139 2672 
Q 875 2413 847 1978 
z
" transform="scale(0.015625)"/>
        <path id="ArialMT-69" d="M 425 3934 
L 425 4581 
L 988 4581 
L 988 3934 
L 425 3934 
z
M 425 0 
L 425 3319 
L 988 3319 
L 988 0 
L 425 0 
z
" transform="scale(0.015625)"/>
        <path id="ArialMT-6e" d="M 422 0 
L 422 3319 
L 928 3319 
L 928 2847 
Q 1294 3394 1984 3394 
Q 2284 3394 2536 3286 
Q 2788 3178 2913 3003 
Q 3038 2828 3088 2588 
Q 3119 2431 3119 2041 
L 3119 0 
L 2556 0 
L 2556 2019 
Q 2556 2363 2490 2533 
Q 2425 2703 2258 2804 
Q 2091 2906 1866 2906 
Q 1506 2906 1245 2678 
Q 984 2450 984 1813 
L 984 0 
L 422 0 
z
" transform="scale(0.015625)"/>
        <path id="ArialMT-5f" d="M -97 -1272 
L -97 -866 
L 3631 -866 
L 3631 -1272 
L -97 -1272 
z
" transform="scale(0.015625)"/>
        <path id="ArialMT-53" d="M 288 1472 
L 859 1522 
Q 900 1178 1048 958 
Q 1197 738 1509 602 
Q 1822 466 2213 466 
Q 2559 466 2825 569 
Q 3091 672 3220 851 
Q 3350 1031 3350 1244 
Q 3350 1459 3225 1620 
Q 3100 1781 2813 1891 
Q 2628 1963 1997 2114 
Q 1366 2266 1113 2400 
Q 784 2572 623 2826 
Q 463 3081 463 3397 
Q 463 3744 659 4045 
Q 856 4347 1234 4503 
Q 1613 4659 2075 4659 
Q 2584 4659 2973 4495 
Q 3363 4331 3572 4012 
Q 3781 3694 3797 3291 
L 3216 3247 
Q 3169 3681 2898 3903 
Q 2628 4125 2100 4125 
Q 1550 4125 1298 3923 
Q 1047 3722 1047 3438 
Q 1047 3191 1225 3031 
Q 1400 2872 2139 2705 
Q 2878 2538 3153 2413 
Q 3553 2228 3743 1945 
Q 3934 1663 3934 1294 
Q 3934 928 3725 604 
Q 3516 281 3123 101 
Q 2731 -78 2241 -78 
Q 1619 -78 1198 103 
Q 778 284 539 648 
Q 300 1013 288 1472 
z
" transform="scale(0.015625)"/>
        <path id="ArialMT-79" d="M 397 -1278 
L 334 -750 
Q 519 -800 656 -800 
Q 844 -800 956 -737 
Q 1069 -675 1141 -563 
Q 1194 -478 1313 -144 
Q 1328 -97 1363 -6 
L 103 3319 
L 709 3319 
L 1400 1397 
Q 1534 1031 1641 628 
Q 1738 1016 1872 1384 
L 2581 3319 
L 3144 3319 
L 1881 -56 
Q 1678 -603 1566 -809 
Q 1416 -1088 1222 -1217 
Q 1028 -1347 759 -1347 
Q 597 -1347 397 -1278 
z
" transform="scale(0.015625)"/>
        <path id="ArialMT-68" d="M 422 0 
L 422 4581 
L 984 4581 
L 984 2938 
Q 1378 3394 1978 3394 
Q 2347 3394 2619 3248 
Q 2891 3103 3008 2847 
Q 3125 2591 3125 2103 
L 3125 0 
L 2563 0 
L 2563 2103 
Q 2563 2525 2380 2717 
Q 2197 2909 1863 2909 
Q 1613 2909 1392 2779 
Q 1172 2650 1078 2428 
Q 984 2206 984 1816 
L 984 0 
L 422 0 
z
" transform="scale(0.015625)"/>
       </defs>
       <use xlink:href="#ArialMT-50"/>
       <use xlink:href="#ArialMT-72" x="66.699219"/>
       <use xlink:href="#ArialMT-6f" x="100"/>
       <use xlink:href="#ArialMT-74" x="155.615234"/>
       <use xlink:href="#ArialMT-65" x="183.398438"/>
       <use xlink:href="#ArialMT-69" x="239.013672"/>
       <use xlink:href="#ArialMT-6e" x="261.230469"/>
       <use xlink:href="#ArialMT-5f" x="316.845703"/>
       <use xlink:href="#ArialMT-53" x="372.460938"/>
       <use xlink:href="#ArialMT-79" x="439.160156"/>
       <use xlink:href="#ArialMT-6e" x="489.160156"/>
       <use xlink:href="#ArialMT-74" x="544.775391"/>
       <use xlink:href="#ArialMT-68" x="572.558594"/>
      </g>
     </g>
    </g>
   </g>
   <g id="PolyCollection_1">
    <path d="M 141.928125 34.38 
L 141.928125 7.2 
L 143.944379 7.2 
L 143.944379 34.38 
L 141.928125 34.38 
z
" clip-path="url(#p8eedd73588)" style="fill: #6060ff"/>
    <path d="M 143.944379 34.38 
L 143.944379 7.2 
L 145.960633 7.2 
L 145.960633 34.38 
L 143.944379 34.38 
z
" clip-path="url(#p8eedd73588)" style="fill: #9090ff"/>
    <path d="M 145.960633 34.38 
L 145.960633 7.2 
L 147.976887 7.2 
L 147.976887 34.38 
L 145.960633 34.38 
z
" clip-path="url(#p8eedd73588)" style="fill: #8080ff"/>
    <path d="M 147.976887 34.38 
L 147.976887 7.2 
L 149.993141 7.2 
L 149.993141 34.38 
L 147.976887 34.38 
z
" clip-path="url(#p8eedd73588)" style="fill: #6c6cff"/>
    <path d="M 149.993141 34.38 
L 149.993141 7.2 
L 152.009395 7.2 
L 152.009395 34.38 
L 149.993141 34.38 
z
" clip-path="url(#p8eedd73588)" style="fill: #5a5aff"/>
    <path d="M 152.009395 34.38 
L 152.009395 7.2 
L 154.025649 7.2 
L 154.025649 34.38 
L 152.009395 34.38 
z
" clip-path="url(#p8eedd73588)" style="fill: #8080ff"/>
    <path d="M 154.025649 34.38 
L 154.025649 7.2 
L 156.041903 7.2 
L 156.041903 34.38 
L 154.025649 34.38 
z
" clip-path="url(#p8eedd73588)" style="fill: #c0c0ff"/>
    <path d="M 156.041903 34.38 
L 156.041903 7.2 
L 158.058157 7.2 
L 158.058157 34.38 
L 156.041903 34.38 
z
" clip-path="url(#p8eedd73588)" style="fill: #aaaaff"/>
    <path d="M 158.058157 34.38 
L 158.058157 7.2 
L 160.074411 7.2 
L 160.074411 34.38 
L 158.058157 34.38 
z
" clip-path="url(#p8eedd73588)" style="fill: #e8e8ff"/>
    <path d="M 160.074411 34.38 
L 160.074411 7.2 
L 162.090664 7.2 
L 162.090664 34.38 
L 160.074411 34.38 
z
" clip-path="url(#p8eedd73588)" style="fill: #ffd6d6"/>
    <path d="M 162.090664 34.38 
L 162.090664 7.2 
L 164.106918 7.2 
L 164.106918 34.38 
L 162.090664 34.38 
z
" clip-path="url(#p8eedd73588)" style="fill: #1e1eff"/>
    <path d="M 164.106918 34.38 
L 164.106918 7.2 
L 166.123172 7.2 
L 166.123172 34.38 
L 164.106918 34.38 
z
" clip-path="url(#p8eedd73588)" style="fill: #e2e2ff"/>
    <path d="M 166.123172 34.38 
L 166.123172 7.2 
L 168.139426 7.2 
L 168.139426 34.38 
L 166.123172 34.38 
z
" clip-path="url(#p8eedd73588)" style="fill: #dcdcff"/>
    <path d="M 168.139426 34.38 
L 168.139426 7.2 
L 170.15568 7.2 
L 170.15568 34.38 
L 168.139426 34.38 
z
" clip-path="url(#p8eedd73588)" style="fill: #c8c8ff"/>
    <path d="M 170.15568 34.38 
L 170.15568 7.2 
L 172.171934 7.2 
L 172.171934 34.38 
L 170.15568 34.38 
z
" clip-path="url(#p8eedd73588)" style="fill: #ffc8c8"/>
    <path d="M 172.171934 34.38 
L 172.171934 7.2 
L 174.188188 7.2 
L 174.188188 34.38 
L 172.171934 34.38 
z
" clip-path="url(#p8eedd73588)" style="fill: #e6e6ff"/>
    <path d="M 174.188188 34.38 
L 174.188188 7.2 
L 176.204442 7.2 
L 176.204442 34.38 
L 174.188188 34.38 
z
" clip-path="url(#p8eedd73588)" style="fill: #ffdada"/>
    <path d="M 176.204442 34.38 
L 176.204442 7.2 
L 178.220696 7.2 
L 178.220696 34.38 
L 176.204442 34.38 
z
" clip-path="url(#p8eedd73588)" style="fill: #ff5c5c"/>
    <path d="M 178.220696 34.38 
L 178.220696 7.2 
L 180.23695 7.2 
L 180.23695 34.38 
L 178.220696 34.38 
z
" clip-path="url(#p8eedd73588)" style="fill: #b8b8ff"/>
    <path d="M 180.23695 34.38 
L 180.23695 7.2 
L 182.253204 7.2 
L 182.253204 34.38 
L 180.23695 34.38 
z
" clip-path="url(#p8eedd73588)" style="fill: #5858ff"/>
    <path d="M 182.253204 34.38 
L 182.253204 7.2 
L 184.269458 7.2 
L 184.269458 34.38 
L 182.253204 34.38 
z
" clip-path="url(#p8eedd73588)" style="fill: #a4a4ff"/>
    <path d="M 184.269458 34.38 
L 184.269458 7.2 
L 186.285712 7.2 
L 186.285712 34.38 
L 184.269458 34.38 
z
" clip-path="url(#p8eedd73588)" style="fill: #fff0f0"/>
    <path d="M 186.285712 34.38 
L 186.285712 7.2 
L 188.301966 7.2 
L 188.301966 34.38 
L 186.285712 34.38 
z
" clip-path="url(#p8eedd73588)" style="fill: #ffd2d2"/>
    <path d="M 188.301966 34.38 
L 188.301966 7.2 
L 190.31822 7.2 
L 190.31822 34.38 
L 188.301966 34.38 
z
" clip-path="url(#p8eedd73588)" style="fill: #c8c8ff"/>
    <path d="M 190.31822 34.38 
L 190.31822 7.2 
L 192.334474 7.2 
L 192.334474 34.38 
L 190.31822 34.38 
z
" clip-path="url(#p8eedd73588)" style="fill: #d0d0ff"/>
    <path d="M 192.334474 34.38 
L 192.334474 7.2 
L 194.350728 7.2 
L 194.350728 34.38 
L 192.334474 34.38 
z
" clip-path="url(#p8eedd73588)" style="fill: #ceceff"/>
    <path d="M 194.350728 34.38 
L 194.350728 7.2 
L 196.366982 7.2 
L 196.366982 34.38 
L 194.350728 34.38 
z
" clip-path="url(#p8eedd73588)" style="fill: #bcbcff"/>
    <path d="M 196.366982 34.38 
L 196.366982 7.2 
L 198.383236 7.2 
L 198.383236 34.38 
L 196.366982 34.38 
z
" clip-path="url(#p8eedd73588)" style="fill: #c4c4ff"/>
    <path d="M 198.383236 34.38 
L 198.383236 7.2 
L 200.39949 7.2 
L 200.39949 34.38 
L 198.383236 34.38 
z
" clip-path="url(#p8eedd73588)" style="fill: #dadaff"/>
    <path d="M 200.39949 34.38 
L 200.39949 7.2 
L 202.415743 7.2 
L 202.415743 34.38 
L 200.39949 34.38 
z
" clip-path="url(#p8eedd73588)" style="fill: #d0d0ff"/>
    <path d="M 202.415743 34.38 
L 202.415743 7.2 
L 204.431997 7.2 
L 204.431997 34.38 
L 202.415743 34.38 
z
" clip-path="url(#p8eedd73588)" style="fill: #ffeeee"/>
    <path d="M 204.431997 34.38 
L 204.431997 7.2 
L 206.448251 7.2 
L 206.448251 34.38 
L 204.431997 34.38 
z
" clip-path="url(#p8eedd73588)" style="fill: #ffd4d4"/>
    <path d="M 206.448251 34.38 
L 206.448251 7.2 
L 208.464505 7.2 
L 208.464505 34.38 
L 206.448251 34.38 
z
" clip-path="url(#p8eedd73588)" style="fill: #8484ff"/>
    <path d="M 208.464505 34.38 
L 208.464505 7.2 
L 210.480759 7.2 
L 210.480759 34.38 
L 208.464505 34.38 
z
" clip-path="url(#p8eedd73588)" style="fill: #6666ff"/>
    <path d="M 210.480759 34.38 
L 210.480759 7.2 
L 212.497013 7.2 
L 212.497013 34.38 
L 210.480759 34.38 
z
" clip-path="url(#p8eedd73588)" style="fill: #7878ff"/>
    <path d="M 212.497013 34.38 
L 212.497013 7.2 
L 214.513267 7.2 
L 214.513267 34.38 
L 212.497013 34.38 
z
" clip-path="url(#p8eedd73588)" style="fill: #ececff"/>
    <path d="M 214.513267 34.38 
L 214.513267 7.2 
L 216.529521 7.2 
L 216.529521 34.38 
L 214.513267 34.38 
z
" clip-path="url(#p8eedd73588)" style="fill: #aaaaff"/>
    <path d="M 216.529521 34.38 
L 216.529521 7.2 
L 218.545775 7.2 
L 218.545775 34.38 
L 216.529521 34.38 
z
" clip-path="url(#p8eedd73588)" style="fill: #ff9898"/>
    <path d="M 218.545775 34.38 
L 218.545775 7.2 
L 220.562029 7.2 
L 220.562029 34.38 
L 218.545775 34.38 
z
" clip-path="url(#p8eedd73588)" style="fill: #ff7272"/>
    <path d="M 220.562029 34.38 
L 220.562029 7.2 
L 222.578283 7.2 
L 222.578283 34.38 
L 220.562029 34.38 
z
" clip-path="url(#p8eedd73588)" style="fill: #e0e0ff"/>
    <path d="M 222.578283 34.38 
L 222.578283 7.2 
L 224.594537 7.2 
L 224.594537 34.38 
L 222.578283 34.38 
z
" clip-path="url(#p8eedd73588)" style="fill: #e8e8ff"/>
    <path d="M 224.594537 34.38 
L 224.594537 7.2 
L 226.610791 7.2 
L 226.610791 34.38 
L 224.594537 34.38 
z
" clip-path="url(#p8eedd73588)" style="fill: #f6f6ff"/>
    <path d="M 226.610791 34.38 
L 226.610791 7.2 
L 228.627045 7.2 
L 228.627045 34.38 
L 226.610791 34.38 
z
" clip-path="url(#p8eedd73588)" style="fill: #ff7c7c"/>
    <path d="M 228.627045 34.38 
L 228.627045 7.2 
L 230.643299 7.2 
L 230.643299 34.38 
L 228.627045 34.38 
z
" clip-path="url(#p8eedd73588)" style="fill: #ffcaca"/>
    <path d="M 230.643299 34.38 
L 230.643299 7.2 
L 232.659553 7.2 
L 232.659553 34.38 
L 230.643299 34.38 
z
" clip-path="url(#p8eedd73588)" style="fill: #ffcece"/>
    <path d="M 232.659553 34.38 
L 232.659553 7.2 
L 234.675807 7.2 
L 234.675807 34.38 
L 232.659553 34.38 
z
" clip-path="url(#p8eedd73588)" style="fill: #ffacac"/>
    <path d="M 234.675807 34.38 
L 234.675807 7.2 
L 236.692061 7.2 
L 236.692061 34.38 
L 234.675807 34.38 
z
" clip-path="url(#p8eedd73588)" style="fill: #ff3232"/>
    <path d="M 236.692061 34.38 
L 236.692061 7.2 
L 238.708315 7.2 
L 238.708315 34.38 
L 236.692061 34.38 
z
" clip-path="url(#p8eedd73588)" style="fill: #ff3636"/>
    <path d="M 238.708315 34.38 
L 238.708315 7.2 
L 240.724569 7.2 
L 240.724569 34.38 
L 238.708315 34.38 
z
" clip-path="url(#p8eedd73588)" style="fill: #ffc4c4"/>
    <path d="M 240.724569 34.38 
L 240.724569 7.2 
L 242.740822 7.2 
L 242.740822 34.38 
L 240.724569 34.38 
z
" clip-path="url(#p8eedd73588)" style="fill: #fff8f8"/>
    <path d="M 242.740822 34.38 
L 242.740822 7.2 
L 244.757076 7.2 
L 244.757076 34.38 
L 242.740822 34.38 
z
" clip-path="url(#p8eedd73588)" style="fill: #f0f0ff"/>
    <path d="M 244.757076 34.38 
L 244.757076 7.2 
L 246.77333 7.2 
L 246.77333 34.38 
L 244.757076 34.38 
z
" clip-path="url(#p8eedd73588)" style="fill: #ffecec"/>
    <path d="M 246.77333 34.38 
L 246.77333 7.2 
L 248.789584 7.2 
L 248.789584 34.38 
L 246.77333 34.38 
z
" clip-path="url(#p8eedd73588)" style="fill: #ff4c4c"/>
    <path d="M 248.789584 34.38 
L 248.789584 7.2 
L 250.805838 7.2 
L 250.805838 34.38 
L 248.789584 34.38 
z
" clip-path="url(#p8eedd73588)" style="fill: #ff9494"/>
    <path d="M 250.805838 34.38 
L 250.805838 7.2 
L 252.822092 7.2 
L 252.822092 34.38 
L 250.805838 34.38 
z
" clip-path="url(#p8eedd73588)" style="fill: #ffb4b4"/>
    <path d="M 252.822092 34.38 
L 252.822092 7.2 
L 254.838346 7.2 
L 254.838346 34.38 
L 252.822092 34.38 
z
" clip-path="url(#p8eedd73588)" style="fill: #fff8f8"/>
    <path d="M 254.838346 34.38 
L 254.838346 7.2 
L 256.8546 7.2 
L 256.8546 34.38 
L 254.838346 34.38 
z
" clip-path="url(#p8eedd73588)" style="fill: #ff8686"/>
    <path d="M 256.8546 34.38 
L 256.8546 7.2 
L 258.870854 7.2 
L 258.870854 34.38 
L 256.8546 34.38 
z
" clip-path="url(#p8eedd73588)" style="fill: #f8f8ff"/>
    <path d="M 258.870854 34.38 
L 258.870854 7.2 
L 260.887108 7.2 
L 260.887108 34.38 
L 258.870854 34.38 
z
" clip-path="url(#p8eedd73588)" style="fill: #d0d0ff"/>
    <path d="M 260.887108 34.38 
L 260.887108 7.2 
L 262.903362 7.2 
L 262.903362 34.38 
L 260.887108 34.38 
z
" clip-path="url(#p8eedd73588)" style="fill: #fafaff"/>
    <path d="M 262.903362 34.38 
L 262.903362 7.2 
L 264.919616 7.2 
L 264.919616 34.38 
L 262.903362 34.38 
z
" clip-path="url(#p8eedd73588)" style="fill: #d0d0ff"/>
    <path d="M 264.919616 34.38 
L 264.919616 7.2 
L 266.93587 7.2 
L 266.93587 34.38 
L 264.919616 34.38 
z
" clip-path="url(#p8eedd73588)" style="fill: #ff0000"/>
    <path d="M 266.93587 34.38 
L 266.93587 7.2 
L 268.952124 7.2 
L 268.952124 34.38 
L 266.93587 34.38 
z
" clip-path="url(#p8eedd73588)" style="fill: #ffeeee"/>
    <path d="M 268.952124 34.38 
L 268.952124 7.2 
L 270.968378 7.2 
L 270.968378 34.38 
L 268.952124 34.38 
z
" clip-path="url(#p8eedd73588)" style="fill: #ff0000"/>
    <path d="M 270.968378 34.38 
L 270.968378 7.2 
L 272.984632 7.2 
L 272.984632 34.38 
L 270.968378 34.38 
z
" clip-path="url(#p8eedd73588)" style="fill: #ff9090"/>
    <path d="M 272.984632 34.38 
L 272.984632 7.2 
L 275.000886 7.2 
L 275.000886 34.38 
L 272.984632 34.38 
z
" clip-path="url(#p8eedd73588)" style="fill: #ffeeee"/>
    <path d="M 275.000886 34.38 
L 275.000886 7.2 
L 277.01714 7.2 
L 277.01714 34.38 
L 275.000886 34.38 
z
" clip-path="url(#p8eedd73588)" style="fill: #ff6060"/>
    <path d="M 277.01714 34.38 
L 277.01714 7.2 
L 279.033394 7.2 
L 279.033394 34.38 
L 277.01714 34.38 
z
" clip-path="url(#p8eedd73588)" style="fill: #ff6666"/>
    <path d="M 279.033394 34.38 
L 279.033394 7.2 
L 281.049648 7.2 
L 281.049648 34.38 
L 279.033394 34.38 
z
" clip-path="url(#p8eedd73588)" style="fill: #ff8c8c"/>
    <path d="M 281.049648 34.38 
L 281.049648 7.2 
L 283.065901 7.2 
L 283.065901 34.38 
L 281.049648 34.38 
z
" clip-path="url(#p8eedd73588)" style="fill: #fff2f2"/>
    <path d="M 283.065901 34.38 
L 283.065901 7.2 
L 285.082155 7.2 
L 285.082155 34.38 
L 283.065901 34.38 
z
" clip-path="url(#p8eedd73588)" style="fill: #ffeeee"/>
    <path d="M 285.082155 34.38 
L 285.082155 7.2 
L 287.098409 7.2 
L 287.098409 34.38 
L 285.082155 34.38 
z
" clip-path="url(#p8eedd73588)" style="fill: #e0e0ff"/>
    <path d="M 287.098409 34.38 
L 287.098409 7.2 
L 289.114663 7.2 
L 289.114663 34.38 
L 287.098409 34.38 
z
" clip-path="url(#p8eedd73588)" style="fill: #ffdcdc"/>
    <path d="M 289.114663 34.38 
L 289.114663 7.2 
L 291.130917 7.2 
L 291.130917 34.38 
L 289.114663 34.38 
z
" clip-path="url(#p8eedd73588)" style="fill: #ffd2d2"/>
    <path d="M 291.130917 34.38 
L 291.130917 7.2 
L 293.147171 7.2 
L 293.147171 34.38 
L 291.130917 34.38 
z
" clip-path="url(#p8eedd73588)" style="fill: #e0e0ff"/>
    <path d="M 293.147171 34.38 
L 293.147171 7.2 
L 295.163425 7.2 
L 295.163425 34.38 
L 293.147171 34.38 
z
" clip-path="url(#p8eedd73588)" style="fill: #e0e0ff"/>
    <path d="M 295.163425 34.38 
L 295.163425 7.2 
L 297.179679 7.2 
L 297.179679 34.38 
L 295.163425 34.38 
z
" clip-path="url(#p8eedd73588)" style="fill: #ffcece"/>
    <path d="M 297.179679 34.38 
L 297.179679 7.2 
L 299.195933 7.2 
L 299.195933 34.38 
L 297.179679 34.38 
z
" clip-path="url(#p8eedd73588)" style="fill: #fffcfc"/>
    <path d="M 299.195933 34.38 
L 299.195933 7.2 
L 301.212187 7.2 
L 301.212187 34.38 
L 299.195933 34.38 
z
" clip-path="url(#p8eedd73588)" style="fill: #dadaff"/>
    <path d="M 301.212187 34.38 
L 301.212187 7.2 
L 303.228441 7.2 
L 303.228441 34.38 
L 301.212187 34.38 
z
" clip-path="url(#p8eedd73588)" style="fill: #dadaff"/>
    <path d="M 303.228441 34.38 
L 303.228441 7.2 
L 305.244695 7.2 
L 305.244695 34.38 
L 303.228441 34.38 
z
" clip-path="url(#p8eedd73588)" style="fill: #d2d2ff"/>
    <path d="M 305.244695 34.38 
L 305.244695 7.2 
L 307.260949 7.2 
L 307.260949 34.38 
L 305.244695 34.38 
z
" clip-path="url(#p8eedd73588)" style="fill: #d6d6ff"/>
    <path d="M 307.260949 34.38 
L 307.260949 7.2 
L 309.277203 7.2 
L 309.277203 34.38 
L 307.260949 34.38 
z
" clip-path="url(#p8eedd73588)" style="fill: #d0d0ff"/>
    <path d="M 309.277203 34.38 
L 309.277203 7.2 
L 311.293457 7.2 
L 311.293457 34.38 
L 309.277203 34.38 
z
" clip-path="url(#p8eedd73588)" style="fill: #ceceff"/>
    <path d="M 311.293457 34.38 
L 311.293457 7.2 
L 313.309711 7.2 
L 313.309711 34.38 
L 311.293457 34.38 
z
" clip-path="url(#p8eedd73588)" style="fill: #a4a4ff"/>
    <path d="M 313.309711 34.38 
L 313.309711 7.2 
L 315.325965 7.2 
L 315.325965 34.38 
L 313.309711 34.38 
z
" clip-path="url(#p8eedd73588)" style="fill: #a4a4ff"/>
    <path d="M 315.325965 34.38 
L 315.325965 7.2 
L 317.342219 7.2 
L 317.342219 34.38 
L 315.325965 34.38 
z
" clip-path="url(#p8eedd73588)" style="fill: #9c9cff"/>
    <path d="M 317.342219 34.38 
L 317.342219 7.2 
L 319.358473 7.2 
L 319.358473 34.38 
L 317.342219 34.38 
z
" clip-path="url(#p8eedd73588)" style="fill: #ffbebe"/>
    <path d="M 319.358473 34.38 
L 319.358473 7.2 
L 321.374726 7.2 
L 321.374726 34.38 
L 319.358473 34.38 
z
" clip-path="url(#p8eedd73588)" style="fill: #ffc0c0"/>
    <path d="M 321.374726 34.38 
L 321.374726 7.2 
L 323.39098 7.2 
L 323.39098 34.38 
L 321.374726 34.38 
z
" clip-path="url(#p8eedd73588)" style="fill: #ff8686"/>
    <path d="M 323.39098 34.38 
L 323.39098 7.2 
L 325.407234 7.2 
L 325.407234 34.38 
L 323.39098 34.38 
z
" clip-path="url(#p8eedd73588)" style="fill: #ff6e6e"/>
    <path d="M 325.407234 34.38 
L 325.407234 7.2 
L 327.423488 7.2 
L 327.423488 34.38 
L 325.407234 34.38 
z
" clip-path="url(#p8eedd73588)" style="fill: #ff7878"/>
    <path d="M 327.423488 34.38 
L 327.423488 7.2 
L 329.439742 7.2 
L 329.439742 34.38 
L 327.423488 34.38 
z
" clip-path="url(#p8eedd73588)" style="fill: #ffd0d0"/>
    <path d="M 329.439742 34.38 
L 329.439742 7.2 
L 331.455996 7.2 
L 331.455996 34.38 
L 329.439742 34.38 
z
" clip-path="url(#p8eedd73588)" style="fill: #ffbaba"/>
    <path d="M 331.455996 34.38 
L 331.455996 7.2 
L 333.47225 7.2 
L 333.47225 34.38 
L 331.455996 34.38 
z
" clip-path="url(#p8eedd73588)" style="fill: #ffbaba"/>
    <path d="M 333.47225 34.38 
L 333.47225 7.2 
L 335.488504 7.2 
L 335.488504 34.38 
L 333.47225 34.38 
z
" clip-path="url(#p8eedd73588)" style="fill: #ff4646"/>
    <path d="M 335.488504 34.38 
L 335.488504 7.2 
L 337.504758 7.2 
L 337.504758 34.38 
L 335.488504 34.38 
z
" clip-path="url(#p8eedd73588)" style="fill: #ff5252"/>
    <path d="M 337.504758 34.38 
L 337.504758 7.2 
L 339.521012 7.2 
L 339.521012 34.38 
L 337.504758 34.38 
z
" clip-path="url(#p8eedd73588)" style="fill: #ff6a6a"/>
    <path d="M 339.521012 34.38 
L 339.521012 7.2 
L 341.537266 7.2 
L 341.537266 34.38 
L 339.521012 34.38 
z
" clip-path="url(#p8eedd73588)" style="fill: #7070ff"/>
    <path d="M 341.537266 34.38 
L 341.537266 7.2 
L 343.55352 7.2 
L 343.55352 34.38 
L 341.537266 34.38 
z
" clip-path="url(#p8eedd73588)" style="fill: #d8d8ff"/>
    <path d="M 343.55352 34.38 
L 343.55352 7.2 
L 345.569774 7.2 
L 345.569774 34.38 
L 343.55352 34.38 
z
" clip-path="url(#p8eedd73588)" style="fill: #a6a6ff"/>
    <path d="M 345.569774 34.38 
L 345.569774 7.2 
L 347.586028 7.2 
L 347.586028 34.38 
L 345.569774 34.38 
z
" clip-path="url(#p8eedd73588)" style="fill: #a8a8ff"/>
    <path d="M 347.586028 34.38 
L 347.586028 7.2 
L 349.602282 7.2 
L 349.602282 34.38 
L 347.586028 34.38 
z
" clip-path="url(#p8eedd73588)" style="fill: #e2e2ff"/>
    <path d="M 349.602282 34.38 
L 349.602282 7.2 
L 351.618536 7.2 
L 351.618536 34.38 
L 349.602282 34.38 
z
" clip-path="url(#p8eedd73588)" style="fill: #ccccff"/>
    <path d="M 351.618536 34.38 
L 351.618536 7.2 
L 353.63479 7.2 
L 353.63479 34.38 
L 351.618536 34.38 
z
" clip-path="url(#p8eedd73588)" style="fill: #ffeeee"/>
    <path d="M 353.63479 34.38 
L 353.63479 7.2 
L 355.651044 7.2 
L 355.651044 34.38 
L 353.63479 34.38 
z
" clip-path="url(#p8eedd73588)" style="fill: #ffdada"/>
    <path d="M 355.651044 34.38 
L 355.651044 7.2 
L 357.667298 7.2 
L 357.667298 34.38 
L 355.651044 34.38 
z
" clip-path="url(#p8eedd73588)" style="fill: #ffe2e2"/>
    <path d="M 357.667298 34.38 
L 357.667298 7.2 
L 359.683552 7.2 
L 359.683552 34.38 
L 357.667298 34.38 
z
" clip-path="url(#p8eedd73588)" style="fill: #6262ff"/>
    <path d="M 359.683552 34.38 
L 359.683552 7.2 
L 361.699805 7.2 
L 361.699805 34.38 
L 359.683552 34.38 
z
" clip-path="url(#p8eedd73588)" style="fill: #9494ff"/>
    <path d="M 361.699805 34.38 
L 361.699805 7.2 
L 363.716059 7.2 
L 363.716059 34.38 
L 361.699805 34.38 
z
" clip-path="url(#p8eedd73588)" style="fill: #ff8484"/>
    <path d="M 363.716059 34.38 
L 363.716059 7.2 
L 365.732313 7.2 
L 365.732313 34.38 
L 363.716059 34.38 
z
" clip-path="url(#p8eedd73588)" style="fill: #ffd6d6"/>
    <path d="M 365.732313 34.38 
L 365.732313 7.2 
L 367.748567 7.2 
L 367.748567 34.38 
L 365.732313 34.38 
z
" clip-path="url(#p8eedd73588)" style="fill: #ffd0d0"/>
    <path d="M 367.748567 34.38 
L 367.748567 7.2 
L 369.764821 7.2 
L 369.764821 34.38 
L 367.748567 34.38 
z
" clip-path="url(#p8eedd73588)" style="fill: #ffd6d6"/>
    <path d="M 369.764821 34.38 
L 369.764821 7.2 
L 371.781075 7.2 
L 371.781075 34.38 
L 369.764821 34.38 
z
" clip-path="url(#p8eedd73588)" style="fill: #ff7272"/>
    <path d="M 371.781075 34.38 
L 371.781075 7.2 
L 373.797329 7.2 
L 373.797329 34.38 
L 371.781075 34.38 
z
" clip-path="url(#p8eedd73588)" style="fill: #ff7070"/>
    <path d="M 373.797329 34.38 
L 373.797329 7.2 
L 375.813583 7.2 
L 375.813583 34.38 
L 373.797329 34.38 
z
" clip-path="url(#p8eedd73588)" style="fill: #ff5252"/>
    <path d="M 375.813583 34.38 
L 375.813583 7.2 
L 377.829837 7.2 
L 377.829837 34.38 
L 375.813583 34.38 
z
" clip-path="url(#p8eedd73588)" style="fill: #e0e0ff"/>
    <path d="M 377.829837 34.38 
L 377.829837 7.2 
L 379.846091 7.2 
L 379.846091 34.38 
L 377.829837 34.38 
z
" clip-path="url(#p8eedd73588)" style="fill: #e2e2ff"/>
    <path d="M 379.846091 34.38 
L 379.846091 7.2 
L 381.862345 7.2 
L 381.862345 34.38 
L 379.846091 34.38 
z
" clip-path="url(#p8eedd73588)" style="fill: #dadaff"/>
    <path d="M 381.862345 34.38 
L 381.862345 7.2 
L 383.878599 7.2 
L 383.878599 34.38 
L 381.862345 34.38 
z
" clip-path="url(#p8eedd73588)" style="fill: #d2d2ff"/>
    <path d="M 383.878599 34.38 
L 383.878599 7.2 
L 385.894853 7.2 
L 385.894853 34.38 
L 383.878599 34.38 
z
" clip-path="url(#p8eedd73588)" style="fill: #a2a2ff"/>
    <path d="M 385.894853 34.38 
L 385.894853 7.2 
L 387.911107 7.2 
L 387.911107 34.38 
L 385.894853 34.38 
z
" clip-path="url(#p8eedd73588)" style="fill: #b8b8ff"/>
    <path d="M 387.911107 34.38 
L 387.911107 7.2 
L 389.927361 7.2 
L 389.927361 34.38 
L 387.911107 34.38 
z
" clip-path="url(#p8eedd73588)" style="fill: #ffe2e2"/>
    <path d="M 389.927361 34.38 
L 389.927361 7.2 
L 391.943615 7.2 
L 391.943615 34.38 
L 389.927361 34.38 
z
" clip-path="url(#p8eedd73588)" style="fill: #ffe4e4"/>
    <path d="M 391.943615 34.38 
L 391.943615 7.2 
L 393.959869 7.2 
L 393.959869 34.38 
L 391.943615 34.38 
z
" clip-path="url(#p8eedd73588)" style="fill: #ffdcdc"/>
    <path d="M 393.959869 34.38 
L 393.959869 7.2 
L 395.976123 7.2 
L 395.976123 34.38 
L 393.959869 34.38 
z
" clip-path="url(#p8eedd73588)" style="fill: #ffe0e0"/>
    <path d="M 395.976123 34.38 
L 395.976123 7.2 
L 397.992377 7.2 
L 397.992377 34.38 
L 395.976123 34.38 
z
" clip-path="url(#p8eedd73588)" style="fill: #ff9c9c"/>
    <path d="M 397.992377 34.38 
L 397.992377 7.2 
L 400.008631 7.2 
L 400.008631 34.38 
L 397.992377 34.38 
z
" clip-path="url(#p8eedd73588)" style="fill: #ff8282"/>
    <path d="M 400.008631 34.38 
L 400.008631 7.2 
L 402.024884 7.2 
L 402.024884 34.38 
L 400.008631 34.38 
z
" clip-path="url(#p8eedd73588)" style="fill: #ff9090"/>
    <path d="M 402.024884 34.38 
L 402.024884 7.2 
L 404.041138 7.2 
L 404.041138 34.38 
L 402.024884 34.38 
z
" clip-path="url(#p8eedd73588)" style="fill: #ffd0d0"/>
    <path d="M 404.041138 34.38 
L 404.041138 7.2 
L 406.057392 7.2 
L 406.057392 34.38 
L 404.041138 34.38 
z
" clip-path="url(#p8eedd73588)" style="fill: #ffd0d0"/>
    <path d="M 406.057392 34.38 
L 406.057392 7.2 
L 408.073646 7.2 
L 408.073646 34.38 
L 406.057392 34.38 
z
" clip-path="url(#p8eedd73588)" style="fill: #ffcece"/>
    <path d="M 408.073646 34.38 
L 408.073646 7.2 
L 410.0899 7.2 
L 410.0899 34.38 
L 408.073646 34.38 
z
" clip-path="url(#p8eedd73588)" style="fill: #acacff"/>
    <path d="M 410.0899 34.38 
L 410.0899 7.2 
L 412.106154 7.2 
L 412.106154 34.38 
L 410.0899 34.38 
z
" clip-path="url(#p8eedd73588)" style="fill: #9a9aff"/>
    <path d="M 412.106154 34.38 
L 412.106154 7.2 
L 414.122408 7.2 
L 414.122408 34.38 
L 412.106154 34.38 
z
" clip-path="url(#p8eedd73588)" style="fill: #8888ff"/>
    <path d="M 414.122408 34.38 
L 414.122408 7.2 
L 416.138662 7.2 
L 416.138662 34.38 
L 414.122408 34.38 
z
" clip-path="url(#p8eedd73588)" style="fill: #d4d4ff"/>
    <path d="M 416.138662 34.38 
L 416.138662 7.2 
L 418.154916 7.2 
L 418.154916 34.38 
L 416.138662 34.38 
z
" clip-path="url(#p8eedd73588)" style="fill: #ceceff"/>
    <path d="M 418.154916 34.38 
L 418.154916 7.2 
L 420.17117 7.2 
L 420.17117 34.38 
L 418.154916 34.38 
z
" clip-path="url(#p8eedd73588)" style="fill: #c8c8ff"/>
    <path d="M 420.17117 34.38 
L 420.17117 7.2 
L 422.187424 7.2 
L 422.187424 34.38 
L 420.17117 34.38 
z
" clip-path="url(#p8eedd73588)" style="fill: #dedeff"/>
    <path d="M 422.187424 34.38 
L 422.187424 7.2 
L 424.203678 7.2 
L 424.203678 34.38 
L 422.187424 34.38 
z
" clip-path="url(#p8eedd73588)" style="fill: #5454ff"/>
    <path d="M 424.203678 34.38 
L 424.203678 7.2 
L 426.219932 7.2 
L 426.219932 34.38 
L 424.203678 34.38 
z
" clip-path="url(#p8eedd73588)" style="fill: #7a7aff"/>
    <path d="M 426.219932 34.38 
L 426.219932 7.2 
L 428.236186 7.2 
L 428.236186 34.38 
L 426.219932 34.38 
z
" clip-path="url(#p8eedd73588)" style="fill: #7070ff"/>
    <path d="M 428.236186 34.38 
L 428.236186 7.2 
L 430.25244 7.2 
L 430.25244 34.38 
L 428.236186 34.38 
z
" clip-path="url(#p8eedd73588)" style="fill: #ff3a3a"/>
    <path d="M 430.25244 34.38 
L 430.25244 7.2 
L 432.268694 7.2 
L 432.268694 34.38 
L 430.25244 34.38 
z
" clip-path="url(#p8eedd73588)" style="fill: #ff1010"/>
    <path d="M 432.268694 34.38 
L 432.268694 7.2 
L 434.284948 7.2 
L 434.284948 34.38 
L 432.268694 34.38 
z
" clip-path="url(#p8eedd73588)" style="fill: #ff1e1e"/>
    <path d="M 434.284948 34.38 
L 434.284948 7.2 
L 436.301202 7.2 
L 436.301202 34.38 
L 434.284948 34.38 
z
" clip-path="url(#p8eedd73588)" style="fill: #fff2f2"/>
    <path d="M 436.301202 34.38 
L 436.301202 7.2 
L 438.317456 7.2 
L 438.317456 34.38 
L 436.301202 34.38 
z
" clip-path="url(#p8eedd73588)" style="fill: #ffa6a6"/>
    <path d="M 438.317456 34.38 
L 438.317456 7.2 
L 440.33371 7.2 
L 440.33371 34.38 
L 438.317456 34.38 
z
" clip-path="url(#p8eedd73588)" style="fill: #ff9a9a"/>
    <path d="M 440.33371 34.38 
L 440.33371 7.2 
L 442.349963 7.2 
L 442.349963 34.38 
L 440.33371 34.38 
z
" clip-path="url(#p8eedd73588)" style="fill: #ffaaaa"/>
    <path d="M 442.349963 34.38 
L 442.349963 7.2 
L 444.366217 7.2 
L 444.366217 34.38 
L 442.349963 34.38 
z
" clip-path="url(#p8eedd73588)" style="fill: #ffe4e4"/>
    <path d="M 444.366217 34.38 
L 444.366217 7.2 
L 446.382471 7.2 
L 446.382471 34.38 
L 444.366217 34.38 
z
" clip-path="url(#p8eedd73588)" style="fill: #ffe8e8"/>
    <path d="M 446.382471 34.38 
L 446.382471 7.2 
L 448.398725 7.2 
L 448.398725 34.38 
L 446.382471 34.38 
z
" clip-path="url(#p8eedd73588)" style="fill: #ffe2e2"/>
    <path d="M 448.398725 34.38 
L 448.398725 7.2 
L 450.414979 7.2 
L 450.414979 34.38 
L 448.398725 34.38 
z
" clip-path="url(#p8eedd73588)" style="fill: #ffd4d4"/>
    <path d="M 450.414979 34.38 
L 450.414979 7.2 
L 452.431233 7.2 
L 452.431233 34.38 
L 450.414979 34.38 
z
" clip-path="url(#p8eedd73588)" style="fill: #ffd6d6"/>
    <path d="M 452.431233 34.38 
L 452.431233 7.2 
L 454.447487 7.2 
L 454.447487 34.38 
L 452.431233 34.38 
z
" clip-path="url(#p8eedd73588)" style="fill: #ffb8b8"/>
    <path d="M 454.447487 34.38 
L 454.447487 7.2 
L 456.463741 7.2 
L 456.463741 34.38 
L 454.447487 34.38 
z
" clip-path="url(#p8eedd73588)" style="fill: #ff9494"/>
    <path d="M 456.463741 34.38 
L 456.463741 7.2 
L 458.479995 7.2 
L 458.479995 34.38 
L 456.463741 34.38 
z
" clip-path="url(#p8eedd73588)" style="fill: #ff9696"/>
    <path d="M 458.479995 34.38 
L 458.479995 7.2 
L 460.496249 7.2 
L 460.496249 34.38 
L 458.479995 34.38 
z
" clip-path="url(#p8eedd73588)" style="fill: #ff7e7e"/>
    <path d="M 460.496249 34.38 
L 460.496249 7.2 
L 462.512503 7.2 
L 462.512503 34.38 
L 460.496249 34.38 
z
" clip-path="url(#p8eedd73588)" style="fill: #ff7070"/>
    <path d="M 462.512503 34.38 
L 462.512503 7.2 
L 464.528757 7.2 
L 464.528757 34.38 
L 462.512503 34.38 
z
" clip-path="url(#p8eedd73588)" style="fill: #ff6868"/>
    <path d="M 464.528757 34.38 
L 464.528757 7.2 
L 466.545011 7.2 
L 466.545011 34.38 
L 464.528757 34.38 
z
" clip-path="url(#p8eedd73588)" style="fill: #ffe8e8"/>
    <path d="M 466.545011 34.38 
L 466.545011 7.2 
L 468.561265 7.2 
L 468.561265 34.38 
L 466.545011 34.38 
z
" clip-path="url(#p8eedd73588)" style="fill: #fff0f0"/>
    <path d="M 468.561265 34.38 
L 468.561265 7.2 
L 470.577519 7.2 
L 470.577519 34.38 
L 468.561265 34.38 
z
" clip-path="url(#p8eedd73588)" style="fill: #fff0f0"/>
    <path d="M 470.577519 34.38 
L 470.577519 7.2 
L 472.593773 7.2 
L 472.593773 34.38 
L 470.577519 34.38 
z
" clip-path="url(#p8eedd73588)" style="fill: #ff7676"/>
    <path d="M 472.593773 34.38 
L 472.593773 7.2 
L 474.610027 7.2 
L 474.610027 34.38 
L 472.593773 34.38 
z
" clip-path="url(#p8eedd73588)" style="fill: #ff7e7e"/>
    <path d="M 474.610027 34.38 
L 474.610027 7.2 
L 476.626281 7.2 
L 476.626281 34.38 
L 474.610027 34.38 
z
" clip-path="url(#p8eedd73588)" style="fill: #ff8282"/>
    <path d="M 476.626281 34.38 
L 476.626281 7.2 
L 478.642535 7.2 
L 478.642535 34.38 
L 476.626281 34.38 
z
" clip-path="url(#p8eedd73588)" style="fill: #ff6868"/>
    <path d="M 478.642535 34.38 
L 478.642535 7.2 
L 480.658788 7.2 
L 480.658788 34.38 
L 478.642535 34.38 
z
" clip-path="url(#p8eedd73588)" style="fill: #ff7474"/>
    <path d="M 480.658788 34.38 
L 480.658788 7.2 
L 482.675042 7.2 
L 482.675042 34.38 
L 480.658788 34.38 
z
" clip-path="url(#p8eedd73588)" style="fill: #fff4f4"/>
    <path d="M 482.675042 34.38 
L 482.675042 7.2 
L 484.691296 7.2 
L 484.691296 34.38 
L 482.675042 34.38 
z
" clip-path="url(#p8eedd73588)" style="fill: #fff2f2"/>
    <path d="M 484.691296 34.38 
L 484.691296 7.2 
L 486.70755 7.2 
L 486.70755 34.38 
L 484.691296 34.38 
z
" clip-path="url(#p8eedd73588)" style="fill: #fff0f0"/>
    <path d="M 486.70755 34.38 
L 486.70755 7.2 
L 488.723804 7.2 
L 488.723804 34.38 
L 486.70755 34.38 
z
" clip-path="url(#p8eedd73588)" style="fill: #ff8282"/>
    <path d="M 488.723804 34.38 
L 488.723804 7.2 
L 490.740058 7.2 
L 490.740058 34.38 
L 488.723804 34.38 
z
" clip-path="url(#p8eedd73588)" style="fill: #ff6a6a"/>
    <path d="M 490.740058 34.38 
L 490.740058 7.2 
L 492.756312 7.2 
L 492.756312 34.38 
L 490.740058 34.38 
z
" clip-path="url(#p8eedd73588)" style="fill: #ff6868"/>
    <path d="M 492.756312 34.38 
L 492.756312 7.2 
L 494.772566 7.2 
L 494.772566 34.38 
L 492.756312 34.38 
z
" clip-path="url(#p8eedd73588)" style="fill: #7474ff"/>
    <path d="M 494.772566 34.38 
L 494.772566 7.2 
L 496.78882 7.2 
L 496.78882 34.38 
L 494.772566 34.38 
z
" clip-path="url(#p8eedd73588)" style="fill: #6c6cff"/>
    <path d="M 496.78882 34.38 
L 496.78882 7.2 
L 498.805074 7.2 
L 498.805074 34.38 
L 496.78882 34.38 
z
" clip-path="url(#p8eedd73588)" style="fill: #7c7cff"/>
    <path d="M 498.805074 34.38 
L 498.805074 7.2 
L 500.821328 7.2 
L 500.821328 34.38 
L 498.805074 34.38 
z
" clip-path="url(#p8eedd73588)" style="fill: #7878ff"/>
    <path d="M 500.821328 34.38 
L 500.821328 7.2 
L 502.837582 7.2 
L 502.837582 34.38 
L 500.821328 34.38 
z
" clip-path="url(#p8eedd73588)" style="fill: #ffe6e6"/>
    <path d="M 502.837582 34.38 
L 502.837582 7.2 
L 504.853836 7.2 
L 504.853836 34.38 
L 502.837582 34.38 
z
" clip-path="url(#p8eedd73588)" style="fill: #8282ff"/>
    <path d="M 504.853836 34.38 
L 504.853836 7.2 
L 506.87009 7.2 
L 506.87009 34.38 
L 504.853836 34.38 
z
" clip-path="url(#p8eedd73588)" style="fill: #d6d6ff"/>
    <path d="M 506.87009 34.38 
L 506.87009 7.2 
L 508.886344 7.2 
L 508.886344 34.38 
L 506.87009 34.38 
z
" clip-path="url(#p8eedd73588)" style="fill: #f0f0ff"/>
    <path d="M 508.886344 34.38 
L 508.886344 7.2 
L 510.902598 7.2 
L 510.902598 34.38 
L 508.886344 34.38 
z
" clip-path="url(#p8eedd73588)" style="fill: #bcbcff"/>
    <path d="M 510.902598 34.38 
L 510.902598 7.2 
L 512.918852 7.2 
L 512.918852 34.38 
L 510.902598 34.38 
z
" clip-path="url(#p8eedd73588)" style="fill: #ffb2b2"/>
    <path d="M 512.918852 34.38 
L 512.918852 7.2 
L 514.935106 7.2 
L 514.935106 34.38 
L 512.918852 34.38 
z
" clip-path="url(#p8eedd73588)" style="fill: #c2c2ff"/>
    <path d="M 514.935106 34.38 
L 514.935106 7.2 
L 516.95136 7.2 
L 516.95136 34.38 
L 514.935106 34.38 
z
" clip-path="url(#p8eedd73588)" style="fill: #e4e4ff"/>
    <path d="M 516.95136 34.38 
L 516.95136 7.2 
L 518.967614 7.2 
L 518.967614 34.38 
L 516.95136 34.38 
z
" clip-path="url(#p8eedd73588)" style="fill: #4c4cff"/>
    <path d="M 518.967614 34.38 
L 518.967614 7.2 
L 520.983867 7.2 
L 520.983867 34.38 
L 518.967614 34.38 
z
" clip-path="url(#p8eedd73588)" style="fill: #ffecec"/>
    <path d="M 520.983867 34.38 
L 520.983867 7.2 
L 523.000121 7.2 
L 523.000121 34.38 
L 520.983867 34.38 
z
" clip-path="url(#p8eedd73588)" style="fill: #ffeaea"/>
    <path d="M 523.000121 34.38 
L 523.000121 7.2 
L 525.016375 7.2 
L 525.016375 34.38 
L 523.000121 34.38 
z
" clip-path="url(#p8eedd73588)" style="fill: #ffc4c4"/>
    <path d="M 525.016375 34.38 
L 525.016375 7.2 
L 527.032629 7.2 
L 527.032629 34.38 
L 525.016375 34.38 
z
" clip-path="url(#p8eedd73588)" style="fill: #ff0e0e"/>
    <path d="M 527.032629 34.38 
L 527.032629 7.2 
L 529.048883 7.2 
L 529.048883 34.38 
L 527.032629 34.38 
z
" clip-path="url(#p8eedd73588)" style="fill: #acacff"/>
    <path d="M 529.048883 34.38 
L 529.048883 7.2 
L 531.065137 7.2 
L 531.065137 34.38 
L 529.048883 34.38 
z
" clip-path="url(#p8eedd73588)" style="fill: #b4b4ff"/>
    <path d="M 531.065137 34.38 
L 531.065137 7.2 
L 533.081391 7.2 
L 533.081391 34.38 
L 531.065137 34.38 
z
" clip-path="url(#p8eedd73588)" style="fill: #b4b4ff"/>
    <path d="M 533.081391 34.38 
L 533.081391 7.2 
L 535.097645 7.2 
L 535.097645 34.38 
L 533.081391 34.38 
z
" clip-path="url(#p8eedd73588)" style="fill: #2222ff"/>
    <path d="M 535.097645 34.38 
L 535.097645 7.2 
L 537.113899 7.2 
L 537.113899 34.38 
L 535.097645 34.38 
z
" clip-path="url(#p8eedd73588)" style="fill: #0000ff"/>
    <path d="M 537.113899 34.38 
L 537.113899 7.2 
L 539.130153 7.2 
L 539.130153 34.38 
L 537.113899 34.38 
z
" clip-path="url(#p8eedd73588)" style="fill: #0000ff"/>
    <path d="M 539.130153 34.38 
L 539.130153 7.2 
L 541.146407 7.2 
L 541.146407 34.38 
L 539.130153 34.38 
z
" clip-path="url(#p8eedd73588)" style="fill: #0000ff"/>
    <path d="M 541.146407 34.38 
L 541.146407 7.2 
L 543.162661 7.2 
L 543.162661 34.38 
L 541.146407 34.38 
z
" clip-path="url(#p8eedd73588)" style="fill: #0000ff"/>
    <path d="M 543.162661 34.38 
L 543.162661 7.2 
L 545.178915 7.2 
L 545.178915 34.38 
L 543.162661 34.38 
z
" clip-path="url(#p8eedd73588)" style="fill: #9c9cff"/>
    <path d="M 545.178915 34.38 
L 545.178915 7.2 
L 547.195169 7.2 
L 547.195169 34.38 
L 545.178915 34.38 
z
" clip-path="url(#p8eedd73588)" style="fill: #c0c0ff"/>
    <path d="M 547.195169 34.38 
L 547.195169 7.2 
L 549.211423 7.2 
L 549.211423 34.38 
L 547.195169 34.38 
z
" clip-path="url(#p8eedd73588)" style="fill: #babaff"/>
    <path d="M 549.211423 34.38 
L 549.211423 7.2 
L 551.227677 7.2 
L 551.227677 34.38 
L 549.211423 34.38 
z
" clip-path="url(#p8eedd73588)" style="fill: #c2c2ff"/>
    <path d="M 551.227677 34.38 
L 551.227677 7.2 
L 553.243931 7.2 
L 553.243931 34.38 
L 551.227677 34.38 
z
" clip-path="url(#p8eedd73588)" style="fill: #d2d2ff"/>
    <path d="M 553.243931 34.38 
L 553.243931 7.2 
L 555.260185 7.2 
L 555.260185 34.38 
L 553.243931 34.38 
z
" clip-path="url(#p8eedd73588)" style="fill: #acacff"/>
    <path d="M 555.260185 34.38 
L 555.260185 7.2 
L 557.276439 7.2 
L 557.276439 34.38 
L 555.260185 34.38 
z
" clip-path="url(#p8eedd73588)" style="fill: #8a8aff"/>
    <path d="M 557.276439 34.38 
L 557.276439 7.2 
L 559.292693 7.2 
L 559.292693 34.38 
L 557.276439 34.38 
z
" clip-path="url(#p8eedd73588)" style="fill: #8e8eff"/>
    <path d="M 559.292693 34.38 
L 559.292693 7.2 
L 561.308946 7.2 
L 561.308946 34.38 
L 559.292693 34.38 
z
" clip-path="url(#p8eedd73588)" style="fill: #d2d2ff"/>
    <path d="M 561.308946 34.38 
L 561.308946 7.2 
L 563.3252 7.2 
L 563.3252 34.38 
L 561.308946 34.38 
z
" clip-path="url(#p8eedd73588)" style="fill: #e0e0ff"/>
    <path d="M 563.3252 34.38 
L 563.3252 7.2 
L 565.341454 7.2 
L 565.341454 34.38 
L 563.3252 34.38 
z
" clip-path="url(#p8eedd73588)" style="fill: #0000ff"/>
    <path d="M 565.341454 34.38 
L 565.341454 7.2 
L 567.357708 7.2 
L 567.357708 34.38 
L 565.341454 34.38 
z
" clip-path="url(#p8eedd73588)" style="fill: #b8b8ff"/>
    <path d="M 567.357708 34.38 
L 567.357708 7.2 
L 569.373962 7.2 
L 569.373962 34.38 
L 567.357708 34.38 
z
" clip-path="url(#p8eedd73588)" style="fill: #2e2eff"/>
    <path d="M 569.373962 34.38 
L 569.373962 7.2 
L 571.390216 7.2 
L 571.390216 34.38 
L 569.373962 34.38 
z
" clip-path="url(#p8eedd73588)" style="fill: #a2a2ff"/>
    <path d="M 571.390216 34.38 
L 571.390216 7.2 
L 573.40647 7.2 
L 573.40647 34.38 
L 571.390216 34.38 
z
" clip-path="url(#p8eedd73588)" style="fill: #0000ff"/>
    <path d="M 573.40647 34.38 
L 573.40647 7.2 
L 575.422724 7.2 
L 575.422724 34.38 
L 573.40647 34.38 
z
" clip-path="url(#p8eedd73588)" style="fill: #2626ff"/>
    <path d="M 575.422724 34.38 
L 575.422724 7.2 
L 577.438978 7.2 
L 577.438978 34.38 
L 575.422724 34.38 
z
" clip-path="url(#p8eedd73588)" style="fill: #6666ff"/>
    <path d="M 577.438978 34.38 
L 577.438978 7.2 
L 579.455232 7.2 
L 579.455232 34.38 
L 577.438978 34.38 
z
" clip-path="url(#p8eedd73588)" style="fill: #e8e8ff"/>
    <path d="M 579.455232 34.38 
L 579.455232 7.2 
L 581.471486 7.2 
L 581.471486 34.38 
L 579.455232 34.38 
z
" clip-path="url(#p8eedd73588)" style="fill: #ffd6d6"/>
    <path d="M 581.471486 34.38 
L 581.471486 7.2 
L 583.48774 7.2 
L 583.48774 34.38 
L 581.471486 34.38 
z
" clip-path="url(#p8eedd73588)" style="fill: #a8a8ff"/>
    <path d="M 583.48774 34.38 
L 583.48774 7.2 
L 585.503994 7.2 
L 585.503994 34.38 
L 583.48774 34.38 
z
" clip-path="url(#p8eedd73588)" style="fill: #ff8888"/>
    <path d="M 585.503994 34.38 
L 585.503994 7.2 
L 587.520248 7.2 
L 587.520248 34.38 
L 585.503994 34.38 
z
" clip-path="url(#p8eedd73588)" style="fill: #ffacac"/>
    <path d="M 587.520248 34.38 
L 587.520248 7.2 
L 589.536502 7.2 
L 589.536502 34.38 
L 587.520248 34.38 
z
" clip-path="url(#p8eedd73588)" style="fill: #dadaff"/>
    <path d="M 589.536502 34.38 
L 589.536502 7.2 
L 591.552756 7.2 
L 591.552756 34.38 
L 589.536502 34.38 
z
" clip-path="url(#p8eedd73588)" style="fill: #ffd4d4"/>
    <path d="M 591.552756 34.38 
L 591.552756 7.2 
L 593.56901 7.2 
L 593.56901 34.38 
L 591.552756 34.38 
z
" clip-path="url(#p8eedd73588)" style="fill: #d6d6ff"/>
    <path d="M 593.56901 34.38 
L 593.56901 7.2 
L 595.585264 7.2 
L 595.585264 34.38 
L 593.56901 34.38 
z
" clip-path="url(#p8eedd73588)" style="fill: #ff3838"/>
    <path d="M 595.585264 34.38 
L 595.585264 7.2 
L 597.601518 7.2 
L 597.601518 34.38 
L 595.585264 34.38 
z
" clip-path="url(#p8eedd73588)" style="fill: #e2e2ff"/>
    <path d="M 597.601518 34.38 
L 597.601518 7.2 
L 599.617772 7.2 
L 599.617772 34.38 
L 597.601518 34.38 
z
" clip-path="url(#p8eedd73588)" style="fill: #f2f2ff"/>
    <path d="M 599.617772 34.38 
L 599.617772 7.2 
L 601.634025 7.2 
L 601.634025 34.38 
L 599.617772 34.38 
z
" clip-path="url(#p8eedd73588)" style="fill: #ff0404"/>
    <path d="M 601.634025 34.38 
L 601.634025 7.2 
L 603.650279 7.2 
L 603.650279 34.38 
L 601.634025 34.38 
z
" clip-path="url(#p8eedd73588)" style="fill: #ffe4e4"/>
    <path d="M 603.650279 34.38 
L 603.650279 7.2 
L 605.666533 7.2 
L 605.666533 34.38 
L 603.650279 34.38 
z
" clip-path="url(#p8eedd73588)" style="fill: #ffbcbc"/>
    <path d="M 605.666533 34.38 
L 605.666533 7.2 
L 607.682787 7.2 
L 607.682787 34.38 
L 605.666533 34.38 
z
" clip-path="url(#p8eedd73588)" style="fill: #ff9494"/>
    <path d="M 607.682787 34.38 
L 607.682787 7.2 
L 609.699041 7.2 
L 609.699041 34.38 
L 607.682787 34.38 
z
" clip-path="url(#p8eedd73588)" style="fill: #ff1010"/>
    <path d="M 609.699041 34.38 
L 609.699041 7.2 
L 611.715295 7.2 
L 611.715295 34.38 
L 609.699041 34.38 
z
" clip-path="url(#p8eedd73588)" style="fill: #ffa4a4"/>
    <path d="M 611.715295 34.38 
L 611.715295 7.2 
L 613.731549 7.2 
L 613.731549 34.38 
L 611.715295 34.38 
z
" clip-path="url(#p8eedd73588)" style="fill: #eaeaff"/>
    <path d="M 613.731549 34.38 
L 613.731549 7.2 
L 615.747803 7.2 
L 615.747803 34.38 
L 613.731549 34.38 
z
" clip-path="url(#p8eedd73588)" style="fill: #ff7c7c"/>
    <path d="M 615.747803 34.38 
L 615.747803 7.2 
L 617.764057 7.2 
L 617.764057 34.38 
L 615.747803 34.38 
z
" clip-path="url(#p8eedd73588)" style="fill: #ffa4a4"/>
    <path d="M 617.764057 34.38 
L 617.764057 7.2 
L 619.780311 7.2 
L 619.780311 34.38 
L 617.764057 34.38 
z
" clip-path="url(#p8eedd73588)" style="fill: #fff8f8"/>
    <path d="M 619.780311 34.38 
L 619.780311 7.2 
L 621.796565 7.2 
L 621.796565 34.38 
L 619.780311 34.38 
z
" clip-path="url(#p8eedd73588)" style="fill: #dcdcff"/>
    <path d="M 621.796565 34.38 
L 621.796565 7.2 
L 623.812819 7.2 
L 623.812819 34.38 
L 621.796565 34.38 
z
" clip-path="url(#p8eedd73588)" style="fill: #ff6e6e"/>
    <path d="M 623.812819 34.38 
L 623.812819 7.2 
L 625.829073 7.2 
L 625.829073 34.38 
L 623.812819 34.38 
z
" clip-path="url(#p8eedd73588)" style="fill: #ff7a7a"/>
    <path d="M 625.829073 34.38 
L 625.829073 7.2 
L 627.845327 7.2 
L 627.845327 34.38 
L 625.829073 34.38 
z
" clip-path="url(#p8eedd73588)" style="fill: #ffb2b2"/>
    <path d="M 627.845327 34.38 
L 627.845327 7.2 
L 629.861581 7.2 
L 629.861581 34.38 
L 627.845327 34.38 
z
" clip-path="url(#p8eedd73588)" style="fill: #ffd8d8"/>
    <path d="M 629.861581 34.38 
L 629.861581 7.2 
L 631.877835 7.2 
L 631.877835 34.38 
L 629.861581 34.38 
z
" clip-path="url(#p8eedd73588)" style="fill: #ffbebe"/>
    <path d="M 631.877835 34.38 
L 631.877835 7.2 
L 633.894089 7.2 
L 633.894089 34.38 
L 631.877835 34.38 
z
" clip-path="url(#p8eedd73588)" style="fill: #f8f8ff"/>
    <path d="M 633.894089 34.38 
L 633.894089 7.2 
L 635.910343 7.2 
L 635.910343 34.38 
L 633.894089 34.38 
z
" clip-path="url(#p8eedd73588)" style="fill: #d0d0ff"/>
    <path d="M 635.910343 34.38 
L 635.910343 7.2 
L 637.926597 7.2 
L 637.926597 34.38 
L 635.910343 34.38 
z
" clip-path="url(#p8eedd73588)" style="fill: #fafaff"/>
    <path d="M 637.926597 34.38 
L 637.926597 7.2 
L 639.94285 7.2 
L 639.94285 34.38 
L 637.926597 34.38 
z
" clip-path="url(#p8eedd73588)" style="fill: #d0d0ff"/>
    <path d="M 639.94285 34.38 
L 639.94285 7.2 
L 641.959104 7.2 
L 641.959104 34.38 
L 639.94285 34.38 
z
" clip-path="url(#p8eedd73588)" style="fill: #ff9e9e"/>
    <path d="M 641.959104 34.38 
L 641.959104 7.2 
L 643.975358 7.2 
L 643.975358 34.38 
L 641.959104 34.38 
z
" clip-path="url(#p8eedd73588)" style="fill: #ffd8d8"/>
    <path d="M 643.975358 34.38 
L 643.975358 7.2 
L 645.991612 7.2 
L 645.991612 34.38 
L 643.975358 34.38 
z
" clip-path="url(#p8eedd73588)" style="fill: #ff0000"/>
    <path d="M 645.991612 34.38 
L 645.991612 7.2 
L 648.007866 7.2 
L 648.007866 34.38 
L 645.991612 34.38 
z
" clip-path="url(#p8eedd73588)" style="fill: #ff8e8e"/>
    <path d="M 648.007866 34.38 
L 648.007866 7.2 
L 650.02412 7.2 
L 650.02412 34.38 
L 648.007866 34.38 
z
" clip-path="url(#p8eedd73588)" style="fill: #fff0f0"/>
    <path d="M 650.02412 34.38 
L 650.02412 7.2 
L 652.040374 7.2 
L 652.040374 34.38 
L 650.02412 34.38 
z
" clip-path="url(#p8eedd73588)" style="fill: #fffefe"/>
    <path d="M 652.040374 34.38 
L 652.040374 7.2 
L 654.056628 7.2 
L 654.056628 34.38 
L 652.040374 34.38 
z
" clip-path="url(#p8eedd73588)" style="fill: #ff5050"/>
    <path d="M 654.056628 34.38 
L 654.056628 7.2 
L 656.072882 7.2 
L 656.072882 34.38 
L 654.056628 34.38 
z
" clip-path="url(#p8eedd73588)" style="fill: #ffb4b4"/>
    <path d="M 656.072882 34.38 
L 656.072882 7.2 
L 658.089136 7.2 
L 658.089136 34.38 
L 656.072882 34.38 
z
" clip-path="url(#p8eedd73588)" style="fill: #fff8f8"/>
    <path d="M 658.089136 34.38 
L 658.089136 7.2 
L 660.10539 7.2 
L 660.10539 34.38 
L 658.089136 34.38 
z
" clip-path="url(#p8eedd73588)" style="fill: #ff9a9a"/>
    <path d="M 660.10539 34.38 
L 660.10539 7.2 
L 662.121644 7.2 
L 662.121644 34.38 
L 660.10539 34.38 
z
" clip-path="url(#p8eedd73588)" style="fill: #ff6060"/>
    <path d="M 662.121644 34.38 
L 662.121644 7.2 
L 664.137898 7.2 
L 664.137898 34.38 
L 662.121644 34.38 
z
" clip-path="url(#p8eedd73588)" style="fill: #ff6e6e"/>
    <path d="M 664.137898 34.38 
L 664.137898 7.2 
L 666.154152 7.2 
L 666.154152 34.38 
L 664.137898 34.38 
z
" clip-path="url(#p8eedd73588)" style="fill: #ff8484"/>
    <path d="M 666.154152 34.38 
L 666.154152 7.2 
L 668.170406 7.2 
L 668.170406 34.38 
L 666.154152 34.38 
z
" clip-path="url(#p8eedd73588)" style="fill: #ff8a8a"/>
    <path d="M 668.170406 34.38 
L 668.170406 7.2 
L 670.18666 7.2 
L 670.18666 34.38 
L 668.170406 34.38 
z
" clip-path="url(#p8eedd73588)" style="fill: #ffe8e8"/>
    <path d="M 670.18666 34.38 
L 670.18666 7.2 
L 672.202914 7.2 
L 672.202914 34.38 
L 670.18666 34.38 
z
" clip-path="url(#p8eedd73588)" style="fill: #c6c6ff"/>
    <path d="M 672.202914 34.38 
L 672.202914 7.2 
L 674.219168 7.2 
L 674.219168 34.38 
L 672.202914 34.38 
z
" clip-path="url(#p8eedd73588)" style="fill: #ffdcdc"/>
    <path d="M 674.219168 34.38 
L 674.219168 7.2 
L 676.235422 7.2 
L 676.235422 34.38 
L 674.219168 34.38 
z
" clip-path="url(#p8eedd73588)" style="fill: #ffeaea"/>
    <path d="M 676.235422 34.38 
L 676.235422 7.2 
L 678.251676 7.2 
L 678.251676 34.38 
L 676.235422 34.38 
z
" clip-path="url(#p8eedd73588)" style="fill: #ffdcdc"/>
    <path d="M 678.251676 34.38 
L 678.251676 7.2 
L 680.267929 7.2 
L 680.267929 34.38 
L 678.251676 34.38 
z
" clip-path="url(#p8eedd73588)" style="fill: #ffe8e8"/>
    <path d="M 680.267929 34.38 
L 680.267929 7.2 
L 682.284183 7.2 
L 682.284183 34.38 
L 680.267929 34.38 
z
" clip-path="url(#p8eedd73588)" style="fill: #ffdcdc"/>
    <path d="M 682.284183 34.38 
L 682.284183 7.2 
L 684.300437 7.2 
L 684.300437 34.38 
L 682.284183 34.38 
z
" clip-path="url(#p8eedd73588)" style="fill: #e0e0ff"/>
    <path d="M 684.300437 34.38 
L 684.300437 7.2 
L 686.316691 7.2 
L 686.316691 34.38 
L 684.300437 34.38 
z
" clip-path="url(#p8eedd73588)" style="fill: #ffe8e8"/>
    <path d="M 686.316691 34.38 
L 686.316691 7.2 
L 688.332945 7.2 
L 688.332945 34.38 
L 686.316691 34.38 
z
" clip-path="url(#p8eedd73588)" style="fill: #5c5cff"/>
    <path d="M 688.332945 34.38 
L 688.332945 7.2 
L 690.349199 7.2 
L 690.349199 34.38 
L 688.332945 34.38 
z
" clip-path="url(#p8eedd73588)" style="fill: #5e5eff"/>
    <path d="M 690.349199 34.38 
L 690.349199 7.2 
L 692.365453 7.2 
L 692.365453 34.38 
L 690.349199 34.38 
z
" clip-path="url(#p8eedd73588)" style="fill: #c4c4ff"/>
    <path d="M 692.365453 34.38 
L 692.365453 7.2 
L 694.381707 7.2 
L 694.381707 34.38 
L 692.365453 34.38 
z
" clip-path="url(#p8eedd73588)" style="fill: #c8c8ff"/>
    <path d="M 694.381707 34.38 
L 694.381707 7.2 
L 696.397961 7.2 
L 696.397961 34.38 
L 694.381707 34.38 
z
" clip-path="url(#p8eedd73588)" style="fill: #c2c2ff"/>
    <path d="M 696.397961 34.38 
L 696.397961 7.2 
L 698.414215 7.2 
L 698.414215 34.38 
L 696.397961 34.38 
z
" clip-path="url(#p8eedd73588)" style="fill: #b0b0ff"/>
    <path d="M 698.414215 34.38 
L 698.414215 7.2 
L 700.430469 7.2 
L 700.430469 34.38 
L 698.414215 34.38 
z
" clip-path="url(#p8eedd73588)" style="fill: #c8c8ff"/>
    <path d="M 700.430469 34.38 
L 700.430469 7.2 
L 702.446723 7.2 
L 702.446723 34.38 
L 700.430469 34.38 
z
" clip-path="url(#p8eedd73588)" style="fill: #bebeff"/>
    <path d="M 702.446723 34.38 
L 702.446723 7.2 
L 704.462977 7.2 
L 704.462977 34.38 
L 702.446723 34.38 
z
" clip-path="url(#p8eedd73588)" style="fill: #a2a2ff"/>
    <path d="M 704.462977 34.38 
L 704.462977 7.2 
L 706.479231 7.2 
L 706.479231 34.38 
L 704.462977 34.38 
z
" clip-path="url(#p8eedd73588)" style="fill: #9696ff"/>
    <path d="M 706.479231 34.38 
L 706.479231 7.2 
L 708.495485 7.2 
L 708.495485 34.38 
L 706.479231 34.38 
z
" clip-path="url(#p8eedd73588)" style="fill: #a4a4ff"/>
    <path d="M 708.495485 34.38 
L 708.495485 7.2 
L 710.511739 7.2 
L 710.511739 34.38 
L 708.495485 34.38 
z
" clip-path="url(#p8eedd73588)" style="fill: #ffb4b4"/>
    <path d="M 710.511739 34.38 
L 710.511739 7.2 
L 712.527993 7.2 
L 712.527993 34.38 
L 710.511739 34.38 
z
" clip-path="url(#p8eedd73588)" style="fill: #ff8c8c"/>
    <path d="M 712.527993 34.38 
L 712.527993 7.2 
L 714.544247 7.2 
L 714.544247 34.38 
L 712.527993 34.38 
z
" clip-path="url(#p8eedd73588)" style="fill: #ffa0a0"/>
    <path d="M 714.544247 34.38 
L 714.544247 7.2 
L 716.560501 7.2 
L 716.560501 34.38 
L 714.544247 34.38 
z
" clip-path="url(#p8eedd73588)" style="fill: #ff7c7c"/>
    <path d="M 716.560501 34.38 
L 716.560501 7.2 
L 718.576755 7.2 
L 718.576755 34.38 
L 716.560501 34.38 
z
" clip-path="url(#p8eedd73588)" style="fill: #ff5252"/>
    <path d="M 718.576755 34.38 
L 718.576755 7.2 
L 720.593008 7.2 
L 720.593008 34.38 
L 718.576755 34.38 
z
" clip-path="url(#p8eedd73588)" style="fill: #ff7e7e"/>
    <path d="M 720.593008 34.38 
L 720.593008 7.2 
L 722.609262 7.2 
L 722.609262 34.38 
L 720.593008 34.38 
z
" clip-path="url(#p8eedd73588)" style="fill: #ffd2d2"/>
    <path d="M 722.609262 34.38 
L 722.609262 7.2 
L 724.625516 7.2 
L 724.625516 34.38 
L 722.609262 34.38 
z
" clip-path="url(#p8eedd73588)" style="fill: #ffb2b2"/>
    <path d="M 724.625516 34.38 
L 724.625516 7.2 
L 726.64177 7.2 
L 726.64177 34.38 
L 724.625516 34.38 
z
" clip-path="url(#p8eedd73588)" style="fill: #ffc2c2"/>
    <path d="M 726.64177 34.38 
L 726.64177 7.2 
L 728.658024 7.2 
L 728.658024 34.38 
L 726.64177 34.38 
z
" clip-path="url(#p8eedd73588)" style="fill: #ff0606"/>
    <path d="M 728.658024 34.38 
L 728.658024 7.2 
L 730.674278 7.2 
L 730.674278 34.38 
L 728.658024 34.38 
z
" clip-path="url(#p8eedd73588)" style="fill: #ff3838"/>
    <path d="M 730.674278 34.38 
L 730.674278 7.2 
L 732.690532 7.2 
L 732.690532 34.38 
L 730.674278 34.38 
z
" clip-path="url(#p8eedd73588)" style="fill: #eaeaff"/>
    <path d="M 732.690532 34.38 
L 732.690532 7.2 
L 734.706786 7.2 
L 734.706786 34.38 
L 732.690532 34.38 
z
" clip-path="url(#p8eedd73588)" style="fill: #ffaaaa"/>
    <path d="M 734.706786 34.38 
L 734.706786 7.2 
L 736.72304 7.2 
L 736.72304 34.38 
L 734.706786 34.38 
z
" clip-path="url(#p8eedd73588)" style="fill: #ffb4b4"/>
    <path d="M 736.72304 34.38 
L 736.72304 7.2 
L 738.739294 7.2 
L 738.739294 34.38 
L 736.72304 34.38 
z
" clip-path="url(#p8eedd73588)" style="fill: #ffcccc"/>
    <path d="M 738.739294 34.38 
L 738.739294 7.2 
L 740.755548 7.2 
L 740.755548 34.38 
L 738.739294 34.38 
z
" clip-path="url(#p8eedd73588)" style="fill: #ffc6c6"/>
    <path d="M 740.755548 34.38 
L 740.755548 7.2 
L 742.771802 7.2 
L 742.771802 34.38 
L 740.755548 34.38 
z
" clip-path="url(#p8eedd73588)" style="fill: #ffcccc"/>
    <path d="M 742.771802 34.38 
L 742.771802 7.2 
L 744.788056 7.2 
L 744.788056 34.38 
L 742.771802 34.38 
z
" clip-path="url(#p8eedd73588)" style="fill: #ff6060"/>
    <path d="M 744.788056 34.38 
L 744.788056 7.2 
L 746.80431 7.2 
L 746.80431 34.38 
L 744.788056 34.38 
z
" clip-path="url(#p8eedd73588)" style="fill: #ff6868"/>
    <path d="M 746.80431 34.38 
L 746.80431 7.2 
L 748.820564 7.2 
L 748.820564 34.38 
L 746.80431 34.38 
z
" clip-path="url(#p8eedd73588)" style="fill: #ff6868"/>
    <path d="M 748.820564 34.38 
L 748.820564 7.2 
L 750.836818 7.2 
L 750.836818 34.38 
L 748.820564 34.38 
z
" clip-path="url(#p8eedd73588)" style="fill: #d8d8ff"/>
    <path d="M 750.836818 34.38 
L 750.836818 7.2 
L 752.853072 7.2 
L 752.853072 34.38 
L 750.836818 34.38 
z
" clip-path="url(#p8eedd73588)" style="fill: #dadaff"/>
    <path d="M 752.853072 34.38 
L 752.853072 7.2 
L 754.869326 7.2 
L 754.869326 34.38 
L 752.853072 34.38 
z
" clip-path="url(#p8eedd73588)" style="fill: #d0d0ff"/>
    <path d="M 754.869326 34.38 
L 754.869326 7.2 
L 756.88558 7.2 
L 756.88558 34.38 
L 754.869326 34.38 
z
" clip-path="url(#p8eedd73588)" style="fill: #babaff"/>
    <path d="M 756.88558 34.38 
L 756.88558 7.2 
L 758.901834 7.2 
L 758.901834 34.38 
L 756.88558 34.38 
z
" clip-path="url(#p8eedd73588)" style="fill: #9292ff"/>
    <path d="M 758.901834 34.38 
L 758.901834 7.2 
L 760.918087 7.2 
L 760.918087 34.38 
L 758.901834 34.38 
z
" clip-path="url(#p8eedd73588)" style="fill: #9696ff"/>
    <path d="M 760.918087 34.38 
L 760.918087 7.2 
L 762.934341 7.2 
L 762.934341 34.38 
L 760.918087 34.38 
z
" clip-path="url(#p8eedd73588)" style="fill: #ff8080"/>
    <path d="M 762.934341 34.38 
L 762.934341 7.2 
L 764.950595 7.2 
L 764.950595 34.38 
L 762.934341 34.38 
z
" clip-path="url(#p8eedd73588)" style="fill: #ff6262"/>
    <path d="M 764.950595 34.38 
L 764.950595 7.2 
L 766.966849 7.2 
L 766.966849 34.38 
L 764.950595 34.38 
z
" clip-path="url(#p8eedd73588)" style="fill: #ffc4c4"/>
    <path d="M 766.966849 34.38 
L 766.966849 7.2 
L 768.983103 7.2 
L 768.983103 34.38 
L 766.966849 34.38 
z
" clip-path="url(#p8eedd73588)" style="fill: #ffcaca"/>
    <path d="M 768.983103 34.38 
L 768.983103 7.2 
L 770.999357 7.2 
L 770.999357 34.38 
L 768.983103 34.38 
z
" clip-path="url(#p8eedd73588)" style="fill: #ffcaca"/>
    <path d="M 770.999357 34.38 
L 770.999357 7.2 
L 773.015611 7.2 
L 773.015611 34.38 
L 770.999357 34.38 
z
" clip-path="url(#p8eedd73588)" style="fill: #ffd0d0"/>
    <path d="M 773.015611 34.38 
L 773.015611 7.2 
L 775.031865 7.2 
L 775.031865 34.38 
L 773.015611 34.38 
z
" clip-path="url(#p8eedd73588)" style="fill: #ff8c8c"/>
    <path d="M 775.031865 34.38 
L 775.031865 7.2 
L 777.048119 7.2 
L 777.048119 34.38 
L 775.031865 34.38 
z
" clip-path="url(#p8eedd73588)" style="fill: #ff8484"/>
    <path d="M 777.048119 34.38 
L 777.048119 7.2 
L 779.064373 7.2 
L 779.064373 34.38 
L 777.048119 34.38 
z
" clip-path="url(#p8eedd73588)" style="fill: #ff8c8c"/>
    <path d="M 779.064373 34.38 
L 779.064373 7.2 
L 781.080627 7.2 
L 781.080627 34.38 
L 779.064373 34.38 
z
" clip-path="url(#p8eedd73588)" style="fill: #ff6262"/>
    <path d="M 781.080627 34.38 
L 781.080627 7.2 
L 783.096881 7.2 
L 783.096881 34.38 
L 781.080627 34.38 
z
" clip-path="url(#p8eedd73588)" style="fill: #5656ff"/>
    <path d="M 783.096881 34.38 
L 783.096881 7.2 
L 785.113135 7.2 
L 785.113135 34.38 
L 783.096881 34.38 
z
" clip-path="url(#p8eedd73588)" style="fill: #6868ff"/>
    <path d="M 785.113135 34.38 
L 785.113135 7.2 
L 787.129389 7.2 
L 787.129389 34.38 
L 785.113135 34.38 
z
" clip-path="url(#p8eedd73588)" style="fill: #5656ff"/>
    <path d="M 787.129389 34.38 
L 787.129389 7.2 
L 789.145643 7.2 
L 789.145643 34.38 
L 787.129389 34.38 
z
" clip-path="url(#p8eedd73588)" style="fill: #b4b4ff"/>
    <path d="M 789.145643 34.38 
L 789.145643 7.2 
L 791.161897 7.2 
L 791.161897 34.38 
L 789.145643 34.38 
z
" clip-path="url(#p8eedd73588)" style="fill: #c2c2ff"/>
    <path d="M 791.161897 34.38 
L 791.161897 7.2 
L 793.178151 7.2 
L 793.178151 34.38 
L 791.161897 34.38 
z
" clip-path="url(#p8eedd73588)" style="fill: #b4b4ff"/>
    <path d="M 793.178151 34.38 
L 793.178151 7.2 
L 795.194405 7.2 
L 795.194405 34.38 
L 793.178151 34.38 
z
" clip-path="url(#p8eedd73588)" style="fill: #c4c4ff"/>
    <path d="M 795.194405 34.38 
L 795.194405 7.2 
L 797.210659 7.2 
L 797.210659 34.38 
L 795.194405 34.38 
z
" clip-path="url(#p8eedd73588)" style="fill: #eeeeff"/>
    <path d="M 797.210659 34.38 
L 797.210659 7.2 
L 799.226912 7.2 
L 799.226912 34.38 
L 797.210659 34.38 
z
" clip-path="url(#p8eedd73588)" style="fill: #6464ff"/>
    <path d="M 799.226912 34.38 
L 799.226912 7.2 
L 801.243166 7.2 
L 801.243166 34.38 
L 799.226912 34.38 
z
" clip-path="url(#p8eedd73588)" style="fill: #7c7cff"/>
    <path d="M 801.243166 34.38 
L 801.243166 7.2 
L 803.25942 7.2 
L 803.25942 34.38 
L 801.243166 34.38 
z
" clip-path="url(#p8eedd73588)" style="fill: #7070ff"/>
    <path d="M 803.25942 34.38 
L 803.25942 7.2 
L 805.275674 7.2 
L 805.275674 34.38 
L 803.25942 34.38 
z
" clip-path="url(#p8eedd73588)" style="fill: #ffd6d6"/>
    <path d="M 805.275674 34.38 
L 805.275674 7.2 
L 807.291928 7.2 
L 807.291928 34.38 
L 805.275674 34.38 
z
" clip-path="url(#p8eedd73588)" style="fill: #fff6f6"/>
    <path d="M 807.291928 34.38 
L 807.291928 7.2 
L 809.308182 7.2 
L 809.308182 34.38 
L 807.291928 34.38 
z
" clip-path="url(#p8eedd73588)" style="fill: #ffb6b6"/>
    <path d="M 809.308182 34.38 
L 809.308182 7.2 
L 811.324436 7.2 
L 811.324436 34.38 
L 809.308182 34.38 
z
" clip-path="url(#p8eedd73588)" style="fill: #ffacac"/>
    <path d="M 811.324436 34.38 
L 811.324436 7.2 
L 813.34069 7.2 
L 813.34069 34.38 
L 811.324436 34.38 
z
" clip-path="url(#p8eedd73588)" style="fill: #ffb6b6"/>
    <path d="M 813.34069 34.38 
L 813.34069 7.2 
L 815.356944 7.2 
L 815.356944 34.38 
L 813.34069 34.38 
z
" clip-path="url(#p8eedd73588)" style="fill: #ffdada"/>
    <path d="M 815.356944 34.38 
L 815.356944 7.2 
L 817.373198 7.2 
L 817.373198 34.38 
L 815.356944 34.38 
z
" clip-path="url(#p8eedd73588)" style="fill: #ffd2d2"/>
    <path d="M 817.373198 34.38 
L 817.373198 7.2 
L 819.389452 7.2 
L 819.389452 34.38 
L 817.373198 34.38 
z
" clip-path="url(#p8eedd73588)" style="fill: #ffd6d6"/>
    <path d="M 819.389452 34.38 
L 819.389452 7.2 
L 821.405706 7.2 
L 821.405706 34.38 
L 819.389452 34.38 
z
" clip-path="url(#p8eedd73588)" style="fill: #ffcccc"/>
    <path d="M 821.405706 34.38 
L 821.405706 7.2 
L 823.42196 7.2 
L 823.42196 34.38 
L 821.405706 34.38 
z
" clip-path="url(#p8eedd73588)" style="fill: #ffcaca"/>
    <path d="M 823.42196 34.38 
L 823.42196 7.2 
L 825.438214 7.2 
L 825.438214 34.38 
L 823.42196 34.38 
z
" clip-path="url(#p8eedd73588)" style="fill: #ff7272"/>
    <path d="M 825.438214 34.38 
L 825.438214 7.2 
L 827.454468 7.2 
L 827.454468 34.38 
L 825.438214 34.38 
z
" clip-path="url(#p8eedd73588)" style="fill: #ff8a8a"/>
    <path d="M 827.454468 34.38 
L 827.454468 7.2 
L 829.470722 7.2 
L 829.470722 34.38 
L 827.454468 34.38 
z
" clip-path="url(#p8eedd73588)" style="fill: #ff8888"/>
    <path d="M 829.470722 34.38 
L 829.470722 7.2 
L 831.486976 7.2 
L 831.486976 34.38 
L 829.470722 34.38 
z
" clip-path="url(#p8eedd73588)" style="fill: #ff3e3e"/>
    <path d="M 831.486976 34.38 
L 831.486976 7.2 
L 833.50323 7.2 
L 833.50323 34.38 
L 831.486976 34.38 
z
" clip-path="url(#p8eedd73588)" style="fill: #ff5a5a"/>
    <path d="M 833.50323 34.38 
L 833.50323 7.2 
L 835.519484 7.2 
L 835.519484 34.38 
L 833.50323 34.38 
z
" clip-path="url(#p8eedd73588)" style="fill: #ff5050"/>
    <path d="M 835.519484 34.38 
L 835.519484 7.2 
L 837.535738 7.2 
L 837.535738 34.38 
L 835.519484 34.38 
z
" clip-path="url(#p8eedd73588)" style="fill: #ffeaea"/>
    <path d="M 837.535738 34.38 
L 837.535738 7.2 
L 839.551991 7.2 
L 839.551991 34.38 
L 837.535738 34.38 
z
" clip-path="url(#p8eedd73588)" style="fill: #fff6f6"/>
    <path d="M 839.551991 34.38 
L 839.551991 7.2 
L 841.568245 7.2 
L 841.568245 34.38 
L 839.551991 34.38 
z
" clip-path="url(#p8eedd73588)" style="fill: #ff5454"/>
    <path d="M 841.568245 34.38 
L 841.568245 7.2 
L 843.584499 7.2 
L 843.584499 34.38 
L 841.568245 34.38 
z
" clip-path="url(#p8eedd73588)" style="fill: #ff4040"/>
    <path d="M 843.584499 34.38 
L 843.584499 7.2 
L 845.600753 7.2 
L 845.600753 34.38 
L 843.584499 34.38 
z
" clip-path="url(#p8eedd73588)" style="fill: #ff4242"/>
    <path d="M 845.600753 34.38 
L 845.600753 7.2 
L 847.617007 7.2 
L 847.617007 34.38 
L 845.600753 34.38 
z
" clip-path="url(#p8eedd73588)" style="fill: #ff5e5e"/>
    <path d="M 847.617007 34.38 
L 847.617007 7.2 
L 849.633261 7.2 
L 849.633261 34.38 
L 847.617007 34.38 
z
" clip-path="url(#p8eedd73588)" style="fill: #ff5858"/>
    <path d="M 849.633261 34.38 
L 849.633261 7.2 
L 851.649515 7.2 
L 851.649515 34.38 
L 849.633261 34.38 
z
" clip-path="url(#p8eedd73588)" style="fill: #ff6666"/>
    <path d="M 851.649515 34.38 
L 851.649515 7.2 
L 853.665769 7.2 
L 853.665769 34.38 
L 851.649515 34.38 
z
" clip-path="url(#p8eedd73588)" style="fill: #fff4f4"/>
    <path d="M 853.665769 34.38 
L 853.665769 7.2 
L 855.682023 7.2 
L 855.682023 34.38 
L 853.665769 34.38 
z
" clip-path="url(#p8eedd73588)" style="fill: #ffe4e4"/>
    <path d="M 855.682023 34.38 
L 855.682023 7.2 
L 857.698277 7.2 
L 857.698277 34.38 
L 855.682023 34.38 
z
" clip-path="url(#p8eedd73588)" style="fill: #ffe8e8"/>
    <path d="M 857.698277 34.38 
L 857.698277 7.2 
L 859.714531 7.2 
L 859.714531 34.38 
L 857.698277 34.38 
z
" clip-path="url(#p8eedd73588)" style="fill: #ff3a3a"/>
    <path d="M 859.714531 34.38 
L 859.714531 7.2 
L 861.730785 7.2 
L 861.730785 34.38 
L 859.714531 34.38 
z
" clip-path="url(#p8eedd73588)" style="fill: #ff2626"/>
    <path d="M 861.730785 34.38 
L 861.730785 7.2 
L 863.747039 7.2 
L 863.747039 34.38 
L 861.730785 34.38 
z
" clip-path="url(#p8eedd73588)" style="fill: #ff3434"/>
    <path d="M 863.747039 34.38 
L 863.747039 7.2 
L 865.763293 7.2 
L 865.763293 34.38 
L 863.747039 34.38 
z
" clip-path="url(#p8eedd73588)" style="fill: #5656ff"/>
    <path d="M 865.763293 34.38 
L 865.763293 7.2 
L 867.779547 7.2 
L 867.779547 34.38 
L 865.763293 34.38 
z
" clip-path="url(#p8eedd73588)" style="fill: #a4a4ff"/>
    <path d="M 867.779547 34.38 
L 867.779547 7.2 
L 869.795801 7.2 
L 869.795801 34.38 
L 867.779547 34.38 
z
" clip-path="url(#p8eedd73588)" style="fill: #d2d2ff"/>
    <path d="M 869.795801 34.38 
L 869.795801 7.2 
L 871.812055 7.2 
L 871.812055 34.38 
L 869.795801 34.38 
z
" clip-path="url(#p8eedd73588)" style="fill: #ffe8e8"/>
    <path d="M 871.812055 34.38 
L 871.812055 7.2 
L 873.828309 7.2 
L 873.828309 34.38 
L 871.812055 34.38 
z
" clip-path="url(#p8eedd73588)" style="fill: #e8e8ff"/>
    <path d="M 873.828309 34.38 
L 873.828309 7.2 
L 875.844563 7.2 
L 875.844563 34.38 
L 873.828309 34.38 
z
" clip-path="url(#p8eedd73588)" style="fill: #d2d2ff"/>
    <path d="M 875.844563 34.38 
L 875.844563 7.2 
L 877.860817 7.2 
L 877.860817 34.38 
L 875.844563 34.38 
z
" clip-path="url(#p8eedd73588)" style="fill: #ffe6e6"/>
    <path d="M 877.860817 34.38 
L 877.860817 7.2 
L 879.87707 7.2 
L 879.87707 34.38 
L 877.860817 34.38 
z
" clip-path="url(#p8eedd73588)" style="fill: #a0a0ff"/>
    <path d="M 879.87707 34.38 
L 879.87707 7.2 
L 881.893324 7.2 
L 881.893324 34.38 
L 879.87707 34.38 
z
" clip-path="url(#p8eedd73588)" style="fill: #f4f4ff"/>
    <path d="M 881.893324 34.38 
L 881.893324 7.2 
L 883.909578 7.2 
L 883.909578 34.38 
L 881.893324 34.38 
z
" clip-path="url(#p8eedd73588)" style="fill: #bcbcff"/>
    <path d="M 883.909578 34.38 
L 883.909578 7.2 
L 885.925832 7.2 
L 885.925832 34.38 
L 883.909578 34.38 
z
" clip-path="url(#p8eedd73588)" style="fill: #d8d8ff"/>
    <path d="M 885.925832 34.38 
L 885.925832 7.2 
L 887.942086 7.2 
L 887.942086 34.38 
L 885.925832 34.38 
z
" clip-path="url(#p8eedd73588)" style="fill: #ff8e8e"/>
    <path d="M 887.942086 34.38 
L 887.942086 7.2 
L 889.95834 7.2 
L 889.95834 34.38 
L 887.942086 34.38 
z
" clip-path="url(#p8eedd73588)" style="fill: #fff4f4"/>
    <path d="M 889.95834 34.38 
L 889.95834 7.2 
L 891.974594 7.2 
L 891.974594 34.38 
L 889.95834 34.38 
z
" clip-path="url(#p8eedd73588)" style="fill: #ff9e9e"/>
    <path d="M 891.974594 34.38 
L 891.974594 7.2 
L 893.990848 7.2 
L 893.990848 34.38 
L 891.974594 34.38 
z
" clip-path="url(#p8eedd73588)" style="fill: #eaeaff"/>
    <path d="M 893.990848 34.38 
L 893.990848 7.2 
L 896.007102 7.2 
L 896.007102 34.38 
L 893.990848 34.38 
z
" clip-path="url(#p8eedd73588)" style="fill: #ffc4c4"/>
    <path d="M 896.007102 34.38 
L 896.007102 7.2 
L 898.023356 7.2 
L 898.023356 34.38 
L 896.007102 34.38 
z
" clip-path="url(#p8eedd73588)" style="fill: #ffaaaa"/>
    <path d="M 898.023356 34.38 
L 898.023356 7.2 
L 900.03961 7.2 
L 900.03961 34.38 
L 898.023356 34.38 
z
" clip-path="url(#p8eedd73588)" style="fill: #ffa6a6"/>
    <path d="M 900.03961 34.38 
L 900.03961 7.2 
L 902.055864 7.2 
L 902.055864 34.38 
L 900.03961 34.38 
z
" clip-path="url(#p8eedd73588)" style="fill: #ff9494"/>
    <path d="M 902.055864 34.38 
L 902.055864 7.2 
L 904.072118 7.2 
L 904.072118 34.38 
L 902.055864 34.38 
z
" clip-path="url(#p8eedd73588)" style="fill: #ffbaba"/>
    <path d="M 904.072118 34.38 
L 904.072118 7.2 
L 906.088372 7.2 
L 906.088372 34.38 
L 904.072118 34.38 
z
" clip-path="url(#p8eedd73588)" style="fill: #ffbaba"/>
    <path d="M 906.088372 34.38 
L 906.088372 7.2 
L 908.104626 7.2 
L 908.104626 34.38 
L 906.088372 34.38 
z
" clip-path="url(#p8eedd73588)" style="fill: #ffacac"/>
    <path d="M 908.104626 34.38 
L 908.104626 7.2 
L 910.12088 7.2 
L 910.12088 34.38 
L 908.104626 34.38 
z
" clip-path="url(#p8eedd73588)" style="fill: #ffe2e2"/>
    <path d="M 910.12088 34.38 
L 910.12088 7.2 
L 912.137134 7.2 
L 912.137134 34.38 
L 910.12088 34.38 
z
" clip-path="url(#p8eedd73588)" style="fill: #ececff"/>
    <path d="M 912.137134 34.38 
L 912.137134 7.2 
L 914.153388 7.2 
L 914.153388 34.38 
L 912.137134 34.38 
z
" clip-path="url(#p8eedd73588)" style="fill: #e2e2ff"/>
    <path d="M 914.153388 34.38 
L 914.153388 7.2 
L 916.169642 7.2 
L 916.169642 34.38 
L 914.153388 34.38 
z
" clip-path="url(#p8eedd73588)" style="fill: #d2d2ff"/>
    <path d="M 916.169642 34.38 
L 916.169642 7.2 
L 918.185896 7.2 
L 918.185896 34.38 
L 916.169642 34.38 
z
" clip-path="url(#p8eedd73588)" style="fill: #ffecec"/>
    <path d="M 918.185896 34.38 
L 918.185896 7.2 
L 920.202149 7.2 
L 920.202149 34.38 
L 918.185896 34.38 
z
" clip-path="url(#p8eedd73588)" style="fill: #ffcece"/>
    <path d="M 920.202149 34.38 
L 920.202149 7.2 
L 922.218403 7.2 
L 922.218403 34.38 
L 920.202149 34.38 
z
" clip-path="url(#p8eedd73588)" style="fill: #ffc8c8"/>
    <path d="M 922.218403 34.38 
L 922.218403 7.2 
L 924.234657 7.2 
L 924.234657 34.38 
L 922.218403 34.38 
z
" clip-path="url(#p8eedd73588)" style="fill: #babaff"/>
    <path d="M 924.234657 34.38 
L 924.234657 7.2 
L 926.250911 7.2 
L 926.250911 34.38 
L 924.234657 34.38 
z
" clip-path="url(#p8eedd73588)" style="fill: #eaeaff"/>
    <path d="M 926.250911 34.38 
L 926.250911 7.2 
L 928.267165 7.2 
L 928.267165 34.38 
L 926.250911 34.38 
z
" clip-path="url(#p8eedd73588)" style="fill: #ececff"/>
    <path d="M 928.267165 34.38 
L 928.267165 7.2 
L 930.283419 7.2 
L 930.283419 34.38 
L 928.267165 34.38 
z
" clip-path="url(#p8eedd73588)" style="fill: #e8e8ff"/>
    <path d="M 930.283419 34.38 
L 930.283419 7.2 
L 932.299673 7.2 
L 932.299673 34.38 
L 930.283419 34.38 
z
" clip-path="url(#p8eedd73588)" style="fill: #ffcccc"/>
    <path d="M 932.299673 34.38 
L 932.299673 7.2 
L 934.315927 7.2 
L 934.315927 34.38 
L 932.299673 34.38 
z
" clip-path="url(#p8eedd73588)" style="fill: #ffcccc"/>
    <path d="M 934.315927 34.38 
L 934.315927 7.2 
L 936.332181 7.2 
L 936.332181 34.38 
L 934.315927 34.38 
z
" clip-path="url(#p8eedd73588)" style="fill: #ffd8d8"/>
    <path d="M 936.332181 34.38 
L 936.332181 7.2 
L 938.348435 7.2 
L 938.348435 34.38 
L 936.332181 34.38 
z
" clip-path="url(#p8eedd73588)" style="fill: #ffdada"/>
    <path d="M 938.348435 34.38 
L 938.348435 7.2 
L 940.364689 7.2 
L 940.364689 34.38 
L 938.348435 34.38 
z
" clip-path="url(#p8eedd73588)" style="fill: #ffdada"/>
    <path d="M 940.364689 34.38 
L 940.364689 7.2 
L 942.380943 7.2 
L 942.380943 34.38 
L 940.364689 34.38 
z
" clip-path="url(#p8eedd73588)" style="fill: #ffdede"/>
    <path d="M 942.380943 34.38 
L 942.380943 7.2 
L 944.397197 7.2 
L 944.397197 34.38 
L 942.380943 34.38 
z
" clip-path="url(#p8eedd73588)" style="fill: #e4e4ff"/>
    <path d="M 944.397197 34.38 
L 944.397197 7.2 
L 946.413451 7.2 
L 946.413451 34.38 
L 944.397197 34.38 
z
" clip-path="url(#p8eedd73588)" style="fill: #d4d4ff"/>
    <path d="M 946.413451 34.38 
L 946.413451 7.2 
L 948.429705 7.2 
L 948.429705 34.38 
L 946.413451 34.38 
z
" clip-path="url(#p8eedd73588)" style="fill: #dedeff"/>
    <path d="M 948.429705 34.38 
L 948.429705 7.2 
L 950.445959 7.2 
L 950.445959 34.38 
L 948.429705 34.38 
z
" clip-path="url(#p8eedd73588)" style="fill: #fff4f4"/>
    <path d="M 950.445959 34.38 
L 950.445959 7.2 
L 952.462213 7.2 
L 952.462213 34.38 
L 950.445959 34.38 
z
" clip-path="url(#p8eedd73588)" style="fill: #ffd8d8"/>
    <path d="M 952.462213 34.38 
L 952.462213 7.2 
L 954.478467 7.2 
L 954.478467 34.38 
L 952.462213 34.38 
z
" clip-path="url(#p8eedd73588)" style="fill: #ffdede"/>
    <path d="M 954.478467 34.38 
L 954.478467 7.2 
L 956.494721 7.2 
L 956.494721 34.38 
L 954.478467 34.38 
z
" clip-path="url(#p8eedd73588)" style="fill: #f2f2ff"/>
    <path d="M 956.494721 34.38 
L 956.494721 7.2 
L 958.510974 7.2 
L 958.510974 34.38 
L 956.494721 34.38 
z
" clip-path="url(#p8eedd73588)" style="fill: #dcdcff"/>
    <path d="M 958.510974 34.38 
L 958.510974 7.2 
L 960.527228 7.2 
L 960.527228 34.38 
L 958.510974 34.38 
z
" clip-path="url(#p8eedd73588)" style="fill: #e6e6ff"/>
    <path d="M 960.527228 34.38 
L 960.527228 7.2 
L 962.543482 7.2 
L 962.543482 34.38 
L 960.527228 34.38 
z
" clip-path="url(#p8eedd73588)" style="fill: #ff9a9a"/>
    <path d="M 962.543482 34.38 
L 962.543482 7.2 
L 964.559736 7.2 
L 964.559736 34.38 
L 962.543482 34.38 
z
" clip-path="url(#p8eedd73588)" style="fill: #ffa0a0"/>
    <path d="M 964.559736 34.38 
L 964.559736 7.2 
L 966.57599 7.2 
L 966.57599 34.38 
L 964.559736 34.38 
z
" clip-path="url(#p8eedd73588)" style="fill: #ffa0a0"/>
   </g>
   <g id="patch_3">
    <path d="M 141.928125 34.38 
L 141.928125 7.2 
" style="fill: none; stroke: #262626; stroke-width: 1.25; stroke-linejoin: miter; stroke-linecap: square"/>
   </g>
   <g id="patch_4">
    <path d="M 966.57599 34.38 
L 966.57599 7.2 
" style="fill: none; stroke: #262626; stroke-width: 1.25; stroke-linejoin: miter; stroke-linecap: square"/>
   </g>
   <g id="patch_5">
    <path d="M 141.928125 34.38 
L 966.57599 34.38 
" style="fill: none; stroke: #262626; stroke-width: 1.25; stroke-linejoin: miter; stroke-linecap: square"/>
   </g>
   <g id="patch_6">
    <path d="M 141.928125 7.2 
L 966.57599 7.2 
" style="fill: none; stroke: #262626; stroke-width: 1.25; stroke-linejoin: miter; stroke-linecap: square"/>
   </g>
   <g id="text_6">
    <!-- Cells -->
    <g style="fill: #262626" transform="translate(297.338312 64.278)scale(0.18 -0.18)">
     <defs>
      <path id="ArialMT-43" d="M 3763 1606 
L 4369 1453 
Q 4178 706 3683 314 
Q 3188 -78 2472 -78 
Q 1731 -78 1267 223 
Q 803 525 561 1097 
Q 319 1669 319 2325 
Q 319 3041 592 3573 
Q 866 4106 1370 4382 
Q 1875 4659 2481 4659 
Q 3169 4659 3637 4309 
Q 4106 3959 4291 3325 
L 3694 3184 
Q 3534 3684 3231 3912 
Q 2928 4141 2469 4141 
Q 1941 4141 1586 3887 
Q 1231 3634 1087 3207 
Q 944 2781 944 2328 
Q 944 1744 1114 1308 
Q 1284 872 1643 656 
Q 2003 441 2422 441 
Q 2931 441 3284 734 
Q 3638 1028 3763 1606 
z
" transform="scale(0.015625)"/>
      <path id="ArialMT-6c" d="M 409 0 
L 409 4581 
L 972 4581 
L 972 0 
L 409 0 
z
" transform="scale(0.015625)"/>
      <path id="ArialMT-73" d="M 197 991 
L 753 1078 
Q 800 744 1014 566 
Q 1228 388 1613 388 
Q 2000 388 2187 545 
Q 2375 703 2375 916 
Q 2375 1106 2209 1216 
Q 2094 1291 1634 1406 
Q 1016 1563 777 1677 
Q 538 1791 414 1992 
Q 291 2194 291 2438 
Q 291 2659 392 2848 
Q 494 3038 669 3163 
Q 800 3259 1026 3326 
Q 1253 3394 1513 3394 
Q 1903 3394 2198 3281 
Q 2494 3169 2634 2976 
Q 2775 2784 2828 2463 
L 2278 2388 
Q 2241 2644 2061 2787 
Q 1881 2931 1553 2931 
Q 1166 2931 1000 2803 
Q 834 2675 834 2503 
Q 834 2394 903 2306 
Q 972 2216 1119 2156 
Q 1203 2125 1616 2013 
Q 2213 1853 2448 1751 
Q 2684 1650 2818 1456 
Q 2953 1263 2953 975 
Q 2953 694 2789 445 
Q 2625 197 2315 61 
Q 2006 -75 1616 -75 
Q 969 -75 630 194 
Q 291 463 197 991 
z
" transform="scale(0.015625)"/>
     </defs>
     <use xlink:href="#ArialMT-43"/>
     <use xlink:href="#ArialMT-65" x="72.216797"/>
     <use xlink:href="#ArialMT-6c" x="127.832031"/>
     <use xlink:href="#ArialMT-6c" x="150.048828"/>
     <use xlink:href="#ArialMT-73" x="172.265625"/>
    </g>
   </g>
   <g id="text_7">
    <!-- Cytoplasm -->
    <g style="fill: #262626" transform="translate(637.756992 64.278)scale(0.18 -0.18)">
     <defs>
      <path id="ArialMT-70" d="M 422 -1272 
L 422 3319 
L 934 3319 
L 934 2888 
Q 1116 3141 1344 3267 
Q 1572 3394 1897 3394 
Q 2322 3394 2647 3175 
Q 2972 2956 3137 2557 
Q 3303 2159 3303 1684 
Q 3303 1175 3120 767 
Q 2938 359 2589 142 
Q 2241 -75 1856 -75 
Q 1575 -75 1351 44 
Q 1128 163 984 344 
L 984 -1272 
L 422 -1272 
z
M 931 1641 
Q 931 1000 1190 694 
Q 1450 388 1819 388 
Q 2194 388 2461 705 
Q 2728 1022 2728 1688 
Q 2728 2322 2467 2637 
Q 2206 2953 1844 2953 
Q 1484 2953 1207 2617 
Q 931 2281 931 1641 
z
" transform="scale(0.015625)"/>
      <path id="ArialMT-61" d="M 2588 409 
Q 2275 144 1986 34 
Q 1697 -75 1366 -75 
Q 819 -75 525 192 
Q 231 459 231 875 
Q 231 1119 342 1320 
Q 453 1522 633 1644 
Q 813 1766 1038 1828 
Q 1203 1872 1538 1913 
Q 2219 1994 2541 2106 
Q 2544 2222 2544 2253 
Q 2544 2597 2384 2738 
Q 2169 2928 1744 2928 
Q 1347 2928 1158 2789 
Q 969 2650 878 2297 
L 328 2372 
Q 403 2725 575 2942 
Q 747 3159 1072 3276 
Q 1397 3394 1825 3394 
Q 2250 3394 2515 3294 
Q 2781 3194 2906 3042 
Q 3031 2891 3081 2659 
Q 3109 2516 3109 2141 
L 3109 1391 
Q 3109 606 3145 398 
Q 3181 191 3288 0 
L 2700 0 
Q 2613 175 2588 409 
z
M 2541 1666 
Q 2234 1541 1622 1453 
Q 1275 1403 1131 1340 
Q 988 1278 909 1158 
Q 831 1038 831 891 
Q 831 666 1001 516 
Q 1172 366 1500 366 
Q 1825 366 2078 508 
Q 2331 650 2450 897 
Q 2541 1088 2541 1459 
L 2541 1666 
z
" transform="scale(0.015625)"/>
      <path id="ArialMT-6d" d="M 422 0 
L 422 3319 
L 925 3319 
L 925 2853 
Q 1081 3097 1340 3245 
Q 1600 3394 1931 3394 
Q 2300 3394 2536 3241 
Q 2772 3088 2869 2813 
Q 3263 3394 3894 3394 
Q 4388 3394 4653 3120 
Q 4919 2847 4919 2278 
L 4919 0 
L 4359 0 
L 4359 2091 
Q 4359 2428 4304 2576 
Q 4250 2725 4106 2815 
Q 3963 2906 3769 2906 
Q 3419 2906 3187 2673 
Q 2956 2441 2956 1928 
L 2956 0 
L 2394 0 
L 2394 2156 
Q 2394 2531 2256 2718 
Q 2119 2906 1806 2906 
Q 1569 2906 1367 2781 
Q 1166 2656 1075 2415 
Q 984 2175 984 1722 
L 984 0 
L 422 0 
z
" transform="scale(0.015625)"/>
     </defs>
     <use xlink:href="#ArialMT-43"/>
     <use xlink:href="#ArialMT-79" x="72.216797"/>
     <use xlink:href="#ArialMT-74" x="122.216797"/>
     <use xlink:href="#ArialMT-6f" x="150"/>
     <use xlink:href="#ArialMT-70" x="205.615234"/>
     <use xlink:href="#ArialMT-6c" x="261.230469"/>
     <use xlink:href="#ArialMT-61" x="283.447266"/>
     <use xlink:href="#ArialMT-73" x="339.0625"/>
     <use xlink:href="#ArialMT-6d" x="389.0625"/>
    </g>
   </g>
   <g id="text_8">
    <!-- Nuclei -->
    <g style="fill: #262626" transform="translate(891.160892 64.278)scale(0.18 -0.18)">
     <defs>
      <path id="ArialMT-4e" d="M 488 0 
L 488 4581 
L 1109 4581 
L 3516 984 
L 3516 4581 
L 4097 4581 
L 4097 0 
L 3475 0 
L 1069 3600 
L 1069 0 
L 488 0 
z
" transform="scale(0.015625)"/>
      <path id="ArialMT-75" d="M 2597 0 
L 2597 488 
Q 2209 -75 1544 -75 
Q 1250 -75 995 37 
Q 741 150 617 320 
Q 494 491 444 738 
Q 409 903 409 1263 
L 409 3319 
L 972 3319 
L 972 1478 
Q 972 1038 1006 884 
Q 1059 663 1231 536 
Q 1403 409 1656 409 
Q 1909 409 2131 539 
Q 2353 669 2445 892 
Q 2538 1116 2538 1541 
L 2538 3319 
L 3100 3319 
L 3100 0 
L 2597 0 
z
" transform="scale(0.015625)"/>
      <path id="ArialMT-63" d="M 2588 1216 
L 3141 1144 
Q 3050 572 2676 248 
Q 2303 -75 1759 -75 
Q 1078 -75 664 370 
Q 250 816 250 1647 
Q 250 2184 428 2587 
Q 606 2991 970 3192 
Q 1334 3394 1763 3394 
Q 2303 3394 2647 3120 
Q 2991 2847 3088 2344 
L 2541 2259 
Q 2463 2594 2264 2762 
Q 2066 2931 1784 2931 
Q 1359 2931 1093 2626 
Q 828 2322 828 1663 
Q 828 994 1084 691 
Q 1341 388 1753 388 
Q 2084 388 2306 591 
Q 2528 794 2588 1216 
z
" transform="scale(0.015625)"/>
     </defs>
     <use xlink:href="#ArialMT-4e"/>
     <use xlink:href="#ArialMT-75" x="72.216797"/>
     <use xlink:href="#ArialMT-63" x="127.832031"/>
     <use xlink:href="#ArialMT-6c" x="177.832031"/>
     <use xlink:href="#ArialMT-65" x="200.048828"/>
     <use xlink:href="#ArialMT-69" x="255.664062"/>
    </g>
   </g>
  </g>
 </g>
 <defs>
  <clipPath id="p8eedd73588">
   <rect x="141.928125" y="7.2" width="824.647865" height="27.18"/>
  </clipPath>
 </defs>
</svg>
