<?xml version="1.0" encoding="utf-8" standalone="no"?>
<!DOCTYPE svg PUBLIC "-//W3C//DTD SVG 1.1//EN"
  "http://www.w3.org/Graphics/SVG/1.1/DTD/svg11.dtd">
<svg xmlns:xlink="http://www.w3.org/1999/xlink" width="866.543249pt" height="75.266437pt" viewBox="0 0 866.543249 75.266437" xmlns="http://www.w3.org/2000/svg" version="1.1">
 <metadata>
  <rdf:RDF xmlns:dc="http://purl.org/dc/elements/1.1/" xmlns:cc="http://creativecommons.org/ns#" xmlns:rdf="http://www.w3.org/1999/02/22-rdf-syntax-ns#">
   <cc:Work>
    <dc:type rdf:resource="http://purl.org/dc/dcmitype/StillImage"/>
    <dc:date>2023-02-13T13:56:27.640660</dc:date>
    <dc:format>image/svg+xml</dc:format>
    <dc:creator>
     <cc:Agent>
      <dc:title>Matplotlib v3.5.1, https://matplotlib.org/</dc:title>
     </cc:Agent>
    </dc:creator>
   </cc:Work>
  </rdf:RDF>
 </metadata>
 <defs>
  <style type="text/css">*{stroke-linejoin: round; stroke-linecap: butt}</style>
 </defs>
 <g id="figure_1">
  <g id="patch_1">
   <path d="M 0 75.266437 
L 866.543249 75.266437 
L 866.543249 0 
L 0 0 
z
" style="fill: #ffffff"/>
  </g>
  <g id="axes_1">
   <g id="patch_2">
    <path d="M 72.971875 34.38 
L 846.831139 34.38 
L 846.831139 7.2 
L 72.971875 7.2 
z
" style="fill: #ffffff"/>
   </g>
   <g id="matplotlib.axis_1">
    <g id="xtick_1">
     <g id="line2d_1"/>
     <g id="text_1">
      <text style="fill: #262626; font: 15px 'sans-serif'; text-anchor: middle" x="75.019122" y="54.216719" transform="rotate(-0, 75.019122, 54.216719)">1</text>
     </g>
    </g>
    <g id="xtick_2">
     <g id="line2d_2"/>
     <g id="text_2">
      <text style="fill: #262626; font: 15px 'sans-serif'; text-anchor: middle" x="380.058885" y="54.216719" transform="rotate(-0, 380.058885, 54.216719)">150</text>
     </g>
    </g>
    <g id="xtick_3">
     <g id="line2d_3"/>
     <g id="text_3">
      <text style="fill: #262626; font: 15px 'sans-serif'; text-anchor: middle" x="742.421556" y="54.216719" transform="rotate(-0, 742.421556, 54.216719)">327</text>
     </g>
    </g>
    <g id="xtick_4">
     <g id="line2d_4"/>
     <g id="text_4">
      <text style="fill: #262626; font: 15px 'sans-serif'; text-anchor: middle" x="846.831139" y="54.216719" transform="rotate(-0, 846.831139, 54.216719)">378</text>
     </g>
    </g>
   </g>
   <g id="matplotlib.axis_2">
    <g id="ytick_1">
     <g id="line2d_5"/>
     <g id="text_5">
      <text style="fill: #262626; font: 20px 'sans-serif'; text-anchor: end" x="63.871875" y="27.947812" transform="rotate(-0, 63.871875, 27.947812)">HDAC</text>
     </g>
    </g>
   </g>
   <g id="PolyCollection_1">
    <path d="M 72.971875 34.38 
L 72.971875 7.2 
L 75.019122 7.2 
L 75.019122 34.38 
L 72.971875 34.38 
z
" clip-path="url(#pecd59afd13)" style="fill: #9292ff"/>
    <path d="M 75.019122 34.38 
L 75.019122 7.2 
L 77.066368 7.2 
L 77.066368 34.38 
L 75.019122 34.38 
z
" clip-path="url(#pecd59afd13)" style="fill: #4242ff"/>
    <path d="M 77.066368 34.38 
L 77.066368 7.2 
L 79.113615 7.2 
L 79.113615 34.38 
L 77.066368 34.38 
z
" clip-path="url(#pecd59afd13)" style="fill: #2828ff"/>
    <path d="M 79.113615 34.38 
L 79.113615 7.2 
L 81.160862 7.2 
L 81.160862 34.38 
L 79.113615 34.38 
z
" clip-path="url(#pecd59afd13)" style="fill: #6868ff"/>
    <path d="M 81.160862 34.38 
L 81.160862 7.2 
L 83.208109 7.2 
L 83.208109 34.38 
L 81.160862 34.38 
z
" clip-path="url(#pecd59afd13)" style="fill: #5454ff"/>
    <path d="M 83.208109 34.38 
L 83.208109 7.2 
L 85.255355 7.2 
L 85.255355 34.38 
L 83.208109 34.38 
z
" clip-path="url(#pecd59afd13)" style="fill: #ffb2b2"/>
    <path d="M 85.255355 34.38 
L 85.255355 7.2 
L 87.302602 7.2 
L 87.302602 34.38 
L 85.255355 34.38 
z
" clip-path="url(#pecd59afd13)" style="fill: #ffdede"/>
    <path d="M 87.302602 34.38 
L 87.302602 7.2 
L 89.349849 7.2 
L 89.349849 34.38 
L 87.302602 34.38 
z
" clip-path="url(#pecd59afd13)" style="fill: #c8c8ff"/>
    <path d="M 89.349849 34.38 
L 89.349849 7.2 
L 91.397096 7.2 
L 91.397096 34.38 
L 89.349849 34.38 
z
" clip-path="url(#pecd59afd13)" style="fill: #d2d2ff"/>
    <path d="M 91.397096 34.38 
L 91.397096 7.2 
L 93.444342 7.2 
L 93.444342 34.38 
L 91.397096 34.38 
z
" clip-path="url(#pecd59afd13)" style="fill: #ffe0e0"/>
    <path d="M 93.444342 34.38 
L 93.444342 7.2 
L 95.491589 7.2 
L 95.491589 34.38 
L 93.444342 34.38 
z
" clip-path="url(#pecd59afd13)" style="fill: #ff8888"/>
    <path d="M 95.491589 34.38 
L 95.491589 7.2 
L 97.538836 7.2 
L 97.538836 34.38 
L 95.491589 34.38 
z
" clip-path="url(#pecd59afd13)" style="fill: #ffdcdc"/>
    <path d="M 97.538836 34.38 
L 97.538836 7.2 
L 99.586083 7.2 
L 99.586083 34.38 
L 97.538836 34.38 
z
" clip-path="url(#pecd59afd13)" style="fill: #ffc0c0"/>
    <path d="M 99.586083 34.38 
L 99.586083 7.2 
L 101.633329 7.2 
L 101.633329 34.38 
L 99.586083 34.38 
z
" clip-path="url(#pecd59afd13)" style="fill: #fff0f0"/>
    <path d="M 101.633329 34.38 
L 101.633329 7.2 
L 103.680576 7.2 
L 103.680576 34.38 
L 101.633329 34.38 
z
" clip-path="url(#pecd59afd13)" style="fill: #ffdede"/>
    <path d="M 103.680576 34.38 
L 103.680576 7.2 
L 105.727823 7.2 
L 105.727823 34.38 
L 103.680576 34.38 
z
" clip-path="url(#pecd59afd13)" style="fill: #f0f0ff"/>
    <path d="M 105.727823 34.38 
L 105.727823 7.2 
L 107.775069 7.2 
L 107.775069 34.38 
L 105.727823 34.38 
z
" clip-path="url(#pecd59afd13)" style="fill: #8a8aff"/>
    <path d="M 107.775069 34.38 
L 107.775069 7.2 
L 109.822316 7.2 
L 109.822316 34.38 
L 107.775069 34.38 
z
" clip-path="url(#pecd59afd13)" style="fill: #ffe6e6"/>
    <path d="M 109.822316 34.38 
L 109.822316 7.2 
L 111.869563 7.2 
L 111.869563 34.38 
L 109.822316 34.38 
z
" clip-path="url(#pecd59afd13)" style="fill: #e2e2ff"/>
    <path d="M 111.869563 34.38 
L 111.869563 7.2 
L 113.91681 7.2 
L 113.91681 34.38 
L 111.869563 34.38 
z
" clip-path="url(#pecd59afd13)" style="fill: #d6d6ff"/>
    <path d="M 113.91681 34.38 
L 113.91681 7.2 
L 115.964056 7.2 
L 115.964056 34.38 
L 113.91681 34.38 
z
" clip-path="url(#pecd59afd13)" style="fill: #8c8cff"/>
    <path d="M 115.964056 34.38 
L 115.964056 7.2 
L 118.011303 7.2 
L 118.011303 34.38 
L 115.964056 34.38 
z
" clip-path="url(#pecd59afd13)" style="fill: #dedeff"/>
    <path d="M 118.011303 34.38 
L 118.011303 7.2 
L 120.05855 7.2 
L 120.05855 34.38 
L 118.011303 34.38 
z
" clip-path="url(#pecd59afd13)" style="fill: #a8a8ff"/>
    <path d="M 120.05855 34.38 
L 120.05855 7.2 
L 122.105797 7.2 
L 122.105797 34.38 
L 120.05855 34.38 
z
" clip-path="url(#pecd59afd13)" style="fill: #b0b0ff"/>
    <path d="M 122.105797 34.38 
L 122.105797 7.2 
L 124.153043 7.2 
L 124.153043 34.38 
L 122.105797 34.38 
z
" clip-path="url(#pecd59afd13)" style="fill: #e8e8ff"/>
    <path d="M 124.153043 34.38 
L 124.153043 7.2 
L 126.20029 7.2 
L 126.20029 34.38 
L 124.153043 34.38 
z
" clip-path="url(#pecd59afd13)" style="fill: #c6c6ff"/>
    <path d="M 126.20029 34.38 
L 126.20029 7.2 
L 128.247537 7.2 
L 128.247537 34.38 
L 126.20029 34.38 
z
" clip-path="url(#pecd59afd13)" style="fill: #d0d0ff"/>
    <path d="M 128.247537 34.38 
L 128.247537 7.2 
L 130.294783 7.2 
L 130.294783 34.38 
L 128.247537 34.38 
z
" clip-path="url(#pecd59afd13)" style="fill: #ff6e6e"/>
    <path d="M 130.294783 34.38 
L 130.294783 7.2 
L 132.34203 7.2 
L 132.34203 34.38 
L 130.294783 34.38 
z
" clip-path="url(#pecd59afd13)" style="fill: #ffb2b2"/>
    <path d="M 132.34203 34.38 
L 132.34203 7.2 
L 134.389277 7.2 
L 134.389277 34.38 
L 132.34203 34.38 
z
" clip-path="url(#pecd59afd13)" style="fill: #ffb2b2"/>
    <path d="M 134.389277 34.38 
L 134.389277 7.2 
L 136.436524 7.2 
L 136.436524 34.38 
L 134.389277 34.38 
z
" clip-path="url(#pecd59afd13)" style="fill: #ff9a9a"/>
    <path d="M 136.436524 34.38 
L 136.436524 7.2 
L 138.48377 7.2 
L 138.48377 34.38 
L 136.436524 34.38 
z
" clip-path="url(#pecd59afd13)" style="fill: #ff6666"/>
    <path d="M 138.48377 34.38 
L 138.48377 7.2 
L 140.531017 7.2 
L 140.531017 34.38 
L 138.48377 34.38 
z
" clip-path="url(#pecd59afd13)" style="fill: #ff7878"/>
    <path d="M 140.531017 34.38 
L 140.531017 7.2 
L 142.578264 7.2 
L 142.578264 34.38 
L 140.531017 34.38 
z
" clip-path="url(#pecd59afd13)" style="fill: #ff9898"/>
    <path d="M 142.578264 34.38 
L 142.578264 7.2 
L 144.625511 7.2 
L 144.625511 34.38 
L 142.578264 34.38 
z
" clip-path="url(#pecd59afd13)" style="fill: #ffbcbc"/>
    <path d="M 144.625511 34.38 
L 144.625511 7.2 
L 146.672757 7.2 
L 146.672757 34.38 
L 144.625511 34.38 
z
" clip-path="url(#pecd59afd13)" style="fill: #ff8888"/>
    <path d="M 146.672757 34.38 
L 146.672757 7.2 
L 148.720004 7.2 
L 148.720004 34.38 
L 146.672757 34.38 
z
" clip-path="url(#pecd59afd13)" style="fill: #ffd8d8"/>
    <path d="M 148.720004 34.38 
L 148.720004 7.2 
L 150.767251 7.2 
L 150.767251 34.38 
L 148.720004 34.38 
z
" clip-path="url(#pecd59afd13)" style="fill: #ff2626"/>
    <path d="M 150.767251 34.38 
L 150.767251 7.2 
L 152.814498 7.2 
L 152.814498 34.38 
L 150.767251 34.38 
z
" clip-path="url(#pecd59afd13)" style="fill: #ff9494"/>
    <path d="M 152.814498 34.38 
L 152.814498 7.2 
L 154.861744 7.2 
L 154.861744 34.38 
L 152.814498 34.38 
z
" clip-path="url(#pecd59afd13)" style="fill: #ff5050"/>
    <path d="M 154.861744 34.38 
L 154.861744 7.2 
L 156.908991 7.2 
L 156.908991 34.38 
L 154.861744 34.38 
z
" clip-path="url(#pecd59afd13)" style="fill: #ff9696"/>
    <path d="M 156.908991 34.38 
L 156.908991 7.2 
L 158.956238 7.2 
L 158.956238 34.38 
L 156.908991 34.38 
z
" clip-path="url(#pecd59afd13)" style="fill: #fff2f2"/>
    <path d="M 158.956238 34.38 
L 158.956238 7.2 
L 161.003484 7.2 
L 161.003484 34.38 
L 158.956238 34.38 
z
" clip-path="url(#pecd59afd13)" style="fill: #ff4c4c"/>
    <path d="M 161.003484 34.38 
L 161.003484 7.2 
L 163.050731 7.2 
L 163.050731 34.38 
L 161.003484 34.38 
z
" clip-path="url(#pecd59afd13)" style="fill: #ffd0d0"/>
    <path d="M 163.050731 34.38 
L 163.050731 7.2 
L 165.097978 7.2 
L 165.097978 34.38 
L 163.050731 34.38 
z
" clip-path="url(#pecd59afd13)" style="fill: #ffdede"/>
    <path d="M 165.097978 34.38 
L 165.097978 7.2 
L 167.145225 7.2 
L 167.145225 34.38 
L 165.097978 34.38 
z
" clip-path="url(#pecd59afd13)" style="fill: #e8e8ff"/>
    <path d="M 167.145225 34.38 
L 167.145225 7.2 
L 169.192471 7.2 
L 169.192471 34.38 
L 167.145225 34.38 
z
" clip-path="url(#pecd59afd13)" style="fill: #eaeaff"/>
    <path d="M 169.192471 34.38 
L 169.192471 7.2 
L 171.239718 7.2 
L 171.239718 34.38 
L 169.192471 34.38 
z
" clip-path="url(#pecd59afd13)" style="fill: #fff0f0"/>
    <path d="M 171.239718 34.38 
L 171.239718 7.2 
L 173.286965 7.2 
L 173.286965 34.38 
L 171.239718 34.38 
z
" clip-path="url(#pecd59afd13)" style="fill: #ff4848"/>
    <path d="M 173.286965 34.38 
L 173.286965 7.2 
L 175.334212 7.2 
L 175.334212 34.38 
L 173.286965 34.38 
z
" clip-path="url(#pecd59afd13)" style="fill: #ffe0e0"/>
    <path d="M 175.334212 34.38 
L 175.334212 7.2 
L 177.381458 7.2 
L 177.381458 34.38 
L 175.334212 34.38 
z
" clip-path="url(#pecd59afd13)" style="fill: #ff8a8a"/>
    <path d="M 177.381458 34.38 
L 177.381458 7.2 
L 179.428705 7.2 
L 179.428705 34.38 
L 177.381458 34.38 
z
" clip-path="url(#pecd59afd13)" style="fill: #ff9e9e"/>
    <path d="M 179.428705 34.38 
L 179.428705 7.2 
L 181.475952 7.2 
L 181.475952 34.38 
L 179.428705 34.38 
z
" clip-path="url(#pecd59afd13)" style="fill: #ffaeae"/>
    <path d="M 181.475952 34.38 
L 181.475952 7.2 
L 183.523198 7.2 
L 183.523198 34.38 
L 181.475952 34.38 
z
" clip-path="url(#pecd59afd13)" style="fill: #ffbaba"/>
    <path d="M 183.523198 34.38 
L 183.523198 7.2 
L 185.570445 7.2 
L 185.570445 34.38 
L 183.523198 34.38 
z
" clip-path="url(#pecd59afd13)" style="fill: #ffdada"/>
    <path d="M 185.570445 34.38 
L 185.570445 7.2 
L 187.617692 7.2 
L 187.617692 34.38 
L 185.570445 34.38 
z
" clip-path="url(#pecd59afd13)" style="fill: #ffc6c6"/>
    <path d="M 187.617692 34.38 
L 187.617692 7.2 
L 189.664939 7.2 
L 189.664939 34.38 
L 187.617692 34.38 
z
" clip-path="url(#pecd59afd13)" style="fill: #d0d0ff"/>
    <path d="M 189.664939 34.38 
L 189.664939 7.2 
L 191.712185 7.2 
L 191.712185 34.38 
L 189.664939 34.38 
z
" clip-path="url(#pecd59afd13)" style="fill: #ffdede"/>
    <path d="M 191.712185 34.38 
L 191.712185 7.2 
L 193.759432 7.2 
L 193.759432 34.38 
L 191.712185 34.38 
z
" clip-path="url(#pecd59afd13)" style="fill: #ffd2d2"/>
    <path d="M 193.759432 34.38 
L 193.759432 7.2 
L 195.806679 7.2 
L 195.806679 34.38 
L 193.759432 34.38 
z
" clip-path="url(#pecd59afd13)" style="fill: #ffbebe"/>
    <path d="M 195.806679 34.38 
L 195.806679 7.2 
L 197.853926 7.2 
L 197.853926 34.38 
L 195.806679 34.38 
z
" clip-path="url(#pecd59afd13)" style="fill: #8888ff"/>
    <path d="M 197.853926 34.38 
L 197.853926 7.2 
L 199.901172 7.2 
L 199.901172 34.38 
L 197.853926 34.38 
z
" clip-path="url(#pecd59afd13)" style="fill: #8080ff"/>
    <path d="M 199.901172 34.38 
L 199.901172 7.2 
L 201.948419 7.2 
L 201.948419 34.38 
L 199.901172 34.38 
z
" clip-path="url(#pecd59afd13)" style="fill: #7a7aff"/>
    <path d="M 201.948419 34.38 
L 201.948419 7.2 
L 203.995666 7.2 
L 203.995666 34.38 
L 201.948419 34.38 
z
" clip-path="url(#pecd59afd13)" style="fill: #c2c2ff"/>
    <path d="M 203.995666 34.38 
L 203.995666 7.2 
L 206.042913 7.2 
L 206.042913 34.38 
L 203.995666 34.38 
z
" clip-path="url(#pecd59afd13)" style="fill: #c4c4ff"/>
    <path d="M 206.042913 34.38 
L 206.042913 7.2 
L 208.090159 7.2 
L 208.090159 34.38 
L 206.042913 34.38 
z
" clip-path="url(#pecd59afd13)" style="fill: #c0c0ff"/>
    <path d="M 208.090159 34.38 
L 208.090159 7.2 
L 210.137406 7.2 
L 210.137406 34.38 
L 208.090159 34.38 
z
" clip-path="url(#pecd59afd13)" style="fill: #ff5a5a"/>
    <path d="M 210.137406 34.38 
L 210.137406 7.2 
L 212.184653 7.2 
L 212.184653 34.38 
L 210.137406 34.38 
z
" clip-path="url(#pecd59afd13)" style="fill: #ff6666"/>
    <path d="M 212.184653 34.38 
L 212.184653 7.2 
L 214.231899 7.2 
L 214.231899 34.38 
L 212.184653 34.38 
z
" clip-path="url(#pecd59afd13)" style="fill: #ff1818"/>
    <path d="M 214.231899 34.38 
L 214.231899 7.2 
L 216.279146 7.2 
L 216.279146 34.38 
L 214.231899 34.38 
z
" clip-path="url(#pecd59afd13)" style="fill: #ff3838"/>
    <path d="M 216.279146 34.38 
L 216.279146 7.2 
L 218.326393 7.2 
L 218.326393 34.38 
L 216.279146 34.38 
z
" clip-path="url(#pecd59afd13)" style="fill: #ff3030"/>
    <path d="M 218.326393 34.38 
L 218.326393 7.2 
L 220.37364 7.2 
L 220.37364 34.38 
L 218.326393 34.38 
z
" clip-path="url(#pecd59afd13)" style="fill: #ffcaca"/>
    <path d="M 220.37364 34.38 
L 220.37364 7.2 
L 222.420886 7.2 
L 222.420886 34.38 
L 220.37364 34.38 
z
" clip-path="url(#pecd59afd13)" style="fill: #ff5454"/>
    <path d="M 222.420886 34.38 
L 222.420886 7.2 
L 224.468133 7.2 
L 224.468133 34.38 
L 222.420886 34.38 
z
" clip-path="url(#pecd59afd13)" style="fill: #ff4242"/>
    <path d="M 224.468133 34.38 
L 224.468133 7.2 
L 226.51538 7.2 
L 226.51538 34.38 
L 224.468133 34.38 
z
" clip-path="url(#pecd59afd13)" style="fill: #ff4040"/>
    <path d="M 226.51538 34.38 
L 226.51538 7.2 
L 228.562627 7.2 
L 228.562627 34.38 
L 226.51538 34.38 
z
" clip-path="url(#pecd59afd13)" style="fill: #ff7878"/>
    <path d="M 228.562627 34.38 
L 228.562627 7.2 
L 230.609873 7.2 
L 230.609873 34.38 
L 228.562627 34.38 
z
" clip-path="url(#pecd59afd13)" style="fill: #ff7a7a"/>
    <path d="M 230.609873 34.38 
L 230.609873 7.2 
L 232.65712 7.2 
L 232.65712 34.38 
L 230.609873 34.38 
z
" clip-path="url(#pecd59afd13)" style="fill: #ff7c7c"/>
    <path d="M 232.65712 34.38 
L 232.65712 7.2 
L 234.704367 7.2 
L 234.704367 34.38 
L 232.65712 34.38 
z
" clip-path="url(#pecd59afd13)" style="fill: #8282ff"/>
    <path d="M 234.704367 34.38 
L 234.704367 7.2 
L 236.751613 7.2 
L 236.751613 34.38 
L 234.704367 34.38 
z
" clip-path="url(#pecd59afd13)" style="fill: #9494ff"/>
    <path d="M 236.751613 34.38 
L 236.751613 7.2 
L 238.79886 7.2 
L 238.79886 34.38 
L 236.751613 34.38 
z
" clip-path="url(#pecd59afd13)" style="fill: #ffecec"/>
    <path d="M 238.79886 34.38 
L 238.79886 7.2 
L 240.846107 7.2 
L 240.846107 34.38 
L 238.79886 34.38 
z
" clip-path="url(#pecd59afd13)" style="fill: #a4a4ff"/>
    <path d="M 240.846107 34.38 
L 240.846107 7.2 
L 242.893354 7.2 
L 242.893354 34.38 
L 240.846107 34.38 
z
" clip-path="url(#pecd59afd13)" style="fill: #ff7070"/>
    <path d="M 242.893354 34.38 
L 242.893354 7.2 
L 244.9406 7.2 
L 244.9406 34.38 
L 242.893354 34.38 
z
" clip-path="url(#pecd59afd13)" style="fill: #ffd8d8"/>
    <path d="M 244.9406 34.38 
L 244.9406 7.2 
L 246.987847 7.2 
L 246.987847 34.38 
L 244.9406 34.38 
z
" clip-path="url(#pecd59afd13)" style="fill: #ff8282"/>
    <path d="M 246.987847 34.38 
L 246.987847 7.2 
L 249.035094 7.2 
L 249.035094 34.38 
L 246.987847 34.38 
z
" clip-path="url(#pecd59afd13)" style="fill: #ff5a5a"/>
    <path d="M 249.035094 34.38 
L 249.035094 7.2 
L 251.082341 7.2 
L 251.082341 34.38 
L 249.035094 34.38 
z
" clip-path="url(#pecd59afd13)" style="fill: #ff6464"/>
    <path d="M 251.082341 34.38 
L 251.082341 7.2 
L 253.129587 7.2 
L 253.129587 34.38 
L 251.082341 34.38 
z
" clip-path="url(#pecd59afd13)" style="fill: #ff9c9c"/>
    <path d="M 253.129587 34.38 
L 253.129587 7.2 
L 255.176834 7.2 
L 255.176834 34.38 
L 253.129587 34.38 
z
" clip-path="url(#pecd59afd13)" style="fill: #ff9494"/>
    <path d="M 255.176834 34.38 
L 255.176834 7.2 
L 257.224081 7.2 
L 257.224081 34.38 
L 255.176834 34.38 
z
" clip-path="url(#pecd59afd13)" style="fill: #ff8c8c"/>
    <path d="M 257.224081 34.38 
L 257.224081 7.2 
L 259.271328 7.2 
L 259.271328 34.38 
L 257.224081 34.38 
z
" clip-path="url(#pecd59afd13)" style="fill: #9c9cff"/>
    <path d="M 259.271328 34.38 
L 259.271328 7.2 
L 261.318574 7.2 
L 261.318574 34.38 
L 259.271328 34.38 
z
" clip-path="url(#pecd59afd13)" style="fill: #8686ff"/>
    <path d="M 261.318574 34.38 
L 261.318574 7.2 
L 263.365821 7.2 
L 263.365821 34.38 
L 261.318574 34.38 
z
" clip-path="url(#pecd59afd13)" style="fill: #8a8aff"/>
    <path d="M 263.365821 34.38 
L 263.365821 7.2 
L 265.413068 7.2 
L 265.413068 34.38 
L 263.365821 34.38 
z
" clip-path="url(#pecd59afd13)" style="fill: #a4a4ff"/>
    <path d="M 265.413068 34.38 
L 265.413068 7.2 
L 267.460314 7.2 
L 267.460314 34.38 
L 265.413068 34.38 
z
" clip-path="url(#pecd59afd13)" style="fill: #babaff"/>
    <path d="M 267.460314 34.38 
L 267.460314 7.2 
L 269.507561 7.2 
L 269.507561 34.38 
L 267.460314 34.38 
z
" clip-path="url(#pecd59afd13)" style="fill: #ff7e7e"/>
    <path d="M 269.507561 34.38 
L 269.507561 7.2 
L 271.554808 7.2 
L 271.554808 34.38 
L 269.507561 34.38 
z
" clip-path="url(#pecd59afd13)" style="fill: #ff7a7a"/>
    <path d="M 271.554808 34.38 
L 271.554808 7.2 
L 273.602055 7.2 
L 273.602055 34.38 
L 271.554808 34.38 
z
" clip-path="url(#pecd59afd13)" style="fill: #ff7272"/>
    <path d="M 273.602055 34.38 
L 273.602055 7.2 
L 275.649301 7.2 
L 275.649301 34.38 
L 273.602055 34.38 
z
" clip-path="url(#pecd59afd13)" style="fill: #ffbcbc"/>
    <path d="M 275.649301 34.38 
L 275.649301 7.2 
L 277.696548 7.2 
L 277.696548 34.38 
L 275.649301 34.38 
z
" clip-path="url(#pecd59afd13)" style="fill: #ffb6b6"/>
    <path d="M 277.696548 34.38 
L 277.696548 7.2 
L 279.743795 7.2 
L 279.743795 34.38 
L 277.696548 34.38 
z
" clip-path="url(#pecd59afd13)" style="fill: #ffb8b8"/>
    <path d="M 279.743795 34.38 
L 279.743795 7.2 
L 281.791042 7.2 
L 281.791042 34.38 
L 279.743795 34.38 
z
" clip-path="url(#pecd59afd13)" style="fill: #ffb2b2"/>
    <path d="M 281.791042 34.38 
L 281.791042 7.2 
L 283.838288 7.2 
L 283.838288 34.38 
L 281.791042 34.38 
z
" clip-path="url(#pecd59afd13)" style="fill: #ffc4c4"/>
    <path d="M 283.838288 34.38 
L 283.838288 7.2 
L 285.885535 7.2 
L 285.885535 34.38 
L 283.838288 34.38 
z
" clip-path="url(#pecd59afd13)" style="fill: #ffcece"/>
    <path d="M 285.885535 34.38 
L 285.885535 7.2 
L 287.932782 7.2 
L 287.932782 34.38 
L 285.885535 34.38 
z
" clip-path="url(#pecd59afd13)" style="fill: #7c7cff"/>
    <path d="M 287.932782 34.38 
L 287.932782 7.2 
L 289.980028 7.2 
L 289.980028 34.38 
L 287.932782 34.38 
z
" clip-path="url(#pecd59afd13)" style="fill: #6666ff"/>
    <path d="M 289.980028 34.38 
L 289.980028 7.2 
L 292.027275 7.2 
L 292.027275 34.38 
L 289.980028 34.38 
z
" clip-path="url(#pecd59afd13)" style="fill: #6464ff"/>
    <path d="M 292.027275 34.38 
L 292.027275 7.2 
L 294.074522 7.2 
L 294.074522 34.38 
L 292.027275 34.38 
z
" clip-path="url(#pecd59afd13)" style="fill: #7676ff"/>
    <path d="M 294.074522 34.38 
L 294.074522 7.2 
L 296.121769 7.2 
L 296.121769 34.38 
L 294.074522 34.38 
z
" clip-path="url(#pecd59afd13)" style="fill: #7070ff"/>
    <path d="M 296.121769 34.38 
L 296.121769 7.2 
L 298.169015 7.2 
L 298.169015 34.38 
L 296.121769 34.38 
z
" clip-path="url(#pecd59afd13)" style="fill: #7878ff"/>
    <path d="M 298.169015 34.38 
L 298.169015 7.2 
L 300.216262 7.2 
L 300.216262 34.38 
L 298.169015 34.38 
z
" clip-path="url(#pecd59afd13)" style="fill: #9898ff"/>
    <path d="M 300.216262 34.38 
L 300.216262 7.2 
L 302.263509 7.2 
L 302.263509 34.38 
L 300.216262 34.38 
z
" clip-path="url(#pecd59afd13)" style="fill: #a0a0ff"/>
    <path d="M 302.263509 34.38 
L 302.263509 7.2 
L 304.310756 7.2 
L 304.310756 34.38 
L 302.263509 34.38 
z
" clip-path="url(#pecd59afd13)" style="fill: #9e9eff"/>
    <path d="M 304.310756 34.38 
L 304.310756 7.2 
L 306.358002 7.2 
L 306.358002 34.38 
L 304.310756 34.38 
z
" clip-path="url(#pecd59afd13)" style="fill: #ff2626"/>
    <path d="M 306.358002 34.38 
L 306.358002 7.2 
L 308.405249 7.2 
L 308.405249 34.38 
L 306.358002 34.38 
z
" clip-path="url(#pecd59afd13)" style="fill: #ff3030"/>
    <path d="M 308.405249 34.38 
L 308.405249 7.2 
L 310.452496 7.2 
L 310.452496 34.38 
L 308.405249 34.38 
z
" clip-path="url(#pecd59afd13)" style="fill: #ff3434"/>
    <path d="M 310.452496 34.38 
L 310.452496 7.2 
L 312.499743 7.2 
L 312.499743 34.38 
L 310.452496 34.38 
z
" clip-path="url(#pecd59afd13)" style="fill: #ffc6c6"/>
    <path d="M 312.499743 34.38 
L 312.499743 7.2 
L 314.546989 7.2 
L 314.546989 34.38 
L 312.499743 34.38 
z
" clip-path="url(#pecd59afd13)" style="fill: #ffc8c8"/>
    <path d="M 314.546989 34.38 
L 314.546989 7.2 
L 316.594236 7.2 
L 316.594236 34.38 
L 314.546989 34.38 
z
" clip-path="url(#pecd59afd13)" style="fill: #ffc6c6"/>
    <path d="M 316.594236 34.38 
L 316.594236 7.2 
L 318.641483 7.2 
L 318.641483 34.38 
L 316.594236 34.38 
z
" clip-path="url(#pecd59afd13)" style="fill: #ffe4e4"/>
    <path d="M 318.641483 34.38 
L 318.641483 7.2 
L 320.688729 7.2 
L 320.688729 34.38 
L 318.641483 34.38 
z
" clip-path="url(#pecd59afd13)" style="fill: #ffe2e2"/>
    <path d="M 320.688729 34.38 
L 320.688729 7.2 
L 322.735976 7.2 
L 322.735976 34.38 
L 320.688729 34.38 
z
" clip-path="url(#pecd59afd13)" style="fill: #ff9292"/>
    <path d="M 322.735976 34.38 
L 322.735976 7.2 
L 324.783223 7.2 
L 324.783223 34.38 
L 322.735976 34.38 
z
" clip-path="url(#pecd59afd13)" style="fill: #ff8a8a"/>
    <path d="M 324.783223 34.38 
L 324.783223 7.2 
L 326.83047 7.2 
L 326.83047 34.38 
L 324.783223 34.38 
z
" clip-path="url(#pecd59afd13)" style="fill: #ff8686"/>
    <path d="M 326.83047 34.38 
L 326.83047 7.2 
L 328.877716 7.2 
L 328.877716 34.38 
L 326.83047 34.38 
z
" clip-path="url(#pecd59afd13)" style="fill: #ffb2b2"/>
    <path d="M 328.877716 34.38 
L 328.877716 7.2 
L 330.924963 7.2 
L 330.924963 34.38 
L 328.877716 34.38 
z
" clip-path="url(#pecd59afd13)" style="fill: #ffbaba"/>
    <path d="M 330.924963 34.38 
L 330.924963 7.2 
L 332.97221 7.2 
L 332.97221 34.38 
L 330.924963 34.38 
z
" clip-path="url(#pecd59afd13)" style="fill: #ffb4b4"/>
    <path d="M 332.97221 34.38 
L 332.97221 7.2 
L 335.019457 7.2 
L 335.019457 34.38 
L 332.97221 34.38 
z
" clip-path="url(#pecd59afd13)" style="fill: #ff0e0e"/>
    <path d="M 335.019457 34.38 
L 335.019457 7.2 
L 337.066703 7.2 
L 337.066703 34.38 
L 335.019457 34.38 
z
" clip-path="url(#pecd59afd13)" style="fill: #ff2626"/>
    <path d="M 337.066703 34.38 
L 337.066703 7.2 
L 339.11395 7.2 
L 339.11395 34.38 
L 337.066703 34.38 
z
" clip-path="url(#pecd59afd13)" style="fill: #ff2424"/>
    <path d="M 339.11395 34.38 
L 339.11395 7.2 
L 341.161197 7.2 
L 341.161197 34.38 
L 339.11395 34.38 
z
" clip-path="url(#pecd59afd13)" style="fill: #ffe0e0"/>
    <path d="M 341.161197 34.38 
L 341.161197 7.2 
L 343.208443 7.2 
L 343.208443 34.38 
L 341.161197 34.38 
z
" clip-path="url(#pecd59afd13)" style="fill: #ffe2e2"/>
    <path d="M 343.208443 34.38 
L 343.208443 7.2 
L 345.25569 7.2 
L 345.25569 34.38 
L 343.208443 34.38 
z
" clip-path="url(#pecd59afd13)" style="fill: #ff8c8c"/>
    <path d="M 345.25569 34.38 
L 345.25569 7.2 
L 347.302937 7.2 
L 347.302937 34.38 
L 345.25569 34.38 
z
" clip-path="url(#pecd59afd13)" style="fill: #ff8080"/>
    <path d="M 347.302937 34.38 
L 347.302937 7.2 
L 349.350184 7.2 
L 349.350184 34.38 
L 347.302937 34.38 
z
" clip-path="url(#pecd59afd13)" style="fill: #ff8a8a"/>
    <path d="M 349.350184 34.38 
L 349.350184 7.2 
L 351.39743 7.2 
L 351.39743 34.38 
L 349.350184 34.38 
z
" clip-path="url(#pecd59afd13)" style="fill: #ff9292"/>
    <path d="M 351.39743 34.38 
L 351.39743 7.2 
L 353.444677 7.2 
L 353.444677 34.38 
L 351.39743 34.38 
z
" clip-path="url(#pecd59afd13)" style="fill: #ff9292"/>
    <path d="M 353.444677 34.38 
L 353.444677 7.2 
L 355.491924 7.2 
L 355.491924 34.38 
L 353.444677 34.38 
z
" clip-path="url(#pecd59afd13)" style="fill: #ff1414"/>
    <path d="M 355.491924 34.38 
L 355.491924 7.2 
L 357.539171 7.2 
L 357.539171 34.38 
L 355.491924 34.38 
z
" clip-path="url(#pecd59afd13)" style="fill: #ff2222"/>
    <path d="M 357.539171 34.38 
L 357.539171 7.2 
L 359.586417 7.2 
L 359.586417 34.38 
L 357.539171 34.38 
z
" clip-path="url(#pecd59afd13)" style="fill: #ff2020"/>
    <path d="M 359.586417 34.38 
L 359.586417 7.2 
L 361.633664 7.2 
L 361.633664 34.38 
L 359.586417 34.38 
z
" clip-path="url(#pecd59afd13)" style="fill: #ffdcdc"/>
    <path d="M 361.633664 34.38 
L 361.633664 7.2 
L 363.680911 7.2 
L 363.680911 34.38 
L 361.633664 34.38 
z
" clip-path="url(#pecd59afd13)" style="fill: #ffdede"/>
    <path d="M 363.680911 34.38 
L 363.680911 7.2 
L 365.728158 7.2 
L 365.728158 34.38 
L 363.680911 34.38 
z
" clip-path="url(#pecd59afd13)" style="fill: #ffdede"/>
    <path d="M 365.728158 34.38 
L 365.728158 7.2 
L 367.775404 7.2 
L 367.775404 34.38 
L 365.728158 34.38 
z
" clip-path="url(#pecd59afd13)" style="fill: #ff7070"/>
    <path d="M 367.775404 34.38 
L 367.775404 7.2 
L 369.822651 7.2 
L 369.822651 34.38 
L 367.775404 34.38 
z
" clip-path="url(#pecd59afd13)" style="fill: #ff7e7e"/>
    <path d="M 369.822651 34.38 
L 369.822651 7.2 
L 371.869898 7.2 
L 371.869898 34.38 
L 369.822651 34.38 
z
" clip-path="url(#pecd59afd13)" style="fill: #ff7a7a"/>
    <path d="M 371.869898 34.38 
L 371.869898 7.2 
L 373.917144 7.2 
L 373.917144 34.38 
L 371.869898 34.38 
z
" clip-path="url(#pecd59afd13)" style="fill: #ff9292"/>
    <path d="M 373.917144 34.38 
L 373.917144 7.2 
L 375.964391 7.2 
L 375.964391 34.38 
L 373.917144 34.38 
z
" clip-path="url(#pecd59afd13)" style="fill: #ff9292"/>
    <path d="M 375.964391 34.38 
L 375.964391 7.2 
L 378.011638 7.2 
L 378.011638 34.38 
L 375.964391 34.38 
z
" clip-path="url(#pecd59afd13)" style="fill: #ff9292"/>
    <path d="M 378.011638 34.38 
L 378.011638 7.2 
L 380.058885 7.2 
L 380.058885 34.38 
L 378.011638 34.38 
z
" clip-path="url(#pecd59afd13)" style="fill: #a0a0ff"/>
    <path d="M 380.058885 34.38 
L 380.058885 7.2 
L 382.106131 7.2 
L 382.106131 34.38 
L 380.058885 34.38 
z
" clip-path="url(#pecd59afd13)" style="fill: #6868ff"/>
    <path d="M 382.106131 34.38 
L 382.106131 7.2 
L 384.153378 7.2 
L 384.153378 34.38 
L 382.106131 34.38 
z
" clip-path="url(#pecd59afd13)" style="fill: #4848ff"/>
    <path d="M 384.153378 34.38 
L 384.153378 7.2 
L 386.200625 7.2 
L 386.200625 34.38 
L 384.153378 34.38 
z
" clip-path="url(#pecd59afd13)" style="fill: #b4b4ff"/>
    <path d="M 386.200625 34.38 
L 386.200625 7.2 
L 388.247872 7.2 
L 388.247872 34.38 
L 386.200625 34.38 
z
" clip-path="url(#pecd59afd13)" style="fill: #ff6262"/>
    <path d="M 388.247872 34.38 
L 388.247872 7.2 
L 390.295118 7.2 
L 390.295118 34.38 
L 388.247872 34.38 
z
" clip-path="url(#pecd59afd13)" style="fill: #ffcccc"/>
    <path d="M 390.295118 34.38 
L 390.295118 7.2 
L 392.342365 7.2 
L 392.342365 34.38 
L 390.295118 34.38 
z
" clip-path="url(#pecd59afd13)" style="fill: #c4c4ff"/>
    <path d="M 392.342365 34.38 
L 392.342365 7.2 
L 394.389612 7.2 
L 394.389612 34.38 
L 392.342365 34.38 
z
" clip-path="url(#pecd59afd13)" style="fill: #ffd6d6"/>
    <path d="M 394.389612 34.38 
L 394.389612 7.2 
L 396.436858 7.2 
L 396.436858 34.38 
L 394.389612 34.38 
z
" clip-path="url(#pecd59afd13)" style="fill: #ff5454"/>
    <path d="M 396.436858 34.38 
L 396.436858 7.2 
L 398.484105 7.2 
L 398.484105 34.38 
L 396.436858 34.38 
z
" clip-path="url(#pecd59afd13)" style="fill: #ffdada"/>
    <path d="M 398.484105 34.38 
L 398.484105 7.2 
L 400.531352 7.2 
L 400.531352 34.38 
L 398.484105 34.38 
z
" clip-path="url(#pecd59afd13)" style="fill: #ff9090"/>
    <path d="M 400.531352 34.38 
L 400.531352 7.2 
L 402.578599 7.2 
L 402.578599 34.38 
L 400.531352 34.38 
z
" clip-path="url(#pecd59afd13)" style="fill: #bcbcff"/>
    <path d="M 402.578599 34.38 
L 402.578599 7.2 
L 404.625845 7.2 
L 404.625845 34.38 
L 402.578599 34.38 
z
" clip-path="url(#pecd59afd13)" style="fill: #bebeff"/>
    <path d="M 404.625845 34.38 
L 404.625845 7.2 
L 406.673092 7.2 
L 406.673092 34.38 
L 404.625845 34.38 
z
" clip-path="url(#pecd59afd13)" style="fill: #bebeff"/>
    <path d="M 406.673092 34.38 
L 406.673092 7.2 
L 408.720339 7.2 
L 408.720339 34.38 
L 406.673092 34.38 
z
" clip-path="url(#pecd59afd13)" style="fill: #bebeff"/>
    <path d="M 408.720339 34.38 
L 408.720339 7.2 
L 410.767586 7.2 
L 410.767586 34.38 
L 408.720339 34.38 
z
" clip-path="url(#pecd59afd13)" style="fill: #ffb6b6"/>
    <path d="M 410.767586 34.38 
L 410.767586 7.2 
L 412.814832 7.2 
L 412.814832 34.38 
L 410.767586 34.38 
z
" clip-path="url(#pecd59afd13)" style="fill: #ffeaea"/>
    <path d="M 412.814832 34.38 
L 412.814832 7.2 
L 414.862079 7.2 
L 414.862079 34.38 
L 412.814832 34.38 
z
" clip-path="url(#pecd59afd13)" style="fill: #ffc6c6"/>
    <path d="M 414.862079 34.38 
L 414.862079 7.2 
L 416.909326 7.2 
L 416.909326 34.38 
L 414.862079 34.38 
z
" clip-path="url(#pecd59afd13)" style="fill: #e8e8ff"/>
    <path d="M 416.909326 34.38 
L 416.909326 7.2 
L 418.956573 7.2 
L 418.956573 34.38 
L 416.909326 34.38 
z
" clip-path="url(#pecd59afd13)" style="fill: #dedeff"/>
    <path d="M 418.956573 34.38 
L 418.956573 7.2 
L 421.003819 7.2 
L 421.003819 34.38 
L 418.956573 34.38 
z
" clip-path="url(#pecd59afd13)" style="fill: #fffefe"/>
    <path d="M 421.003819 34.38 
L 421.003819 7.2 
L 423.051066 7.2 
L 423.051066 34.38 
L 421.003819 34.38 
z
" clip-path="url(#pecd59afd13)" style="fill: #dedeff"/>
    <path d="M 423.051066 34.38 
L 423.051066 7.2 
L 425.098313 7.2 
L 425.098313 34.38 
L 423.051066 34.38 
z
" clip-path="url(#pecd59afd13)" style="fill: #e0e0ff"/>
    <path d="M 425.098313 34.38 
L 425.098313 7.2 
L 427.145559 7.2 
L 427.145559 34.38 
L 425.098313 34.38 
z
" clip-path="url(#pecd59afd13)" style="fill: #dedeff"/>
    <path d="M 427.145559 34.38 
L 427.145559 7.2 
L 429.192806 7.2 
L 429.192806 34.38 
L 427.145559 34.38 
z
" clip-path="url(#pecd59afd13)" style="fill: #ececff"/>
    <path d="M 429.192806 34.38 
L 429.192806 7.2 
L 431.240053 7.2 
L 431.240053 34.38 
L 429.192806 34.38 
z
" clip-path="url(#pecd59afd13)" style="fill: #dcdcff"/>
    <path d="M 431.240053 34.38 
L 431.240053 7.2 
L 433.2873 7.2 
L 433.2873 34.38 
L 431.240053 34.38 
z
" clip-path="url(#pecd59afd13)" style="fill: #d6d6ff"/>
    <path d="M 433.2873 34.38 
L 433.2873 7.2 
L 435.334546 7.2 
L 435.334546 34.38 
L 433.2873 34.38 
z
" clip-path="url(#pecd59afd13)" style="fill: #aeaeff"/>
    <path d="M 435.334546 34.38 
L 435.334546 7.2 
L 437.381793 7.2 
L 437.381793 34.38 
L 435.334546 34.38 
z
" clip-path="url(#pecd59afd13)" style="fill: #e6e6ff"/>
    <path d="M 437.381793 34.38 
L 437.381793 7.2 
L 439.42904 7.2 
L 439.42904 34.38 
L 437.381793 34.38 
z
" clip-path="url(#pecd59afd13)" style="fill: #dcdcff"/>
    <path d="M 439.42904 34.38 
L 439.42904 7.2 
L 441.476287 7.2 
L 441.476287 34.38 
L 439.42904 34.38 
z
" clip-path="url(#pecd59afd13)" style="fill: #aeaeff"/>
    <path d="M 441.476287 34.38 
L 441.476287 7.2 
L 443.523533 7.2 
L 443.523533 34.38 
L 441.476287 34.38 
z
" clip-path="url(#pecd59afd13)" style="fill: #c6c6ff"/>
    <path d="M 443.523533 34.38 
L 443.523533 7.2 
L 445.57078 7.2 
L 445.57078 34.38 
L 443.523533 34.38 
z
" clip-path="url(#pecd59afd13)" style="fill: #e2e2ff"/>
    <path d="M 445.57078 34.38 
L 445.57078 7.2 
L 447.618027 7.2 
L 447.618027 34.38 
L 445.57078 34.38 
z
" clip-path="url(#pecd59afd13)" style="fill: #b6b6ff"/>
    <path d="M 447.618027 34.38 
L 447.618027 7.2 
L 449.665273 7.2 
L 449.665273 34.38 
L 447.618027 34.38 
z
" clip-path="url(#pecd59afd13)" style="fill: #e0e0ff"/>
    <path d="M 449.665273 34.38 
L 449.665273 7.2 
L 451.71252 7.2 
L 451.71252 34.38 
L 449.665273 34.38 
z
" clip-path="url(#pecd59afd13)" style="fill: #d4d4ff"/>
    <path d="M 451.71252 34.38 
L 451.71252 7.2 
L 453.759767 7.2 
L 453.759767 34.38 
L 451.71252 34.38 
z
" clip-path="url(#pecd59afd13)" style="fill: #dedeff"/>
    <path d="M 453.759767 34.38 
L 453.759767 7.2 
L 455.807014 7.2 
L 455.807014 34.38 
L 453.759767 34.38 
z
" clip-path="url(#pecd59afd13)" style="fill: #bcbcff"/>
    <path d="M 455.807014 34.38 
L 455.807014 7.2 
L 457.85426 7.2 
L 457.85426 34.38 
L 455.807014 34.38 
z
" clip-path="url(#pecd59afd13)" style="fill: #e4e4ff"/>
    <path d="M 457.85426 34.38 
L 457.85426 7.2 
L 459.901507 7.2 
L 459.901507 34.38 
L 457.85426 34.38 
z
" clip-path="url(#pecd59afd13)" style="fill: #c2c2ff"/>
    <path d="M 459.901507 34.38 
L 459.901507 7.2 
L 461.948754 7.2 
L 461.948754 34.38 
L 459.901507 34.38 
z
" clip-path="url(#pecd59afd13)" style="fill: #d0d0ff"/>
    <path d="M 461.948754 34.38 
L 461.948754 7.2 
L 463.996001 7.2 
L 463.996001 34.38 
L 461.948754 34.38 
z
" clip-path="url(#pecd59afd13)" style="fill: #ff7a7a"/>
    <path d="M 463.996001 34.38 
L 463.996001 7.2 
L 466.043247 7.2 
L 466.043247 34.38 
L 463.996001 34.38 
z
" clip-path="url(#pecd59afd13)" style="fill: #ff8e8e"/>
    <path d="M 466.043247 34.38 
L 466.043247 7.2 
L 468.090494 7.2 
L 468.090494 34.38 
L 466.043247 34.38 
z
" clip-path="url(#pecd59afd13)" style="fill: #ffa6a6"/>
    <path d="M 468.090494 34.38 
L 468.090494 7.2 
L 470.137741 7.2 
L 470.137741 34.38 
L 468.090494 34.38 
z
" clip-path="url(#pecd59afd13)" style="fill: #ff5454"/>
    <path d="M 470.137741 34.38 
L 470.137741 7.2 
L 472.184988 7.2 
L 472.184988 34.38 
L 470.137741 34.38 
z
" clip-path="url(#pecd59afd13)" style="fill: #ff2222"/>
    <path d="M 472.184988 34.38 
L 472.184988 7.2 
L 474.232234 7.2 
L 474.232234 34.38 
L 472.184988 34.38 
z
" clip-path="url(#pecd59afd13)" style="fill: #ff0000"/>
    <path d="M 474.232234 34.38 
L 474.232234 7.2 
L 476.279481 7.2 
L 476.279481 34.38 
L 474.232234 34.38 
z
" clip-path="url(#pecd59afd13)" style="fill: #ff5252"/>
    <path d="M 476.279481 34.38 
L 476.279481 7.2 
L 478.326728 7.2 
L 478.326728 34.38 
L 476.279481 34.38 
z
" clip-path="url(#pecd59afd13)" style="fill: #ffa0a0"/>
    <path d="M 478.326728 34.38 
L 478.326728 7.2 
L 480.373974 7.2 
L 480.373974 34.38 
L 478.326728 34.38 
z
" clip-path="url(#pecd59afd13)" style="fill: #ff8484"/>
    <path d="M 480.373974 34.38 
L 480.373974 7.2 
L 482.421221 7.2 
L 482.421221 34.38 
L 480.373974 34.38 
z
" clip-path="url(#pecd59afd13)" style="fill: #ff6c6c"/>
    <path d="M 482.421221 34.38 
L 482.421221 7.2 
L 484.468468 7.2 
L 484.468468 34.38 
L 482.421221 34.38 
z
" clip-path="url(#pecd59afd13)" style="fill: #ff7474"/>
    <path d="M 484.468468 34.38 
L 484.468468 7.2 
L 486.515715 7.2 
L 486.515715 34.38 
L 484.468468 34.38 
z
" clip-path="url(#pecd59afd13)" style="fill: #ffe4e4"/>
    <path d="M 486.515715 34.38 
L 486.515715 7.2 
L 488.562961 7.2 
L 488.562961 34.38 
L 486.515715 34.38 
z
" clip-path="url(#pecd59afd13)" style="fill: #ff0000"/>
    <path d="M 488.562961 34.38 
L 488.562961 7.2 
L 490.610208 7.2 
L 490.610208 34.38 
L 488.562961 34.38 
z
" clip-path="url(#pecd59afd13)" style="fill: #ff9c9c"/>
    <path d="M 490.610208 34.38 
L 490.610208 7.2 
L 492.657455 7.2 
L 492.657455 34.38 
L 490.610208 34.38 
z
" clip-path="url(#pecd59afd13)" style="fill: #ff2c2c"/>
    <path d="M 492.657455 34.38 
L 492.657455 7.2 
L 494.704702 7.2 
L 494.704702 34.38 
L 492.657455 34.38 
z
" clip-path="url(#pecd59afd13)" style="fill: #ffcaca"/>
    <path d="M 494.704702 34.38 
L 494.704702 7.2 
L 496.751948 7.2 
L 496.751948 34.38 
L 494.704702 34.38 
z
" clip-path="url(#pecd59afd13)" style="fill: #ff8888"/>
    <path d="M 496.751948 34.38 
L 496.751948 7.2 
L 498.799195 7.2 
L 498.799195 34.38 
L 496.751948 34.38 
z
" clip-path="url(#pecd59afd13)" style="fill: #ff2a2a"/>
    <path d="M 498.799195 34.38 
L 498.799195 7.2 
L 500.846442 7.2 
L 500.846442 34.38 
L 498.799195 34.38 
z
" clip-path="url(#pecd59afd13)" style="fill: #ff9898"/>
    <path d="M 500.846442 34.38 
L 500.846442 7.2 
L 502.893688 7.2 
L 502.893688 34.38 
L 500.846442 34.38 
z
" clip-path="url(#pecd59afd13)" style="fill: #ff8484"/>
    <path d="M 502.893688 34.38 
L 502.893688 7.2 
L 504.940935 7.2 
L 504.940935 34.38 
L 502.893688 34.38 
z
" clip-path="url(#pecd59afd13)" style="fill: #ff7474"/>
    <path d="M 504.940935 34.38 
L 504.940935 7.2 
L 506.988182 7.2 
L 506.988182 34.38 
L 504.940935 34.38 
z
" clip-path="url(#pecd59afd13)" style="fill: #ffd6d6"/>
    <path d="M 506.988182 34.38 
L 506.988182 7.2 
L 509.035429 7.2 
L 509.035429 34.38 
L 506.988182 34.38 
z
" clip-path="url(#pecd59afd13)" style="fill: #e8e8ff"/>
    <path d="M 509.035429 34.38 
L 509.035429 7.2 
L 511.082675 7.2 
L 511.082675 34.38 
L 509.035429 34.38 
z
" clip-path="url(#pecd59afd13)" style="fill: #eaeaff"/>
    <path d="M 511.082675 34.38 
L 511.082675 7.2 
L 513.129922 7.2 
L 513.129922 34.38 
L 511.082675 34.38 
z
" clip-path="url(#pecd59afd13)" style="fill: #ff4a4a"/>
    <path d="M 513.129922 34.38 
L 513.129922 7.2 
L 515.177169 7.2 
L 515.177169 34.38 
L 513.129922 34.38 
z
" clip-path="url(#pecd59afd13)" style="fill: #ff9c9c"/>
    <path d="M 515.177169 34.38 
L 515.177169 7.2 
L 517.224416 7.2 
L 517.224416 34.38 
L 515.177169 34.38 
z
" clip-path="url(#pecd59afd13)" style="fill: #ff9e9e"/>
    <path d="M 517.224416 34.38 
L 517.224416 7.2 
L 519.271662 7.2 
L 519.271662 34.38 
L 517.224416 34.38 
z
" clip-path="url(#pecd59afd13)" style="fill: #ff0000"/>
    <path d="M 519.271662 34.38 
L 519.271662 7.2 
L 521.318909 7.2 
L 521.318909 34.38 
L 519.271662 34.38 
z
" clip-path="url(#pecd59afd13)" style="fill: #ffdada"/>
    <path d="M 521.318909 34.38 
L 521.318909 7.2 
L 523.366156 7.2 
L 523.366156 34.38 
L 521.318909 34.38 
z
" clip-path="url(#pecd59afd13)" style="fill: #ff1010"/>
    <path d="M 523.366156 34.38 
L 523.366156 7.2 
L 525.413403 7.2 
L 525.413403 34.38 
L 523.366156 34.38 
z
" clip-path="url(#pecd59afd13)" style="fill: #ffa4a4"/>
    <path d="M 525.413403 34.38 
L 525.413403 7.2 
L 527.460649 7.2 
L 527.460649 34.38 
L 525.413403 34.38 
z
" clip-path="url(#pecd59afd13)" style="fill: #ffc4c4"/>
    <path d="M 527.460649 34.38 
L 527.460649 7.2 
L 529.507896 7.2 
L 529.507896 34.38 
L 527.460649 34.38 
z
" clip-path="url(#pecd59afd13)" style="fill: #ff4040"/>
    <path d="M 529.507896 34.38 
L 529.507896 7.2 
L 531.555143 7.2 
L 531.555143 34.38 
L 529.507896 34.38 
z
" clip-path="url(#pecd59afd13)" style="fill: #ff5050"/>
    <path d="M 531.555143 34.38 
L 531.555143 7.2 
L 533.602389 7.2 
L 533.602389 34.38 
L 531.555143 34.38 
z
" clip-path="url(#pecd59afd13)" style="fill: #ff7070"/>
    <path d="M 533.602389 34.38 
L 533.602389 7.2 
L 535.649636 7.2 
L 535.649636 34.38 
L 533.602389 34.38 
z
" clip-path="url(#pecd59afd13)" style="fill: #ff7070"/>
    <path d="M 535.649636 34.38 
L 535.649636 7.2 
L 537.696883 7.2 
L 537.696883 34.38 
L 535.649636 34.38 
z
" clip-path="url(#pecd59afd13)" style="fill: #ff6e6e"/>
    <path d="M 537.696883 34.38 
L 537.696883 7.2 
L 539.74413 7.2 
L 539.74413 34.38 
L 537.696883 34.38 
z
" clip-path="url(#pecd59afd13)" style="fill: #9898ff"/>
    <path d="M 539.74413 34.38 
L 539.74413 7.2 
L 541.791376 7.2 
L 541.791376 34.38 
L 539.74413 34.38 
z
" clip-path="url(#pecd59afd13)" style="fill: #ffbcbc"/>
    <path d="M 541.791376 34.38 
L 541.791376 7.2 
L 543.838623 7.2 
L 543.838623 34.38 
L 541.791376 34.38 
z
" clip-path="url(#pecd59afd13)" style="fill: #ffbebe"/>
    <path d="M 543.838623 34.38 
L 543.838623 7.2 
L 545.88587 7.2 
L 545.88587 34.38 
L 543.838623 34.38 
z
" clip-path="url(#pecd59afd13)" style="fill: #ff7676"/>
    <path d="M 545.88587 34.38 
L 545.88587 7.2 
L 547.933117 7.2 
L 547.933117 34.38 
L 545.88587 34.38 
z
" clip-path="url(#pecd59afd13)" style="fill: #9090ff"/>
    <path d="M 547.933117 34.38 
L 547.933117 7.2 
L 549.980363 7.2 
L 549.980363 34.38 
L 547.933117 34.38 
z
" clip-path="url(#pecd59afd13)" style="fill: #ffbcbc"/>
    <path d="M 549.980363 34.38 
L 549.980363 7.2 
L 552.02761 7.2 
L 552.02761 34.38 
L 549.980363 34.38 
z
" clip-path="url(#pecd59afd13)" style="fill: #ffb6b6"/>
    <path d="M 552.02761 34.38 
L 552.02761 7.2 
L 554.074857 7.2 
L 554.074857 34.38 
L 552.02761 34.38 
z
" clip-path="url(#pecd59afd13)" style="fill: #ffcece"/>
    <path d="M 554.074857 34.38 
L 554.074857 7.2 
L 556.122103 7.2 
L 556.122103 34.38 
L 554.074857 34.38 
z
" clip-path="url(#pecd59afd13)" style="fill: #ffd8d8"/>
    <path d="M 556.122103 34.38 
L 556.122103 7.2 
L 558.16935 7.2 
L 558.16935 34.38 
L 556.122103 34.38 
z
" clip-path="url(#pecd59afd13)" style="fill: #ff3232"/>
    <path d="M 558.16935 34.38 
L 558.16935 7.2 
L 560.216597 7.2 
L 560.216597 34.38 
L 558.16935 34.38 
z
" clip-path="url(#pecd59afd13)" style="fill: #ff0000"/>
    <path d="M 560.216597 34.38 
L 560.216597 7.2 
L 562.263844 7.2 
L 562.263844 34.38 
L 560.216597 34.38 
z
" clip-path="url(#pecd59afd13)" style="fill: #ff0000"/>
    <path d="M 562.263844 34.38 
L 562.263844 7.2 
L 564.31109 7.2 
L 564.31109 34.38 
L 562.263844 34.38 
z
" clip-path="url(#pecd59afd13)" style="fill: #9a9aff"/>
    <path d="M 564.31109 34.38 
L 564.31109 7.2 
L 566.358337 7.2 
L 566.358337 34.38 
L 564.31109 34.38 
z
" clip-path="url(#pecd59afd13)" style="fill: #9090ff"/>
    <path d="M 566.358337 34.38 
L 566.358337 7.2 
L 568.405584 7.2 
L 568.405584 34.38 
L 566.358337 34.38 
z
" clip-path="url(#pecd59afd13)" style="fill: #6262ff"/>
    <path d="M 568.405584 34.38 
L 568.405584 7.2 
L 570.452831 7.2 
L 570.452831 34.38 
L 568.405584 34.38 
z
" clip-path="url(#pecd59afd13)" style="fill: #7474ff"/>
    <path d="M 570.452831 34.38 
L 570.452831 7.2 
L 572.500077 7.2 
L 572.500077 34.38 
L 570.452831 34.38 
z
" clip-path="url(#pecd59afd13)" style="fill: #6e6eff"/>
    <path d="M 572.500077 34.38 
L 572.500077 7.2 
L 574.547324 7.2 
L 574.547324 34.38 
L 572.500077 34.38 
z
" clip-path="url(#pecd59afd13)" style="fill: #c8c8ff"/>
    <path d="M 574.547324 34.38 
L 574.547324 7.2 
L 576.594571 7.2 
L 576.594571 34.38 
L 574.547324 34.38 
z
" clip-path="url(#pecd59afd13)" style="fill: #c4c4ff"/>
    <path d="M 576.594571 34.38 
L 576.594571 7.2 
L 578.641818 7.2 
L 578.641818 34.38 
L 576.594571 34.38 
z
" clip-path="url(#pecd59afd13)" style="fill: #c6c6ff"/>
    <path d="M 578.641818 34.38 
L 578.641818 7.2 
L 580.689064 7.2 
L 580.689064 34.38 
L 578.641818 34.38 
z
" clip-path="url(#pecd59afd13)" style="fill: #ff5656"/>
    <path d="M 580.689064 34.38 
L 580.689064 7.2 
L 582.736311 7.2 
L 582.736311 34.38 
L 580.689064 34.38 
z
" clip-path="url(#pecd59afd13)" style="fill: #ff3a3a"/>
    <path d="M 582.736311 34.38 
L 582.736311 7.2 
L 584.783558 7.2 
L 584.783558 34.38 
L 582.736311 34.38 
z
" clip-path="url(#pecd59afd13)" style="fill: #ff4646"/>
    <path d="M 584.783558 34.38 
L 584.783558 7.2 
L 586.830804 7.2 
L 586.830804 34.38 
L 584.783558 34.38 
z
" clip-path="url(#pecd59afd13)" style="fill: #ff0000"/>
    <path d="M 586.830804 34.38 
L 586.830804 7.2 
L 588.878051 7.2 
L 588.878051 34.38 
L 586.830804 34.38 
z
" clip-path="url(#pecd59afd13)" style="fill: #ff4040"/>
    <path d="M 588.878051 34.38 
L 588.878051 7.2 
L 590.925298 7.2 
L 590.925298 34.38 
L 588.878051 34.38 
z
" clip-path="url(#pecd59afd13)" style="fill: #ff2626"/>
    <path d="M 590.925298 34.38 
L 590.925298 7.2 
L 592.972545 7.2 
L 592.972545 34.38 
L 590.925298 34.38 
z
" clip-path="url(#pecd59afd13)" style="fill: #ff0000"/>
    <path d="M 592.972545 34.38 
L 592.972545 7.2 
L 595.019791 7.2 
L 595.019791 34.38 
L 592.972545 34.38 
z
" clip-path="url(#pecd59afd13)" style="fill: #ff0c0c"/>
    <path d="M 595.019791 34.38 
L 595.019791 7.2 
L 597.067038 7.2 
L 597.067038 34.38 
L 595.019791 34.38 
z
" clip-path="url(#pecd59afd13)" style="fill: #ff0000"/>
    <path d="M 597.067038 34.38 
L 597.067038 7.2 
L 599.114285 7.2 
L 599.114285 34.38 
L 597.067038 34.38 
z
" clip-path="url(#pecd59afd13)" style="fill: #ff8080"/>
    <path d="M 599.114285 34.38 
L 599.114285 7.2 
L 601.161532 7.2 
L 601.161532 34.38 
L 599.114285 34.38 
z
" clip-path="url(#pecd59afd13)" style="fill: #ff7a7a"/>
    <path d="M 601.161532 34.38 
L 601.161532 7.2 
L 603.208778 7.2 
L 603.208778 34.38 
L 601.161532 34.38 
z
" clip-path="url(#pecd59afd13)" style="fill: #ffd0d0"/>
    <path d="M 603.208778 34.38 
L 603.208778 7.2 
L 605.256025 7.2 
L 605.256025 34.38 
L 603.208778 34.38 
z
" clip-path="url(#pecd59afd13)" style="fill: #ff6868"/>
    <path d="M 605.256025 34.38 
L 605.256025 7.2 
L 607.303272 7.2 
L 607.303272 34.38 
L 605.256025 34.38 
z
" clip-path="url(#pecd59afd13)" style="fill: #ff6868"/>
    <path d="M 607.303272 34.38 
L 607.303272 7.2 
L 609.350518 7.2 
L 609.350518 34.38 
L 607.303272 34.38 
z
" clip-path="url(#pecd59afd13)" style="fill: #ff1818"/>
    <path d="M 609.350518 34.38 
L 609.350518 7.2 
L 611.397765 7.2 
L 611.397765 34.38 
L 609.350518 34.38 
z
" clip-path="url(#pecd59afd13)" style="fill: #ff2828"/>
    <path d="M 611.397765 34.38 
L 611.397765 7.2 
L 613.445012 7.2 
L 613.445012 34.38 
L 611.397765 34.38 
z
" clip-path="url(#pecd59afd13)" style="fill: #ff2a2a"/>
    <path d="M 613.445012 34.38 
L 613.445012 7.2 
L 615.492259 7.2 
L 615.492259 34.38 
L 613.445012 34.38 
z
" clip-path="url(#pecd59afd13)" style="fill: #ff9a9a"/>
    <path d="M 615.492259 34.38 
L 615.492259 7.2 
L 617.539505 7.2 
L 617.539505 34.38 
L 615.492259 34.38 
z
" clip-path="url(#pecd59afd13)" style="fill: #ff9898"/>
    <path d="M 617.539505 34.38 
L 617.539505 7.2 
L 619.586752 7.2 
L 619.586752 34.38 
L 617.539505 34.38 
z
" clip-path="url(#pecd59afd13)" style="fill: #ff9c9c"/>
    <path d="M 619.586752 34.38 
L 619.586752 7.2 
L 621.633999 7.2 
L 621.633999 34.38 
L 619.586752 34.38 
z
" clip-path="url(#pecd59afd13)" style="fill: #5a5aff"/>
    <path d="M 621.633999 34.38 
L 621.633999 7.2 
L 623.681246 7.2 
L 623.681246 34.38 
L 621.633999 34.38 
z
" clip-path="url(#pecd59afd13)" style="fill: #6464ff"/>
    <path d="M 623.681246 34.38 
L 623.681246 7.2 
L 625.728492 7.2 
L 625.728492 34.38 
L 623.681246 34.38 
z
" clip-path="url(#pecd59afd13)" style="fill: #6868ff"/>
    <path d="M 625.728492 34.38 
L 625.728492 7.2 
L 627.775739 7.2 
L 627.775739 34.38 
L 625.728492 34.38 
z
" clip-path="url(#pecd59afd13)" style="fill: #b8b8ff"/>
    <path d="M 627.775739 34.38 
L 627.775739 7.2 
L 629.822986 7.2 
L 629.822986 34.38 
L 627.775739 34.38 
z
" clip-path="url(#pecd59afd13)" style="fill: #aaaaff"/>
    <path d="M 629.822986 34.38 
L 629.822986 7.2 
L 631.870233 7.2 
L 631.870233 34.38 
L 629.822986 34.38 
z
" clip-path="url(#pecd59afd13)" style="fill: #a6a6ff"/>
    <path d="M 631.870233 34.38 
L 631.870233 7.2 
L 633.917479 7.2 
L 633.917479 34.38 
L 631.870233 34.38 
z
" clip-path="url(#pecd59afd13)" style="fill: #ff8e8e"/>
    <path d="M 633.917479 34.38 
L 633.917479 7.2 
L 635.964726 7.2 
L 635.964726 34.38 
L 633.917479 34.38 
z
" clip-path="url(#pecd59afd13)" style="fill: #ff9090"/>
    <path d="M 635.964726 34.38 
L 635.964726 7.2 
L 638.011973 7.2 
L 638.011973 34.38 
L 635.964726 34.38 
z
" clip-path="url(#pecd59afd13)" style="fill: #ff2c2c"/>
    <path d="M 638.011973 34.38 
L 638.011973 7.2 
L 640.059219 7.2 
L 640.059219 34.38 
L 638.011973 34.38 
z
" clip-path="url(#pecd59afd13)" style="fill: #ff3232"/>
    <path d="M 640.059219 34.38 
L 640.059219 7.2 
L 642.106466 7.2 
L 642.106466 34.38 
L 640.059219 34.38 
z
" clip-path="url(#pecd59afd13)" style="fill: #ff3030"/>
    <path d="M 642.106466 34.38 
L 642.106466 7.2 
L 644.153713 7.2 
L 644.153713 34.38 
L 642.106466 34.38 
z
" clip-path="url(#pecd59afd13)" style="fill: #ffc0c0"/>
    <path d="M 644.153713 34.38 
L 644.153713 7.2 
L 646.20096 7.2 
L 646.20096 34.38 
L 644.153713 34.38 
z
" clip-path="url(#pecd59afd13)" style="fill: #ffbaba"/>
    <path d="M 646.20096 34.38 
L 646.20096 7.2 
L 648.248206 7.2 
L 648.248206 34.38 
L 646.20096 34.38 
z
" clip-path="url(#pecd59afd13)" style="fill: #ffb6b6"/>
    <path d="M 648.248206 34.38 
L 648.248206 7.2 
L 650.295453 7.2 
L 650.295453 34.38 
L 648.248206 34.38 
z
" clip-path="url(#pecd59afd13)" style="fill: #ffb0b0"/>
    <path d="M 650.295453 34.38 
L 650.295453 7.2 
L 652.3427 7.2 
L 652.3427 34.38 
L 650.295453 34.38 
z
" clip-path="url(#pecd59afd13)" style="fill: #6c6cff"/>
    <path d="M 652.3427 34.38 
L 652.3427 7.2 
L 654.389947 7.2 
L 654.389947 34.38 
L 652.3427 34.38 
z
" clip-path="url(#pecd59afd13)" style="fill: #5e5eff"/>
    <path d="M 654.389947 34.38 
L 654.389947 7.2 
L 656.437193 7.2 
L 656.437193 34.38 
L 654.389947 34.38 
z
" clip-path="url(#pecd59afd13)" style="fill: #6c6cff"/>
    <path d="M 656.437193 34.38 
L 656.437193 7.2 
L 658.48444 7.2 
L 658.48444 34.38 
L 656.437193 34.38 
z
" clip-path="url(#pecd59afd13)" style="fill: #1a1aff"/>
    <path d="M 658.48444 34.38 
L 658.48444 7.2 
L 660.531687 7.2 
L 660.531687 34.38 
L 658.48444 34.38 
z
" clip-path="url(#pecd59afd13)" style="fill: #6666ff"/>
    <path d="M 660.531687 34.38 
L 660.531687 7.2 
L 662.578933 7.2 
L 662.578933 34.38 
L 660.531687 34.38 
z
" clip-path="url(#pecd59afd13)" style="fill: #3c3cff"/>
    <path d="M 662.578933 34.38 
L 662.578933 7.2 
L 664.62618 7.2 
L 664.62618 34.38 
L 662.578933 34.38 
z
" clip-path="url(#pecd59afd13)" style="fill: #a8a8ff"/>
    <path d="M 664.62618 34.38 
L 664.62618 7.2 
L 666.673427 7.2 
L 666.673427 34.38 
L 664.62618 34.38 
z
" clip-path="url(#pecd59afd13)" style="fill: #a0a0ff"/>
    <path d="M 666.673427 34.38 
L 666.673427 7.2 
L 668.720674 7.2 
L 668.720674 34.38 
L 666.673427 34.38 
z
" clip-path="url(#pecd59afd13)" style="fill: #a0a0ff"/>
    <path d="M 668.720674 34.38 
L 668.720674 7.2 
L 670.76792 7.2 
L 670.76792 34.38 
L 668.720674 34.38 
z
" clip-path="url(#pecd59afd13)" style="fill: #ffc8c8"/>
    <path d="M 670.76792 34.38 
L 670.76792 7.2 
L 672.815167 7.2 
L 672.815167 34.38 
L 670.76792 34.38 
z
" clip-path="url(#pecd59afd13)" style="fill: #ffcccc"/>
    <path d="M 672.815167 34.38 
L 672.815167 7.2 
L 674.862414 7.2 
L 674.862414 34.38 
L 672.815167 34.38 
z
" clip-path="url(#pecd59afd13)" style="fill: #ffc8c8"/>
    <path d="M 674.862414 34.38 
L 674.862414 7.2 
L 676.909661 7.2 
L 676.909661 34.38 
L 674.862414 34.38 
z
" clip-path="url(#pecd59afd13)" style="fill: #ffdede"/>
    <path d="M 676.909661 34.38 
L 676.909661 7.2 
L 678.956907 7.2 
L 678.956907 34.38 
L 676.909661 34.38 
z
" clip-path="url(#pecd59afd13)" style="fill: #ffdede"/>
    <path d="M 678.956907 34.38 
L 678.956907 7.2 
L 681.004154 7.2 
L 681.004154 34.38 
L 678.956907 34.38 
z
" clip-path="url(#pecd59afd13)" style="fill: #ffdcdc"/>
    <path d="M 681.004154 34.38 
L 681.004154 7.2 
L 683.051401 7.2 
L 683.051401 34.38 
L 681.004154 34.38 
z
" clip-path="url(#pecd59afd13)" style="fill: #ff0c0c"/>
    <path d="M 683.051401 34.38 
L 683.051401 7.2 
L 685.098648 7.2 
L 685.098648 34.38 
L 683.051401 34.38 
z
" clip-path="url(#pecd59afd13)" style="fill: #ff1818"/>
    <path d="M 685.098648 34.38 
L 685.098648 7.2 
L 687.145894 7.2 
L 687.145894 34.38 
L 685.098648 34.38 
z
" clip-path="url(#pecd59afd13)" style="fill: #ff0e0e"/>
    <path d="M 687.145894 34.38 
L 687.145894 7.2 
L 689.193141 7.2 
L 689.193141 34.38 
L 687.145894 34.38 
z
" clip-path="url(#pecd59afd13)" style="fill: #ffbaba"/>
    <path d="M 689.193141 34.38 
L 689.193141 7.2 
L 691.240388 7.2 
L 691.240388 34.38 
L 689.193141 34.38 
z
" clip-path="url(#pecd59afd13)" style="fill: #ffc0c0"/>
    <path d="M 691.240388 34.38 
L 691.240388 7.2 
L 693.287634 7.2 
L 693.287634 34.38 
L 691.240388 34.38 
z
" clip-path="url(#pecd59afd13)" style="fill: #ffbebe"/>
    <path d="M 693.287634 34.38 
L 693.287634 7.2 
L 695.334881 7.2 
L 695.334881 34.38 
L 693.287634 34.38 
z
" clip-path="url(#pecd59afd13)" style="fill: #ff0000"/>
    <path d="M 695.334881 34.38 
L 695.334881 7.2 
L 697.382128 7.2 
L 697.382128 34.38 
L 695.334881 34.38 
z
" clip-path="url(#pecd59afd13)" style="fill: #ff0000"/>
    <path d="M 697.382128 34.38 
L 697.382128 7.2 
L 699.429375 7.2 
L 699.429375 34.38 
L 697.382128 34.38 
z
" clip-path="url(#pecd59afd13)" style="fill: #ff0000"/>
    <path d="M 699.429375 34.38 
L 699.429375 7.2 
L 701.476621 7.2 
L 701.476621 34.38 
L 699.429375 34.38 
z
" clip-path="url(#pecd59afd13)" style="fill: #ffd6d6"/>
    <path d="M 701.476621 34.38 
L 701.476621 7.2 
L 703.523868 7.2 
L 703.523868 34.38 
L 701.476621 34.38 
z
" clip-path="url(#pecd59afd13)" style="fill: #ffd6d6"/>
    <path d="M 703.523868 34.38 
L 703.523868 7.2 
L 705.571115 7.2 
L 705.571115 34.38 
L 703.523868 34.38 
z
" clip-path="url(#pecd59afd13)" style="fill: #ff0000"/>
    <path d="M 705.571115 34.38 
L 705.571115 7.2 
L 707.618362 7.2 
L 707.618362 34.38 
L 705.571115 34.38 
z
" clip-path="url(#pecd59afd13)" style="fill: #ff0000"/>
    <path d="M 707.618362 34.38 
L 707.618362 7.2 
L 709.665608 7.2 
L 709.665608 34.38 
L 707.618362 34.38 
z
" clip-path="url(#pecd59afd13)" style="fill: #ff0000"/>
    <path d="M 709.665608 34.38 
L 709.665608 7.2 
L 711.712855 7.2 
L 711.712855 34.38 
L 709.665608 34.38 
z
" clip-path="url(#pecd59afd13)" style="fill: #ff9e9e"/>
    <path d="M 711.712855 34.38 
L 711.712855 7.2 
L 713.760102 7.2 
L 713.760102 34.38 
L 711.712855 34.38 
z
" clip-path="url(#pecd59afd13)" style="fill: #ffa0a0"/>
    <path d="M 713.760102 34.38 
L 713.760102 7.2 
L 715.807348 7.2 
L 715.807348 34.38 
L 713.760102 34.38 
z
" clip-path="url(#pecd59afd13)" style="fill: #ff9a9a"/>
    <path d="M 715.807348 34.38 
L 715.807348 7.2 
L 717.854595 7.2 
L 717.854595 34.38 
L 715.807348 34.38 
z
" clip-path="url(#pecd59afd13)" style="fill: #ff0000"/>
    <path d="M 717.854595 34.38 
L 717.854595 7.2 
L 719.901842 7.2 
L 719.901842 34.38 
L 717.854595 34.38 
z
" clip-path="url(#pecd59afd13)" style="fill: #ff0000"/>
    <path d="M 719.901842 34.38 
L 719.901842 7.2 
L 721.949089 7.2 
L 721.949089 34.38 
L 719.901842 34.38 
z
" clip-path="url(#pecd59afd13)" style="fill: #ff0000"/>
    <path d="M 721.949089 34.38 
L 721.949089 7.2 
L 723.996335 7.2 
L 723.996335 34.38 
L 721.949089 34.38 
z
" clip-path="url(#pecd59afd13)" style="fill: #ffd6d6"/>
    <path d="M 723.996335 34.38 
L 723.996335 7.2 
L 726.043582 7.2 
L 726.043582 34.38 
L 723.996335 34.38 
z
" clip-path="url(#pecd59afd13)" style="fill: #ffd4d4"/>
    <path d="M 726.043582 34.38 
L 726.043582 7.2 
L 728.090829 7.2 
L 728.090829 34.38 
L 726.043582 34.38 
z
" clip-path="url(#pecd59afd13)" style="fill: #ffd4d4"/>
    <path d="M 728.090829 34.38 
L 728.090829 7.2 
L 730.138076 7.2 
L 730.138076 34.38 
L 728.090829 34.38 
z
" clip-path="url(#pecd59afd13)" style="fill: #ff0000"/>
    <path d="M 730.138076 34.38 
L 730.138076 7.2 
L 732.185322 7.2 
L 732.185322 34.38 
L 730.138076 34.38 
z
" clip-path="url(#pecd59afd13)" style="fill: #ff0000"/>
    <path d="M 732.185322 34.38 
L 732.185322 7.2 
L 734.232569 7.2 
L 734.232569 34.38 
L 732.185322 34.38 
z
" clip-path="url(#pecd59afd13)" style="fill: #ff0000"/>
    <path d="M 734.232569 34.38 
L 734.232569 7.2 
L 736.279816 7.2 
L 736.279816 34.38 
L 734.232569 34.38 
z
" clip-path="url(#pecd59afd13)" style="fill: #ff9494"/>
    <path d="M 736.279816 34.38 
L 736.279816 7.2 
L 738.327063 7.2 
L 738.327063 34.38 
L 736.279816 34.38 
z
" clip-path="url(#pecd59afd13)" style="fill: #ff9c9c"/>
    <path d="M 738.327063 34.38 
L 738.327063 7.2 
L 740.374309 7.2 
L 740.374309 34.38 
L 738.327063 34.38 
z
" clip-path="url(#pecd59afd13)" style="fill: #ff9696"/>
    <path d="M 740.374309 34.38 
L 740.374309 7.2 
L 742.421556 7.2 
L 742.421556 34.38 
L 740.374309 34.38 
z
" clip-path="url(#pecd59afd13)" style="fill: #5e5eff"/>
    <path d="M 742.421556 34.38 
L 742.421556 7.2 
L 744.468803 7.2 
L 744.468803 34.38 
L 742.421556 34.38 
z
" clip-path="url(#pecd59afd13)" style="fill: #cacaff"/>
    <path d="M 744.468803 34.38 
L 744.468803 7.2 
L 746.516049 7.2 
L 746.516049 34.38 
L 744.468803 34.38 
z
" clip-path="url(#pecd59afd13)" style="fill: #c4c4ff"/>
    <path d="M 746.516049 34.38 
L 746.516049 7.2 
L 748.563296 7.2 
L 748.563296 34.38 
L 746.516049 34.38 
z
" clip-path="url(#pecd59afd13)" style="fill: #8c8cff"/>
    <path d="M 748.563296 34.38 
L 748.563296 7.2 
L 750.610543 7.2 
L 750.610543 34.38 
L 748.563296 34.38 
z
" clip-path="url(#pecd59afd13)" style="fill: #9090ff"/>
    <path d="M 750.610543 34.38 
L 750.610543 7.2 
L 752.65779 7.2 
L 752.65779 34.38 
L 750.610543 34.38 
z
" clip-path="url(#pecd59afd13)" style="fill: #ff0000"/>
    <path d="M 752.65779 34.38 
L 752.65779 7.2 
L 754.705036 7.2 
L 754.705036 34.38 
L 752.65779 34.38 
z
" clip-path="url(#pecd59afd13)" style="fill: #ff8e8e"/>
    <path d="M 754.705036 34.38 
L 754.705036 7.2 
L 756.752283 7.2 
L 756.752283 34.38 
L 754.705036 34.38 
z
" clip-path="url(#pecd59afd13)" style="fill: #ffb8b8"/>
    <path d="M 756.752283 34.38 
L 756.752283 7.2 
L 758.79953 7.2 
L 758.79953 34.38 
L 756.752283 34.38 
z
" clip-path="url(#pecd59afd13)" style="fill: #ff2222"/>
    <path d="M 758.79953 34.38 
L 758.79953 7.2 
L 760.846777 7.2 
L 760.846777 34.38 
L 758.79953 34.38 
z
" clip-path="url(#pecd59afd13)" style="fill: #ff3a3a"/>
    <path d="M 760.846777 34.38 
L 760.846777 7.2 
L 762.894023 7.2 
L 762.894023 34.38 
L 760.846777 34.38 
z
" clip-path="url(#pecd59afd13)" style="fill: #ff1e1e"/>
    <path d="M 762.894023 34.38 
L 762.894023 7.2 
L 764.94127 7.2 
L 764.94127 34.38 
L 762.894023 34.38 
z
" clip-path="url(#pecd59afd13)" style="fill: #ffcccc"/>
    <path d="M 764.94127 34.38 
L 764.94127 7.2 
L 766.988517 7.2 
L 766.988517 34.38 
L 764.94127 34.38 
z
" clip-path="url(#pecd59afd13)" style="fill: #ff9090"/>
    <path d="M 766.988517 34.38 
L 766.988517 7.2 
L 769.035763 7.2 
L 769.035763 34.38 
L 766.988517 34.38 
z
" clip-path="url(#pecd59afd13)" style="fill: #ff5050"/>
    <path d="M 769.035763 34.38 
L 769.035763 7.2 
L 771.08301 7.2 
L 771.08301 34.38 
L 769.035763 34.38 
z
" clip-path="url(#pecd59afd13)" style="fill: #ffdede"/>
    <path d="M 771.08301 34.38 
L 771.08301 7.2 
L 773.130257 7.2 
L 773.130257 34.38 
L 771.08301 34.38 
z
" clip-path="url(#pecd59afd13)" style="fill: #ff0606"/>
    <path d="M 773.130257 34.38 
L 773.130257 7.2 
L 775.177504 7.2 
L 775.177504 34.38 
L 773.130257 34.38 
z
" clip-path="url(#pecd59afd13)" style="fill: #ff1616"/>
    <path d="M 775.177504 34.38 
L 775.177504 7.2 
L 777.22475 7.2 
L 777.22475 34.38 
L 775.177504 34.38 
z
" clip-path="url(#pecd59afd13)" style="fill: #ff0606"/>
    <path d="M 777.22475 34.38 
L 777.22475 7.2 
L 779.271997 7.2 
L 779.271997 34.38 
L 777.22475 34.38 
z
" clip-path="url(#pecd59afd13)" style="fill: #ff1818"/>
    <path d="M 779.271997 34.38 
L 779.271997 7.2 
L 781.319244 7.2 
L 781.319244 34.38 
L 779.271997 34.38 
z
" clip-path="url(#pecd59afd13)" style="fill: #ff1a1a"/>
    <path d="M 781.319244 34.38 
L 781.319244 7.2 
L 783.366491 7.2 
L 783.366491 34.38 
L 781.319244 34.38 
z
" clip-path="url(#pecd59afd13)" style="fill: #ffa8a8"/>
    <path d="M 783.366491 34.38 
L 783.366491 7.2 
L 785.413737 7.2 
L 785.413737 34.38 
L 783.366491 34.38 
z
" clip-path="url(#pecd59afd13)" style="fill: #ff2222"/>
    <path d="M 785.413737 34.38 
L 785.413737 7.2 
L 787.460984 7.2 
L 787.460984 34.38 
L 785.413737 34.38 
z
" clip-path="url(#pecd59afd13)" style="fill: #fff0f0"/>
    <path d="M 787.460984 34.38 
L 787.460984 7.2 
L 789.508231 7.2 
L 789.508231 34.38 
L 787.460984 34.38 
z
" clip-path="url(#pecd59afd13)" style="fill: #e6e6ff"/>
    <path d="M 789.508231 34.38 
L 789.508231 7.2 
L 791.555478 7.2 
L 791.555478 34.38 
L 789.508231 34.38 
z
" clip-path="url(#pecd59afd13)" style="fill: #e2e2ff"/>
    <path d="M 791.555478 34.38 
L 791.555478 7.2 
L 793.602724 7.2 
L 793.602724 34.38 
L 791.555478 34.38 
z
" clip-path="url(#pecd59afd13)" style="fill: #ffbcbc"/>
    <path d="M 793.602724 34.38 
L 793.602724 7.2 
L 795.649971 7.2 
L 795.649971 34.38 
L 793.602724 34.38 
z
" clip-path="url(#pecd59afd13)" style="fill: #ffecec"/>
    <path d="M 795.649971 34.38 
L 795.649971 7.2 
L 797.697218 7.2 
L 797.697218 34.38 
L 795.649971 34.38 
z
" clip-path="url(#pecd59afd13)" style="fill: #eaeaff"/>
    <path d="M 797.697218 34.38 
L 797.697218 7.2 
L 799.744464 7.2 
L 799.744464 34.38 
L 797.697218 34.38 
z
" clip-path="url(#pecd59afd13)" style="fill: #ffe8e8"/>
    <path d="M 799.744464 34.38 
L 799.744464 7.2 
L 801.791711 7.2 
L 801.791711 34.38 
L 799.744464 34.38 
z
" clip-path="url(#pecd59afd13)" style="fill: #7a7aff"/>
    <path d="M 801.791711 34.38 
L 801.791711 7.2 
L 803.838958 7.2 
L 803.838958 34.38 
L 801.791711 34.38 
z
" clip-path="url(#pecd59afd13)" style="fill: #7a7aff"/>
    <path d="M 803.838958 34.38 
L 803.838958 7.2 
L 805.886205 7.2 
L 805.886205 34.38 
L 803.838958 34.38 
z
" clip-path="url(#pecd59afd13)" style="fill: #8a8aff"/>
    <path d="M 805.886205 34.38 
L 805.886205 7.2 
L 807.933451 7.2 
L 807.933451 34.38 
L 805.886205 34.38 
z
" clip-path="url(#pecd59afd13)" style="fill: #ff3232"/>
    <path d="M 807.933451 34.38 
L 807.933451 7.2 
L 809.980698 7.2 
L 809.980698 34.38 
L 807.933451 34.38 
z
" clip-path="url(#pecd59afd13)" style="fill: #ff2c2c"/>
    <path d="M 809.980698 34.38 
L 809.980698 7.2 
L 812.027945 7.2 
L 812.027945 34.38 
L 809.980698 34.38 
z
" clip-path="url(#pecd59afd13)" style="fill: #cacaff"/>
    <path d="M 812.027945 34.38 
L 812.027945 7.2 
L 814.075192 7.2 
L 814.075192 34.38 
L 812.027945 34.38 
z
" clip-path="url(#pecd59afd13)" style="fill: #ff5454"/>
    <path d="M 814.075192 34.38 
L 814.075192 7.2 
L 816.122438 7.2 
L 816.122438 34.38 
L 814.075192 34.38 
z
" clip-path="url(#pecd59afd13)" style="fill: #ff5e5e"/>
    <path d="M 816.122438 34.38 
L 816.122438 7.2 
L 818.169685 7.2 
L 818.169685 34.38 
L 816.122438 34.38 
z
" clip-path="url(#pecd59afd13)" style="fill: #ff5454"/>
    <path d="M 818.169685 34.38 
L 818.169685 7.2 
L 820.216932 7.2 
L 820.216932 34.38 
L 818.169685 34.38 
z
" clip-path="url(#pecd59afd13)" style="fill: #9090ff"/>
    <path d="M 820.216932 34.38 
L 820.216932 7.2 
L 822.264178 7.2 
L 822.264178 34.38 
L 820.216932 34.38 
z
" clip-path="url(#pecd59afd13)" style="fill: #6868ff"/>
    <path d="M 822.264178 34.38 
L 822.264178 7.2 
L 824.311425 7.2 
L 824.311425 34.38 
L 822.264178 34.38 
z
" clip-path="url(#pecd59afd13)" style="fill: #7474ff"/>
    <path d="M 824.311425 34.38 
L 824.311425 7.2 
L 826.358672 7.2 
L 826.358672 34.38 
L 824.311425 34.38 
z
" clip-path="url(#pecd59afd13)" style="fill: #ff7a7a"/>
    <path d="M 826.358672 34.38 
L 826.358672 7.2 
L 828.405919 7.2 
L 828.405919 34.38 
L 826.358672 34.38 
z
" clip-path="url(#pecd59afd13)" style="fill: #ff8686"/>
    <path d="M 828.405919 34.38 
L 828.405919 7.2 
L 830.453165 7.2 
L 830.453165 34.38 
L 828.405919 34.38 
z
" clip-path="url(#pecd59afd13)" style="fill: #f2f2ff"/>
    <path d="M 830.453165 34.38 
L 830.453165 7.2 
L 832.500412 7.2 
L 832.500412 34.38 
L 830.453165 34.38 
z
" clip-path="url(#pecd59afd13)" style="fill: #ff3030"/>
    <path d="M 832.500412 34.38 
L 832.500412 7.2 
L 834.547659 7.2 
L 834.547659 34.38 
L 832.500412 34.38 
z
" clip-path="url(#pecd59afd13)" style="fill: #ffd6d6"/>
    <path d="M 834.547659 34.38 
L 834.547659 7.2 
L 836.594906 7.2 
L 836.594906 34.38 
L 834.547659 34.38 
z
" clip-path="url(#pecd59afd13)" style="fill: #3838ff"/>
    <path d="M 836.594906 34.38 
L 836.594906 7.2 
L 838.642152 7.2 
L 838.642152 34.38 
L 836.594906 34.38 
z
" clip-path="url(#pecd59afd13)" style="fill: #6262ff"/>
    <path d="M 838.642152 34.38 
L 838.642152 7.2 
L 840.689399 7.2 
L 840.689399 34.38 
L 838.642152 34.38 
z
" clip-path="url(#pecd59afd13)" style="fill: #5252ff"/>
    <path d="M 840.689399 34.38 
L 840.689399 7.2 
L 842.736646 7.2 
L 842.736646 34.38 
L 840.689399 34.38 
z
" clip-path="url(#pecd59afd13)" style="fill: #ff2424"/>
    <path d="M 842.736646 34.38 
L 842.736646 7.2 
L 844.783893 7.2 
L 844.783893 34.38 
L 842.736646 34.38 
z
" clip-path="url(#pecd59afd13)" style="fill: #ff1212"/>
    <path d="M 844.783893 34.38 
L 844.783893 7.2 
L 846.831139 7.2 
L 846.831139 34.38 
L 844.783893 34.38 
z
" clip-path="url(#pecd59afd13)" style="fill: #ff1212"/>
   </g>
   <g id="patch_3">
    <path d="M 72.971875 34.38 
L 72.971875 7.2 
" style="fill: none; stroke: #262626; stroke-width: 1.25; stroke-linejoin: miter; stroke-linecap: square"/>
   </g>
   <g id="patch_4">
    <path d="M 846.831139 34.38 
L 846.831139 7.2 
" style="fill: none; stroke: #262626; stroke-width: 1.25; stroke-linejoin: miter; stroke-linecap: square"/>
   </g>
   <g id="patch_5">
    <path d="M 72.971875 34.38 
L 846.831139 34.38 
" style="fill: none; stroke: #262626; stroke-width: 1.25; stroke-linejoin: miter; stroke-linecap: square"/>
   </g>
   <g id="patch_6">
    <path d="M 72.971875 7.2 
L 846.831139 7.2 
" style="fill: none; stroke: #262626; stroke-width: 1.25; stroke-linejoin: miter; stroke-linecap: square"/>
   </g>
   <g id="text_6">
    <text style="fill: #262626; font: 18px 'sans-serif'; text-anchor: middle" x="226.51538" y="64.278" transform="rotate(-0, 226.51538, 64.278)">Cells</text>
   </g>
   <g id="text_7">
    <text style="fill: #262626; font: 18px 'sans-serif'; text-anchor: middle" x="560.216597" y="64.278" transform="rotate(-0, 560.216597, 64.278)">Cytoplasm</text>
   </g>
   <g id="text_8">
    <text style="fill: #262626; font: 18px 'sans-serif'; text-anchor: middle" x="793.602724" y="64.278" transform="rotate(-0, 793.602724, 64.278)">Nuclei</text>
   </g>
  </g>
 </g>
 <defs>
  <clipPath id="pecd59afd13">
   <rect x="72.971875" y="7.2" width="773.859264" height="27.18"/>
  </clipPath>
 </defs>
</svg>
