<?xml version="1.0" encoding="utf-8" standalone="no"?>
<!DOCTYPE svg PUBLIC "-//W3C//DTD SVG 1.1//EN"
  "http://www.w3.org/Graphics/SVG/1.1/DTD/svg11.dtd">
<svg xmlns:xlink="http://www.w3.org/1999/xlink" width="919.113699pt" height="76.400437pt" viewBox="0 0 919.113699 76.400437" xmlns="http://www.w3.org/2000/svg" version="1.1">
 <metadata>
  <rdf:RDF xmlns:dc="http://purl.org/dc/elements/1.1/" xmlns:cc="http://creativecommons.org/ns#" xmlns:rdf="http://www.w3.org/1999/02/22-rdf-syntax-ns#">
   <cc:Work>
    <dc:type rdf:resource="http://purl.org/dc/dcmitype/StillImage"/>
    <dc:date>2023-11-13T11:17:28.073890</dc:date>
    <dc:format>image/svg+xml</dc:format>
    <dc:creator>
     <cc:Agent>
      <dc:title>Matplotlib v3.6.3, https://matplotlib.org/</dc:title>
     </cc:Agent>
    </dc:creator>
   </cc:Work>
  </rdf:RDF>
 </metadata>
 <defs>
  <style type="text/css">*{stroke-linejoin: round; stroke-linecap: butt}</style>
 </defs>
 <g id="figure_1">
  <g id="patch_1">
   <path d="M 0 76.400437 
L 919.113699 76.400437 
L 919.113699 0 
L 0 0 
z
" style="fill: #ffffff"/>
  </g>
  <g id="axes_1">
   <g id="patch_2">
    <path d="M 79.66875 34.92 
L 899.401589 34.92 
L 899.401589 7.2 
L 79.66875 7.2 
z
" style="fill: #ffffff"/>
   </g>
   <g id="matplotlib.axis_1">
    <g id="xtick_1">
     <g id="line2d_1"/>
     <g id="text_1">
      <text style="fill: #262626; font: 15px 'Arial', 'Liberation Sans', 'DejaVu Sans', 'Bitstream Vera Sans', sans-serif; text-anchor: middle" x="81.687796" y="54.756719" transform="rotate(-0 81.687796 54.756719)">1</text>
     </g>
    </g>
    <g id="xtick_2">
     <g id="line2d_2"/>
     <g id="text_2">
      <text style="fill: #262626; font: 15px 'Arial', 'Liberation Sans', 'DejaVu Sans', 'Bitstream Vera Sans', sans-serif; text-anchor: middle" x="394.639989" y="54.756719" transform="rotate(-0 394.639989 54.756719)">156</text>
     </g>
    </g>
    <g id="xtick_3">
     <g id="line2d_3"/>
     <g id="text_3">
      <text style="fill: #262626; font: 15px 'Arial', 'Liberation Sans', 'DejaVu Sans', 'Bitstream Vera Sans', sans-serif; text-anchor: middle" x="719.70646" y="54.756719" transform="rotate(-0 719.70646 54.756719)">317</text>
     </g>
    </g>
    <g id="xtick_4">
     <g id="line2d_4"/>
     <g id="text_4">
      <text style="fill: #262626; font: 15px 'Arial', 'Liberation Sans', 'DejaVu Sans', 'Bitstream Vera Sans', sans-serif; text-anchor: middle" x="899.401589" y="54.756719" transform="rotate(-0 899.401589 54.756719)">406</text>
     </g>
    </g>
   </g>
   <g id="matplotlib.axis_2">
    <g id="ytick_1">
     <g id="line2d_5"/>
     <g id="text_5">
      <text style="fill: #262626; font: 20px 'Arial', 'Liberation Sans', 'DejaVu Sans', 'Bitstream Vera Sans', sans-serif; text-anchor: end" x="70.56875" y="28.217812" transform="rotate(-0 70.56875 28.217812)">HSP90</text>
     </g>
    </g>
   </g>
   <g id="PolyCollection_1">
    <path d="M 79.66875 34.92 
L 79.66875 7.2 
L 81.687796 7.2 
L 81.687796 34.92 
L 79.66875 34.92 
z
" clip-path="url(#pa4b2324831)" style="fill: #ff7a7a"/>
    <path d="M 81.687796 34.92 
L 81.687796 7.2 
L 83.706843 7.2 
L 83.706843 34.92 
L 81.687796 34.92 
z
" clip-path="url(#pa4b2324831)" style="fill: #ffaaaa"/>
    <path d="M 83.706843 34.92 
L 83.706843 7.2 
L 85.725889 7.2 
L 85.725889 34.92 
L 83.706843 34.92 
z
" clip-path="url(#pa4b2324831)" style="fill: #f2f2ff"/>
    <path d="M 85.725889 34.92 
L 85.725889 7.2 
L 87.744936 7.2 
L 87.744936 34.92 
L 85.725889 34.92 
z
" clip-path="url(#pa4b2324831)" style="fill: #ffd4d4"/>
    <path d="M 87.744936 34.92 
L 87.744936 7.2 
L 89.763982 7.2 
L 89.763982 34.92 
L 87.744936 34.92 
z
" clip-path="url(#pa4b2324831)" style="fill: #dadaff"/>
    <path d="M 89.763982 34.92 
L 89.763982 7.2 
L 91.783028 7.2 
L 91.783028 34.92 
L 89.763982 34.92 
z
" clip-path="url(#pa4b2324831)" style="fill: #c8c8ff"/>
    <path d="M 91.783028 34.92 
L 91.783028 7.2 
L 93.802075 7.2 
L 93.802075 34.92 
L 91.783028 34.92 
z
" clip-path="url(#pa4b2324831)" style="fill: #ffcccc"/>
    <path d="M 93.802075 34.92 
L 93.802075 7.2 
L 95.821121 7.2 
L 95.821121 34.92 
L 93.802075 34.92 
z
" clip-path="url(#pa4b2324831)" style="fill: #ffc6c6"/>
    <path d="M 95.821121 34.92 
L 95.821121 7.2 
L 97.840168 7.2 
L 97.840168 34.92 
L 95.821121 34.92 
z
" clip-path="url(#pa4b2324831)" style="fill: #ff3232"/>
    <path d="M 97.840168 34.92 
L 97.840168 7.2 
L 99.859214 7.2 
L 99.859214 34.92 
L 97.840168 34.92 
z
" clip-path="url(#pa4b2324831)" style="fill: #eaeaff"/>
    <path d="M 99.859214 34.92 
L 99.859214 7.2 
L 101.87826 7.2 
L 101.87826 34.92 
L 99.859214 34.92 
z
" clip-path="url(#pa4b2324831)" style="fill: #ffbebe"/>
    <path d="M 101.87826 34.92 
L 101.87826 7.2 
L 103.897307 7.2 
L 103.897307 34.92 
L 101.87826 34.92 
z
" clip-path="url(#pa4b2324831)" style="fill: #aaaaff"/>
    <path d="M 103.897307 34.92 
L 103.897307 7.2 
L 105.916353 7.2 
L 105.916353 34.92 
L 103.897307 34.92 
z
" clip-path="url(#pa4b2324831)" style="fill: #ffeaea"/>
    <path d="M 105.916353 34.92 
L 105.916353 7.2 
L 107.9354 7.2 
L 107.9354 34.92 
L 105.916353 34.92 
z
" clip-path="url(#pa4b2324831)" style="fill: #ffe6e6"/>
    <path d="M 107.9354 34.92 
L 107.9354 7.2 
L 109.954446 7.2 
L 109.954446 34.92 
L 107.9354 34.92 
z
" clip-path="url(#pa4b2324831)" style="fill: #a8a8ff"/>
    <path d="M 109.954446 34.92 
L 109.954446 7.2 
L 111.973492 7.2 
L 111.973492 34.92 
L 109.954446 34.92 
z
" clip-path="url(#pa4b2324831)" style="fill: #ececff"/>
    <path d="M 111.973492 34.92 
L 111.973492 7.2 
L 113.992539 7.2 
L 113.992539 34.92 
L 111.973492 34.92 
z
" clip-path="url(#pa4b2324831)" style="fill: #dadaff"/>
    <path d="M 113.992539 34.92 
L 113.992539 7.2 
L 116.011585 7.2 
L 116.011585 34.92 
L 113.992539 34.92 
z
" clip-path="url(#pa4b2324831)" style="fill: #e4e4ff"/>
    <path d="M 116.011585 34.92 
L 116.011585 7.2 
L 118.030632 7.2 
L 118.030632 34.92 
L 116.011585 34.92 
z
" clip-path="url(#pa4b2324831)" style="fill: #ffbebe"/>
    <path d="M 118.030632 34.92 
L 118.030632 7.2 
L 120.049678 7.2 
L 120.049678 34.92 
L 118.030632 34.92 
z
" clip-path="url(#pa4b2324831)" style="fill: #cacaff"/>
    <path d="M 120.049678 34.92 
L 120.049678 7.2 
L 122.068724 7.2 
L 122.068724 34.92 
L 120.049678 34.92 
z
" clip-path="url(#pa4b2324831)" style="fill: #9494ff"/>
    <path d="M 122.068724 34.92 
L 122.068724 7.2 
L 124.087771 7.2 
L 124.087771 34.92 
L 122.068724 34.92 
z
" clip-path="url(#pa4b2324831)" style="fill: #ffeaea"/>
    <path d="M 124.087771 34.92 
L 124.087771 7.2 
L 126.106817 7.2 
L 126.106817 34.92 
L 124.087771 34.92 
z
" clip-path="url(#pa4b2324831)" style="fill: #ffdede"/>
    <path d="M 126.106817 34.92 
L 126.106817 7.2 
L 128.125864 7.2 
L 128.125864 34.92 
L 126.106817 34.92 
z
" clip-path="url(#pa4b2324831)" style="fill: #bcbcff"/>
    <path d="M 128.125864 34.92 
L 128.125864 7.2 
L 130.14491 7.2 
L 130.14491 34.92 
L 128.125864 34.92 
z
" clip-path="url(#pa4b2324831)" style="fill: #ff8a8a"/>
    <path d="M 130.14491 34.92 
L 130.14491 7.2 
L 132.163956 7.2 
L 132.163956 34.92 
L 130.14491 34.92 
z
" clip-path="url(#pa4b2324831)" style="fill: #7c7cff"/>
    <path d="M 132.163956 34.92 
L 132.163956 7.2 
L 134.183003 7.2 
L 134.183003 34.92 
L 132.163956 34.92 
z
" clip-path="url(#pa4b2324831)" style="fill: #9c9cff"/>
    <path d="M 134.183003 34.92 
L 134.183003 7.2 
L 136.202049 7.2 
L 136.202049 34.92 
L 134.183003 34.92 
z
" clip-path="url(#pa4b2324831)" style="fill: #babaff"/>
    <path d="M 136.202049 34.92 
L 136.202049 7.2 
L 138.221096 7.2 
L 138.221096 34.92 
L 136.202049 34.92 
z
" clip-path="url(#pa4b2324831)" style="fill: #cacaff"/>
    <path d="M 138.221096 34.92 
L 138.221096 7.2 
L 140.240142 7.2 
L 140.240142 34.92 
L 138.221096 34.92 
z
" clip-path="url(#pa4b2324831)" style="fill: #ccccff"/>
    <path d="M 140.240142 34.92 
L 140.240142 7.2 
L 142.259188 7.2 
L 142.259188 34.92 
L 140.240142 34.92 
z
" clip-path="url(#pa4b2324831)" style="fill: #ffeaea"/>
    <path d="M 142.259188 34.92 
L 142.259188 7.2 
L 144.278235 7.2 
L 144.278235 34.92 
L 142.259188 34.92 
z
" clip-path="url(#pa4b2324831)" style="fill: #f0f0ff"/>
    <path d="M 144.278235 34.92 
L 144.278235 7.2 
L 146.297281 7.2 
L 146.297281 34.92 
L 144.278235 34.92 
z
" clip-path="url(#pa4b2324831)" style="fill: #e4e4ff"/>
    <path d="M 146.297281 34.92 
L 146.297281 7.2 
L 148.316328 7.2 
L 148.316328 34.92 
L 146.297281 34.92 
z
" clip-path="url(#pa4b2324831)" style="fill: #d4d4ff"/>
    <path d="M 148.316328 34.92 
L 148.316328 7.2 
L 150.335374 7.2 
L 150.335374 34.92 
L 148.316328 34.92 
z
" clip-path="url(#pa4b2324831)" style="fill: #d2d2ff"/>
    <path d="M 150.335374 34.92 
L 150.335374 7.2 
L 152.35442 7.2 
L 152.35442 34.92 
L 150.335374 34.92 
z
" clip-path="url(#pa4b2324831)" style="fill: #c8c8ff"/>
    <path d="M 152.35442 34.92 
L 152.35442 7.2 
L 154.373467 7.2 
L 154.373467 34.92 
L 152.35442 34.92 
z
" clip-path="url(#pa4b2324831)" style="fill: #a6a6ff"/>
    <path d="M 154.373467 34.92 
L 154.373467 7.2 
L 156.392513 7.2 
L 156.392513 34.92 
L 154.373467 34.92 
z
" clip-path="url(#pa4b2324831)" style="fill: #5c5cff"/>
    <path d="M 156.392513 34.92 
L 156.392513 7.2 
L 158.41156 7.2 
L 158.41156 34.92 
L 156.392513 34.92 
z
" clip-path="url(#pa4b2324831)" style="fill: #3a3aff"/>
    <path d="M 158.41156 34.92 
L 158.41156 7.2 
L 160.430606 7.2 
L 160.430606 34.92 
L 158.41156 34.92 
z
" clip-path="url(#pa4b2324831)" style="fill: #6c6cff"/>
    <path d="M 160.430606 34.92 
L 160.430606 7.2 
L 162.449652 7.2 
L 162.449652 34.92 
L 160.430606 34.92 
z
" clip-path="url(#pa4b2324831)" style="fill: #7474ff"/>
    <path d="M 162.449652 34.92 
L 162.449652 7.2 
L 164.468699 7.2 
L 164.468699 34.92 
L 162.449652 34.92 
z
" clip-path="url(#pa4b2324831)" style="fill: #7e7eff"/>
    <path d="M 164.468699 34.92 
L 164.468699 7.2 
L 166.487745 7.2 
L 166.487745 34.92 
L 164.468699 34.92 
z
" clip-path="url(#pa4b2324831)" style="fill: #1010ff"/>
    <path d="M 166.487745 34.92 
L 166.487745 7.2 
L 168.506792 7.2 
L 168.506792 34.92 
L 166.487745 34.92 
z
" clip-path="url(#pa4b2324831)" style="fill: #6262ff"/>
    <path d="M 168.506792 34.92 
L 168.506792 7.2 
L 170.525838 7.2 
L 170.525838 34.92 
L 168.506792 34.92 
z
" clip-path="url(#pa4b2324831)" style="fill: #8888ff"/>
    <path d="M 170.525838 34.92 
L 170.525838 7.2 
L 172.544885 7.2 
L 172.544885 34.92 
L 170.525838 34.92 
z
" clip-path="url(#pa4b2324831)" style="fill: #ffecec"/>
    <path d="M 172.544885 34.92 
L 172.544885 7.2 
L 174.563931 7.2 
L 174.563931 34.92 
L 172.544885 34.92 
z
" clip-path="url(#pa4b2324831)" style="fill: #ffe8e8"/>
    <path d="M 174.563931 34.92 
L 174.563931 7.2 
L 176.582977 7.2 
L 176.582977 34.92 
L 174.563931 34.92 
z
" clip-path="url(#pa4b2324831)" style="fill: #ffcaca"/>
    <path d="M 176.582977 34.92 
L 176.582977 7.2 
L 178.602024 7.2 
L 178.602024 34.92 
L 176.582977 34.92 
z
" clip-path="url(#pa4b2324831)" style="fill: #ff9a9a"/>
    <path d="M 178.602024 34.92 
L 178.602024 7.2 
L 180.62107 7.2 
L 180.62107 34.92 
L 178.602024 34.92 
z
" clip-path="url(#pa4b2324831)" style="fill: #fffefe"/>
    <path d="M 180.62107 34.92 
L 180.62107 7.2 
L 182.640117 7.2 
L 182.640117 34.92 
L 180.62107 34.92 
z
" clip-path="url(#pa4b2324831)" style="fill: #ffa2a2"/>
    <path d="M 182.640117 34.92 
L 182.640117 7.2 
L 184.659163 7.2 
L 184.659163 34.92 
L 182.640117 34.92 
z
" clip-path="url(#pa4b2324831)" style="fill: #ff6e6e"/>
    <path d="M 184.659163 34.92 
L 184.659163 7.2 
L 186.678209 7.2 
L 186.678209 34.92 
L 184.659163 34.92 
z
" clip-path="url(#pa4b2324831)" style="fill: #ffcccc"/>
    <path d="M 186.678209 34.92 
L 186.678209 7.2 
L 188.697256 7.2 
L 188.697256 34.92 
L 186.678209 34.92 
z
" clip-path="url(#pa4b2324831)" style="fill: #ff4a4a"/>
    <path d="M 188.697256 34.92 
L 188.697256 7.2 
L 190.716302 7.2 
L 190.716302 34.92 
L 188.697256 34.92 
z
" clip-path="url(#pa4b2324831)" style="fill: #ffbcbc"/>
    <path d="M 190.716302 34.92 
L 190.716302 7.2 
L 192.735349 7.2 
L 192.735349 34.92 
L 190.716302 34.92 
z
" clip-path="url(#pa4b2324831)" style="fill: #ffdede"/>
    <path d="M 192.735349 34.92 
L 192.735349 7.2 
L 194.754395 7.2 
L 194.754395 34.92 
L 192.735349 34.92 
z
" clip-path="url(#pa4b2324831)" style="fill: #ffa4a4"/>
    <path d="M 194.754395 34.92 
L 194.754395 7.2 
L 196.773441 7.2 
L 196.773441 34.92 
L 194.754395 34.92 
z
" clip-path="url(#pa4b2324831)" style="fill: #8e8eff"/>
    <path d="M 196.773441 34.92 
L 196.773441 7.2 
L 198.792488 7.2 
L 198.792488 34.92 
L 196.773441 34.92 
z
" clip-path="url(#pa4b2324831)" style="fill: #fff8f8"/>
    <path d="M 198.792488 34.92 
L 198.792488 7.2 
L 200.811534 7.2 
L 200.811534 34.92 
L 198.792488 34.92 
z
" clip-path="url(#pa4b2324831)" style="fill: #eeeeff"/>
    <path d="M 200.811534 34.92 
L 200.811534 7.2 
L 202.830581 7.2 
L 202.830581 34.92 
L 200.811534 34.92 
z
" clip-path="url(#pa4b2324831)" style="fill: #ffb0b0"/>
    <path d="M 202.830581 34.92 
L 202.830581 7.2 
L 204.849627 7.2 
L 204.849627 34.92 
L 202.830581 34.92 
z
" clip-path="url(#pa4b2324831)" style="fill: #ffecec"/>
    <path d="M 204.849627 34.92 
L 204.849627 7.2 
L 206.868673 7.2 
L 206.868673 34.92 
L 204.849627 34.92 
z
" clip-path="url(#pa4b2324831)" style="fill: #ffb0b0"/>
    <path d="M 206.868673 34.92 
L 206.868673 7.2 
L 208.88772 7.2 
L 208.88772 34.92 
L 206.868673 34.92 
z
" clip-path="url(#pa4b2324831)" style="fill: #dadaff"/>
    <path d="M 208.88772 34.92 
L 208.88772 7.2 
L 210.906766 7.2 
L 210.906766 34.92 
L 208.88772 34.92 
z
" clip-path="url(#pa4b2324831)" style="fill: #dadaff"/>
    <path d="M 210.906766 34.92 
L 210.906766 7.2 
L 212.925813 7.2 
L 212.925813 34.92 
L 210.906766 34.92 
z
" clip-path="url(#pa4b2324831)" style="fill: #ff2a2a"/>
    <path d="M 212.925813 34.92 
L 212.925813 7.2 
L 214.944859 7.2 
L 214.944859 34.92 
L 212.925813 34.92 
z
" clip-path="url(#pa4b2324831)" style="fill: #ff5252"/>
    <path d="M 214.944859 34.92 
L 214.944859 7.2 
L 216.963905 7.2 
L 216.963905 34.92 
L 214.944859 34.92 
z
" clip-path="url(#pa4b2324831)" style="fill: #ffaeae"/>
    <path d="M 216.963905 34.92 
L 216.963905 7.2 
L 218.982952 7.2 
L 218.982952 34.92 
L 216.963905 34.92 
z
" clip-path="url(#pa4b2324831)" style="fill: #ffc2c2"/>
    <path d="M 218.982952 34.92 
L 218.982952 7.2 
L 221.001998 7.2 
L 221.001998 34.92 
L 218.982952 34.92 
z
" clip-path="url(#pa4b2324831)" style="fill: #d8d8ff"/>
    <path d="M 221.001998 34.92 
L 221.001998 7.2 
L 223.021045 7.2 
L 223.021045 34.92 
L 221.001998 34.92 
z
" clip-path="url(#pa4b2324831)" style="fill: #ffd2d2"/>
    <path d="M 223.021045 34.92 
L 223.021045 7.2 
L 225.040091 7.2 
L 225.040091 34.92 
L 223.021045 34.92 
z
" clip-path="url(#pa4b2324831)" style="fill: #e2e2ff"/>
    <path d="M 225.040091 34.92 
L 225.040091 7.2 
L 227.059137 7.2 
L 227.059137 34.92 
L 225.040091 34.92 
z
" clip-path="url(#pa4b2324831)" style="fill: #ffb2b2"/>
    <path d="M 227.059137 34.92 
L 227.059137 7.2 
L 229.078184 7.2 
L 229.078184 34.92 
L 227.059137 34.92 
z
" clip-path="url(#pa4b2324831)" style="fill: #ffc6c6"/>
    <path d="M 229.078184 34.92 
L 229.078184 7.2 
L 231.09723 7.2 
L 231.09723 34.92 
L 229.078184 34.92 
z
" clip-path="url(#pa4b2324831)" style="fill: #ffc0c0"/>
    <path d="M 231.09723 34.92 
L 231.09723 7.2 
L 233.116277 7.2 
L 233.116277 34.92 
L 231.09723 34.92 
z
" clip-path="url(#pa4b2324831)" style="fill: #d4d4ff"/>
    <path d="M 233.116277 34.92 
L 233.116277 7.2 
L 235.135323 7.2 
L 235.135323 34.92 
L 233.116277 34.92 
z
" clip-path="url(#pa4b2324831)" style="fill: #d2d2ff"/>
    <path d="M 235.135323 34.92 
L 235.135323 7.2 
L 237.154369 7.2 
L 237.154369 34.92 
L 235.135323 34.92 
z
" clip-path="url(#pa4b2324831)" style="fill: #ffe6e6"/>
    <path d="M 237.154369 34.92 
L 237.154369 7.2 
L 239.173416 7.2 
L 239.173416 34.92 
L 237.154369 34.92 
z
" clip-path="url(#pa4b2324831)" style="fill: #c2c2ff"/>
    <path d="M 239.173416 34.92 
L 239.173416 7.2 
L 241.192462 7.2 
L 241.192462 34.92 
L 239.173416 34.92 
z
" clip-path="url(#pa4b2324831)" style="fill: #c8c8ff"/>
    <path d="M 241.192462 34.92 
L 241.192462 7.2 
L 243.211509 7.2 
L 243.211509 34.92 
L 241.192462 34.92 
z
" clip-path="url(#pa4b2324831)" style="fill: #ffc8c8"/>
    <path d="M 243.211509 34.92 
L 243.211509 7.2 
L 245.230555 7.2 
L 245.230555 34.92 
L 243.211509 34.92 
z
" clip-path="url(#pa4b2324831)" style="fill: #dadaff"/>
    <path d="M 245.230555 34.92 
L 245.230555 7.2 
L 247.249601 7.2 
L 247.249601 34.92 
L 245.230555 34.92 
z
" clip-path="url(#pa4b2324831)" style="fill: #ffdcdc"/>
    <path d="M 247.249601 34.92 
L 247.249601 7.2 
L 249.268648 7.2 
L 249.268648 34.92 
L 247.249601 34.92 
z
" clip-path="url(#pa4b2324831)" style="fill: #ff8686"/>
    <path d="M 249.268648 34.92 
L 249.268648 7.2 
L 251.287694 7.2 
L 251.287694 34.92 
L 249.268648 34.92 
z
" clip-path="url(#pa4b2324831)" style="fill: #9090ff"/>
    <path d="M 251.287694 34.92 
L 251.287694 7.2 
L 253.306741 7.2 
L 253.306741 34.92 
L 251.287694 34.92 
z
" clip-path="url(#pa4b2324831)" style="fill: #9696ff"/>
    <path d="M 253.306741 34.92 
L 253.306741 7.2 
L 255.325787 7.2 
L 255.325787 34.92 
L 253.306741 34.92 
z
" clip-path="url(#pa4b2324831)" style="fill: #d0d0ff"/>
    <path d="M 255.325787 34.92 
L 255.325787 7.2 
L 257.344833 7.2 
L 257.344833 34.92 
L 255.325787 34.92 
z
" clip-path="url(#pa4b2324831)" style="fill: #c0c0ff"/>
    <path d="M 257.344833 34.92 
L 257.344833 7.2 
L 259.36388 7.2 
L 259.36388 34.92 
L 257.344833 34.92 
z
" clip-path="url(#pa4b2324831)" style="fill: #c6c6ff"/>
    <path d="M 259.36388 34.92 
L 259.36388 7.2 
L 261.382926 7.2 
L 261.382926 34.92 
L 259.36388 34.92 
z
" clip-path="url(#pa4b2324831)" style="fill: #c6c6ff"/>
    <path d="M 261.382926 34.92 
L 261.382926 7.2 
L 263.401973 7.2 
L 263.401973 34.92 
L 261.382926 34.92 
z
" clip-path="url(#pa4b2324831)" style="fill: #b4b4ff"/>
    <path d="M 263.401973 34.92 
L 263.401973 7.2 
L 265.421019 7.2 
L 265.421019 34.92 
L 263.401973 34.92 
z
" clip-path="url(#pa4b2324831)" style="fill: #bebeff"/>
    <path d="M 265.421019 34.92 
L 265.421019 7.2 
L 267.440065 7.2 
L 267.440065 34.92 
L 265.421019 34.92 
z
" clip-path="url(#pa4b2324831)" style="fill: #ff8a8a"/>
    <path d="M 267.440065 34.92 
L 267.440065 7.2 
L 269.459112 7.2 
L 269.459112 34.92 
L 267.440065 34.92 
z
" clip-path="url(#pa4b2324831)" style="fill: #ffa2a2"/>
    <path d="M 269.459112 34.92 
L 269.459112 7.2 
L 271.478158 7.2 
L 271.478158 34.92 
L 269.459112 34.92 
z
" clip-path="url(#pa4b2324831)" style="fill: #9a9aff"/>
    <path d="M 271.478158 34.92 
L 271.478158 7.2 
L 273.497205 7.2 
L 273.497205 34.92 
L 271.478158 34.92 
z
" clip-path="url(#pa4b2324831)" style="fill: #9898ff"/>
    <path d="M 273.497205 34.92 
L 273.497205 7.2 
L 275.516251 7.2 
L 275.516251 34.92 
L 273.497205 34.92 
z
" clip-path="url(#pa4b2324831)" style="fill: #ffe4e4"/>
    <path d="M 275.516251 34.92 
L 275.516251 7.2 
L 277.535297 7.2 
L 277.535297 34.92 
L 275.516251 34.92 
z
" clip-path="url(#pa4b2324831)" style="fill: #dadaff"/>
    <path d="M 277.535297 34.92 
L 277.535297 7.2 
L 279.554344 7.2 
L 279.554344 34.92 
L 277.535297 34.92 
z
" clip-path="url(#pa4b2324831)" style="fill: #dedeff"/>
    <path d="M 279.554344 34.92 
L 279.554344 7.2 
L 281.57339 7.2 
L 281.57339 34.92 
L 279.554344 34.92 
z
" clip-path="url(#pa4b2324831)" style="fill: #ff3a3a"/>
    <path d="M 281.57339 34.92 
L 281.57339 7.2 
L 283.592437 7.2 
L 283.592437 34.92 
L 281.57339 34.92 
z
" clip-path="url(#pa4b2324831)" style="fill: #ffc2c2"/>
    <path d="M 283.592437 34.92 
L 283.592437 7.2 
L 285.611483 7.2 
L 285.611483 34.92 
L 283.592437 34.92 
z
" clip-path="url(#pa4b2324831)" style="fill: #ffa6a6"/>
    <path d="M 285.611483 34.92 
L 285.611483 7.2 
L 287.630529 7.2 
L 287.630529 34.92 
L 285.611483 34.92 
z
" clip-path="url(#pa4b2324831)" style="fill: #ffb4b4"/>
    <path d="M 287.630529 34.92 
L 287.630529 7.2 
L 289.649576 7.2 
L 289.649576 34.92 
L 287.630529 34.92 
z
" clip-path="url(#pa4b2324831)" style="fill: #dadaff"/>
    <path d="M 289.649576 34.92 
L 289.649576 7.2 
L 291.668622 7.2 
L 291.668622 34.92 
L 289.649576 34.92 
z
" clip-path="url(#pa4b2324831)" style="fill: #ffa2a2"/>
    <path d="M 291.668622 34.92 
L 291.668622 7.2 
L 293.687669 7.2 
L 293.687669 34.92 
L 291.668622 34.92 
z
" clip-path="url(#pa4b2324831)" style="fill: #ffbaba"/>
    <path d="M 293.687669 34.92 
L 293.687669 7.2 
L 295.706715 7.2 
L 295.706715 34.92 
L 293.687669 34.92 
z
" clip-path="url(#pa4b2324831)" style="fill: #ceceff"/>
    <path d="M 295.706715 34.92 
L 295.706715 7.2 
L 297.725761 7.2 
L 297.725761 34.92 
L 295.706715 34.92 
z
" clip-path="url(#pa4b2324831)" style="fill: #ccccff"/>
    <path d="M 297.725761 34.92 
L 297.725761 7.2 
L 299.744808 7.2 
L 299.744808 34.92 
L 297.725761 34.92 
z
" clip-path="url(#pa4b2324831)" style="fill: #b6b6ff"/>
    <path d="M 299.744808 34.92 
L 299.744808 7.2 
L 301.763854 7.2 
L 301.763854 34.92 
L 299.744808 34.92 
z
" clip-path="url(#pa4b2324831)" style="fill: #bcbcff"/>
    <path d="M 301.763854 34.92 
L 301.763854 7.2 
L 303.782901 7.2 
L 303.782901 34.92 
L 301.763854 34.92 
z
" clip-path="url(#pa4b2324831)" style="fill: #ffcece"/>
    <path d="M 303.782901 34.92 
L 303.782901 7.2 
L 305.801947 7.2 
L 305.801947 34.92 
L 303.782901 34.92 
z
" clip-path="url(#pa4b2324831)" style="fill: #ffc4c4"/>
    <path d="M 305.801947 34.92 
L 305.801947 7.2 
L 307.820993 7.2 
L 307.820993 34.92 
L 305.801947 34.92 
z
" clip-path="url(#pa4b2324831)" style="fill: #ffb6b6"/>
    <path d="M 307.820993 34.92 
L 307.820993 7.2 
L 309.84004 7.2 
L 309.84004 34.92 
L 307.820993 34.92 
z
" clip-path="url(#pa4b2324831)" style="fill: #ffbcbc"/>
    <path d="M 309.84004 34.92 
L 309.84004 7.2 
L 311.859086 7.2 
L 311.859086 34.92 
L 309.84004 34.92 
z
" clip-path="url(#pa4b2324831)" style="fill: #ffe8e8"/>
    <path d="M 311.859086 34.92 
L 311.859086 7.2 
L 313.878133 7.2 
L 313.878133 34.92 
L 311.859086 34.92 
z
" clip-path="url(#pa4b2324831)" style="fill: #ffd0d0"/>
    <path d="M 313.878133 34.92 
L 313.878133 7.2 
L 315.897179 7.2 
L 315.897179 34.92 
L 313.878133 34.92 
z
" clip-path="url(#pa4b2324831)" style="fill: #ffdcdc"/>
    <path d="M 315.897179 34.92 
L 315.897179 7.2 
L 317.916225 7.2 
L 317.916225 34.92 
L 315.897179 34.92 
z
" clip-path="url(#pa4b2324831)" style="fill: #ffd8d8"/>
    <path d="M 317.916225 34.92 
L 317.916225 7.2 
L 319.935272 7.2 
L 319.935272 34.92 
L 317.916225 34.92 
z
" clip-path="url(#pa4b2324831)" style="fill: #dedeff"/>
    <path d="M 319.935272 34.92 
L 319.935272 7.2 
L 321.954318 7.2 
L 321.954318 34.92 
L 319.935272 34.92 
z
" clip-path="url(#pa4b2324831)" style="fill: #d0d0ff"/>
    <path d="M 321.954318 34.92 
L 321.954318 7.2 
L 323.973365 7.2 
L 323.973365 34.92 
L 321.954318 34.92 
z
" clip-path="url(#pa4b2324831)" style="fill: #aeaeff"/>
    <path d="M 323.973365 34.92 
L 323.973365 7.2 
L 325.992411 7.2 
L 325.992411 34.92 
L 323.973365 34.92 
z
" clip-path="url(#pa4b2324831)" style="fill: #babaff"/>
    <path d="M 325.992411 34.92 
L 325.992411 7.2 
L 328.011457 7.2 
L 328.011457 34.92 
L 325.992411 34.92 
z
" clip-path="url(#pa4b2324831)" style="fill: #e2e2ff"/>
    <path d="M 328.011457 34.92 
L 328.011457 7.2 
L 330.030504 7.2 
L 330.030504 34.92 
L 328.011457 34.92 
z
" clip-path="url(#pa4b2324831)" style="fill: #b8b8ff"/>
    <path d="M 330.030504 34.92 
L 330.030504 7.2 
L 332.04955 7.2 
L 332.04955 34.92 
L 330.030504 34.92 
z
" clip-path="url(#pa4b2324831)" style="fill: #ceceff"/>
    <path d="M 332.04955 34.92 
L 332.04955 7.2 
L 334.068597 7.2 
L 334.068597 34.92 
L 332.04955 34.92 
z
" clip-path="url(#pa4b2324831)" style="fill: #f2f2ff"/>
    <path d="M 334.068597 34.92 
L 334.068597 7.2 
L 336.087643 7.2 
L 336.087643 34.92 
L 334.068597 34.92 
z
" clip-path="url(#pa4b2324831)" style="fill: #eaeaff"/>
    <path d="M 336.087643 34.92 
L 336.087643 7.2 
L 338.10669 7.2 
L 338.10669 34.92 
L 336.087643 34.92 
z
" clip-path="url(#pa4b2324831)" style="fill: #ececff"/>
    <path d="M 338.10669 34.92 
L 338.10669 7.2 
L 340.125736 7.2 
L 340.125736 34.92 
L 338.10669 34.92 
z
" clip-path="url(#pa4b2324831)" style="fill: #ffb6b6"/>
    <path d="M 340.125736 34.92 
L 340.125736 7.2 
L 342.144782 7.2 
L 342.144782 34.92 
L 340.125736 34.92 
z
" clip-path="url(#pa4b2324831)" style="fill: #ffa8a8"/>
    <path d="M 342.144782 34.92 
L 342.144782 7.2 
L 344.163829 7.2 
L 344.163829 34.92 
L 342.144782 34.92 
z
" clip-path="url(#pa4b2324831)" style="fill: #ffaaaa"/>
    <path d="M 344.163829 34.92 
L 344.163829 7.2 
L 346.182875 7.2 
L 346.182875 34.92 
L 344.163829 34.92 
z
" clip-path="url(#pa4b2324831)" style="fill: #ffc6c6"/>
    <path d="M 346.182875 34.92 
L 346.182875 7.2 
L 348.201922 7.2 
L 348.201922 34.92 
L 346.182875 34.92 
z
" clip-path="url(#pa4b2324831)" style="fill: #ffc2c2"/>
    <path d="M 348.201922 34.92 
L 348.201922 7.2 
L 350.220968 7.2 
L 350.220968 34.92 
L 348.201922 34.92 
z
" clip-path="url(#pa4b2324831)" style="fill: #ffc6c6"/>
    <path d="M 350.220968 34.92 
L 350.220968 7.2 
L 352.240014 7.2 
L 352.240014 34.92 
L 350.220968 34.92 
z
" clip-path="url(#pa4b2324831)" style="fill: #fff4f4"/>
    <path d="M 352.240014 34.92 
L 352.240014 7.2 
L 354.259061 7.2 
L 354.259061 34.92 
L 352.240014 34.92 
z
" clip-path="url(#pa4b2324831)" style="fill: #ffe2e2"/>
    <path d="M 354.259061 34.92 
L 354.259061 7.2 
L 356.278107 7.2 
L 356.278107 34.92 
L 354.259061 34.92 
z
" clip-path="url(#pa4b2324831)" style="fill: #ffe8e8"/>
    <path d="M 356.278107 34.92 
L 356.278107 7.2 
L 358.297154 7.2 
L 358.297154 34.92 
L 356.278107 34.92 
z
" clip-path="url(#pa4b2324831)" style="fill: #ffe0e0"/>
    <path d="M 358.297154 34.92 
L 358.297154 7.2 
L 360.3162 7.2 
L 360.3162 34.92 
L 358.297154 34.92 
z
" clip-path="url(#pa4b2324831)" style="fill: #ffe2e2"/>
    <path d="M 360.3162 34.92 
L 360.3162 7.2 
L 362.335246 7.2 
L 362.335246 34.92 
L 360.3162 34.92 
z
" clip-path="url(#pa4b2324831)" style="fill: #ffbebe"/>
    <path d="M 362.335246 34.92 
L 362.335246 7.2 
L 364.354293 7.2 
L 364.354293 34.92 
L 362.335246 34.92 
z
" clip-path="url(#pa4b2324831)" style="fill: #ffbebe"/>
    <path d="M 364.354293 34.92 
L 364.354293 7.2 
L 366.373339 7.2 
L 366.373339 34.92 
L 364.354293 34.92 
z
" clip-path="url(#pa4b2324831)" style="fill: #ffc0c0"/>
    <path d="M 366.373339 34.92 
L 366.373339 7.2 
L 368.392386 7.2 
L 368.392386 34.92 
L 366.373339 34.92 
z
" clip-path="url(#pa4b2324831)" style="fill: #dcdcff"/>
    <path d="M 368.392386 34.92 
L 368.392386 7.2 
L 370.411432 7.2 
L 370.411432 34.92 
L 368.392386 34.92 
z
" clip-path="url(#pa4b2324831)" style="fill: #d2d2ff"/>
    <path d="M 370.411432 34.92 
L 370.411432 7.2 
L 372.430478 7.2 
L 372.430478 34.92 
L 370.411432 34.92 
z
" clip-path="url(#pa4b2324831)" style="fill: #d0d0ff"/>
    <path d="M 372.430478 34.92 
L 372.430478 7.2 
L 374.449525 7.2 
L 374.449525 34.92 
L 372.430478 34.92 
z
" clip-path="url(#pa4b2324831)" style="fill: #ffcece"/>
    <path d="M 374.449525 34.92 
L 374.449525 7.2 
L 376.468571 7.2 
L 376.468571 34.92 
L 374.449525 34.92 
z
" clip-path="url(#pa4b2324831)" style="fill: #ffcece"/>
    <path d="M 376.468571 34.92 
L 376.468571 7.2 
L 378.487618 7.2 
L 378.487618 34.92 
L 376.468571 34.92 
z
" clip-path="url(#pa4b2324831)" style="fill: #ffc4c4"/>
    <path d="M 378.487618 34.92 
L 378.487618 7.2 
L 380.506664 7.2 
L 380.506664 34.92 
L 378.487618 34.92 
z
" clip-path="url(#pa4b2324831)" style="fill: #ffbebe"/>
    <path d="M 380.506664 34.92 
L 380.506664 7.2 
L 382.52571 7.2 
L 382.52571 34.92 
L 380.506664 34.92 
z
" clip-path="url(#pa4b2324831)" style="fill: #ffc2c2"/>
    <path d="M 382.52571 34.92 
L 382.52571 7.2 
L 384.544757 7.2 
L 384.544757 34.92 
L 382.52571 34.92 
z
" clip-path="url(#pa4b2324831)" style="fill: #c4c4ff"/>
    <path d="M 384.544757 34.92 
L 384.544757 7.2 
L 386.563803 7.2 
L 386.563803 34.92 
L 384.544757 34.92 
z
" clip-path="url(#pa4b2324831)" style="fill: #d2d2ff"/>
    <path d="M 386.563803 34.92 
L 386.563803 7.2 
L 388.58285 7.2 
L 388.58285 34.92 
L 386.563803 34.92 
z
" clip-path="url(#pa4b2324831)" style="fill: #c8c8ff"/>
    <path d="M 388.58285 34.92 
L 388.58285 7.2 
L 390.601896 7.2 
L 390.601896 34.92 
L 388.58285 34.92 
z
" clip-path="url(#pa4b2324831)" style="fill: #ffd4d4"/>
    <path d="M 390.601896 34.92 
L 390.601896 7.2 
L 392.620942 7.2 
L 392.620942 34.92 
L 390.601896 34.92 
z
" clip-path="url(#pa4b2324831)" style="fill: #ffd2d2"/>
    <path d="M 392.620942 34.92 
L 392.620942 7.2 
L 394.639989 7.2 
L 394.639989 34.92 
L 392.620942 34.92 
z
" clip-path="url(#pa4b2324831)" style="fill: #ffe4e4"/>
    <path d="M 394.639989 34.92 
L 394.639989 7.2 
L 396.659035 7.2 
L 396.659035 34.92 
L 394.639989 34.92 
z
" clip-path="url(#pa4b2324831)" style="fill: #ff8484"/>
    <path d="M 396.659035 34.92 
L 396.659035 7.2 
L 398.678082 7.2 
L 398.678082 34.92 
L 396.659035 34.92 
z
" clip-path="url(#pa4b2324831)" style="fill: #ff4040"/>
    <path d="M 398.678082 34.92 
L 398.678082 7.2 
L 400.697128 7.2 
L 400.697128 34.92 
L 398.678082 34.92 
z
" clip-path="url(#pa4b2324831)" style="fill: #ffbebe"/>
    <path d="M 400.697128 34.92 
L 400.697128 7.2 
L 402.716174 7.2 
L 402.716174 34.92 
L 400.697128 34.92 
z
" clip-path="url(#pa4b2324831)" style="fill: #ffc8c8"/>
    <path d="M 402.716174 34.92 
L 402.716174 7.2 
L 404.735221 7.2 
L 404.735221 34.92 
L 402.716174 34.92 
z
" clip-path="url(#pa4b2324831)" style="fill: #bebeff"/>
    <path d="M 404.735221 34.92 
L 404.735221 7.2 
L 406.754267 7.2 
L 406.754267 34.92 
L 404.735221 34.92 
z
" clip-path="url(#pa4b2324831)" style="fill: #ffd2d2"/>
    <path d="M 406.754267 34.92 
L 406.754267 7.2 
L 408.773314 7.2 
L 408.773314 34.92 
L 406.754267 34.92 
z
" clip-path="url(#pa4b2324831)" style="fill: #ffb0b0"/>
    <path d="M 408.773314 34.92 
L 408.773314 7.2 
L 410.79236 7.2 
L 410.79236 34.92 
L 408.773314 34.92 
z
" clip-path="url(#pa4b2324831)" style="fill: #ff0202"/>
    <path d="M 410.79236 34.92 
L 410.79236 7.2 
L 412.811406 7.2 
L 412.811406 34.92 
L 410.79236 34.92 
z
" clip-path="url(#pa4b2324831)" style="fill: #e8e8ff"/>
    <path d="M 412.811406 34.92 
L 412.811406 7.2 
L 414.830453 7.2 
L 414.830453 34.92 
L 412.811406 34.92 
z
" clip-path="url(#pa4b2324831)" style="fill: #ffbcbc"/>
    <path d="M 414.830453 34.92 
L 414.830453 7.2 
L 416.849499 7.2 
L 416.849499 34.92 
L 414.830453 34.92 
z
" clip-path="url(#pa4b2324831)" style="fill: #f8f8ff"/>
    <path d="M 416.849499 34.92 
L 416.849499 7.2 
L 418.868546 7.2 
L 418.868546 34.92 
L 416.849499 34.92 
z
" clip-path="url(#pa4b2324831)" style="fill: #ffe4e4"/>
    <path d="M 418.868546 34.92 
L 418.868546 7.2 
L 420.887592 7.2 
L 420.887592 34.92 
L 418.868546 34.92 
z
" clip-path="url(#pa4b2324831)" style="fill: #b0b0ff"/>
    <path d="M 420.887592 34.92 
L 420.887592 7.2 
L 422.906638 7.2 
L 422.906638 34.92 
L 420.887592 34.92 
z
" clip-path="url(#pa4b2324831)" style="fill: #dadaff"/>
    <path d="M 422.906638 34.92 
L 422.906638 7.2 
L 424.925685 7.2 
L 424.925685 34.92 
L 422.906638 34.92 
z
" clip-path="url(#pa4b2324831)" style="fill: #ffe6e6"/>
    <path d="M 424.925685 34.92 
L 424.925685 7.2 
L 426.944731 7.2 
L 426.944731 34.92 
L 424.925685 34.92 
z
" clip-path="url(#pa4b2324831)" style="fill: #ffe8e8"/>
    <path d="M 426.944731 34.92 
L 426.944731 7.2 
L 428.963778 7.2 
L 428.963778 34.92 
L 426.944731 34.92 
z
" clip-path="url(#pa4b2324831)" style="fill: #e0e0ff"/>
    <path d="M 428.963778 34.92 
L 428.963778 7.2 
L 430.982824 7.2 
L 430.982824 34.92 
L 428.963778 34.92 
z
" clip-path="url(#pa4b2324831)" style="fill: #ffdcdc"/>
    <path d="M 430.982824 34.92 
L 430.982824 7.2 
L 433.00187 7.2 
L 433.00187 34.92 
L 430.982824 34.92 
z
" clip-path="url(#pa4b2324831)" style="fill: #e4e4ff"/>
    <path d="M 433.00187 34.92 
L 433.00187 7.2 
L 435.020917 7.2 
L 435.020917 34.92 
L 433.00187 34.92 
z
" clip-path="url(#pa4b2324831)" style="fill: #f4f4ff"/>
    <path d="M 435.020917 34.92 
L 435.020917 7.2 
L 437.039963 7.2 
L 437.039963 34.92 
L 435.020917 34.92 
z
" clip-path="url(#pa4b2324831)" style="fill: #fffefe"/>
    <path d="M 437.039963 34.92 
L 437.039963 7.2 
L 439.05901 7.2 
L 439.05901 34.92 
L 437.039963 34.92 
z
" clip-path="url(#pa4b2324831)" style="fill: #fffefe"/>
    <path d="M 439.05901 34.92 
L 439.05901 7.2 
L 441.078056 7.2 
L 441.078056 34.92 
L 439.05901 34.92 
z
" clip-path="url(#pa4b2324831)" style="fill: #f8f8ff"/>
    <path d="M 441.078056 34.92 
L 441.078056 7.2 
L 443.097102 7.2 
L 443.097102 34.92 
L 441.078056 34.92 
z
" clip-path="url(#pa4b2324831)" style="fill: #fffefe"/>
    <path d="M 443.097102 34.92 
L 443.097102 7.2 
L 445.116149 7.2 
L 445.116149 34.92 
L 443.097102 34.92 
z
" clip-path="url(#pa4b2324831)" style="fill: #f6f6ff"/>
    <path d="M 445.116149 34.92 
L 445.116149 7.2 
L 447.135195 7.2 
L 447.135195 34.92 
L 445.116149 34.92 
z
" clip-path="url(#pa4b2324831)" style="fill: #fffefe"/>
    <path d="M 447.135195 34.92 
L 447.135195 7.2 
L 449.154242 7.2 
L 449.154242 34.92 
L 447.135195 34.92 
z
" clip-path="url(#pa4b2324831)" style="fill: #fafaff"/>
    <path d="M 449.154242 34.92 
L 449.154242 7.2 
L 451.173288 7.2 
L 451.173288 34.92 
L 449.154242 34.92 
z
" clip-path="url(#pa4b2324831)" style="fill: #ffeaea"/>
    <path d="M 451.173288 34.92 
L 451.173288 7.2 
L 453.192334 7.2 
L 453.192334 34.92 
L 451.173288 34.92 
z
" clip-path="url(#pa4b2324831)" style="fill: #eaeaff"/>
    <path d="M 453.192334 34.92 
L 453.192334 7.2 
L 455.211381 7.2 
L 455.211381 34.92 
L 453.192334 34.92 
z
" clip-path="url(#pa4b2324831)" style="fill: #fff2f2"/>
    <path d="M 455.211381 34.92 
L 455.211381 7.2 
L 457.230427 7.2 
L 457.230427 34.92 
L 455.211381 34.92 
z
" clip-path="url(#pa4b2324831)" style="fill: #f2f2ff"/>
    <path d="M 457.230427 34.92 
L 457.230427 7.2 
L 459.249474 7.2 
L 459.249474 34.92 
L 457.230427 34.92 
z
" clip-path="url(#pa4b2324831)" style="fill: #9292ff"/>
    <path d="M 459.249474 34.92 
L 459.249474 7.2 
L 461.26852 7.2 
L 461.26852 34.92 
L 459.249474 34.92 
z
" clip-path="url(#pa4b2324831)" style="fill: #aaaaff"/>
    <path d="M 461.26852 34.92 
L 461.26852 7.2 
L 463.287566 7.2 
L 463.287566 34.92 
L 461.26852 34.92 
z
" clip-path="url(#pa4b2324831)" style="fill: #8a8aff"/>
    <path d="M 463.287566 34.92 
L 463.287566 7.2 
L 465.306613 7.2 
L 465.306613 34.92 
L 463.287566 34.92 
z
" clip-path="url(#pa4b2324831)" style="fill: #cacaff"/>
    <path d="M 465.306613 34.92 
L 465.306613 7.2 
L 467.325659 7.2 
L 467.325659 34.92 
L 465.306613 34.92 
z
" clip-path="url(#pa4b2324831)" style="fill: #eaeaff"/>
    <path d="M 467.325659 34.92 
L 467.325659 7.2 
L 469.344706 7.2 
L 469.344706 34.92 
L 467.325659 34.92 
z
" clip-path="url(#pa4b2324831)" style="fill: #e8e8ff"/>
    <path d="M 469.344706 34.92 
L 469.344706 7.2 
L 471.363752 7.2 
L 471.363752 34.92 
L 469.344706 34.92 
z
" clip-path="url(#pa4b2324831)" style="fill: #f0f0ff"/>
    <path d="M 471.363752 34.92 
L 471.363752 7.2 
L 473.382798 7.2 
L 473.382798 34.92 
L 471.363752 34.92 
z
" clip-path="url(#pa4b2324831)" style="fill: #d0d0ff"/>
    <path d="M 473.382798 34.92 
L 473.382798 7.2 
L 475.401845 7.2 
L 475.401845 34.92 
L 473.382798 34.92 
z
" clip-path="url(#pa4b2324831)" style="fill: #d4d4ff"/>
    <path d="M 475.401845 34.92 
L 475.401845 7.2 
L 477.420891 7.2 
L 477.420891 34.92 
L 475.401845 34.92 
z
" clip-path="url(#pa4b2324831)" style="fill: #ccccff"/>
    <path d="M 477.420891 34.92 
L 477.420891 7.2 
L 479.439938 7.2 
L 479.439938 34.92 
L 477.420891 34.92 
z
" clip-path="url(#pa4b2324831)" style="fill: #8e8eff"/>
    <path d="M 479.439938 34.92 
L 479.439938 7.2 
L 481.458984 7.2 
L 481.458984 34.92 
L 479.439938 34.92 
z
" clip-path="url(#pa4b2324831)" style="fill: #acacff"/>
    <path d="M 481.458984 34.92 
L 481.458984 7.2 
L 483.47803 7.2 
L 483.47803 34.92 
L 481.458984 34.92 
z
" clip-path="url(#pa4b2324831)" style="fill: #7676ff"/>
    <path d="M 483.47803 34.92 
L 483.47803 7.2 
L 485.497077 7.2 
L 485.497077 34.92 
L 483.47803 34.92 
z
" clip-path="url(#pa4b2324831)" style="fill: #8e8eff"/>
    <path d="M 485.497077 34.92 
L 485.497077 7.2 
L 487.516123 7.2 
L 487.516123 34.92 
L 485.497077 34.92 
z
" clip-path="url(#pa4b2324831)" style="fill: #7272ff"/>
    <path d="M 487.516123 34.92 
L 487.516123 7.2 
L 489.53517 7.2 
L 489.53517 34.92 
L 487.516123 34.92 
z
" clip-path="url(#pa4b2324831)" style="fill: #7070ff"/>
    <path d="M 489.53517 34.92 
L 489.53517 7.2 
L 491.554216 7.2 
L 491.554216 34.92 
L 489.53517 34.92 
z
" clip-path="url(#pa4b2324831)" style="fill: #5656ff"/>
    <path d="M 491.554216 34.92 
L 491.554216 7.2 
L 493.573262 7.2 
L 493.573262 34.92 
L 491.554216 34.92 
z
" clip-path="url(#pa4b2324831)" style="fill: #7070ff"/>
    <path d="M 493.573262 34.92 
L 493.573262 7.2 
L 495.592309 7.2 
L 495.592309 34.92 
L 493.573262 34.92 
z
" clip-path="url(#pa4b2324831)" style="fill: #c6c6ff"/>
    <path d="M 495.592309 34.92 
L 495.592309 7.2 
L 497.611355 7.2 
L 497.611355 34.92 
L 495.592309 34.92 
z
" clip-path="url(#pa4b2324831)" style="fill: #8c8cff"/>
    <path d="M 497.611355 34.92 
L 497.611355 7.2 
L 499.630402 7.2 
L 499.630402 34.92 
L 497.611355 34.92 
z
" clip-path="url(#pa4b2324831)" style="fill: #f2f2ff"/>
    <path d="M 499.630402 34.92 
L 499.630402 7.2 
L 501.649448 7.2 
L 501.649448 34.92 
L 499.630402 34.92 
z
" clip-path="url(#pa4b2324831)" style="fill: #ffd2d2"/>
    <path d="M 501.649448 34.92 
L 501.649448 7.2 
L 503.668495 7.2 
L 503.668495 34.92 
L 501.649448 34.92 
z
" clip-path="url(#pa4b2324831)" style="fill: #ffd2d2"/>
    <path d="M 503.668495 34.92 
L 503.668495 7.2 
L 505.687541 7.2 
L 505.687541 34.92 
L 503.668495 34.92 
z
" clip-path="url(#pa4b2324831)" style="fill: #ff8080"/>
    <path d="M 505.687541 34.92 
L 505.687541 7.2 
L 507.706587 7.2 
L 507.706587 34.92 
L 505.687541 34.92 
z
" clip-path="url(#pa4b2324831)" style="fill: #fffefe"/>
    <path d="M 507.706587 34.92 
L 507.706587 7.2 
L 509.725634 7.2 
L 509.725634 34.92 
L 507.706587 34.92 
z
" clip-path="url(#pa4b2324831)" style="fill: #ff7c7c"/>
    <path d="M 509.725634 34.92 
L 509.725634 7.2 
L 511.74468 7.2 
L 511.74468 34.92 
L 509.725634 34.92 
z
" clip-path="url(#pa4b2324831)" style="fill: #ff3a3a"/>
    <path d="M 511.74468 34.92 
L 511.74468 7.2 
L 513.763727 7.2 
L 513.763727 34.92 
L 511.74468 34.92 
z
" clip-path="url(#pa4b2324831)" style="fill: #ffb8b8"/>
    <path d="M 513.763727 34.92 
L 513.763727 7.2 
L 515.782773 7.2 
L 515.782773 34.92 
L 513.763727 34.92 
z
" clip-path="url(#pa4b2324831)" style="fill: #ffeeee"/>
    <path d="M 515.782773 34.92 
L 515.782773 7.2 
L 517.801819 7.2 
L 517.801819 34.92 
L 515.782773 34.92 
z
" clip-path="url(#pa4b2324831)" style="fill: #ffb2b2"/>
    <path d="M 517.801819 34.92 
L 517.801819 7.2 
L 519.820866 7.2 
L 519.820866 34.92 
L 517.801819 34.92 
z
" clip-path="url(#pa4b2324831)" style="fill: #b8b8ff"/>
    <path d="M 519.820866 34.92 
L 519.820866 7.2 
L 521.839912 7.2 
L 521.839912 34.92 
L 519.820866 34.92 
z
" clip-path="url(#pa4b2324831)" style="fill: #ffeeee"/>
    <path d="M 521.839912 34.92 
L 521.839912 7.2 
L 523.858959 7.2 
L 523.858959 34.92 
L 521.839912 34.92 
z
" clip-path="url(#pa4b2324831)" style="fill: #ffa4a4"/>
    <path d="M 523.858959 34.92 
L 523.858959 7.2 
L 525.878005 7.2 
L 525.878005 34.92 
L 523.858959 34.92 
z
" clip-path="url(#pa4b2324831)" style="fill: #a6a6ff"/>
    <path d="M 525.878005 34.92 
L 525.878005 7.2 
L 527.897051 7.2 
L 527.897051 34.92 
L 525.878005 34.92 
z
" clip-path="url(#pa4b2324831)" style="fill: #ffb0b0"/>
    <path d="M 527.897051 34.92 
L 527.897051 7.2 
L 529.916098 7.2 
L 529.916098 34.92 
L 527.897051 34.92 
z
" clip-path="url(#pa4b2324831)" style="fill: #ffecec"/>
    <path d="M 529.916098 34.92 
L 529.916098 7.2 
L 531.935144 7.2 
L 531.935144 34.92 
L 529.916098 34.92 
z
" clip-path="url(#pa4b2324831)" style="fill: #ffacac"/>
    <path d="M 531.935144 34.92 
L 531.935144 7.2 
L 533.954191 7.2 
L 533.954191 34.92 
L 531.935144 34.92 
z
" clip-path="url(#pa4b2324831)" style="fill: #dadaff"/>
    <path d="M 533.954191 34.92 
L 533.954191 7.2 
L 535.973237 7.2 
L 535.973237 34.92 
L 533.954191 34.92 
z
" clip-path="url(#pa4b2324831)" style="fill: #dadaff"/>
    <path d="M 535.973237 34.92 
L 535.973237 7.2 
L 537.992283 7.2 
L 537.992283 34.92 
L 535.973237 34.92 
z
" clip-path="url(#pa4b2324831)" style="fill: #ffe8e8"/>
    <path d="M 537.992283 34.92 
L 537.992283 7.2 
L 540.01133 7.2 
L 540.01133 34.92 
L 537.992283 34.92 
z
" clip-path="url(#pa4b2324831)" style="fill: #ffa8a8"/>
    <path d="M 540.01133 34.92 
L 540.01133 7.2 
L 542.030376 7.2 
L 542.030376 34.92 
L 540.01133 34.92 
z
" clip-path="url(#pa4b2324831)" style="fill: #ffbcbc"/>
    <path d="M 542.030376 34.92 
L 542.030376 7.2 
L 544.049423 7.2 
L 544.049423 34.92 
L 542.030376 34.92 
z
" clip-path="url(#pa4b2324831)" style="fill: #fff8f8"/>
    <path d="M 544.049423 34.92 
L 544.049423 7.2 
L 546.068469 7.2 
L 546.068469 34.92 
L 544.049423 34.92 
z
" clip-path="url(#pa4b2324831)" style="fill: #ffaaaa"/>
    <path d="M 546.068469 34.92 
L 546.068469 7.2 
L 548.087515 7.2 
L 548.087515 34.92 
L 546.068469 34.92 
z
" clip-path="url(#pa4b2324831)" style="fill: #ffcece"/>
    <path d="M 548.087515 34.92 
L 548.087515 7.2 
L 550.106562 7.2 
L 550.106562 34.92 
L 548.087515 34.92 
z
" clip-path="url(#pa4b2324831)" style="fill: #ffeaea"/>
    <path d="M 550.106562 34.92 
L 550.106562 7.2 
L 552.125608 7.2 
L 552.125608 34.92 
L 550.106562 34.92 
z
" clip-path="url(#pa4b2324831)" style="fill: #ff9696"/>
    <path d="M 552.125608 34.92 
L 552.125608 7.2 
L 554.144655 7.2 
L 554.144655 34.92 
L 552.125608 34.92 
z
" clip-path="url(#pa4b2324831)" style="fill: #ffc6c6"/>
    <path d="M 554.144655 34.92 
L 554.144655 7.2 
L 556.163701 7.2 
L 556.163701 34.92 
L 554.144655 34.92 
z
" clip-path="url(#pa4b2324831)" style="fill: #ffd4d4"/>
    <path d="M 556.163701 34.92 
L 556.163701 7.2 
L 558.182747 7.2 
L 558.182747 34.92 
L 556.163701 34.92 
z
" clip-path="url(#pa4b2324831)" style="fill: #8a8aff"/>
    <path d="M 558.182747 34.92 
L 558.182747 7.2 
L 560.201794 7.2 
L 560.201794 34.92 
L 558.182747 34.92 
z
" clip-path="url(#pa4b2324831)" style="fill: #ffc4c4"/>
    <path d="M 560.201794 34.92 
L 560.201794 7.2 
L 562.22084 7.2 
L 562.22084 34.92 
L 560.201794 34.92 
z
" clip-path="url(#pa4b2324831)" style="fill: #babaff"/>
    <path d="M 562.22084 34.92 
L 562.22084 7.2 
L 564.239887 7.2 
L 564.239887 34.92 
L 562.22084 34.92 
z
" clip-path="url(#pa4b2324831)" style="fill: #ffc6c6"/>
    <path d="M 564.239887 34.92 
L 564.239887 7.2 
L 566.258933 7.2 
L 566.258933 34.92 
L 564.239887 34.92 
z
" clip-path="url(#pa4b2324831)" style="fill: #ff7e7e"/>
    <path d="M 566.258933 34.92 
L 566.258933 7.2 
L 568.277979 7.2 
L 568.277979 34.92 
L 566.258933 34.92 
z
" clip-path="url(#pa4b2324831)" style="fill: #ff5858"/>
    <path d="M 568.277979 34.92 
L 568.277979 7.2 
L 570.297026 7.2 
L 570.297026 34.92 
L 568.277979 34.92 
z
" clip-path="url(#pa4b2324831)" style="fill: #ff5858"/>
    <path d="M 570.297026 34.92 
L 570.297026 7.2 
L 572.316072 7.2 
L 572.316072 34.92 
L 570.297026 34.92 
z
" clip-path="url(#pa4b2324831)" style="fill: #ffaeae"/>
    <path d="M 572.316072 34.92 
L 572.316072 7.2 
L 574.335119 7.2 
L 574.335119 34.92 
L 572.316072 34.92 
z
" clip-path="url(#pa4b2324831)" style="fill: #9494ff"/>
    <path d="M 574.335119 34.92 
L 574.335119 7.2 
L 576.354165 7.2 
L 576.354165 34.92 
L 574.335119 34.92 
z
" clip-path="url(#pa4b2324831)" style="fill: #9a9aff"/>
    <path d="M 576.354165 34.92 
L 576.354165 7.2 
L 578.373211 7.2 
L 578.373211 34.92 
L 576.354165 34.92 
z
" clip-path="url(#pa4b2324831)" style="fill: #c0c0ff"/>
    <path d="M 578.373211 34.92 
L 578.373211 7.2 
L 580.392258 7.2 
L 580.392258 34.92 
L 578.373211 34.92 
z
" clip-path="url(#pa4b2324831)" style="fill: #b0b0ff"/>
    <path d="M 580.392258 34.92 
L 580.392258 7.2 
L 582.411304 7.2 
L 582.411304 34.92 
L 580.392258 34.92 
z
" clip-path="url(#pa4b2324831)" style="fill: #b2b2ff"/>
    <path d="M 582.411304 34.92 
L 582.411304 7.2 
L 584.430351 7.2 
L 584.430351 34.92 
L 582.411304 34.92 
z
" clip-path="url(#pa4b2324831)" style="fill: #a4a4ff"/>
    <path d="M 584.430351 34.92 
L 584.430351 7.2 
L 586.449397 7.2 
L 586.449397 34.92 
L 584.430351 34.92 
z
" clip-path="url(#pa4b2324831)" style="fill: #a0a0ff"/>
    <path d="M 586.449397 34.92 
L 586.449397 7.2 
L 588.468443 7.2 
L 588.468443 34.92 
L 586.449397 34.92 
z
" clip-path="url(#pa4b2324831)" style="fill: #a0a0ff"/>
    <path d="M 588.468443 34.92 
L 588.468443 7.2 
L 590.48749 7.2 
L 590.48749 34.92 
L 588.468443 34.92 
z
" clip-path="url(#pa4b2324831)" style="fill: #dcdcff"/>
    <path d="M 590.48749 34.92 
L 590.48749 7.2 
L 592.506536 7.2 
L 592.506536 34.92 
L 590.48749 34.92 
z
" clip-path="url(#pa4b2324831)" style="fill: #dadaff"/>
    <path d="M 592.506536 34.92 
L 592.506536 7.2 
L 594.525583 7.2 
L 594.525583 34.92 
L 592.506536 34.92 
z
" clip-path="url(#pa4b2324831)" style="fill: #dcdcff"/>
    <path d="M 594.525583 34.92 
L 594.525583 7.2 
L 596.544629 7.2 
L 596.544629 34.92 
L 594.525583 34.92 
z
" clip-path="url(#pa4b2324831)" style="fill: #ffc2c2"/>
    <path d="M 596.544629 34.92 
L 596.544629 7.2 
L 598.563675 7.2 
L 598.563675 34.92 
L 596.544629 34.92 
z
" clip-path="url(#pa4b2324831)" style="fill: #ff7878"/>
    <path d="M 598.563675 34.92 
L 598.563675 7.2 
L 600.582722 7.2 
L 600.582722 34.92 
L 598.563675 34.92 
z
" clip-path="url(#pa4b2324831)" style="fill: #ffa0a0"/>
    <path d="M 600.582722 34.92 
L 600.582722 7.2 
L 602.601768 7.2 
L 602.601768 34.92 
L 600.582722 34.92 
z
" clip-path="url(#pa4b2324831)" style="fill: #aaaaff"/>
    <path d="M 602.601768 34.92 
L 602.601768 7.2 
L 604.620815 7.2 
L 604.620815 34.92 
L 602.601768 34.92 
z
" clip-path="url(#pa4b2324831)" style="fill: #c0c0ff"/>
    <path d="M 604.620815 34.92 
L 604.620815 7.2 
L 606.639861 7.2 
L 606.639861 34.92 
L 604.620815 34.92 
z
" clip-path="url(#pa4b2324831)" style="fill: #ff1818"/>
    <path d="M 606.639861 34.92 
L 606.639861 7.2 
L 608.658907 7.2 
L 608.658907 34.92 
L 606.639861 34.92 
z
" clip-path="url(#pa4b2324831)" style="fill: #cacaff"/>
    <path d="M 608.658907 34.92 
L 608.658907 7.2 
L 610.677954 7.2 
L 610.677954 34.92 
L 608.658907 34.92 
z
" clip-path="url(#pa4b2324831)" style="fill: #ffbebe"/>
    <path d="M 610.677954 34.92 
L 610.677954 7.2 
L 612.697 7.2 
L 612.697 34.92 
L 610.677954 34.92 
z
" clip-path="url(#pa4b2324831)" style="fill: #ffc2c2"/>
    <path d="M 612.697 34.92 
L 612.697 7.2 
L 614.716047 7.2 
L 614.716047 34.92 
L 612.697 34.92 
z
" clip-path="url(#pa4b2324831)" style="fill: #ffa0a0"/>
    <path d="M 614.716047 34.92 
L 614.716047 7.2 
L 616.735093 7.2 
L 616.735093 34.92 
L 614.716047 34.92 
z
" clip-path="url(#pa4b2324831)" style="fill: #ffb4b4"/>
    <path d="M 616.735093 34.92 
L 616.735093 7.2 
L 618.754139 7.2 
L 618.754139 34.92 
L 616.735093 34.92 
z
" clip-path="url(#pa4b2324831)" style="fill: #ffc6c6"/>
    <path d="M 618.754139 34.92 
L 618.754139 7.2 
L 620.773186 7.2 
L 620.773186 34.92 
L 618.754139 34.92 
z
" clip-path="url(#pa4b2324831)" style="fill: #ffeaea"/>
    <path d="M 620.773186 34.92 
L 620.773186 7.2 
L 622.792232 7.2 
L 622.792232 34.92 
L 620.773186 34.92 
z
" clip-path="url(#pa4b2324831)" style="fill: #c0c0ff"/>
    <path d="M 622.792232 34.92 
L 622.792232 7.2 
L 624.811279 7.2 
L 624.811279 34.92 
L 622.792232 34.92 
z
" clip-path="url(#pa4b2324831)" style="fill: #b4b4ff"/>
    <path d="M 624.811279 34.92 
L 624.811279 7.2 
L 626.830325 7.2 
L 626.830325 34.92 
L 624.811279 34.92 
z
" clip-path="url(#pa4b2324831)" style="fill: #babaff"/>
    <path d="M 626.830325 34.92 
L 626.830325 7.2 
L 628.849371 7.2 
L 628.849371 34.92 
L 626.830325 34.92 
z
" clip-path="url(#pa4b2324831)" style="fill: #ffb4b4"/>
    <path d="M 628.849371 34.92 
L 628.849371 7.2 
L 630.868418 7.2 
L 630.868418 34.92 
L 628.849371 34.92 
z
" clip-path="url(#pa4b2324831)" style="fill: #ffb6b6"/>
    <path d="M 630.868418 34.92 
L 630.868418 7.2 
L 632.887464 7.2 
L 632.887464 34.92 
L 630.868418 34.92 
z
" clip-path="url(#pa4b2324831)" style="fill: #ffb0b0"/>
    <path d="M 632.887464 34.92 
L 632.887464 7.2 
L 634.906511 7.2 
L 634.906511 34.92 
L 632.887464 34.92 
z
" clip-path="url(#pa4b2324831)" style="fill: #ffa4a4"/>
    <path d="M 634.906511 34.92 
L 634.906511 7.2 
L 636.925557 7.2 
L 636.925557 34.92 
L 634.906511 34.92 
z
" clip-path="url(#pa4b2324831)" style="fill: #ffa8a8"/>
    <path d="M 636.925557 34.92 
L 636.925557 7.2 
L 638.944603 7.2 
L 638.944603 34.92 
L 636.925557 34.92 
z
" clip-path="url(#pa4b2324831)" style="fill: #ffb0b0"/>
    <path d="M 638.944603 34.92 
L 638.944603 7.2 
L 640.96365 7.2 
L 640.96365 34.92 
L 638.944603 34.92 
z
" clip-path="url(#pa4b2324831)" style="fill: #ffa2a2"/>
    <path d="M 640.96365 34.92 
L 640.96365 7.2 
L 642.982696 7.2 
L 642.982696 34.92 
L 640.96365 34.92 
z
" clip-path="url(#pa4b2324831)" style="fill: #ffacac"/>
    <path d="M 642.982696 34.92 
L 642.982696 7.2 
L 645.001743 7.2 
L 645.001743 34.92 
L 642.982696 34.92 
z
" clip-path="url(#pa4b2324831)" style="fill: #ffdede"/>
    <path d="M 645.001743 34.92 
L 645.001743 7.2 
L 647.020789 7.2 
L 647.020789 34.92 
L 645.001743 34.92 
z
" clip-path="url(#pa4b2324831)" style="fill: #ffdede"/>
    <path d="M 647.020789 34.92 
L 647.020789 7.2 
L 649.039835 7.2 
L 649.039835 34.92 
L 647.020789 34.92 
z
" clip-path="url(#pa4b2324831)" style="fill: #ffdede"/>
    <path d="M 649.039835 34.92 
L 649.039835 7.2 
L 651.058882 7.2 
L 651.058882 34.92 
L 649.039835 34.92 
z
" clip-path="url(#pa4b2324831)" style="fill: #ffc0c0"/>
    <path d="M 651.058882 34.92 
L 651.058882 7.2 
L 653.077928 7.2 
L 653.077928 34.92 
L 651.058882 34.92 
z
" clip-path="url(#pa4b2324831)" style="fill: #b2b2ff"/>
    <path d="M 653.077928 34.92 
L 653.077928 7.2 
L 655.096975 7.2 
L 655.096975 34.92 
L 653.077928 34.92 
z
" clip-path="url(#pa4b2324831)" style="fill: #a0a0ff"/>
    <path d="M 655.096975 34.92 
L 655.096975 7.2 
L 657.116021 7.2 
L 657.116021 34.92 
L 655.096975 34.92 
z
" clip-path="url(#pa4b2324831)" style="fill: #a2a2ff"/>
    <path d="M 657.116021 34.92 
L 657.116021 7.2 
L 659.135067 7.2 
L 659.135067 34.92 
L 657.116021 34.92 
z
" clip-path="url(#pa4b2324831)" style="fill: #babaff"/>
    <path d="M 659.135067 34.92 
L 659.135067 7.2 
L 661.154114 7.2 
L 661.154114 34.92 
L 659.135067 34.92 
z
" clip-path="url(#pa4b2324831)" style="fill: #9898ff"/>
    <path d="M 661.154114 34.92 
L 661.154114 7.2 
L 663.17316 7.2 
L 663.17316 34.92 
L 661.154114 34.92 
z
" clip-path="url(#pa4b2324831)" style="fill: #aeaeff"/>
    <path d="M 663.17316 34.92 
L 663.17316 7.2 
L 665.192207 7.2 
L 665.192207 34.92 
L 663.17316 34.92 
z
" clip-path="url(#pa4b2324831)" style="fill: #d8d8ff"/>
    <path d="M 665.192207 34.92 
L 665.192207 7.2 
L 667.211253 7.2 
L 667.211253 34.92 
L 665.192207 34.92 
z
" clip-path="url(#pa4b2324831)" style="fill: #dedeff"/>
    <path d="M 667.211253 34.92 
L 667.211253 7.2 
L 669.2303 7.2 
L 669.2303 34.92 
L 667.211253 34.92 
z
" clip-path="url(#pa4b2324831)" style="fill: #e4e4ff"/>
    <path d="M 669.2303 34.92 
L 669.2303 7.2 
L 671.249346 7.2 
L 671.249346 34.92 
L 669.2303 34.92 
z
" clip-path="url(#pa4b2324831)" style="fill: #ffb6b6"/>
    <path d="M 671.249346 34.92 
L 671.249346 7.2 
L 673.268392 7.2 
L 673.268392 34.92 
L 671.249346 34.92 
z
" clip-path="url(#pa4b2324831)" style="fill: #ffb4b4"/>
    <path d="M 673.268392 34.92 
L 673.268392 7.2 
L 675.287439 7.2 
L 675.287439 34.92 
L 673.268392 34.92 
z
" clip-path="url(#pa4b2324831)" style="fill: #ffb2b2"/>
    <path d="M 675.287439 34.92 
L 675.287439 7.2 
L 677.306485 7.2 
L 677.306485 34.92 
L 675.287439 34.92 
z
" clip-path="url(#pa4b2324831)" style="fill: #ffb4b4"/>
    <path d="M 677.306485 34.92 
L 677.306485 7.2 
L 679.325532 7.2 
L 679.325532 34.92 
L 677.306485 34.92 
z
" clip-path="url(#pa4b2324831)" style="fill: #ffb4b4"/>
    <path d="M 679.325532 34.92 
L 679.325532 7.2 
L 681.344578 7.2 
L 681.344578 34.92 
L 679.325532 34.92 
z
" clip-path="url(#pa4b2324831)" style="fill: #ffaeae"/>
    <path d="M 681.344578 34.92 
L 681.344578 7.2 
L 683.363624 7.2 
L 683.363624 34.92 
L 681.344578 34.92 
z
" clip-path="url(#pa4b2324831)" style="fill: #ffaaaa"/>
    <path d="M 683.363624 34.92 
L 683.363624 7.2 
L 685.382671 7.2 
L 685.382671 34.92 
L 683.363624 34.92 
z
" clip-path="url(#pa4b2324831)" style="fill: #ff9e9e"/>
    <path d="M 685.382671 34.92 
L 685.382671 7.2 
L 687.401717 7.2 
L 687.401717 34.92 
L 685.382671 34.92 
z
" clip-path="url(#pa4b2324831)" style="fill: #ffa4a4"/>
    <path d="M 687.401717 34.92 
L 687.401717 7.2 
L 689.420764 7.2 
L 689.420764 34.92 
L 687.401717 34.92 
z
" clip-path="url(#pa4b2324831)" style="fill: #ffd8d8"/>
    <path d="M 689.420764 34.92 
L 689.420764 7.2 
L 691.43981 7.2 
L 691.43981 34.92 
L 689.420764 34.92 
z
" clip-path="url(#pa4b2324831)" style="fill: #ffd8d8"/>
    <path d="M 691.43981 34.92 
L 691.43981 7.2 
L 693.458856 7.2 
L 693.458856 34.92 
L 691.43981 34.92 
z
" clip-path="url(#pa4b2324831)" style="fill: #ffdada"/>
    <path d="M 693.458856 34.92 
L 693.458856 7.2 
L 695.477903 7.2 
L 695.477903 34.92 
L 693.458856 34.92 
z
" clip-path="url(#pa4b2324831)" style="fill: #ffbcbc"/>
    <path d="M 695.477903 34.92 
L 695.477903 7.2 
L 697.496949 7.2 
L 697.496949 34.92 
L 695.477903 34.92 
z
" clip-path="url(#pa4b2324831)" style="fill: #ffacac"/>
    <path d="M 697.496949 34.92 
L 697.496949 7.2 
L 699.515996 7.2 
L 699.515996 34.92 
L 697.496949 34.92 
z
" clip-path="url(#pa4b2324831)" style="fill: #ffb4b4"/>
    <path d="M 699.515996 34.92 
L 699.515996 7.2 
L 701.535042 7.2 
L 701.535042 34.92 
L 699.515996 34.92 
z
" clip-path="url(#pa4b2324831)" style="fill: #ffcece"/>
    <path d="M 701.535042 34.92 
L 701.535042 7.2 
L 703.554088 7.2 
L 703.554088 34.92 
L 701.535042 34.92 
z
" clip-path="url(#pa4b2324831)" style="fill: #ffcaca"/>
    <path d="M 703.554088 34.92 
L 703.554088 7.2 
L 705.573135 7.2 
L 705.573135 34.92 
L 703.554088 34.92 
z
" clip-path="url(#pa4b2324831)" style="fill: #ffcccc"/>
    <path d="M 705.573135 34.92 
L 705.573135 7.2 
L 707.592181 7.2 
L 707.592181 34.92 
L 705.573135 34.92 
z
" clip-path="url(#pa4b2324831)" style="fill: #ffb8b8"/>
    <path d="M 707.592181 34.92 
L 707.592181 7.2 
L 709.611228 7.2 
L 709.611228 34.92 
L 707.592181 34.92 
z
" clip-path="url(#pa4b2324831)" style="fill: #ffaaaa"/>
    <path d="M 709.611228 34.92 
L 709.611228 7.2 
L 711.630274 7.2 
L 711.630274 34.92 
L 709.611228 34.92 
z
" clip-path="url(#pa4b2324831)" style="fill: #ffaeae"/>
    <path d="M 711.630274 34.92 
L 711.630274 7.2 
L 713.64932 7.2 
L 713.64932 34.92 
L 711.630274 34.92 
z
" clip-path="url(#pa4b2324831)" style="fill: #ffd4d4"/>
    <path d="M 713.64932 34.92 
L 713.64932 7.2 
L 715.668367 7.2 
L 715.668367 34.92 
L 713.64932 34.92 
z
" clip-path="url(#pa4b2324831)" style="fill: #ffcaca"/>
    <path d="M 715.668367 34.92 
L 715.668367 7.2 
L 717.687413 7.2 
L 717.687413 34.92 
L 715.668367 34.92 
z
" clip-path="url(#pa4b2324831)" style="fill: #ffcccc"/>
    <path d="M 717.687413 34.92 
L 717.687413 7.2 
L 719.70646 7.2 
L 719.70646 34.92 
L 717.687413 34.92 
z
" clip-path="url(#pa4b2324831)" style="fill: #6666ff"/>
    <path d="M 719.70646 34.92 
L 719.70646 7.2 
L 721.725506 7.2 
L 721.725506 34.92 
L 719.70646 34.92 
z
" clip-path="url(#pa4b2324831)" style="fill: #7a7aff"/>
    <path d="M 721.725506 34.92 
L 721.725506 7.2 
L 723.744552 7.2 
L 723.744552 34.92 
L 721.725506 34.92 
z
" clip-path="url(#pa4b2324831)" style="fill: #7878ff"/>
    <path d="M 723.744552 34.92 
L 723.744552 7.2 
L 725.763599 7.2 
L 725.763599 34.92 
L 723.744552 34.92 
z
" clip-path="url(#pa4b2324831)" style="fill: #6a6aff"/>
    <path d="M 725.763599 34.92 
L 725.763599 7.2 
L 727.782645 7.2 
L 727.782645 34.92 
L 725.763599 34.92 
z
" clip-path="url(#pa4b2324831)" style="fill: #bcbcff"/>
    <path d="M 727.782645 34.92 
L 727.782645 7.2 
L 729.801692 7.2 
L 729.801692 34.92 
L 727.782645 34.92 
z
" clip-path="url(#pa4b2324831)" style="fill: #e4e4ff"/>
    <path d="M 729.801692 34.92 
L 729.801692 7.2 
L 731.820738 7.2 
L 731.820738 34.92 
L 729.801692 34.92 
z
" clip-path="url(#pa4b2324831)" style="fill: #4646ff"/>
    <path d="M 731.820738 34.92 
L 731.820738 7.2 
L 733.839784 7.2 
L 733.839784 34.92 
L 731.820738 34.92 
z
" clip-path="url(#pa4b2324831)" style="fill: #ececff"/>
    <path d="M 733.839784 34.92 
L 733.839784 7.2 
L 735.858831 7.2 
L 735.858831 34.92 
L 733.839784 34.92 
z
" clip-path="url(#pa4b2324831)" style="fill: #dcdcff"/>
    <path d="M 735.858831 34.92 
L 735.858831 7.2 
L 737.877877 7.2 
L 737.877877 34.92 
L 735.858831 34.92 
z
" clip-path="url(#pa4b2324831)" style="fill: #ffd8d8"/>
    <path d="M 737.877877 34.92 
L 737.877877 7.2 
L 739.896924 7.2 
L 739.896924 34.92 
L 737.877877 34.92 
z
" clip-path="url(#pa4b2324831)" style="fill: #ffecec"/>
    <path d="M 739.896924 34.92 
L 739.896924 7.2 
L 741.91597 7.2 
L 741.91597 34.92 
L 739.896924 34.92 
z
" clip-path="url(#pa4b2324831)" style="fill: #f2f2ff"/>
    <path d="M 741.91597 34.92 
L 741.91597 7.2 
L 743.935016 7.2 
L 743.935016 34.92 
L 741.91597 34.92 
z
" clip-path="url(#pa4b2324831)" style="fill: #ff9494"/>
    <path d="M 743.935016 34.92 
L 743.935016 7.2 
L 745.954063 7.2 
L 745.954063 34.92 
L 743.935016 34.92 
z
" clip-path="url(#pa4b2324831)" style="fill: #ff9c9c"/>
    <path d="M 745.954063 34.92 
L 745.954063 7.2 
L 747.973109 7.2 
L 747.973109 34.92 
L 745.954063 34.92 
z
" clip-path="url(#pa4b2324831)" style="fill: #ffcaca"/>
    <path d="M 747.973109 34.92 
L 747.973109 7.2 
L 749.992156 7.2 
L 749.992156 34.92 
L 747.973109 34.92 
z
" clip-path="url(#pa4b2324831)" style="fill: #ffcece"/>
    <path d="M 749.992156 34.92 
L 749.992156 7.2 
L 752.011202 7.2 
L 752.011202 34.92 
L 749.992156 34.92 
z
" clip-path="url(#pa4b2324831)" style="fill: #d8d8ff"/>
    <path d="M 752.011202 34.92 
L 752.011202 7.2 
L 754.030248 7.2 
L 754.030248 34.92 
L 752.011202 34.92 
z
" clip-path="url(#pa4b2324831)" style="fill: #e4e4ff"/>
    <path d="M 754.030248 34.92 
L 754.030248 7.2 
L 756.049295 7.2 
L 756.049295 34.92 
L 754.030248 34.92 
z
" clip-path="url(#pa4b2324831)" style="fill: #a6a6ff"/>
    <path d="M 756.049295 34.92 
L 756.049295 7.2 
L 758.068341 7.2 
L 758.068341 34.92 
L 756.049295 34.92 
z
" clip-path="url(#pa4b2324831)" style="fill: #a4a4ff"/>
    <path d="M 758.068341 34.92 
L 758.068341 7.2 
L 760.087388 7.2 
L 760.087388 34.92 
L 758.068341 34.92 
z
" clip-path="url(#pa4b2324831)" style="fill: #6262ff"/>
    <path d="M 760.087388 34.92 
L 760.087388 7.2 
L 762.106434 7.2 
L 762.106434 34.92 
L 760.087388 34.92 
z
" clip-path="url(#pa4b2324831)" style="fill: #eaeaff"/>
    <path d="M 762.106434 34.92 
L 762.106434 7.2 
L 764.12548 7.2 
L 764.12548 34.92 
L 762.106434 34.92 
z
" clip-path="url(#pa4b2324831)" style="fill: #ffe2e2"/>
    <path d="M 764.12548 34.92 
L 764.12548 7.2 
L 766.144527 7.2 
L 766.144527 34.92 
L 764.12548 34.92 
z
" clip-path="url(#pa4b2324831)" style="fill: #ffc4c4"/>
    <path d="M 766.144527 34.92 
L 766.144527 7.2 
L 768.163573 7.2 
L 768.163573 34.92 
L 766.144527 34.92 
z
" clip-path="url(#pa4b2324831)" style="fill: #acacff"/>
    <path d="M 768.163573 34.92 
L 768.163573 7.2 
L 770.18262 7.2 
L 770.18262 34.92 
L 768.163573 34.92 
z
" clip-path="url(#pa4b2324831)" style="fill: #ffdede"/>
    <path d="M 770.18262 34.92 
L 770.18262 7.2 
L 772.201666 7.2 
L 772.201666 34.92 
L 770.18262 34.92 
z
" clip-path="url(#pa4b2324831)" style="fill: #ffcaca"/>
    <path d="M 772.201666 34.92 
L 772.201666 7.2 
L 774.220712 7.2 
L 774.220712 34.92 
L 772.201666 34.92 
z
" clip-path="url(#pa4b2324831)" style="fill: #b6b6ff"/>
    <path d="M 774.220712 34.92 
L 774.220712 7.2 
L 776.239759 7.2 
L 776.239759 34.92 
L 774.220712 34.92 
z
" clip-path="url(#pa4b2324831)" style="fill: #ffe8e8"/>
    <path d="M 776.239759 34.92 
L 776.239759 7.2 
L 778.258805 7.2 
L 778.258805 34.92 
L 776.239759 34.92 
z
" clip-path="url(#pa4b2324831)" style="fill: #ffeaea"/>
    <path d="M 778.258805 34.92 
L 778.258805 7.2 
L 780.277852 7.2 
L 780.277852 34.92 
L 778.258805 34.92 
z
" clip-path="url(#pa4b2324831)" style="fill: #ffeeee"/>
    <path d="M 780.277852 34.92 
L 780.277852 7.2 
L 782.296898 7.2 
L 782.296898 34.92 
L 780.277852 34.92 
z
" clip-path="url(#pa4b2324831)" style="fill: #fff0f0"/>
    <path d="M 782.296898 34.92 
L 782.296898 7.2 
L 784.315944 7.2 
L 784.315944 34.92 
L 782.296898 34.92 
z
" clip-path="url(#pa4b2324831)" style="fill: #eeeeff"/>
    <path d="M 784.315944 34.92 
L 784.315944 7.2 
L 786.334991 7.2 
L 786.334991 34.92 
L 784.315944 34.92 
z
" clip-path="url(#pa4b2324831)" style="fill: #0000ff"/>
    <path d="M 786.334991 34.92 
L 786.334991 7.2 
L 788.354037 7.2 
L 788.354037 34.92 
L 786.334991 34.92 
z
" clip-path="url(#pa4b2324831)" style="fill: #c8c8ff"/>
    <path d="M 788.354037 34.92 
L 788.354037 7.2 
L 790.373084 7.2 
L 790.373084 34.92 
L 788.354037 34.92 
z
" clip-path="url(#pa4b2324831)" style="fill: #2e2eff"/>
    <path d="M 790.373084 34.92 
L 790.373084 7.2 
L 792.39213 7.2 
L 792.39213 34.92 
L 790.373084 34.92 
z
" clip-path="url(#pa4b2324831)" style="fill: #ffeeee"/>
    <path d="M 792.39213 34.92 
L 792.39213 7.2 
L 794.411176 7.2 
L 794.411176 34.92 
L 792.39213 34.92 
z
" clip-path="url(#pa4b2324831)" style="fill: #ffc8c8"/>
    <path d="M 794.411176 34.92 
L 794.411176 7.2 
L 796.430223 7.2 
L 796.430223 34.92 
L 794.411176 34.92 
z
" clip-path="url(#pa4b2324831)" style="fill: #ececff"/>
    <path d="M 796.430223 34.92 
L 796.430223 7.2 
L 798.449269 7.2 
L 798.449269 34.92 
L 796.430223 34.92 
z
" clip-path="url(#pa4b2324831)" style="fill: #dadaff"/>
    <path d="M 798.449269 34.92 
L 798.449269 7.2 
L 800.468316 7.2 
L 800.468316 34.92 
L 798.449269 34.92 
z
" clip-path="url(#pa4b2324831)" style="fill: #ccccff"/>
    <path d="M 800.468316 34.92 
L 800.468316 7.2 
L 802.487362 7.2 
L 802.487362 34.92 
L 800.468316 34.92 
z
" clip-path="url(#pa4b2324831)" style="fill: #ffdede"/>
    <path d="M 802.487362 34.92 
L 802.487362 7.2 
L 804.506408 7.2 
L 804.506408 34.92 
L 802.487362 34.92 
z
" clip-path="url(#pa4b2324831)" style="fill: #ffd6d6"/>
    <path d="M 804.506408 34.92 
L 804.506408 7.2 
L 806.525455 7.2 
L 806.525455 34.92 
L 804.506408 34.92 
z
" clip-path="url(#pa4b2324831)" style="fill: #ffdcdc"/>
    <path d="M 806.525455 34.92 
L 806.525455 7.2 
L 808.544501 7.2 
L 808.544501 34.92 
L 806.525455 34.92 
z
" clip-path="url(#pa4b2324831)" style="fill: #d8d8ff"/>
    <path d="M 808.544501 34.92 
L 808.544501 7.2 
L 810.563548 7.2 
L 810.563548 34.92 
L 808.544501 34.92 
z
" clip-path="url(#pa4b2324831)" style="fill: #dedeff"/>
    <path d="M 810.563548 34.92 
L 810.563548 7.2 
L 812.582594 7.2 
L 812.582594 34.92 
L 810.563548 34.92 
z
" clip-path="url(#pa4b2324831)" style="fill: #ffb8b8"/>
    <path d="M 812.582594 34.92 
L 812.582594 7.2 
L 814.60164 7.2 
L 814.60164 34.92 
L 812.582594 34.92 
z
" clip-path="url(#pa4b2324831)" style="fill: #ffcccc"/>
    <path d="M 814.60164 34.92 
L 814.60164 7.2 
L 816.620687 7.2 
L 816.620687 34.92 
L 814.60164 34.92 
z
" clip-path="url(#pa4b2324831)" style="fill: #6868ff"/>
    <path d="M 816.620687 34.92 
L 816.620687 7.2 
L 818.639733 7.2 
L 818.639733 34.92 
L 816.620687 34.92 
z
" clip-path="url(#pa4b2324831)" style="fill: #7676ff"/>
    <path d="M 818.639733 34.92 
L 818.639733 7.2 
L 820.65878 7.2 
L 820.65878 34.92 
L 818.639733 34.92 
z
" clip-path="url(#pa4b2324831)" style="fill: #6a6aff"/>
    <path d="M 820.65878 34.92 
L 820.65878 7.2 
L 822.677826 7.2 
L 822.677826 34.92 
L 820.65878 34.92 
z
" clip-path="url(#pa4b2324831)" style="fill: #0000ff"/>
    <path d="M 822.677826 34.92 
L 822.677826 7.2 
L 824.696872 7.2 
L 824.696872 34.92 
L 822.677826 34.92 
z
" clip-path="url(#pa4b2324831)" style="fill: #ffbebe"/>
    <path d="M 824.696872 34.92 
L 824.696872 7.2 
L 826.715919 7.2 
L 826.715919 34.92 
L 824.696872 34.92 
z
" clip-path="url(#pa4b2324831)" style="fill: #ffdcdc"/>
    <path d="M 826.715919 34.92 
L 826.715919 7.2 
L 828.734965 7.2 
L 828.734965 34.92 
L 826.715919 34.92 
z
" clip-path="url(#pa4b2324831)" style="fill: #ffcccc"/>
    <path d="M 828.734965 34.92 
L 828.734965 7.2 
L 830.754012 7.2 
L 830.754012 34.92 
L 828.734965 34.92 
z
" clip-path="url(#pa4b2324831)" style="fill: #b0b0ff"/>
    <path d="M 830.754012 34.92 
L 830.754012 7.2 
L 832.773058 7.2 
L 832.773058 34.92 
L 830.754012 34.92 
z
" clip-path="url(#pa4b2324831)" style="fill: #9696ff"/>
    <path d="M 832.773058 34.92 
L 832.773058 7.2 
L 834.792105 7.2 
L 834.792105 34.92 
L 832.773058 34.92 
z
" clip-path="url(#pa4b2324831)" style="fill: #cacaff"/>
    <path d="M 834.792105 34.92 
L 834.792105 7.2 
L 836.811151 7.2 
L 836.811151 34.92 
L 834.792105 34.92 
z
" clip-path="url(#pa4b2324831)" style="fill: #d4d4ff"/>
    <path d="M 836.811151 34.92 
L 836.811151 7.2 
L 838.830197 7.2 
L 838.830197 34.92 
L 836.811151 34.92 
z
" clip-path="url(#pa4b2324831)" style="fill: #ff8282"/>
    <path d="M 838.830197 34.92 
L 838.830197 7.2 
L 840.849244 7.2 
L 840.849244 34.92 
L 838.830197 34.92 
z
" clip-path="url(#pa4b2324831)" style="fill: #ffa8a8"/>
    <path d="M 840.849244 34.92 
L 840.849244 7.2 
L 842.86829 7.2 
L 842.86829 34.92 
L 840.849244 34.92 
z
" clip-path="url(#pa4b2324831)" style="fill: #ffaaaa"/>
    <path d="M 842.86829 34.92 
L 842.86829 7.2 
L 844.887337 7.2 
L 844.887337 34.92 
L 842.86829 34.92 
z
" clip-path="url(#pa4b2324831)" style="fill: #f0f0ff"/>
    <path d="M 844.887337 34.92 
L 844.887337 7.2 
L 846.906383 7.2 
L 846.906383 34.92 
L 844.887337 34.92 
z
" clip-path="url(#pa4b2324831)" style="fill: #ffd2d2"/>
    <path d="M 846.906383 34.92 
L 846.906383 7.2 
L 848.925429 7.2 
L 848.925429 34.92 
L 846.906383 34.92 
z
" clip-path="url(#pa4b2324831)" style="fill: #c0c0ff"/>
    <path d="M 848.925429 34.92 
L 848.925429 7.2 
L 850.944476 7.2 
L 850.944476 34.92 
L 848.925429 34.92 
z
" clip-path="url(#pa4b2324831)" style="fill: #4444ff"/>
    <path d="M 850.944476 34.92 
L 850.944476 7.2 
L 852.963522 7.2 
L 852.963522 34.92 
L 850.944476 34.92 
z
" clip-path="url(#pa4b2324831)" style="fill: #0000ff"/>
    <path d="M 852.963522 34.92 
L 852.963522 7.2 
L 854.982569 7.2 
L 854.982569 34.92 
L 852.963522 34.92 
z
" clip-path="url(#pa4b2324831)" style="fill: #0000ff"/>
    <path d="M 854.982569 34.92 
L 854.982569 7.2 
L 857.001615 7.2 
L 857.001615 34.92 
L 854.982569 34.92 
z
" clip-path="url(#pa4b2324831)" style="fill: #c4c4ff"/>
    <path d="M 857.001615 34.92 
L 857.001615 7.2 
L 859.020661 7.2 
L 859.020661 34.92 
L 857.001615 34.92 
z
" clip-path="url(#pa4b2324831)" style="fill: #dcdcff"/>
    <path d="M 859.020661 34.92 
L 859.020661 7.2 
L 861.039708 7.2 
L 861.039708 34.92 
L 859.020661 34.92 
z
" clip-path="url(#pa4b2324831)" style="fill: #fff4f4"/>
    <path d="M 861.039708 34.92 
L 861.039708 7.2 
L 863.058754 7.2 
L 863.058754 34.92 
L 861.039708 34.92 
z
" clip-path="url(#pa4b2324831)" style="fill: #ffecec"/>
    <path d="M 863.058754 34.92 
L 863.058754 7.2 
L 865.077801 7.2 
L 865.077801 34.92 
L 863.058754 34.92 
z
" clip-path="url(#pa4b2324831)" style="fill: #ececff"/>
    <path d="M 865.077801 34.92 
L 865.077801 7.2 
L 867.096847 7.2 
L 867.096847 34.92 
L 865.077801 34.92 
z
" clip-path="url(#pa4b2324831)" style="fill: #e6e6ff"/>
    <path d="M 867.096847 34.92 
L 867.096847 7.2 
L 869.115893 7.2 
L 869.115893 34.92 
L 867.096847 34.92 
z
" clip-path="url(#pa4b2324831)" style="fill: #e6e6ff"/>
    <path d="M 869.115893 34.92 
L 869.115893 7.2 
L 871.13494 7.2 
L 871.13494 34.92 
L 869.115893 34.92 
z
" clip-path="url(#pa4b2324831)" style="fill: #6c6cff"/>
    <path d="M 871.13494 34.92 
L 871.13494 7.2 
L 873.153986 7.2 
L 873.153986 34.92 
L 871.13494 34.92 
z
" clip-path="url(#pa4b2324831)" style="fill: #9696ff"/>
    <path d="M 873.153986 34.92 
L 873.153986 7.2 
L 875.173033 7.2 
L 875.173033 34.92 
L 873.153986 34.92 
z
" clip-path="url(#pa4b2324831)" style="fill: #7c7cff"/>
    <path d="M 875.173033 34.92 
L 875.173033 7.2 
L 877.192079 7.2 
L 877.192079 34.92 
L 875.173033 34.92 
z
" clip-path="url(#pa4b2324831)" style="fill: #f0f0ff"/>
    <path d="M 877.192079 34.92 
L 877.192079 7.2 
L 879.211125 7.2 
L 879.211125 34.92 
L 877.192079 34.92 
z
" clip-path="url(#pa4b2324831)" style="fill: #e8e8ff"/>
    <path d="M 879.211125 34.92 
L 879.211125 7.2 
L 881.230172 7.2 
L 881.230172 34.92 
L 879.211125 34.92 
z
" clip-path="url(#pa4b2324831)" style="fill: #e4e4ff"/>
    <path d="M 881.230172 34.92 
L 881.230172 7.2 
L 883.249218 7.2 
L 883.249218 34.92 
L 881.230172 34.92 
z
" clip-path="url(#pa4b2324831)" style="fill: #5e5eff"/>
    <path d="M 883.249218 34.92 
L 883.249218 7.2 
L 885.268265 7.2 
L 885.268265 34.92 
L 883.249218 34.92 
z
" clip-path="url(#pa4b2324831)" style="fill: #6c6cff"/>
    <path d="M 885.268265 34.92 
L 885.268265 7.2 
L 887.287311 7.2 
L 887.287311 34.92 
L 885.268265 34.92 
z
" clip-path="url(#pa4b2324831)" style="fill: #5c5cff"/>
    <path d="M 887.287311 34.92 
L 887.287311 7.2 
L 889.306357 7.2 
L 889.306357 34.92 
L 887.287311 34.92 
z
" clip-path="url(#pa4b2324831)" style="fill: #f2f2ff"/>
    <path d="M 889.306357 34.92 
L 889.306357 7.2 
L 891.325404 7.2 
L 891.325404 34.92 
L 889.306357 34.92 
z
" clip-path="url(#pa4b2324831)" style="fill: #eeeeff"/>
    <path d="M 891.325404 34.92 
L 891.325404 7.2 
L 893.34445 7.2 
L 893.34445 34.92 
L 891.325404 34.92 
z
" clip-path="url(#pa4b2324831)" style="fill: #f0f0ff"/>
    <path d="M 893.34445 34.92 
L 893.34445 7.2 
L 895.363497 7.2 
L 895.363497 34.92 
L 893.34445 34.92 
z
" clip-path="url(#pa4b2324831)" style="fill: #5252ff"/>
    <path d="M 895.363497 34.92 
L 895.363497 7.2 
L 897.382543 7.2 
L 897.382543 34.92 
L 895.363497 34.92 
z
" clip-path="url(#pa4b2324831)" style="fill: #6a6aff"/>
    <path d="M 897.382543 34.92 
L 897.382543 7.2 
L 899.401589 7.2 
L 899.401589 34.92 
L 897.382543 34.92 
z
" clip-path="url(#pa4b2324831)" style="fill: #6060ff"/>
   </g>
   <g id="patch_3">
    <path d="M 79.66875 34.92 
L 79.66875 7.2 
" style="fill: none; stroke: #262626; stroke-width: 1.25; stroke-linejoin: miter; stroke-linecap: square"/>
   </g>
   <g id="patch_4">
    <path d="M 899.401589 34.92 
L 899.401589 7.2 
" style="fill: none; stroke: #262626; stroke-width: 1.25; stroke-linejoin: miter; stroke-linecap: square"/>
   </g>
   <g id="patch_5">
    <path d="M 79.66875 34.92 
L 899.401589 34.92 
" style="fill: none; stroke: #262626; stroke-width: 1.25; stroke-linejoin: miter; stroke-linecap: square"/>
   </g>
   <g id="patch_6">
    <path d="M 79.66875 7.2 
L 899.401589 7.2 
" style="fill: none; stroke: #262626; stroke-width: 1.25; stroke-linejoin: miter; stroke-linecap: square"/>
   </g>
   <g id="text_6">
    <text style="fill: #262626; font: 18px 'Arial', 'Liberation Sans', 'DejaVu Sans', 'Bitstream Vera Sans', sans-serif; text-anchor: middle" x="237.154369" y="65.412" transform="rotate(-0 237.154369 65.412)">Cells</text>
   </g>
   <g id="text_7">
    <text style="fill: #262626; font: 18px 'Arial', 'Liberation Sans', 'DejaVu Sans', 'Bitstream Vera Sans', sans-serif; text-anchor: middle" x="556.163701" y="65.412" transform="rotate(-0 556.163701 65.412)">Cytoplasm</text>
   </g>
   <g id="text_8">
    <text style="fill: #262626; font: 18px 'Arial', 'Liberation Sans', 'DejaVu Sans', 'Bitstream Vera Sans', sans-serif; text-anchor: middle" x="808.544501" y="65.412" transform="rotate(-0 808.544501 65.412)">Nuclei</text>
   </g>
  </g>
 </g>
 <defs>
  <clipPath id="pa4b2324831">
   <rect x="79.66875" y="7.2" width="819.732839" height="27.72"/>
  </clipPath>
 </defs>
</svg>
