<?xml version="1.0" encoding="utf-8" standalone="no"?>
<!DOCTYPE svg PUBLIC "-//W3C//DTD SVG 1.1//EN"
  "http://www.w3.org/Graphics/SVG/1.1/DTD/svg11.dtd">
<svg xmlns:xlink="http://www.w3.org/1999/xlink" width="928.032789pt" height="75.266437pt" viewBox="0 0 928.032789 75.266437" xmlns="http://www.w3.org/2000/svg" version="1.1">
 <metadata>
  <rdf:RDF xmlns:dc="http://purl.org/dc/elements/1.1/" xmlns:cc="http://creativecommons.org/ns#" xmlns:rdf="http://www.w3.org/1999/02/22-rdf-syntax-ns#">
   <cc:Work>
    <dc:type rdf:resource="http://purl.org/dc/dcmitype/StillImage"/>
    <dc:date>2023-02-13T13:56:28.449622</dc:date>
    <dc:format>image/svg+xml</dc:format>
    <dc:creator>
     <cc:Agent>
      <dc:title>Matplotlib v3.5.1, https://matplotlib.org/</dc:title>
     </cc:Agent>
    </dc:creator>
   </cc:Work>
  </rdf:RDF>
 </metadata>
 <defs>
  <style type="text/css">*{stroke-linejoin: round; stroke-linecap: butt}</style>
 </defs>
 <g id="figure_1">
  <g id="patch_1">
   <path d="M 0 75.266437 
L 928.032789 75.266437 
L 928.032789 0 
L 0 0 
z
" style="fill: #ffffff"/>
  </g>
  <g id="axes_1">
   <g id="patch_2">
    <path d="M 142.653125 34.38 
L 908.320679 34.38 
L 908.320679 7.2 
L 142.653125 7.2 
z
" style="fill: #ffffff"/>
   </g>
   <g id="matplotlib.axis_1">
    <g id="xtick_1">
     <g id="line2d_1"/>
     <g id="text_1">
      <text style="fill: #262626; font: 15px 'sans-serif'; text-anchor: middle" x="144.705853" y="54.216719" transform="rotate(-0, 144.705853, 54.216719)">1</text>
     </g>
    </g>
    <g id="xtick_2">
     <g id="line2d_2"/>
     <g id="text_2">
      <text style="fill: #262626; font: 15px 'sans-serif'; text-anchor: middle" x="495.722346" y="54.216719" transform="rotate(-0, 495.722346, 54.216719)">172</text>
     </g>
    </g>
    <g id="xtick_3">
     <g id="line2d_3"/>
     <g id="text_3">
      <text style="fill: #262626; font: 15px 'sans-serif'; text-anchor: middle" x="776.946086" y="54.216719" transform="rotate(-0, 776.946086, 54.216719)">309</text>
     </g>
    </g>
    <g id="xtick_4">
     <g id="line2d_4"/>
     <g id="text_4">
      <text style="fill: #262626; font: 15px 'sans-serif'; text-anchor: middle" x="908.320679" y="54.216719" transform="rotate(-0, 908.320679, 54.216719)">373</text>
     </g>
    </g>
   </g>
   <g id="matplotlib.axis_2">
    <g id="ytick_1">
     <g id="line2d_5"/>
     <g id="text_5">
      <text style="fill: #262626; font: 20px 'sans-serif'; text-anchor: end" x="133.553125" y="27.947812" transform="rotate(-0, 133.553125, 27.947812)">Na_K-ATPase</text>
     </g>
    </g>
   </g>
   <g id="PolyCollection_1">
    <path d="M 142.653125 34.38 
L 142.653125 7.2 
L 144.705853 7.2 
L 144.705853 34.38 
L 142.653125 34.38 
z
" clip-path="url(#p4723023ac8)" style="fill: #9a9aff"/>
    <path d="M 144.705853 34.38 
L 144.705853 7.2 
L 146.758581 7.2 
L 146.758581 34.38 
L 144.705853 34.38 
z
" clip-path="url(#p4723023ac8)" style="fill: #8080ff"/>
    <path d="M 146.758581 34.38 
L 146.758581 7.2 
L 148.811309 7.2 
L 148.811309 34.38 
L 146.758581 34.38 
z
" clip-path="url(#p4723023ac8)" style="fill: #6e6eff"/>
    <path d="M 148.811309 34.38 
L 148.811309 7.2 
L 150.864037 7.2 
L 150.864037 34.38 
L 148.811309 34.38 
z
" clip-path="url(#p4723023ac8)" style="fill: #babaff"/>
    <path d="M 150.864037 34.38 
L 150.864037 7.2 
L 152.916765 7.2 
L 152.916765 34.38 
L 150.864037 34.38 
z
" clip-path="url(#p4723023ac8)" style="fill: #aaaaff"/>
    <path d="M 152.916765 34.38 
L 152.916765 7.2 
L 154.969493 7.2 
L 154.969493 34.38 
L 152.916765 34.38 
z
" clip-path="url(#p4723023ac8)" style="fill: #ffbcbc"/>
    <path d="M 154.969493 34.38 
L 154.969493 7.2 
L 157.022221 7.2 
L 157.022221 34.38 
L 154.969493 34.38 
z
" clip-path="url(#p4723023ac8)" style="fill: #ffbaba"/>
    <path d="M 157.022221 34.38 
L 157.022221 7.2 
L 159.074949 7.2 
L 159.074949 34.38 
L 157.022221 34.38 
z
" clip-path="url(#p4723023ac8)" style="fill: #ff8a8a"/>
    <path d="M 159.074949 34.38 
L 159.074949 7.2 
L 161.127677 7.2 
L 161.127677 34.38 
L 159.074949 34.38 
z
" clip-path="url(#p4723023ac8)" style="fill: #ffe2e2"/>
    <path d="M 161.127677 34.38 
L 161.127677 7.2 
L 163.180405 7.2 
L 163.180405 34.38 
L 161.127677 34.38 
z
" clip-path="url(#p4723023ac8)" style="fill: #ffb2b2"/>
    <path d="M 163.180405 34.38 
L 163.180405 7.2 
L 165.233133 7.2 
L 165.233133 34.38 
L 163.180405 34.38 
z
" clip-path="url(#p4723023ac8)" style="fill: #ffbcbc"/>
    <path d="M 165.233133 34.38 
L 165.233133 7.2 
L 167.285861 7.2 
L 167.285861 34.38 
L 165.233133 34.38 
z
" clip-path="url(#p4723023ac8)" style="fill: #ceceff"/>
    <path d="M 167.285861 34.38 
L 167.285861 7.2 
L 169.338589 7.2 
L 169.338589 34.38 
L 167.285861 34.38 
z
" clip-path="url(#p4723023ac8)" style="fill: #ffc6c6"/>
    <path d="M 169.338589 34.38 
L 169.338589 7.2 
L 171.391317 7.2 
L 171.391317 34.38 
L 169.338589 34.38 
z
" clip-path="url(#p4723023ac8)" style="fill: #ffcccc"/>
    <path d="M 171.391317 34.38 
L 171.391317 7.2 
L 173.444045 7.2 
L 173.444045 34.38 
L 171.391317 34.38 
z
" clip-path="url(#p4723023ac8)" style="fill: #ffa6a6"/>
    <path d="M 173.444045 34.38 
L 173.444045 7.2 
L 175.496773 7.2 
L 175.496773 34.38 
L 173.444045 34.38 
z
" clip-path="url(#p4723023ac8)" style="fill: #0000ff"/>
    <path d="M 175.496773 34.38 
L 175.496773 7.2 
L 177.549501 7.2 
L 177.549501 34.38 
L 175.496773 34.38 
z
" clip-path="url(#p4723023ac8)" style="fill: #ffc2c2"/>
    <path d="M 177.549501 34.38 
L 177.549501 7.2 
L 179.60223 7.2 
L 179.60223 34.38 
L 177.549501 34.38 
z
" clip-path="url(#p4723023ac8)" style="fill: #ff7676"/>
    <path d="M 179.60223 34.38 
L 179.60223 7.2 
L 181.654958 7.2 
L 181.654958 34.38 
L 179.60223 34.38 
z
" clip-path="url(#p4723023ac8)" style="fill: #ff3c3c"/>
    <path d="M 181.654958 34.38 
L 181.654958 7.2 
L 183.707686 7.2 
L 183.707686 34.38 
L 181.654958 34.38 
z
" clip-path="url(#p4723023ac8)" style="fill: #ffcaca"/>
    <path d="M 183.707686 34.38 
L 183.707686 7.2 
L 185.760414 7.2 
L 185.760414 34.38 
L 183.707686 34.38 
z
" clip-path="url(#p4723023ac8)" style="fill: #ffd8d8"/>
    <path d="M 185.760414 34.38 
L 185.760414 7.2 
L 187.813142 7.2 
L 187.813142 34.38 
L 185.760414 34.38 
z
" clip-path="url(#p4723023ac8)" style="fill: #ff5e5e"/>
    <path d="M 187.813142 34.38 
L 187.813142 7.2 
L 189.86587 7.2 
L 189.86587 34.38 
L 187.813142 34.38 
z
" clip-path="url(#p4723023ac8)" style="fill: #ffeeee"/>
    <path d="M 189.86587 34.38 
L 189.86587 7.2 
L 191.918598 7.2 
L 191.918598 34.38 
L 189.86587 34.38 
z
" clip-path="url(#p4723023ac8)" style="fill: #eaeaff"/>
    <path d="M 191.918598 34.38 
L 191.918598 7.2 
L 193.971326 7.2 
L 193.971326 34.38 
L 191.918598 34.38 
z
" clip-path="url(#p4723023ac8)" style="fill: #aaaaff"/>
    <path d="M 193.971326 34.38 
L 193.971326 7.2 
L 196.024054 7.2 
L 196.024054 34.38 
L 193.971326 34.38 
z
" clip-path="url(#p4723023ac8)" style="fill: #ffc8c8"/>
    <path d="M 196.024054 34.38 
L 196.024054 7.2 
L 198.076782 7.2 
L 198.076782 34.38 
L 196.024054 34.38 
z
" clip-path="url(#p4723023ac8)" style="fill: #a6a6ff"/>
    <path d="M 198.076782 34.38 
L 198.076782 7.2 
L 200.12951 7.2 
L 200.12951 34.38 
L 198.076782 34.38 
z
" clip-path="url(#p4723023ac8)" style="fill: #ffaaaa"/>
    <path d="M 200.12951 34.38 
L 200.12951 7.2 
L 202.182238 7.2 
L 202.182238 34.38 
L 200.12951 34.38 
z
" clip-path="url(#p4723023ac8)" style="fill: #1212ff"/>
    <path d="M 202.182238 34.38 
L 202.182238 7.2 
L 204.234966 7.2 
L 204.234966 34.38 
L 202.182238 34.38 
z
" clip-path="url(#p4723023ac8)" style="fill: #d6d6ff"/>
    <path d="M 204.234966 34.38 
L 204.234966 7.2 
L 206.287694 7.2 
L 206.287694 34.38 
L 204.234966 34.38 
z
" clip-path="url(#p4723023ac8)" style="fill: #4848ff"/>
    <path d="M 206.287694 34.38 
L 206.287694 7.2 
L 208.340422 7.2 
L 208.340422 34.38 
L 206.287694 34.38 
z
" clip-path="url(#p4723023ac8)" style="fill: #ff8484"/>
    <path d="M 208.340422 34.38 
L 208.340422 7.2 
L 210.39315 7.2 
L 210.39315 34.38 
L 208.340422 34.38 
z
" clip-path="url(#p4723023ac8)" style="fill: #7474ff"/>
    <path d="M 210.39315 34.38 
L 210.39315 7.2 
L 212.445878 7.2 
L 212.445878 34.38 
L 210.39315 34.38 
z
" clip-path="url(#p4723023ac8)" style="fill: #ffc6c6"/>
    <path d="M 212.445878 34.38 
L 212.445878 7.2 
L 214.498606 7.2 
L 214.498606 34.38 
L 212.445878 34.38 
z
" clip-path="url(#p4723023ac8)" style="fill: #ffdada"/>
    <path d="M 214.498606 34.38 
L 214.498606 7.2 
L 216.551334 7.2 
L 216.551334 34.38 
L 214.498606 34.38 
z
" clip-path="url(#p4723023ac8)" style="fill: #ff9292"/>
    <path d="M 216.551334 34.38 
L 216.551334 7.2 
L 218.604062 7.2 
L 218.604062 34.38 
L 216.551334 34.38 
z
" clip-path="url(#p4723023ac8)" style="fill: #ffc8c8"/>
    <path d="M 218.604062 34.38 
L 218.604062 7.2 
L 220.65679 7.2 
L 220.65679 34.38 
L 218.604062 34.38 
z
" clip-path="url(#p4723023ac8)" style="fill: #ffd4d4"/>
    <path d="M 220.65679 34.38 
L 220.65679 7.2 
L 222.709518 7.2 
L 222.709518 34.38 
L 220.65679 34.38 
z
" clip-path="url(#p4723023ac8)" style="fill: #ffdede"/>
    <path d="M 222.709518 34.38 
L 222.709518 7.2 
L 224.762246 7.2 
L 224.762246 34.38 
L 222.709518 34.38 
z
" clip-path="url(#p4723023ac8)" style="fill: #ffb2b2"/>
    <path d="M 224.762246 34.38 
L 224.762246 7.2 
L 226.814974 7.2 
L 226.814974 34.38 
L 224.762246 34.38 
z
" clip-path="url(#p4723023ac8)" style="fill: #ff0000"/>
    <path d="M 226.814974 34.38 
L 226.814974 7.2 
L 228.867702 7.2 
L 228.867702 34.38 
L 226.814974 34.38 
z
" clip-path="url(#p4723023ac8)" style="fill: #ffc0c0"/>
    <path d="M 228.867702 34.38 
L 228.867702 7.2 
L 230.92043 7.2 
L 230.92043 34.38 
L 228.867702 34.38 
z
" clip-path="url(#p4723023ac8)" style="fill: #ffdada"/>
    <path d="M 230.92043 34.38 
L 230.92043 7.2 
L 232.973158 7.2 
L 232.973158 34.38 
L 230.92043 34.38 
z
" clip-path="url(#p4723023ac8)" style="fill: #8e8eff"/>
    <path d="M 232.973158 34.38 
L 232.973158 7.2 
L 235.025886 7.2 
L 235.025886 34.38 
L 232.973158 34.38 
z
" clip-path="url(#p4723023ac8)" style="fill: #c0c0ff"/>
    <path d="M 235.025886 34.38 
L 235.025886 7.2 
L 237.078614 7.2 
L 237.078614 34.38 
L 235.025886 34.38 
z
" clip-path="url(#p4723023ac8)" style="fill: #ffcaca"/>
    <path d="M 237.078614 34.38 
L 237.078614 7.2 
L 239.131342 7.2 
L 239.131342 34.38 
L 237.078614 34.38 
z
" clip-path="url(#p4723023ac8)" style="fill: #fff2f2"/>
    <path d="M 239.131342 34.38 
L 239.131342 7.2 
L 241.18407 7.2 
L 241.18407 34.38 
L 239.131342 34.38 
z
" clip-path="url(#p4723023ac8)" style="fill: #eaeaff"/>
    <path d="M 241.18407 34.38 
L 241.18407 7.2 
L 243.236798 7.2 
L 243.236798 34.38 
L 241.18407 34.38 
z
" clip-path="url(#p4723023ac8)" style="fill: #ff7a7a"/>
    <path d="M 243.236798 34.38 
L 243.236798 7.2 
L 245.289526 7.2 
L 245.289526 34.38 
L 243.236798 34.38 
z
" clip-path="url(#p4723023ac8)" style="fill: #ffd4d4"/>
    <path d="M 245.289526 34.38 
L 245.289526 7.2 
L 247.342254 7.2 
L 247.342254 34.38 
L 245.289526 34.38 
z
" clip-path="url(#p4723023ac8)" style="fill: #c6c6ff"/>
    <path d="M 247.342254 34.38 
L 247.342254 7.2 
L 249.394982 7.2 
L 249.394982 34.38 
L 247.342254 34.38 
z
" clip-path="url(#p4723023ac8)" style="fill: #dedeff"/>
    <path d="M 249.394982 34.38 
L 249.394982 7.2 
L 251.44771 7.2 
L 251.44771 34.38 
L 249.394982 34.38 
z
" clip-path="url(#p4723023ac8)" style="fill: #ff6666"/>
    <path d="M 251.44771 34.38 
L 251.44771 7.2 
L 253.500439 7.2 
L 253.500439 34.38 
L 251.44771 34.38 
z
" clip-path="url(#p4723023ac8)" style="fill: #ffb0b0"/>
    <path d="M 253.500439 34.38 
L 253.500439 7.2 
L 255.553167 7.2 
L 255.553167 34.38 
L 253.500439 34.38 
z
" clip-path="url(#p4723023ac8)" style="fill: #d4d4ff"/>
    <path d="M 255.553167 34.38 
L 255.553167 7.2 
L 257.605895 7.2 
L 257.605895 34.38 
L 255.553167 34.38 
z
" clip-path="url(#p4723023ac8)" style="fill: #c2c2ff"/>
    <path d="M 257.605895 34.38 
L 257.605895 7.2 
L 259.658623 7.2 
L 259.658623 34.38 
L 257.605895 34.38 
z
" clip-path="url(#p4723023ac8)" style="fill: #e8e8ff"/>
    <path d="M 259.658623 34.38 
L 259.658623 7.2 
L 261.711351 7.2 
L 261.711351 34.38 
L 259.658623 34.38 
z
" clip-path="url(#p4723023ac8)" style="fill: #ccccff"/>
    <path d="M 261.711351 34.38 
L 261.711351 7.2 
L 263.764079 7.2 
L 263.764079 34.38 
L 261.711351 34.38 
z
" clip-path="url(#p4723023ac8)" style="fill: #babaff"/>
    <path d="M 263.764079 34.38 
L 263.764079 7.2 
L 265.816807 7.2 
L 265.816807 34.38 
L 263.764079 34.38 
z
" clip-path="url(#p4723023ac8)" style="fill: #c2c2ff"/>
    <path d="M 265.816807 34.38 
L 265.816807 7.2 
L 267.869535 7.2 
L 267.869535 34.38 
L 265.816807 34.38 
z
" clip-path="url(#p4723023ac8)" style="fill: #c2c2ff"/>
    <path d="M 267.869535 34.38 
L 267.869535 7.2 
L 269.922263 7.2 
L 269.922263 34.38 
L 267.869535 34.38 
z
" clip-path="url(#p4723023ac8)" style="fill: #c2c2ff"/>
    <path d="M 269.922263 34.38 
L 269.922263 7.2 
L 271.974991 7.2 
L 271.974991 34.38 
L 269.922263 34.38 
z
" clip-path="url(#p4723023ac8)" style="fill: #e2e2ff"/>
    <path d="M 271.974991 34.38 
L 271.974991 7.2 
L 274.027719 7.2 
L 274.027719 34.38 
L 271.974991 34.38 
z
" clip-path="url(#p4723023ac8)" style="fill: #ffa8a8"/>
    <path d="M 274.027719 34.38 
L 274.027719 7.2 
L 276.080447 7.2 
L 276.080447 34.38 
L 274.027719 34.38 
z
" clip-path="url(#p4723023ac8)" style="fill: #ff8e8e"/>
    <path d="M 276.080447 34.38 
L 276.080447 7.2 
L 278.133175 7.2 
L 278.133175 34.38 
L 276.080447 34.38 
z
" clip-path="url(#p4723023ac8)" style="fill: #ffd0d0"/>
    <path d="M 278.133175 34.38 
L 278.133175 7.2 
L 280.185903 7.2 
L 280.185903 34.38 
L 278.133175 34.38 
z
" clip-path="url(#p4723023ac8)" style="fill: #ff7c7c"/>
    <path d="M 280.185903 34.38 
L 280.185903 7.2 
L 282.238631 7.2 
L 282.238631 34.38 
L 280.185903 34.38 
z
" clip-path="url(#p4723023ac8)" style="fill: #d8d8ff"/>
    <path d="M 282.238631 34.38 
L 282.238631 7.2 
L 284.291359 7.2 
L 284.291359 34.38 
L 282.238631 34.38 
z
" clip-path="url(#p4723023ac8)" style="fill: #ffc8c8"/>
    <path d="M 284.291359 34.38 
L 284.291359 7.2 
L 286.344087 7.2 
L 286.344087 34.38 
L 284.291359 34.38 
z
" clip-path="url(#p4723023ac8)" style="fill: #a4a4ff"/>
    <path d="M 286.344087 34.38 
L 286.344087 7.2 
L 288.396815 7.2 
L 288.396815 34.38 
L 286.344087 34.38 
z
" clip-path="url(#p4723023ac8)" style="fill: #ff4a4a"/>
    <path d="M 288.396815 34.38 
L 288.396815 7.2 
L 290.449543 7.2 
L 290.449543 34.38 
L 288.396815 34.38 
z
" clip-path="url(#p4723023ac8)" style="fill: #ff6262"/>
    <path d="M 290.449543 34.38 
L 290.449543 7.2 
L 292.502271 7.2 
L 292.502271 34.38 
L 290.449543 34.38 
z
" clip-path="url(#p4723023ac8)" style="fill: #5858ff"/>
    <path d="M 292.502271 34.38 
L 292.502271 7.2 
L 294.554999 7.2 
L 294.554999 34.38 
L 292.502271 34.38 
z
" clip-path="url(#p4723023ac8)" style="fill: #ffe0e0"/>
    <path d="M 294.554999 34.38 
L 294.554999 7.2 
L 296.607727 7.2 
L 296.607727 34.38 
L 294.554999 34.38 
z
" clip-path="url(#p4723023ac8)" style="fill: #e0e0ff"/>
    <path d="M 296.607727 34.38 
L 296.607727 7.2 
L 298.660455 7.2 
L 298.660455 34.38 
L 296.607727 34.38 
z
" clip-path="url(#p4723023ac8)" style="fill: #ff5e5e"/>
    <path d="M 298.660455 34.38 
L 298.660455 7.2 
L 300.713183 7.2 
L 300.713183 34.38 
L 298.660455 34.38 
z
" clip-path="url(#p4723023ac8)" style="fill: #ff5c5c"/>
    <path d="M 300.713183 34.38 
L 300.713183 7.2 
L 302.765911 7.2 
L 302.765911 34.38 
L 300.713183 34.38 
z
" clip-path="url(#p4723023ac8)" style="fill: #6464ff"/>
    <path d="M 302.765911 34.38 
L 302.765911 7.2 
L 304.818639 7.2 
L 304.818639 34.38 
L 302.765911 34.38 
z
" clip-path="url(#p4723023ac8)" style="fill: #ffe4e4"/>
    <path d="M 304.818639 34.38 
L 304.818639 7.2 
L 306.871367 7.2 
L 306.871367 34.38 
L 304.818639 34.38 
z
" clip-path="url(#p4723023ac8)" style="fill: #ffeeee"/>
    <path d="M 306.871367 34.38 
L 306.871367 7.2 
L 308.924095 7.2 
L 308.924095 34.38 
L 306.871367 34.38 
z
" clip-path="url(#p4723023ac8)" style="fill: #f6f6ff"/>
    <path d="M 308.924095 34.38 
L 308.924095 7.2 
L 310.976823 7.2 
L 310.976823 34.38 
L 308.924095 34.38 
z
" clip-path="url(#p4723023ac8)" style="fill: #ffbebe"/>
    <path d="M 310.976823 34.38 
L 310.976823 7.2 
L 313.029551 7.2 
L 313.029551 34.38 
L 310.976823 34.38 
z
" clip-path="url(#p4723023ac8)" style="fill: #ff8e8e"/>
    <path d="M 313.029551 34.38 
L 313.029551 7.2 
L 315.082279 7.2 
L 315.082279 34.38 
L 313.029551 34.38 
z
" clip-path="url(#p4723023ac8)" style="fill: #ffdede"/>
    <path d="M 315.082279 34.38 
L 315.082279 7.2 
L 317.135007 7.2 
L 317.135007 34.38 
L 315.082279 34.38 
z
" clip-path="url(#p4723023ac8)" style="fill: #ffd2d2"/>
    <path d="M 317.135007 34.38 
L 317.135007 7.2 
L 319.187735 7.2 
L 319.187735 34.38 
L 317.135007 34.38 
z
" clip-path="url(#p4723023ac8)" style="fill: #ffdada"/>
    <path d="M 319.187735 34.38 
L 319.187735 7.2 
L 321.240463 7.2 
L 321.240463 34.38 
L 319.187735 34.38 
z
" clip-path="url(#p4723023ac8)" style="fill: #c0c0ff"/>
    <path d="M 321.240463 34.38 
L 321.240463 7.2 
L 323.293191 7.2 
L 323.293191 34.38 
L 321.240463 34.38 
z
" clip-path="url(#p4723023ac8)" style="fill: #d4d4ff"/>
    <path d="M 323.293191 34.38 
L 323.293191 7.2 
L 325.345919 7.2 
L 325.345919 34.38 
L 323.293191 34.38 
z
" clip-path="url(#p4723023ac8)" style="fill: #ccccff"/>
    <path d="M 325.345919 34.38 
L 325.345919 7.2 
L 327.398648 7.2 
L 327.398648 34.38 
L 325.345919 34.38 
z
" clip-path="url(#p4723023ac8)" style="fill: #ff9090"/>
    <path d="M 327.398648 34.38 
L 327.398648 7.2 
L 329.451376 7.2 
L 329.451376 34.38 
L 327.398648 34.38 
z
" clip-path="url(#p4723023ac8)" style="fill: #ffb2b2"/>
    <path d="M 329.451376 34.38 
L 329.451376 7.2 
L 331.504104 7.2 
L 331.504104 34.38 
L 329.451376 34.38 
z
" clip-path="url(#p4723023ac8)" style="fill: #ff8282"/>
    <path d="M 331.504104 34.38 
L 331.504104 7.2 
L 333.556832 7.2 
L 333.556832 34.38 
L 331.504104 34.38 
z
" clip-path="url(#p4723023ac8)" style="fill: #ff9696"/>
    <path d="M 333.556832 34.38 
L 333.556832 7.2 
L 335.60956 7.2 
L 335.60956 34.38 
L 333.556832 34.38 
z
" clip-path="url(#p4723023ac8)" style="fill: #ffe8e8"/>
    <path d="M 335.60956 34.38 
L 335.60956 7.2 
L 337.662288 7.2 
L 337.662288 34.38 
L 335.60956 34.38 
z
" clip-path="url(#p4723023ac8)" style="fill: #ffd0d0"/>
    <path d="M 337.662288 34.38 
L 337.662288 7.2 
L 339.715016 7.2 
L 339.715016 34.38 
L 337.662288 34.38 
z
" clip-path="url(#p4723023ac8)" style="fill: #ffe0e0"/>
    <path d="M 339.715016 34.38 
L 339.715016 7.2 
L 341.767744 7.2 
L 341.767744 34.38 
L 339.715016 34.38 
z
" clip-path="url(#p4723023ac8)" style="fill: #ff9a9a"/>
    <path d="M 341.767744 34.38 
L 341.767744 7.2 
L 343.820472 7.2 
L 343.820472 34.38 
L 341.767744 34.38 
z
" clip-path="url(#p4723023ac8)" style="fill: #ffb4b4"/>
    <path d="M 343.820472 34.38 
L 343.820472 7.2 
L 345.8732 7.2 
L 345.8732 34.38 
L 343.820472 34.38 
z
" clip-path="url(#p4723023ac8)" style="fill: #ffaeae"/>
    <path d="M 345.8732 34.38 
L 345.8732 7.2 
L 347.925928 7.2 
L 347.925928 34.38 
L 345.8732 34.38 
z
" clip-path="url(#p4723023ac8)" style="fill: #ff9a9a"/>
    <path d="M 347.925928 34.38 
L 347.925928 7.2 
L 349.978656 7.2 
L 349.978656 34.38 
L 347.925928 34.38 
z
" clip-path="url(#p4723023ac8)" style="fill: #ff9a9a"/>
    <path d="M 349.978656 34.38 
L 349.978656 7.2 
L 352.031384 7.2 
L 352.031384 34.38 
L 349.978656 34.38 
z
" clip-path="url(#p4723023ac8)" style="fill: #9696ff"/>
    <path d="M 352.031384 34.38 
L 352.031384 7.2 
L 354.084112 7.2 
L 354.084112 34.38 
L 352.031384 34.38 
z
" clip-path="url(#p4723023ac8)" style="fill: #aaaaff"/>
    <path d="M 354.084112 34.38 
L 354.084112 7.2 
L 356.13684 7.2 
L 356.13684 34.38 
L 354.084112 34.38 
z
" clip-path="url(#p4723023ac8)" style="fill: #7474ff"/>
    <path d="M 356.13684 34.38 
L 356.13684 7.2 
L 358.189568 7.2 
L 358.189568 34.38 
L 356.13684 34.38 
z
" clip-path="url(#p4723023ac8)" style="fill: #b4b4ff"/>
    <path d="M 358.189568 34.38 
L 358.189568 7.2 
L 360.242296 7.2 
L 360.242296 34.38 
L 358.189568 34.38 
z
" clip-path="url(#p4723023ac8)" style="fill: #8e8eff"/>
    <path d="M 360.242296 34.38 
L 360.242296 7.2 
L 362.295024 7.2 
L 362.295024 34.38 
L 360.242296 34.38 
z
" clip-path="url(#p4723023ac8)" style="fill: #ffc2c2"/>
    <path d="M 362.295024 34.38 
L 362.295024 7.2 
L 364.347752 7.2 
L 364.347752 34.38 
L 362.295024 34.38 
z
" clip-path="url(#p4723023ac8)" style="fill: #ff8e8e"/>
    <path d="M 364.347752 34.38 
L 364.347752 7.2 
L 366.40048 7.2 
L 366.40048 34.38 
L 364.347752 34.38 
z
" clip-path="url(#p4723023ac8)" style="fill: #ff9e9e"/>
    <path d="M 366.40048 34.38 
L 366.40048 7.2 
L 368.453208 7.2 
L 368.453208 34.38 
L 366.40048 34.38 
z
" clip-path="url(#p4723023ac8)" style="fill: #7676ff"/>
    <path d="M 368.453208 34.38 
L 368.453208 7.2 
L 370.505936 7.2 
L 370.505936 34.38 
L 368.453208 34.38 
z
" clip-path="url(#p4723023ac8)" style="fill: #7878ff"/>
    <path d="M 370.505936 34.38 
L 370.505936 7.2 
L 372.558664 7.2 
L 372.558664 34.38 
L 370.505936 34.38 
z
" clip-path="url(#p4723023ac8)" style="fill: #ffaaaa"/>
    <path d="M 372.558664 34.38 
L 372.558664 7.2 
L 374.611392 7.2 
L 374.611392 34.38 
L 372.558664 34.38 
z
" clip-path="url(#p4723023ac8)" style="fill: #fff8f8"/>
    <path d="M 374.611392 34.38 
L 374.611392 7.2 
L 376.66412 7.2 
L 376.66412 34.38 
L 374.611392 34.38 
z
" clip-path="url(#p4723023ac8)" style="fill: #fff4f4"/>
    <path d="M 376.66412 34.38 
L 376.66412 7.2 
L 378.716848 7.2 
L 378.716848 34.38 
L 376.66412 34.38 
z
" clip-path="url(#p4723023ac8)" style="fill: #fff0f0"/>
    <path d="M 378.716848 34.38 
L 378.716848 7.2 
L 380.769576 7.2 
L 380.769576 34.38 
L 378.716848 34.38 
z
" clip-path="url(#p4723023ac8)" style="fill: #ffb6b6"/>
    <path d="M 380.769576 34.38 
L 380.769576 7.2 
L 382.822304 7.2 
L 382.822304 34.38 
L 380.769576 34.38 
z
" clip-path="url(#p4723023ac8)" style="fill: #ffd8d8"/>
    <path d="M 382.822304 34.38 
L 382.822304 7.2 
L 384.875032 7.2 
L 384.875032 34.38 
L 382.822304 34.38 
z
" clip-path="url(#p4723023ac8)" style="fill: #ffcaca"/>
    <path d="M 384.875032 34.38 
L 384.875032 7.2 
L 386.92776 7.2 
L 386.92776 34.38 
L 384.875032 34.38 
z
" clip-path="url(#p4723023ac8)" style="fill: #ffcaca"/>
    <path d="M 386.92776 34.38 
L 386.92776 7.2 
L 388.980488 7.2 
L 388.980488 34.38 
L 386.92776 34.38 
z
" clip-path="url(#p4723023ac8)" style="fill: #ffc4c4"/>
    <path d="M 388.980488 34.38 
L 388.980488 7.2 
L 391.033216 7.2 
L 391.033216 34.38 
L 388.980488 34.38 
z
" clip-path="url(#p4723023ac8)" style="fill: #cacaff"/>
    <path d="M 391.033216 34.38 
L 391.033216 7.2 
L 393.085944 7.2 
L 393.085944 34.38 
L 391.033216 34.38 
z
" clip-path="url(#p4723023ac8)" style="fill: #dadaff"/>
    <path d="M 393.085944 34.38 
L 393.085944 7.2 
L 395.138672 7.2 
L 395.138672 34.38 
L 393.085944 34.38 
z
" clip-path="url(#p4723023ac8)" style="fill: #ccccff"/>
    <path d="M 395.138672 34.38 
L 395.138672 7.2 
L 397.1914 7.2 
L 397.1914 34.38 
L 395.138672 34.38 
z
" clip-path="url(#p4723023ac8)" style="fill: #d2d2ff"/>
    <path d="M 397.1914 34.38 
L 397.1914 7.2 
L 399.244128 7.2 
L 399.244128 34.38 
L 397.1914 34.38 
z
" clip-path="url(#p4723023ac8)" style="fill: #ececff"/>
    <path d="M 399.244128 34.38 
L 399.244128 7.2 
L 401.296857 7.2 
L 401.296857 34.38 
L 399.244128 34.38 
z
" clip-path="url(#p4723023ac8)" style="fill: #ececff"/>
    <path d="M 401.296857 34.38 
L 401.296857 7.2 
L 403.349585 7.2 
L 403.349585 34.38 
L 401.296857 34.38 
z
" clip-path="url(#p4723023ac8)" style="fill: #eaeaff"/>
    <path d="M 403.349585 34.38 
L 403.349585 7.2 
L 405.402313 7.2 
L 405.402313 34.38 
L 403.349585 34.38 
z
" clip-path="url(#p4723023ac8)" style="fill: #ffcaca"/>
    <path d="M 405.402313 34.38 
L 405.402313 7.2 
L 407.455041 7.2 
L 407.455041 34.38 
L 405.402313 34.38 
z
" clip-path="url(#p4723023ac8)" style="fill: #ffdede"/>
    <path d="M 407.455041 34.38 
L 407.455041 7.2 
L 409.507769 7.2 
L 409.507769 34.38 
L 407.455041 34.38 
z
" clip-path="url(#p4723023ac8)" style="fill: #ffd4d4"/>
    <path d="M 409.507769 34.38 
L 409.507769 7.2 
L 411.560497 7.2 
L 411.560497 34.38 
L 409.507769 34.38 
z
" clip-path="url(#p4723023ac8)" style="fill: #ffacac"/>
    <path d="M 411.560497 34.38 
L 411.560497 7.2 
L 413.613225 7.2 
L 413.613225 34.38 
L 411.560497 34.38 
z
" clip-path="url(#p4723023ac8)" style="fill: #ff9898"/>
    <path d="M 413.613225 34.38 
L 413.613225 7.2 
L 415.665953 7.2 
L 415.665953 34.38 
L 413.613225 34.38 
z
" clip-path="url(#p4723023ac8)" style="fill: #ff9e9e"/>
    <path d="M 415.665953 34.38 
L 415.665953 7.2 
L 417.718681 7.2 
L 417.718681 34.38 
L 415.665953 34.38 
z
" clip-path="url(#p4723023ac8)" style="fill: #c0c0ff"/>
    <path d="M 417.718681 34.38 
L 417.718681 7.2 
L 419.771409 7.2 
L 419.771409 34.38 
L 417.718681 34.38 
z
" clip-path="url(#p4723023ac8)" style="fill: #fff6f6"/>
    <path d="M 419.771409 34.38 
L 419.771409 7.2 
L 421.824137 7.2 
L 421.824137 34.38 
L 419.771409 34.38 
z
" clip-path="url(#p4723023ac8)" style="fill: #fff4f4"/>
    <path d="M 421.824137 34.38 
L 421.824137 7.2 
L 423.876865 7.2 
L 423.876865 34.38 
L 421.824137 34.38 
z
" clip-path="url(#p4723023ac8)" style="fill: #a0a0ff"/>
    <path d="M 423.876865 34.38 
L 423.876865 7.2 
L 425.929593 7.2 
L 425.929593 34.38 
L 423.876865 34.38 
z
" clip-path="url(#p4723023ac8)" style="fill: #cacaff"/>
    <path d="M 425.929593 34.38 
L 425.929593 7.2 
L 427.982321 7.2 
L 427.982321 34.38 
L 425.929593 34.38 
z
" clip-path="url(#p4723023ac8)" style="fill: #e0e0ff"/>
    <path d="M 427.982321 34.38 
L 427.982321 7.2 
L 430.035049 7.2 
L 430.035049 34.38 
L 427.982321 34.38 
z
" clip-path="url(#p4723023ac8)" style="fill: #e0e0ff"/>
    <path d="M 430.035049 34.38 
L 430.035049 7.2 
L 432.087777 7.2 
L 432.087777 34.38 
L 430.035049 34.38 
z
" clip-path="url(#p4723023ac8)" style="fill: #ff9c9c"/>
    <path d="M 432.087777 34.38 
L 432.087777 7.2 
L 434.140505 7.2 
L 434.140505 34.38 
L 432.087777 34.38 
z
" clip-path="url(#p4723023ac8)" style="fill: #ffa8a8"/>
    <path d="M 434.140505 34.38 
L 434.140505 7.2 
L 436.193233 7.2 
L 436.193233 34.38 
L 434.140505 34.38 
z
" clip-path="url(#p4723023ac8)" style="fill: #ffa8a8"/>
    <path d="M 436.193233 34.38 
L 436.193233 7.2 
L 438.245961 7.2 
L 438.245961 34.38 
L 436.193233 34.38 
z
" clip-path="url(#p4723023ac8)" style="fill: #d4d4ff"/>
    <path d="M 438.245961 34.38 
L 438.245961 7.2 
L 440.298689 7.2 
L 440.298689 34.38 
L 438.245961 34.38 
z
" clip-path="url(#p4723023ac8)" style="fill: #d4d4ff"/>
    <path d="M 440.298689 34.38 
L 440.298689 7.2 
L 442.351417 7.2 
L 442.351417 34.38 
L 440.298689 34.38 
z
" clip-path="url(#p4723023ac8)" style="fill: #d4d4ff"/>
    <path d="M 442.351417 34.38 
L 442.351417 7.2 
L 444.404145 7.2 
L 444.404145 34.38 
L 442.351417 34.38 
z
" clip-path="url(#p4723023ac8)" style="fill: #c8c8ff"/>
    <path d="M 444.404145 34.38 
L 444.404145 7.2 
L 446.456873 7.2 
L 446.456873 34.38 
L 444.404145 34.38 
z
" clip-path="url(#p4723023ac8)" style="fill: #eaeaff"/>
    <path d="M 446.456873 34.38 
L 446.456873 7.2 
L 448.509601 7.2 
L 448.509601 34.38 
L 446.456873 34.38 
z
" clip-path="url(#p4723023ac8)" style="fill: #e8e8ff"/>
    <path d="M 448.509601 34.38 
L 448.509601 7.2 
L 450.562329 7.2 
L 450.562329 34.38 
L 448.509601 34.38 
z
" clip-path="url(#p4723023ac8)" style="fill: #eaeaff"/>
    <path d="M 450.562329 34.38 
L 450.562329 7.2 
L 452.615057 7.2 
L 452.615057 34.38 
L 450.562329 34.38 
z
" clip-path="url(#p4723023ac8)" style="fill: #ffc0c0"/>
    <path d="M 452.615057 34.38 
L 452.615057 7.2 
L 454.667785 7.2 
L 454.667785 34.38 
L 452.615057 34.38 
z
" clip-path="url(#p4723023ac8)" style="fill: #ffc4c4"/>
    <path d="M 454.667785 34.38 
L 454.667785 7.2 
L 456.720513 7.2 
L 456.720513 34.38 
L 454.667785 34.38 
z
" clip-path="url(#p4723023ac8)" style="fill: #ffc4c4"/>
    <path d="M 456.720513 34.38 
L 456.720513 7.2 
L 458.773241 7.2 
L 458.773241 34.38 
L 456.720513 34.38 
z
" clip-path="url(#p4723023ac8)" style="fill: #ffeaea"/>
    <path d="M 458.773241 34.38 
L 458.773241 7.2 
L 460.825969 7.2 
L 460.825969 34.38 
L 458.773241 34.38 
z
" clip-path="url(#p4723023ac8)" style="fill: #ffa2a2"/>
    <path d="M 460.825969 34.38 
L 460.825969 7.2 
L 462.878697 7.2 
L 462.878697 34.38 
L 460.825969 34.38 
z
" clip-path="url(#p4723023ac8)" style="fill: #ffa8a8"/>
    <path d="M 462.878697 34.38 
L 462.878697 7.2 
L 464.931425 7.2 
L 464.931425 34.38 
L 462.878697 34.38 
z
" clip-path="url(#p4723023ac8)" style="fill: #ffa0a0"/>
    <path d="M 464.931425 34.38 
L 464.931425 7.2 
L 466.984153 7.2 
L 466.984153 34.38 
L 464.931425 34.38 
z
" clip-path="url(#p4723023ac8)" style="fill: #ff8484"/>
    <path d="M 466.984153 34.38 
L 466.984153 7.2 
L 469.036881 7.2 
L 469.036881 34.38 
L 466.984153 34.38 
z
" clip-path="url(#p4723023ac8)" style="fill: #ff8484"/>
    <path d="M 469.036881 34.38 
L 469.036881 7.2 
L 471.089609 7.2 
L 471.089609 34.38 
L 469.036881 34.38 
z
" clip-path="url(#p4723023ac8)" style="fill: #ff7e7e"/>
    <path d="M 471.089609 34.38 
L 471.089609 7.2 
L 473.142337 7.2 
L 473.142337 34.38 
L 471.089609 34.38 
z
" clip-path="url(#p4723023ac8)" style="fill: #ffd0d0"/>
    <path d="M 473.142337 34.38 
L 473.142337 7.2 
L 475.195066 7.2 
L 475.195066 34.38 
L 473.142337 34.38 
z
" clip-path="url(#p4723023ac8)" style="fill: #ffd4d4"/>
    <path d="M 475.195066 34.38 
L 475.195066 7.2 
L 477.247794 7.2 
L 477.247794 34.38 
L 475.195066 34.38 
z
" clip-path="url(#p4723023ac8)" style="fill: #ffa2a2"/>
    <path d="M 477.247794 34.38 
L 477.247794 7.2 
L 479.300522 7.2 
L 479.300522 34.38 
L 477.247794 34.38 
z
" clip-path="url(#p4723023ac8)" style="fill: #ffa8a8"/>
    <path d="M 479.300522 34.38 
L 479.300522 7.2 
L 481.35325 7.2 
L 481.35325 34.38 
L 479.300522 34.38 
z
" clip-path="url(#p4723023ac8)" style="fill: #ffa8a8"/>
    <path d="M 481.35325 34.38 
L 481.35325 7.2 
L 483.405978 7.2 
L 483.405978 34.38 
L 481.35325 34.38 
z
" clip-path="url(#p4723023ac8)" style="fill: #ff8a8a"/>
    <path d="M 483.405978 34.38 
L 483.405978 7.2 
L 485.458706 7.2 
L 485.458706 34.38 
L 483.405978 34.38 
z
" clip-path="url(#p4723023ac8)" style="fill: #ff8686"/>
    <path d="M 485.458706 34.38 
L 485.458706 7.2 
L 487.511434 7.2 
L 487.511434 34.38 
L 485.458706 34.38 
z
" clip-path="url(#p4723023ac8)" style="fill: #ff8484"/>
    <path d="M 487.511434 34.38 
L 487.511434 7.2 
L 489.564162 7.2 
L 489.564162 34.38 
L 487.511434 34.38 
z
" clip-path="url(#p4723023ac8)" style="fill: #ffd0d0"/>
    <path d="M 489.564162 34.38 
L 489.564162 7.2 
L 491.61689 7.2 
L 491.61689 34.38 
L 489.564162 34.38 
z
" clip-path="url(#p4723023ac8)" style="fill: #ffd0d0"/>
    <path d="M 491.61689 34.38 
L 491.61689 7.2 
L 493.669618 7.2 
L 493.669618 34.38 
L 491.61689 34.38 
z
" clip-path="url(#p4723023ac8)" style="fill: #ffcece"/>
    <path d="M 493.669618 34.38 
L 493.669618 7.2 
L 495.722346 7.2 
L 495.722346 34.38 
L 493.669618 34.38 
z
" clip-path="url(#p4723023ac8)" style="fill: #b6b6ff"/>
    <path d="M 495.722346 34.38 
L 495.722346 7.2 
L 497.775074 7.2 
L 497.775074 34.38 
L 495.722346 34.38 
z
" clip-path="url(#p4723023ac8)" style="fill: #babaff"/>
    <path d="M 497.775074 34.38 
L 497.775074 7.2 
L 499.827802 7.2 
L 499.827802 34.38 
L 497.775074 34.38 
z
" clip-path="url(#p4723023ac8)" style="fill: #8a8aff"/>
    <path d="M 499.827802 34.38 
L 499.827802 7.2 
L 501.88053 7.2 
L 501.88053 34.38 
L 499.827802 34.38 
z
" clip-path="url(#p4723023ac8)" style="fill: #ff9a9a"/>
    <path d="M 501.88053 34.38 
L 501.88053 7.2 
L 503.933258 7.2 
L 503.933258 34.38 
L 501.88053 34.38 
z
" clip-path="url(#p4723023ac8)" style="fill: #ffdede"/>
    <path d="M 503.933258 34.38 
L 503.933258 7.2 
L 505.985986 7.2 
L 505.985986 34.38 
L 503.933258 34.38 
z
" clip-path="url(#p4723023ac8)" style="fill: #ff8e8e"/>
    <path d="M 505.985986 34.38 
L 505.985986 7.2 
L 508.038714 7.2 
L 508.038714 34.38 
L 505.985986 34.38 
z
" clip-path="url(#p4723023ac8)" style="fill: #ff6262"/>
    <path d="M 508.038714 34.38 
L 508.038714 7.2 
L 510.091442 7.2 
L 510.091442 34.38 
L 508.038714 34.38 
z
" clip-path="url(#p4723023ac8)" style="fill: #ff6a6a"/>
    <path d="M 510.091442 34.38 
L 510.091442 7.2 
L 512.14417 7.2 
L 512.14417 34.38 
L 510.091442 34.38 
z
" clip-path="url(#p4723023ac8)" style="fill: #ffc0c0"/>
    <path d="M 512.14417 34.38 
L 512.14417 7.2 
L 514.196898 7.2 
L 514.196898 34.38 
L 512.14417 34.38 
z
" clip-path="url(#p4723023ac8)" style="fill: #ffa0a0"/>
    <path d="M 514.196898 34.38 
L 514.196898 7.2 
L 516.249626 7.2 
L 516.249626 34.38 
L 514.196898 34.38 
z
" clip-path="url(#p4723023ac8)" style="fill: #ffa2a2"/>
    <path d="M 516.249626 34.38 
L 516.249626 7.2 
L 518.302354 7.2 
L 518.302354 34.38 
L 516.249626 34.38 
z
" clip-path="url(#p4723023ac8)" style="fill: #b4b4ff"/>
    <path d="M 518.302354 34.38 
L 518.302354 7.2 
L 520.355082 7.2 
L 520.355082 34.38 
L 518.302354 34.38 
z
" clip-path="url(#p4723023ac8)" style="fill: #c0c0ff"/>
    <path d="M 520.355082 34.38 
L 520.355082 7.2 
L 522.40781 7.2 
L 522.40781 34.38 
L 520.355082 34.38 
z
" clip-path="url(#p4723023ac8)" style="fill: #9c9cff"/>
    <path d="M 522.40781 34.38 
L 522.40781 7.2 
L 524.460538 7.2 
L 524.460538 34.38 
L 522.40781 34.38 
z
" clip-path="url(#p4723023ac8)" style="fill: #acacff"/>
    <path d="M 524.460538 34.38 
L 524.460538 7.2 
L 526.513266 7.2 
L 526.513266 34.38 
L 524.460538 34.38 
z
" clip-path="url(#p4723023ac8)" style="fill: #ff8a8a"/>
    <path d="M 526.513266 34.38 
L 526.513266 7.2 
L 528.565994 7.2 
L 528.565994 34.38 
L 526.513266 34.38 
z
" clip-path="url(#p4723023ac8)" style="fill: #ff8282"/>
    <path d="M 528.565994 34.38 
L 528.565994 7.2 
L 530.618722 7.2 
L 530.618722 34.38 
L 528.565994 34.38 
z
" clip-path="url(#p4723023ac8)" style="fill: #e0e0ff"/>
    <path d="M 530.618722 34.38 
L 530.618722 7.2 
L 532.67145 7.2 
L 532.67145 34.38 
L 530.618722 34.38 
z
" clip-path="url(#p4723023ac8)" style="fill: #fffefe"/>
    <path d="M 532.67145 34.38 
L 532.67145 7.2 
L 534.724178 7.2 
L 534.724178 34.38 
L 532.67145 34.38 
z
" clip-path="url(#p4723023ac8)" style="fill: #dedeff"/>
    <path d="M 534.724178 34.38 
L 534.724178 7.2 
L 536.776906 7.2 
L 536.776906 34.38 
L 534.724178 34.38 
z
" clip-path="url(#p4723023ac8)" style="fill: #e2e2ff"/>
    <path d="M 536.776906 34.38 
L 536.776906 7.2 
L 538.829634 7.2 
L 538.829634 34.38 
L 536.776906 34.38 
z
" clip-path="url(#p4723023ac8)" style="fill: #e4e4ff"/>
    <path d="M 538.829634 34.38 
L 538.829634 7.2 
L 540.882362 7.2 
L 540.882362 34.38 
L 538.829634 34.38 
z
" clip-path="url(#p4723023ac8)" style="fill: #ff3a3a"/>
    <path d="M 540.882362 34.38 
L 540.882362 7.2 
L 542.93509 7.2 
L 542.93509 34.38 
L 540.882362 34.38 
z
" clip-path="url(#p4723023ac8)" style="fill: #8c8cff"/>
    <path d="M 542.93509 34.38 
L 542.93509 7.2 
L 544.987818 7.2 
L 544.987818 34.38 
L 542.93509 34.38 
z
" clip-path="url(#p4723023ac8)" style="fill: #d8d8ff"/>
    <path d="M 544.987818 34.38 
L 544.987818 7.2 
L 547.040546 7.2 
L 547.040546 34.38 
L 544.987818 34.38 
z
" clip-path="url(#p4723023ac8)" style="fill: #dedeff"/>
    <path d="M 547.040546 34.38 
L 547.040546 7.2 
L 549.093275 7.2 
L 549.093275 34.38 
L 547.040546 34.38 
z
" clip-path="url(#p4723023ac8)" style="fill: #ffe2e2"/>
    <path d="M 549.093275 34.38 
L 549.093275 7.2 
L 551.146003 7.2 
L 551.146003 34.38 
L 549.093275 34.38 
z
" clip-path="url(#p4723023ac8)" style="fill: #ffe8e8"/>
    <path d="M 551.146003 34.38 
L 551.146003 7.2 
L 553.198731 7.2 
L 553.198731 34.38 
L 551.146003 34.38 
z
" clip-path="url(#p4723023ac8)" style="fill: #b6b6ff"/>
    <path d="M 553.198731 34.38 
L 553.198731 7.2 
L 555.251459 7.2 
L 555.251459 34.38 
L 553.198731 34.38 
z
" clip-path="url(#p4723023ac8)" style="fill: #e0e0ff"/>
    <path d="M 555.251459 34.38 
L 555.251459 7.2 
L 557.304187 7.2 
L 557.304187 34.38 
L 555.251459 34.38 
z
" clip-path="url(#p4723023ac8)" style="fill: #e4e4ff"/>
    <path d="M 557.304187 34.38 
L 557.304187 7.2 
L 559.356915 7.2 
L 559.356915 34.38 
L 557.304187 34.38 
z
" clip-path="url(#p4723023ac8)" style="fill: #c8c8ff"/>
    <path d="M 559.356915 34.38 
L 559.356915 7.2 
L 561.409643 7.2 
L 561.409643 34.38 
L 559.356915 34.38 
z
" clip-path="url(#p4723023ac8)" style="fill: #e0e0ff"/>
    <path d="M 561.409643 34.38 
L 561.409643 7.2 
L 563.462371 7.2 
L 563.462371 34.38 
L 561.409643 34.38 
z
" clip-path="url(#p4723023ac8)" style="fill: #e6e6ff"/>
    <path d="M 563.462371 34.38 
L 563.462371 7.2 
L 565.515099 7.2 
L 565.515099 34.38 
L 563.462371 34.38 
z
" clip-path="url(#p4723023ac8)" style="fill: #c0c0ff"/>
    <path d="M 565.515099 34.38 
L 565.515099 7.2 
L 567.567827 7.2 
L 567.567827 34.38 
L 565.515099 34.38 
z
" clip-path="url(#p4723023ac8)" style="fill: #e8e8ff"/>
    <path d="M 567.567827 34.38 
L 567.567827 7.2 
L 569.620555 7.2 
L 569.620555 34.38 
L 567.567827 34.38 
z
" clip-path="url(#p4723023ac8)" style="fill: #c0c0ff"/>
    <path d="M 569.620555 34.38 
L 569.620555 7.2 
L 571.673283 7.2 
L 571.673283 34.38 
L 569.620555 34.38 
z
" clip-path="url(#p4723023ac8)" style="fill: #ffbebe"/>
    <path d="M 571.673283 34.38 
L 571.673283 7.2 
L 573.726011 7.2 
L 573.726011 34.38 
L 571.673283 34.38 
z
" clip-path="url(#p4723023ac8)" style="fill: #ffb2b2"/>
    <path d="M 573.726011 34.38 
L 573.726011 7.2 
L 575.778739 7.2 
L 575.778739 34.38 
L 573.726011 34.38 
z
" clip-path="url(#p4723023ac8)" style="fill: #ffbebe"/>
    <path d="M 575.778739 34.38 
L 575.778739 7.2 
L 577.831467 7.2 
L 577.831467 34.38 
L 575.778739 34.38 
z
" clip-path="url(#p4723023ac8)" style="fill: #c2c2ff"/>
    <path d="M 577.831467 34.38 
L 577.831467 7.2 
L 579.884195 7.2 
L 579.884195 34.38 
L 577.831467 34.38 
z
" clip-path="url(#p4723023ac8)" style="fill: #ffb6b6"/>
    <path d="M 579.884195 34.38 
L 579.884195 7.2 
L 581.936923 7.2 
L 581.936923 34.38 
L 579.884195 34.38 
z
" clip-path="url(#p4723023ac8)" style="fill: #ff0000"/>
    <path d="M 581.936923 34.38 
L 581.936923 7.2 
L 583.989651 7.2 
L 583.989651 34.38 
L 581.936923 34.38 
z
" clip-path="url(#p4723023ac8)" style="fill: #ffaaaa"/>
    <path d="M 583.989651 34.38 
L 583.989651 7.2 
L 586.042379 7.2 
L 586.042379 34.38 
L 583.989651 34.38 
z
" clip-path="url(#p4723023ac8)" style="fill: #ffc4c4"/>
    <path d="M 586.042379 34.38 
L 586.042379 7.2 
L 588.095107 7.2 
L 588.095107 34.38 
L 586.042379 34.38 
z
" clip-path="url(#p4723023ac8)" style="fill: #ff7676"/>
    <path d="M 588.095107 34.38 
L 588.095107 7.2 
L 590.147835 7.2 
L 590.147835 34.38 
L 588.095107 34.38 
z
" clip-path="url(#p4723023ac8)" style="fill: #ff8888"/>
    <path d="M 590.147835 34.38 
L 590.147835 7.2 
L 592.200563 7.2 
L 592.200563 34.38 
L 590.147835 34.38 
z
" clip-path="url(#p4723023ac8)" style="fill: #8e8eff"/>
    <path d="M 592.200563 34.38 
L 592.200563 7.2 
L 594.253291 7.2 
L 594.253291 34.38 
L 592.200563 34.38 
z
" clip-path="url(#p4723023ac8)" style="fill: #bebeff"/>
    <path d="M 594.253291 34.38 
L 594.253291 7.2 
L 596.306019 7.2 
L 596.306019 34.38 
L 594.253291 34.38 
z
" clip-path="url(#p4723023ac8)" style="fill: #ffd4d4"/>
    <path d="M 596.306019 34.38 
L 596.306019 7.2 
L 598.358747 7.2 
L 598.358747 34.38 
L 596.306019 34.38 
z
" clip-path="url(#p4723023ac8)" style="fill: #fffefe"/>
    <path d="M 598.358747 34.38 
L 598.358747 7.2 
L 600.411475 7.2 
L 600.411475 34.38 
L 598.358747 34.38 
z
" clip-path="url(#p4723023ac8)" style="fill: #e2e2ff"/>
    <path d="M 600.411475 34.38 
L 600.411475 7.2 
L 602.464203 7.2 
L 602.464203 34.38 
L 600.411475 34.38 
z
" clip-path="url(#p4723023ac8)" style="fill: #ff9696"/>
    <path d="M 602.464203 34.38 
L 602.464203 7.2 
L 604.516931 7.2 
L 604.516931 34.38 
L 602.464203 34.38 
z
" clip-path="url(#p4723023ac8)" style="fill: #fff2f2"/>
    <path d="M 604.516931 34.38 
L 604.516931 7.2 
L 606.569659 7.2 
L 606.569659 34.38 
L 604.516931 34.38 
z
" clip-path="url(#p4723023ac8)" style="fill: #ff6060"/>
    <path d="M 606.569659 34.38 
L 606.569659 7.2 
L 608.622387 7.2 
L 608.622387 34.38 
L 606.569659 34.38 
z
" clip-path="url(#p4723023ac8)" style="fill: #f2f2ff"/>
    <path d="M 608.622387 34.38 
L 608.622387 7.2 
L 610.675115 7.2 
L 610.675115 34.38 
L 608.622387 34.38 
z
" clip-path="url(#p4723023ac8)" style="fill: #ffe2e2"/>
    <path d="M 610.675115 34.38 
L 610.675115 7.2 
L 612.727843 7.2 
L 612.727843 34.38 
L 610.675115 34.38 
z
" clip-path="url(#p4723023ac8)" style="fill: #ff6060"/>
    <path d="M 612.727843 34.38 
L 612.727843 7.2 
L 614.780571 7.2 
L 614.780571 34.38 
L 612.727843 34.38 
z
" clip-path="url(#p4723023ac8)" style="fill: #ffcccc"/>
    <path d="M 614.780571 34.38 
L 614.780571 7.2 
L 616.833299 7.2 
L 616.833299 34.38 
L 614.780571 34.38 
z
" clip-path="url(#p4723023ac8)" style="fill: #ffa0a0"/>
    <path d="M 616.833299 34.38 
L 616.833299 7.2 
L 618.886027 7.2 
L 618.886027 34.38 
L 616.833299 34.38 
z
" clip-path="url(#p4723023ac8)" style="fill: #d0d0ff"/>
    <path d="M 618.886027 34.38 
L 618.886027 7.2 
L 620.938755 7.2 
L 620.938755 34.38 
L 618.886027 34.38 
z
" clip-path="url(#p4723023ac8)" style="fill: #b8b8ff"/>
    <path d="M 620.938755 34.38 
L 620.938755 7.2 
L 622.991484 7.2 
L 622.991484 34.38 
L 620.938755 34.38 
z
" clip-path="url(#p4723023ac8)" style="fill: #d6d6ff"/>
    <path d="M 622.991484 34.38 
L 622.991484 7.2 
L 625.044212 7.2 
L 625.044212 34.38 
L 622.991484 34.38 
z
" clip-path="url(#p4723023ac8)" style="fill: #c6c6ff"/>
    <path d="M 625.044212 34.38 
L 625.044212 7.2 
L 627.09694 7.2 
L 627.09694 34.38 
L 625.044212 34.38 
z
" clip-path="url(#p4723023ac8)" style="fill: #acacff"/>
    <path d="M 627.09694 34.38 
L 627.09694 7.2 
L 629.149668 7.2 
L 629.149668 34.38 
L 627.09694 34.38 
z
" clip-path="url(#p4723023ac8)" style="fill: #c2c2ff"/>
    <path d="M 629.149668 34.38 
L 629.149668 7.2 
L 631.202396 7.2 
L 631.202396 34.38 
L 629.149668 34.38 
z
" clip-path="url(#p4723023ac8)" style="fill: #c2c2ff"/>
    <path d="M 631.202396 34.38 
L 631.202396 7.2 
L 633.255124 7.2 
L 633.255124 34.38 
L 631.202396 34.38 
z
" clip-path="url(#p4723023ac8)" style="fill: #ffa2a2"/>
    <path d="M 633.255124 34.38 
L 633.255124 7.2 
L 635.307852 7.2 
L 635.307852 34.38 
L 633.255124 34.38 
z
" clip-path="url(#p4723023ac8)" style="fill: #ffa4a4"/>
    <path d="M 635.307852 34.38 
L 635.307852 7.2 
L 637.36058 7.2 
L 637.36058 34.38 
L 635.307852 34.38 
z
" clip-path="url(#p4723023ac8)" style="fill: #ffc6c6"/>
    <path d="M 637.36058 34.38 
L 637.36058 7.2 
L 639.413308 7.2 
L 639.413308 34.38 
L 637.36058 34.38 
z
" clip-path="url(#p4723023ac8)" style="fill: #ff7474"/>
    <path d="M 639.413308 34.38 
L 639.413308 7.2 
L 641.466036 7.2 
L 641.466036 34.38 
L 639.413308 34.38 
z
" clip-path="url(#p4723023ac8)" style="fill: #ffd2d2"/>
    <path d="M 641.466036 34.38 
L 641.466036 7.2 
L 643.518764 7.2 
L 643.518764 34.38 
L 641.466036 34.38 
z
" clip-path="url(#p4723023ac8)" style="fill: #ffc8c8"/>
    <path d="M 643.518764 34.38 
L 643.518764 7.2 
L 645.571492 7.2 
L 645.571492 34.38 
L 643.518764 34.38 
z
" clip-path="url(#p4723023ac8)" style="fill: #d2d2ff"/>
    <path d="M 645.571492 34.38 
L 645.571492 7.2 
L 647.62422 7.2 
L 647.62422 34.38 
L 645.571492 34.38 
z
" clip-path="url(#p4723023ac8)" style="fill: #ccccff"/>
    <path d="M 647.62422 34.38 
L 647.62422 7.2 
L 649.676948 7.2 
L 649.676948 34.38 
L 647.62422 34.38 
z
" clip-path="url(#p4723023ac8)" style="fill: #f6f6ff"/>
    <path d="M 649.676948 34.38 
L 649.676948 7.2 
L 651.729676 7.2 
L 651.729676 34.38 
L 649.676948 34.38 
z
" clip-path="url(#p4723023ac8)" style="fill: #ffdcdc"/>
    <path d="M 651.729676 34.38 
L 651.729676 7.2 
L 653.782404 7.2 
L 653.782404 34.38 
L 651.729676 34.38 
z
" clip-path="url(#p4723023ac8)" style="fill: #ffcece"/>
    <path d="M 653.782404 34.38 
L 653.782404 7.2 
L 655.835132 7.2 
L 655.835132 34.38 
L 653.782404 34.38 
z
" clip-path="url(#p4723023ac8)" style="fill: #ffd6d6"/>
    <path d="M 655.835132 34.38 
L 655.835132 7.2 
L 657.88786 7.2 
L 657.88786 34.38 
L 655.835132 34.38 
z
" clip-path="url(#p4723023ac8)" style="fill: #ffeaea"/>
    <path d="M 657.88786 34.38 
L 657.88786 7.2 
L 659.940588 7.2 
L 659.940588 34.38 
L 657.88786 34.38 
z
" clip-path="url(#p4723023ac8)" style="fill: #ff6e6e"/>
    <path d="M 659.940588 34.38 
L 659.940588 7.2 
L 661.993316 7.2 
L 661.993316 34.38 
L 659.940588 34.38 
z
" clip-path="url(#p4723023ac8)" style="fill: #ff8a8a"/>
    <path d="M 661.993316 34.38 
L 661.993316 7.2 
L 664.046044 7.2 
L 664.046044 34.38 
L 661.993316 34.38 
z
" clip-path="url(#p4723023ac8)" style="fill: #ffd0d0"/>
    <path d="M 664.046044 34.38 
L 664.046044 7.2 
L 666.098772 7.2 
L 666.098772 34.38 
L 664.046044 34.38 
z
" clip-path="url(#p4723023ac8)" style="fill: #ffcaca"/>
    <path d="M 666.098772 34.38 
L 666.098772 7.2 
L 668.1515 7.2 
L 668.1515 34.38 
L 666.098772 34.38 
z
" clip-path="url(#p4723023ac8)" style="fill: #ffd2d2"/>
    <path d="M 668.1515 34.38 
L 668.1515 7.2 
L 670.204228 7.2 
L 670.204228 34.38 
L 668.1515 34.38 
z
" clip-path="url(#p4723023ac8)" style="fill: #ff7676"/>
    <path d="M 670.204228 34.38 
L 670.204228 7.2 
L 672.256956 7.2 
L 672.256956 34.38 
L 670.204228 34.38 
z
" clip-path="url(#p4723023ac8)" style="fill: #ff8888"/>
    <path d="M 672.256956 34.38 
L 672.256956 7.2 
L 674.309684 7.2 
L 674.309684 34.38 
L 672.256956 34.38 
z
" clip-path="url(#p4723023ac8)" style="fill: #ff7474"/>
    <path d="M 674.309684 34.38 
L 674.309684 7.2 
L 676.362412 7.2 
L 676.362412 34.38 
L 674.309684 34.38 
z
" clip-path="url(#p4723023ac8)" style="fill: #ff9494"/>
    <path d="M 676.362412 34.38 
L 676.362412 7.2 
L 678.41514 7.2 
L 678.41514 34.38 
L 676.362412 34.38 
z
" clip-path="url(#p4723023ac8)" style="fill: #ff8686"/>
    <path d="M 678.41514 34.38 
L 678.41514 7.2 
L 680.467868 7.2 
L 680.467868 34.38 
L 678.41514 34.38 
z
" clip-path="url(#p4723023ac8)" style="fill: #fff4f4"/>
    <path d="M 680.467868 34.38 
L 680.467868 7.2 
L 682.520596 7.2 
L 682.520596 34.38 
L 680.467868 34.38 
z
" clip-path="url(#p4723023ac8)" style="fill: #ffd8d8"/>
    <path d="M 682.520596 34.38 
L 682.520596 7.2 
L 684.573324 7.2 
L 684.573324 34.38 
L 682.520596 34.38 
z
" clip-path="url(#p4723023ac8)" style="fill: #ffe4e4"/>
    <path d="M 684.573324 34.38 
L 684.573324 7.2 
L 686.626052 7.2 
L 686.626052 34.38 
L 684.573324 34.38 
z
" clip-path="url(#p4723023ac8)" style="fill: #ffd8d8"/>
    <path d="M 686.626052 34.38 
L 686.626052 7.2 
L 688.67878 7.2 
L 688.67878 34.38 
L 686.626052 34.38 
z
" clip-path="url(#p4723023ac8)" style="fill: #ffd4d4"/>
    <path d="M 688.67878 34.38 
L 688.67878 7.2 
L 690.731508 7.2 
L 690.731508 34.38 
L 688.67878 34.38 
z
" clip-path="url(#p4723023ac8)" style="fill: #ffa4a4"/>
    <path d="M 690.731508 34.38 
L 690.731508 7.2 
L 692.784236 7.2 
L 692.784236 34.38 
L 690.731508 34.38 
z
" clip-path="url(#p4723023ac8)" style="fill: #ffa2a2"/>
    <path d="M 692.784236 34.38 
L 692.784236 7.2 
L 694.836965 7.2 
L 694.836965 34.38 
L 692.784236 34.38 
z
" clip-path="url(#p4723023ac8)" style="fill: #aeaeff"/>
    <path d="M 694.836965 34.38 
L 694.836965 7.2 
L 696.889693 7.2 
L 696.889693 34.38 
L 694.836965 34.38 
z
" clip-path="url(#p4723023ac8)" style="fill: #ffc6c6"/>
    <path d="M 696.889693 34.38 
L 696.889693 7.2 
L 698.942421 7.2 
L 698.942421 34.38 
L 696.889693 34.38 
z
" clip-path="url(#p4723023ac8)" style="fill: #ffc0c0"/>
    <path d="M 698.942421 34.38 
L 698.942421 7.2 
L 700.995149 7.2 
L 700.995149 34.38 
L 698.942421 34.38 
z
" clip-path="url(#p4723023ac8)" style="fill: #ffc0c0"/>
    <path d="M 700.995149 34.38 
L 700.995149 7.2 
L 703.047877 7.2 
L 703.047877 34.38 
L 700.995149 34.38 
z
" clip-path="url(#p4723023ac8)" style="fill: #dadaff"/>
    <path d="M 703.047877 34.38 
L 703.047877 7.2 
L 705.100605 7.2 
L 705.100605 34.38 
L 703.047877 34.38 
z
" clip-path="url(#p4723023ac8)" style="fill: #d2d2ff"/>
    <path d="M 705.100605 34.38 
L 705.100605 7.2 
L 707.153333 7.2 
L 707.153333 34.38 
L 705.100605 34.38 
z
" clip-path="url(#p4723023ac8)" style="fill: #d6d6ff"/>
    <path d="M 707.153333 34.38 
L 707.153333 7.2 
L 709.206061 7.2 
L 709.206061 34.38 
L 707.153333 34.38 
z
" clip-path="url(#p4723023ac8)" style="fill: #dedeff"/>
    <path d="M 709.206061 34.38 
L 709.206061 7.2 
L 711.258789 7.2 
L 711.258789 34.38 
L 709.206061 34.38 
z
" clip-path="url(#p4723023ac8)" style="fill: #e0e0ff"/>
    <path d="M 711.258789 34.38 
L 711.258789 7.2 
L 713.311517 7.2 
L 713.311517 34.38 
L 711.258789 34.38 
z
" clip-path="url(#p4723023ac8)" style="fill: #e0e0ff"/>
    <path d="M 713.311517 34.38 
L 713.311517 7.2 
L 715.364245 7.2 
L 715.364245 34.38 
L 713.311517 34.38 
z
" clip-path="url(#p4723023ac8)" style="fill: #ffecec"/>
    <path d="M 715.364245 34.38 
L 715.364245 7.2 
L 717.416973 7.2 
L 717.416973 34.38 
L 715.364245 34.38 
z
" clip-path="url(#p4723023ac8)" style="fill: #fff0f0"/>
    <path d="M 717.416973 34.38 
L 717.416973 7.2 
L 719.469701 7.2 
L 719.469701 34.38 
L 717.416973 34.38 
z
" clip-path="url(#p4723023ac8)" style="fill: #ffeaea"/>
    <path d="M 719.469701 34.38 
L 719.469701 7.2 
L 721.522429 7.2 
L 721.522429 34.38 
L 719.469701 34.38 
z
" clip-path="url(#p4723023ac8)" style="fill: #aeaeff"/>
    <path d="M 721.522429 34.38 
L 721.522429 7.2 
L 723.575157 7.2 
L 723.575157 34.38 
L 721.522429 34.38 
z
" clip-path="url(#p4723023ac8)" style="fill: #e4e4ff"/>
    <path d="M 723.575157 34.38 
L 723.575157 7.2 
L 725.627885 7.2 
L 725.627885 34.38 
L 723.575157 34.38 
z
" clip-path="url(#p4723023ac8)" style="fill: #e0e0ff"/>
    <path d="M 725.627885 34.38 
L 725.627885 7.2 
L 727.680613 7.2 
L 727.680613 34.38 
L 725.627885 34.38 
z
" clip-path="url(#p4723023ac8)" style="fill: #e0e0ff"/>
    <path d="M 727.680613 34.38 
L 727.680613 7.2 
L 729.733341 7.2 
L 729.733341 34.38 
L 727.680613 34.38 
z
" clip-path="url(#p4723023ac8)" style="fill: #eaeaff"/>
    <path d="M 729.733341 34.38 
L 729.733341 7.2 
L 731.786069 7.2 
L 731.786069 34.38 
L 729.733341 34.38 
z
" clip-path="url(#p4723023ac8)" style="fill: #d2d2ff"/>
    <path d="M 731.786069 34.38 
L 731.786069 7.2 
L 733.838797 7.2 
L 733.838797 34.38 
L 731.786069 34.38 
z
" clip-path="url(#p4723023ac8)" style="fill: #d0d0ff"/>
    <path d="M 733.838797 34.38 
L 733.838797 7.2 
L 735.891525 7.2 
L 735.891525 34.38 
L 733.838797 34.38 
z
" clip-path="url(#p4723023ac8)" style="fill: #d0d0ff"/>
    <path d="M 735.891525 34.38 
L 735.891525 7.2 
L 737.944253 7.2 
L 737.944253 34.38 
L 735.891525 34.38 
z
" clip-path="url(#p4723023ac8)" style="fill: #b6b6ff"/>
    <path d="M 737.944253 34.38 
L 737.944253 7.2 
L 739.996981 7.2 
L 739.996981 34.38 
L 737.944253 34.38 
z
" clip-path="url(#p4723023ac8)" style="fill: #b2b2ff"/>
    <path d="M 739.996981 34.38 
L 739.996981 7.2 
L 742.049709 7.2 
L 742.049709 34.38 
L 739.996981 34.38 
z
" clip-path="url(#p4723023ac8)" style="fill: #b4b4ff"/>
    <path d="M 742.049709 34.38 
L 742.049709 7.2 
L 744.102437 7.2 
L 744.102437 34.38 
L 742.049709 34.38 
z
" clip-path="url(#p4723023ac8)" style="fill: #e6e6ff"/>
    <path d="M 744.102437 34.38 
L 744.102437 7.2 
L 746.155165 7.2 
L 746.155165 34.38 
L 744.102437 34.38 
z
" clip-path="url(#p4723023ac8)" style="fill: #e0e0ff"/>
    <path d="M 746.155165 34.38 
L 746.155165 7.2 
L 748.207893 7.2 
L 748.207893 34.38 
L 746.155165 34.38 
z
" clip-path="url(#p4723023ac8)" style="fill: #dedeff"/>
    <path d="M 748.207893 34.38 
L 748.207893 7.2 
L 750.260621 7.2 
L 750.260621 34.38 
L 748.207893 34.38 
z
" clip-path="url(#p4723023ac8)" style="fill: #ff5252"/>
    <path d="M 750.260621 34.38 
L 750.260621 7.2 
L 752.313349 7.2 
L 752.313349 34.38 
L 750.260621 34.38 
z
" clip-path="url(#p4723023ac8)" style="fill: #ff4c4c"/>
    <path d="M 752.313349 34.38 
L 752.313349 7.2 
L 754.366077 7.2 
L 754.366077 34.38 
L 752.313349 34.38 
z
" clip-path="url(#p4723023ac8)" style="fill: #ff5858"/>
    <path d="M 754.366077 34.38 
L 754.366077 7.2 
L 756.418805 7.2 
L 756.418805 34.38 
L 754.366077 34.38 
z
" clip-path="url(#p4723023ac8)" style="fill: #f6f6ff"/>
    <path d="M 756.418805 34.38 
L 756.418805 7.2 
L 758.471533 7.2 
L 758.471533 34.38 
L 756.418805 34.38 
z
" clip-path="url(#p4723023ac8)" style="fill: #ffd2d2"/>
    <path d="M 758.471533 34.38 
L 758.471533 7.2 
L 760.524261 7.2 
L 760.524261 34.38 
L 758.471533 34.38 
z
" clip-path="url(#p4723023ac8)" style="fill: #ffcece"/>
    <path d="M 760.524261 34.38 
L 760.524261 7.2 
L 762.576989 7.2 
L 762.576989 34.38 
L 760.524261 34.38 
z
" clip-path="url(#p4723023ac8)" style="fill: #ffd0d0"/>
    <path d="M 762.576989 34.38 
L 762.576989 7.2 
L 764.629717 7.2 
L 764.629717 34.38 
L 762.576989 34.38 
z
" clip-path="url(#p4723023ac8)" style="fill: #ff5a5a"/>
    <path d="M 764.629717 34.38 
L 764.629717 7.2 
L 766.682445 7.2 
L 766.682445 34.38 
L 764.629717 34.38 
z
" clip-path="url(#p4723023ac8)" style="fill: #ff6e6e"/>
    <path d="M 766.682445 34.38 
L 766.682445 7.2 
L 768.735174 7.2 
L 768.735174 34.38 
L 766.682445 34.38 
z
" clip-path="url(#p4723023ac8)" style="fill: #ff6868"/>
    <path d="M 768.735174 34.38 
L 768.735174 7.2 
L 770.787902 7.2 
L 770.787902 34.38 
L 768.735174 34.38 
z
" clip-path="url(#p4723023ac8)" style="fill: #ffc0c0"/>
    <path d="M 770.787902 34.38 
L 770.787902 7.2 
L 772.84063 7.2 
L 772.84063 34.38 
L 770.787902 34.38 
z
" clip-path="url(#p4723023ac8)" style="fill: #ffcaca"/>
    <path d="M 772.84063 34.38 
L 772.84063 7.2 
L 774.893358 7.2 
L 774.893358 34.38 
L 772.84063 34.38 
z
" clip-path="url(#p4723023ac8)" style="fill: #ffcccc"/>
    <path d="M 774.893358 34.38 
L 774.893358 7.2 
L 776.946086 7.2 
L 776.946086 34.38 
L 774.893358 34.38 
z
" clip-path="url(#p4723023ac8)" style="fill: #9292ff"/>
    <path d="M 776.946086 34.38 
L 776.946086 7.2 
L 778.998814 7.2 
L 778.998814 34.38 
L 776.946086 34.38 
z
" clip-path="url(#p4723023ac8)" style="fill: #aaaaff"/>
    <path d="M 778.998814 34.38 
L 778.998814 7.2 
L 781.051542 7.2 
L 781.051542 34.38 
L 778.998814 34.38 
z
" clip-path="url(#p4723023ac8)" style="fill: #d6d6ff"/>
    <path d="M 781.051542 34.38 
L 781.051542 7.2 
L 783.10427 7.2 
L 783.10427 34.38 
L 781.051542 34.38 
z
" clip-path="url(#p4723023ac8)" style="fill: #0000ff"/>
    <path d="M 783.10427 34.38 
L 783.10427 7.2 
L 785.156998 7.2 
L 785.156998 34.38 
L 783.10427 34.38 
z
" clip-path="url(#p4723023ac8)" style="fill: #9a9aff"/>
    <path d="M 785.156998 34.38 
L 785.156998 7.2 
L 787.209726 7.2 
L 787.209726 34.38 
L 785.156998 34.38 
z
" clip-path="url(#p4723023ac8)" style="fill: #c8c8ff"/>
    <path d="M 787.209726 34.38 
L 787.209726 7.2 
L 789.262454 7.2 
L 789.262454 34.38 
L 787.209726 34.38 
z
" clip-path="url(#p4723023ac8)" style="fill: #d2d2ff"/>
    <path d="M 789.262454 34.38 
L 789.262454 7.2 
L 791.315182 7.2 
L 791.315182 34.38 
L 789.262454 34.38 
z
" clip-path="url(#p4723023ac8)" style="fill: #ffd6d6"/>
    <path d="M 791.315182 34.38 
L 791.315182 7.2 
L 793.36791 7.2 
L 793.36791 34.38 
L 791.315182 34.38 
z
" clip-path="url(#p4723023ac8)" style="fill: #dedeff"/>
    <path d="M 793.36791 34.38 
L 793.36791 7.2 
L 795.420638 7.2 
L 795.420638 34.38 
L 793.36791 34.38 
z
" clip-path="url(#p4723023ac8)" style="fill: #7a7aff"/>
    <path d="M 795.420638 34.38 
L 795.420638 7.2 
L 797.473366 7.2 
L 797.473366 34.38 
L 795.420638 34.38 
z
" clip-path="url(#p4723023ac8)" style="fill: #ff9090"/>
    <path d="M 797.473366 34.38 
L 797.473366 7.2 
L 799.526094 7.2 
L 799.526094 34.38 
L 797.473366 34.38 
z
" clip-path="url(#p4723023ac8)" style="fill: #6e6eff"/>
    <path d="M 799.526094 34.38 
L 799.526094 7.2 
L 801.578822 7.2 
L 801.578822 34.38 
L 799.526094 34.38 
z
" clip-path="url(#p4723023ac8)" style="fill: #ffdcdc"/>
    <path d="M 801.578822 34.38 
L 801.578822 7.2 
L 803.63155 7.2 
L 803.63155 34.38 
L 801.578822 34.38 
z
" clip-path="url(#p4723023ac8)" style="fill: #ff7676"/>
    <path d="M 803.63155 34.38 
L 803.63155 7.2 
L 805.684278 7.2 
L 805.684278 34.38 
L 803.63155 34.38 
z
" clip-path="url(#p4723023ac8)" style="fill: #ffa4a4"/>
    <path d="M 805.684278 34.38 
L 805.684278 7.2 
L 807.737006 7.2 
L 807.737006 34.38 
L 805.684278 34.38 
z
" clip-path="url(#p4723023ac8)" style="fill: #ff1212"/>
    <path d="M 807.737006 34.38 
L 807.737006 7.2 
L 809.789734 7.2 
L 809.789734 34.38 
L 807.737006 34.38 
z
" clip-path="url(#p4723023ac8)" style="fill: #ffb4b4"/>
    <path d="M 809.789734 34.38 
L 809.789734 7.2 
L 811.842462 7.2 
L 811.842462 34.38 
L 809.789734 34.38 
z
" clip-path="url(#p4723023ac8)" style="fill: #ffbaba"/>
    <path d="M 811.842462 34.38 
L 811.842462 7.2 
L 813.89519 7.2 
L 813.89519 34.38 
L 811.842462 34.38 
z
" clip-path="url(#p4723023ac8)" style="fill: #ff6868"/>
    <path d="M 813.89519 34.38 
L 813.89519 7.2 
L 815.947918 7.2 
L 815.947918 34.38 
L 813.89519 34.38 
z
" clip-path="url(#p4723023ac8)" style="fill: #ffe2e2"/>
    <path d="M 815.947918 34.38 
L 815.947918 7.2 
L 818.000646 7.2 
L 818.000646 34.38 
L 815.947918 34.38 
z
" clip-path="url(#p4723023ac8)" style="fill: #ff6868"/>
    <path d="M 818.000646 34.38 
L 818.000646 7.2 
L 820.053374 7.2 
L 820.053374 34.38 
L 818.000646 34.38 
z
" clip-path="url(#p4723023ac8)" style="fill: #ffa0a0"/>
    <path d="M 820.053374 34.38 
L 820.053374 7.2 
L 822.106102 7.2 
L 822.106102 34.38 
L 820.053374 34.38 
z
" clip-path="url(#p4723023ac8)" style="fill: #ffa4a4"/>
    <path d="M 822.106102 34.38 
L 822.106102 7.2 
L 824.15883 7.2 
L 824.15883 34.38 
L 822.106102 34.38 
z
" clip-path="url(#p4723023ac8)" style="fill: #ffbaba"/>
    <path d="M 824.15883 34.38 
L 824.15883 7.2 
L 826.211558 7.2 
L 826.211558 34.38 
L 824.15883 34.38 
z
" clip-path="url(#p4723023ac8)" style="fill: #ffc8c8"/>
    <path d="M 826.211558 34.38 
L 826.211558 7.2 
L 828.264286 7.2 
L 828.264286 34.38 
L 826.211558 34.38 
z
" clip-path="url(#p4723023ac8)" style="fill: #ffcaca"/>
    <path d="M 828.264286 34.38 
L 828.264286 7.2 
L 830.317014 7.2 
L 830.317014 34.38 
L 828.264286 34.38 
z
" clip-path="url(#p4723023ac8)" style="fill: #d2d2ff"/>
    <path d="M 830.317014 34.38 
L 830.317014 7.2 
L 832.369742 7.2 
L 832.369742 34.38 
L 830.317014 34.38 
z
" clip-path="url(#p4723023ac8)" style="fill: #ffb6b6"/>
    <path d="M 832.369742 34.38 
L 832.369742 7.2 
L 834.42247 7.2 
L 834.42247 34.38 
L 832.369742 34.38 
z
" clip-path="url(#p4723023ac8)" style="fill: #ffa6a6"/>
    <path d="M 834.42247 34.38 
L 834.42247 7.2 
L 836.475198 7.2 
L 836.475198 34.38 
L 834.42247 34.38 
z
" clip-path="url(#p4723023ac8)" style="fill: #ff7a7a"/>
    <path d="M 836.475198 34.38 
L 836.475198 7.2 
L 838.527926 7.2 
L 838.527926 34.38 
L 836.475198 34.38 
z
" clip-path="url(#p4723023ac8)" style="fill: #b8b8ff"/>
    <path d="M 838.527926 34.38 
L 838.527926 7.2 
L 840.580654 7.2 
L 840.580654 34.38 
L 838.527926 34.38 
z
" clip-path="url(#p4723023ac8)" style="fill: #babaff"/>
    <path d="M 840.580654 34.38 
L 840.580654 7.2 
L 842.633383 7.2 
L 842.633383 34.38 
L 840.580654 34.38 
z
" clip-path="url(#p4723023ac8)" style="fill: #ffcccc"/>
    <path d="M 842.633383 34.38 
L 842.633383 7.2 
L 844.686111 7.2 
L 844.686111 34.38 
L 842.633383 34.38 
z
" clip-path="url(#p4723023ac8)" style="fill: #ff7c7c"/>
    <path d="M 844.686111 34.38 
L 844.686111 7.2 
L 846.738839 7.2 
L 846.738839 34.38 
L 844.686111 34.38 
z
" clip-path="url(#p4723023ac8)" style="fill: #ff2626"/>
    <path d="M 846.738839 34.38 
L 846.738839 7.2 
L 848.791567 7.2 
L 848.791567 34.38 
L 846.738839 34.38 
z
" clip-path="url(#p4723023ac8)" style="fill: #6666ff"/>
    <path d="M 848.791567 34.38 
L 848.791567 7.2 
L 850.844295 7.2 
L 850.844295 34.38 
L 848.791567 34.38 
z
" clip-path="url(#p4723023ac8)" style="fill: #8e8eff"/>
    <path d="M 850.844295 34.38 
L 850.844295 7.2 
L 852.897023 7.2 
L 852.897023 34.38 
L 850.844295 34.38 
z
" clip-path="url(#p4723023ac8)" style="fill: #7c7cff"/>
    <path d="M 852.897023 34.38 
L 852.897023 7.2 
L 854.949751 7.2 
L 854.949751 34.38 
L 852.897023 34.38 
z
" clip-path="url(#p4723023ac8)" style="fill: #7c7cff"/>
    <path d="M 854.949751 34.38 
L 854.949751 7.2 
L 857.002479 7.2 
L 857.002479 34.38 
L 854.949751 34.38 
z
" clip-path="url(#p4723023ac8)" style="fill: #ff2a2a"/>
    <path d="M 857.002479 34.38 
L 857.002479 7.2 
L 859.055207 7.2 
L 859.055207 34.38 
L 857.002479 34.38 
z
" clip-path="url(#p4723023ac8)" style="fill: #ff5252"/>
    <path d="M 859.055207 34.38 
L 859.055207 7.2 
L 861.107935 7.2 
L 861.107935 34.38 
L 859.055207 34.38 
z
" clip-path="url(#p4723023ac8)" style="fill: #fff0f0"/>
    <path d="M 861.107935 34.38 
L 861.107935 7.2 
L 863.160663 7.2 
L 863.160663 34.38 
L 861.107935 34.38 
z
" clip-path="url(#p4723023ac8)" style="fill: #ffe2e2"/>
    <path d="M 863.160663 34.38 
L 863.160663 7.2 
L 865.213391 7.2 
L 865.213391 34.38 
L 863.160663 34.38 
z
" clip-path="url(#p4723023ac8)" style="fill: #ffb0b0"/>
    <path d="M 865.213391 34.38 
L 865.213391 7.2 
L 867.266119 7.2 
L 867.266119 34.38 
L 865.213391 34.38 
z
" clip-path="url(#p4723023ac8)" style="fill: #ff4242"/>
    <path d="M 867.266119 34.38 
L 867.266119 7.2 
L 869.318847 7.2 
L 869.318847 34.38 
L 867.266119 34.38 
z
" clip-path="url(#p4723023ac8)" style="fill: #ff7272"/>
    <path d="M 869.318847 34.38 
L 869.318847 7.2 
L 871.371575 7.2 
L 871.371575 34.38 
L 869.318847 34.38 
z
" clip-path="url(#p4723023ac8)" style="fill: #ffc8c8"/>
    <path d="M 871.371575 34.38 
L 871.371575 7.2 
L 873.424303 7.2 
L 873.424303 34.38 
L 871.371575 34.38 
z
" clip-path="url(#p4723023ac8)" style="fill: #ffd2d2"/>
    <path d="M 873.424303 34.38 
L 873.424303 7.2 
L 875.477031 7.2 
L 875.477031 34.38 
L 873.424303 34.38 
z
" clip-path="url(#p4723023ac8)" style="fill: #b6b6ff"/>
    <path d="M 875.477031 34.38 
L 875.477031 7.2 
L 877.529759 7.2 
L 877.529759 34.38 
L 875.477031 34.38 
z
" clip-path="url(#p4723023ac8)" style="fill: #6666ff"/>
    <path d="M 877.529759 34.38 
L 877.529759 7.2 
L 879.582487 7.2 
L 879.582487 34.38 
L 877.529759 34.38 
z
" clip-path="url(#p4723023ac8)" style="fill: #9090ff"/>
    <path d="M 879.582487 34.38 
L 879.582487 7.2 
L 881.635215 7.2 
L 881.635215 34.38 
L 879.582487 34.38 
z
" clip-path="url(#p4723023ac8)" style="fill: #d2d2ff"/>
    <path d="M 881.635215 34.38 
L 881.635215 7.2 
L 883.687943 7.2 
L 883.687943 34.38 
L 881.635215 34.38 
z
" clip-path="url(#p4723023ac8)" style="fill: #c8c8ff"/>
    <path d="M 883.687943 34.38 
L 883.687943 7.2 
L 885.740671 7.2 
L 885.740671 34.38 
L 883.687943 34.38 
z
" clip-path="url(#p4723023ac8)" style="fill: #ccccff"/>
    <path d="M 885.740671 34.38 
L 885.740671 7.2 
L 887.793399 7.2 
L 887.793399 34.38 
L 885.740671 34.38 
z
" clip-path="url(#p4723023ac8)" style="fill: #ff6666"/>
    <path d="M 887.793399 34.38 
L 887.793399 7.2 
L 889.846127 7.2 
L 889.846127 34.38 
L 887.793399 34.38 
z
" clip-path="url(#p4723023ac8)" style="fill: #ff8484"/>
    <path d="M 889.846127 34.38 
L 889.846127 7.2 
L 891.898855 7.2 
L 891.898855 34.38 
L 889.846127 34.38 
z
" clip-path="url(#p4723023ac8)" style="fill: #ffb8b8"/>
    <path d="M 891.898855 34.38 
L 891.898855 7.2 
L 893.951583 7.2 
L 893.951583 34.38 
L 891.898855 34.38 
z
" clip-path="url(#p4723023ac8)" style="fill: #5656ff"/>
    <path d="M 893.951583 34.38 
L 893.951583 7.2 
L 896.004311 7.2 
L 896.004311 34.38 
L 893.951583 34.38 
z
" clip-path="url(#p4723023ac8)" style="fill: #8c8cff"/>
    <path d="M 896.004311 34.38 
L 896.004311 7.2 
L 898.057039 7.2 
L 898.057039 34.38 
L 896.004311 34.38 
z
" clip-path="url(#p4723023ac8)" style="fill: #ffa6a6"/>
    <path d="M 898.057039 34.38 
L 898.057039 7.2 
L 900.109767 7.2 
L 900.109767 34.38 
L 898.057039 34.38 
z
" clip-path="url(#p4723023ac8)" style="fill: #ffa4a4"/>
    <path d="M 900.109767 34.38 
L 900.109767 7.2 
L 902.162495 7.2 
L 902.162495 34.38 
L 900.109767 34.38 
z
" clip-path="url(#p4723023ac8)" style="fill: #ffa8a8"/>
    <path d="M 902.162495 34.38 
L 902.162495 7.2 
L 904.215223 7.2 
L 904.215223 34.38 
L 902.162495 34.38 
z
" clip-path="url(#p4723023ac8)" style="fill: #ffdcdc"/>
    <path d="M 904.215223 34.38 
L 904.215223 7.2 
L 906.267951 7.2 
L 906.267951 34.38 
L 904.215223 34.38 
z
" clip-path="url(#p4723023ac8)" style="fill: #ffd0d0"/>
    <path d="M 906.267951 34.38 
L 906.267951 7.2 
L 908.320679 7.2 
L 908.320679 34.38 
L 906.267951 34.38 
z
" clip-path="url(#p4723023ac8)" style="fill: #ffdada"/>
   </g>
   <g id="patch_3">
    <path d="M 142.653125 34.38 
L 142.653125 7.2 
" style="fill: none; stroke: #262626; stroke-width: 1.25; stroke-linejoin: miter; stroke-linecap: square"/>
   </g>
   <g id="patch_4">
    <path d="M 908.320679 34.38 
L 908.320679 7.2 
" style="fill: none; stroke: #262626; stroke-width: 1.25; stroke-linejoin: miter; stroke-linecap: square"/>
   </g>
   <g id="patch_5">
    <path d="M 142.653125 34.38 
L 908.320679 34.38 
" style="fill: none; stroke: #262626; stroke-width: 1.25; stroke-linejoin: miter; stroke-linecap: square"/>
   </g>
   <g id="patch_6">
    <path d="M 142.653125 7.2 
L 908.320679 7.2 
" style="fill: none; stroke: #262626; stroke-width: 1.25; stroke-linejoin: miter; stroke-linecap: square"/>
   </g>
   <g id="text_6">
    <text style="fill: #262626; font: 18px 'sans-serif'; text-anchor: middle" x="319.187735" y="64.278" transform="rotate(-0, 319.187735, 64.278)">Cells</text>
   </g>
   <g id="text_7">
    <text style="fill: #262626; font: 18px 'sans-serif'; text-anchor: middle" x="635.307852" y="64.278" transform="rotate(-0, 635.307852, 64.278)">Cytoplasm</text>
   </g>
   <g id="text_8">
    <text style="fill: #262626; font: 18px 'sans-serif'; text-anchor: middle" x="842.633383" y="64.278" transform="rotate(-0, 842.633383, 64.278)">Nuclei</text>
   </g>
  </g>
 </g>
 <defs>
  <clipPath id="p4723023ac8">
   <rect x="142.653125" y="7.2" width="765.667554" height="27.18"/>
  </clipPath>
 </defs>
</svg>
