<?xml version="1.0" encoding="utf-8" standalone="no"?>
<!DOCTYPE svg PUBLIC "-//W3C//DTD SVG 1.1//EN"
  "http://www.w3.org/Graphics/SVG/1.1/DTD/svg11.dtd">
<svg xmlns:xlink="http://www.w3.org/1999/xlink" width="1043.730943pt" height="75.266437pt" viewBox="0 0 1043.730943 75.266437" xmlns="http://www.w3.org/2000/svg" version="1.1">
 <metadata>
  <rdf:RDF xmlns:dc="http://purl.org/dc/elements/1.1/" xmlns:cc="http://creativecommons.org/ns#" xmlns:rdf="http://www.w3.org/1999/02/22-rdf-syntax-ns#">
   <cc:Work>
    <dc:type rdf:resource="http://purl.org/dc/dcmitype/StillImage"/>
    <dc:date>2022-05-11T11:53:56.865186</dc:date>
    <dc:format>image/svg+xml</dc:format>
    <dc:creator>
     <cc:Agent>
      <dc:title>Matplotlib v3.5.1, https://matplotlib.org/</dc:title>
     </cc:Agent>
    </dc:creator>
   </cc:Work>
  </rdf:RDF>
 </metadata>
 <defs>
  <style type="text/css">*{stroke-linejoin: round; stroke-linecap: butt}</style>
 </defs>
 <g id="figure_1">
  <g id="patch_1">
   <path d="M 0 75.266437 
L 1043.730943 75.266437 
L 1043.730943 0 
L 0 0 
z
" style="fill: #ffffff"/>
  </g>
  <g id="axes_1">
   <g id="patch_2">
    <path d="M 55.196875 34.38 
L 1024.018834 34.38 
L 1024.018834 7.2 
L 55.196875 7.2 
z
" style="fill: #ffffff"/>
   </g>
   <g id="matplotlib.axis_1">
    <g id="xtick_1">
     <g id="line2d_1"/>
     <g id="text_1">
      <!-- 1 -->
      <g style="fill: #262626" transform="translate(52.975512 54.216719)scale(0.15 -0.15)">
       <defs>
        <path id="ArialMT-31" d="M 2384 0 
L 1822 0 
L 1822 3584 
Q 1619 3391 1289 3197 
Q 959 3003 697 2906 
L 697 3450 
Q 1169 3672 1522 3987 
Q 1875 4303 2022 4600 
L 2384 4600 
L 2384 0 
z
" transform="scale(0.015625)"/>
       </defs>
       <use xlink:href="#ArialMT-31"/>
      </g>
     </g>
    </g>
    <g id="xtick_2">
     <g id="line2d_2"/>
     <g id="text_2">
      <!-- 184 -->
      <g style="fill: #262626" transform="translate(401.363318 54.216719)scale(0.15 -0.15)">
       <defs>
        <path id="ArialMT-38" d="M 1131 2484 
Q 781 2613 612 2850 
Q 444 3088 444 3419 
Q 444 3919 803 4259 
Q 1163 4600 1759 4600 
Q 2359 4600 2725 4251 
Q 3091 3903 3091 3403 
Q 3091 3084 2923 2848 
Q 2756 2613 2416 2484 
Q 2838 2347 3058 2040 
Q 3278 1734 3278 1309 
Q 3278 722 2862 322 
Q 2447 -78 1769 -78 
Q 1091 -78 675 323 
Q 259 725 259 1325 
Q 259 1772 486 2073 
Q 713 2375 1131 2484 
z
M 1019 3438 
Q 1019 3113 1228 2906 
Q 1438 2700 1772 2700 
Q 2097 2700 2305 2904 
Q 2513 3109 2513 3406 
Q 2513 3716 2298 3927 
Q 2084 4138 1766 4138 
Q 1444 4138 1231 3931 
Q 1019 3725 1019 3438 
z
M 838 1322 
Q 838 1081 952 856 
Q 1066 631 1291 507 
Q 1516 384 1775 384 
Q 2178 384 2440 643 
Q 2703 903 2703 1303 
Q 2703 1709 2433 1975 
Q 2163 2241 1756 2241 
Q 1359 2241 1098 1978 
Q 838 1716 838 1322 
z
" transform="scale(0.015625)"/>
        <path id="ArialMT-34" d="M 2069 0 
L 2069 1097 
L 81 1097 
L 81 1613 
L 2172 4581 
L 2631 4581 
L 2631 1613 
L 3250 1613 
L 3250 1097 
L 2631 1097 
L 2631 0 
L 2069 0 
z
M 2069 1613 
L 2069 3678 
L 634 1613 
L 2069 1613 
z
" transform="scale(0.015625)"/>
       </defs>
       <use xlink:href="#ArialMT-31"/>
       <use xlink:href="#ArialMT-38" x="55.615234"/>
       <use xlink:href="#ArialMT-34" x="111.230469"/>
      </g>
     </g>
    </g>
    <g id="xtick_3">
     <g id="line2d_3"/>
     <g id="text_3">
      <!-- 392 -->
      <g style="fill: #262626" transform="translate(806.826029 54.216719)scale(0.15 -0.15)">
       <defs>
        <path id="ArialMT-33" d="M 269 1209 
L 831 1284 
Q 928 806 1161 595 
Q 1394 384 1728 384 
Q 2125 384 2398 659 
Q 2672 934 2672 1341 
Q 2672 1728 2419 1979 
Q 2166 2231 1775 2231 
Q 1616 2231 1378 2169 
L 1441 2663 
Q 1497 2656 1531 2656 
Q 1891 2656 2178 2843 
Q 2466 3031 2466 3422 
Q 2466 3731 2256 3934 
Q 2047 4138 1716 4138 
Q 1388 4138 1169 3931 
Q 950 3725 888 3313 
L 325 3413 
Q 428 3978 793 4289 
Q 1159 4600 1703 4600 
Q 2078 4600 2393 4439 
Q 2709 4278 2876 4000 
Q 3044 3722 3044 3409 
Q 3044 3113 2884 2869 
Q 2725 2625 2413 2481 
Q 2819 2388 3044 2092 
Q 3269 1797 3269 1353 
Q 3269 753 2831 336 
Q 2394 -81 1725 -81 
Q 1122 -81 723 278 
Q 325 638 269 1209 
z
" transform="scale(0.015625)"/>
        <path id="ArialMT-39" d="M 350 1059 
L 891 1109 
Q 959 728 1153 556 
Q 1347 384 1650 384 
Q 1909 384 2104 503 
Q 2300 622 2425 820 
Q 2550 1019 2634 1356 
Q 2719 1694 2719 2044 
Q 2719 2081 2716 2156 
Q 2547 1888 2255 1720 
Q 1963 1553 1622 1553 
Q 1053 1553 659 1965 
Q 266 2378 266 3053 
Q 266 3750 677 4175 
Q 1088 4600 1706 4600 
Q 2153 4600 2523 4359 
Q 2894 4119 3086 3673 
Q 3278 3228 3278 2384 
Q 3278 1506 3087 986 
Q 2897 466 2520 194 
Q 2144 -78 1638 -78 
Q 1100 -78 759 220 
Q 419 519 350 1059 
z
M 2653 3081 
Q 2653 3566 2395 3850 
Q 2138 4134 1775 4134 
Q 1400 4134 1122 3828 
Q 844 3522 844 3034 
Q 844 2597 1108 2323 
Q 1372 2050 1759 2050 
Q 2150 2050 2401 2323 
Q 2653 2597 2653 3081 
z
" transform="scale(0.015625)"/>
        <path id="ArialMT-32" d="M 3222 541 
L 3222 0 
L 194 0 
Q 188 203 259 391 
Q 375 700 629 1000 
Q 884 1300 1366 1694 
Q 2113 2306 2375 2664 
Q 2638 3022 2638 3341 
Q 2638 3675 2398 3904 
Q 2159 4134 1775 4134 
Q 1369 4134 1125 3890 
Q 881 3647 878 3216 
L 300 3275 
Q 359 3922 746 4261 
Q 1134 4600 1788 4600 
Q 2447 4600 2831 4234 
Q 3216 3869 3216 3328 
Q 3216 3053 3103 2787 
Q 2991 2522 2730 2228 
Q 2469 1934 1863 1422 
Q 1356 997 1212 845 
Q 1069 694 975 541 
L 3222 541 
z
" transform="scale(0.015625)"/>
       </defs>
       <use xlink:href="#ArialMT-33"/>
       <use xlink:href="#ArialMT-39" x="55.615234"/>
       <use xlink:href="#ArialMT-32" x="111.230469"/>
      </g>
     </g>
    </g>
    <g id="xtick_4">
     <g id="line2d_4"/>
     <g id="text_4">
      <!-- 497 -->
      <g style="fill: #262626" transform="translate(1011.506724 54.216719)scale(0.15 -0.15)">
       <defs>
        <path id="ArialMT-37" d="M 303 3981 
L 303 4522 
L 3269 4522 
L 3269 4084 
Q 2831 3619 2401 2847 
Q 1972 2075 1738 1259 
Q 1569 684 1522 0 
L 944 0 
Q 953 541 1156 1306 
Q 1359 2072 1739 2783 
Q 2119 3494 2547 3981 
L 303 3981 
z
" transform="scale(0.015625)"/>
       </defs>
       <use xlink:href="#ArialMT-34"/>
       <use xlink:href="#ArialMT-39" x="55.615234"/>
       <use xlink:href="#ArialMT-37" x="111.230469"/>
      </g>
     </g>
    </g>
   </g>
   <g id="matplotlib.axis_2">
    <g id="ytick_1">
     <g id="line2d_5"/>
     <g id="text_5">
      <!-- BET -->
      <g style="fill: #262626" transform="translate(7.2 27.947812)scale(0.2 -0.2)">
       <defs>
        <path id="ArialMT-42" d="M 469 0 
L 469 4581 
L 2188 4581 
Q 2713 4581 3030 4442 
Q 3347 4303 3526 4014 
Q 3706 3725 3706 3409 
Q 3706 3116 3547 2856 
Q 3388 2597 3066 2438 
Q 3481 2316 3704 2022 
Q 3928 1728 3928 1328 
Q 3928 1006 3792 729 
Q 3656 453 3456 303 
Q 3256 153 2954 76 
Q 2653 0 2216 0 
L 469 0 
z
M 1075 2656 
L 2066 2656 
Q 2469 2656 2644 2709 
Q 2875 2778 2992 2937 
Q 3109 3097 3109 3338 
Q 3109 3566 3000 3739 
Q 2891 3913 2687 3977 
Q 2484 4041 1991 4041 
L 1075 4041 
L 1075 2656 
z
M 1075 541 
L 2216 541 
Q 2509 541 2628 563 
Q 2838 600 2978 687 
Q 3119 775 3209 942 
Q 3300 1109 3300 1328 
Q 3300 1584 3169 1773 
Q 3038 1963 2805 2039 
Q 2572 2116 2134 2116 
L 1075 2116 
L 1075 541 
z
" transform="scale(0.015625)"/>
        <path id="ArialMT-45" d="M 506 0 
L 506 4581 
L 3819 4581 
L 3819 4041 
L 1113 4041 
L 1113 2638 
L 3647 2638 
L 3647 2100 
L 1113 2100 
L 1113 541 
L 3925 541 
L 3925 0 
L 506 0 
z
" transform="scale(0.015625)"/>
        <path id="ArialMT-54" d="M 1659 0 
L 1659 4041 
L 150 4041 
L 150 4581 
L 3781 4581 
L 3781 4041 
L 2266 4041 
L 2266 0 
L 1659 0 
z
" transform="scale(0.015625)"/>
       </defs>
       <use xlink:href="#ArialMT-42"/>
       <use xlink:href="#ArialMT-45" x="66.699219"/>
       <use xlink:href="#ArialMT-54" x="133.398438"/>
      </g>
     </g>
    </g>
   </g>
   <g id="PolyCollection_1">
    <path d="M 55.196875 34.38 
L 55.196875 7.2 
L 57.146215 7.2 
L 57.146215 34.38 
L 55.196875 34.38 
z
" clip-path="url(#p93c748c3db)" style="fill: #3a3aff"/>
    <path d="M 57.146215 34.38 
L 57.146215 7.2 
L 59.095555 7.2 
L 59.095555 34.38 
L 57.146215 34.38 
z
" clip-path="url(#p93c748c3db)" style="fill: #6c6cff"/>
    <path d="M 59.095555 34.38 
L 59.095555 7.2 
L 61.044895 7.2 
L 61.044895 34.38 
L 59.095555 34.38 
z
" clip-path="url(#p93c748c3db)" style="fill: #6a6aff"/>
    <path d="M 61.044895 34.38 
L 61.044895 7.2 
L 62.994235 7.2 
L 62.994235 34.38 
L 61.044895 34.38 
z
" clip-path="url(#p93c748c3db)" style="fill: #4848ff"/>
    <path d="M 62.994235 34.38 
L 62.994235 7.2 
L 64.943575 7.2 
L 64.943575 34.38 
L 62.994235 34.38 
z
" clip-path="url(#p93c748c3db)" style="fill: #5252ff"/>
    <path d="M 64.943575 34.38 
L 64.943575 7.2 
L 66.892915 7.2 
L 66.892915 34.38 
L 64.943575 34.38 
z
" clip-path="url(#p93c748c3db)" style="fill: #5a5aff"/>
    <path d="M 66.892915 34.38 
L 66.892915 7.2 
L 68.842255 7.2 
L 68.842255 34.38 
L 66.892915 34.38 
z
" clip-path="url(#p93c748c3db)" style="fill: #dadaff"/>
    <path d="M 68.842255 34.38 
L 68.842255 7.2 
L 70.791595 7.2 
L 70.791595 34.38 
L 68.842255 34.38 
z
" clip-path="url(#p93c748c3db)" style="fill: #ffd4d4"/>
    <path d="M 70.791595 34.38 
L 70.791595 7.2 
L 72.740935 7.2 
L 72.740935 34.38 
L 70.791595 34.38 
z
" clip-path="url(#p93c748c3db)" style="fill: #ffd8d8"/>
    <path d="M 72.740935 34.38 
L 72.740935 7.2 
L 74.690275 7.2 
L 74.690275 34.38 
L 72.740935 34.38 
z
" clip-path="url(#p93c748c3db)" style="fill: #ffe4e4"/>
    <path d="M 74.690275 34.38 
L 74.690275 7.2 
L 76.639615 7.2 
L 76.639615 34.38 
L 74.690275 34.38 
z
" clip-path="url(#p93c748c3db)" style="fill: #ffdada"/>
    <path d="M 76.639615 34.38 
L 76.639615 7.2 
L 78.588954 7.2 
L 78.588954 34.38 
L 76.639615 34.38 
z
" clip-path="url(#p93c748c3db)" style="fill: #eaeaff"/>
    <path d="M 78.588954 34.38 
L 78.588954 7.2 
L 80.538294 7.2 
L 80.538294 34.38 
L 78.588954 34.38 
z
" clip-path="url(#p93c748c3db)" style="fill: #ffe6e6"/>
    <path d="M 80.538294 34.38 
L 80.538294 7.2 
L 82.487634 7.2 
L 82.487634 34.38 
L 80.538294 34.38 
z
" clip-path="url(#p93c748c3db)" style="fill: #ffdada"/>
    <path d="M 82.487634 34.38 
L 82.487634 7.2 
L 84.436974 7.2 
L 84.436974 34.38 
L 82.487634 34.38 
z
" clip-path="url(#p93c748c3db)" style="fill: #ffdcdc"/>
    <path d="M 84.436974 34.38 
L 84.436974 7.2 
L 86.386314 7.2 
L 86.386314 34.38 
L 84.436974 34.38 
z
" clip-path="url(#p93c748c3db)" style="fill: #ffd6d6"/>
    <path d="M 86.386314 34.38 
L 86.386314 7.2 
L 88.335654 7.2 
L 88.335654 34.38 
L 86.386314 34.38 
z
" clip-path="url(#p93c748c3db)" style="fill: #ffdada"/>
    <path d="M 88.335654 34.38 
L 88.335654 7.2 
L 90.284994 7.2 
L 90.284994 34.38 
L 88.335654 34.38 
z
" clip-path="url(#p93c748c3db)" style="fill: #e4e4ff"/>
    <path d="M 90.284994 34.38 
L 90.284994 7.2 
L 92.234334 7.2 
L 92.234334 34.38 
L 90.284994 34.38 
z
" clip-path="url(#p93c748c3db)" style="fill: #fff2f2"/>
    <path d="M 92.234334 34.38 
L 92.234334 7.2 
L 94.183674 7.2 
L 94.183674 34.38 
L 92.234334 34.38 
z
" clip-path="url(#p93c748c3db)" style="fill: #f0f0ff"/>
    <path d="M 94.183674 34.38 
L 94.183674 7.2 
L 96.133014 7.2 
L 96.133014 34.38 
L 94.183674 34.38 
z
" clip-path="url(#p93c748c3db)" style="fill: #eaeaff"/>
    <path d="M 96.133014 34.38 
L 96.133014 7.2 
L 98.082354 7.2 
L 98.082354 34.38 
L 96.133014 34.38 
z
" clip-path="url(#p93c748c3db)" style="fill: #e4e4ff"/>
    <path d="M 98.082354 34.38 
L 98.082354 7.2 
L 100.031694 7.2 
L 100.031694 34.38 
L 98.082354 34.38 
z
" clip-path="url(#p93c748c3db)" style="fill: #cacaff"/>
    <path d="M 100.031694 34.38 
L 100.031694 7.2 
L 101.981034 7.2 
L 101.981034 34.38 
L 100.031694 34.38 
z
" clip-path="url(#p93c748c3db)" style="fill: #dadaff"/>
    <path d="M 101.981034 34.38 
L 101.981034 7.2 
L 103.930374 7.2 
L 103.930374 34.38 
L 101.981034 34.38 
z
" clip-path="url(#p93c748c3db)" style="fill: #ff6a6a"/>
    <path d="M 103.930374 34.38 
L 103.930374 7.2 
L 105.879714 7.2 
L 105.879714 34.38 
L 103.930374 34.38 
z
" clip-path="url(#p93c748c3db)" style="fill: #ff7474"/>
    <path d="M 105.879714 34.38 
L 105.879714 7.2 
L 107.829054 7.2 
L 107.829054 34.38 
L 105.879714 34.38 
z
" clip-path="url(#p93c748c3db)" style="fill: #ffc2c2"/>
    <path d="M 107.829054 34.38 
L 107.829054 7.2 
L 109.778394 7.2 
L 109.778394 34.38 
L 107.829054 34.38 
z
" clip-path="url(#p93c748c3db)" style="fill: #ffaeae"/>
    <path d="M 109.778394 34.38 
L 109.778394 7.2 
L 111.727734 7.2 
L 111.727734 34.38 
L 109.778394 34.38 
z
" clip-path="url(#p93c748c3db)" style="fill: #ff7272"/>
    <path d="M 111.727734 34.38 
L 111.727734 7.2 
L 113.677074 7.2 
L 113.677074 34.38 
L 111.727734 34.38 
z
" clip-path="url(#p93c748c3db)" style="fill: #ffa4a4"/>
    <path d="M 113.677074 34.38 
L 113.677074 7.2 
L 115.626414 7.2 
L 115.626414 34.38 
L 113.677074 34.38 
z
" clip-path="url(#p93c748c3db)" style="fill: #ffc0c0"/>
    <path d="M 115.626414 34.38 
L 115.626414 7.2 
L 117.575754 7.2 
L 117.575754 34.38 
L 115.626414 34.38 
z
" clip-path="url(#p93c748c3db)" style="fill: #ffbaba"/>
    <path d="M 117.575754 34.38 
L 117.575754 7.2 
L 119.525094 7.2 
L 119.525094 34.38 
L 117.575754 34.38 
z
" clip-path="url(#p93c748c3db)" style="fill: #cacaff"/>
    <path d="M 119.525094 34.38 
L 119.525094 7.2 
L 121.474434 7.2 
L 121.474434 34.38 
L 119.525094 34.38 
z
" clip-path="url(#p93c748c3db)" style="fill: #c2c2ff"/>
    <path d="M 121.474434 34.38 
L 121.474434 7.2 
L 123.423773 7.2 
L 123.423773 34.38 
L 121.474434 34.38 
z
" clip-path="url(#p93c748c3db)" style="fill: #fff0f0"/>
    <path d="M 123.423773 34.38 
L 123.423773 7.2 
L 125.373113 7.2 
L 125.373113 34.38 
L 123.423773 34.38 
z
" clip-path="url(#p93c748c3db)" style="fill: #ffb4b4"/>
    <path d="M 125.373113 34.38 
L 125.373113 7.2 
L 127.322453 7.2 
L 127.322453 34.38 
L 125.373113 34.38 
z
" clip-path="url(#p93c748c3db)" style="fill: #ffd4d4"/>
    <path d="M 127.322453 34.38 
L 127.322453 7.2 
L 129.271793 7.2 
L 129.271793 34.38 
L 127.322453 34.38 
z
" clip-path="url(#p93c748c3db)" style="fill: #ffeaea"/>
    <path d="M 129.271793 34.38 
L 129.271793 7.2 
L 131.221133 7.2 
L 131.221133 34.38 
L 129.271793 34.38 
z
" clip-path="url(#p93c748c3db)" style="fill: #ff9898"/>
    <path d="M 131.221133 34.38 
L 131.221133 7.2 
L 133.170473 7.2 
L 133.170473 34.38 
L 131.221133 34.38 
z
" clip-path="url(#p93c748c3db)" style="fill: #ffc8c8"/>
    <path d="M 133.170473 34.38 
L 133.170473 7.2 
L 135.119813 7.2 
L 135.119813 34.38 
L 133.170473 34.38 
z
" clip-path="url(#p93c748c3db)" style="fill: #ffe2e2"/>
    <path d="M 135.119813 34.38 
L 135.119813 7.2 
L 137.069153 7.2 
L 137.069153 34.38 
L 135.119813 34.38 
z
" clip-path="url(#p93c748c3db)" style="fill: #ffaeae"/>
    <path d="M 137.069153 34.38 
L 137.069153 7.2 
L 139.018493 7.2 
L 139.018493 34.38 
L 137.069153 34.38 
z
" clip-path="url(#p93c748c3db)" style="fill: #ffe8e8"/>
    <path d="M 139.018493 34.38 
L 139.018493 7.2 
L 140.967833 7.2 
L 140.967833 34.38 
L 139.018493 34.38 
z
" clip-path="url(#p93c748c3db)" style="fill: #ffa2a2"/>
    <path d="M 140.967833 34.38 
L 140.967833 7.2 
L 142.917173 7.2 
L 142.917173 34.38 
L 140.967833 34.38 
z
" clip-path="url(#p93c748c3db)" style="fill: #ffeeee"/>
    <path d="M 142.917173 34.38 
L 142.917173 7.2 
L 144.866513 7.2 
L 144.866513 34.38 
L 142.917173 34.38 
z
" clip-path="url(#p93c748c3db)" style="fill: #ff8484"/>
    <path d="M 144.866513 34.38 
L 144.866513 7.2 
L 146.815853 7.2 
L 146.815853 34.38 
L 144.866513 34.38 
z
" clip-path="url(#p93c748c3db)" style="fill: #ffeeee"/>
    <path d="M 146.815853 34.38 
L 146.815853 7.2 
L 148.765193 7.2 
L 148.765193 34.38 
L 146.815853 34.38 
z
" clip-path="url(#p93c748c3db)" style="fill: #ffc8c8"/>
    <path d="M 148.765193 34.38 
L 148.765193 7.2 
L 150.714533 7.2 
L 150.714533 34.38 
L 148.765193 34.38 
z
" clip-path="url(#p93c748c3db)" style="fill: #ffeeee"/>
    <path d="M 150.714533 34.38 
L 150.714533 7.2 
L 152.663873 7.2 
L 152.663873 34.38 
L 150.714533 34.38 
z
" clip-path="url(#p93c748c3db)" style="fill: #ffcece"/>
    <path d="M 152.663873 34.38 
L 152.663873 7.2 
L 154.613213 7.2 
L 154.613213 34.38 
L 152.663873 34.38 
z
" clip-path="url(#p93c748c3db)" style="fill: #ffd4d4"/>
    <path d="M 154.613213 34.38 
L 154.613213 7.2 
L 156.562553 7.2 
L 156.562553 34.38 
L 154.613213 34.38 
z
" clip-path="url(#p93c748c3db)" style="fill: #ffdada"/>
    <path d="M 156.562553 34.38 
L 156.562553 7.2 
L 158.511893 7.2 
L 158.511893 34.38 
L 156.562553 34.38 
z
" clip-path="url(#p93c748c3db)" style="fill: #ffa0a0"/>
    <path d="M 158.511893 34.38 
L 158.511893 7.2 
L 160.461233 7.2 
L 160.461233 34.38 
L 158.511893 34.38 
z
" clip-path="url(#p93c748c3db)" style="fill: #ffe6e6"/>
    <path d="M 160.461233 34.38 
L 160.461233 7.2 
L 162.410573 7.2 
L 162.410573 34.38 
L 160.461233 34.38 
z
" clip-path="url(#p93c748c3db)" style="fill: #ffa8a8"/>
    <path d="M 162.410573 34.38 
L 162.410573 7.2 
L 164.359913 7.2 
L 164.359913 34.38 
L 162.410573 34.38 
z
" clip-path="url(#p93c748c3db)" style="fill: #ffc2c2"/>
    <path d="M 164.359913 34.38 
L 164.359913 7.2 
L 166.309253 7.2 
L 166.309253 34.38 
L 164.359913 34.38 
z
" clip-path="url(#p93c748c3db)" style="fill: #ff8a8a"/>
    <path d="M 166.309253 34.38 
L 166.309253 7.2 
L 168.258592 7.2 
L 168.258592 34.38 
L 166.309253 34.38 
z
" clip-path="url(#p93c748c3db)" style="fill: #ffc8c8"/>
    <path d="M 168.258592 34.38 
L 168.258592 7.2 
L 170.207932 7.2 
L 170.207932 34.38 
L 168.258592 34.38 
z
" clip-path="url(#p93c748c3db)" style="fill: #ffcece"/>
    <path d="M 170.207932 34.38 
L 170.207932 7.2 
L 172.157272 7.2 
L 172.157272 34.38 
L 170.207932 34.38 
z
" clip-path="url(#p93c748c3db)" style="fill: #d6d6ff"/>
    <path d="M 172.157272 34.38 
L 172.157272 7.2 
L 174.106612 7.2 
L 174.106612 34.38 
L 172.157272 34.38 
z
" clip-path="url(#p93c748c3db)" style="fill: #dcdcff"/>
    <path d="M 174.106612 34.38 
L 174.106612 7.2 
L 176.055952 7.2 
L 176.055952 34.38 
L 174.106612 34.38 
z
" clip-path="url(#p93c748c3db)" style="fill: #ffe0e0"/>
    <path d="M 176.055952 34.38 
L 176.055952 7.2 
L 178.005292 7.2 
L 178.005292 34.38 
L 176.055952 34.38 
z
" clip-path="url(#p93c748c3db)" style="fill: #ffe0e0"/>
    <path d="M 178.005292 34.38 
L 178.005292 7.2 
L 179.954632 7.2 
L 179.954632 34.38 
L 178.005292 34.38 
z
" clip-path="url(#p93c748c3db)" style="fill: #dedeff"/>
    <path d="M 179.954632 34.38 
L 179.954632 7.2 
L 181.903972 7.2 
L 181.903972 34.38 
L 179.954632 34.38 
z
" clip-path="url(#p93c748c3db)" style="fill: #ffe8e8"/>
    <path d="M 181.903972 34.38 
L 181.903972 7.2 
L 183.853312 7.2 
L 183.853312 34.38 
L 181.903972 34.38 
z
" clip-path="url(#p93c748c3db)" style="fill: #dedeff"/>
    <path d="M 183.853312 34.38 
L 183.853312 7.2 
L 185.802652 7.2 
L 185.802652 34.38 
L 183.853312 34.38 
z
" clip-path="url(#p93c748c3db)" style="fill: #ffe2e2"/>
    <path d="M 185.802652 34.38 
L 185.802652 7.2 
L 187.751992 7.2 
L 187.751992 34.38 
L 185.802652 34.38 
z
" clip-path="url(#p93c748c3db)" style="fill: #ffe2e2"/>
    <path d="M 187.751992 34.38 
L 187.751992 7.2 
L 189.701332 7.2 
L 189.701332 34.38 
L 187.751992 34.38 
z
" clip-path="url(#p93c748c3db)" style="fill: #ffe4e4"/>
    <path d="M 189.701332 34.38 
L 189.701332 7.2 
L 191.650672 7.2 
L 191.650672 34.38 
L 189.701332 34.38 
z
" clip-path="url(#p93c748c3db)" style="fill: #ffdada"/>
    <path d="M 191.650672 34.38 
L 191.650672 7.2 
L 193.600012 7.2 
L 193.600012 34.38 
L 191.650672 34.38 
z
" clip-path="url(#p93c748c3db)" style="fill: #ececff"/>
    <path d="M 193.600012 34.38 
L 193.600012 7.2 
L 195.549352 7.2 
L 195.549352 34.38 
L 193.600012 34.38 
z
" clip-path="url(#p93c748c3db)" style="fill: #eeeeff"/>
    <path d="M 195.549352 34.38 
L 195.549352 7.2 
L 197.498692 7.2 
L 197.498692 34.38 
L 195.549352 34.38 
z
" clip-path="url(#p93c748c3db)" style="fill: #eeeeff"/>
    <path d="M 197.498692 34.38 
L 197.498692 7.2 
L 199.448032 7.2 
L 199.448032 34.38 
L 197.498692 34.38 
z
" clip-path="url(#p93c748c3db)" style="fill: #b0b0ff"/>
    <path d="M 199.448032 34.38 
L 199.448032 7.2 
L 201.397372 7.2 
L 201.397372 34.38 
L 199.448032 34.38 
z
" clip-path="url(#p93c748c3db)" style="fill: #b0b0ff"/>
    <path d="M 201.397372 34.38 
L 201.397372 7.2 
L 203.346712 7.2 
L 203.346712 34.38 
L 201.397372 34.38 
z
" clip-path="url(#p93c748c3db)" style="fill: #acacff"/>
    <path d="M 203.346712 34.38 
L 203.346712 7.2 
L 205.296052 7.2 
L 205.296052 34.38 
L 203.346712 34.38 
z
" clip-path="url(#p93c748c3db)" style="fill: #ceceff"/>
    <path d="M 205.296052 34.38 
L 205.296052 7.2 
L 207.245392 7.2 
L 207.245392 34.38 
L 205.296052 34.38 
z
" clip-path="url(#p93c748c3db)" style="fill: #ceceff"/>
    <path d="M 207.245392 34.38 
L 207.245392 7.2 
L 209.194732 7.2 
L 209.194732 34.38 
L 207.245392 34.38 
z
" clip-path="url(#p93c748c3db)" style="fill: #d0d0ff"/>
    <path d="M 209.194732 34.38 
L 209.194732 7.2 
L 211.144072 7.2 
L 211.144072 34.38 
L 209.194732 34.38 
z
" clip-path="url(#p93c748c3db)" style="fill: #ff9898"/>
    <path d="M 211.144072 34.38 
L 211.144072 7.2 
L 213.093412 7.2 
L 213.093412 34.38 
L 211.144072 34.38 
z
" clip-path="url(#p93c748c3db)" style="fill: #ff9e9e"/>
    <path d="M 213.093412 34.38 
L 213.093412 7.2 
L 215.042751 7.2 
L 215.042751 34.38 
L 213.093412 34.38 
z
" clip-path="url(#p93c748c3db)" style="fill: #ff9292"/>
    <path d="M 215.042751 34.38 
L 215.042751 7.2 
L 216.992091 7.2 
L 216.992091 34.38 
L 215.042751 34.38 
z
" clip-path="url(#p93c748c3db)" style="fill: #ff8686"/>
    <path d="M 216.992091 34.38 
L 216.992091 7.2 
L 218.941431 7.2 
L 218.941431 34.38 
L 216.992091 34.38 
z
" clip-path="url(#p93c748c3db)" style="fill: #ff9292"/>
    <path d="M 218.941431 34.38 
L 218.941431 7.2 
L 220.890771 7.2 
L 220.890771 34.38 
L 218.941431 34.38 
z
" clip-path="url(#p93c748c3db)" style="fill: #ffd6d6"/>
    <path d="M 220.890771 34.38 
L 220.890771 7.2 
L 222.840111 7.2 
L 222.840111 34.38 
L 220.890771 34.38 
z
" clip-path="url(#p93c748c3db)" style="fill: #ffdcdc"/>
    <path d="M 222.840111 34.38 
L 222.840111 7.2 
L 224.789451 7.2 
L 224.789451 34.38 
L 222.840111 34.38 
z
" clip-path="url(#p93c748c3db)" style="fill: #ffd8d8"/>
    <path d="M 224.789451 34.38 
L 224.789451 7.2 
L 226.738791 7.2 
L 226.738791 34.38 
L 224.789451 34.38 
z
" clip-path="url(#p93c748c3db)" style="fill: #ff8282"/>
    <path d="M 226.738791 34.38 
L 226.738791 7.2 
L 228.688131 7.2 
L 228.688131 34.38 
L 226.738791 34.38 
z
" clip-path="url(#p93c748c3db)" style="fill: #ff7c7c"/>
    <path d="M 228.688131 34.38 
L 228.688131 7.2 
L 230.637471 7.2 
L 230.637471 34.38 
L 228.688131 34.38 
z
" clip-path="url(#p93c748c3db)" style="fill: #ff8484"/>
    <path d="M 230.637471 34.38 
L 230.637471 7.2 
L 232.586811 7.2 
L 232.586811 34.38 
L 230.637471 34.38 
z
" clip-path="url(#p93c748c3db)" style="fill: #ffacac"/>
    <path d="M 232.586811 34.38 
L 232.586811 7.2 
L 234.536151 7.2 
L 234.536151 34.38 
L 232.586811 34.38 
z
" clip-path="url(#p93c748c3db)" style="fill: #ffaeae"/>
    <path d="M 234.536151 34.38 
L 234.536151 7.2 
L 236.485491 7.2 
L 236.485491 34.38 
L 234.536151 34.38 
z
" clip-path="url(#p93c748c3db)" style="fill: #ffaeae"/>
    <path d="M 236.485491 34.38 
L 236.485491 7.2 
L 238.434831 7.2 
L 238.434831 34.38 
L 236.485491 34.38 
z
" clip-path="url(#p93c748c3db)" style="fill: #a0a0ff"/>
    <path d="M 238.434831 34.38 
L 238.434831 7.2 
L 240.384171 7.2 
L 240.384171 34.38 
L 238.434831 34.38 
z
" clip-path="url(#p93c748c3db)" style="fill: #eaeaff"/>
    <path d="M 240.384171 34.38 
L 240.384171 7.2 
L 242.333511 7.2 
L 242.333511 34.38 
L 240.384171 34.38 
z
" clip-path="url(#p93c748c3db)" style="fill: #c0c0ff"/>
    <path d="M 242.333511 34.38 
L 242.333511 7.2 
L 244.282851 7.2 
L 244.282851 34.38 
L 242.333511 34.38 
z
" clip-path="url(#p93c748c3db)" style="fill: #c6c6ff"/>
    <path d="M 244.282851 34.38 
L 244.282851 7.2 
L 246.232191 7.2 
L 246.232191 34.38 
L 244.282851 34.38 
z
" clip-path="url(#p93c748c3db)" style="fill: #e4e4ff"/>
    <path d="M 246.232191 34.38 
L 246.232191 7.2 
L 248.181531 7.2 
L 248.181531 34.38 
L 246.232191 34.38 
z
" clip-path="url(#p93c748c3db)" style="fill: #babaff"/>
    <path d="M 248.181531 34.38 
L 248.181531 7.2 
L 250.130871 7.2 
L 250.130871 34.38 
L 248.181531 34.38 
z
" clip-path="url(#p93c748c3db)" style="fill: #d2d2ff"/>
    <path d="M 250.130871 34.38 
L 250.130871 7.2 
L 252.080211 7.2 
L 252.080211 34.38 
L 250.130871 34.38 
z
" clip-path="url(#p93c748c3db)" style="fill: #ff6e6e"/>
    <path d="M 252.080211 34.38 
L 252.080211 7.2 
L 254.029551 7.2 
L 254.029551 34.38 
L 252.080211 34.38 
z
" clip-path="url(#p93c748c3db)" style="fill: #ffe0e0"/>
    <path d="M 254.029551 34.38 
L 254.029551 7.2 
L 255.978891 7.2 
L 255.978891 34.38 
L 254.029551 34.38 
z
" clip-path="url(#p93c748c3db)" style="fill: #ffe8e8"/>
    <path d="M 255.978891 34.38 
L 255.978891 7.2 
L 257.928231 7.2 
L 257.928231 34.38 
L 255.978891 34.38 
z
" clip-path="url(#p93c748c3db)" style="fill: #ffe2e2"/>
    <path d="M 257.928231 34.38 
L 257.928231 7.2 
L 259.87757 7.2 
L 259.87757 34.38 
L 257.928231 34.38 
z
" clip-path="url(#p93c748c3db)" style="fill: #ff9e9e"/>
    <path d="M 259.87757 34.38 
L 259.87757 7.2 
L 261.82691 7.2 
L 261.82691 34.38 
L 259.87757 34.38 
z
" clip-path="url(#p93c748c3db)" style="fill: #ff9696"/>
    <path d="M 261.82691 34.38 
L 261.82691 7.2 
L 263.77625 7.2 
L 263.77625 34.38 
L 261.82691 34.38 
z
" clip-path="url(#p93c748c3db)" style="fill: #ffa0a0"/>
    <path d="M 263.77625 34.38 
L 263.77625 7.2 
L 265.72559 7.2 
L 265.72559 34.38 
L 263.77625 34.38 
z
" clip-path="url(#p93c748c3db)" style="fill: #ffbaba"/>
    <path d="M 265.72559 34.38 
L 265.72559 7.2 
L 267.67493 7.2 
L 267.67493 34.38 
L 265.72559 34.38 
z
" clip-path="url(#p93c748c3db)" style="fill: #ffa8a8"/>
    <path d="M 267.67493 34.38 
L 267.67493 7.2 
L 269.62427 7.2 
L 269.62427 34.38 
L 267.67493 34.38 
z
" clip-path="url(#p93c748c3db)" style="fill: #ffa8a8"/>
    <path d="M 269.62427 34.38 
L 269.62427 7.2 
L 271.57361 7.2 
L 271.57361 34.38 
L 269.62427 34.38 
z
" clip-path="url(#p93c748c3db)" style="fill: #e4e4ff"/>
    <path d="M 271.57361 34.38 
L 271.57361 7.2 
L 273.52295 7.2 
L 273.52295 34.38 
L 271.57361 34.38 
z
" clip-path="url(#p93c748c3db)" style="fill: #e6e6ff"/>
    <path d="M 273.52295 34.38 
L 273.52295 7.2 
L 275.47229 7.2 
L 275.47229 34.38 
L 273.52295 34.38 
z
" clip-path="url(#p93c748c3db)" style="fill: #e4e4ff"/>
    <path d="M 275.47229 34.38 
L 275.47229 7.2 
L 277.42163 7.2 
L 277.42163 34.38 
L 275.47229 34.38 
z
" clip-path="url(#p93c748c3db)" style="fill: #b2b2ff"/>
    <path d="M 277.42163 34.38 
L 277.42163 7.2 
L 279.37097 7.2 
L 279.37097 34.38 
L 277.42163 34.38 
z
" clip-path="url(#p93c748c3db)" style="fill: #a4a4ff"/>
    <path d="M 279.37097 34.38 
L 279.37097 7.2 
L 281.32031 7.2 
L 281.32031 34.38 
L 279.37097 34.38 
z
" clip-path="url(#p93c748c3db)" style="fill: #b0b0ff"/>
    <path d="M 281.32031 34.38 
L 281.32031 7.2 
L 283.26965 7.2 
L 283.26965 34.38 
L 281.32031 34.38 
z
" clip-path="url(#p93c748c3db)" style="fill: #c6c6ff"/>
    <path d="M 283.26965 34.38 
L 283.26965 7.2 
L 285.21899 7.2 
L 285.21899 34.38 
L 283.26965 34.38 
z
" clip-path="url(#p93c748c3db)" style="fill: #d2d2ff"/>
    <path d="M 285.21899 34.38 
L 285.21899 7.2 
L 287.16833 7.2 
L 287.16833 34.38 
L 285.21899 34.38 
z
" clip-path="url(#p93c748c3db)" style="fill: #ffecec"/>
    <path d="M 287.16833 34.38 
L 287.16833 7.2 
L 289.11767 7.2 
L 289.11767 34.38 
L 287.16833 34.38 
z
" clip-path="url(#p93c748c3db)" style="fill: #ffe8e8"/>
    <path d="M 289.11767 34.38 
L 289.11767 7.2 
L 291.06701 7.2 
L 291.06701 34.38 
L 289.11767 34.38 
z
" clip-path="url(#p93c748c3db)" style="fill: #ffe8e8"/>
    <path d="M 291.06701 34.38 
L 291.06701 7.2 
L 293.01635 7.2 
L 293.01635 34.38 
L 291.06701 34.38 
z
" clip-path="url(#p93c748c3db)" style="fill: #ffb2b2"/>
    <path d="M 293.01635 34.38 
L 293.01635 7.2 
L 294.96569 7.2 
L 294.96569 34.38 
L 293.01635 34.38 
z
" clip-path="url(#p93c748c3db)" style="fill: #ffaaaa"/>
    <path d="M 294.96569 34.38 
L 294.96569 7.2 
L 296.91503 7.2 
L 296.91503 34.38 
L 294.96569 34.38 
z
" clip-path="url(#p93c748c3db)" style="fill: #ffaaaa"/>
    <path d="M 296.91503 34.38 
L 296.91503 7.2 
L 298.86437 7.2 
L 298.86437 34.38 
L 296.91503 34.38 
z
" clip-path="url(#p93c748c3db)" style="fill: #ffcece"/>
    <path d="M 298.86437 34.38 
L 298.86437 7.2 
L 300.81371 7.2 
L 300.81371 34.38 
L 298.86437 34.38 
z
" clip-path="url(#p93c748c3db)" style="fill: #ffc4c4"/>
    <path d="M 300.81371 34.38 
L 300.81371 7.2 
L 302.76305 7.2 
L 302.76305 34.38 
L 300.81371 34.38 
z
" clip-path="url(#p93c748c3db)" style="fill: #ffcaca"/>
    <path d="M 302.76305 34.38 
L 302.76305 7.2 
L 304.712389 7.2 
L 304.712389 34.38 
L 302.76305 34.38 
z
" clip-path="url(#p93c748c3db)" style="fill: #ffd2d2"/>
    <path d="M 304.712389 34.38 
L 304.712389 7.2 
L 306.661729 7.2 
L 306.661729 34.38 
L 304.712389 34.38 
z
" clip-path="url(#p93c748c3db)" style="fill: #ffe8e8"/>
    <path d="M 306.661729 34.38 
L 306.661729 7.2 
L 308.611069 7.2 
L 308.611069 34.38 
L 306.661729 34.38 
z
" clip-path="url(#p93c748c3db)" style="fill: #ffeaea"/>
    <path d="M 308.611069 34.38 
L 308.611069 7.2 
L 310.560409 7.2 
L 310.560409 34.38 
L 308.611069 34.38 
z
" clip-path="url(#p93c748c3db)" style="fill: #9e9eff"/>
    <path d="M 310.560409 34.38 
L 310.560409 7.2 
L 312.509749 7.2 
L 312.509749 34.38 
L 310.560409 34.38 
z
" clip-path="url(#p93c748c3db)" style="fill: #8686ff"/>
    <path d="M 312.509749 34.38 
L 312.509749 7.2 
L 314.459089 7.2 
L 314.459089 34.38 
L 312.509749 34.38 
z
" clip-path="url(#p93c748c3db)" style="fill: #8080ff"/>
    <path d="M 314.459089 34.38 
L 314.459089 7.2 
L 316.408429 7.2 
L 316.408429 34.38 
L 314.459089 34.38 
z
" clip-path="url(#p93c748c3db)" style="fill: #e0e0ff"/>
    <path d="M 316.408429 34.38 
L 316.408429 7.2 
L 318.357769 7.2 
L 318.357769 34.38 
L 316.408429 34.38 
z
" clip-path="url(#p93c748c3db)" style="fill: #eaeaff"/>
    <path d="M 318.357769 34.38 
L 318.357769 7.2 
L 320.307109 7.2 
L 320.307109 34.38 
L 318.357769 34.38 
z
" clip-path="url(#p93c748c3db)" style="fill: #e4e4ff"/>
    <path d="M 320.307109 34.38 
L 320.307109 7.2 
L 322.256449 7.2 
L 322.256449 34.38 
L 320.307109 34.38 
z
" clip-path="url(#p93c748c3db)" style="fill: #a0a0ff"/>
    <path d="M 322.256449 34.38 
L 322.256449 7.2 
L 324.205789 7.2 
L 324.205789 34.38 
L 322.256449 34.38 
z
" clip-path="url(#p93c748c3db)" style="fill: #aaaaff"/>
    <path d="M 324.205789 34.38 
L 324.205789 7.2 
L 326.155129 7.2 
L 326.155129 34.38 
L 324.205789 34.38 
z
" clip-path="url(#p93c748c3db)" style="fill: #a6a6ff"/>
    <path d="M 326.155129 34.38 
L 326.155129 7.2 
L 328.104469 7.2 
L 328.104469 34.38 
L 326.155129 34.38 
z
" clip-path="url(#p93c748c3db)" style="fill: #aeaeff"/>
    <path d="M 328.104469 34.38 
L 328.104469 7.2 
L 330.053809 7.2 
L 330.053809 34.38 
L 328.104469 34.38 
z
" clip-path="url(#p93c748c3db)" style="fill: #aeaeff"/>
    <path d="M 330.053809 34.38 
L 330.053809 7.2 
L 332.003149 7.2 
L 332.003149 34.38 
L 330.053809 34.38 
z
" clip-path="url(#p93c748c3db)" style="fill: #b2b2ff"/>
    <path d="M 332.003149 34.38 
L 332.003149 7.2 
L 333.952489 7.2 
L 333.952489 34.38 
L 332.003149 34.38 
z
" clip-path="url(#p93c748c3db)" style="fill: #ff4a4a"/>
    <path d="M 333.952489 34.38 
L 333.952489 7.2 
L 335.901829 7.2 
L 335.901829 34.38 
L 333.952489 34.38 
z
" clip-path="url(#p93c748c3db)" style="fill: #ff5454"/>
    <path d="M 335.901829 34.38 
L 335.901829 7.2 
L 337.851169 7.2 
L 337.851169 34.38 
L 335.901829 34.38 
z
" clip-path="url(#p93c748c3db)" style="fill: #ff6060"/>
    <path d="M 337.851169 34.38 
L 337.851169 7.2 
L 339.800509 7.2 
L 339.800509 34.38 
L 337.851169 34.38 
z
" clip-path="url(#p93c748c3db)" style="fill: #ffeeee"/>
    <path d="M 339.800509 34.38 
L 339.800509 7.2 
L 341.749849 7.2 
L 341.749849 34.38 
L 339.800509 34.38 
z
" clip-path="url(#p93c748c3db)" style="fill: #ffeeee"/>
    <path d="M 341.749849 34.38 
L 341.749849 7.2 
L 343.699189 7.2 
L 343.699189 34.38 
L 341.749849 34.38 
z
" clip-path="url(#p93c748c3db)" style="fill: #ffeeee"/>
    <path d="M 343.699189 34.38 
L 343.699189 7.2 
L 345.648529 7.2 
L 345.648529 34.38 
L 343.699189 34.38 
z
" clip-path="url(#p93c748c3db)" style="fill: #ffc8c8"/>
    <path d="M 345.648529 34.38 
L 345.648529 7.2 
L 347.597869 7.2 
L 347.597869 34.38 
L 345.648529 34.38 
z
" clip-path="url(#p93c748c3db)" style="fill: #ffc6c6"/>
    <path d="M 347.597869 34.38 
L 347.597869 7.2 
L 349.547208 7.2 
L 349.547208 34.38 
L 347.597869 34.38 
z
" clip-path="url(#p93c748c3db)" style="fill: #ffc2c2"/>
    <path d="M 349.547208 34.38 
L 349.547208 7.2 
L 351.496548 7.2 
L 351.496548 34.38 
L 349.547208 34.38 
z
" clip-path="url(#p93c748c3db)" style="fill: #ffe8e8"/>
    <path d="M 351.496548 34.38 
L 351.496548 7.2 
L 353.445888 7.2 
L 353.445888 34.38 
L 351.496548 34.38 
z
" clip-path="url(#p93c748c3db)" style="fill: #ffe6e6"/>
    <path d="M 353.445888 34.38 
L 353.445888 7.2 
L 355.395228 7.2 
L 355.395228 34.38 
L 353.445888 34.38 
z
" clip-path="url(#p93c748c3db)" style="fill: #ffe8e8"/>
    <path d="M 355.395228 34.38 
L 355.395228 7.2 
L 357.344568 7.2 
L 357.344568 34.38 
L 355.395228 34.38 
z
" clip-path="url(#p93c748c3db)" style="fill: #ffb8b8"/>
    <path d="M 357.344568 34.38 
L 357.344568 7.2 
L 359.293908 7.2 
L 359.293908 34.38 
L 357.344568 34.38 
z
" clip-path="url(#p93c748c3db)" style="fill: #ffb4b4"/>
    <path d="M 359.293908 34.38 
L 359.293908 7.2 
L 361.243248 7.2 
L 361.243248 34.38 
L 359.293908 34.38 
z
" clip-path="url(#p93c748c3db)" style="fill: #ffacac"/>
    <path d="M 361.243248 34.38 
L 361.243248 7.2 
L 363.192588 7.2 
L 363.192588 34.38 
L 361.243248 34.38 
z
" clip-path="url(#p93c748c3db)" style="fill: #ffc6c6"/>
    <path d="M 363.192588 34.38 
L 363.192588 7.2 
L 365.141928 7.2 
L 365.141928 34.38 
L 363.192588 34.38 
z
" clip-path="url(#p93c748c3db)" style="fill: #ffcaca"/>
    <path d="M 365.141928 34.38 
L 365.141928 7.2 
L 367.091268 7.2 
L 367.091268 34.38 
L 365.141928 34.38 
z
" clip-path="url(#p93c748c3db)" style="fill: #ffcccc"/>
    <path d="M 367.091268 34.38 
L 367.091268 7.2 
L 369.040608 7.2 
L 369.040608 34.38 
L 367.091268 34.38 
z
" clip-path="url(#p93c748c3db)" style="fill: #ff9898"/>
    <path d="M 369.040608 34.38 
L 369.040608 7.2 
L 370.989948 7.2 
L 370.989948 34.38 
L 369.040608 34.38 
z
" clip-path="url(#p93c748c3db)" style="fill: #ff9a9a"/>
    <path d="M 370.989948 34.38 
L 370.989948 7.2 
L 372.939288 7.2 
L 372.939288 34.38 
L 370.989948 34.38 
z
" clip-path="url(#p93c748c3db)" style="fill: #ff9a9a"/>
    <path d="M 372.939288 34.38 
L 372.939288 7.2 
L 374.888628 7.2 
L 374.888628 34.38 
L 372.939288 34.38 
z
" clip-path="url(#p93c748c3db)" style="fill: #ffe6e6"/>
    <path d="M 374.888628 34.38 
L 374.888628 7.2 
L 376.837968 7.2 
L 376.837968 34.38 
L 374.888628 34.38 
z
" clip-path="url(#p93c748c3db)" style="fill: #ffe4e4"/>
    <path d="M 376.837968 34.38 
L 376.837968 7.2 
L 378.787308 7.2 
L 378.787308 34.38 
L 376.837968 34.38 
z
" clip-path="url(#p93c748c3db)" style="fill: #ffe6e6"/>
    <path d="M 378.787308 34.38 
L 378.787308 7.2 
L 380.736648 7.2 
L 380.736648 34.38 
L 378.787308 34.38 
z
" clip-path="url(#p93c748c3db)" style="fill: #ffa8a8"/>
    <path d="M 380.736648 34.38 
L 380.736648 7.2 
L 382.685988 7.2 
L 382.685988 34.38 
L 380.736648 34.38 
z
" clip-path="url(#p93c748c3db)" style="fill: #ff9e9e"/>
    <path d="M 382.685988 34.38 
L 382.685988 7.2 
L 384.635328 7.2 
L 384.635328 34.38 
L 382.685988 34.38 
z
" clip-path="url(#p93c748c3db)" style="fill: #ffa6a6"/>
    <path d="M 384.635328 34.38 
L 384.635328 7.2 
L 386.584668 7.2 
L 386.584668 34.38 
L 384.635328 34.38 
z
" clip-path="url(#p93c748c3db)" style="fill: #ffbebe"/>
    <path d="M 386.584668 34.38 
L 386.584668 7.2 
L 388.534008 7.2 
L 388.534008 34.38 
L 386.584668 34.38 
z
" clip-path="url(#p93c748c3db)" style="fill: #ffc2c2"/>
    <path d="M 388.534008 34.38 
L 388.534008 7.2 
L 390.483348 7.2 
L 390.483348 34.38 
L 388.534008 34.38 
z
" clip-path="url(#p93c748c3db)" style="fill: #ff8686"/>
    <path d="M 390.483348 34.38 
L 390.483348 7.2 
L 392.432688 7.2 
L 392.432688 34.38 
L 390.483348 34.38 
z
" clip-path="url(#p93c748c3db)" style="fill: #ff9090"/>
    <path d="M 392.432688 34.38 
L 392.432688 7.2 
L 394.382027 7.2 
L 394.382027 34.38 
L 392.432688 34.38 
z
" clip-path="url(#p93c748c3db)" style="fill: #ff9090"/>
    <path d="M 394.382027 34.38 
L 394.382027 7.2 
L 396.331367 7.2 
L 396.331367 34.38 
L 394.382027 34.38 
z
" clip-path="url(#p93c748c3db)" style="fill: #ffe4e4"/>
    <path d="M 396.331367 34.38 
L 396.331367 7.2 
L 398.280707 7.2 
L 398.280707 34.38 
L 396.331367 34.38 
z
" clip-path="url(#p93c748c3db)" style="fill: #ffe4e4"/>
    <path d="M 398.280707 34.38 
L 398.280707 7.2 
L 400.230047 7.2 
L 400.230047 34.38 
L 398.280707 34.38 
z
" clip-path="url(#p93c748c3db)" style="fill: #ffe4e4"/>
    <path d="M 400.230047 34.38 
L 400.230047 7.2 
L 402.179387 7.2 
L 402.179387 34.38 
L 400.230047 34.38 
z
" clip-path="url(#p93c748c3db)" style="fill: #ff9696"/>
    <path d="M 402.179387 34.38 
L 402.179387 7.2 
L 404.128727 7.2 
L 404.128727 34.38 
L 402.179387 34.38 
z
" clip-path="url(#p93c748c3db)" style="fill: #ffa4a4"/>
    <path d="M 404.128727 34.38 
L 404.128727 7.2 
L 406.078067 7.2 
L 406.078067 34.38 
L 404.128727 34.38 
z
" clip-path="url(#p93c748c3db)" style="fill: #ffa0a0"/>
    <path d="M 406.078067 34.38 
L 406.078067 7.2 
L 408.027407 7.2 
L 408.027407 34.38 
L 406.078067 34.38 
z
" clip-path="url(#p93c748c3db)" style="fill: #ffc0c0"/>
    <path d="M 408.027407 34.38 
L 408.027407 7.2 
L 409.976747 7.2 
L 409.976747 34.38 
L 408.027407 34.38 
z
" clip-path="url(#p93c748c3db)" style="fill: #ffc0c0"/>
    <path d="M 409.976747 34.38 
L 409.976747 7.2 
L 411.926087 7.2 
L 411.926087 34.38 
L 409.976747 34.38 
z
" clip-path="url(#p93c748c3db)" style="fill: #ffc2c2"/>
    <path d="M 411.926087 34.38 
L 411.926087 7.2 
L 413.875427 7.2 
L 413.875427 34.38 
L 411.926087 34.38 
z
" clip-path="url(#p93c748c3db)" style="fill: #4646ff"/>
    <path d="M 413.875427 34.38 
L 413.875427 7.2 
L 415.824767 7.2 
L 415.824767 34.38 
L 413.875427 34.38 
z
" clip-path="url(#p93c748c3db)" style="fill: #4848ff"/>
    <path d="M 415.824767 34.38 
L 415.824767 7.2 
L 417.774107 7.2 
L 417.774107 34.38 
L 415.824767 34.38 
z
" clip-path="url(#p93c748c3db)" style="fill: #4242ff"/>
    <path d="M 417.774107 34.38 
L 417.774107 7.2 
L 419.723447 7.2 
L 419.723447 34.38 
L 417.774107 34.38 
z
" clip-path="url(#p93c748c3db)" style="fill: #5656ff"/>
    <path d="M 419.723447 34.38 
L 419.723447 7.2 
L 421.672787 7.2 
L 421.672787 34.38 
L 419.723447 34.38 
z
" clip-path="url(#p93c748c3db)" style="fill: #ffdede"/>
    <path d="M 421.672787 34.38 
L 421.672787 7.2 
L 423.622127 7.2 
L 423.622127 34.38 
L 421.672787 34.38 
z
" clip-path="url(#p93c748c3db)" style="fill: #ffe6e6"/>
    <path d="M 423.622127 34.38 
L 423.622127 7.2 
L 425.571467 7.2 
L 425.571467 34.38 
L 423.622127 34.38 
z
" clip-path="url(#p93c748c3db)" style="fill: #ececff"/>
    <path d="M 425.571467 34.38 
L 425.571467 7.2 
L 427.520807 7.2 
L 427.520807 34.38 
L 425.571467 34.38 
z
" clip-path="url(#p93c748c3db)" style="fill: #e4e4ff"/>
    <path d="M 427.520807 34.38 
L 427.520807 7.2 
L 429.470147 7.2 
L 429.470147 34.38 
L 427.520807 34.38 
z
" clip-path="url(#p93c748c3db)" style="fill: #eaeaff"/>
    <path d="M 429.470147 34.38 
L 429.470147 7.2 
L 431.419487 7.2 
L 431.419487 34.38 
L 429.470147 34.38 
z
" clip-path="url(#p93c748c3db)" style="fill: #ffc2c2"/>
    <path d="M 431.419487 34.38 
L 431.419487 7.2 
L 433.368827 7.2 
L 433.368827 34.38 
L 431.419487 34.38 
z
" clip-path="url(#p93c748c3db)" style="fill: #ffb8b8"/>
    <path d="M 433.368827 34.38 
L 433.368827 7.2 
L 435.318167 7.2 
L 435.318167 34.38 
L 433.368827 34.38 
z
" clip-path="url(#p93c748c3db)" style="fill: #ffe0e0"/>
    <path d="M 435.318167 34.38 
L 435.318167 7.2 
L 437.267507 7.2 
L 437.267507 34.38 
L 435.318167 34.38 
z
" clip-path="url(#p93c748c3db)" style="fill: #ffd8d8"/>
    <path d="M 437.267507 34.38 
L 437.267507 7.2 
L 439.216846 7.2 
L 439.216846 34.38 
L 437.267507 34.38 
z
" clip-path="url(#p93c748c3db)" style="fill: #dedeff"/>
    <path d="M 439.216846 34.38 
L 439.216846 7.2 
L 441.166186 7.2 
L 441.166186 34.38 
L 439.216846 34.38 
z
" clip-path="url(#p93c748c3db)" style="fill: #d4d4ff"/>
    <path d="M 441.166186 34.38 
L 441.166186 7.2 
L 443.115526 7.2 
L 443.115526 34.38 
L 441.166186 34.38 
z
" clip-path="url(#p93c748c3db)" style="fill: #d6d6ff"/>
    <path d="M 443.115526 34.38 
L 443.115526 7.2 
L 445.064866 7.2 
L 445.064866 34.38 
L 443.115526 34.38 
z
" clip-path="url(#p93c748c3db)" style="fill: #d2d2ff"/>
    <path d="M 445.064866 34.38 
L 445.064866 7.2 
L 447.014206 7.2 
L 447.014206 34.38 
L 445.064866 34.38 
z
" clip-path="url(#p93c748c3db)" style="fill: #ffdede"/>
    <path d="M 447.014206 34.38 
L 447.014206 7.2 
L 448.963546 7.2 
L 448.963546 34.38 
L 447.014206 34.38 
z
" clip-path="url(#p93c748c3db)" style="fill: #ffeaea"/>
    <path d="M 448.963546 34.38 
L 448.963546 7.2 
L 450.912886 7.2 
L 450.912886 34.38 
L 448.963546 34.38 
z
" clip-path="url(#p93c748c3db)" style="fill: #ffe0e0"/>
    <path d="M 450.912886 34.38 
L 450.912886 7.2 
L 452.862226 7.2 
L 452.862226 34.38 
L 450.912886 34.38 
z
" clip-path="url(#p93c748c3db)" style="fill: #ececff"/>
    <path d="M 452.862226 34.38 
L 452.862226 7.2 
L 454.811566 7.2 
L 454.811566 34.38 
L 452.862226 34.38 
z
" clip-path="url(#p93c748c3db)" style="fill: #e8e8ff"/>
    <path d="M 454.811566 34.38 
L 454.811566 7.2 
L 456.760906 7.2 
L 456.760906 34.38 
L 454.811566 34.38 
z
" clip-path="url(#p93c748c3db)" style="fill: #fffefe"/>
    <path d="M 456.760906 34.38 
L 456.760906 7.2 
L 458.710246 7.2 
L 458.710246 34.38 
L 456.760906 34.38 
z
" clip-path="url(#p93c748c3db)" style="fill: #e8e8ff"/>
    <path d="M 458.710246 34.38 
L 458.710246 7.2 
L 460.659586 7.2 
L 460.659586 34.38 
L 458.710246 34.38 
z
" clip-path="url(#p93c748c3db)" style="fill: #fffefe"/>
    <path d="M 460.659586 34.38 
L 460.659586 7.2 
L 462.608926 7.2 
L 462.608926 34.38 
L 460.659586 34.38 
z
" clip-path="url(#p93c748c3db)" style="fill: #eaeaff"/>
    <path d="M 462.608926 34.38 
L 462.608926 7.2 
L 464.558266 7.2 
L 464.558266 34.38 
L 462.608926 34.38 
z
" clip-path="url(#p93c748c3db)" style="fill: #e6e6ff"/>
    <path d="M 464.558266 34.38 
L 464.558266 7.2 
L 466.507606 7.2 
L 466.507606 34.38 
L 464.558266 34.38 
z
" clip-path="url(#p93c748c3db)" style="fill: #ffecec"/>
    <path d="M 466.507606 34.38 
L 466.507606 7.2 
L 468.456946 7.2 
L 468.456946 34.38 
L 466.507606 34.38 
z
" clip-path="url(#p93c748c3db)" style="fill: #e4e4ff"/>
    <path d="M 468.456946 34.38 
L 468.456946 7.2 
L 470.406286 7.2 
L 470.406286 34.38 
L 468.456946 34.38 
z
" clip-path="url(#p93c748c3db)" style="fill: #dedeff"/>
    <path d="M 470.406286 34.38 
L 470.406286 7.2 
L 472.355626 7.2 
L 472.355626 34.38 
L 470.406286 34.38 
z
" clip-path="url(#p93c748c3db)" style="fill: #dadaff"/>
    <path d="M 472.355626 34.38 
L 472.355626 7.2 
L 474.304966 7.2 
L 474.304966 34.38 
L 472.355626 34.38 
z
" clip-path="url(#p93c748c3db)" style="fill: #e6e6ff"/>
    <path d="M 474.304966 34.38 
L 474.304966 7.2 
L 476.254306 7.2 
L 476.254306 34.38 
L 474.304966 34.38 
z
" clip-path="url(#p93c748c3db)" style="fill: #e6e6ff"/>
    <path d="M 476.254306 34.38 
L 476.254306 7.2 
L 478.203646 7.2 
L 478.203646 34.38 
L 476.254306 34.38 
z
" clip-path="url(#p93c748c3db)" style="fill: #ececff"/>
    <path d="M 478.203646 34.38 
L 478.203646 7.2 
L 480.152986 7.2 
L 480.152986 34.38 
L 478.203646 34.38 
z
" clip-path="url(#p93c748c3db)" style="fill: #eaeaff"/>
    <path d="M 480.152986 34.38 
L 480.152986 7.2 
L 482.102326 7.2 
L 482.102326 34.38 
L 480.152986 34.38 
z
" clip-path="url(#p93c748c3db)" style="fill: #d8d8ff"/>
    <path d="M 482.102326 34.38 
L 482.102326 7.2 
L 484.051666 7.2 
L 484.051666 34.38 
L 482.102326 34.38 
z
" clip-path="url(#p93c748c3db)" style="fill: #e8e8ff"/>
    <path d="M 484.051666 34.38 
L 484.051666 7.2 
L 486.001005 7.2 
L 486.001005 34.38 
L 484.051666 34.38 
z
" clip-path="url(#p93c748c3db)" style="fill: #e8e8ff"/>
    <path d="M 486.001005 34.38 
L 486.001005 7.2 
L 487.950345 7.2 
L 487.950345 34.38 
L 486.001005 34.38 
z
" clip-path="url(#p93c748c3db)" style="fill: #e8e8ff"/>
    <path d="M 487.950345 34.38 
L 487.950345 7.2 
L 489.899685 7.2 
L 489.899685 34.38 
L 487.950345 34.38 
z
" clip-path="url(#p93c748c3db)" style="fill: #e0e0ff"/>
    <path d="M 489.899685 34.38 
L 489.899685 7.2 
L 491.849025 7.2 
L 491.849025 34.38 
L 489.899685 34.38 
z
" clip-path="url(#p93c748c3db)" style="fill: #e0e0ff"/>
    <path d="M 491.849025 34.38 
L 491.849025 7.2 
L 493.798365 7.2 
L 493.798365 34.38 
L 491.849025 34.38 
z
" clip-path="url(#p93c748c3db)" style="fill: #cacaff"/>
    <path d="M 493.798365 34.38 
L 493.798365 7.2 
L 495.747705 7.2 
L 495.747705 34.38 
L 493.798365 34.38 
z
" clip-path="url(#p93c748c3db)" style="fill: #d8d8ff"/>
    <path d="M 495.747705 34.38 
L 495.747705 7.2 
L 497.697045 7.2 
L 497.697045 34.38 
L 495.747705 34.38 
z
" clip-path="url(#p93c748c3db)" style="fill: #ff5858"/>
    <path d="M 497.697045 34.38 
L 497.697045 7.2 
L 499.646385 7.2 
L 499.646385 34.38 
L 497.697045 34.38 
z
" clip-path="url(#p93c748c3db)" style="fill: #ff8686"/>
    <path d="M 499.646385 34.38 
L 499.646385 7.2 
L 501.595725 7.2 
L 501.595725 34.38 
L 499.646385 34.38 
z
" clip-path="url(#p93c748c3db)" style="fill: #ffaeae"/>
    <path d="M 501.595725 34.38 
L 501.595725 7.2 
L 503.545065 7.2 
L 503.545065 34.38 
L 501.595725 34.38 
z
" clip-path="url(#p93c748c3db)" style="fill: #ff7272"/>
    <path d="M 503.545065 34.38 
L 503.545065 7.2 
L 505.494405 7.2 
L 505.494405 34.38 
L 503.545065 34.38 
z
" clip-path="url(#p93c748c3db)" style="fill: #ff5454"/>
    <path d="M 505.494405 34.38 
L 505.494405 7.2 
L 507.443745 7.2 
L 507.443745 34.38 
L 505.494405 34.38 
z
" clip-path="url(#p93c748c3db)" style="fill: #ff6666"/>
    <path d="M 507.443745 34.38 
L 507.443745 7.2 
L 509.393085 7.2 
L 509.393085 34.38 
L 507.443745 34.38 
z
" clip-path="url(#p93c748c3db)" style="fill: #ff8e8e"/>
    <path d="M 509.393085 34.38 
L 509.393085 7.2 
L 511.342425 7.2 
L 511.342425 34.38 
L 509.393085 34.38 
z
" clip-path="url(#p93c748c3db)" style="fill: #ffa2a2"/>
    <path d="M 511.342425 34.38 
L 511.342425 7.2 
L 513.291765 7.2 
L 513.291765 34.38 
L 511.342425 34.38 
z
" clip-path="url(#p93c748c3db)" style="fill: #ffbcbc"/>
    <path d="M 513.291765 34.38 
L 513.291765 7.2 
L 515.241105 7.2 
L 515.241105 34.38 
L 513.291765 34.38 
z
" clip-path="url(#p93c748c3db)" style="fill: #fff0f0"/>
    <path d="M 515.241105 34.38 
L 515.241105 7.2 
L 517.190445 7.2 
L 517.190445 34.38 
L 515.241105 34.38 
z
" clip-path="url(#p93c748c3db)" style="fill: #ffcccc"/>
    <path d="M 517.190445 34.38 
L 517.190445 7.2 
L 519.139785 7.2 
L 519.139785 34.38 
L 517.190445 34.38 
z
" clip-path="url(#p93c748c3db)" style="fill: #bebeff"/>
    <path d="M 519.139785 34.38 
L 519.139785 7.2 
L 521.089125 7.2 
L 521.089125 34.38 
L 519.139785 34.38 
z
" clip-path="url(#p93c748c3db)" style="fill: #fff4f4"/>
    <path d="M 521.089125 34.38 
L 521.089125 7.2 
L 523.038465 7.2 
L 523.038465 34.38 
L 521.089125 34.38 
z
" clip-path="url(#p93c748c3db)" style="fill: #ffb4b4"/>
    <path d="M 523.038465 34.38 
L 523.038465 7.2 
L 524.987805 7.2 
L 524.987805 34.38 
L 523.038465 34.38 
z
" clip-path="url(#p93c748c3db)" style="fill: #ffe6e6"/>
    <path d="M 524.987805 34.38 
L 524.987805 7.2 
L 526.937145 7.2 
L 526.937145 34.38 
L 524.987805 34.38 
z
" clip-path="url(#p93c748c3db)" style="fill: #ffeaea"/>
    <path d="M 526.937145 34.38 
L 526.937145 7.2 
L 528.886485 7.2 
L 528.886485 34.38 
L 526.937145 34.38 
z
" clip-path="url(#p93c748c3db)" style="fill: #ff8484"/>
    <path d="M 528.886485 34.38 
L 528.886485 7.2 
L 530.835824 7.2 
L 530.835824 34.38 
L 528.886485 34.38 
z
" clip-path="url(#p93c748c3db)" style="fill: #ffcece"/>
    <path d="M 530.835824 34.38 
L 530.835824 7.2 
L 532.785164 7.2 
L 532.785164 34.38 
L 530.835824 34.38 
z
" clip-path="url(#p93c748c3db)" style="fill: #ff8686"/>
    <path d="M 532.785164 34.38 
L 532.785164 7.2 
L 534.734504 7.2 
L 534.734504 34.38 
L 532.785164 34.38 
z
" clip-path="url(#p93c748c3db)" style="fill: #ffe2e2"/>
    <path d="M 534.734504 34.38 
L 534.734504 7.2 
L 536.683844 7.2 
L 536.683844 34.38 
L 534.734504 34.38 
z
" clip-path="url(#p93c748c3db)" style="fill: #ffaeae"/>
    <path d="M 536.683844 34.38 
L 536.683844 7.2 
L 538.633184 7.2 
L 538.633184 34.38 
L 536.683844 34.38 
z
" clip-path="url(#p93c748c3db)" style="fill: #ffb2b2"/>
    <path d="M 538.633184 34.38 
L 538.633184 7.2 
L 540.582524 7.2 
L 540.582524 34.38 
L 538.633184 34.38 
z
" clip-path="url(#p93c748c3db)" style="fill: #ff8686"/>
    <path d="M 540.582524 34.38 
L 540.582524 7.2 
L 542.531864 7.2 
L 542.531864 34.38 
L 540.582524 34.38 
z
" clip-path="url(#p93c748c3db)" style="fill: #ffe4e4"/>
    <path d="M 542.531864 34.38 
L 542.531864 7.2 
L 544.481204 7.2 
L 544.481204 34.38 
L 542.531864 34.38 
z
" clip-path="url(#p93c748c3db)" style="fill: #ffa2a2"/>
    <path d="M 544.481204 34.38 
L 544.481204 7.2 
L 546.430544 7.2 
L 546.430544 34.38 
L 544.481204 34.38 
z
" clip-path="url(#p93c748c3db)" style="fill: #ffaaaa"/>
    <path d="M 546.430544 34.38 
L 546.430544 7.2 
L 548.379884 7.2 
L 548.379884 34.38 
L 546.430544 34.38 
z
" clip-path="url(#p93c748c3db)" style="fill: #ff7c7c"/>
    <path d="M 548.379884 34.38 
L 548.379884 7.2 
L 550.329224 7.2 
L 550.329224 34.38 
L 548.379884 34.38 
z
" clip-path="url(#p93c748c3db)" style="fill: #ffeeee"/>
    <path d="M 550.329224 34.38 
L 550.329224 7.2 
L 552.278564 7.2 
L 552.278564 34.38 
L 550.329224 34.38 
z
" clip-path="url(#p93c748c3db)" style="fill: #ffcaca"/>
    <path d="M 552.278564 34.38 
L 552.278564 7.2 
L 554.227904 7.2 
L 554.227904 34.38 
L 552.278564 34.38 
z
" clip-path="url(#p93c748c3db)" style="fill: #ffcece"/>
    <path d="M 554.227904 34.38 
L 554.227904 7.2 
L 556.177244 7.2 
L 556.177244 34.38 
L 554.227904 34.38 
z
" clip-path="url(#p93c748c3db)" style="fill: #ff9898"/>
    <path d="M 556.177244 34.38 
L 556.177244 7.2 
L 558.126584 7.2 
L 558.126584 34.38 
L 556.177244 34.38 
z
" clip-path="url(#p93c748c3db)" style="fill: #ffe6e6"/>
    <path d="M 558.126584 34.38 
L 558.126584 7.2 
L 560.075924 7.2 
L 560.075924 34.38 
L 558.126584 34.38 
z
" clip-path="url(#p93c748c3db)" style="fill: #ffb2b2"/>
    <path d="M 560.075924 34.38 
L 560.075924 7.2 
L 562.025264 7.2 
L 562.025264 34.38 
L 560.075924 34.38 
z
" clip-path="url(#p93c748c3db)" style="fill: #ffb6b6"/>
    <path d="M 562.025264 34.38 
L 562.025264 7.2 
L 563.974604 7.2 
L 563.974604 34.38 
L 562.025264 34.38 
z
" clip-path="url(#p93c748c3db)" style="fill: #ff6868"/>
    <path d="M 563.974604 34.38 
L 563.974604 7.2 
L 565.923944 7.2 
L 565.923944 34.38 
L 563.974604 34.38 
z
" clip-path="url(#p93c748c3db)" style="fill: #ffe4e4"/>
    <path d="M 565.923944 34.38 
L 565.923944 7.2 
L 567.873284 7.2 
L 567.873284 34.38 
L 565.923944 34.38 
z
" clip-path="url(#p93c748c3db)" style="fill: #ff6e6e"/>
    <path d="M 567.873284 34.38 
L 567.873284 7.2 
L 569.822624 7.2 
L 569.822624 34.38 
L 567.873284 34.38 
z
" clip-path="url(#p93c748c3db)" style="fill: #ffbcbc"/>
    <path d="M 569.822624 34.38 
L 569.822624 7.2 
L 571.771964 7.2 
L 571.771964 34.38 
L 569.822624 34.38 
z
" clip-path="url(#p93c748c3db)" style="fill: #ffeaea"/>
    <path d="M 571.771964 34.38 
L 571.771964 7.2 
L 573.721304 7.2 
L 573.721304 34.38 
L 571.771964 34.38 
z
" clip-path="url(#p93c748c3db)" style="fill: #fff2f2"/>
    <path d="M 573.721304 34.38 
L 573.721304 7.2 
L 575.670643 7.2 
L 575.670643 34.38 
L 573.721304 34.38 
z
" clip-path="url(#p93c748c3db)" style="fill: #ffcece"/>
    <path d="M 575.670643 34.38 
L 575.670643 7.2 
L 577.619983 7.2 
L 577.619983 34.38 
L 575.670643 34.38 
z
" clip-path="url(#p93c748c3db)" style="fill: #ffd6d6"/>
    <path d="M 577.619983 34.38 
L 577.619983 7.2 
L 579.569323 7.2 
L 579.569323 34.38 
L 577.619983 34.38 
z
" clip-path="url(#p93c748c3db)" style="fill: #ffcece"/>
    <path d="M 579.569323 34.38 
L 579.569323 7.2 
L 581.518663 7.2 
L 581.518663 34.38 
L 579.569323 34.38 
z
" clip-path="url(#p93c748c3db)" style="fill: #ffe4e4"/>
    <path d="M 581.518663 34.38 
L 581.518663 7.2 
L 583.468003 7.2 
L 583.468003 34.38 
L 581.518663 34.38 
z
" clip-path="url(#p93c748c3db)" style="fill: #ffd4d4"/>
    <path d="M 583.468003 34.38 
L 583.468003 7.2 
L 585.417343 7.2 
L 585.417343 34.38 
L 583.468003 34.38 
z
" clip-path="url(#p93c748c3db)" style="fill: #ffbebe"/>
    <path d="M 585.417343 34.38 
L 585.417343 7.2 
L 587.366683 7.2 
L 587.366683 34.38 
L 585.417343 34.38 
z
" clip-path="url(#p93c748c3db)" style="fill: #c4c4ff"/>
    <path d="M 587.366683 34.38 
L 587.366683 7.2 
L 589.316023 7.2 
L 589.316023 34.38 
L 587.366683 34.38 
z
" clip-path="url(#p93c748c3db)" style="fill: #ffeaea"/>
    <path d="M 589.316023 34.38 
L 589.316023 7.2 
L 591.265363 7.2 
L 591.265363 34.38 
L 589.316023 34.38 
z
" clip-path="url(#p93c748c3db)" style="fill: #ffd6d6"/>
    <path d="M 591.265363 34.38 
L 591.265363 7.2 
L 593.214703 7.2 
L 593.214703 34.38 
L 591.265363 34.38 
z
" clip-path="url(#p93c748c3db)" style="fill: #d4d4ff"/>
    <path d="M 593.214703 34.38 
L 593.214703 7.2 
L 595.164043 7.2 
L 595.164043 34.38 
L 593.214703 34.38 
z
" clip-path="url(#p93c748c3db)" style="fill: #ffd4d4"/>
    <path d="M 595.164043 34.38 
L 595.164043 7.2 
L 597.113383 7.2 
L 597.113383 34.38 
L 595.164043 34.38 
z
" clip-path="url(#p93c748c3db)" style="fill: #ffd0d0"/>
    <path d="M 597.113383 34.38 
L 597.113383 7.2 
L 599.062723 7.2 
L 599.062723 34.38 
L 597.113383 34.38 
z
" clip-path="url(#p93c748c3db)" style="fill: #ffdcdc"/>
    <path d="M 599.062723 34.38 
L 599.062723 7.2 
L 601.012063 7.2 
L 601.012063 34.38 
L 599.062723 34.38 
z
" clip-path="url(#p93c748c3db)" style="fill: #ffa2a2"/>
    <path d="M 601.012063 34.38 
L 601.012063 7.2 
L 602.961403 7.2 
L 602.961403 34.38 
L 601.012063 34.38 
z
" clip-path="url(#p93c748c3db)" style="fill: #ff7c7c"/>
    <path d="M 602.961403 34.38 
L 602.961403 7.2 
L 604.910743 7.2 
L 604.910743 34.38 
L 602.961403 34.38 
z
" clip-path="url(#p93c748c3db)" style="fill: #ff9090"/>
    <path d="M 604.910743 34.38 
L 604.910743 7.2 
L 606.860083 7.2 
L 606.860083 34.38 
L 604.910743 34.38 
z
" clip-path="url(#p93c748c3db)" style="fill: #aeaeff"/>
    <path d="M 606.860083 34.38 
L 606.860083 7.2 
L 608.809423 7.2 
L 608.809423 34.38 
L 606.860083 34.38 
z
" clip-path="url(#p93c748c3db)" style="fill: #b0b0ff"/>
    <path d="M 608.809423 34.38 
L 608.809423 7.2 
L 610.758763 7.2 
L 610.758763 34.38 
L 608.809423 34.38 
z
" clip-path="url(#p93c748c3db)" style="fill: #ececff"/>
    <path d="M 610.758763 34.38 
L 610.758763 7.2 
L 612.708103 7.2 
L 612.708103 34.38 
L 610.758763 34.38 
z
" clip-path="url(#p93c748c3db)" style="fill: #eeeeff"/>
    <path d="M 612.708103 34.38 
L 612.708103 7.2 
L 614.657443 7.2 
L 614.657443 34.38 
L 612.708103 34.38 
z
" clip-path="url(#p93c748c3db)" style="fill: #eeeeff"/>
    <path d="M 614.657443 34.38 
L 614.657443 7.2 
L 616.606783 7.2 
L 616.606783 34.38 
L 614.657443 34.38 
z
" clip-path="url(#p93c748c3db)" style="fill: #a6a6ff"/>
    <path d="M 616.606783 34.38 
L 616.606783 7.2 
L 618.556123 7.2 
L 618.556123 34.38 
L 616.606783 34.38 
z
" clip-path="url(#p93c748c3db)" style="fill: #b2b2ff"/>
    <path d="M 618.556123 34.38 
L 618.556123 7.2 
L 620.505462 7.2 
L 620.505462 34.38 
L 618.556123 34.38 
z
" clip-path="url(#p93c748c3db)" style="fill: #aaaaff"/>
    <path d="M 620.505462 34.38 
L 620.505462 7.2 
L 622.454802 7.2 
L 622.454802 34.38 
L 620.505462 34.38 
z
" clip-path="url(#p93c748c3db)" style="fill: #d8d8ff"/>
    <path d="M 622.454802 34.38 
L 622.454802 7.2 
L 624.404142 7.2 
L 624.404142 34.38 
L 622.454802 34.38 
z
" clip-path="url(#p93c748c3db)" style="fill: #ceceff"/>
    <path d="M 624.404142 34.38 
L 624.404142 7.2 
L 626.353482 7.2 
L 626.353482 34.38 
L 624.404142 34.38 
z
" clip-path="url(#p93c748c3db)" style="fill: #d0d0ff"/>
    <path d="M 626.353482 34.38 
L 626.353482 7.2 
L 628.302822 7.2 
L 628.302822 34.38 
L 626.353482 34.38 
z
" clip-path="url(#p93c748c3db)" style="fill: #ff7c7c"/>
    <path d="M 628.302822 34.38 
L 628.302822 7.2 
L 630.252162 7.2 
L 630.252162 34.38 
L 628.302822 34.38 
z
" clip-path="url(#p93c748c3db)" style="fill: #ff7474"/>
    <path d="M 630.252162 34.38 
L 630.252162 7.2 
L 632.201502 7.2 
L 632.201502 34.38 
L 630.252162 34.38 
z
" clip-path="url(#p93c748c3db)" style="fill: #ff6666"/>
    <path d="M 632.201502 34.38 
L 632.201502 7.2 
L 634.150842 7.2 
L 634.150842 34.38 
L 632.201502 34.38 
z
" clip-path="url(#p93c748c3db)" style="fill: #ff7272"/>
    <path d="M 634.150842 34.38 
L 634.150842 7.2 
L 636.100182 7.2 
L 636.100182 34.38 
L 634.150842 34.38 
z
" clip-path="url(#p93c748c3db)" style="fill: #ff7c7c"/>
    <path d="M 636.100182 34.38 
L 636.100182 7.2 
L 638.049522 7.2 
L 638.049522 34.38 
L 636.100182 34.38 
z
" clip-path="url(#p93c748c3db)" style="fill: #ff8282"/>
    <path d="M 638.049522 34.38 
L 638.049522 7.2 
L 639.998862 7.2 
L 639.998862 34.38 
L 638.049522 34.38 
z
" clip-path="url(#p93c748c3db)" style="fill: #ffdada"/>
    <path d="M 639.998862 34.38 
L 639.998862 7.2 
L 641.948202 7.2 
L 641.948202 34.38 
L 639.998862 34.38 
z
" clip-path="url(#p93c748c3db)" style="fill: #ffdada"/>
    <path d="M 641.948202 34.38 
L 641.948202 7.2 
L 643.897542 7.2 
L 643.897542 34.38 
L 641.948202 34.38 
z
" clip-path="url(#p93c748c3db)" style="fill: #ffe0e0"/>
    <path d="M 643.897542 34.38 
L 643.897542 7.2 
L 645.846882 7.2 
L 645.846882 34.38 
L 643.897542 34.38 
z
" clip-path="url(#p93c748c3db)" style="fill: #ff5050"/>
    <path d="M 645.846882 34.38 
L 645.846882 7.2 
L 647.796222 7.2 
L 647.796222 34.38 
L 645.846882 34.38 
z
" clip-path="url(#p93c748c3db)" style="fill: #ff6262"/>
    <path d="M 647.796222 34.38 
L 647.796222 7.2 
L 649.745562 7.2 
L 649.745562 34.38 
L 647.796222 34.38 
z
" clip-path="url(#p93c748c3db)" style="fill: #ff5050"/>
    <path d="M 649.745562 34.38 
L 649.745562 7.2 
L 651.694902 7.2 
L 651.694902 34.38 
L 649.745562 34.38 
z
" clip-path="url(#p93c748c3db)" style="fill: #ffaeae"/>
    <path d="M 651.694902 34.38 
L 651.694902 7.2 
L 653.644242 7.2 
L 653.644242 34.38 
L 651.694902 34.38 
z
" clip-path="url(#p93c748c3db)" style="fill: #ffaaaa"/>
    <path d="M 653.644242 34.38 
L 653.644242 7.2 
L 655.593582 7.2 
L 655.593582 34.38 
L 653.644242 34.38 
z
" clip-path="url(#p93c748c3db)" style="fill: #bcbcff"/>
    <path d="M 655.593582 34.38 
L 655.593582 7.2 
L 657.542922 7.2 
L 657.542922 34.38 
L 655.593582 34.38 
z
" clip-path="url(#p93c748c3db)" style="fill: #ff9292"/>
    <path d="M 657.542922 34.38 
L 657.542922 7.2 
L 659.492262 7.2 
L 659.492262 34.38 
L 657.542922 34.38 
z
" clip-path="url(#p93c748c3db)" style="fill: #ff8e8e"/>
    <path d="M 659.492262 34.38 
L 659.492262 7.2 
L 661.441602 7.2 
L 661.441602 34.38 
L 659.492262 34.38 
z
" clip-path="url(#p93c748c3db)" style="fill: #ffe4e4"/>
    <path d="M 661.441602 34.38 
L 661.441602 7.2 
L 663.390942 7.2 
L 663.390942 34.38 
L 661.441602 34.38 
z
" clip-path="url(#p93c748c3db)" style="fill: #ffe6e6"/>
    <path d="M 663.390942 34.38 
L 663.390942 7.2 
L 665.340281 7.2 
L 665.340281 34.38 
L 663.390942 34.38 
z
" clip-path="url(#p93c748c3db)" style="fill: #ffe4e4"/>
    <path d="M 665.340281 34.38 
L 665.340281 7.2 
L 667.289621 7.2 
L 667.289621 34.38 
L 665.340281 34.38 
z
" clip-path="url(#p93c748c3db)" style="fill: #ff7c7c"/>
    <path d="M 667.289621 34.38 
L 667.289621 7.2 
L 669.238961 7.2 
L 669.238961 34.38 
L 667.289621 34.38 
z
" clip-path="url(#p93c748c3db)" style="fill: #ff7c7c"/>
    <path d="M 669.238961 34.38 
L 669.238961 7.2 
L 671.188301 7.2 
L 671.188301 34.38 
L 669.238961 34.38 
z
" clip-path="url(#p93c748c3db)" style="fill: #ff8484"/>
    <path d="M 671.188301 34.38 
L 671.188301 7.2 
L 673.137641 7.2 
L 673.137641 34.38 
L 671.188301 34.38 
z
" clip-path="url(#p93c748c3db)" style="fill: #ffb6b6"/>
    <path d="M 673.137641 34.38 
L 673.137641 7.2 
L 675.086981 7.2 
L 675.086981 34.38 
L 673.137641 34.38 
z
" clip-path="url(#p93c748c3db)" style="fill: #ffb4b4"/>
    <path d="M 675.086981 34.38 
L 675.086981 7.2 
L 677.036321 7.2 
L 677.036321 34.38 
L 675.086981 34.38 
z
" clip-path="url(#p93c748c3db)" style="fill: #ffb6b6"/>
    <path d="M 677.036321 34.38 
L 677.036321 7.2 
L 678.985661 7.2 
L 678.985661 34.38 
L 677.036321 34.38 
z
" clip-path="url(#p93c748c3db)" style="fill: #e8e8ff"/>
    <path d="M 678.985661 34.38 
L 678.985661 7.2 
L 680.935001 7.2 
L 680.935001 34.38 
L 678.985661 34.38 
z
" clip-path="url(#p93c748c3db)" style="fill: #e6e6ff"/>
    <path d="M 680.935001 34.38 
L 680.935001 7.2 
L 682.884341 7.2 
L 682.884341 34.38 
L 680.935001 34.38 
z
" clip-path="url(#p93c748c3db)" style="fill: #e8e8ff"/>
    <path d="M 682.884341 34.38 
L 682.884341 7.2 
L 684.833681 7.2 
L 684.833681 34.38 
L 682.884341 34.38 
z
" clip-path="url(#p93c748c3db)" style="fill: #9090ff"/>
    <path d="M 684.833681 34.38 
L 684.833681 7.2 
L 686.783021 7.2 
L 686.783021 34.38 
L 684.833681 34.38 
z
" clip-path="url(#p93c748c3db)" style="fill: #9a9aff"/>
    <path d="M 686.783021 34.38 
L 686.783021 7.2 
L 688.732361 7.2 
L 688.732361 34.38 
L 686.783021 34.38 
z
" clip-path="url(#p93c748c3db)" style="fill: #9898ff"/>
    <path d="M 688.732361 34.38 
L 688.732361 7.2 
L 690.681701 7.2 
L 690.681701 34.38 
L 688.732361 34.38 
z
" clip-path="url(#p93c748c3db)" style="fill: #ccccff"/>
    <path d="M 690.681701 34.38 
L 690.681701 7.2 
L 692.631041 7.2 
L 692.631041 34.38 
L 690.681701 34.38 
z
" clip-path="url(#p93c748c3db)" style="fill: #bebeff"/>
    <path d="M 692.631041 34.38 
L 692.631041 7.2 
L 694.580381 7.2 
L 694.580381 34.38 
L 692.631041 34.38 
z
" clip-path="url(#p93c748c3db)" style="fill: #bcbcff"/>
    <path d="M 694.580381 34.38 
L 694.580381 7.2 
L 696.529721 7.2 
L 696.529721 34.38 
L 694.580381 34.38 
z
" clip-path="url(#p93c748c3db)" style="fill: #ff9e9e"/>
    <path d="M 696.529721 34.38 
L 696.529721 7.2 
L 698.479061 7.2 
L 698.479061 34.38 
L 696.529721 34.38 
z
" clip-path="url(#p93c748c3db)" style="fill: #ffa2a2"/>
    <path d="M 698.479061 34.38 
L 698.479061 7.2 
L 700.428401 7.2 
L 700.428401 34.38 
L 698.479061 34.38 
z
" clip-path="url(#p93c748c3db)" style="fill: #ffecec"/>
    <path d="M 700.428401 34.38 
L 700.428401 7.2 
L 702.377741 7.2 
L 702.377741 34.38 
L 700.428401 34.38 
z
" clip-path="url(#p93c748c3db)" style="fill: #ffeeee"/>
    <path d="M 702.377741 34.38 
L 702.377741 7.2 
L 704.327081 7.2 
L 704.327081 34.38 
L 702.377741 34.38 
z
" clip-path="url(#p93c748c3db)" style="fill: #ffeeee"/>
    <path d="M 704.327081 34.38 
L 704.327081 7.2 
L 706.276421 7.2 
L 706.276421 34.38 
L 704.327081 34.38 
z
" clip-path="url(#p93c748c3db)" style="fill: #ff8c8c"/>
    <path d="M 706.276421 34.38 
L 706.276421 7.2 
L 708.225761 7.2 
L 708.225761 34.38 
L 706.276421 34.38 
z
" clip-path="url(#p93c748c3db)" style="fill: #ff8c8c"/>
    <path d="M 708.225761 34.38 
L 708.225761 7.2 
L 710.1751 7.2 
L 710.1751 34.38 
L 708.225761 34.38 
z
" clip-path="url(#p93c748c3db)" style="fill: #ff9292"/>
    <path d="M 710.1751 34.38 
L 710.1751 7.2 
L 712.12444 7.2 
L 712.12444 34.38 
L 710.1751 34.38 
z
" clip-path="url(#p93c748c3db)" style="fill: #ffd0d0"/>
    <path d="M 712.12444 34.38 
L 712.12444 7.2 
L 714.07378 7.2 
L 714.07378 34.38 
L 712.12444 34.38 
z
" clip-path="url(#p93c748c3db)" style="fill: #ffcaca"/>
    <path d="M 714.07378 34.38 
L 714.07378 7.2 
L 716.02312 7.2 
L 716.02312 34.38 
L 714.07378 34.38 
z
" clip-path="url(#p93c748c3db)" style="fill: #ffcaca"/>
    <path d="M 716.02312 34.38 
L 716.02312 7.2 
L 717.97246 7.2 
L 717.97246 34.38 
L 716.02312 34.38 
z
" clip-path="url(#p93c748c3db)" style="fill: #ffacac"/>
    <path d="M 717.97246 34.38 
L 717.97246 7.2 
L 719.9218 7.2 
L 719.9218 34.38 
L 717.97246 34.38 
z
" clip-path="url(#p93c748c3db)" style="fill: #9494ff"/>
    <path d="M 719.9218 34.38 
L 719.9218 7.2 
L 721.87114 7.2 
L 721.87114 34.38 
L 719.9218 34.38 
z
" clip-path="url(#p93c748c3db)" style="fill: #8686ff"/>
    <path d="M 721.87114 34.38 
L 721.87114 7.2 
L 723.82048 7.2 
L 723.82048 34.38 
L 721.87114 34.38 
z
" clip-path="url(#p93c748c3db)" style="fill: #8e8eff"/>
    <path d="M 723.82048 34.38 
L 723.82048 7.2 
L 725.76982 7.2 
L 725.76982 34.38 
L 723.82048 34.38 
z
" clip-path="url(#p93c748c3db)" style="fill: #e4e4ff"/>
    <path d="M 725.76982 34.38 
L 725.76982 7.2 
L 727.71916 7.2 
L 727.71916 34.38 
L 725.76982 34.38 
z
" clip-path="url(#p93c748c3db)" style="fill: #e6e6ff"/>
    <path d="M 727.71916 34.38 
L 727.71916 7.2 
L 729.6685 7.2 
L 729.6685 34.38 
L 727.71916 34.38 
z
" clip-path="url(#p93c748c3db)" style="fill: #e6e6ff"/>
    <path d="M 729.6685 34.38 
L 729.6685 7.2 
L 731.61784 7.2 
L 731.61784 34.38 
L 729.6685 34.38 
z
" clip-path="url(#p93c748c3db)" style="fill: #7070ff"/>
    <path d="M 731.61784 34.38 
L 731.61784 7.2 
L 733.56718 7.2 
L 733.56718 34.38 
L 731.61784 34.38 
z
" clip-path="url(#p93c748c3db)" style="fill: #a8a8ff"/>
    <path d="M 733.56718 34.38 
L 733.56718 7.2 
L 735.51652 7.2 
L 735.51652 34.38 
L 733.56718 34.38 
z
" clip-path="url(#p93c748c3db)" style="fill: #9292ff"/>
    <path d="M 735.51652 34.38 
L 735.51652 7.2 
L 737.46586 7.2 
L 737.46586 34.38 
L 735.51652 34.38 
z
" clip-path="url(#p93c748c3db)" style="fill: #bebeff"/>
    <path d="M 737.46586 34.38 
L 737.46586 7.2 
L 739.4152 7.2 
L 739.4152 34.38 
L 737.46586 34.38 
z
" clip-path="url(#p93c748c3db)" style="fill: #b6b6ff"/>
    <path d="M 739.4152 34.38 
L 739.4152 7.2 
L 741.36454 7.2 
L 741.36454 34.38 
L 739.4152 34.38 
z
" clip-path="url(#p93c748c3db)" style="fill: #b8b8ff"/>
    <path d="M 741.36454 34.38 
L 741.36454 7.2 
L 743.31388 7.2 
L 743.31388 34.38 
L 741.36454 34.38 
z
" clip-path="url(#p93c748c3db)" style="fill: #ffecec"/>
    <path d="M 743.31388 34.38 
L 743.31388 7.2 
L 745.26322 7.2 
L 745.26322 34.38 
L 743.31388 34.38 
z
" clip-path="url(#p93c748c3db)" style="fill: #ffeeee"/>
    <path d="M 745.26322 34.38 
L 745.26322 7.2 
L 747.21256 7.2 
L 747.21256 34.38 
L 745.26322 34.38 
z
" clip-path="url(#p93c748c3db)" style="fill: #ffeeee"/>
    <path d="M 747.21256 34.38 
L 747.21256 7.2 
L 749.1619 7.2 
L 749.1619 34.38 
L 747.21256 34.38 
z
" clip-path="url(#p93c748c3db)" style="fill: #ffc6c6"/>
    <path d="M 749.1619 34.38 
L 749.1619 7.2 
L 751.11124 7.2 
L 751.11124 34.38 
L 749.1619 34.38 
z
" clip-path="url(#p93c748c3db)" style="fill: #ffc8c8"/>
    <path d="M 751.11124 34.38 
L 751.11124 7.2 
L 753.06058 7.2 
L 753.06058 34.38 
L 751.11124 34.38 
z
" clip-path="url(#p93c748c3db)" style="fill: #ffc6c6"/>
    <path d="M 753.06058 34.38 
L 753.06058 7.2 
L 755.00992 7.2 
L 755.00992 34.38 
L 753.06058 34.38 
z
" clip-path="url(#p93c748c3db)" style="fill: #ffe8e8"/>
    <path d="M 755.00992 34.38 
L 755.00992 7.2 
L 756.959259 7.2 
L 756.959259 34.38 
L 755.00992 34.38 
z
" clip-path="url(#p93c748c3db)" style="fill: #ffe8e8"/>
    <path d="M 756.959259 34.38 
L 756.959259 7.2 
L 758.908599 7.2 
L 758.908599 34.38 
L 756.959259 34.38 
z
" clip-path="url(#p93c748c3db)" style="fill: #ffeaea"/>
    <path d="M 758.908599 34.38 
L 758.908599 7.2 
L 760.857939 7.2 
L 760.857939 34.38 
L 758.908599 34.38 
z
" clip-path="url(#p93c748c3db)" style="fill: #ff8484"/>
    <path d="M 760.857939 34.38 
L 760.857939 7.2 
L 762.807279 7.2 
L 762.807279 34.38 
L 760.857939 34.38 
z
" clip-path="url(#p93c748c3db)" style="fill: #ff8a8a"/>
    <path d="M 762.807279 34.38 
L 762.807279 7.2 
L 764.756619 7.2 
L 764.756619 34.38 
L 762.807279 34.38 
z
" clip-path="url(#p93c748c3db)" style="fill: #ff8080"/>
    <path d="M 764.756619 34.38 
L 764.756619 7.2 
L 766.705959 7.2 
L 766.705959 34.38 
L 764.756619 34.38 
z
" clip-path="url(#p93c748c3db)" style="fill: #ffcece"/>
    <path d="M 766.705959 34.38 
L 766.705959 7.2 
L 768.655299 7.2 
L 768.655299 34.38 
L 766.705959 34.38 
z
" clip-path="url(#p93c748c3db)" style="fill: #ffd0d0"/>
    <path d="M 768.655299 34.38 
L 768.655299 7.2 
L 770.604639 7.2 
L 770.604639 34.38 
L 768.655299 34.38 
z
" clip-path="url(#p93c748c3db)" style="fill: #ffd0d0"/>
    <path d="M 770.604639 34.38 
L 770.604639 7.2 
L 772.553979 7.2 
L 772.553979 34.38 
L 770.604639 34.38 
z
" clip-path="url(#p93c748c3db)" style="fill: #ff3e3e"/>
    <path d="M 772.553979 34.38 
L 772.553979 7.2 
L 774.503319 7.2 
L 774.503319 34.38 
L 772.553979 34.38 
z
" clip-path="url(#p93c748c3db)" style="fill: #ff3232"/>
    <path d="M 774.503319 34.38 
L 774.503319 7.2 
L 776.452659 7.2 
L 776.452659 34.38 
L 774.503319 34.38 
z
" clip-path="url(#p93c748c3db)" style="fill: #ff3838"/>
    <path d="M 776.452659 34.38 
L 776.452659 7.2 
L 778.401999 7.2 
L 778.401999 34.38 
L 776.452659 34.38 
z
" clip-path="url(#p93c748c3db)" style="fill: #ffdede"/>
    <path d="M 778.401999 34.38 
L 778.401999 7.2 
L 780.351339 7.2 
L 780.351339 34.38 
L 778.401999 34.38 
z
" clip-path="url(#p93c748c3db)" style="fill: #ffe6e6"/>
    <path d="M 780.351339 34.38 
L 780.351339 7.2 
L 782.300679 7.2 
L 782.300679 34.38 
L 780.351339 34.38 
z
" clip-path="url(#p93c748c3db)" style="fill: #ffe4e4"/>
    <path d="M 782.300679 34.38 
L 782.300679 7.2 
L 784.250019 7.2 
L 784.250019 34.38 
L 782.300679 34.38 
z
" clip-path="url(#p93c748c3db)" style="fill: #ff7676"/>
    <path d="M 784.250019 34.38 
L 784.250019 7.2 
L 786.199359 7.2 
L 786.199359 34.38 
L 784.250019 34.38 
z
" clip-path="url(#p93c748c3db)" style="fill: #ff6666"/>
    <path d="M 786.199359 34.38 
L 786.199359 7.2 
L 788.148699 7.2 
L 788.148699 34.38 
L 786.199359 34.38 
z
" clip-path="url(#p93c748c3db)" style="fill: #ff4c4c"/>
    <path d="M 788.148699 34.38 
L 788.148699 7.2 
L 790.098039 7.2 
L 790.098039 34.38 
L 788.148699 34.38 
z
" clip-path="url(#p93c748c3db)" style="fill: #ffc4c4"/>
    <path d="M 790.098039 34.38 
L 790.098039 7.2 
L 792.047379 7.2 
L 792.047379 34.38 
L 790.098039 34.38 
z
" clip-path="url(#p93c748c3db)" style="fill: #ffc2c2"/>
    <path d="M 792.047379 34.38 
L 792.047379 7.2 
L 793.996719 7.2 
L 793.996719 34.38 
L 792.047379 34.38 
z
" clip-path="url(#p93c748c3db)" style="fill: #ffc0c0"/>
    <path d="M 793.996719 34.38 
L 793.996719 7.2 
L 795.946059 7.2 
L 795.946059 34.38 
L 793.996719 34.38 
z
" clip-path="url(#p93c748c3db)" style="fill: #ff5252"/>
    <path d="M 795.946059 34.38 
L 795.946059 7.2 
L 797.895399 7.2 
L 797.895399 34.38 
L 795.946059 34.38 
z
" clip-path="url(#p93c748c3db)" style="fill: #ff3a3a"/>
    <path d="M 797.895399 34.38 
L 797.895399 7.2 
L 799.844739 7.2 
L 799.844739 34.38 
L 797.895399 34.38 
z
" clip-path="url(#p93c748c3db)" style="fill: #ff3e3e"/>
    <path d="M 799.844739 34.38 
L 799.844739 7.2 
L 801.794078 7.2 
L 801.794078 34.38 
L 799.844739 34.38 
z
" clip-path="url(#p93c748c3db)" style="fill: #ffe0e0"/>
    <path d="M 801.794078 34.38 
L 801.794078 7.2 
L 803.743418 7.2 
L 803.743418 34.38 
L 801.794078 34.38 
z
" clip-path="url(#p93c748c3db)" style="fill: #ffe4e4"/>
    <path d="M 803.743418 34.38 
L 803.743418 7.2 
L 805.692758 7.2 
L 805.692758 34.38 
L 803.743418 34.38 
z
" clip-path="url(#p93c748c3db)" style="fill: #ffe2e2"/>
    <path d="M 805.692758 34.38 
L 805.692758 7.2 
L 807.642098 7.2 
L 807.642098 34.38 
L 805.692758 34.38 
z
" clip-path="url(#p93c748c3db)" style="fill: #ff5858"/>
    <path d="M 807.642098 34.38 
L 807.642098 7.2 
L 809.591438 7.2 
L 809.591438 34.38 
L 807.642098 34.38 
z
" clip-path="url(#p93c748c3db)" style="fill: #ff4a4a"/>
    <path d="M 809.591438 34.38 
L 809.591438 7.2 
L 811.540778 7.2 
L 811.540778 34.38 
L 809.591438 34.38 
z
" clip-path="url(#p93c748c3db)" style="fill: #ff4e4e"/>
    <path d="M 811.540778 34.38 
L 811.540778 7.2 
L 813.490118 7.2 
L 813.490118 34.38 
L 811.540778 34.38 
z
" clip-path="url(#p93c748c3db)" style="fill: #ffb8b8"/>
    <path d="M 813.490118 34.38 
L 813.490118 7.2 
L 815.439458 7.2 
L 815.439458 34.38 
L 813.490118 34.38 
z
" clip-path="url(#p93c748c3db)" style="fill: #ffbebe"/>
    <path d="M 815.439458 34.38 
L 815.439458 7.2 
L 817.388798 7.2 
L 817.388798 34.38 
L 815.439458 34.38 
z
" clip-path="url(#p93c748c3db)" style="fill: #ffb6b6"/>
    <path d="M 817.388798 34.38 
L 817.388798 7.2 
L 819.338138 7.2 
L 819.338138 34.38 
L 817.388798 34.38 
z
" clip-path="url(#p93c748c3db)" style="fill: #6c6cff"/>
    <path d="M 819.338138 34.38 
L 819.338138 7.2 
L 821.287478 7.2 
L 821.287478 34.38 
L 819.338138 34.38 
z
" clip-path="url(#p93c748c3db)" style="fill: #7c7cff"/>
    <path d="M 821.287478 34.38 
L 821.287478 7.2 
L 823.236818 7.2 
L 823.236818 34.38 
L 821.287478 34.38 
z
" clip-path="url(#p93c748c3db)" style="fill: #7272ff"/>
    <path d="M 823.236818 34.38 
L 823.236818 7.2 
L 825.186158 7.2 
L 825.186158 34.38 
L 823.236818 34.38 
z
" clip-path="url(#p93c748c3db)" style="fill: #5656ff"/>
    <path d="M 825.186158 34.38 
L 825.186158 7.2 
L 827.135498 7.2 
L 827.135498 34.38 
L 825.186158 34.38 
z
" clip-path="url(#p93c748c3db)" style="fill: #a2a2ff"/>
    <path d="M 827.135498 34.38 
L 827.135498 7.2 
L 829.084838 7.2 
L 829.084838 34.38 
L 827.135498 34.38 
z
" clip-path="url(#p93c748c3db)" style="fill: #ffe2e2"/>
    <path d="M 829.084838 34.38 
L 829.084838 7.2 
L 831.034178 7.2 
L 831.034178 34.38 
L 829.084838 34.38 
z
" clip-path="url(#p93c748c3db)" style="fill: #ffdada"/>
    <path d="M 831.034178 34.38 
L 831.034178 7.2 
L 832.983518 7.2 
L 832.983518 34.38 
L 831.034178 34.38 
z
" clip-path="url(#p93c748c3db)" style="fill: #ffe8e8"/>
    <path d="M 832.983518 34.38 
L 832.983518 7.2 
L 834.932858 7.2 
L 834.932858 34.38 
L 832.983518 34.38 
z
" clip-path="url(#p93c748c3db)" style="fill: #d2d2ff"/>
    <path d="M 834.932858 34.38 
L 834.932858 7.2 
L 836.882198 7.2 
L 836.882198 34.38 
L 834.932858 34.38 
z
" clip-path="url(#p93c748c3db)" style="fill: #dcdcff"/>
    <path d="M 836.882198 34.38 
L 836.882198 7.2 
L 838.831538 7.2 
L 838.831538 34.38 
L 836.882198 34.38 
z
" clip-path="url(#p93c748c3db)" style="fill: #eaeaff"/>
    <path d="M 838.831538 34.38 
L 838.831538 7.2 
L 840.780878 7.2 
L 840.780878 34.38 
L 838.831538 34.38 
z
" clip-path="url(#p93c748c3db)" style="fill: #ff6262"/>
    <path d="M 840.780878 34.38 
L 840.780878 7.2 
L 842.730218 7.2 
L 842.730218 34.38 
L 840.780878 34.38 
z
" clip-path="url(#p93c748c3db)" style="fill: #ff7474"/>
    <path d="M 842.730218 34.38 
L 842.730218 7.2 
L 844.679558 7.2 
L 844.679558 34.38 
L 842.730218 34.38 
z
" clip-path="url(#p93c748c3db)" style="fill: #ffc2c2"/>
    <path d="M 844.679558 34.38 
L 844.679558 7.2 
L 846.628897 7.2 
L 846.628897 34.38 
L 844.679558 34.38 
z
" clip-path="url(#p93c748c3db)" style="fill: #ffcccc"/>
    <path d="M 846.628897 34.38 
L 846.628897 7.2 
L 848.578237 7.2 
L 848.578237 34.38 
L 846.628897 34.38 
z
" clip-path="url(#p93c748c3db)" style="fill: #ff9696"/>
    <path d="M 848.578237 34.38 
L 848.578237 7.2 
L 850.527577 7.2 
L 850.527577 34.38 
L 848.578237 34.38 
z
" clip-path="url(#p93c748c3db)" style="fill: #ffb0b0"/>
    <path d="M 850.527577 34.38 
L 850.527577 7.2 
L 852.476917 7.2 
L 852.476917 34.38 
L 850.527577 34.38 
z
" clip-path="url(#p93c748c3db)" style="fill: #ffe6e6"/>
    <path d="M 852.476917 34.38 
L 852.476917 7.2 
L 854.426257 7.2 
L 854.426257 34.38 
L 852.476917 34.38 
z
" clip-path="url(#p93c748c3db)" style="fill: #ff8e8e"/>
    <path d="M 854.426257 34.38 
L 854.426257 7.2 
L 856.375597 7.2 
L 856.375597 34.38 
L 854.426257 34.38 
z
" clip-path="url(#p93c748c3db)" style="fill: #ffe8e8"/>
    <path d="M 856.375597 34.38 
L 856.375597 7.2 
L 858.324937 7.2 
L 858.324937 34.38 
L 856.375597 34.38 
z
" clip-path="url(#p93c748c3db)" style="fill: #ffb8b8"/>
    <path d="M 858.324937 34.38 
L 858.324937 7.2 
L 860.274277 7.2 
L 860.274277 34.38 
L 858.324937 34.38 
z
" clip-path="url(#p93c748c3db)" style="fill: #ffb6b6"/>
    <path d="M 860.274277 34.38 
L 860.274277 7.2 
L 862.223617 7.2 
L 862.223617 34.38 
L 860.274277 34.38 
z
" clip-path="url(#p93c748c3db)" style="fill: #ffaeae"/>
    <path d="M 862.223617 34.38 
L 862.223617 7.2 
L 864.172957 7.2 
L 864.172957 34.38 
L 862.223617 34.38 
z
" clip-path="url(#p93c748c3db)" style="fill: #ffeaea"/>
    <path d="M 864.172957 34.38 
L 864.172957 7.2 
L 866.122297 7.2 
L 866.122297 34.38 
L 864.172957 34.38 
z
" clip-path="url(#p93c748c3db)" style="fill: #ffb2b2"/>
    <path d="M 866.122297 34.38 
L 866.122297 7.2 
L 868.071637 7.2 
L 868.071637 34.38 
L 866.122297 34.38 
z
" clip-path="url(#p93c748c3db)" style="fill: #ff8c8c"/>
    <path d="M 868.071637 34.38 
L 868.071637 7.2 
L 870.020977 7.2 
L 870.020977 34.38 
L 868.071637 34.38 
z
" clip-path="url(#p93c748c3db)" style="fill: #ffa0a0"/>
    <path d="M 870.020977 34.38 
L 870.020977 7.2 
L 871.970317 7.2 
L 871.970317 34.38 
L 870.020977 34.38 
z
" clip-path="url(#p93c748c3db)" style="fill: #ff9696"/>
    <path d="M 871.970317 34.38 
L 871.970317 7.2 
L 873.919657 7.2 
L 873.919657 34.38 
L 871.970317 34.38 
z
" clip-path="url(#p93c748c3db)" style="fill: #ff9c9c"/>
    <path d="M 873.919657 34.38 
L 873.919657 7.2 
L 875.868997 7.2 
L 875.868997 34.38 
L 873.919657 34.38 
z
" clip-path="url(#p93c748c3db)" style="fill: #ff9e9e"/>
    <path d="M 875.868997 34.38 
L 875.868997 7.2 
L 877.818337 7.2 
L 877.818337 34.38 
L 875.868997 34.38 
z
" clip-path="url(#p93c748c3db)" style="fill: #ffd2d2"/>
    <path d="M 877.818337 34.38 
L 877.818337 7.2 
L 879.767677 7.2 
L 879.767677 34.38 
L 877.818337 34.38 
z
" clip-path="url(#p93c748c3db)" style="fill: #ffa2a2"/>
    <path d="M 879.767677 34.38 
L 879.767677 7.2 
L 881.717017 7.2 
L 881.717017 34.38 
L 879.767677 34.38 
z
" clip-path="url(#p93c748c3db)" style="fill: #ffa4a4"/>
    <path d="M 881.717017 34.38 
L 881.717017 7.2 
L 883.666357 7.2 
L 883.666357 34.38 
L 881.717017 34.38 
z
" clip-path="url(#p93c748c3db)" style="fill: #ffdede"/>
    <path d="M 883.666357 34.38 
L 883.666357 7.2 
L 885.615697 7.2 
L 885.615697 34.38 
L 883.666357 34.38 
z
" clip-path="url(#p93c748c3db)" style="fill: #ffb6b6"/>
    <path d="M 885.615697 34.38 
L 885.615697 7.2 
L 887.565037 7.2 
L 887.565037 34.38 
L 885.615697 34.38 
z
" clip-path="url(#p93c748c3db)" style="fill: #ffa0a0"/>
    <path d="M 887.565037 34.38 
L 887.565037 7.2 
L 889.514377 7.2 
L 889.514377 34.38 
L 887.565037 34.38 
z
" clip-path="url(#p93c748c3db)" style="fill: #ffd4d4"/>
    <path d="M 889.514377 34.38 
L 889.514377 7.2 
L 891.463716 7.2 
L 891.463716 34.38 
L 889.514377 34.38 
z
" clip-path="url(#p93c748c3db)" style="fill: #f0f0ff"/>
    <path d="M 891.463716 34.38 
L 891.463716 7.2 
L 893.413056 7.2 
L 893.413056 34.38 
L 891.463716 34.38 
z
" clip-path="url(#p93c748c3db)" style="fill: #e8e8ff"/>
    <path d="M 893.413056 34.38 
L 893.413056 7.2 
L 895.362396 7.2 
L 895.362396 34.38 
L 893.413056 34.38 
z
" clip-path="url(#p93c748c3db)" style="fill: #ceceff"/>
    <path d="M 895.362396 34.38 
L 895.362396 7.2 
L 897.311736 7.2 
L 897.311736 34.38 
L 895.362396 34.38 
z
" clip-path="url(#p93c748c3db)" style="fill: #bebeff"/>
    <path d="M 897.311736 34.38 
L 897.311736 7.2 
L 899.261076 7.2 
L 899.261076 34.38 
L 897.311736 34.38 
z
" clip-path="url(#p93c748c3db)" style="fill: #c2c2ff"/>
    <path d="M 899.261076 34.38 
L 899.261076 7.2 
L 901.210416 7.2 
L 901.210416 34.38 
L 899.261076 34.38 
z
" clip-path="url(#p93c748c3db)" style="fill: #eaeaff"/>
    <path d="M 901.210416 34.38 
L 901.210416 7.2 
L 903.159756 7.2 
L 903.159756 34.38 
L 901.210416 34.38 
z
" clip-path="url(#p93c748c3db)" style="fill: #e8e8ff"/>
    <path d="M 903.159756 34.38 
L 903.159756 7.2 
L 905.109096 7.2 
L 905.109096 34.38 
L 903.159756 34.38 
z
" clip-path="url(#p93c748c3db)" style="fill: #ffb2b2"/>
    <path d="M 905.109096 34.38 
L 905.109096 7.2 
L 907.058436 7.2 
L 907.058436 34.38 
L 905.109096 34.38 
z
" clip-path="url(#p93c748c3db)" style="fill: #ffaaaa"/>
    <path d="M 907.058436 34.38 
L 907.058436 7.2 
L 909.007776 7.2 
L 909.007776 34.38 
L 907.058436 34.38 
z
" clip-path="url(#p93c748c3db)" style="fill: #ffdada"/>
    <path d="M 909.007776 34.38 
L 909.007776 7.2 
L 910.957116 7.2 
L 910.957116 34.38 
L 909.007776 34.38 
z
" clip-path="url(#p93c748c3db)" style="fill: #ffd8d8"/>
    <path d="M 910.957116 34.38 
L 910.957116 7.2 
L 912.906456 7.2 
L 912.906456 34.38 
L 910.957116 34.38 
z
" clip-path="url(#p93c748c3db)" style="fill: #ffdada"/>
    <path d="M 912.906456 34.38 
L 912.906456 7.2 
L 914.855796 7.2 
L 914.855796 34.38 
L 912.906456 34.38 
z
" clip-path="url(#p93c748c3db)" style="fill: #ffc8c8"/>
    <path d="M 914.855796 34.38 
L 914.855796 7.2 
L 916.805136 7.2 
L 916.805136 34.38 
L 914.855796 34.38 
z
" clip-path="url(#p93c748c3db)" style="fill: #ffd0d0"/>
    <path d="M 916.805136 34.38 
L 916.805136 7.2 
L 918.754476 7.2 
L 918.754476 34.38 
L 916.805136 34.38 
z
" clip-path="url(#p93c748c3db)" style="fill: #ffc0c0"/>
    <path d="M 918.754476 34.38 
L 918.754476 7.2 
L 920.703816 7.2 
L 920.703816 34.38 
L 918.754476 34.38 
z
" clip-path="url(#p93c748c3db)" style="fill: #ffcaca"/>
    <path d="M 920.703816 34.38 
L 920.703816 7.2 
L 922.653156 7.2 
L 922.653156 34.38 
L 920.703816 34.38 
z
" clip-path="url(#p93c748c3db)" style="fill: #ffa8a8"/>
    <path d="M 922.653156 34.38 
L 922.653156 7.2 
L 924.602496 7.2 
L 924.602496 34.38 
L 922.653156 34.38 
z
" clip-path="url(#p93c748c3db)" style="fill: #ffb2b2"/>
    <path d="M 924.602496 34.38 
L 924.602496 7.2 
L 926.551836 7.2 
L 926.551836 34.38 
L 924.602496 34.38 
z
" clip-path="url(#p93c748c3db)" style="fill: #ffb0b0"/>
    <path d="M 926.551836 34.38 
L 926.551836 7.2 
L 928.501176 7.2 
L 928.501176 34.38 
L 926.551836 34.38 
z
" clip-path="url(#p93c748c3db)" style="fill: #ffe4e4"/>
    <path d="M 928.501176 34.38 
L 928.501176 7.2 
L 930.450516 7.2 
L 930.450516 34.38 
L 928.501176 34.38 
z
" clip-path="url(#p93c748c3db)" style="fill: #ffe0e0"/>
    <path d="M 930.450516 34.38 
L 930.450516 7.2 
L 932.399856 7.2 
L 932.399856 34.38 
L 930.450516 34.38 
z
" clip-path="url(#p93c748c3db)" style="fill: #ffdede"/>
    <path d="M 932.399856 34.38 
L 932.399856 7.2 
L 934.349196 7.2 
L 934.349196 34.38 
L 932.399856 34.38 
z
" clip-path="url(#p93c748c3db)" style="fill: #ffdede"/>
    <path d="M 934.349196 34.38 
L 934.349196 7.2 
L 936.298535 7.2 
L 936.298535 34.38 
L 934.349196 34.38 
z
" clip-path="url(#p93c748c3db)" style="fill: #ffdada"/>
    <path d="M 936.298535 34.38 
L 936.298535 7.2 
L 938.247875 7.2 
L 938.247875 34.38 
L 936.298535 34.38 
z
" clip-path="url(#p93c748c3db)" style="fill: #ccccff"/>
    <path d="M 938.247875 34.38 
L 938.247875 7.2 
L 940.197215 7.2 
L 940.197215 34.38 
L 938.247875 34.38 
z
" clip-path="url(#p93c748c3db)" style="fill: #b2b2ff"/>
    <path d="M 940.197215 34.38 
L 940.197215 7.2 
L 942.146555 7.2 
L 942.146555 34.38 
L 940.197215 34.38 
z
" clip-path="url(#p93c748c3db)" style="fill: #b8b8ff"/>
    <path d="M 942.146555 34.38 
L 942.146555 7.2 
L 944.095895 7.2 
L 944.095895 34.38 
L 942.146555 34.38 
z
" clip-path="url(#p93c748c3db)" style="fill: #e6e6ff"/>
    <path d="M 944.095895 34.38 
L 944.095895 7.2 
L 946.045235 7.2 
L 946.045235 34.38 
L 944.095895 34.38 
z
" clip-path="url(#p93c748c3db)" style="fill: #e4e4ff"/>
    <path d="M 946.045235 34.38 
L 946.045235 7.2 
L 947.994575 7.2 
L 947.994575 34.38 
L 946.045235 34.38 
z
" clip-path="url(#p93c748c3db)" style="fill: #d8d8ff"/>
    <path d="M 947.994575 34.38 
L 947.994575 7.2 
L 949.943915 7.2 
L 949.943915 34.38 
L 947.994575 34.38 
z
" clip-path="url(#p93c748c3db)" style="fill: #d4d4ff"/>
    <path d="M 949.943915 34.38 
L 949.943915 7.2 
L 951.893255 7.2 
L 951.893255 34.38 
L 949.943915 34.38 
z
" clip-path="url(#p93c748c3db)" style="fill: #d4d4ff"/>
    <path d="M 951.893255 34.38 
L 951.893255 7.2 
L 953.842595 7.2 
L 953.842595 34.38 
L 951.893255 34.38 
z
" clip-path="url(#p93c748c3db)" style="fill: #ffbebe"/>
    <path d="M 953.842595 34.38 
L 953.842595 7.2 
L 955.791935 7.2 
L 955.791935 34.38 
L 953.842595 34.38 
z
" clip-path="url(#p93c748c3db)" style="fill: #ffcaca"/>
    <path d="M 955.791935 34.38 
L 955.791935 7.2 
L 957.741275 7.2 
L 957.741275 34.38 
L 955.791935 34.38 
z
" clip-path="url(#p93c748c3db)" style="fill: #ffe4e4"/>
    <path d="M 957.741275 34.38 
L 957.741275 7.2 
L 959.690615 7.2 
L 959.690615 34.38 
L 957.741275 34.38 
z
" clip-path="url(#p93c748c3db)" style="fill: #ffe6e6"/>
    <path d="M 959.690615 34.38 
L 959.690615 7.2 
L 961.639955 7.2 
L 961.639955 34.38 
L 959.690615 34.38 
z
" clip-path="url(#p93c748c3db)" style="fill: #ffe4e4"/>
    <path d="M 961.639955 34.38 
L 961.639955 7.2 
L 963.589295 7.2 
L 963.589295 34.38 
L 961.639955 34.38 
z
" clip-path="url(#p93c748c3db)" style="fill: #ff6a6a"/>
    <path d="M 963.589295 34.38 
L 963.589295 7.2 
L 965.538635 7.2 
L 965.538635 34.38 
L 963.589295 34.38 
z
" clip-path="url(#p93c748c3db)" style="fill: #ffcccc"/>
    <path d="M 965.538635 34.38 
L 965.538635 7.2 
L 967.487975 7.2 
L 967.487975 34.38 
L 965.538635 34.38 
z
" clip-path="url(#p93c748c3db)" style="fill: #ffacac"/>
    <path d="M 967.487975 34.38 
L 967.487975 7.2 
L 969.437315 7.2 
L 969.437315 34.38 
L 967.487975 34.38 
z
" clip-path="url(#p93c748c3db)" style="fill: #ffacac"/>
    <path d="M 969.437315 34.38 
L 969.437315 7.2 
L 971.386655 7.2 
L 971.386655 34.38 
L 969.437315 34.38 
z
" clip-path="url(#p93c748c3db)" style="fill: #ffa4a4"/>
    <path d="M 971.386655 34.38 
L 971.386655 7.2 
L 973.335995 7.2 
L 973.335995 34.38 
L 971.386655 34.38 
z
" clip-path="url(#p93c748c3db)" style="fill: #a4a4ff"/>
    <path d="M 973.335995 34.38 
L 973.335995 7.2 
L 975.285335 7.2 
L 975.285335 34.38 
L 973.335995 34.38 
z
" clip-path="url(#p93c748c3db)" style="fill: #aaaaff"/>
    <path d="M 975.285335 34.38 
L 975.285335 7.2 
L 977.234675 7.2 
L 977.234675 34.38 
L 975.285335 34.38 
z
" clip-path="url(#p93c748c3db)" style="fill: #a8a8ff"/>
    <path d="M 977.234675 34.38 
L 977.234675 7.2 
L 979.184015 7.2 
L 979.184015 34.38 
L 977.234675 34.38 
z
" clip-path="url(#p93c748c3db)" style="fill: #dadaff"/>
    <path d="M 979.184015 34.38 
L 979.184015 7.2 
L 981.133354 7.2 
L 981.133354 34.38 
L 979.184015 34.38 
z
" clip-path="url(#p93c748c3db)" style="fill: #dedeff"/>
    <path d="M 981.133354 34.38 
L 981.133354 7.2 
L 983.082694 7.2 
L 983.082694 34.38 
L 981.133354 34.38 
z
" clip-path="url(#p93c748c3db)" style="fill: #e0e0ff"/>
    <path d="M 983.082694 34.38 
L 983.082694 7.2 
L 985.032034 7.2 
L 985.032034 34.38 
L 983.082694 34.38 
z
" clip-path="url(#p93c748c3db)" style="fill: #ffa8a8"/>
    <path d="M 985.032034 34.38 
L 985.032034 7.2 
L 986.981374 7.2 
L 986.981374 34.38 
L 985.032034 34.38 
z
" clip-path="url(#p93c748c3db)" style="fill: #ff9a9a"/>
    <path d="M 986.981374 34.38 
L 986.981374 7.2 
L 988.930714 7.2 
L 988.930714 34.38 
L 986.981374 34.38 
z
" clip-path="url(#p93c748c3db)" style="fill: #ff9696"/>
    <path d="M 988.930714 34.38 
L 988.930714 7.2 
L 990.880054 7.2 
L 990.880054 34.38 
L 988.930714 34.38 
z
" clip-path="url(#p93c748c3db)" style="fill: #ffe2e2"/>
    <path d="M 990.880054 34.38 
L 990.880054 7.2 
L 992.829394 7.2 
L 992.829394 34.38 
L 990.880054 34.38 
z
" clip-path="url(#p93c748c3db)" style="fill: #ffe4e4"/>
    <path d="M 992.829394 34.38 
L 992.829394 7.2 
L 994.778734 7.2 
L 994.778734 34.38 
L 992.829394 34.38 
z
" clip-path="url(#p93c748c3db)" style="fill: #ffe4e4"/>
    <path d="M 994.778734 34.38 
L 994.778734 7.2 
L 996.728074 7.2 
L 996.728074 34.38 
L 994.778734 34.38 
z
" clip-path="url(#p93c748c3db)" style="fill: #ffd6d6"/>
    <path d="M 996.728074 34.38 
L 996.728074 7.2 
L 998.677414 7.2 
L 998.677414 34.38 
L 996.728074 34.38 
z
" clip-path="url(#p93c748c3db)" style="fill: #ffd4d4"/>
    <path d="M 998.677414 34.38 
L 998.677414 7.2 
L 1000.626754 7.2 
L 1000.626754 34.38 
L 998.677414 34.38 
z
" clip-path="url(#p93c748c3db)" style="fill: #ffd8d8"/>
    <path d="M 1000.626754 34.38 
L 1000.626754 7.2 
L 1002.576094 7.2 
L 1002.576094 34.38 
L 1000.626754 34.38 
z
" clip-path="url(#p93c748c3db)" style="fill: #ffdede"/>
    <path d="M 1002.576094 34.38 
L 1002.576094 7.2 
L 1004.525434 7.2 
L 1004.525434 34.38 
L 1002.576094 34.38 
z
" clip-path="url(#p93c748c3db)" style="fill: #ffe0e0"/>
    <path d="M 1004.525434 34.38 
L 1004.525434 7.2 
L 1006.474774 7.2 
L 1006.474774 34.38 
L 1004.525434 34.38 
z
" clip-path="url(#p93c748c3db)" style="fill: #ffdcdc"/>
    <path d="M 1006.474774 34.38 
L 1006.474774 7.2 
L 1008.424114 7.2 
L 1008.424114 34.38 
L 1006.474774 34.38 
z
" clip-path="url(#p93c748c3db)" style="fill: #ffc6c6"/>
    <path d="M 1008.424114 34.38 
L 1008.424114 7.2 
L 1010.373454 7.2 
L 1010.373454 34.38 
L 1008.424114 34.38 
z
" clip-path="url(#p93c748c3db)" style="fill: #ffb8b8"/>
    <path d="M 1010.373454 34.38 
L 1010.373454 7.2 
L 1012.322794 7.2 
L 1012.322794 34.38 
L 1010.373454 34.38 
z
" clip-path="url(#p93c748c3db)" style="fill: #ffb8b8"/>
    <path d="M 1012.322794 34.38 
L 1012.322794 7.2 
L 1014.272134 7.2 
L 1014.272134 34.38 
L 1012.322794 34.38 
z
" clip-path="url(#p93c748c3db)" style="fill: #ffdcdc"/>
    <path d="M 1014.272134 34.38 
L 1014.272134 7.2 
L 1016.221474 7.2 
L 1016.221474 34.38 
L 1014.272134 34.38 
z
" clip-path="url(#p93c748c3db)" style="fill: #ffe0e0"/>
    <path d="M 1016.221474 34.38 
L 1016.221474 7.2 
L 1018.170814 7.2 
L 1018.170814 34.38 
L 1016.221474 34.38 
z
" clip-path="url(#p93c748c3db)" style="fill: #ffdede"/>
    <path d="M 1018.170814 34.38 
L 1018.170814 7.2 
L 1020.120154 7.2 
L 1020.120154 34.38 
L 1018.170814 34.38 
z
" clip-path="url(#p93c748c3db)" style="fill: #ffbaba"/>
    <path d="M 1020.120154 34.38 
L 1020.120154 7.2 
L 1022.069494 7.2 
L 1022.069494 34.38 
L 1020.120154 34.38 
z
" clip-path="url(#p93c748c3db)" style="fill: #ffc2c2"/>
    <path d="M 1022.069494 34.38 
L 1022.069494 7.2 
L 1024.018834 7.2 
L 1024.018834 34.38 
L 1022.069494 34.38 
z
" clip-path="url(#p93c748c3db)" style="fill: #ffc2c2"/>
   </g>
   <g id="patch_3">
    <path d="M 55.196875 34.38 
L 55.196875 7.2 
" style="fill: none; stroke: #262626; stroke-width: 1.25; stroke-linejoin: miter; stroke-linecap: square"/>
   </g>
   <g id="patch_4">
    <path d="M 1024.018834 34.38 
L 1024.018834 7.2 
" style="fill: none; stroke: #262626; stroke-width: 1.25; stroke-linejoin: miter; stroke-linecap: square"/>
   </g>
   <g id="patch_5">
    <path d="M 55.196875 34.38 
L 1024.018834 34.38 
" style="fill: none; stroke: #262626; stroke-width: 1.25; stroke-linejoin: miter; stroke-linecap: square"/>
   </g>
   <g id="patch_6">
    <path d="M 55.196875 7.2 
L 1024.018834 7.2 
" style="fill: none; stroke: #262626; stroke-width: 1.25; stroke-linejoin: miter; stroke-linecap: square"/>
   </g>
   <g id="text_6">
    <!-- Cells -->
    <g style="fill: #262626" transform="translate(214.532245 64.278)scale(0.18 -0.18)">
     <defs>
      <path id="ArialMT-43" d="M 3763 1606 
L 4369 1453 
Q 4178 706 3683 314 
Q 3188 -78 2472 -78 
Q 1731 -78 1267 223 
Q 803 525 561 1097 
Q 319 1669 319 2325 
Q 319 3041 592 3573 
Q 866 4106 1370 4382 
Q 1875 4659 2481 4659 
Q 3169 4659 3637 4309 
Q 4106 3959 4291 3325 
L 3694 3184 
Q 3534 3684 3231 3912 
Q 2928 4141 2469 4141 
Q 1941 4141 1586 3887 
Q 1231 3634 1087 3207 
Q 944 2781 944 2328 
Q 944 1744 1114 1308 
Q 1284 872 1643 656 
Q 2003 441 2422 441 
Q 2931 441 3284 734 
Q 3638 1028 3763 1606 
z
" transform="scale(0.015625)"/>
      <path id="ArialMT-65" d="M 2694 1069 
L 3275 997 
Q 3138 488 2766 206 
Q 2394 -75 1816 -75 
Q 1088 -75 661 373 
Q 234 822 234 1631 
Q 234 2469 665 2931 
Q 1097 3394 1784 3394 
Q 2450 3394 2872 2941 
Q 3294 2488 3294 1666 
Q 3294 1616 3291 1516 
L 816 1516 
Q 847 969 1125 678 
Q 1403 388 1819 388 
Q 2128 388 2347 550 
Q 2566 713 2694 1069 
z
M 847 1978 
L 2700 1978 
Q 2663 2397 2488 2606 
Q 2219 2931 1791 2931 
Q 1403 2931 1139 2672 
Q 875 2413 847 1978 
z
" transform="scale(0.015625)"/>
      <path id="ArialMT-6c" d="M 409 0 
L 409 4581 
L 972 4581 
L 972 0 
L 409 0 
z
" transform="scale(0.015625)"/>
      <path id="ArialMT-73" d="M 197 991 
L 753 1078 
Q 800 744 1014 566 
Q 1228 388 1613 388 
Q 2000 388 2187 545 
Q 2375 703 2375 916 
Q 2375 1106 2209 1216 
Q 2094 1291 1634 1406 
Q 1016 1563 777 1677 
Q 538 1791 414 1992 
Q 291 2194 291 2438 
Q 291 2659 392 2848 
Q 494 3038 669 3163 
Q 800 3259 1026 3326 
Q 1253 3394 1513 3394 
Q 1903 3394 2198 3281 
Q 2494 3169 2634 2976 
Q 2775 2784 2828 2463 
L 2278 2388 
Q 2241 2644 2061 2787 
Q 1881 2931 1553 2931 
Q 1166 2931 1000 2803 
Q 834 2675 834 2503 
Q 834 2394 903 2306 
Q 972 2216 1119 2156 
Q 1203 2125 1616 2013 
Q 2213 1853 2448 1751 
Q 2684 1650 2818 1456 
Q 2953 1263 2953 975 
Q 2953 694 2789 445 
Q 2625 197 2315 61 
Q 2006 -75 1616 -75 
Q 969 -75 630 194 
Q 291 463 197 991 
z
" transform="scale(0.015625)"/>
     </defs>
     <use xlink:href="#ArialMT-43"/>
     <use xlink:href="#ArialMT-65" x="72.216797"/>
     <use xlink:href="#ArialMT-6c" x="127.832031"/>
     <use xlink:href="#ArialMT-6c" x="150.048828"/>
     <use xlink:href="#ArialMT-73" x="172.265625"/>
    </g>
   </g>
   <g id="text_7">
    <!-- Cytoplasm -->
    <g style="fill: #262626" transform="translate(574.095845 64.278)scale(0.18 -0.18)">
     <defs>
      <path id="ArialMT-79" d="M 397 -1278 
L 334 -750 
Q 519 -800 656 -800 
Q 844 -800 956 -737 
Q 1069 -675 1141 -563 
Q 1194 -478 1313 -144 
Q 1328 -97 1363 -6 
L 103 3319 
L 709 3319 
L 1400 1397 
Q 1534 1031 1641 628 
Q 1738 1016 1872 1384 
L 2581 3319 
L 3144 3319 
L 1881 -56 
Q 1678 -603 1566 -809 
Q 1416 -1088 1222 -1217 
Q 1028 -1347 759 -1347 
Q 597 -1347 397 -1278 
z
" transform="scale(0.015625)"/>
      <path id="ArialMT-74" d="M 1650 503 
L 1731 6 
Q 1494 -44 1306 -44 
Q 1000 -44 831 53 
Q 663 150 594 308 
Q 525 466 525 972 
L 525 2881 
L 113 2881 
L 113 3319 
L 525 3319 
L 525 4141 
L 1084 4478 
L 1084 3319 
L 1650 3319 
L 1650 2881 
L 1084 2881 
L 1084 941 
Q 1084 700 1114 631 
Q 1144 563 1211 522 
Q 1278 481 1403 481 
Q 1497 481 1650 503 
z
" transform="scale(0.015625)"/>
      <path id="ArialMT-6f" d="M 213 1659 
Q 213 2581 725 3025 
Q 1153 3394 1769 3394 
Q 2453 3394 2887 2945 
Q 3322 2497 3322 1706 
Q 3322 1066 3130 698 
Q 2938 331 2570 128 
Q 2203 -75 1769 -75 
Q 1072 -75 642 372 
Q 213 819 213 1659 
z
M 791 1659 
Q 791 1022 1069 705 
Q 1347 388 1769 388 
Q 2188 388 2466 706 
Q 2744 1025 2744 1678 
Q 2744 2294 2464 2611 
Q 2184 2928 1769 2928 
Q 1347 2928 1069 2612 
Q 791 2297 791 1659 
z
" transform="scale(0.015625)"/>
      <path id="ArialMT-70" d="M 422 -1272 
L 422 3319 
L 934 3319 
L 934 2888 
Q 1116 3141 1344 3267 
Q 1572 3394 1897 3394 
Q 2322 3394 2647 3175 
Q 2972 2956 3137 2557 
Q 3303 2159 3303 1684 
Q 3303 1175 3120 767 
Q 2938 359 2589 142 
Q 2241 -75 1856 -75 
Q 1575 -75 1351 44 
Q 1128 163 984 344 
L 984 -1272 
L 422 -1272 
z
M 931 1641 
Q 931 1000 1190 694 
Q 1450 388 1819 388 
Q 2194 388 2461 705 
Q 2728 1022 2728 1688 
Q 2728 2322 2467 2637 
Q 2206 2953 1844 2953 
Q 1484 2953 1207 2617 
Q 931 2281 931 1641 
z
" transform="scale(0.015625)"/>
      <path id="ArialMT-61" d="M 2588 409 
Q 2275 144 1986 34 
Q 1697 -75 1366 -75 
Q 819 -75 525 192 
Q 231 459 231 875 
Q 231 1119 342 1320 
Q 453 1522 633 1644 
Q 813 1766 1038 1828 
Q 1203 1872 1538 1913 
Q 2219 1994 2541 2106 
Q 2544 2222 2544 2253 
Q 2544 2597 2384 2738 
Q 2169 2928 1744 2928 
Q 1347 2928 1158 2789 
Q 969 2650 878 2297 
L 328 2372 
Q 403 2725 575 2942 
Q 747 3159 1072 3276 
Q 1397 3394 1825 3394 
Q 2250 3394 2515 3294 
Q 2781 3194 2906 3042 
Q 3031 2891 3081 2659 
Q 3109 2516 3109 2141 
L 3109 1391 
Q 3109 606 3145 398 
Q 3181 191 3288 0 
L 2700 0 
Q 2613 175 2588 409 
z
M 2541 1666 
Q 2234 1541 1622 1453 
Q 1275 1403 1131 1340 
Q 988 1278 909 1158 
Q 831 1038 831 891 
Q 831 666 1001 516 
Q 1172 366 1500 366 
Q 1825 366 2078 508 
Q 2331 650 2450 897 
Q 2541 1088 2541 1459 
L 2541 1666 
z
" transform="scale(0.015625)"/>
      <path id="ArialMT-6d" d="M 422 0 
L 422 3319 
L 925 3319 
L 925 2853 
Q 1081 3097 1340 3245 
Q 1600 3394 1931 3394 
Q 2300 3394 2536 3241 
Q 2772 3088 2869 2813 
Q 3263 3394 3894 3394 
Q 4388 3394 4653 3120 
Q 4919 2847 4919 2278 
L 4919 0 
L 4359 0 
L 4359 2091 
Q 4359 2428 4304 2576 
Q 4250 2725 4106 2815 
Q 3963 2906 3769 2906 
Q 3419 2906 3187 2673 
Q 2956 2441 2956 1928 
L 2956 0 
L 2394 0 
L 2394 2156 
Q 2394 2531 2256 2718 
Q 2119 2906 1806 2906 
Q 1569 2906 1367 2781 
Q 1166 2656 1075 2415 
Q 984 2175 984 1722 
L 984 0 
L 422 0 
z
" transform="scale(0.015625)"/>
     </defs>
     <use xlink:href="#ArialMT-43"/>
     <use xlink:href="#ArialMT-79" x="72.216797"/>
     <use xlink:href="#ArialMT-74" x="122.216797"/>
     <use xlink:href="#ArialMT-6f" x="150"/>
     <use xlink:href="#ArialMT-70" x="205.615234"/>
     <use xlink:href="#ArialMT-6c" x="261.230469"/>
     <use xlink:href="#ArialMT-61" x="283.447266"/>
     <use xlink:href="#ArialMT-73" x="339.0625"/>
     <use xlink:href="#ArialMT-6d" x="389.0625"/>
    </g>
   </g>
   <g id="text_8">
    <!-- Nuclei -->
    <g style="fill: #262626" transform="translate(895.695066 64.278)scale(0.18 -0.18)">
     <defs>
      <path id="ArialMT-4e" d="M 488 0 
L 488 4581 
L 1109 4581 
L 3516 984 
L 3516 4581 
L 4097 4581 
L 4097 0 
L 3475 0 
L 1069 3600 
L 1069 0 
L 488 0 
z
" transform="scale(0.015625)"/>
      <path id="ArialMT-75" d="M 2597 0 
L 2597 488 
Q 2209 -75 1544 -75 
Q 1250 -75 995 37 
Q 741 150 617 320 
Q 494 491 444 738 
Q 409 903 409 1263 
L 409 3319 
L 972 3319 
L 972 1478 
Q 972 1038 1006 884 
Q 1059 663 1231 536 
Q 1403 409 1656 409 
Q 1909 409 2131 539 
Q 2353 669 2445 892 
Q 2538 1116 2538 1541 
L 2538 3319 
L 3100 3319 
L 3100 0 
L 2597 0 
z
" transform="scale(0.015625)"/>
      <path id="ArialMT-63" d="M 2588 1216 
L 3141 1144 
Q 3050 572 2676 248 
Q 2303 -75 1759 -75 
Q 1078 -75 664 370 
Q 250 816 250 1647 
Q 250 2184 428 2587 
Q 606 2991 970 3192 
Q 1334 3394 1763 3394 
Q 2303 3394 2647 3120 
Q 2991 2847 3088 2344 
L 2541 2259 
Q 2463 2594 2264 2762 
Q 2066 2931 1784 2931 
Q 1359 2931 1093 2626 
Q 828 2322 828 1663 
Q 828 994 1084 691 
Q 1341 388 1753 388 
Q 2084 388 2306 591 
Q 2528 794 2588 1216 
z
" transform="scale(0.015625)"/>
      <path id="ArialMT-69" d="M 425 3934 
L 425 4581 
L 988 4581 
L 988 3934 
L 425 3934 
z
M 425 0 
L 425 3319 
L 988 3319 
L 988 0 
L 425 0 
z
" transform="scale(0.015625)"/>
     </defs>
     <use xlink:href="#ArialMT-4e"/>
     <use xlink:href="#ArialMT-75" x="72.216797"/>
     <use xlink:href="#ArialMT-63" x="127.832031"/>
     <use xlink:href="#ArialMT-6c" x="177.832031"/>
     <use xlink:href="#ArialMT-65" x="200.048828"/>
     <use xlink:href="#ArialMT-69" x="255.664062"/>
    </g>
   </g>
  </g>
 </g>
 <defs>
  <clipPath id="p93c748c3db">
   <rect x="55.196875" y="7.2" width="968.821959" height="27.18"/>
  </clipPath>
 </defs>
</svg>
