<?xml version="1.0" encoding="utf-8" standalone="no"?>
<!DOCTYPE svg PUBLIC "-//W3C//DTD SVG 1.1//EN"
  "http://www.w3.org/Graphics/SVG/1.1/DTD/svg11.dtd">
<svg xmlns:xlink="http://www.w3.org/1999/xlink" width="986.2881pt" height="75.266437pt" viewBox="0 0 986.2881 75.266437" xmlns="http://www.w3.org/2000/svg" version="1.1">
 <metadata>
  <rdf:RDF xmlns:dc="http://purl.org/dc/elements/1.1/" xmlns:cc="http://creativecommons.org/ns#" xmlns:rdf="http://www.w3.org/1999/02/22-rdf-syntax-ns#">
   <cc:Work>
    <dc:type rdf:resource="http://purl.org/dc/dcmitype/StillImage"/>
    <dc:date>2023-02-13T13:56:28.715801</dc:date>
    <dc:format>image/svg+xml</dc:format>
    <dc:creator>
     <cc:Agent>
      <dc:title>Matplotlib v3.5.1, https://matplotlib.org/</dc:title>
     </cc:Agent>
    </dc:creator>
   </cc:Work>
  </rdf:RDF>
 </metadata>
 <defs>
  <style type="text/css">*{stroke-linejoin: round; stroke-linecap: butt}</style>
 </defs>
 <g id="figure_1">
  <g id="patch_1">
   <path d="M 0 75.266437 
L 986.2881 75.266437 
L 986.2881 0 
L 0 0 
z
" style="fill: #ffffff"/>
  </g>
  <g id="axes_1">
   <g id="patch_2">
    <path d="M 141.928125 34.38 
L 966.57599 34.38 
L 966.57599 7.2 
L 141.928125 7.2 
z
" style="fill: #ffffff"/>
   </g>
   <g id="matplotlib.axis_1">
    <g id="xtick_1">
     <g id="line2d_1"/>
     <g id="text_1">
      <text style="fill: #262626; font: 15px 'sans-serif'; text-anchor: middle" x="143.944379" y="54.216719" transform="rotate(-0, 143.944379, 54.216719)">1</text>
     </g>
    </g>
    <g id="xtick_2">
     <g id="line2d_2"/>
     <g id="text_2">
      <text style="fill: #262626; font: 15px 'sans-serif'; text-anchor: middle" x="494.772566" y="54.216719" transform="rotate(-0, 494.772566, 54.216719)">175</text>
     </g>
    </g>
    <g id="xtick_3">
     <g id="line2d_3"/>
     <g id="text_3">
      <text style="fill: #262626; font: 15px 'sans-serif'; text-anchor: middle" x="865.763293" y="54.216719" transform="rotate(-0, 865.763293, 54.216719)">359</text>
     </g>
    </g>
    <g id="xtick_4">
     <g id="line2d_4"/>
     <g id="text_4">
      <text style="fill: #262626; font: 15px 'sans-serif'; text-anchor: middle" x="966.57599" y="54.216719" transform="rotate(-0, 966.57599, 54.216719)">409</text>
     </g>
    </g>
   </g>
   <g id="matplotlib.axis_2">
    <g id="ytick_1">
     <g id="line2d_5"/>
     <g id="text_5">
      <text style="fill: #262626; font: 20px 'sans-serif'; text-anchor: end" x="132.828125" y="28.069687" transform="rotate(-0, 132.828125, 28.069687)">Protein_Synth</text>
     </g>
    </g>
   </g>
   <g id="PolyCollection_1">
    <path d="M 141.928125 34.38 
L 141.928125 7.2 
L 143.944379 7.2 
L 143.944379 34.38 
L 141.928125 34.38 
z
" clip-path="url(#pcde032ef49)" style="fill: #6060ff"/>
    <path d="M 143.944379 34.38 
L 143.944379 7.2 
L 145.960633 7.2 
L 145.960633 34.38 
L 143.944379 34.38 
z
" clip-path="url(#pcde032ef49)" style="fill: #9090ff"/>
    <path d="M 145.960633 34.38 
L 145.960633 7.2 
L 147.976887 7.2 
L 147.976887 34.38 
L 145.960633 34.38 
z
" clip-path="url(#pcde032ef49)" style="fill: #8080ff"/>
    <path d="M 147.976887 34.38 
L 147.976887 7.2 
L 149.993141 7.2 
L 149.993141 34.38 
L 147.976887 34.38 
z
" clip-path="url(#pcde032ef49)" style="fill: #6c6cff"/>
    <path d="M 149.993141 34.38 
L 149.993141 7.2 
L 152.009395 7.2 
L 152.009395 34.38 
L 149.993141 34.38 
z
" clip-path="url(#pcde032ef49)" style="fill: #5a5aff"/>
    <path d="M 152.009395 34.38 
L 152.009395 7.2 
L 154.025649 7.2 
L 154.025649 34.38 
L 152.009395 34.38 
z
" clip-path="url(#pcde032ef49)" style="fill: #8080ff"/>
    <path d="M 154.025649 34.38 
L 154.025649 7.2 
L 156.041903 7.2 
L 156.041903 34.38 
L 154.025649 34.38 
z
" clip-path="url(#pcde032ef49)" style="fill: #c0c0ff"/>
    <path d="M 156.041903 34.38 
L 156.041903 7.2 
L 158.058157 7.2 
L 158.058157 34.38 
L 156.041903 34.38 
z
" clip-path="url(#pcde032ef49)" style="fill: #aaaaff"/>
    <path d="M 158.058157 34.38 
L 158.058157 7.2 
L 160.074411 7.2 
L 160.074411 34.38 
L 158.058157 34.38 
z
" clip-path="url(#pcde032ef49)" style="fill: #e8e8ff"/>
    <path d="M 160.074411 34.38 
L 160.074411 7.2 
L 162.090664 7.2 
L 162.090664 34.38 
L 160.074411 34.38 
z
" clip-path="url(#pcde032ef49)" style="fill: #ffd6d6"/>
    <path d="M 162.090664 34.38 
L 162.090664 7.2 
L 164.106918 7.2 
L 164.106918 34.38 
L 162.090664 34.38 
z
" clip-path="url(#pcde032ef49)" style="fill: #1e1eff"/>
    <path d="M 164.106918 34.38 
L 164.106918 7.2 
L 166.123172 7.2 
L 166.123172 34.38 
L 164.106918 34.38 
z
" clip-path="url(#pcde032ef49)" style="fill: #e2e2ff"/>
    <path d="M 166.123172 34.38 
L 166.123172 7.2 
L 168.139426 7.2 
L 168.139426 34.38 
L 166.123172 34.38 
z
" clip-path="url(#pcde032ef49)" style="fill: #dcdcff"/>
    <path d="M 168.139426 34.38 
L 168.139426 7.2 
L 170.15568 7.2 
L 170.15568 34.38 
L 168.139426 34.38 
z
" clip-path="url(#pcde032ef49)" style="fill: #c8c8ff"/>
    <path d="M 170.15568 34.38 
L 170.15568 7.2 
L 172.171934 7.2 
L 172.171934 34.38 
L 170.15568 34.38 
z
" clip-path="url(#pcde032ef49)" style="fill: #ffc8c8"/>
    <path d="M 172.171934 34.38 
L 172.171934 7.2 
L 174.188188 7.2 
L 174.188188 34.38 
L 172.171934 34.38 
z
" clip-path="url(#pcde032ef49)" style="fill: #e6e6ff"/>
    <path d="M 174.188188 34.38 
L 174.188188 7.2 
L 176.204442 7.2 
L 176.204442 34.38 
L 174.188188 34.38 
z
" clip-path="url(#pcde032ef49)" style="fill: #ffdada"/>
    <path d="M 176.204442 34.38 
L 176.204442 7.2 
L 178.220696 7.2 
L 178.220696 34.38 
L 176.204442 34.38 
z
" clip-path="url(#pcde032ef49)" style="fill: #ff5c5c"/>
    <path d="M 178.220696 34.38 
L 178.220696 7.2 
L 180.23695 7.2 
L 180.23695 34.38 
L 178.220696 34.38 
z
" clip-path="url(#pcde032ef49)" style="fill: #b8b8ff"/>
    <path d="M 180.23695 34.38 
L 180.23695 7.2 
L 182.253204 7.2 
L 182.253204 34.38 
L 180.23695 34.38 
z
" clip-path="url(#pcde032ef49)" style="fill: #5858ff"/>
    <path d="M 182.253204 34.38 
L 182.253204 7.2 
L 184.269458 7.2 
L 184.269458 34.38 
L 182.253204 34.38 
z
" clip-path="url(#pcde032ef49)" style="fill: #a4a4ff"/>
    <path d="M 184.269458 34.38 
L 184.269458 7.2 
L 186.285712 7.2 
L 186.285712 34.38 
L 184.269458 34.38 
z
" clip-path="url(#pcde032ef49)" style="fill: #fff0f0"/>
    <path d="M 186.285712 34.38 
L 186.285712 7.2 
L 188.301966 7.2 
L 188.301966 34.38 
L 186.285712 34.38 
z
" clip-path="url(#pcde032ef49)" style="fill: #ffd2d2"/>
    <path d="M 188.301966 34.38 
L 188.301966 7.2 
L 190.31822 7.2 
L 190.31822 34.38 
L 188.301966 34.38 
z
" clip-path="url(#pcde032ef49)" style="fill: #c8c8ff"/>
    <path d="M 190.31822 34.38 
L 190.31822 7.2 
L 192.334474 7.2 
L 192.334474 34.38 
L 190.31822 34.38 
z
" clip-path="url(#pcde032ef49)" style="fill: #d0d0ff"/>
    <path d="M 192.334474 34.38 
L 192.334474 7.2 
L 194.350728 7.2 
L 194.350728 34.38 
L 192.334474 34.38 
z
" clip-path="url(#pcde032ef49)" style="fill: #ceceff"/>
    <path d="M 194.350728 34.38 
L 194.350728 7.2 
L 196.366982 7.2 
L 196.366982 34.38 
L 194.350728 34.38 
z
" clip-path="url(#pcde032ef49)" style="fill: #bcbcff"/>
    <path d="M 196.366982 34.38 
L 196.366982 7.2 
L 198.383236 7.2 
L 198.383236 34.38 
L 196.366982 34.38 
z
" clip-path="url(#pcde032ef49)" style="fill: #c4c4ff"/>
    <path d="M 198.383236 34.38 
L 198.383236 7.2 
L 200.39949 7.2 
L 200.39949 34.38 
L 198.383236 34.38 
z
" clip-path="url(#pcde032ef49)" style="fill: #dadaff"/>
    <path d="M 200.39949 34.38 
L 200.39949 7.2 
L 202.415743 7.2 
L 202.415743 34.38 
L 200.39949 34.38 
z
" clip-path="url(#pcde032ef49)" style="fill: #d0d0ff"/>
    <path d="M 202.415743 34.38 
L 202.415743 7.2 
L 204.431997 7.2 
L 204.431997 34.38 
L 202.415743 34.38 
z
" clip-path="url(#pcde032ef49)" style="fill: #ffeeee"/>
    <path d="M 204.431997 34.38 
L 204.431997 7.2 
L 206.448251 7.2 
L 206.448251 34.38 
L 204.431997 34.38 
z
" clip-path="url(#pcde032ef49)" style="fill: #ffd4d4"/>
    <path d="M 206.448251 34.38 
L 206.448251 7.2 
L 208.464505 7.2 
L 208.464505 34.38 
L 206.448251 34.38 
z
" clip-path="url(#pcde032ef49)" style="fill: #8484ff"/>
    <path d="M 208.464505 34.38 
L 208.464505 7.2 
L 210.480759 7.2 
L 210.480759 34.38 
L 208.464505 34.38 
z
" clip-path="url(#pcde032ef49)" style="fill: #6666ff"/>
    <path d="M 210.480759 34.38 
L 210.480759 7.2 
L 212.497013 7.2 
L 212.497013 34.38 
L 210.480759 34.38 
z
" clip-path="url(#pcde032ef49)" style="fill: #7878ff"/>
    <path d="M 212.497013 34.38 
L 212.497013 7.2 
L 214.513267 7.2 
L 214.513267 34.38 
L 212.497013 34.38 
z
" clip-path="url(#pcde032ef49)" style="fill: #ececff"/>
    <path d="M 214.513267 34.38 
L 214.513267 7.2 
L 216.529521 7.2 
L 216.529521 34.38 
L 214.513267 34.38 
z
" clip-path="url(#pcde032ef49)" style="fill: #aaaaff"/>
    <path d="M 216.529521 34.38 
L 216.529521 7.2 
L 218.545775 7.2 
L 218.545775 34.38 
L 216.529521 34.38 
z
" clip-path="url(#pcde032ef49)" style="fill: #ff9898"/>
    <path d="M 218.545775 34.38 
L 218.545775 7.2 
L 220.562029 7.2 
L 220.562029 34.38 
L 218.545775 34.38 
z
" clip-path="url(#pcde032ef49)" style="fill: #ff7272"/>
    <path d="M 220.562029 34.38 
L 220.562029 7.2 
L 222.578283 7.2 
L 222.578283 34.38 
L 220.562029 34.38 
z
" clip-path="url(#pcde032ef49)" style="fill: #e0e0ff"/>
    <path d="M 222.578283 34.38 
L 222.578283 7.2 
L 224.594537 7.2 
L 224.594537 34.38 
L 222.578283 34.38 
z
" clip-path="url(#pcde032ef49)" style="fill: #e8e8ff"/>
    <path d="M 224.594537 34.38 
L 224.594537 7.2 
L 226.610791 7.2 
L 226.610791 34.38 
L 224.594537 34.38 
z
" clip-path="url(#pcde032ef49)" style="fill: #f6f6ff"/>
    <path d="M 226.610791 34.38 
L 226.610791 7.2 
L 228.627045 7.2 
L 228.627045 34.38 
L 226.610791 34.38 
z
" clip-path="url(#pcde032ef49)" style="fill: #ff7c7c"/>
    <path d="M 228.627045 34.38 
L 228.627045 7.2 
L 230.643299 7.2 
L 230.643299 34.38 
L 228.627045 34.38 
z
" clip-path="url(#pcde032ef49)" style="fill: #ffcaca"/>
    <path d="M 230.643299 34.38 
L 230.643299 7.2 
L 232.659553 7.2 
L 232.659553 34.38 
L 230.643299 34.38 
z
" clip-path="url(#pcde032ef49)" style="fill: #ffcece"/>
    <path d="M 232.659553 34.38 
L 232.659553 7.2 
L 234.675807 7.2 
L 234.675807 34.38 
L 232.659553 34.38 
z
" clip-path="url(#pcde032ef49)" style="fill: #ffacac"/>
    <path d="M 234.675807 34.38 
L 234.675807 7.2 
L 236.692061 7.2 
L 236.692061 34.38 
L 234.675807 34.38 
z
" clip-path="url(#pcde032ef49)" style="fill: #ff3232"/>
    <path d="M 236.692061 34.38 
L 236.692061 7.2 
L 238.708315 7.2 
L 238.708315 34.38 
L 236.692061 34.38 
z
" clip-path="url(#pcde032ef49)" style="fill: #ff3636"/>
    <path d="M 238.708315 34.38 
L 238.708315 7.2 
L 240.724569 7.2 
L 240.724569 34.38 
L 238.708315 34.38 
z
" clip-path="url(#pcde032ef49)" style="fill: #ffc4c4"/>
    <path d="M 240.724569 34.38 
L 240.724569 7.2 
L 242.740822 7.2 
L 242.740822 34.38 
L 240.724569 34.38 
z
" clip-path="url(#pcde032ef49)" style="fill: #fff8f8"/>
    <path d="M 242.740822 34.38 
L 242.740822 7.2 
L 244.757076 7.2 
L 244.757076 34.38 
L 242.740822 34.38 
z
" clip-path="url(#pcde032ef49)" style="fill: #f0f0ff"/>
    <path d="M 244.757076 34.38 
L 244.757076 7.2 
L 246.77333 7.2 
L 246.77333 34.38 
L 244.757076 34.38 
z
" clip-path="url(#pcde032ef49)" style="fill: #ffecec"/>
    <path d="M 246.77333 34.38 
L 246.77333 7.2 
L 248.789584 7.2 
L 248.789584 34.38 
L 246.77333 34.38 
z
" clip-path="url(#pcde032ef49)" style="fill: #ff4c4c"/>
    <path d="M 248.789584 34.38 
L 248.789584 7.2 
L 250.805838 7.2 
L 250.805838 34.38 
L 248.789584 34.38 
z
" clip-path="url(#pcde032ef49)" style="fill: #ff9494"/>
    <path d="M 250.805838 34.38 
L 250.805838 7.2 
L 252.822092 7.2 
L 252.822092 34.38 
L 250.805838 34.38 
z
" clip-path="url(#pcde032ef49)" style="fill: #ffb4b4"/>
    <path d="M 252.822092 34.38 
L 252.822092 7.2 
L 254.838346 7.2 
L 254.838346 34.38 
L 252.822092 34.38 
z
" clip-path="url(#pcde032ef49)" style="fill: #fff8f8"/>
    <path d="M 254.838346 34.38 
L 254.838346 7.2 
L 256.8546 7.2 
L 256.8546 34.38 
L 254.838346 34.38 
z
" clip-path="url(#pcde032ef49)" style="fill: #ff8686"/>
    <path d="M 256.8546 34.38 
L 256.8546 7.2 
L 258.870854 7.2 
L 258.870854 34.38 
L 256.8546 34.38 
z
" clip-path="url(#pcde032ef49)" style="fill: #f8f8ff"/>
    <path d="M 258.870854 34.38 
L 258.870854 7.2 
L 260.887108 7.2 
L 260.887108 34.38 
L 258.870854 34.38 
z
" clip-path="url(#pcde032ef49)" style="fill: #d0d0ff"/>
    <path d="M 260.887108 34.38 
L 260.887108 7.2 
L 262.903362 7.2 
L 262.903362 34.38 
L 260.887108 34.38 
z
" clip-path="url(#pcde032ef49)" style="fill: #fafaff"/>
    <path d="M 262.903362 34.38 
L 262.903362 7.2 
L 264.919616 7.2 
L 264.919616 34.38 
L 262.903362 34.38 
z
" clip-path="url(#pcde032ef49)" style="fill: #d0d0ff"/>
    <path d="M 264.919616 34.38 
L 264.919616 7.2 
L 266.93587 7.2 
L 266.93587 34.38 
L 264.919616 34.38 
z
" clip-path="url(#pcde032ef49)" style="fill: #ff0000"/>
    <path d="M 266.93587 34.38 
L 266.93587 7.2 
L 268.952124 7.2 
L 268.952124 34.38 
L 266.93587 34.38 
z
" clip-path="url(#pcde032ef49)" style="fill: #ffeeee"/>
    <path d="M 268.952124 34.38 
L 268.952124 7.2 
L 270.968378 7.2 
L 270.968378 34.38 
L 268.952124 34.38 
z
" clip-path="url(#pcde032ef49)" style="fill: #ff0000"/>
    <path d="M 270.968378 34.38 
L 270.968378 7.2 
L 272.984632 7.2 
L 272.984632 34.38 
L 270.968378 34.38 
z
" clip-path="url(#pcde032ef49)" style="fill: #ff9090"/>
    <path d="M 272.984632 34.38 
L 272.984632 7.2 
L 275.000886 7.2 
L 275.000886 34.38 
L 272.984632 34.38 
z
" clip-path="url(#pcde032ef49)" style="fill: #ffeeee"/>
    <path d="M 275.000886 34.38 
L 275.000886 7.2 
L 277.01714 7.2 
L 277.01714 34.38 
L 275.000886 34.38 
z
" clip-path="url(#pcde032ef49)" style="fill: #ff6060"/>
    <path d="M 277.01714 34.38 
L 277.01714 7.2 
L 279.033394 7.2 
L 279.033394 34.38 
L 277.01714 34.38 
z
" clip-path="url(#pcde032ef49)" style="fill: #ff6666"/>
    <path d="M 279.033394 34.38 
L 279.033394 7.2 
L 281.049648 7.2 
L 281.049648 34.38 
L 279.033394 34.38 
z
" clip-path="url(#pcde032ef49)" style="fill: #ff8c8c"/>
    <path d="M 281.049648 34.38 
L 281.049648 7.2 
L 283.065901 7.2 
L 283.065901 34.38 
L 281.049648 34.38 
z
" clip-path="url(#pcde032ef49)" style="fill: #fff2f2"/>
    <path d="M 283.065901 34.38 
L 283.065901 7.2 
L 285.082155 7.2 
L 285.082155 34.38 
L 283.065901 34.38 
z
" clip-path="url(#pcde032ef49)" style="fill: #ffeeee"/>
    <path d="M 285.082155 34.38 
L 285.082155 7.2 
L 287.098409 7.2 
L 287.098409 34.38 
L 285.082155 34.38 
z
" clip-path="url(#pcde032ef49)" style="fill: #e0e0ff"/>
    <path d="M 287.098409 34.38 
L 287.098409 7.2 
L 289.114663 7.2 
L 289.114663 34.38 
L 287.098409 34.38 
z
" clip-path="url(#pcde032ef49)" style="fill: #ffdcdc"/>
    <path d="M 289.114663 34.38 
L 289.114663 7.2 
L 291.130917 7.2 
L 291.130917 34.38 
L 289.114663 34.38 
z
" clip-path="url(#pcde032ef49)" style="fill: #ffd2d2"/>
    <path d="M 291.130917 34.38 
L 291.130917 7.2 
L 293.147171 7.2 
L 293.147171 34.38 
L 291.130917 34.38 
z
" clip-path="url(#pcde032ef49)" style="fill: #e0e0ff"/>
    <path d="M 293.147171 34.38 
L 293.147171 7.2 
L 295.163425 7.2 
L 295.163425 34.38 
L 293.147171 34.38 
z
" clip-path="url(#pcde032ef49)" style="fill: #e0e0ff"/>
    <path d="M 295.163425 34.38 
L 295.163425 7.2 
L 297.179679 7.2 
L 297.179679 34.38 
L 295.163425 34.38 
z
" clip-path="url(#pcde032ef49)" style="fill: #ffcece"/>
    <path d="M 297.179679 34.38 
L 297.179679 7.2 
L 299.195933 7.2 
L 299.195933 34.38 
L 297.179679 34.38 
z
" clip-path="url(#pcde032ef49)" style="fill: #fffcfc"/>
    <path d="M 299.195933 34.38 
L 299.195933 7.2 
L 301.212187 7.2 
L 301.212187 34.38 
L 299.195933 34.38 
z
" clip-path="url(#pcde032ef49)" style="fill: #dadaff"/>
    <path d="M 301.212187 34.38 
L 301.212187 7.2 
L 303.228441 7.2 
L 303.228441 34.38 
L 301.212187 34.38 
z
" clip-path="url(#pcde032ef49)" style="fill: #dadaff"/>
    <path d="M 303.228441 34.38 
L 303.228441 7.2 
L 305.244695 7.2 
L 305.244695 34.38 
L 303.228441 34.38 
z
" clip-path="url(#pcde032ef49)" style="fill: #d2d2ff"/>
    <path d="M 305.244695 34.38 
L 305.244695 7.2 
L 307.260949 7.2 
L 307.260949 34.38 
L 305.244695 34.38 
z
" clip-path="url(#pcde032ef49)" style="fill: #d6d6ff"/>
    <path d="M 307.260949 34.38 
L 307.260949 7.2 
L 309.277203 7.2 
L 309.277203 34.38 
L 307.260949 34.38 
z
" clip-path="url(#pcde032ef49)" style="fill: #d0d0ff"/>
    <path d="M 309.277203 34.38 
L 309.277203 7.2 
L 311.293457 7.2 
L 311.293457 34.38 
L 309.277203 34.38 
z
" clip-path="url(#pcde032ef49)" style="fill: #ceceff"/>
    <path d="M 311.293457 34.38 
L 311.293457 7.2 
L 313.309711 7.2 
L 313.309711 34.38 
L 311.293457 34.38 
z
" clip-path="url(#pcde032ef49)" style="fill: #a4a4ff"/>
    <path d="M 313.309711 34.38 
L 313.309711 7.2 
L 315.325965 7.2 
L 315.325965 34.38 
L 313.309711 34.38 
z
" clip-path="url(#pcde032ef49)" style="fill: #a4a4ff"/>
    <path d="M 315.325965 34.38 
L 315.325965 7.2 
L 317.342219 7.2 
L 317.342219 34.38 
L 315.325965 34.38 
z
" clip-path="url(#pcde032ef49)" style="fill: #9c9cff"/>
    <path d="M 317.342219 34.38 
L 317.342219 7.2 
L 319.358473 7.2 
L 319.358473 34.38 
L 317.342219 34.38 
z
" clip-path="url(#pcde032ef49)" style="fill: #ffbebe"/>
    <path d="M 319.358473 34.38 
L 319.358473 7.2 
L 321.374726 7.2 
L 321.374726 34.38 
L 319.358473 34.38 
z
" clip-path="url(#pcde032ef49)" style="fill: #ffc0c0"/>
    <path d="M 321.374726 34.38 
L 321.374726 7.2 
L 323.39098 7.2 
L 323.39098 34.38 
L 321.374726 34.38 
z
" clip-path="url(#pcde032ef49)" style="fill: #ff8686"/>
    <path d="M 323.39098 34.38 
L 323.39098 7.2 
L 325.407234 7.2 
L 325.407234 34.38 
L 323.39098 34.38 
z
" clip-path="url(#pcde032ef49)" style="fill: #ff6e6e"/>
    <path d="M 325.407234 34.38 
L 325.407234 7.2 
L 327.423488 7.2 
L 327.423488 34.38 
L 325.407234 34.38 
z
" clip-path="url(#pcde032ef49)" style="fill: #ff7878"/>
    <path d="M 327.423488 34.38 
L 327.423488 7.2 
L 329.439742 7.2 
L 329.439742 34.38 
L 327.423488 34.38 
z
" clip-path="url(#pcde032ef49)" style="fill: #ffd0d0"/>
    <path d="M 329.439742 34.38 
L 329.439742 7.2 
L 331.455996 7.2 
L 331.455996 34.38 
L 329.439742 34.38 
z
" clip-path="url(#pcde032ef49)" style="fill: #ffbaba"/>
    <path d="M 331.455996 34.38 
L 331.455996 7.2 
L 333.47225 7.2 
L 333.47225 34.38 
L 331.455996 34.38 
z
" clip-path="url(#pcde032ef49)" style="fill: #ffbaba"/>
    <path d="M 333.47225 34.38 
L 333.47225 7.2 
L 335.488504 7.2 
L 335.488504 34.38 
L 333.47225 34.38 
z
" clip-path="url(#pcde032ef49)" style="fill: #ff4646"/>
    <path d="M 335.488504 34.38 
L 335.488504 7.2 
L 337.504758 7.2 
L 337.504758 34.38 
L 335.488504 34.38 
z
" clip-path="url(#pcde032ef49)" style="fill: #ff5252"/>
    <path d="M 337.504758 34.38 
L 337.504758 7.2 
L 339.521012 7.2 
L 339.521012 34.38 
L 337.504758 34.38 
z
" clip-path="url(#pcde032ef49)" style="fill: #ff6a6a"/>
    <path d="M 339.521012 34.38 
L 339.521012 7.2 
L 341.537266 7.2 
L 341.537266 34.38 
L 339.521012 34.38 
z
" clip-path="url(#pcde032ef49)" style="fill: #7070ff"/>
    <path d="M 341.537266 34.38 
L 341.537266 7.2 
L 343.55352 7.2 
L 343.55352 34.38 
L 341.537266 34.38 
z
" clip-path="url(#pcde032ef49)" style="fill: #d8d8ff"/>
    <path d="M 343.55352 34.38 
L 343.55352 7.2 
L 345.569774 7.2 
L 345.569774 34.38 
L 343.55352 34.38 
z
" clip-path="url(#pcde032ef49)" style="fill: #a6a6ff"/>
    <path d="M 345.569774 34.38 
L 345.569774 7.2 
L 347.586028 7.2 
L 347.586028 34.38 
L 345.569774 34.38 
z
" clip-path="url(#pcde032ef49)" style="fill: #a8a8ff"/>
    <path d="M 347.586028 34.38 
L 347.586028 7.2 
L 349.602282 7.2 
L 349.602282 34.38 
L 347.586028 34.38 
z
" clip-path="url(#pcde032ef49)" style="fill: #e2e2ff"/>
    <path d="M 349.602282 34.38 
L 349.602282 7.2 
L 351.618536 7.2 
L 351.618536 34.38 
L 349.602282 34.38 
z
" clip-path="url(#pcde032ef49)" style="fill: #ccccff"/>
    <path d="M 351.618536 34.38 
L 351.618536 7.2 
L 353.63479 7.2 
L 353.63479 34.38 
L 351.618536 34.38 
z
" clip-path="url(#pcde032ef49)" style="fill: #ffeeee"/>
    <path d="M 353.63479 34.38 
L 353.63479 7.2 
L 355.651044 7.2 
L 355.651044 34.38 
L 353.63479 34.38 
z
" clip-path="url(#pcde032ef49)" style="fill: #ffdada"/>
    <path d="M 355.651044 34.38 
L 355.651044 7.2 
L 357.667298 7.2 
L 357.667298 34.38 
L 355.651044 34.38 
z
" clip-path="url(#pcde032ef49)" style="fill: #ffe2e2"/>
    <path d="M 357.667298 34.38 
L 357.667298 7.2 
L 359.683552 7.2 
L 359.683552 34.38 
L 357.667298 34.38 
z
" clip-path="url(#pcde032ef49)" style="fill: #6262ff"/>
    <path d="M 359.683552 34.38 
L 359.683552 7.2 
L 361.699805 7.2 
L 361.699805 34.38 
L 359.683552 34.38 
z
" clip-path="url(#pcde032ef49)" style="fill: #9494ff"/>
    <path d="M 361.699805 34.38 
L 361.699805 7.2 
L 363.716059 7.2 
L 363.716059 34.38 
L 361.699805 34.38 
z
" clip-path="url(#pcde032ef49)" style="fill: #ff8484"/>
    <path d="M 363.716059 34.38 
L 363.716059 7.2 
L 365.732313 7.2 
L 365.732313 34.38 
L 363.716059 34.38 
z
" clip-path="url(#pcde032ef49)" style="fill: #ffd6d6"/>
    <path d="M 365.732313 34.38 
L 365.732313 7.2 
L 367.748567 7.2 
L 367.748567 34.38 
L 365.732313 34.38 
z
" clip-path="url(#pcde032ef49)" style="fill: #ffd0d0"/>
    <path d="M 367.748567 34.38 
L 367.748567 7.2 
L 369.764821 7.2 
L 369.764821 34.38 
L 367.748567 34.38 
z
" clip-path="url(#pcde032ef49)" style="fill: #ffd6d6"/>
    <path d="M 369.764821 34.38 
L 369.764821 7.2 
L 371.781075 7.2 
L 371.781075 34.38 
L 369.764821 34.38 
z
" clip-path="url(#pcde032ef49)" style="fill: #ff7272"/>
    <path d="M 371.781075 34.38 
L 371.781075 7.2 
L 373.797329 7.2 
L 373.797329 34.38 
L 371.781075 34.38 
z
" clip-path="url(#pcde032ef49)" style="fill: #ff7070"/>
    <path d="M 373.797329 34.38 
L 373.797329 7.2 
L 375.813583 7.2 
L 375.813583 34.38 
L 373.797329 34.38 
z
" clip-path="url(#pcde032ef49)" style="fill: #ff5252"/>
    <path d="M 375.813583 34.38 
L 375.813583 7.2 
L 377.829837 7.2 
L 377.829837 34.38 
L 375.813583 34.38 
z
" clip-path="url(#pcde032ef49)" style="fill: #e0e0ff"/>
    <path d="M 377.829837 34.38 
L 377.829837 7.2 
L 379.846091 7.2 
L 379.846091 34.38 
L 377.829837 34.38 
z
" clip-path="url(#pcde032ef49)" style="fill: #e2e2ff"/>
    <path d="M 379.846091 34.38 
L 379.846091 7.2 
L 381.862345 7.2 
L 381.862345 34.38 
L 379.846091 34.38 
z
" clip-path="url(#pcde032ef49)" style="fill: #dadaff"/>
    <path d="M 381.862345 34.38 
L 381.862345 7.2 
L 383.878599 7.2 
L 383.878599 34.38 
L 381.862345 34.38 
z
" clip-path="url(#pcde032ef49)" style="fill: #d2d2ff"/>
    <path d="M 383.878599 34.38 
L 383.878599 7.2 
L 385.894853 7.2 
L 385.894853 34.38 
L 383.878599 34.38 
z
" clip-path="url(#pcde032ef49)" style="fill: #a2a2ff"/>
    <path d="M 385.894853 34.38 
L 385.894853 7.2 
L 387.911107 7.2 
L 387.911107 34.38 
L 385.894853 34.38 
z
" clip-path="url(#pcde032ef49)" style="fill: #b8b8ff"/>
    <path d="M 387.911107 34.38 
L 387.911107 7.2 
L 389.927361 7.2 
L 389.927361 34.38 
L 387.911107 34.38 
z
" clip-path="url(#pcde032ef49)" style="fill: #ffe2e2"/>
    <path d="M 389.927361 34.38 
L 389.927361 7.2 
L 391.943615 7.2 
L 391.943615 34.38 
L 389.927361 34.38 
z
" clip-path="url(#pcde032ef49)" style="fill: #ffe4e4"/>
    <path d="M 391.943615 34.38 
L 391.943615 7.2 
L 393.959869 7.2 
L 393.959869 34.38 
L 391.943615 34.38 
z
" clip-path="url(#pcde032ef49)" style="fill: #ffdcdc"/>
    <path d="M 393.959869 34.38 
L 393.959869 7.2 
L 395.976123 7.2 
L 395.976123 34.38 
L 393.959869 34.38 
z
" clip-path="url(#pcde032ef49)" style="fill: #ffe0e0"/>
    <path d="M 395.976123 34.38 
L 395.976123 7.2 
L 397.992377 7.2 
L 397.992377 34.38 
L 395.976123 34.38 
z
" clip-path="url(#pcde032ef49)" style="fill: #ff9c9c"/>
    <path d="M 397.992377 34.38 
L 397.992377 7.2 
L 400.008631 7.2 
L 400.008631 34.38 
L 397.992377 34.38 
z
" clip-path="url(#pcde032ef49)" style="fill: #ff8282"/>
    <path d="M 400.008631 34.38 
L 400.008631 7.2 
L 402.024884 7.2 
L 402.024884 34.38 
L 400.008631 34.38 
z
" clip-path="url(#pcde032ef49)" style="fill: #ff9090"/>
    <path d="M 402.024884 34.38 
L 402.024884 7.2 
L 404.041138 7.2 
L 404.041138 34.38 
L 402.024884 34.38 
z
" clip-path="url(#pcde032ef49)" style="fill: #ffd0d0"/>
    <path d="M 404.041138 34.38 
L 404.041138 7.2 
L 406.057392 7.2 
L 406.057392 34.38 
L 404.041138 34.38 
z
" clip-path="url(#pcde032ef49)" style="fill: #ffd0d0"/>
    <path d="M 406.057392 34.38 
L 406.057392 7.2 
L 408.073646 7.2 
L 408.073646 34.38 
L 406.057392 34.38 
z
" clip-path="url(#pcde032ef49)" style="fill: #ffcece"/>
    <path d="M 408.073646 34.38 
L 408.073646 7.2 
L 410.0899 7.2 
L 410.0899 34.38 
L 408.073646 34.38 
z
" clip-path="url(#pcde032ef49)" style="fill: #acacff"/>
    <path d="M 410.0899 34.38 
L 410.0899 7.2 
L 412.106154 7.2 
L 412.106154 34.38 
L 410.0899 34.38 
z
" clip-path="url(#pcde032ef49)" style="fill: #9a9aff"/>
    <path d="M 412.106154 34.38 
L 412.106154 7.2 
L 414.122408 7.2 
L 414.122408 34.38 
L 412.106154 34.38 
z
" clip-path="url(#pcde032ef49)" style="fill: #8888ff"/>
    <path d="M 414.122408 34.38 
L 414.122408 7.2 
L 416.138662 7.2 
L 416.138662 34.38 
L 414.122408 34.38 
z
" clip-path="url(#pcde032ef49)" style="fill: #d4d4ff"/>
    <path d="M 416.138662 34.38 
L 416.138662 7.2 
L 418.154916 7.2 
L 418.154916 34.38 
L 416.138662 34.38 
z
" clip-path="url(#pcde032ef49)" style="fill: #ceceff"/>
    <path d="M 418.154916 34.38 
L 418.154916 7.2 
L 420.17117 7.2 
L 420.17117 34.38 
L 418.154916 34.38 
z
" clip-path="url(#pcde032ef49)" style="fill: #c8c8ff"/>
    <path d="M 420.17117 34.38 
L 420.17117 7.2 
L 422.187424 7.2 
L 422.187424 34.38 
L 420.17117 34.38 
z
" clip-path="url(#pcde032ef49)" style="fill: #dedeff"/>
    <path d="M 422.187424 34.38 
L 422.187424 7.2 
L 424.203678 7.2 
L 424.203678 34.38 
L 422.187424 34.38 
z
" clip-path="url(#pcde032ef49)" style="fill: #5454ff"/>
    <path d="M 424.203678 34.38 
L 424.203678 7.2 
L 426.219932 7.2 
L 426.219932 34.38 
L 424.203678 34.38 
z
" clip-path="url(#pcde032ef49)" style="fill: #7a7aff"/>
    <path d="M 426.219932 34.38 
L 426.219932 7.2 
L 428.236186 7.2 
L 428.236186 34.38 
L 426.219932 34.38 
z
" clip-path="url(#pcde032ef49)" style="fill: #7070ff"/>
    <path d="M 428.236186 34.38 
L 428.236186 7.2 
L 430.25244 7.2 
L 430.25244 34.38 
L 428.236186 34.38 
z
" clip-path="url(#pcde032ef49)" style="fill: #ff3a3a"/>
    <path d="M 430.25244 34.38 
L 430.25244 7.2 
L 432.268694 7.2 
L 432.268694 34.38 
L 430.25244 34.38 
z
" clip-path="url(#pcde032ef49)" style="fill: #ff1010"/>
    <path d="M 432.268694 34.38 
L 432.268694 7.2 
L 434.284948 7.2 
L 434.284948 34.38 
L 432.268694 34.38 
z
" clip-path="url(#pcde032ef49)" style="fill: #ff1e1e"/>
    <path d="M 434.284948 34.38 
L 434.284948 7.2 
L 436.301202 7.2 
L 436.301202 34.38 
L 434.284948 34.38 
z
" clip-path="url(#pcde032ef49)" style="fill: #fff2f2"/>
    <path d="M 436.301202 34.38 
L 436.301202 7.2 
L 438.317456 7.2 
L 438.317456 34.38 
L 436.301202 34.38 
z
" clip-path="url(#pcde032ef49)" style="fill: #ffa6a6"/>
    <path d="M 438.317456 34.38 
L 438.317456 7.2 
L 440.33371 7.2 
L 440.33371 34.38 
L 438.317456 34.38 
z
" clip-path="url(#pcde032ef49)" style="fill: #ff9a9a"/>
    <path d="M 440.33371 34.38 
L 440.33371 7.2 
L 442.349963 7.2 
L 442.349963 34.38 
L 440.33371 34.38 
z
" clip-path="url(#pcde032ef49)" style="fill: #ffaaaa"/>
    <path d="M 442.349963 34.38 
L 442.349963 7.2 
L 444.366217 7.2 
L 444.366217 34.38 
L 442.349963 34.38 
z
" clip-path="url(#pcde032ef49)" style="fill: #ffe4e4"/>
    <path d="M 444.366217 34.38 
L 444.366217 7.2 
L 446.382471 7.2 
L 446.382471 34.38 
L 444.366217 34.38 
z
" clip-path="url(#pcde032ef49)" style="fill: #ffe8e8"/>
    <path d="M 446.382471 34.38 
L 446.382471 7.2 
L 448.398725 7.2 
L 448.398725 34.38 
L 446.382471 34.38 
z
" clip-path="url(#pcde032ef49)" style="fill: #ffe2e2"/>
    <path d="M 448.398725 34.38 
L 448.398725 7.2 
L 450.414979 7.2 
L 450.414979 34.38 
L 448.398725 34.38 
z
" clip-path="url(#pcde032ef49)" style="fill: #ffd4d4"/>
    <path d="M 450.414979 34.38 
L 450.414979 7.2 
L 452.431233 7.2 
L 452.431233 34.38 
L 450.414979 34.38 
z
" clip-path="url(#pcde032ef49)" style="fill: #ffd6d6"/>
    <path d="M 452.431233 34.38 
L 452.431233 7.2 
L 454.447487 7.2 
L 454.447487 34.38 
L 452.431233 34.38 
z
" clip-path="url(#pcde032ef49)" style="fill: #ffb8b8"/>
    <path d="M 454.447487 34.38 
L 454.447487 7.2 
L 456.463741 7.2 
L 456.463741 34.38 
L 454.447487 34.38 
z
" clip-path="url(#pcde032ef49)" style="fill: #ff9494"/>
    <path d="M 456.463741 34.38 
L 456.463741 7.2 
L 458.479995 7.2 
L 458.479995 34.38 
L 456.463741 34.38 
z
" clip-path="url(#pcde032ef49)" style="fill: #ff9696"/>
    <path d="M 458.479995 34.38 
L 458.479995 7.2 
L 460.496249 7.2 
L 460.496249 34.38 
L 458.479995 34.38 
z
" clip-path="url(#pcde032ef49)" style="fill: #ff7e7e"/>
    <path d="M 460.496249 34.38 
L 460.496249 7.2 
L 462.512503 7.2 
L 462.512503 34.38 
L 460.496249 34.38 
z
" clip-path="url(#pcde032ef49)" style="fill: #ff7070"/>
    <path d="M 462.512503 34.38 
L 462.512503 7.2 
L 464.528757 7.2 
L 464.528757 34.38 
L 462.512503 34.38 
z
" clip-path="url(#pcde032ef49)" style="fill: #ff6868"/>
    <path d="M 464.528757 34.38 
L 464.528757 7.2 
L 466.545011 7.2 
L 466.545011 34.38 
L 464.528757 34.38 
z
" clip-path="url(#pcde032ef49)" style="fill: #ffe8e8"/>
    <path d="M 466.545011 34.38 
L 466.545011 7.2 
L 468.561265 7.2 
L 468.561265 34.38 
L 466.545011 34.38 
z
" clip-path="url(#pcde032ef49)" style="fill: #fff0f0"/>
    <path d="M 468.561265 34.38 
L 468.561265 7.2 
L 470.577519 7.2 
L 470.577519 34.38 
L 468.561265 34.38 
z
" clip-path="url(#pcde032ef49)" style="fill: #fff0f0"/>
    <path d="M 470.577519 34.38 
L 470.577519 7.2 
L 472.593773 7.2 
L 472.593773 34.38 
L 470.577519 34.38 
z
" clip-path="url(#pcde032ef49)" style="fill: #ff7676"/>
    <path d="M 472.593773 34.38 
L 472.593773 7.2 
L 474.610027 7.2 
L 474.610027 34.38 
L 472.593773 34.38 
z
" clip-path="url(#pcde032ef49)" style="fill: #ff7e7e"/>
    <path d="M 474.610027 34.38 
L 474.610027 7.2 
L 476.626281 7.2 
L 476.626281 34.38 
L 474.610027 34.38 
z
" clip-path="url(#pcde032ef49)" style="fill: #ff8282"/>
    <path d="M 476.626281 34.38 
L 476.626281 7.2 
L 478.642535 7.2 
L 478.642535 34.38 
L 476.626281 34.38 
z
" clip-path="url(#pcde032ef49)" style="fill: #ff6868"/>
    <path d="M 478.642535 34.38 
L 478.642535 7.2 
L 480.658788 7.2 
L 480.658788 34.38 
L 478.642535 34.38 
z
" clip-path="url(#pcde032ef49)" style="fill: #ff7474"/>
    <path d="M 480.658788 34.38 
L 480.658788 7.2 
L 482.675042 7.2 
L 482.675042 34.38 
L 480.658788 34.38 
z
" clip-path="url(#pcde032ef49)" style="fill: #fff4f4"/>
    <path d="M 482.675042 34.38 
L 482.675042 7.2 
L 484.691296 7.2 
L 484.691296 34.38 
L 482.675042 34.38 
z
" clip-path="url(#pcde032ef49)" style="fill: #fff2f2"/>
    <path d="M 484.691296 34.38 
L 484.691296 7.2 
L 486.70755 7.2 
L 486.70755 34.38 
L 484.691296 34.38 
z
" clip-path="url(#pcde032ef49)" style="fill: #fff0f0"/>
    <path d="M 486.70755 34.38 
L 486.70755 7.2 
L 488.723804 7.2 
L 488.723804 34.38 
L 486.70755 34.38 
z
" clip-path="url(#pcde032ef49)" style="fill: #ff8282"/>
    <path d="M 488.723804 34.38 
L 488.723804 7.2 
L 490.740058 7.2 
L 490.740058 34.38 
L 488.723804 34.38 
z
" clip-path="url(#pcde032ef49)" style="fill: #ff6a6a"/>
    <path d="M 490.740058 34.38 
L 490.740058 7.2 
L 492.756312 7.2 
L 492.756312 34.38 
L 490.740058 34.38 
z
" clip-path="url(#pcde032ef49)" style="fill: #ff6868"/>
    <path d="M 492.756312 34.38 
L 492.756312 7.2 
L 494.772566 7.2 
L 494.772566 34.38 
L 492.756312 34.38 
z
" clip-path="url(#pcde032ef49)" style="fill: #7474ff"/>
    <path d="M 494.772566 34.38 
L 494.772566 7.2 
L 496.78882 7.2 
L 496.78882 34.38 
L 494.772566 34.38 
z
" clip-path="url(#pcde032ef49)" style="fill: #6c6cff"/>
    <path d="M 496.78882 34.38 
L 496.78882 7.2 
L 498.805074 7.2 
L 498.805074 34.38 
L 496.78882 34.38 
z
" clip-path="url(#pcde032ef49)" style="fill: #7c7cff"/>
    <path d="M 498.805074 34.38 
L 498.805074 7.2 
L 500.821328 7.2 
L 500.821328 34.38 
L 498.805074 34.38 
z
" clip-path="url(#pcde032ef49)" style="fill: #7878ff"/>
    <path d="M 500.821328 34.38 
L 500.821328 7.2 
L 502.837582 7.2 
L 502.837582 34.38 
L 500.821328 34.38 
z
" clip-path="url(#pcde032ef49)" style="fill: #ffe6e6"/>
    <path d="M 502.837582 34.38 
L 502.837582 7.2 
L 504.853836 7.2 
L 504.853836 34.38 
L 502.837582 34.38 
z
" clip-path="url(#pcde032ef49)" style="fill: #8282ff"/>
    <path d="M 504.853836 34.38 
L 504.853836 7.2 
L 506.87009 7.2 
L 506.87009 34.38 
L 504.853836 34.38 
z
" clip-path="url(#pcde032ef49)" style="fill: #d6d6ff"/>
    <path d="M 506.87009 34.38 
L 506.87009 7.2 
L 508.886344 7.2 
L 508.886344 34.38 
L 506.87009 34.38 
z
" clip-path="url(#pcde032ef49)" style="fill: #f0f0ff"/>
    <path d="M 508.886344 34.38 
L 508.886344 7.2 
L 510.902598 7.2 
L 510.902598 34.38 
L 508.886344 34.38 
z
" clip-path="url(#pcde032ef49)" style="fill: #bcbcff"/>
    <path d="M 510.902598 34.38 
L 510.902598 7.2 
L 512.918852 7.2 
L 512.918852 34.38 
L 510.902598 34.38 
z
" clip-path="url(#pcde032ef49)" style="fill: #ffb2b2"/>
    <path d="M 512.918852 34.38 
L 512.918852 7.2 
L 514.935106 7.2 
L 514.935106 34.38 
L 512.918852 34.38 
z
" clip-path="url(#pcde032ef49)" style="fill: #c2c2ff"/>
    <path d="M 514.935106 34.38 
L 514.935106 7.2 
L 516.95136 7.2 
L 516.95136 34.38 
L 514.935106 34.38 
z
" clip-path="url(#pcde032ef49)" style="fill: #e4e4ff"/>
    <path d="M 516.95136 34.38 
L 516.95136 7.2 
L 518.967614 7.2 
L 518.967614 34.38 
L 516.95136 34.38 
z
" clip-path="url(#pcde032ef49)" style="fill: #4c4cff"/>
    <path d="M 518.967614 34.38 
L 518.967614 7.2 
L 520.983867 7.2 
L 520.983867 34.38 
L 518.967614 34.38 
z
" clip-path="url(#pcde032ef49)" style="fill: #ffecec"/>
    <path d="M 520.983867 34.38 
L 520.983867 7.2 
L 523.000121 7.2 
L 523.000121 34.38 
L 520.983867 34.38 
z
" clip-path="url(#pcde032ef49)" style="fill: #ffeaea"/>
    <path d="M 523.000121 34.38 
L 523.000121 7.2 
L 525.016375 7.2 
L 525.016375 34.38 
L 523.000121 34.38 
z
" clip-path="url(#pcde032ef49)" style="fill: #ffc4c4"/>
    <path d="M 525.016375 34.38 
L 525.016375 7.2 
L 527.032629 7.2 
L 527.032629 34.38 
L 525.016375 34.38 
z
" clip-path="url(#pcde032ef49)" style="fill: #ff0e0e"/>
    <path d="M 527.032629 34.38 
L 527.032629 7.2 
L 529.048883 7.2 
L 529.048883 34.38 
L 527.032629 34.38 
z
" clip-path="url(#pcde032ef49)" style="fill: #acacff"/>
    <path d="M 529.048883 34.38 
L 529.048883 7.2 
L 531.065137 7.2 
L 531.065137 34.38 
L 529.048883 34.38 
z
" clip-path="url(#pcde032ef49)" style="fill: #b4b4ff"/>
    <path d="M 531.065137 34.38 
L 531.065137 7.2 
L 533.081391 7.2 
L 533.081391 34.38 
L 531.065137 34.38 
z
" clip-path="url(#pcde032ef49)" style="fill: #b4b4ff"/>
    <path d="M 533.081391 34.38 
L 533.081391 7.2 
L 535.097645 7.2 
L 535.097645 34.38 
L 533.081391 34.38 
z
" clip-path="url(#pcde032ef49)" style="fill: #2222ff"/>
    <path d="M 535.097645 34.38 
L 535.097645 7.2 
L 537.113899 7.2 
L 537.113899 34.38 
L 535.097645 34.38 
z
" clip-path="url(#pcde032ef49)" style="fill: #0000ff"/>
    <path d="M 537.113899 34.38 
L 537.113899 7.2 
L 539.130153 7.2 
L 539.130153 34.38 
L 537.113899 34.38 
z
" clip-path="url(#pcde032ef49)" style="fill: #0000ff"/>
    <path d="M 539.130153 34.38 
L 539.130153 7.2 
L 541.146407 7.2 
L 541.146407 34.38 
L 539.130153 34.38 
z
" clip-path="url(#pcde032ef49)" style="fill: #0000ff"/>
    <path d="M 541.146407 34.38 
L 541.146407 7.2 
L 543.162661 7.2 
L 543.162661 34.38 
L 541.146407 34.38 
z
" clip-path="url(#pcde032ef49)" style="fill: #0000ff"/>
    <path d="M 543.162661 34.38 
L 543.162661 7.2 
L 545.178915 7.2 
L 545.178915 34.38 
L 543.162661 34.38 
z
" clip-path="url(#pcde032ef49)" style="fill: #9c9cff"/>
    <path d="M 545.178915 34.38 
L 545.178915 7.2 
L 547.195169 7.2 
L 547.195169 34.38 
L 545.178915 34.38 
z
" clip-path="url(#pcde032ef49)" style="fill: #c0c0ff"/>
    <path d="M 547.195169 34.38 
L 547.195169 7.2 
L 549.211423 7.2 
L 549.211423 34.38 
L 547.195169 34.38 
z
" clip-path="url(#pcde032ef49)" style="fill: #babaff"/>
    <path d="M 549.211423 34.38 
L 549.211423 7.2 
L 551.227677 7.2 
L 551.227677 34.38 
L 549.211423 34.38 
z
" clip-path="url(#pcde032ef49)" style="fill: #c2c2ff"/>
    <path d="M 551.227677 34.38 
L 551.227677 7.2 
L 553.243931 7.2 
L 553.243931 34.38 
L 551.227677 34.38 
z
" clip-path="url(#pcde032ef49)" style="fill: #d2d2ff"/>
    <path d="M 553.243931 34.38 
L 553.243931 7.2 
L 555.260185 7.2 
L 555.260185 34.38 
L 553.243931 34.38 
z
" clip-path="url(#pcde032ef49)" style="fill: #acacff"/>
    <path d="M 555.260185 34.38 
L 555.260185 7.2 
L 557.276439 7.2 
L 557.276439 34.38 
L 555.260185 34.38 
z
" clip-path="url(#pcde032ef49)" style="fill: #8a8aff"/>
    <path d="M 557.276439 34.38 
L 557.276439 7.2 
L 559.292693 7.2 
L 559.292693 34.38 
L 557.276439 34.38 
z
" clip-path="url(#pcde032ef49)" style="fill: #8e8eff"/>
    <path d="M 559.292693 34.38 
L 559.292693 7.2 
L 561.308946 7.2 
L 561.308946 34.38 
L 559.292693 34.38 
z
" clip-path="url(#pcde032ef49)" style="fill: #d2d2ff"/>
    <path d="M 561.308946 34.38 
L 561.308946 7.2 
L 563.3252 7.2 
L 563.3252 34.38 
L 561.308946 34.38 
z
" clip-path="url(#pcde032ef49)" style="fill: #e0e0ff"/>
    <path d="M 563.3252 34.38 
L 563.3252 7.2 
L 565.341454 7.2 
L 565.341454 34.38 
L 563.3252 34.38 
z
" clip-path="url(#pcde032ef49)" style="fill: #0000ff"/>
    <path d="M 565.341454 34.38 
L 565.341454 7.2 
L 567.357708 7.2 
L 567.357708 34.38 
L 565.341454 34.38 
z
" clip-path="url(#pcde032ef49)" style="fill: #b8b8ff"/>
    <path d="M 567.357708 34.38 
L 567.357708 7.2 
L 569.373962 7.2 
L 569.373962 34.38 
L 567.357708 34.38 
z
" clip-path="url(#pcde032ef49)" style="fill: #2e2eff"/>
    <path d="M 569.373962 34.38 
L 569.373962 7.2 
L 571.390216 7.2 
L 571.390216 34.38 
L 569.373962 34.38 
z
" clip-path="url(#pcde032ef49)" style="fill: #a2a2ff"/>
    <path d="M 571.390216 34.38 
L 571.390216 7.2 
L 573.40647 7.2 
L 573.40647 34.38 
L 571.390216 34.38 
z
" clip-path="url(#pcde032ef49)" style="fill: #0000ff"/>
    <path d="M 573.40647 34.38 
L 573.40647 7.2 
L 575.422724 7.2 
L 575.422724 34.38 
L 573.40647 34.38 
z
" clip-path="url(#pcde032ef49)" style="fill: #2626ff"/>
    <path d="M 575.422724 34.38 
L 575.422724 7.2 
L 577.438978 7.2 
L 577.438978 34.38 
L 575.422724 34.38 
z
" clip-path="url(#pcde032ef49)" style="fill: #6666ff"/>
    <path d="M 577.438978 34.38 
L 577.438978 7.2 
L 579.455232 7.2 
L 579.455232 34.38 
L 577.438978 34.38 
z
" clip-path="url(#pcde032ef49)" style="fill: #e8e8ff"/>
    <path d="M 579.455232 34.38 
L 579.455232 7.2 
L 581.471486 7.2 
L 581.471486 34.38 
L 579.455232 34.38 
z
" clip-path="url(#pcde032ef49)" style="fill: #ffd6d6"/>
    <path d="M 581.471486 34.38 
L 581.471486 7.2 
L 583.48774 7.2 
L 583.48774 34.38 
L 581.471486 34.38 
z
" clip-path="url(#pcde032ef49)" style="fill: #a8a8ff"/>
    <path d="M 583.48774 34.38 
L 583.48774 7.2 
L 585.503994 7.2 
L 585.503994 34.38 
L 583.48774 34.38 
z
" clip-path="url(#pcde032ef49)" style="fill: #ff8888"/>
    <path d="M 585.503994 34.38 
L 585.503994 7.2 
L 587.520248 7.2 
L 587.520248 34.38 
L 585.503994 34.38 
z
" clip-path="url(#pcde032ef49)" style="fill: #ffacac"/>
    <path d="M 587.520248 34.38 
L 587.520248 7.2 
L 589.536502 7.2 
L 589.536502 34.38 
L 587.520248 34.38 
z
" clip-path="url(#pcde032ef49)" style="fill: #dadaff"/>
    <path d="M 589.536502 34.38 
L 589.536502 7.2 
L 591.552756 7.2 
L 591.552756 34.38 
L 589.536502 34.38 
z
" clip-path="url(#pcde032ef49)" style="fill: #ffd4d4"/>
    <path d="M 591.552756 34.38 
L 591.552756 7.2 
L 593.56901 7.2 
L 593.56901 34.38 
L 591.552756 34.38 
z
" clip-path="url(#pcde032ef49)" style="fill: #d6d6ff"/>
    <path d="M 593.56901 34.38 
L 593.56901 7.2 
L 595.585264 7.2 
L 595.585264 34.38 
L 593.56901 34.38 
z
" clip-path="url(#pcde032ef49)" style="fill: #ff3838"/>
    <path d="M 595.585264 34.38 
L 595.585264 7.2 
L 597.601518 7.2 
L 597.601518 34.38 
L 595.585264 34.38 
z
" clip-path="url(#pcde032ef49)" style="fill: #e2e2ff"/>
    <path d="M 597.601518 34.38 
L 597.601518 7.2 
L 599.617772 7.2 
L 599.617772 34.38 
L 597.601518 34.38 
z
" clip-path="url(#pcde032ef49)" style="fill: #f2f2ff"/>
    <path d="M 599.617772 34.38 
L 599.617772 7.2 
L 601.634025 7.2 
L 601.634025 34.38 
L 599.617772 34.38 
z
" clip-path="url(#pcde032ef49)" style="fill: #ff0404"/>
    <path d="M 601.634025 34.38 
L 601.634025 7.2 
L 603.650279 7.2 
L 603.650279 34.38 
L 601.634025 34.38 
z
" clip-path="url(#pcde032ef49)" style="fill: #ffe4e4"/>
    <path d="M 603.650279 34.38 
L 603.650279 7.2 
L 605.666533 7.2 
L 605.666533 34.38 
L 603.650279 34.38 
z
" clip-path="url(#pcde032ef49)" style="fill: #ffbcbc"/>
    <path d="M 605.666533 34.38 
L 605.666533 7.2 
L 607.682787 7.2 
L 607.682787 34.38 
L 605.666533 34.38 
z
" clip-path="url(#pcde032ef49)" style="fill: #ff9494"/>
    <path d="M 607.682787 34.38 
L 607.682787 7.2 
L 609.699041 7.2 
L 609.699041 34.38 
L 607.682787 34.38 
z
" clip-path="url(#pcde032ef49)" style="fill: #ff1010"/>
    <path d="M 609.699041 34.38 
L 609.699041 7.2 
L 611.715295 7.2 
L 611.715295 34.38 
L 609.699041 34.38 
z
" clip-path="url(#pcde032ef49)" style="fill: #ffa4a4"/>
    <path d="M 611.715295 34.38 
L 611.715295 7.2 
L 613.731549 7.2 
L 613.731549 34.38 
L 611.715295 34.38 
z
" clip-path="url(#pcde032ef49)" style="fill: #eaeaff"/>
    <path d="M 613.731549 34.38 
L 613.731549 7.2 
L 615.747803 7.2 
L 615.747803 34.38 
L 613.731549 34.38 
z
" clip-path="url(#pcde032ef49)" style="fill: #ff7c7c"/>
    <path d="M 615.747803 34.38 
L 615.747803 7.2 
L 617.764057 7.2 
L 617.764057 34.38 
L 615.747803 34.38 
z
" clip-path="url(#pcde032ef49)" style="fill: #ffa4a4"/>
    <path d="M 617.764057 34.38 
L 617.764057 7.2 
L 619.780311 7.2 
L 619.780311 34.38 
L 617.764057 34.38 
z
" clip-path="url(#pcde032ef49)" style="fill: #fff8f8"/>
    <path d="M 619.780311 34.38 
L 619.780311 7.2 
L 621.796565 7.2 
L 621.796565 34.38 
L 619.780311 34.38 
z
" clip-path="url(#pcde032ef49)" style="fill: #dcdcff"/>
    <path d="M 621.796565 34.38 
L 621.796565 7.2 
L 623.812819 7.2 
L 623.812819 34.38 
L 621.796565 34.38 
z
" clip-path="url(#pcde032ef49)" style="fill: #ff6e6e"/>
    <path d="M 623.812819 34.38 
L 623.812819 7.2 
L 625.829073 7.2 
L 625.829073 34.38 
L 623.812819 34.38 
z
" clip-path="url(#pcde032ef49)" style="fill: #ff7a7a"/>
    <path d="M 625.829073 34.38 
L 625.829073 7.2 
L 627.845327 7.2 
L 627.845327 34.38 
L 625.829073 34.38 
z
" clip-path="url(#pcde032ef49)" style="fill: #ffb2b2"/>
    <path d="M 627.845327 34.38 
L 627.845327 7.2 
L 629.861581 7.2 
L 629.861581 34.38 
L 627.845327 34.38 
z
" clip-path="url(#pcde032ef49)" style="fill: #ffd8d8"/>
    <path d="M 629.861581 34.38 
L 629.861581 7.2 
L 631.877835 7.2 
L 631.877835 34.38 
L 629.861581 34.38 
z
" clip-path="url(#pcde032ef49)" style="fill: #ffbebe"/>
    <path d="M 631.877835 34.38 
L 631.877835 7.2 
L 633.894089 7.2 
L 633.894089 34.38 
L 631.877835 34.38 
z
" clip-path="url(#pcde032ef49)" style="fill: #f8f8ff"/>
    <path d="M 633.894089 34.38 
L 633.894089 7.2 
L 635.910343 7.2 
L 635.910343 34.38 
L 633.894089 34.38 
z
" clip-path="url(#pcde032ef49)" style="fill: #d0d0ff"/>
    <path d="M 635.910343 34.38 
L 635.910343 7.2 
L 637.926597 7.2 
L 637.926597 34.38 
L 635.910343 34.38 
z
" clip-path="url(#pcde032ef49)" style="fill: #fafaff"/>
    <path d="M 637.926597 34.38 
L 637.926597 7.2 
L 639.94285 7.2 
L 639.94285 34.38 
L 637.926597 34.38 
z
" clip-path="url(#pcde032ef49)" style="fill: #d0d0ff"/>
    <path d="M 639.94285 34.38 
L 639.94285 7.2 
L 641.959104 7.2 
L 641.959104 34.38 
L 639.94285 34.38 
z
" clip-path="url(#pcde032ef49)" style="fill: #ff9e9e"/>
    <path d="M 641.959104 34.38 
L 641.959104 7.2 
L 643.975358 7.2 
L 643.975358 34.38 
L 641.959104 34.38 
z
" clip-path="url(#pcde032ef49)" style="fill: #ffd8d8"/>
    <path d="M 643.975358 34.38 
L 643.975358 7.2 
L 645.991612 7.2 
L 645.991612 34.38 
L 643.975358 34.38 
z
" clip-path="url(#pcde032ef49)" style="fill: #ff0000"/>
    <path d="M 645.991612 34.38 
L 645.991612 7.2 
L 648.007866 7.2 
L 648.007866 34.38 
L 645.991612 34.38 
z
" clip-path="url(#pcde032ef49)" style="fill: #ff8e8e"/>
    <path d="M 648.007866 34.38 
L 648.007866 7.2 
L 650.02412 7.2 
L 650.02412 34.38 
L 648.007866 34.38 
z
" clip-path="url(#pcde032ef49)" style="fill: #fff0f0"/>
    <path d="M 650.02412 34.38 
L 650.02412 7.2 
L 652.040374 7.2 
L 652.040374 34.38 
L 650.02412 34.38 
z
" clip-path="url(#pcde032ef49)" style="fill: #fffefe"/>
    <path d="M 652.040374 34.38 
L 652.040374 7.2 
L 654.056628 7.2 
L 654.056628 34.38 
L 652.040374 34.38 
z
" clip-path="url(#pcde032ef49)" style="fill: #ff5050"/>
    <path d="M 654.056628 34.38 
L 654.056628 7.2 
L 656.072882 7.2 
L 656.072882 34.38 
L 654.056628 34.38 
z
" clip-path="url(#pcde032ef49)" style="fill: #ffb4b4"/>
    <path d="M 656.072882 34.38 
L 656.072882 7.2 
L 658.089136 7.2 
L 658.089136 34.38 
L 656.072882 34.38 
z
" clip-path="url(#pcde032ef49)" style="fill: #fff8f8"/>
    <path d="M 658.089136 34.38 
L 658.089136 7.2 
L 660.10539 7.2 
L 660.10539 34.38 
L 658.089136 34.38 
z
" clip-path="url(#pcde032ef49)" style="fill: #ff9a9a"/>
    <path d="M 660.10539 34.38 
L 660.10539 7.2 
L 662.121644 7.2 
L 662.121644 34.38 
L 660.10539 34.38 
z
" clip-path="url(#pcde032ef49)" style="fill: #ff6060"/>
    <path d="M 662.121644 34.38 
L 662.121644 7.2 
L 664.137898 7.2 
L 664.137898 34.38 
L 662.121644 34.38 
z
" clip-path="url(#pcde032ef49)" style="fill: #ff6e6e"/>
    <path d="M 664.137898 34.38 
L 664.137898 7.2 
L 666.154152 7.2 
L 666.154152 34.38 
L 664.137898 34.38 
z
" clip-path="url(#pcde032ef49)" style="fill: #ff8484"/>
    <path d="M 666.154152 34.38 
L 666.154152 7.2 
L 668.170406 7.2 
L 668.170406 34.38 
L 666.154152 34.38 
z
" clip-path="url(#pcde032ef49)" style="fill: #ff8a8a"/>
    <path d="M 668.170406 34.38 
L 668.170406 7.2 
L 670.18666 7.2 
L 670.18666 34.38 
L 668.170406 34.38 
z
" clip-path="url(#pcde032ef49)" style="fill: #ffe8e8"/>
    <path d="M 670.18666 34.38 
L 670.18666 7.2 
L 672.202914 7.2 
L 672.202914 34.38 
L 670.18666 34.38 
z
" clip-path="url(#pcde032ef49)" style="fill: #c6c6ff"/>
    <path d="M 672.202914 34.38 
L 672.202914 7.2 
L 674.219168 7.2 
L 674.219168 34.38 
L 672.202914 34.38 
z
" clip-path="url(#pcde032ef49)" style="fill: #ffdcdc"/>
    <path d="M 674.219168 34.38 
L 674.219168 7.2 
L 676.235422 7.2 
L 676.235422 34.38 
L 674.219168 34.38 
z
" clip-path="url(#pcde032ef49)" style="fill: #ffeaea"/>
    <path d="M 676.235422 34.38 
L 676.235422 7.2 
L 678.251676 7.2 
L 678.251676 34.38 
L 676.235422 34.38 
z
" clip-path="url(#pcde032ef49)" style="fill: #ffdcdc"/>
    <path d="M 678.251676 34.38 
L 678.251676 7.2 
L 680.267929 7.2 
L 680.267929 34.38 
L 678.251676 34.38 
z
" clip-path="url(#pcde032ef49)" style="fill: #ffe8e8"/>
    <path d="M 680.267929 34.38 
L 680.267929 7.2 
L 682.284183 7.2 
L 682.284183 34.38 
L 680.267929 34.38 
z
" clip-path="url(#pcde032ef49)" style="fill: #ffdcdc"/>
    <path d="M 682.284183 34.38 
L 682.284183 7.2 
L 684.300437 7.2 
L 684.300437 34.38 
L 682.284183 34.38 
z
" clip-path="url(#pcde032ef49)" style="fill: #e0e0ff"/>
    <path d="M 684.300437 34.38 
L 684.300437 7.2 
L 686.316691 7.2 
L 686.316691 34.38 
L 684.300437 34.38 
z
" clip-path="url(#pcde032ef49)" style="fill: #ffe8e8"/>
    <path d="M 686.316691 34.38 
L 686.316691 7.2 
L 688.332945 7.2 
L 688.332945 34.38 
L 686.316691 34.38 
z
" clip-path="url(#pcde032ef49)" style="fill: #5c5cff"/>
    <path d="M 688.332945 34.38 
L 688.332945 7.2 
L 690.349199 7.2 
L 690.349199 34.38 
L 688.332945 34.38 
z
" clip-path="url(#pcde032ef49)" style="fill: #5e5eff"/>
    <path d="M 690.349199 34.38 
L 690.349199 7.2 
L 692.365453 7.2 
L 692.365453 34.38 
L 690.349199 34.38 
z
" clip-path="url(#pcde032ef49)" style="fill: #c4c4ff"/>
    <path d="M 692.365453 34.38 
L 692.365453 7.2 
L 694.381707 7.2 
L 694.381707 34.38 
L 692.365453 34.38 
z
" clip-path="url(#pcde032ef49)" style="fill: #c8c8ff"/>
    <path d="M 694.381707 34.38 
L 694.381707 7.2 
L 696.397961 7.2 
L 696.397961 34.38 
L 694.381707 34.38 
z
" clip-path="url(#pcde032ef49)" style="fill: #c2c2ff"/>
    <path d="M 696.397961 34.38 
L 696.397961 7.2 
L 698.414215 7.2 
L 698.414215 34.38 
L 696.397961 34.38 
z
" clip-path="url(#pcde032ef49)" style="fill: #b0b0ff"/>
    <path d="M 698.414215 34.38 
L 698.414215 7.2 
L 700.430469 7.2 
L 700.430469 34.38 
L 698.414215 34.38 
z
" clip-path="url(#pcde032ef49)" style="fill: #c8c8ff"/>
    <path d="M 700.430469 34.38 
L 700.430469 7.2 
L 702.446723 7.2 
L 702.446723 34.38 
L 700.430469 34.38 
z
" clip-path="url(#pcde032ef49)" style="fill: #bebeff"/>
    <path d="M 702.446723 34.38 
L 702.446723 7.2 
L 704.462977 7.2 
L 704.462977 34.38 
L 702.446723 34.38 
z
" clip-path="url(#pcde032ef49)" style="fill: #a2a2ff"/>
    <path d="M 704.462977 34.38 
L 704.462977 7.2 
L 706.479231 7.2 
L 706.479231 34.38 
L 704.462977 34.38 
z
" clip-path="url(#pcde032ef49)" style="fill: #9696ff"/>
    <path d="M 706.479231 34.38 
L 706.479231 7.2 
L 708.495485 7.2 
L 708.495485 34.38 
L 706.479231 34.38 
z
" clip-path="url(#pcde032ef49)" style="fill: #a4a4ff"/>
    <path d="M 708.495485 34.38 
L 708.495485 7.2 
L 710.511739 7.2 
L 710.511739 34.38 
L 708.495485 34.38 
z
" clip-path="url(#pcde032ef49)" style="fill: #ffb4b4"/>
    <path d="M 710.511739 34.38 
L 710.511739 7.2 
L 712.527993 7.2 
L 712.527993 34.38 
L 710.511739 34.38 
z
" clip-path="url(#pcde032ef49)" style="fill: #ff8c8c"/>
    <path d="M 712.527993 34.38 
L 712.527993 7.2 
L 714.544247 7.2 
L 714.544247 34.38 
L 712.527993 34.38 
z
" clip-path="url(#pcde032ef49)" style="fill: #ffa0a0"/>
    <path d="M 714.544247 34.38 
L 714.544247 7.2 
L 716.560501 7.2 
L 716.560501 34.38 
L 714.544247 34.38 
z
" clip-path="url(#pcde032ef49)" style="fill: #ff7c7c"/>
    <path d="M 716.560501 34.38 
L 716.560501 7.2 
L 718.576755 7.2 
L 718.576755 34.38 
L 716.560501 34.38 
z
" clip-path="url(#pcde032ef49)" style="fill: #ff5252"/>
    <path d="M 718.576755 34.38 
L 718.576755 7.2 
L 720.593008 7.2 
L 720.593008 34.38 
L 718.576755 34.38 
z
" clip-path="url(#pcde032ef49)" style="fill: #ff7e7e"/>
    <path d="M 720.593008 34.38 
L 720.593008 7.2 
L 722.609262 7.2 
L 722.609262 34.38 
L 720.593008 34.38 
z
" clip-path="url(#pcde032ef49)" style="fill: #ffd2d2"/>
    <path d="M 722.609262 34.38 
L 722.609262 7.2 
L 724.625516 7.2 
L 724.625516 34.38 
L 722.609262 34.38 
z
" clip-path="url(#pcde032ef49)" style="fill: #ffb2b2"/>
    <path d="M 724.625516 34.38 
L 724.625516 7.2 
L 726.64177 7.2 
L 726.64177 34.38 
L 724.625516 34.38 
z
" clip-path="url(#pcde032ef49)" style="fill: #ffc2c2"/>
    <path d="M 726.64177 34.38 
L 726.64177 7.2 
L 728.658024 7.2 
L 728.658024 34.38 
L 726.64177 34.38 
z
" clip-path="url(#pcde032ef49)" style="fill: #ff0606"/>
    <path d="M 728.658024 34.38 
L 728.658024 7.2 
L 730.674278 7.2 
L 730.674278 34.38 
L 728.658024 34.38 
z
" clip-path="url(#pcde032ef49)" style="fill: #ff3838"/>
    <path d="M 730.674278 34.38 
L 730.674278 7.2 
L 732.690532 7.2 
L 732.690532 34.38 
L 730.674278 34.38 
z
" clip-path="url(#pcde032ef49)" style="fill: #eaeaff"/>
    <path d="M 732.690532 34.38 
L 732.690532 7.2 
L 734.706786 7.2 
L 734.706786 34.38 
L 732.690532 34.38 
z
" clip-path="url(#pcde032ef49)" style="fill: #ffaaaa"/>
    <path d="M 734.706786 34.38 
L 734.706786 7.2 
L 736.72304 7.2 
L 736.72304 34.38 
L 734.706786 34.38 
z
" clip-path="url(#pcde032ef49)" style="fill: #ffb4b4"/>
    <path d="M 736.72304 34.38 
L 736.72304 7.2 
L 738.739294 7.2 
L 738.739294 34.38 
L 736.72304 34.38 
z
" clip-path="url(#pcde032ef49)" style="fill: #ffcccc"/>
    <path d="M 738.739294 34.38 
L 738.739294 7.2 
L 740.755548 7.2 
L 740.755548 34.38 
L 738.739294 34.38 
z
" clip-path="url(#pcde032ef49)" style="fill: #ffc6c6"/>
    <path d="M 740.755548 34.38 
L 740.755548 7.2 
L 742.771802 7.2 
L 742.771802 34.38 
L 740.755548 34.38 
z
" clip-path="url(#pcde032ef49)" style="fill: #ffcccc"/>
    <path d="M 742.771802 34.38 
L 742.771802 7.2 
L 744.788056 7.2 
L 744.788056 34.38 
L 742.771802 34.38 
z
" clip-path="url(#pcde032ef49)" style="fill: #ff6060"/>
    <path d="M 744.788056 34.38 
L 744.788056 7.2 
L 746.80431 7.2 
L 746.80431 34.38 
L 744.788056 34.38 
z
" clip-path="url(#pcde032ef49)" style="fill: #ff6868"/>
    <path d="M 746.80431 34.38 
L 746.80431 7.2 
L 748.820564 7.2 
L 748.820564 34.38 
L 746.80431 34.38 
z
" clip-path="url(#pcde032ef49)" style="fill: #ff6868"/>
    <path d="M 748.820564 34.38 
L 748.820564 7.2 
L 750.836818 7.2 
L 750.836818 34.38 
L 748.820564 34.38 
z
" clip-path="url(#pcde032ef49)" style="fill: #d8d8ff"/>
    <path d="M 750.836818 34.38 
L 750.836818 7.2 
L 752.853072 7.2 
L 752.853072 34.38 
L 750.836818 34.38 
z
" clip-path="url(#pcde032ef49)" style="fill: #dadaff"/>
    <path d="M 752.853072 34.38 
L 752.853072 7.2 
L 754.869326 7.2 
L 754.869326 34.38 
L 752.853072 34.38 
z
" clip-path="url(#pcde032ef49)" style="fill: #d0d0ff"/>
    <path d="M 754.869326 34.38 
L 754.869326 7.2 
L 756.88558 7.2 
L 756.88558 34.38 
L 754.869326 34.38 
z
" clip-path="url(#pcde032ef49)" style="fill: #babaff"/>
    <path d="M 756.88558 34.38 
L 756.88558 7.2 
L 758.901834 7.2 
L 758.901834 34.38 
L 756.88558 34.38 
z
" clip-path="url(#pcde032ef49)" style="fill: #9292ff"/>
    <path d="M 758.901834 34.38 
L 758.901834 7.2 
L 760.918087 7.2 
L 760.918087 34.38 
L 758.901834 34.38 
z
" clip-path="url(#pcde032ef49)" style="fill: #9696ff"/>
    <path d="M 760.918087 34.38 
L 760.918087 7.2 
L 762.934341 7.2 
L 762.934341 34.38 
L 760.918087 34.38 
z
" clip-path="url(#pcde032ef49)" style="fill: #ff8080"/>
    <path d="M 762.934341 34.38 
L 762.934341 7.2 
L 764.950595 7.2 
L 764.950595 34.38 
L 762.934341 34.38 
z
" clip-path="url(#pcde032ef49)" style="fill: #ff6262"/>
    <path d="M 764.950595 34.38 
L 764.950595 7.2 
L 766.966849 7.2 
L 766.966849 34.38 
L 764.950595 34.38 
z
" clip-path="url(#pcde032ef49)" style="fill: #ffc4c4"/>
    <path d="M 766.966849 34.38 
L 766.966849 7.2 
L 768.983103 7.2 
L 768.983103 34.38 
L 766.966849 34.38 
z
" clip-path="url(#pcde032ef49)" style="fill: #ffcaca"/>
    <path d="M 768.983103 34.38 
L 768.983103 7.2 
L 770.999357 7.2 
L 770.999357 34.38 
L 768.983103 34.38 
z
" clip-path="url(#pcde032ef49)" style="fill: #ffcaca"/>
    <path d="M 770.999357 34.38 
L 770.999357 7.2 
L 773.015611 7.2 
L 773.015611 34.38 
L 770.999357 34.38 
z
" clip-path="url(#pcde032ef49)" style="fill: #ffd0d0"/>
    <path d="M 773.015611 34.38 
L 773.015611 7.2 
L 775.031865 7.2 
L 775.031865 34.38 
L 773.015611 34.38 
z
" clip-path="url(#pcde032ef49)" style="fill: #ff8c8c"/>
    <path d="M 775.031865 34.38 
L 775.031865 7.2 
L 777.048119 7.2 
L 777.048119 34.38 
L 775.031865 34.38 
z
" clip-path="url(#pcde032ef49)" style="fill: #ff8484"/>
    <path d="M 777.048119 34.38 
L 777.048119 7.2 
L 779.064373 7.2 
L 779.064373 34.38 
L 777.048119 34.38 
z
" clip-path="url(#pcde032ef49)" style="fill: #ff8c8c"/>
    <path d="M 779.064373 34.38 
L 779.064373 7.2 
L 781.080627 7.2 
L 781.080627 34.38 
L 779.064373 34.38 
z
" clip-path="url(#pcde032ef49)" style="fill: #ff6262"/>
    <path d="M 781.080627 34.38 
L 781.080627 7.2 
L 783.096881 7.2 
L 783.096881 34.38 
L 781.080627 34.38 
z
" clip-path="url(#pcde032ef49)" style="fill: #5656ff"/>
    <path d="M 783.096881 34.38 
L 783.096881 7.2 
L 785.113135 7.2 
L 785.113135 34.38 
L 783.096881 34.38 
z
" clip-path="url(#pcde032ef49)" style="fill: #6868ff"/>
    <path d="M 785.113135 34.38 
L 785.113135 7.2 
L 787.129389 7.2 
L 787.129389 34.38 
L 785.113135 34.38 
z
" clip-path="url(#pcde032ef49)" style="fill: #5656ff"/>
    <path d="M 787.129389 34.38 
L 787.129389 7.2 
L 789.145643 7.2 
L 789.145643 34.38 
L 787.129389 34.38 
z
" clip-path="url(#pcde032ef49)" style="fill: #b4b4ff"/>
    <path d="M 789.145643 34.38 
L 789.145643 7.2 
L 791.161897 7.2 
L 791.161897 34.38 
L 789.145643 34.38 
z
" clip-path="url(#pcde032ef49)" style="fill: #c2c2ff"/>
    <path d="M 791.161897 34.38 
L 791.161897 7.2 
L 793.178151 7.2 
L 793.178151 34.38 
L 791.161897 34.38 
z
" clip-path="url(#pcde032ef49)" style="fill: #b4b4ff"/>
    <path d="M 793.178151 34.38 
L 793.178151 7.2 
L 795.194405 7.2 
L 795.194405 34.38 
L 793.178151 34.38 
z
" clip-path="url(#pcde032ef49)" style="fill: #c4c4ff"/>
    <path d="M 795.194405 34.38 
L 795.194405 7.2 
L 797.210659 7.2 
L 797.210659 34.38 
L 795.194405 34.38 
z
" clip-path="url(#pcde032ef49)" style="fill: #eeeeff"/>
    <path d="M 797.210659 34.38 
L 797.210659 7.2 
L 799.226912 7.2 
L 799.226912 34.38 
L 797.210659 34.38 
z
" clip-path="url(#pcde032ef49)" style="fill: #6464ff"/>
    <path d="M 799.226912 34.38 
L 799.226912 7.2 
L 801.243166 7.2 
L 801.243166 34.38 
L 799.226912 34.38 
z
" clip-path="url(#pcde032ef49)" style="fill: #7c7cff"/>
    <path d="M 801.243166 34.38 
L 801.243166 7.2 
L 803.25942 7.2 
L 803.25942 34.38 
L 801.243166 34.38 
z
" clip-path="url(#pcde032ef49)" style="fill: #7070ff"/>
    <path d="M 803.25942 34.38 
L 803.25942 7.2 
L 805.275674 7.2 
L 805.275674 34.38 
L 803.25942 34.38 
z
" clip-path="url(#pcde032ef49)" style="fill: #ffd6d6"/>
    <path d="M 805.275674 34.38 
L 805.275674 7.2 
L 807.291928 7.2 
L 807.291928 34.38 
L 805.275674 34.38 
z
" clip-path="url(#pcde032ef49)" style="fill: #fff6f6"/>
    <path d="M 807.291928 34.38 
L 807.291928 7.2 
L 809.308182 7.2 
L 809.308182 34.38 
L 807.291928 34.38 
z
" clip-path="url(#pcde032ef49)" style="fill: #ffb6b6"/>
    <path d="M 809.308182 34.38 
L 809.308182 7.2 
L 811.324436 7.2 
L 811.324436 34.38 
L 809.308182 34.38 
z
" clip-path="url(#pcde032ef49)" style="fill: #ffacac"/>
    <path d="M 811.324436 34.38 
L 811.324436 7.2 
L 813.34069 7.2 
L 813.34069 34.38 
L 811.324436 34.38 
z
" clip-path="url(#pcde032ef49)" style="fill: #ffb6b6"/>
    <path d="M 813.34069 34.38 
L 813.34069 7.2 
L 815.356944 7.2 
L 815.356944 34.38 
L 813.34069 34.38 
z
" clip-path="url(#pcde032ef49)" style="fill: #ffdada"/>
    <path d="M 815.356944 34.38 
L 815.356944 7.2 
L 817.373198 7.2 
L 817.373198 34.38 
L 815.356944 34.38 
z
" clip-path="url(#pcde032ef49)" style="fill: #ffd2d2"/>
    <path d="M 817.373198 34.38 
L 817.373198 7.2 
L 819.389452 7.2 
L 819.389452 34.38 
L 817.373198 34.38 
z
" clip-path="url(#pcde032ef49)" style="fill: #ffd6d6"/>
    <path d="M 819.389452 34.38 
L 819.389452 7.2 
L 821.405706 7.2 
L 821.405706 34.38 
L 819.389452 34.38 
z
" clip-path="url(#pcde032ef49)" style="fill: #ffcccc"/>
    <path d="M 821.405706 34.38 
L 821.405706 7.2 
L 823.42196 7.2 
L 823.42196 34.38 
L 821.405706 34.38 
z
" clip-path="url(#pcde032ef49)" style="fill: #ffcaca"/>
    <path d="M 823.42196 34.38 
L 823.42196 7.2 
L 825.438214 7.2 
L 825.438214 34.38 
L 823.42196 34.38 
z
" clip-path="url(#pcde032ef49)" style="fill: #ff7272"/>
    <path d="M 825.438214 34.38 
L 825.438214 7.2 
L 827.454468 7.2 
L 827.454468 34.38 
L 825.438214 34.38 
z
" clip-path="url(#pcde032ef49)" style="fill: #ff8a8a"/>
    <path d="M 827.454468 34.38 
L 827.454468 7.2 
L 829.470722 7.2 
L 829.470722 34.38 
L 827.454468 34.38 
z
" clip-path="url(#pcde032ef49)" style="fill: #ff8888"/>
    <path d="M 829.470722 34.38 
L 829.470722 7.2 
L 831.486976 7.2 
L 831.486976 34.38 
L 829.470722 34.38 
z
" clip-path="url(#pcde032ef49)" style="fill: #ff3e3e"/>
    <path d="M 831.486976 34.38 
L 831.486976 7.2 
L 833.50323 7.2 
L 833.50323 34.38 
L 831.486976 34.38 
z
" clip-path="url(#pcde032ef49)" style="fill: #ff5a5a"/>
    <path d="M 833.50323 34.38 
L 833.50323 7.2 
L 835.519484 7.2 
L 835.519484 34.38 
L 833.50323 34.38 
z
" clip-path="url(#pcde032ef49)" style="fill: #ff5050"/>
    <path d="M 835.519484 34.38 
L 835.519484 7.2 
L 837.535738 7.2 
L 837.535738 34.38 
L 835.519484 34.38 
z
" clip-path="url(#pcde032ef49)" style="fill: #ffeaea"/>
    <path d="M 837.535738 34.38 
L 837.535738 7.2 
L 839.551991 7.2 
L 839.551991 34.38 
L 837.535738 34.38 
z
" clip-path="url(#pcde032ef49)" style="fill: #fff6f6"/>
    <path d="M 839.551991 34.38 
L 839.551991 7.2 
L 841.568245 7.2 
L 841.568245 34.38 
L 839.551991 34.38 
z
" clip-path="url(#pcde032ef49)" style="fill: #ff5454"/>
    <path d="M 841.568245 34.38 
L 841.568245 7.2 
L 843.584499 7.2 
L 843.584499 34.38 
L 841.568245 34.38 
z
" clip-path="url(#pcde032ef49)" style="fill: #ff4040"/>
    <path d="M 843.584499 34.38 
L 843.584499 7.2 
L 845.600753 7.2 
L 845.600753 34.38 
L 843.584499 34.38 
z
" clip-path="url(#pcde032ef49)" style="fill: #ff4242"/>
    <path d="M 845.600753 34.38 
L 845.600753 7.2 
L 847.617007 7.2 
L 847.617007 34.38 
L 845.600753 34.38 
z
" clip-path="url(#pcde032ef49)" style="fill: #ff5e5e"/>
    <path d="M 847.617007 34.38 
L 847.617007 7.2 
L 849.633261 7.2 
L 849.633261 34.38 
L 847.617007 34.38 
z
" clip-path="url(#pcde032ef49)" style="fill: #ff5858"/>
    <path d="M 849.633261 34.38 
L 849.633261 7.2 
L 851.649515 7.2 
L 851.649515 34.38 
L 849.633261 34.38 
z
" clip-path="url(#pcde032ef49)" style="fill: #ff6666"/>
    <path d="M 851.649515 34.38 
L 851.649515 7.2 
L 853.665769 7.2 
L 853.665769 34.38 
L 851.649515 34.38 
z
" clip-path="url(#pcde032ef49)" style="fill: #fff4f4"/>
    <path d="M 853.665769 34.38 
L 853.665769 7.2 
L 855.682023 7.2 
L 855.682023 34.38 
L 853.665769 34.38 
z
" clip-path="url(#pcde032ef49)" style="fill: #ffe4e4"/>
    <path d="M 855.682023 34.38 
L 855.682023 7.2 
L 857.698277 7.2 
L 857.698277 34.38 
L 855.682023 34.38 
z
" clip-path="url(#pcde032ef49)" style="fill: #ffe8e8"/>
    <path d="M 857.698277 34.38 
L 857.698277 7.2 
L 859.714531 7.2 
L 859.714531 34.38 
L 857.698277 34.38 
z
" clip-path="url(#pcde032ef49)" style="fill: #ff3a3a"/>
    <path d="M 859.714531 34.38 
L 859.714531 7.2 
L 861.730785 7.2 
L 861.730785 34.38 
L 859.714531 34.38 
z
" clip-path="url(#pcde032ef49)" style="fill: #ff2626"/>
    <path d="M 861.730785 34.38 
L 861.730785 7.2 
L 863.747039 7.2 
L 863.747039 34.38 
L 861.730785 34.38 
z
" clip-path="url(#pcde032ef49)" style="fill: #ff3434"/>
    <path d="M 863.747039 34.38 
L 863.747039 7.2 
L 865.763293 7.2 
L 865.763293 34.38 
L 863.747039 34.38 
z
" clip-path="url(#pcde032ef49)" style="fill: #5656ff"/>
    <path d="M 865.763293 34.38 
L 865.763293 7.2 
L 867.779547 7.2 
L 867.779547 34.38 
L 865.763293 34.38 
z
" clip-path="url(#pcde032ef49)" style="fill: #a4a4ff"/>
    <path d="M 867.779547 34.38 
L 867.779547 7.2 
L 869.795801 7.2 
L 869.795801 34.38 
L 867.779547 34.38 
z
" clip-path="url(#pcde032ef49)" style="fill: #d2d2ff"/>
    <path d="M 869.795801 34.38 
L 869.795801 7.2 
L 871.812055 7.2 
L 871.812055 34.38 
L 869.795801 34.38 
z
" clip-path="url(#pcde032ef49)" style="fill: #ffe8e8"/>
    <path d="M 871.812055 34.38 
L 871.812055 7.2 
L 873.828309 7.2 
L 873.828309 34.38 
L 871.812055 34.38 
z
" clip-path="url(#pcde032ef49)" style="fill: #e8e8ff"/>
    <path d="M 873.828309 34.38 
L 873.828309 7.2 
L 875.844563 7.2 
L 875.844563 34.38 
L 873.828309 34.38 
z
" clip-path="url(#pcde032ef49)" style="fill: #d2d2ff"/>
    <path d="M 875.844563 34.38 
L 875.844563 7.2 
L 877.860817 7.2 
L 877.860817 34.38 
L 875.844563 34.38 
z
" clip-path="url(#pcde032ef49)" style="fill: #ffe6e6"/>
    <path d="M 877.860817 34.38 
L 877.860817 7.2 
L 879.87707 7.2 
L 879.87707 34.38 
L 877.860817 34.38 
z
" clip-path="url(#pcde032ef49)" style="fill: #a0a0ff"/>
    <path d="M 879.87707 34.38 
L 879.87707 7.2 
L 881.893324 7.2 
L 881.893324 34.38 
L 879.87707 34.38 
z
" clip-path="url(#pcde032ef49)" style="fill: #f4f4ff"/>
    <path d="M 881.893324 34.38 
L 881.893324 7.2 
L 883.909578 7.2 
L 883.909578 34.38 
L 881.893324 34.38 
z
" clip-path="url(#pcde032ef49)" style="fill: #bcbcff"/>
    <path d="M 883.909578 34.38 
L 883.909578 7.2 
L 885.925832 7.2 
L 885.925832 34.38 
L 883.909578 34.38 
z
" clip-path="url(#pcde032ef49)" style="fill: #d8d8ff"/>
    <path d="M 885.925832 34.38 
L 885.925832 7.2 
L 887.942086 7.2 
L 887.942086 34.38 
L 885.925832 34.38 
z
" clip-path="url(#pcde032ef49)" style="fill: #ff8e8e"/>
    <path d="M 887.942086 34.38 
L 887.942086 7.2 
L 889.95834 7.2 
L 889.95834 34.38 
L 887.942086 34.38 
z
" clip-path="url(#pcde032ef49)" style="fill: #fff4f4"/>
    <path d="M 889.95834 34.38 
L 889.95834 7.2 
L 891.974594 7.2 
L 891.974594 34.38 
L 889.95834 34.38 
z
" clip-path="url(#pcde032ef49)" style="fill: #ff9e9e"/>
    <path d="M 891.974594 34.38 
L 891.974594 7.2 
L 893.990848 7.2 
L 893.990848 34.38 
L 891.974594 34.38 
z
" clip-path="url(#pcde032ef49)" style="fill: #eaeaff"/>
    <path d="M 893.990848 34.38 
L 893.990848 7.2 
L 896.007102 7.2 
L 896.007102 34.38 
L 893.990848 34.38 
z
" clip-path="url(#pcde032ef49)" style="fill: #ffc4c4"/>
    <path d="M 896.007102 34.38 
L 896.007102 7.2 
L 898.023356 7.2 
L 898.023356 34.38 
L 896.007102 34.38 
z
" clip-path="url(#pcde032ef49)" style="fill: #ffaaaa"/>
    <path d="M 898.023356 34.38 
L 898.023356 7.2 
L 900.03961 7.2 
L 900.03961 34.38 
L 898.023356 34.38 
z
" clip-path="url(#pcde032ef49)" style="fill: #ffa6a6"/>
    <path d="M 900.03961 34.38 
L 900.03961 7.2 
L 902.055864 7.2 
L 902.055864 34.38 
L 900.03961 34.38 
z
" clip-path="url(#pcde032ef49)" style="fill: #ff9494"/>
    <path d="M 902.055864 34.38 
L 902.055864 7.2 
L 904.072118 7.2 
L 904.072118 34.38 
L 902.055864 34.38 
z
" clip-path="url(#pcde032ef49)" style="fill: #ffbaba"/>
    <path d="M 904.072118 34.38 
L 904.072118 7.2 
L 906.088372 7.2 
L 906.088372 34.38 
L 904.072118 34.38 
z
" clip-path="url(#pcde032ef49)" style="fill: #ffbaba"/>
    <path d="M 906.088372 34.38 
L 906.088372 7.2 
L 908.104626 7.2 
L 908.104626 34.38 
L 906.088372 34.38 
z
" clip-path="url(#pcde032ef49)" style="fill: #ffacac"/>
    <path d="M 908.104626 34.38 
L 908.104626 7.2 
L 910.12088 7.2 
L 910.12088 34.38 
L 908.104626 34.38 
z
" clip-path="url(#pcde032ef49)" style="fill: #ffe2e2"/>
    <path d="M 910.12088 34.38 
L 910.12088 7.2 
L 912.137134 7.2 
L 912.137134 34.38 
L 910.12088 34.38 
z
" clip-path="url(#pcde032ef49)" style="fill: #ececff"/>
    <path d="M 912.137134 34.38 
L 912.137134 7.2 
L 914.153388 7.2 
L 914.153388 34.38 
L 912.137134 34.38 
z
" clip-path="url(#pcde032ef49)" style="fill: #e2e2ff"/>
    <path d="M 914.153388 34.38 
L 914.153388 7.2 
L 916.169642 7.2 
L 916.169642 34.38 
L 914.153388 34.38 
z
" clip-path="url(#pcde032ef49)" style="fill: #d2d2ff"/>
    <path d="M 916.169642 34.38 
L 916.169642 7.2 
L 918.185896 7.2 
L 918.185896 34.38 
L 916.169642 34.38 
z
" clip-path="url(#pcde032ef49)" style="fill: #ffecec"/>
    <path d="M 918.185896 34.38 
L 918.185896 7.2 
L 920.202149 7.2 
L 920.202149 34.38 
L 918.185896 34.38 
z
" clip-path="url(#pcde032ef49)" style="fill: #ffcece"/>
    <path d="M 920.202149 34.38 
L 920.202149 7.2 
L 922.218403 7.2 
L 922.218403 34.38 
L 920.202149 34.38 
z
" clip-path="url(#pcde032ef49)" style="fill: #ffc8c8"/>
    <path d="M 922.218403 34.38 
L 922.218403 7.2 
L 924.234657 7.2 
L 924.234657 34.38 
L 922.218403 34.38 
z
" clip-path="url(#pcde032ef49)" style="fill: #babaff"/>
    <path d="M 924.234657 34.38 
L 924.234657 7.2 
L 926.250911 7.2 
L 926.250911 34.38 
L 924.234657 34.38 
z
" clip-path="url(#pcde032ef49)" style="fill: #eaeaff"/>
    <path d="M 926.250911 34.38 
L 926.250911 7.2 
L 928.267165 7.2 
L 928.267165 34.38 
L 926.250911 34.38 
z
" clip-path="url(#pcde032ef49)" style="fill: #ececff"/>
    <path d="M 928.267165 34.38 
L 928.267165 7.2 
L 930.283419 7.2 
L 930.283419 34.38 
L 928.267165 34.38 
z
" clip-path="url(#pcde032ef49)" style="fill: #e8e8ff"/>
    <path d="M 930.283419 34.38 
L 930.283419 7.2 
L 932.299673 7.2 
L 932.299673 34.38 
L 930.283419 34.38 
z
" clip-path="url(#pcde032ef49)" style="fill: #ffcccc"/>
    <path d="M 932.299673 34.38 
L 932.299673 7.2 
L 934.315927 7.2 
L 934.315927 34.38 
L 932.299673 34.38 
z
" clip-path="url(#pcde032ef49)" style="fill: #ffcccc"/>
    <path d="M 934.315927 34.38 
L 934.315927 7.2 
L 936.332181 7.2 
L 936.332181 34.38 
L 934.315927 34.38 
z
" clip-path="url(#pcde032ef49)" style="fill: #ffd8d8"/>
    <path d="M 936.332181 34.38 
L 936.332181 7.2 
L 938.348435 7.2 
L 938.348435 34.38 
L 936.332181 34.38 
z
" clip-path="url(#pcde032ef49)" style="fill: #ffdada"/>
    <path d="M 938.348435 34.38 
L 938.348435 7.2 
L 940.364689 7.2 
L 940.364689 34.38 
L 938.348435 34.38 
z
" clip-path="url(#pcde032ef49)" style="fill: #ffdada"/>
    <path d="M 940.364689 34.38 
L 940.364689 7.2 
L 942.380943 7.2 
L 942.380943 34.38 
L 940.364689 34.38 
z
" clip-path="url(#pcde032ef49)" style="fill: #ffdede"/>
    <path d="M 942.380943 34.38 
L 942.380943 7.2 
L 944.397197 7.2 
L 944.397197 34.38 
L 942.380943 34.38 
z
" clip-path="url(#pcde032ef49)" style="fill: #e4e4ff"/>
    <path d="M 944.397197 34.38 
L 944.397197 7.2 
L 946.413451 7.2 
L 946.413451 34.38 
L 944.397197 34.38 
z
" clip-path="url(#pcde032ef49)" style="fill: #d4d4ff"/>
    <path d="M 946.413451 34.38 
L 946.413451 7.2 
L 948.429705 7.2 
L 948.429705 34.38 
L 946.413451 34.38 
z
" clip-path="url(#pcde032ef49)" style="fill: #dedeff"/>
    <path d="M 948.429705 34.38 
L 948.429705 7.2 
L 950.445959 7.2 
L 950.445959 34.38 
L 948.429705 34.38 
z
" clip-path="url(#pcde032ef49)" style="fill: #fff4f4"/>
    <path d="M 950.445959 34.38 
L 950.445959 7.2 
L 952.462213 7.2 
L 952.462213 34.38 
L 950.445959 34.38 
z
" clip-path="url(#pcde032ef49)" style="fill: #ffd8d8"/>
    <path d="M 952.462213 34.38 
L 952.462213 7.2 
L 954.478467 7.2 
L 954.478467 34.38 
L 952.462213 34.38 
z
" clip-path="url(#pcde032ef49)" style="fill: #ffdede"/>
    <path d="M 954.478467 34.38 
L 954.478467 7.2 
L 956.494721 7.2 
L 956.494721 34.38 
L 954.478467 34.38 
z
" clip-path="url(#pcde032ef49)" style="fill: #f2f2ff"/>
    <path d="M 956.494721 34.38 
L 956.494721 7.2 
L 958.510974 7.2 
L 958.510974 34.38 
L 956.494721 34.38 
z
" clip-path="url(#pcde032ef49)" style="fill: #dcdcff"/>
    <path d="M 958.510974 34.38 
L 958.510974 7.2 
L 960.527228 7.2 
L 960.527228 34.38 
L 958.510974 34.38 
z
" clip-path="url(#pcde032ef49)" style="fill: #e6e6ff"/>
    <path d="M 960.527228 34.38 
L 960.527228 7.2 
L 962.543482 7.2 
L 962.543482 34.38 
L 960.527228 34.38 
z
" clip-path="url(#pcde032ef49)" style="fill: #ff9a9a"/>
    <path d="M 962.543482 34.38 
L 962.543482 7.2 
L 964.559736 7.2 
L 964.559736 34.38 
L 962.543482 34.38 
z
" clip-path="url(#pcde032ef49)" style="fill: #ffa0a0"/>
    <path d="M 964.559736 34.38 
L 964.559736 7.2 
L 966.57599 7.2 
L 966.57599 34.38 
L 964.559736 34.38 
z
" clip-path="url(#pcde032ef49)" style="fill: #ffa0a0"/>
   </g>
   <g id="patch_3">
    <path d="M 141.928125 34.38 
L 141.928125 7.2 
" style="fill: none; stroke: #262626; stroke-width: 1.25; stroke-linejoin: miter; stroke-linecap: square"/>
   </g>
   <g id="patch_4">
    <path d="M 966.57599 34.38 
L 966.57599 7.2 
" style="fill: none; stroke: #262626; stroke-width: 1.25; stroke-linejoin: miter; stroke-linecap: square"/>
   </g>
   <g id="patch_5">
    <path d="M 141.928125 34.38 
L 966.57599 34.38 
" style="fill: none; stroke: #262626; stroke-width: 1.25; stroke-linejoin: miter; stroke-linecap: square"/>
   </g>
   <g id="patch_6">
    <path d="M 141.928125 7.2 
L 966.57599 7.2 
" style="fill: none; stroke: #262626; stroke-width: 1.25; stroke-linejoin: miter; stroke-linecap: square"/>
   </g>
   <g id="text_6">
    <text style="fill: #262626; font: 18px 'sans-serif'; text-anchor: middle" x="317.342219" y="64.278" transform="rotate(-0, 317.342219, 64.278)">Cells</text>
   </g>
   <g id="text_7">
    <text style="fill: #262626; font: 18px 'sans-serif'; text-anchor: middle" x="680.267929" y="64.278" transform="rotate(-0, 680.267929, 64.278)">Cytoplasm</text>
   </g>
   <g id="text_8">
    <text style="fill: #262626; font: 18px 'sans-serif'; text-anchor: middle" x="916.169642" y="64.278" transform="rotate(-0, 916.169642, 64.278)">Nuclei</text>
   </g>
  </g>
 </g>
 <defs>
  <clipPath id="pcde032ef49">
   <rect x="141.928125" y="7.2" width="824.647865" height="27.18"/>
  </clipPath>
 </defs>
</svg>
