<?xml version="1.0" encoding="utf-8" standalone="no"?>
<!DOCTYPE svg PUBLIC "-//W3C//DTD SVG 1.1//EN"
  "http://www.w3.org/Graphics/SVG/1.1/DTD/svg11.dtd">
<svg xmlns:xlink="http://www.w3.org/1999/xlink" width="866.543249pt" height="75.266437pt" viewBox="0 0 866.543249 75.266437" xmlns="http://www.w3.org/2000/svg" version="1.1">
 <metadata>
  <rdf:RDF xmlns:dc="http://purl.org/dc/elements/1.1/" xmlns:cc="http://creativecommons.org/ns#" xmlns:rdf="http://www.w3.org/1999/02/22-rdf-syntax-ns#">
   <cc:Work>
    <dc:type rdf:resource="http://purl.org/dc/dcmitype/StillImage"/>
    <dc:date>2022-05-11T11:53:58.258275</dc:date>
    <dc:format>image/svg+xml</dc:format>
    <dc:creator>
     <cc:Agent>
      <dc:title>Matplotlib v3.5.1, https://matplotlib.org/</dc:title>
     </cc:Agent>
    </dc:creator>
   </cc:Work>
  </rdf:RDF>
 </metadata>
 <defs>
  <style type="text/css">*{stroke-linejoin: round; stroke-linecap: butt}</style>
 </defs>
 <g id="figure_1">
  <g id="patch_1">
   <path d="M 0 75.266437 
L 866.543249 75.266437 
L 866.543249 0 
L 0 0 
z
" style="fill: #ffffff"/>
  </g>
  <g id="axes_1">
   <g id="patch_2">
    <path d="M 72.971875 34.38 
L 846.831139 34.38 
L 846.831139 7.2 
L 72.971875 7.2 
z
" style="fill: #ffffff"/>
   </g>
   <g id="matplotlib.axis_1">
    <g id="xtick_1">
     <g id="line2d_1"/>
     <g id="text_1">
      <!-- 1 -->
      <g style="fill: #262626" transform="translate(70.848419 54.216719)scale(0.15 -0.15)">
       <defs>
        <path id="ArialMT-31" d="M 2384 0 
L 1822 0 
L 1822 3584 
Q 1619 3391 1289 3197 
Q 959 3003 697 2906 
L 697 3450 
Q 1169 3672 1522 3987 
Q 1875 4303 2022 4600 
L 2384 4600 
L 2384 0 
z
" transform="scale(0.015625)"/>
       </defs>
       <use xlink:href="#ArialMT-31"/>
      </g>
     </g>
    </g>
    <g id="xtick_2">
     <g id="line2d_2"/>
     <g id="text_2">
      <!-- 150 -->
      <g style="fill: #262626" transform="translate(367.546775 54.216719)scale(0.15 -0.15)">
       <defs>
        <path id="ArialMT-35" d="M 266 1200 
L 856 1250 
Q 922 819 1161 601 
Q 1400 384 1738 384 
Q 2144 384 2425 690 
Q 2706 997 2706 1503 
Q 2706 1984 2436 2262 
Q 2166 2541 1728 2541 
Q 1456 2541 1237 2417 
Q 1019 2294 894 2097 
L 366 2166 
L 809 4519 
L 3088 4519 
L 3088 3981 
L 1259 3981 
L 1013 2750 
Q 1425 3038 1878 3038 
Q 2478 3038 2890 2622 
Q 3303 2206 3303 1553 
Q 3303 931 2941 478 
Q 2500 -78 1738 -78 
Q 1113 -78 717 272 
Q 322 622 266 1200 
z
" transform="scale(0.015625)"/>
        <path id="ArialMT-30" d="M 266 2259 
Q 266 3072 433 3567 
Q 600 4063 929 4331 
Q 1259 4600 1759 4600 
Q 2128 4600 2406 4451 
Q 2684 4303 2865 4023 
Q 3047 3744 3150 3342 
Q 3253 2941 3253 2259 
Q 3253 1453 3087 958 
Q 2922 463 2592 192 
Q 2263 -78 1759 -78 
Q 1097 -78 719 397 
Q 266 969 266 2259 
z
M 844 2259 
Q 844 1131 1108 757 
Q 1372 384 1759 384 
Q 2147 384 2411 759 
Q 2675 1134 2675 2259 
Q 2675 3391 2411 3762 
Q 2147 4134 1753 4134 
Q 1366 4134 1134 3806 
Q 844 3388 844 2259 
z
" transform="scale(0.015625)"/>
       </defs>
       <use xlink:href="#ArialMT-31"/>
       <use xlink:href="#ArialMT-35" x="55.615234"/>
       <use xlink:href="#ArialMT-30" x="111.230469"/>
      </g>
     </g>
    </g>
    <g id="xtick_3">
     <g id="line2d_3"/>
     <g id="text_3">
      <!-- 327 -->
      <g style="fill: #262626" transform="translate(729.909447 54.216719)scale(0.15 -0.15)">
       <defs>
        <path id="ArialMT-33" d="M 269 1209 
L 831 1284 
Q 928 806 1161 595 
Q 1394 384 1728 384 
Q 2125 384 2398 659 
Q 2672 934 2672 1341 
Q 2672 1728 2419 1979 
Q 2166 2231 1775 2231 
Q 1616 2231 1378 2169 
L 1441 2663 
Q 1497 2656 1531 2656 
Q 1891 2656 2178 2843 
Q 2466 3031 2466 3422 
Q 2466 3731 2256 3934 
Q 2047 4138 1716 4138 
Q 1388 4138 1169 3931 
Q 950 3725 888 3313 
L 325 3413 
Q 428 3978 793 4289 
Q 1159 4600 1703 4600 
Q 2078 4600 2393 4439 
Q 2709 4278 2876 4000 
Q 3044 3722 3044 3409 
Q 3044 3113 2884 2869 
Q 2725 2625 2413 2481 
Q 2819 2388 3044 2092 
Q 3269 1797 3269 1353 
Q 3269 753 2831 336 
Q 2394 -81 1725 -81 
Q 1122 -81 723 278 
Q 325 638 269 1209 
z
" transform="scale(0.015625)"/>
        <path id="ArialMT-32" d="M 3222 541 
L 3222 0 
L 194 0 
Q 188 203 259 391 
Q 375 700 629 1000 
Q 884 1300 1366 1694 
Q 2113 2306 2375 2664 
Q 2638 3022 2638 3341 
Q 2638 3675 2398 3904 
Q 2159 4134 1775 4134 
Q 1369 4134 1125 3890 
Q 881 3647 878 3216 
L 300 3275 
Q 359 3922 746 4261 
Q 1134 4600 1788 4600 
Q 2447 4600 2831 4234 
Q 3216 3869 3216 3328 
Q 3216 3053 3103 2787 
Q 2991 2522 2730 2228 
Q 2469 1934 1863 1422 
Q 1356 997 1212 845 
Q 1069 694 975 541 
L 3222 541 
z
" transform="scale(0.015625)"/>
        <path id="ArialMT-37" d="M 303 3981 
L 303 4522 
L 3269 4522 
L 3269 4084 
Q 2831 3619 2401 2847 
Q 1972 2075 1738 1259 
Q 1569 684 1522 0 
L 944 0 
Q 953 541 1156 1306 
Q 1359 2072 1739 2783 
Q 2119 3494 2547 3981 
L 303 3981 
z
" transform="scale(0.015625)"/>
       </defs>
       <use xlink:href="#ArialMT-33"/>
       <use xlink:href="#ArialMT-32" x="55.615234"/>
       <use xlink:href="#ArialMT-37" x="111.230469"/>
      </g>
     </g>
    </g>
    <g id="xtick_4">
     <g id="line2d_4"/>
     <g id="text_4">
      <!-- 378 -->
      <g style="fill: #262626" transform="translate(834.31903 54.216719)scale(0.15 -0.15)">
       <defs>
        <path id="ArialMT-38" d="M 1131 2484 
Q 781 2613 612 2850 
Q 444 3088 444 3419 
Q 444 3919 803 4259 
Q 1163 4600 1759 4600 
Q 2359 4600 2725 4251 
Q 3091 3903 3091 3403 
Q 3091 3084 2923 2848 
Q 2756 2613 2416 2484 
Q 2838 2347 3058 2040 
Q 3278 1734 3278 1309 
Q 3278 722 2862 322 
Q 2447 -78 1769 -78 
Q 1091 -78 675 323 
Q 259 725 259 1325 
Q 259 1772 486 2073 
Q 713 2375 1131 2484 
z
M 1019 3438 
Q 1019 3113 1228 2906 
Q 1438 2700 1772 2700 
Q 2097 2700 2305 2904 
Q 2513 3109 2513 3406 
Q 2513 3716 2298 3927 
Q 2084 4138 1766 4138 
Q 1444 4138 1231 3931 
Q 1019 3725 1019 3438 
z
M 838 1322 
Q 838 1081 952 856 
Q 1066 631 1291 507 
Q 1516 384 1775 384 
Q 2178 384 2440 643 
Q 2703 903 2703 1303 
Q 2703 1709 2433 1975 
Q 2163 2241 1756 2241 
Q 1359 2241 1098 1978 
Q 838 1716 838 1322 
z
" transform="scale(0.015625)"/>
       </defs>
       <use xlink:href="#ArialMT-33"/>
       <use xlink:href="#ArialMT-37" x="55.615234"/>
       <use xlink:href="#ArialMT-38" x="111.230469"/>
      </g>
     </g>
    </g>
   </g>
   <g id="matplotlib.axis_2">
    <g id="ytick_1">
     <g id="line2d_5"/>
     <g id="text_5">
      <!-- HDAC -->
      <g style="fill: #262626" transform="translate(7.2 27.947812)scale(0.2 -0.2)">
       <defs>
        <path id="ArialMT-48" d="M 513 0 
L 513 4581 
L 1119 4581 
L 1119 2700 
L 3500 2700 
L 3500 4581 
L 4106 4581 
L 4106 0 
L 3500 0 
L 3500 2159 
L 1119 2159 
L 1119 0 
L 513 0 
z
" transform="scale(0.015625)"/>
        <path id="ArialMT-44" d="M 494 0 
L 494 4581 
L 2072 4581 
Q 2606 4581 2888 4516 
Q 3281 4425 3559 4188 
Q 3922 3881 4101 3404 
Q 4281 2928 4281 2316 
Q 4281 1794 4159 1391 
Q 4038 988 3847 723 
Q 3656 459 3429 307 
Q 3203 156 2883 78 
Q 2563 0 2147 0 
L 494 0 
z
M 1100 541 
L 2078 541 
Q 2531 541 2789 625 
Q 3047 709 3200 863 
Q 3416 1078 3536 1442 
Q 3656 1806 3656 2325 
Q 3656 3044 3420 3430 
Q 3184 3816 2847 3947 
Q 2603 4041 2063 4041 
L 1100 4041 
L 1100 541 
z
" transform="scale(0.015625)"/>
        <path id="ArialMT-41" d="M -9 0 
L 1750 4581 
L 2403 4581 
L 4278 0 
L 3588 0 
L 3053 1388 
L 1138 1388 
L 634 0 
L -9 0 
z
M 1313 1881 
L 2866 1881 
L 2388 3150 
Q 2169 3728 2063 4100 
Q 1975 3659 1816 3225 
L 1313 1881 
z
" transform="scale(0.015625)"/>
        <path id="ArialMT-43" d="M 3763 1606 
L 4369 1453 
Q 4178 706 3683 314 
Q 3188 -78 2472 -78 
Q 1731 -78 1267 223 
Q 803 525 561 1097 
Q 319 1669 319 2325 
Q 319 3041 592 3573 
Q 866 4106 1370 4382 
Q 1875 4659 2481 4659 
Q 3169 4659 3637 4309 
Q 4106 3959 4291 3325 
L 3694 3184 
Q 3534 3684 3231 3912 
Q 2928 4141 2469 4141 
Q 1941 4141 1586 3887 
Q 1231 3634 1087 3207 
Q 944 2781 944 2328 
Q 944 1744 1114 1308 
Q 1284 872 1643 656 
Q 2003 441 2422 441 
Q 2931 441 3284 734 
Q 3638 1028 3763 1606 
z
" transform="scale(0.015625)"/>
       </defs>
       <use xlink:href="#ArialMT-48"/>
       <use xlink:href="#ArialMT-44" x="72.216797"/>
       <use xlink:href="#ArialMT-41" x="144.433594"/>
       <use xlink:href="#ArialMT-43" x="211.132812"/>
      </g>
     </g>
    </g>
   </g>
   <g id="PolyCollection_1">
    <path d="M 72.971875 34.38 
L 72.971875 7.2 
L 75.019122 7.2 
L 75.019122 34.38 
L 72.971875 34.38 
z
" clip-path="url(#pc3a54c76b3)" style="fill: #9292ff"/>
    <path d="M 75.019122 34.38 
L 75.019122 7.2 
L 77.066368 7.2 
L 77.066368 34.38 
L 75.019122 34.38 
z
" clip-path="url(#pc3a54c76b3)" style="fill: #4242ff"/>
    <path d="M 77.066368 34.38 
L 77.066368 7.2 
L 79.113615 7.2 
L 79.113615 34.38 
L 77.066368 34.38 
z
" clip-path="url(#pc3a54c76b3)" style="fill: #2828ff"/>
    <path d="M 79.113615 34.38 
L 79.113615 7.2 
L 81.160862 7.2 
L 81.160862 34.38 
L 79.113615 34.38 
z
" clip-path="url(#pc3a54c76b3)" style="fill: #6868ff"/>
    <path d="M 81.160862 34.38 
L 81.160862 7.2 
L 83.208109 7.2 
L 83.208109 34.38 
L 81.160862 34.38 
z
" clip-path="url(#pc3a54c76b3)" style="fill: #5454ff"/>
    <path d="M 83.208109 34.38 
L 83.208109 7.2 
L 85.255355 7.2 
L 85.255355 34.38 
L 83.208109 34.38 
z
" clip-path="url(#pc3a54c76b3)" style="fill: #ffb2b2"/>
    <path d="M 85.255355 34.38 
L 85.255355 7.2 
L 87.302602 7.2 
L 87.302602 34.38 
L 85.255355 34.38 
z
" clip-path="url(#pc3a54c76b3)" style="fill: #ffdede"/>
    <path d="M 87.302602 34.38 
L 87.302602 7.2 
L 89.349849 7.2 
L 89.349849 34.38 
L 87.302602 34.38 
z
" clip-path="url(#pc3a54c76b3)" style="fill: #c8c8ff"/>
    <path d="M 89.349849 34.38 
L 89.349849 7.2 
L 91.397096 7.2 
L 91.397096 34.38 
L 89.349849 34.38 
z
" clip-path="url(#pc3a54c76b3)" style="fill: #d2d2ff"/>
    <path d="M 91.397096 34.38 
L 91.397096 7.2 
L 93.444342 7.2 
L 93.444342 34.38 
L 91.397096 34.38 
z
" clip-path="url(#pc3a54c76b3)" style="fill: #ffe0e0"/>
    <path d="M 93.444342 34.38 
L 93.444342 7.2 
L 95.491589 7.2 
L 95.491589 34.38 
L 93.444342 34.38 
z
" clip-path="url(#pc3a54c76b3)" style="fill: #ff8888"/>
    <path d="M 95.491589 34.38 
L 95.491589 7.2 
L 97.538836 7.2 
L 97.538836 34.38 
L 95.491589 34.38 
z
" clip-path="url(#pc3a54c76b3)" style="fill: #ffdcdc"/>
    <path d="M 97.538836 34.38 
L 97.538836 7.2 
L 99.586083 7.2 
L 99.586083 34.38 
L 97.538836 34.38 
z
" clip-path="url(#pc3a54c76b3)" style="fill: #ffc0c0"/>
    <path d="M 99.586083 34.38 
L 99.586083 7.2 
L 101.633329 7.2 
L 101.633329 34.38 
L 99.586083 34.38 
z
" clip-path="url(#pc3a54c76b3)" style="fill: #fff0f0"/>
    <path d="M 101.633329 34.38 
L 101.633329 7.2 
L 103.680576 7.2 
L 103.680576 34.38 
L 101.633329 34.38 
z
" clip-path="url(#pc3a54c76b3)" style="fill: #ffdede"/>
    <path d="M 103.680576 34.38 
L 103.680576 7.2 
L 105.727823 7.2 
L 105.727823 34.38 
L 103.680576 34.38 
z
" clip-path="url(#pc3a54c76b3)" style="fill: #f0f0ff"/>
    <path d="M 105.727823 34.38 
L 105.727823 7.2 
L 107.775069 7.2 
L 107.775069 34.38 
L 105.727823 34.38 
z
" clip-path="url(#pc3a54c76b3)" style="fill: #8a8aff"/>
    <path d="M 107.775069 34.38 
L 107.775069 7.2 
L 109.822316 7.2 
L 109.822316 34.38 
L 107.775069 34.38 
z
" clip-path="url(#pc3a54c76b3)" style="fill: #ffe6e6"/>
    <path d="M 109.822316 34.38 
L 109.822316 7.2 
L 111.869563 7.2 
L 111.869563 34.38 
L 109.822316 34.38 
z
" clip-path="url(#pc3a54c76b3)" style="fill: #e2e2ff"/>
    <path d="M 111.869563 34.38 
L 111.869563 7.2 
L 113.91681 7.2 
L 113.91681 34.38 
L 111.869563 34.38 
z
" clip-path="url(#pc3a54c76b3)" style="fill: #d6d6ff"/>
    <path d="M 113.91681 34.38 
L 113.91681 7.2 
L 115.964056 7.2 
L 115.964056 34.38 
L 113.91681 34.38 
z
" clip-path="url(#pc3a54c76b3)" style="fill: #8c8cff"/>
    <path d="M 115.964056 34.38 
L 115.964056 7.2 
L 118.011303 7.2 
L 118.011303 34.38 
L 115.964056 34.38 
z
" clip-path="url(#pc3a54c76b3)" style="fill: #dedeff"/>
    <path d="M 118.011303 34.38 
L 118.011303 7.2 
L 120.05855 7.2 
L 120.05855 34.38 
L 118.011303 34.38 
z
" clip-path="url(#pc3a54c76b3)" style="fill: #a8a8ff"/>
    <path d="M 120.05855 34.38 
L 120.05855 7.2 
L 122.105797 7.2 
L 122.105797 34.38 
L 120.05855 34.38 
z
" clip-path="url(#pc3a54c76b3)" style="fill: #b0b0ff"/>
    <path d="M 122.105797 34.38 
L 122.105797 7.2 
L 124.153043 7.2 
L 124.153043 34.38 
L 122.105797 34.38 
z
" clip-path="url(#pc3a54c76b3)" style="fill: #e8e8ff"/>
    <path d="M 124.153043 34.38 
L 124.153043 7.2 
L 126.20029 7.2 
L 126.20029 34.38 
L 124.153043 34.38 
z
" clip-path="url(#pc3a54c76b3)" style="fill: #c6c6ff"/>
    <path d="M 126.20029 34.38 
L 126.20029 7.2 
L 128.247537 7.2 
L 128.247537 34.38 
L 126.20029 34.38 
z
" clip-path="url(#pc3a54c76b3)" style="fill: #d0d0ff"/>
    <path d="M 128.247537 34.38 
L 128.247537 7.2 
L 130.294783 7.2 
L 130.294783 34.38 
L 128.247537 34.38 
z
" clip-path="url(#pc3a54c76b3)" style="fill: #ff6e6e"/>
    <path d="M 130.294783 34.38 
L 130.294783 7.2 
L 132.34203 7.2 
L 132.34203 34.38 
L 130.294783 34.38 
z
" clip-path="url(#pc3a54c76b3)" style="fill: #ffb2b2"/>
    <path d="M 132.34203 34.38 
L 132.34203 7.2 
L 134.389277 7.2 
L 134.389277 34.38 
L 132.34203 34.38 
z
" clip-path="url(#pc3a54c76b3)" style="fill: #ffb2b2"/>
    <path d="M 134.389277 34.38 
L 134.389277 7.2 
L 136.436524 7.2 
L 136.436524 34.38 
L 134.389277 34.38 
z
" clip-path="url(#pc3a54c76b3)" style="fill: #ff9a9a"/>
    <path d="M 136.436524 34.38 
L 136.436524 7.2 
L 138.48377 7.2 
L 138.48377 34.38 
L 136.436524 34.38 
z
" clip-path="url(#pc3a54c76b3)" style="fill: #ff6666"/>
    <path d="M 138.48377 34.38 
L 138.48377 7.2 
L 140.531017 7.2 
L 140.531017 34.38 
L 138.48377 34.38 
z
" clip-path="url(#pc3a54c76b3)" style="fill: #ff7878"/>
    <path d="M 140.531017 34.38 
L 140.531017 7.2 
L 142.578264 7.2 
L 142.578264 34.38 
L 140.531017 34.38 
z
" clip-path="url(#pc3a54c76b3)" style="fill: #ff9898"/>
    <path d="M 142.578264 34.38 
L 142.578264 7.2 
L 144.625511 7.2 
L 144.625511 34.38 
L 142.578264 34.38 
z
" clip-path="url(#pc3a54c76b3)" style="fill: #ffbcbc"/>
    <path d="M 144.625511 34.38 
L 144.625511 7.2 
L 146.672757 7.2 
L 146.672757 34.38 
L 144.625511 34.38 
z
" clip-path="url(#pc3a54c76b3)" style="fill: #ff8888"/>
    <path d="M 146.672757 34.38 
L 146.672757 7.2 
L 148.720004 7.2 
L 148.720004 34.38 
L 146.672757 34.38 
z
" clip-path="url(#pc3a54c76b3)" style="fill: #ffd8d8"/>
    <path d="M 148.720004 34.38 
L 148.720004 7.2 
L 150.767251 7.2 
L 150.767251 34.38 
L 148.720004 34.38 
z
" clip-path="url(#pc3a54c76b3)" style="fill: #ff2626"/>
    <path d="M 150.767251 34.38 
L 150.767251 7.2 
L 152.814498 7.2 
L 152.814498 34.38 
L 150.767251 34.38 
z
" clip-path="url(#pc3a54c76b3)" style="fill: #ff9494"/>
    <path d="M 152.814498 34.38 
L 152.814498 7.2 
L 154.861744 7.2 
L 154.861744 34.38 
L 152.814498 34.38 
z
" clip-path="url(#pc3a54c76b3)" style="fill: #ff5050"/>
    <path d="M 154.861744 34.38 
L 154.861744 7.2 
L 156.908991 7.2 
L 156.908991 34.38 
L 154.861744 34.38 
z
" clip-path="url(#pc3a54c76b3)" style="fill: #ff9696"/>
    <path d="M 156.908991 34.38 
L 156.908991 7.2 
L 158.956238 7.2 
L 158.956238 34.38 
L 156.908991 34.38 
z
" clip-path="url(#pc3a54c76b3)" style="fill: #fff2f2"/>
    <path d="M 158.956238 34.38 
L 158.956238 7.2 
L 161.003484 7.2 
L 161.003484 34.38 
L 158.956238 34.38 
z
" clip-path="url(#pc3a54c76b3)" style="fill: #ff4c4c"/>
    <path d="M 161.003484 34.38 
L 161.003484 7.2 
L 163.050731 7.2 
L 163.050731 34.38 
L 161.003484 34.38 
z
" clip-path="url(#pc3a54c76b3)" style="fill: #ffd0d0"/>
    <path d="M 163.050731 34.38 
L 163.050731 7.2 
L 165.097978 7.2 
L 165.097978 34.38 
L 163.050731 34.38 
z
" clip-path="url(#pc3a54c76b3)" style="fill: #ffdede"/>
    <path d="M 165.097978 34.38 
L 165.097978 7.2 
L 167.145225 7.2 
L 167.145225 34.38 
L 165.097978 34.38 
z
" clip-path="url(#pc3a54c76b3)" style="fill: #e8e8ff"/>
    <path d="M 167.145225 34.38 
L 167.145225 7.2 
L 169.192471 7.2 
L 169.192471 34.38 
L 167.145225 34.38 
z
" clip-path="url(#pc3a54c76b3)" style="fill: #eaeaff"/>
    <path d="M 169.192471 34.38 
L 169.192471 7.2 
L 171.239718 7.2 
L 171.239718 34.38 
L 169.192471 34.38 
z
" clip-path="url(#pc3a54c76b3)" style="fill: #fff0f0"/>
    <path d="M 171.239718 34.38 
L 171.239718 7.2 
L 173.286965 7.2 
L 173.286965 34.38 
L 171.239718 34.38 
z
" clip-path="url(#pc3a54c76b3)" style="fill: #ff4848"/>
    <path d="M 173.286965 34.38 
L 173.286965 7.2 
L 175.334212 7.2 
L 175.334212 34.38 
L 173.286965 34.38 
z
" clip-path="url(#pc3a54c76b3)" style="fill: #ffe0e0"/>
    <path d="M 175.334212 34.38 
L 175.334212 7.2 
L 177.381458 7.2 
L 177.381458 34.38 
L 175.334212 34.38 
z
" clip-path="url(#pc3a54c76b3)" style="fill: #ff8a8a"/>
    <path d="M 177.381458 34.38 
L 177.381458 7.2 
L 179.428705 7.2 
L 179.428705 34.38 
L 177.381458 34.38 
z
" clip-path="url(#pc3a54c76b3)" style="fill: #ff9e9e"/>
    <path d="M 179.428705 34.38 
L 179.428705 7.2 
L 181.475952 7.2 
L 181.475952 34.38 
L 179.428705 34.38 
z
" clip-path="url(#pc3a54c76b3)" style="fill: #ffaeae"/>
    <path d="M 181.475952 34.38 
L 181.475952 7.2 
L 183.523198 7.2 
L 183.523198 34.38 
L 181.475952 34.38 
z
" clip-path="url(#pc3a54c76b3)" style="fill: #ffbaba"/>
    <path d="M 183.523198 34.38 
L 183.523198 7.2 
L 185.570445 7.2 
L 185.570445 34.38 
L 183.523198 34.38 
z
" clip-path="url(#pc3a54c76b3)" style="fill: #ffdada"/>
    <path d="M 185.570445 34.38 
L 185.570445 7.2 
L 187.617692 7.2 
L 187.617692 34.38 
L 185.570445 34.38 
z
" clip-path="url(#pc3a54c76b3)" style="fill: #ffc6c6"/>
    <path d="M 187.617692 34.38 
L 187.617692 7.2 
L 189.664939 7.2 
L 189.664939 34.38 
L 187.617692 34.38 
z
" clip-path="url(#pc3a54c76b3)" style="fill: #d0d0ff"/>
    <path d="M 189.664939 34.38 
L 189.664939 7.2 
L 191.712185 7.2 
L 191.712185 34.38 
L 189.664939 34.38 
z
" clip-path="url(#pc3a54c76b3)" style="fill: #ffdede"/>
    <path d="M 191.712185 34.38 
L 191.712185 7.2 
L 193.759432 7.2 
L 193.759432 34.38 
L 191.712185 34.38 
z
" clip-path="url(#pc3a54c76b3)" style="fill: #ffd2d2"/>
    <path d="M 193.759432 34.38 
L 193.759432 7.2 
L 195.806679 7.2 
L 195.806679 34.38 
L 193.759432 34.38 
z
" clip-path="url(#pc3a54c76b3)" style="fill: #ffbebe"/>
    <path d="M 195.806679 34.38 
L 195.806679 7.2 
L 197.853926 7.2 
L 197.853926 34.38 
L 195.806679 34.38 
z
" clip-path="url(#pc3a54c76b3)" style="fill: #8888ff"/>
    <path d="M 197.853926 34.38 
L 197.853926 7.2 
L 199.901172 7.2 
L 199.901172 34.38 
L 197.853926 34.38 
z
" clip-path="url(#pc3a54c76b3)" style="fill: #8080ff"/>
    <path d="M 199.901172 34.38 
L 199.901172 7.2 
L 201.948419 7.2 
L 201.948419 34.38 
L 199.901172 34.38 
z
" clip-path="url(#pc3a54c76b3)" style="fill: #7a7aff"/>
    <path d="M 201.948419 34.38 
L 201.948419 7.2 
L 203.995666 7.2 
L 203.995666 34.38 
L 201.948419 34.38 
z
" clip-path="url(#pc3a54c76b3)" style="fill: #c2c2ff"/>
    <path d="M 203.995666 34.38 
L 203.995666 7.2 
L 206.042913 7.2 
L 206.042913 34.38 
L 203.995666 34.38 
z
" clip-path="url(#pc3a54c76b3)" style="fill: #c4c4ff"/>
    <path d="M 206.042913 34.38 
L 206.042913 7.2 
L 208.090159 7.2 
L 208.090159 34.38 
L 206.042913 34.38 
z
" clip-path="url(#pc3a54c76b3)" style="fill: #c0c0ff"/>
    <path d="M 208.090159 34.38 
L 208.090159 7.2 
L 210.137406 7.2 
L 210.137406 34.38 
L 208.090159 34.38 
z
" clip-path="url(#pc3a54c76b3)" style="fill: #ff5a5a"/>
    <path d="M 210.137406 34.38 
L 210.137406 7.2 
L 212.184653 7.2 
L 212.184653 34.38 
L 210.137406 34.38 
z
" clip-path="url(#pc3a54c76b3)" style="fill: #ff6666"/>
    <path d="M 212.184653 34.38 
L 212.184653 7.2 
L 214.231899 7.2 
L 214.231899 34.38 
L 212.184653 34.38 
z
" clip-path="url(#pc3a54c76b3)" style="fill: #ff1818"/>
    <path d="M 214.231899 34.38 
L 214.231899 7.2 
L 216.279146 7.2 
L 216.279146 34.38 
L 214.231899 34.38 
z
" clip-path="url(#pc3a54c76b3)" style="fill: #ff3838"/>
    <path d="M 216.279146 34.38 
L 216.279146 7.2 
L 218.326393 7.2 
L 218.326393 34.38 
L 216.279146 34.38 
z
" clip-path="url(#pc3a54c76b3)" style="fill: #ff3030"/>
    <path d="M 218.326393 34.38 
L 218.326393 7.2 
L 220.37364 7.2 
L 220.37364 34.38 
L 218.326393 34.38 
z
" clip-path="url(#pc3a54c76b3)" style="fill: #ffcaca"/>
    <path d="M 220.37364 34.38 
L 220.37364 7.2 
L 222.420886 7.2 
L 222.420886 34.38 
L 220.37364 34.38 
z
" clip-path="url(#pc3a54c76b3)" style="fill: #ff5454"/>
    <path d="M 222.420886 34.38 
L 222.420886 7.2 
L 224.468133 7.2 
L 224.468133 34.38 
L 222.420886 34.38 
z
" clip-path="url(#pc3a54c76b3)" style="fill: #ff4242"/>
    <path d="M 224.468133 34.38 
L 224.468133 7.2 
L 226.51538 7.2 
L 226.51538 34.38 
L 224.468133 34.38 
z
" clip-path="url(#pc3a54c76b3)" style="fill: #ff4040"/>
    <path d="M 226.51538 34.38 
L 226.51538 7.2 
L 228.562627 7.2 
L 228.562627 34.38 
L 226.51538 34.38 
z
" clip-path="url(#pc3a54c76b3)" style="fill: #ff7878"/>
    <path d="M 228.562627 34.38 
L 228.562627 7.2 
L 230.609873 7.2 
L 230.609873 34.38 
L 228.562627 34.38 
z
" clip-path="url(#pc3a54c76b3)" style="fill: #ff7a7a"/>
    <path d="M 230.609873 34.38 
L 230.609873 7.2 
L 232.65712 7.2 
L 232.65712 34.38 
L 230.609873 34.38 
z
" clip-path="url(#pc3a54c76b3)" style="fill: #ff7c7c"/>
    <path d="M 232.65712 34.38 
L 232.65712 7.2 
L 234.704367 7.2 
L 234.704367 34.38 
L 232.65712 34.38 
z
" clip-path="url(#pc3a54c76b3)" style="fill: #8282ff"/>
    <path d="M 234.704367 34.38 
L 234.704367 7.2 
L 236.751613 7.2 
L 236.751613 34.38 
L 234.704367 34.38 
z
" clip-path="url(#pc3a54c76b3)" style="fill: #9494ff"/>
    <path d="M 236.751613 34.38 
L 236.751613 7.2 
L 238.79886 7.2 
L 238.79886 34.38 
L 236.751613 34.38 
z
" clip-path="url(#pc3a54c76b3)" style="fill: #ffecec"/>
    <path d="M 238.79886 34.38 
L 238.79886 7.2 
L 240.846107 7.2 
L 240.846107 34.38 
L 238.79886 34.38 
z
" clip-path="url(#pc3a54c76b3)" style="fill: #a4a4ff"/>
    <path d="M 240.846107 34.38 
L 240.846107 7.2 
L 242.893354 7.2 
L 242.893354 34.38 
L 240.846107 34.38 
z
" clip-path="url(#pc3a54c76b3)" style="fill: #ff7070"/>
    <path d="M 242.893354 34.38 
L 242.893354 7.2 
L 244.9406 7.2 
L 244.9406 34.38 
L 242.893354 34.38 
z
" clip-path="url(#pc3a54c76b3)" style="fill: #ffd8d8"/>
    <path d="M 244.9406 34.38 
L 244.9406 7.2 
L 246.987847 7.2 
L 246.987847 34.38 
L 244.9406 34.38 
z
" clip-path="url(#pc3a54c76b3)" style="fill: #ff8282"/>
    <path d="M 246.987847 34.38 
L 246.987847 7.2 
L 249.035094 7.2 
L 249.035094 34.38 
L 246.987847 34.38 
z
" clip-path="url(#pc3a54c76b3)" style="fill: #ff5a5a"/>
    <path d="M 249.035094 34.38 
L 249.035094 7.2 
L 251.082341 7.2 
L 251.082341 34.38 
L 249.035094 34.38 
z
" clip-path="url(#pc3a54c76b3)" style="fill: #ff6464"/>
    <path d="M 251.082341 34.38 
L 251.082341 7.2 
L 253.129587 7.2 
L 253.129587 34.38 
L 251.082341 34.38 
z
" clip-path="url(#pc3a54c76b3)" style="fill: #ff9c9c"/>
    <path d="M 253.129587 34.38 
L 253.129587 7.2 
L 255.176834 7.2 
L 255.176834 34.38 
L 253.129587 34.38 
z
" clip-path="url(#pc3a54c76b3)" style="fill: #ff9494"/>
    <path d="M 255.176834 34.38 
L 255.176834 7.2 
L 257.224081 7.2 
L 257.224081 34.38 
L 255.176834 34.38 
z
" clip-path="url(#pc3a54c76b3)" style="fill: #ff8c8c"/>
    <path d="M 257.224081 34.38 
L 257.224081 7.2 
L 259.271328 7.2 
L 259.271328 34.38 
L 257.224081 34.38 
z
" clip-path="url(#pc3a54c76b3)" style="fill: #9c9cff"/>
    <path d="M 259.271328 34.38 
L 259.271328 7.2 
L 261.318574 7.2 
L 261.318574 34.38 
L 259.271328 34.38 
z
" clip-path="url(#pc3a54c76b3)" style="fill: #8686ff"/>
    <path d="M 261.318574 34.38 
L 261.318574 7.2 
L 263.365821 7.2 
L 263.365821 34.38 
L 261.318574 34.38 
z
" clip-path="url(#pc3a54c76b3)" style="fill: #8a8aff"/>
    <path d="M 263.365821 34.38 
L 263.365821 7.2 
L 265.413068 7.2 
L 265.413068 34.38 
L 263.365821 34.38 
z
" clip-path="url(#pc3a54c76b3)" style="fill: #a4a4ff"/>
    <path d="M 265.413068 34.38 
L 265.413068 7.2 
L 267.460314 7.2 
L 267.460314 34.38 
L 265.413068 34.38 
z
" clip-path="url(#pc3a54c76b3)" style="fill: #babaff"/>
    <path d="M 267.460314 34.38 
L 267.460314 7.2 
L 269.507561 7.2 
L 269.507561 34.38 
L 267.460314 34.38 
z
" clip-path="url(#pc3a54c76b3)" style="fill: #ff7e7e"/>
    <path d="M 269.507561 34.38 
L 269.507561 7.2 
L 271.554808 7.2 
L 271.554808 34.38 
L 269.507561 34.38 
z
" clip-path="url(#pc3a54c76b3)" style="fill: #ff7a7a"/>
    <path d="M 271.554808 34.38 
L 271.554808 7.2 
L 273.602055 7.2 
L 273.602055 34.38 
L 271.554808 34.38 
z
" clip-path="url(#pc3a54c76b3)" style="fill: #ff7272"/>
    <path d="M 273.602055 34.38 
L 273.602055 7.2 
L 275.649301 7.2 
L 275.649301 34.38 
L 273.602055 34.38 
z
" clip-path="url(#pc3a54c76b3)" style="fill: #ffbcbc"/>
    <path d="M 275.649301 34.38 
L 275.649301 7.2 
L 277.696548 7.2 
L 277.696548 34.38 
L 275.649301 34.38 
z
" clip-path="url(#pc3a54c76b3)" style="fill: #ffb6b6"/>
    <path d="M 277.696548 34.38 
L 277.696548 7.2 
L 279.743795 7.2 
L 279.743795 34.38 
L 277.696548 34.38 
z
" clip-path="url(#pc3a54c76b3)" style="fill: #ffb8b8"/>
    <path d="M 279.743795 34.38 
L 279.743795 7.2 
L 281.791042 7.2 
L 281.791042 34.38 
L 279.743795 34.38 
z
" clip-path="url(#pc3a54c76b3)" style="fill: #ffb2b2"/>
    <path d="M 281.791042 34.38 
L 281.791042 7.2 
L 283.838288 7.2 
L 283.838288 34.38 
L 281.791042 34.38 
z
" clip-path="url(#pc3a54c76b3)" style="fill: #ffc4c4"/>
    <path d="M 283.838288 34.38 
L 283.838288 7.2 
L 285.885535 7.2 
L 285.885535 34.38 
L 283.838288 34.38 
z
" clip-path="url(#pc3a54c76b3)" style="fill: #ffcece"/>
    <path d="M 285.885535 34.38 
L 285.885535 7.2 
L 287.932782 7.2 
L 287.932782 34.38 
L 285.885535 34.38 
z
" clip-path="url(#pc3a54c76b3)" style="fill: #7c7cff"/>
    <path d="M 287.932782 34.38 
L 287.932782 7.2 
L 289.980028 7.2 
L 289.980028 34.38 
L 287.932782 34.38 
z
" clip-path="url(#pc3a54c76b3)" style="fill: #6666ff"/>
    <path d="M 289.980028 34.38 
L 289.980028 7.2 
L 292.027275 7.2 
L 292.027275 34.38 
L 289.980028 34.38 
z
" clip-path="url(#pc3a54c76b3)" style="fill: #6464ff"/>
    <path d="M 292.027275 34.38 
L 292.027275 7.2 
L 294.074522 7.2 
L 294.074522 34.38 
L 292.027275 34.38 
z
" clip-path="url(#pc3a54c76b3)" style="fill: #7676ff"/>
    <path d="M 294.074522 34.38 
L 294.074522 7.2 
L 296.121769 7.2 
L 296.121769 34.38 
L 294.074522 34.38 
z
" clip-path="url(#pc3a54c76b3)" style="fill: #7070ff"/>
    <path d="M 296.121769 34.38 
L 296.121769 7.2 
L 298.169015 7.2 
L 298.169015 34.38 
L 296.121769 34.38 
z
" clip-path="url(#pc3a54c76b3)" style="fill: #7878ff"/>
    <path d="M 298.169015 34.38 
L 298.169015 7.2 
L 300.216262 7.2 
L 300.216262 34.38 
L 298.169015 34.38 
z
" clip-path="url(#pc3a54c76b3)" style="fill: #9898ff"/>
    <path d="M 300.216262 34.38 
L 300.216262 7.2 
L 302.263509 7.2 
L 302.263509 34.38 
L 300.216262 34.38 
z
" clip-path="url(#pc3a54c76b3)" style="fill: #a0a0ff"/>
    <path d="M 302.263509 34.38 
L 302.263509 7.2 
L 304.310756 7.2 
L 304.310756 34.38 
L 302.263509 34.38 
z
" clip-path="url(#pc3a54c76b3)" style="fill: #9e9eff"/>
    <path d="M 304.310756 34.38 
L 304.310756 7.2 
L 306.358002 7.2 
L 306.358002 34.38 
L 304.310756 34.38 
z
" clip-path="url(#pc3a54c76b3)" style="fill: #ff2626"/>
    <path d="M 306.358002 34.38 
L 306.358002 7.2 
L 308.405249 7.2 
L 308.405249 34.38 
L 306.358002 34.38 
z
" clip-path="url(#pc3a54c76b3)" style="fill: #ff3030"/>
    <path d="M 308.405249 34.38 
L 308.405249 7.2 
L 310.452496 7.2 
L 310.452496 34.38 
L 308.405249 34.38 
z
" clip-path="url(#pc3a54c76b3)" style="fill: #ff3434"/>
    <path d="M 310.452496 34.38 
L 310.452496 7.2 
L 312.499743 7.2 
L 312.499743 34.38 
L 310.452496 34.38 
z
" clip-path="url(#pc3a54c76b3)" style="fill: #ffc6c6"/>
    <path d="M 312.499743 34.38 
L 312.499743 7.2 
L 314.546989 7.2 
L 314.546989 34.38 
L 312.499743 34.38 
z
" clip-path="url(#pc3a54c76b3)" style="fill: #ffc8c8"/>
    <path d="M 314.546989 34.38 
L 314.546989 7.2 
L 316.594236 7.2 
L 316.594236 34.38 
L 314.546989 34.38 
z
" clip-path="url(#pc3a54c76b3)" style="fill: #ffc6c6"/>
    <path d="M 316.594236 34.38 
L 316.594236 7.2 
L 318.641483 7.2 
L 318.641483 34.38 
L 316.594236 34.38 
z
" clip-path="url(#pc3a54c76b3)" style="fill: #ffe4e4"/>
    <path d="M 318.641483 34.38 
L 318.641483 7.2 
L 320.688729 7.2 
L 320.688729 34.38 
L 318.641483 34.38 
z
" clip-path="url(#pc3a54c76b3)" style="fill: #ffe2e2"/>
    <path d="M 320.688729 34.38 
L 320.688729 7.2 
L 322.735976 7.2 
L 322.735976 34.38 
L 320.688729 34.38 
z
" clip-path="url(#pc3a54c76b3)" style="fill: #ff9292"/>
    <path d="M 322.735976 34.38 
L 322.735976 7.2 
L 324.783223 7.2 
L 324.783223 34.38 
L 322.735976 34.38 
z
" clip-path="url(#pc3a54c76b3)" style="fill: #ff8a8a"/>
    <path d="M 324.783223 34.38 
L 324.783223 7.2 
L 326.83047 7.2 
L 326.83047 34.38 
L 324.783223 34.38 
z
" clip-path="url(#pc3a54c76b3)" style="fill: #ff8686"/>
    <path d="M 326.83047 34.38 
L 326.83047 7.2 
L 328.877716 7.2 
L 328.877716 34.38 
L 326.83047 34.38 
z
" clip-path="url(#pc3a54c76b3)" style="fill: #ffb2b2"/>
    <path d="M 328.877716 34.38 
L 328.877716 7.2 
L 330.924963 7.2 
L 330.924963 34.38 
L 328.877716 34.38 
z
" clip-path="url(#pc3a54c76b3)" style="fill: #ffbaba"/>
    <path d="M 330.924963 34.38 
L 330.924963 7.2 
L 332.97221 7.2 
L 332.97221 34.38 
L 330.924963 34.38 
z
" clip-path="url(#pc3a54c76b3)" style="fill: #ffb4b4"/>
    <path d="M 332.97221 34.38 
L 332.97221 7.2 
L 335.019457 7.2 
L 335.019457 34.38 
L 332.97221 34.38 
z
" clip-path="url(#pc3a54c76b3)" style="fill: #ff0e0e"/>
    <path d="M 335.019457 34.38 
L 335.019457 7.2 
L 337.066703 7.2 
L 337.066703 34.38 
L 335.019457 34.38 
z
" clip-path="url(#pc3a54c76b3)" style="fill: #ff2626"/>
    <path d="M 337.066703 34.38 
L 337.066703 7.2 
L 339.11395 7.2 
L 339.11395 34.38 
L 337.066703 34.38 
z
" clip-path="url(#pc3a54c76b3)" style="fill: #ff2424"/>
    <path d="M 339.11395 34.38 
L 339.11395 7.2 
L 341.161197 7.2 
L 341.161197 34.38 
L 339.11395 34.38 
z
" clip-path="url(#pc3a54c76b3)" style="fill: #ffe0e0"/>
    <path d="M 341.161197 34.38 
L 341.161197 7.2 
L 343.208443 7.2 
L 343.208443 34.38 
L 341.161197 34.38 
z
" clip-path="url(#pc3a54c76b3)" style="fill: #ffe2e2"/>
    <path d="M 343.208443 34.38 
L 343.208443 7.2 
L 345.25569 7.2 
L 345.25569 34.38 
L 343.208443 34.38 
z
" clip-path="url(#pc3a54c76b3)" style="fill: #ff8c8c"/>
    <path d="M 345.25569 34.38 
L 345.25569 7.2 
L 347.302937 7.2 
L 347.302937 34.38 
L 345.25569 34.38 
z
" clip-path="url(#pc3a54c76b3)" style="fill: #ff8080"/>
    <path d="M 347.302937 34.38 
L 347.302937 7.2 
L 349.350184 7.2 
L 349.350184 34.38 
L 347.302937 34.38 
z
" clip-path="url(#pc3a54c76b3)" style="fill: #ff8a8a"/>
    <path d="M 349.350184 34.38 
L 349.350184 7.2 
L 351.39743 7.2 
L 351.39743 34.38 
L 349.350184 34.38 
z
" clip-path="url(#pc3a54c76b3)" style="fill: #ff9292"/>
    <path d="M 351.39743 34.38 
L 351.39743 7.2 
L 353.444677 7.2 
L 353.444677 34.38 
L 351.39743 34.38 
z
" clip-path="url(#pc3a54c76b3)" style="fill: #ff9292"/>
    <path d="M 353.444677 34.38 
L 353.444677 7.2 
L 355.491924 7.2 
L 355.491924 34.38 
L 353.444677 34.38 
z
" clip-path="url(#pc3a54c76b3)" style="fill: #ff1414"/>
    <path d="M 355.491924 34.38 
L 355.491924 7.2 
L 357.539171 7.2 
L 357.539171 34.38 
L 355.491924 34.38 
z
" clip-path="url(#pc3a54c76b3)" style="fill: #ff2222"/>
    <path d="M 357.539171 34.38 
L 357.539171 7.2 
L 359.586417 7.2 
L 359.586417 34.38 
L 357.539171 34.38 
z
" clip-path="url(#pc3a54c76b3)" style="fill: #ff2020"/>
    <path d="M 359.586417 34.38 
L 359.586417 7.2 
L 361.633664 7.2 
L 361.633664 34.38 
L 359.586417 34.38 
z
" clip-path="url(#pc3a54c76b3)" style="fill: #ffdcdc"/>
    <path d="M 361.633664 34.38 
L 361.633664 7.2 
L 363.680911 7.2 
L 363.680911 34.38 
L 361.633664 34.38 
z
" clip-path="url(#pc3a54c76b3)" style="fill: #ffdede"/>
    <path d="M 363.680911 34.38 
L 363.680911 7.2 
L 365.728158 7.2 
L 365.728158 34.38 
L 363.680911 34.38 
z
" clip-path="url(#pc3a54c76b3)" style="fill: #ffdede"/>
    <path d="M 365.728158 34.38 
L 365.728158 7.2 
L 367.775404 7.2 
L 367.775404 34.38 
L 365.728158 34.38 
z
" clip-path="url(#pc3a54c76b3)" style="fill: #ff7070"/>
    <path d="M 367.775404 34.38 
L 367.775404 7.2 
L 369.822651 7.2 
L 369.822651 34.38 
L 367.775404 34.38 
z
" clip-path="url(#pc3a54c76b3)" style="fill: #ff7e7e"/>
    <path d="M 369.822651 34.38 
L 369.822651 7.2 
L 371.869898 7.2 
L 371.869898 34.38 
L 369.822651 34.38 
z
" clip-path="url(#pc3a54c76b3)" style="fill: #ff7a7a"/>
    <path d="M 371.869898 34.38 
L 371.869898 7.2 
L 373.917144 7.2 
L 373.917144 34.38 
L 371.869898 34.38 
z
" clip-path="url(#pc3a54c76b3)" style="fill: #ff9292"/>
    <path d="M 373.917144 34.38 
L 373.917144 7.2 
L 375.964391 7.2 
L 375.964391 34.38 
L 373.917144 34.38 
z
" clip-path="url(#pc3a54c76b3)" style="fill: #ff9292"/>
    <path d="M 375.964391 34.38 
L 375.964391 7.2 
L 378.011638 7.2 
L 378.011638 34.38 
L 375.964391 34.38 
z
" clip-path="url(#pc3a54c76b3)" style="fill: #ff9292"/>
    <path d="M 378.011638 34.38 
L 378.011638 7.2 
L 380.058885 7.2 
L 380.058885 34.38 
L 378.011638 34.38 
z
" clip-path="url(#pc3a54c76b3)" style="fill: #a0a0ff"/>
    <path d="M 380.058885 34.38 
L 380.058885 7.2 
L 382.106131 7.2 
L 382.106131 34.38 
L 380.058885 34.38 
z
" clip-path="url(#pc3a54c76b3)" style="fill: #6868ff"/>
    <path d="M 382.106131 34.38 
L 382.106131 7.2 
L 384.153378 7.2 
L 384.153378 34.38 
L 382.106131 34.38 
z
" clip-path="url(#pc3a54c76b3)" style="fill: #4848ff"/>
    <path d="M 384.153378 34.38 
L 384.153378 7.2 
L 386.200625 7.2 
L 386.200625 34.38 
L 384.153378 34.38 
z
" clip-path="url(#pc3a54c76b3)" style="fill: #b4b4ff"/>
    <path d="M 386.200625 34.38 
L 386.200625 7.2 
L 388.247872 7.2 
L 388.247872 34.38 
L 386.200625 34.38 
z
" clip-path="url(#pc3a54c76b3)" style="fill: #ff6262"/>
    <path d="M 388.247872 34.38 
L 388.247872 7.2 
L 390.295118 7.2 
L 390.295118 34.38 
L 388.247872 34.38 
z
" clip-path="url(#pc3a54c76b3)" style="fill: #ffcccc"/>
    <path d="M 390.295118 34.38 
L 390.295118 7.2 
L 392.342365 7.2 
L 392.342365 34.38 
L 390.295118 34.38 
z
" clip-path="url(#pc3a54c76b3)" style="fill: #c4c4ff"/>
    <path d="M 392.342365 34.38 
L 392.342365 7.2 
L 394.389612 7.2 
L 394.389612 34.38 
L 392.342365 34.38 
z
" clip-path="url(#pc3a54c76b3)" style="fill: #ffd6d6"/>
    <path d="M 394.389612 34.38 
L 394.389612 7.2 
L 396.436858 7.2 
L 396.436858 34.38 
L 394.389612 34.38 
z
" clip-path="url(#pc3a54c76b3)" style="fill: #ff5454"/>
    <path d="M 396.436858 34.38 
L 396.436858 7.2 
L 398.484105 7.2 
L 398.484105 34.38 
L 396.436858 34.38 
z
" clip-path="url(#pc3a54c76b3)" style="fill: #ffdada"/>
    <path d="M 398.484105 34.38 
L 398.484105 7.2 
L 400.531352 7.2 
L 400.531352 34.38 
L 398.484105 34.38 
z
" clip-path="url(#pc3a54c76b3)" style="fill: #ff9090"/>
    <path d="M 400.531352 34.38 
L 400.531352 7.2 
L 402.578599 7.2 
L 402.578599 34.38 
L 400.531352 34.38 
z
" clip-path="url(#pc3a54c76b3)" style="fill: #bcbcff"/>
    <path d="M 402.578599 34.38 
L 402.578599 7.2 
L 404.625845 7.2 
L 404.625845 34.38 
L 402.578599 34.38 
z
" clip-path="url(#pc3a54c76b3)" style="fill: #bebeff"/>
    <path d="M 404.625845 34.38 
L 404.625845 7.2 
L 406.673092 7.2 
L 406.673092 34.38 
L 404.625845 34.38 
z
" clip-path="url(#pc3a54c76b3)" style="fill: #bebeff"/>
    <path d="M 406.673092 34.38 
L 406.673092 7.2 
L 408.720339 7.2 
L 408.720339 34.38 
L 406.673092 34.38 
z
" clip-path="url(#pc3a54c76b3)" style="fill: #bebeff"/>
    <path d="M 408.720339 34.38 
L 408.720339 7.2 
L 410.767586 7.2 
L 410.767586 34.38 
L 408.720339 34.38 
z
" clip-path="url(#pc3a54c76b3)" style="fill: #ffb6b6"/>
    <path d="M 410.767586 34.38 
L 410.767586 7.2 
L 412.814832 7.2 
L 412.814832 34.38 
L 410.767586 34.38 
z
" clip-path="url(#pc3a54c76b3)" style="fill: #ffeaea"/>
    <path d="M 412.814832 34.38 
L 412.814832 7.2 
L 414.862079 7.2 
L 414.862079 34.38 
L 412.814832 34.38 
z
" clip-path="url(#pc3a54c76b3)" style="fill: #ffc6c6"/>
    <path d="M 414.862079 34.38 
L 414.862079 7.2 
L 416.909326 7.2 
L 416.909326 34.38 
L 414.862079 34.38 
z
" clip-path="url(#pc3a54c76b3)" style="fill: #e8e8ff"/>
    <path d="M 416.909326 34.38 
L 416.909326 7.2 
L 418.956573 7.2 
L 418.956573 34.38 
L 416.909326 34.38 
z
" clip-path="url(#pc3a54c76b3)" style="fill: #dedeff"/>
    <path d="M 418.956573 34.38 
L 418.956573 7.2 
L 421.003819 7.2 
L 421.003819 34.38 
L 418.956573 34.38 
z
" clip-path="url(#pc3a54c76b3)" style="fill: #fffefe"/>
    <path d="M 421.003819 34.38 
L 421.003819 7.2 
L 423.051066 7.2 
L 423.051066 34.38 
L 421.003819 34.38 
z
" clip-path="url(#pc3a54c76b3)" style="fill: #dedeff"/>
    <path d="M 423.051066 34.38 
L 423.051066 7.2 
L 425.098313 7.2 
L 425.098313 34.38 
L 423.051066 34.38 
z
" clip-path="url(#pc3a54c76b3)" style="fill: #e0e0ff"/>
    <path d="M 425.098313 34.38 
L 425.098313 7.2 
L 427.145559 7.2 
L 427.145559 34.38 
L 425.098313 34.38 
z
" clip-path="url(#pc3a54c76b3)" style="fill: #dedeff"/>
    <path d="M 427.145559 34.38 
L 427.145559 7.2 
L 429.192806 7.2 
L 429.192806 34.38 
L 427.145559 34.38 
z
" clip-path="url(#pc3a54c76b3)" style="fill: #ececff"/>
    <path d="M 429.192806 34.38 
L 429.192806 7.2 
L 431.240053 7.2 
L 431.240053 34.38 
L 429.192806 34.38 
z
" clip-path="url(#pc3a54c76b3)" style="fill: #dcdcff"/>
    <path d="M 431.240053 34.38 
L 431.240053 7.2 
L 433.2873 7.2 
L 433.2873 34.38 
L 431.240053 34.38 
z
" clip-path="url(#pc3a54c76b3)" style="fill: #d6d6ff"/>
    <path d="M 433.2873 34.38 
L 433.2873 7.2 
L 435.334546 7.2 
L 435.334546 34.38 
L 433.2873 34.38 
z
" clip-path="url(#pc3a54c76b3)" style="fill: #aeaeff"/>
    <path d="M 435.334546 34.38 
L 435.334546 7.2 
L 437.381793 7.2 
L 437.381793 34.38 
L 435.334546 34.38 
z
" clip-path="url(#pc3a54c76b3)" style="fill: #e6e6ff"/>
    <path d="M 437.381793 34.38 
L 437.381793 7.2 
L 439.42904 7.2 
L 439.42904 34.38 
L 437.381793 34.38 
z
" clip-path="url(#pc3a54c76b3)" style="fill: #dcdcff"/>
    <path d="M 439.42904 34.38 
L 439.42904 7.2 
L 441.476287 7.2 
L 441.476287 34.38 
L 439.42904 34.38 
z
" clip-path="url(#pc3a54c76b3)" style="fill: #aeaeff"/>
    <path d="M 441.476287 34.38 
L 441.476287 7.2 
L 443.523533 7.2 
L 443.523533 34.38 
L 441.476287 34.38 
z
" clip-path="url(#pc3a54c76b3)" style="fill: #c6c6ff"/>
    <path d="M 443.523533 34.38 
L 443.523533 7.2 
L 445.57078 7.2 
L 445.57078 34.38 
L 443.523533 34.38 
z
" clip-path="url(#pc3a54c76b3)" style="fill: #e2e2ff"/>
    <path d="M 445.57078 34.38 
L 445.57078 7.2 
L 447.618027 7.2 
L 447.618027 34.38 
L 445.57078 34.38 
z
" clip-path="url(#pc3a54c76b3)" style="fill: #b6b6ff"/>
    <path d="M 447.618027 34.38 
L 447.618027 7.2 
L 449.665273 7.2 
L 449.665273 34.38 
L 447.618027 34.38 
z
" clip-path="url(#pc3a54c76b3)" style="fill: #e0e0ff"/>
    <path d="M 449.665273 34.38 
L 449.665273 7.2 
L 451.71252 7.2 
L 451.71252 34.38 
L 449.665273 34.38 
z
" clip-path="url(#pc3a54c76b3)" style="fill: #d4d4ff"/>
    <path d="M 451.71252 34.38 
L 451.71252 7.2 
L 453.759767 7.2 
L 453.759767 34.38 
L 451.71252 34.38 
z
" clip-path="url(#pc3a54c76b3)" style="fill: #dedeff"/>
    <path d="M 453.759767 34.38 
L 453.759767 7.2 
L 455.807014 7.2 
L 455.807014 34.38 
L 453.759767 34.38 
z
" clip-path="url(#pc3a54c76b3)" style="fill: #bcbcff"/>
    <path d="M 455.807014 34.38 
L 455.807014 7.2 
L 457.85426 7.2 
L 457.85426 34.38 
L 455.807014 34.38 
z
" clip-path="url(#pc3a54c76b3)" style="fill: #e4e4ff"/>
    <path d="M 457.85426 34.38 
L 457.85426 7.2 
L 459.901507 7.2 
L 459.901507 34.38 
L 457.85426 34.38 
z
" clip-path="url(#pc3a54c76b3)" style="fill: #c2c2ff"/>
    <path d="M 459.901507 34.38 
L 459.901507 7.2 
L 461.948754 7.2 
L 461.948754 34.38 
L 459.901507 34.38 
z
" clip-path="url(#pc3a54c76b3)" style="fill: #d0d0ff"/>
    <path d="M 461.948754 34.38 
L 461.948754 7.2 
L 463.996001 7.2 
L 463.996001 34.38 
L 461.948754 34.38 
z
" clip-path="url(#pc3a54c76b3)" style="fill: #ff7a7a"/>
    <path d="M 463.996001 34.38 
L 463.996001 7.2 
L 466.043247 7.2 
L 466.043247 34.38 
L 463.996001 34.38 
z
" clip-path="url(#pc3a54c76b3)" style="fill: #ff8e8e"/>
    <path d="M 466.043247 34.38 
L 466.043247 7.2 
L 468.090494 7.2 
L 468.090494 34.38 
L 466.043247 34.38 
z
" clip-path="url(#pc3a54c76b3)" style="fill: #ffa6a6"/>
    <path d="M 468.090494 34.38 
L 468.090494 7.2 
L 470.137741 7.2 
L 470.137741 34.38 
L 468.090494 34.38 
z
" clip-path="url(#pc3a54c76b3)" style="fill: #ff5454"/>
    <path d="M 470.137741 34.38 
L 470.137741 7.2 
L 472.184988 7.2 
L 472.184988 34.38 
L 470.137741 34.38 
z
" clip-path="url(#pc3a54c76b3)" style="fill: #ff2222"/>
    <path d="M 472.184988 34.38 
L 472.184988 7.2 
L 474.232234 7.2 
L 474.232234 34.38 
L 472.184988 34.38 
z
" clip-path="url(#pc3a54c76b3)" style="fill: #ff0000"/>
    <path d="M 474.232234 34.38 
L 474.232234 7.2 
L 476.279481 7.2 
L 476.279481 34.38 
L 474.232234 34.38 
z
" clip-path="url(#pc3a54c76b3)" style="fill: #ff5252"/>
    <path d="M 476.279481 34.38 
L 476.279481 7.2 
L 478.326728 7.2 
L 478.326728 34.38 
L 476.279481 34.38 
z
" clip-path="url(#pc3a54c76b3)" style="fill: #ffa0a0"/>
    <path d="M 478.326728 34.38 
L 478.326728 7.2 
L 480.373974 7.2 
L 480.373974 34.38 
L 478.326728 34.38 
z
" clip-path="url(#pc3a54c76b3)" style="fill: #ff8484"/>
    <path d="M 480.373974 34.38 
L 480.373974 7.2 
L 482.421221 7.2 
L 482.421221 34.38 
L 480.373974 34.38 
z
" clip-path="url(#pc3a54c76b3)" style="fill: #ff6c6c"/>
    <path d="M 482.421221 34.38 
L 482.421221 7.2 
L 484.468468 7.2 
L 484.468468 34.38 
L 482.421221 34.38 
z
" clip-path="url(#pc3a54c76b3)" style="fill: #ff7474"/>
    <path d="M 484.468468 34.38 
L 484.468468 7.2 
L 486.515715 7.2 
L 486.515715 34.38 
L 484.468468 34.38 
z
" clip-path="url(#pc3a54c76b3)" style="fill: #ffe4e4"/>
    <path d="M 486.515715 34.38 
L 486.515715 7.2 
L 488.562961 7.2 
L 488.562961 34.38 
L 486.515715 34.38 
z
" clip-path="url(#pc3a54c76b3)" style="fill: #ff0000"/>
    <path d="M 488.562961 34.38 
L 488.562961 7.2 
L 490.610208 7.2 
L 490.610208 34.38 
L 488.562961 34.38 
z
" clip-path="url(#pc3a54c76b3)" style="fill: #ff9c9c"/>
    <path d="M 490.610208 34.38 
L 490.610208 7.2 
L 492.657455 7.2 
L 492.657455 34.38 
L 490.610208 34.38 
z
" clip-path="url(#pc3a54c76b3)" style="fill: #ff2c2c"/>
    <path d="M 492.657455 34.38 
L 492.657455 7.2 
L 494.704702 7.2 
L 494.704702 34.38 
L 492.657455 34.38 
z
" clip-path="url(#pc3a54c76b3)" style="fill: #ffcaca"/>
    <path d="M 494.704702 34.38 
L 494.704702 7.2 
L 496.751948 7.2 
L 496.751948 34.38 
L 494.704702 34.38 
z
" clip-path="url(#pc3a54c76b3)" style="fill: #ff8888"/>
    <path d="M 496.751948 34.38 
L 496.751948 7.2 
L 498.799195 7.2 
L 498.799195 34.38 
L 496.751948 34.38 
z
" clip-path="url(#pc3a54c76b3)" style="fill: #ff2a2a"/>
    <path d="M 498.799195 34.38 
L 498.799195 7.2 
L 500.846442 7.2 
L 500.846442 34.38 
L 498.799195 34.38 
z
" clip-path="url(#pc3a54c76b3)" style="fill: #ff9898"/>
    <path d="M 500.846442 34.38 
L 500.846442 7.2 
L 502.893688 7.2 
L 502.893688 34.38 
L 500.846442 34.38 
z
" clip-path="url(#pc3a54c76b3)" style="fill: #ff8484"/>
    <path d="M 502.893688 34.38 
L 502.893688 7.2 
L 504.940935 7.2 
L 504.940935 34.38 
L 502.893688 34.38 
z
" clip-path="url(#pc3a54c76b3)" style="fill: #ff7474"/>
    <path d="M 504.940935 34.38 
L 504.940935 7.2 
L 506.988182 7.2 
L 506.988182 34.38 
L 504.940935 34.38 
z
" clip-path="url(#pc3a54c76b3)" style="fill: #ffd6d6"/>
    <path d="M 506.988182 34.38 
L 506.988182 7.2 
L 509.035429 7.2 
L 509.035429 34.38 
L 506.988182 34.38 
z
" clip-path="url(#pc3a54c76b3)" style="fill: #e8e8ff"/>
    <path d="M 509.035429 34.38 
L 509.035429 7.2 
L 511.082675 7.2 
L 511.082675 34.38 
L 509.035429 34.38 
z
" clip-path="url(#pc3a54c76b3)" style="fill: #eaeaff"/>
    <path d="M 511.082675 34.38 
L 511.082675 7.2 
L 513.129922 7.2 
L 513.129922 34.38 
L 511.082675 34.38 
z
" clip-path="url(#pc3a54c76b3)" style="fill: #ff4a4a"/>
    <path d="M 513.129922 34.38 
L 513.129922 7.2 
L 515.177169 7.2 
L 515.177169 34.38 
L 513.129922 34.38 
z
" clip-path="url(#pc3a54c76b3)" style="fill: #ff9c9c"/>
    <path d="M 515.177169 34.38 
L 515.177169 7.2 
L 517.224416 7.2 
L 517.224416 34.38 
L 515.177169 34.38 
z
" clip-path="url(#pc3a54c76b3)" style="fill: #ff9e9e"/>
    <path d="M 517.224416 34.38 
L 517.224416 7.2 
L 519.271662 7.2 
L 519.271662 34.38 
L 517.224416 34.38 
z
" clip-path="url(#pc3a54c76b3)" style="fill: #ff0000"/>
    <path d="M 519.271662 34.38 
L 519.271662 7.2 
L 521.318909 7.2 
L 521.318909 34.38 
L 519.271662 34.38 
z
" clip-path="url(#pc3a54c76b3)" style="fill: #ffdada"/>
    <path d="M 521.318909 34.38 
L 521.318909 7.2 
L 523.366156 7.2 
L 523.366156 34.38 
L 521.318909 34.38 
z
" clip-path="url(#pc3a54c76b3)" style="fill: #ff1010"/>
    <path d="M 523.366156 34.38 
L 523.366156 7.2 
L 525.413403 7.2 
L 525.413403 34.38 
L 523.366156 34.38 
z
" clip-path="url(#pc3a54c76b3)" style="fill: #ffa4a4"/>
    <path d="M 525.413403 34.38 
L 525.413403 7.2 
L 527.460649 7.2 
L 527.460649 34.38 
L 525.413403 34.38 
z
" clip-path="url(#pc3a54c76b3)" style="fill: #ffc4c4"/>
    <path d="M 527.460649 34.38 
L 527.460649 7.2 
L 529.507896 7.2 
L 529.507896 34.38 
L 527.460649 34.38 
z
" clip-path="url(#pc3a54c76b3)" style="fill: #ff4040"/>
    <path d="M 529.507896 34.38 
L 529.507896 7.2 
L 531.555143 7.2 
L 531.555143 34.38 
L 529.507896 34.38 
z
" clip-path="url(#pc3a54c76b3)" style="fill: #ff5050"/>
    <path d="M 531.555143 34.38 
L 531.555143 7.2 
L 533.602389 7.2 
L 533.602389 34.38 
L 531.555143 34.38 
z
" clip-path="url(#pc3a54c76b3)" style="fill: #ff7070"/>
    <path d="M 533.602389 34.38 
L 533.602389 7.2 
L 535.649636 7.2 
L 535.649636 34.38 
L 533.602389 34.38 
z
" clip-path="url(#pc3a54c76b3)" style="fill: #ff7070"/>
    <path d="M 535.649636 34.38 
L 535.649636 7.2 
L 537.696883 7.2 
L 537.696883 34.38 
L 535.649636 34.38 
z
" clip-path="url(#pc3a54c76b3)" style="fill: #ff6e6e"/>
    <path d="M 537.696883 34.38 
L 537.696883 7.2 
L 539.74413 7.2 
L 539.74413 34.38 
L 537.696883 34.38 
z
" clip-path="url(#pc3a54c76b3)" style="fill: #9898ff"/>
    <path d="M 539.74413 34.38 
L 539.74413 7.2 
L 541.791376 7.2 
L 541.791376 34.38 
L 539.74413 34.38 
z
" clip-path="url(#pc3a54c76b3)" style="fill: #ffbcbc"/>
    <path d="M 541.791376 34.38 
L 541.791376 7.2 
L 543.838623 7.2 
L 543.838623 34.38 
L 541.791376 34.38 
z
" clip-path="url(#pc3a54c76b3)" style="fill: #ffbebe"/>
    <path d="M 543.838623 34.38 
L 543.838623 7.2 
L 545.88587 7.2 
L 545.88587 34.38 
L 543.838623 34.38 
z
" clip-path="url(#pc3a54c76b3)" style="fill: #ff7676"/>
    <path d="M 545.88587 34.38 
L 545.88587 7.2 
L 547.933117 7.2 
L 547.933117 34.38 
L 545.88587 34.38 
z
" clip-path="url(#pc3a54c76b3)" style="fill: #9090ff"/>
    <path d="M 547.933117 34.38 
L 547.933117 7.2 
L 549.980363 7.2 
L 549.980363 34.38 
L 547.933117 34.38 
z
" clip-path="url(#pc3a54c76b3)" style="fill: #ffbcbc"/>
    <path d="M 549.980363 34.38 
L 549.980363 7.2 
L 552.02761 7.2 
L 552.02761 34.38 
L 549.980363 34.38 
z
" clip-path="url(#pc3a54c76b3)" style="fill: #ffb6b6"/>
    <path d="M 552.02761 34.38 
L 552.02761 7.2 
L 554.074857 7.2 
L 554.074857 34.38 
L 552.02761 34.38 
z
" clip-path="url(#pc3a54c76b3)" style="fill: #ffcece"/>
    <path d="M 554.074857 34.38 
L 554.074857 7.2 
L 556.122103 7.2 
L 556.122103 34.38 
L 554.074857 34.38 
z
" clip-path="url(#pc3a54c76b3)" style="fill: #ffd8d8"/>
    <path d="M 556.122103 34.38 
L 556.122103 7.2 
L 558.16935 7.2 
L 558.16935 34.38 
L 556.122103 34.38 
z
" clip-path="url(#pc3a54c76b3)" style="fill: #ff3232"/>
    <path d="M 558.16935 34.38 
L 558.16935 7.2 
L 560.216597 7.2 
L 560.216597 34.38 
L 558.16935 34.38 
z
" clip-path="url(#pc3a54c76b3)" style="fill: #ff0000"/>
    <path d="M 560.216597 34.38 
L 560.216597 7.2 
L 562.263844 7.2 
L 562.263844 34.38 
L 560.216597 34.38 
z
" clip-path="url(#pc3a54c76b3)" style="fill: #ff0000"/>
    <path d="M 562.263844 34.38 
L 562.263844 7.2 
L 564.31109 7.2 
L 564.31109 34.38 
L 562.263844 34.38 
z
" clip-path="url(#pc3a54c76b3)" style="fill: #9a9aff"/>
    <path d="M 564.31109 34.38 
L 564.31109 7.2 
L 566.358337 7.2 
L 566.358337 34.38 
L 564.31109 34.38 
z
" clip-path="url(#pc3a54c76b3)" style="fill: #9090ff"/>
    <path d="M 566.358337 34.38 
L 566.358337 7.2 
L 568.405584 7.2 
L 568.405584 34.38 
L 566.358337 34.38 
z
" clip-path="url(#pc3a54c76b3)" style="fill: #6262ff"/>
    <path d="M 568.405584 34.38 
L 568.405584 7.2 
L 570.452831 7.2 
L 570.452831 34.38 
L 568.405584 34.38 
z
" clip-path="url(#pc3a54c76b3)" style="fill: #7474ff"/>
    <path d="M 570.452831 34.38 
L 570.452831 7.2 
L 572.500077 7.2 
L 572.500077 34.38 
L 570.452831 34.38 
z
" clip-path="url(#pc3a54c76b3)" style="fill: #6e6eff"/>
    <path d="M 572.500077 34.38 
L 572.500077 7.2 
L 574.547324 7.2 
L 574.547324 34.38 
L 572.500077 34.38 
z
" clip-path="url(#pc3a54c76b3)" style="fill: #c8c8ff"/>
    <path d="M 574.547324 34.38 
L 574.547324 7.2 
L 576.594571 7.2 
L 576.594571 34.38 
L 574.547324 34.38 
z
" clip-path="url(#pc3a54c76b3)" style="fill: #c4c4ff"/>
    <path d="M 576.594571 34.38 
L 576.594571 7.2 
L 578.641818 7.2 
L 578.641818 34.38 
L 576.594571 34.38 
z
" clip-path="url(#pc3a54c76b3)" style="fill: #c6c6ff"/>
    <path d="M 578.641818 34.38 
L 578.641818 7.2 
L 580.689064 7.2 
L 580.689064 34.38 
L 578.641818 34.38 
z
" clip-path="url(#pc3a54c76b3)" style="fill: #ff5656"/>
    <path d="M 580.689064 34.38 
L 580.689064 7.2 
L 582.736311 7.2 
L 582.736311 34.38 
L 580.689064 34.38 
z
" clip-path="url(#pc3a54c76b3)" style="fill: #ff3a3a"/>
    <path d="M 582.736311 34.38 
L 582.736311 7.2 
L 584.783558 7.2 
L 584.783558 34.38 
L 582.736311 34.38 
z
" clip-path="url(#pc3a54c76b3)" style="fill: #ff4646"/>
    <path d="M 584.783558 34.38 
L 584.783558 7.2 
L 586.830804 7.2 
L 586.830804 34.38 
L 584.783558 34.38 
z
" clip-path="url(#pc3a54c76b3)" style="fill: #ff0000"/>
    <path d="M 586.830804 34.38 
L 586.830804 7.2 
L 588.878051 7.2 
L 588.878051 34.38 
L 586.830804 34.38 
z
" clip-path="url(#pc3a54c76b3)" style="fill: #ff4040"/>
    <path d="M 588.878051 34.38 
L 588.878051 7.2 
L 590.925298 7.2 
L 590.925298 34.38 
L 588.878051 34.38 
z
" clip-path="url(#pc3a54c76b3)" style="fill: #ff2626"/>
    <path d="M 590.925298 34.38 
L 590.925298 7.2 
L 592.972545 7.2 
L 592.972545 34.38 
L 590.925298 34.38 
z
" clip-path="url(#pc3a54c76b3)" style="fill: #ff0000"/>
    <path d="M 592.972545 34.38 
L 592.972545 7.2 
L 595.019791 7.2 
L 595.019791 34.38 
L 592.972545 34.38 
z
" clip-path="url(#pc3a54c76b3)" style="fill: #ff0c0c"/>
    <path d="M 595.019791 34.38 
L 595.019791 7.2 
L 597.067038 7.2 
L 597.067038 34.38 
L 595.019791 34.38 
z
" clip-path="url(#pc3a54c76b3)" style="fill: #ff0000"/>
    <path d="M 597.067038 34.38 
L 597.067038 7.2 
L 599.114285 7.2 
L 599.114285 34.38 
L 597.067038 34.38 
z
" clip-path="url(#pc3a54c76b3)" style="fill: #ff8080"/>
    <path d="M 599.114285 34.38 
L 599.114285 7.2 
L 601.161532 7.2 
L 601.161532 34.38 
L 599.114285 34.38 
z
" clip-path="url(#pc3a54c76b3)" style="fill: #ff7a7a"/>
    <path d="M 601.161532 34.38 
L 601.161532 7.2 
L 603.208778 7.2 
L 603.208778 34.38 
L 601.161532 34.38 
z
" clip-path="url(#pc3a54c76b3)" style="fill: #ffd0d0"/>
    <path d="M 603.208778 34.38 
L 603.208778 7.2 
L 605.256025 7.2 
L 605.256025 34.38 
L 603.208778 34.38 
z
" clip-path="url(#pc3a54c76b3)" style="fill: #ff6868"/>
    <path d="M 605.256025 34.38 
L 605.256025 7.2 
L 607.303272 7.2 
L 607.303272 34.38 
L 605.256025 34.38 
z
" clip-path="url(#pc3a54c76b3)" style="fill: #ff6868"/>
    <path d="M 607.303272 34.38 
L 607.303272 7.2 
L 609.350518 7.2 
L 609.350518 34.38 
L 607.303272 34.38 
z
" clip-path="url(#pc3a54c76b3)" style="fill: #ff1818"/>
    <path d="M 609.350518 34.38 
L 609.350518 7.2 
L 611.397765 7.2 
L 611.397765 34.38 
L 609.350518 34.38 
z
" clip-path="url(#pc3a54c76b3)" style="fill: #ff2828"/>
    <path d="M 611.397765 34.38 
L 611.397765 7.2 
L 613.445012 7.2 
L 613.445012 34.38 
L 611.397765 34.38 
z
" clip-path="url(#pc3a54c76b3)" style="fill: #ff2a2a"/>
    <path d="M 613.445012 34.38 
L 613.445012 7.2 
L 615.492259 7.2 
L 615.492259 34.38 
L 613.445012 34.38 
z
" clip-path="url(#pc3a54c76b3)" style="fill: #ff9a9a"/>
    <path d="M 615.492259 34.38 
L 615.492259 7.2 
L 617.539505 7.2 
L 617.539505 34.38 
L 615.492259 34.38 
z
" clip-path="url(#pc3a54c76b3)" style="fill: #ff9898"/>
    <path d="M 617.539505 34.38 
L 617.539505 7.2 
L 619.586752 7.2 
L 619.586752 34.38 
L 617.539505 34.38 
z
" clip-path="url(#pc3a54c76b3)" style="fill: #ff9c9c"/>
    <path d="M 619.586752 34.38 
L 619.586752 7.2 
L 621.633999 7.2 
L 621.633999 34.38 
L 619.586752 34.38 
z
" clip-path="url(#pc3a54c76b3)" style="fill: #5a5aff"/>
    <path d="M 621.633999 34.38 
L 621.633999 7.2 
L 623.681246 7.2 
L 623.681246 34.38 
L 621.633999 34.38 
z
" clip-path="url(#pc3a54c76b3)" style="fill: #6464ff"/>
    <path d="M 623.681246 34.38 
L 623.681246 7.2 
L 625.728492 7.2 
L 625.728492 34.38 
L 623.681246 34.38 
z
" clip-path="url(#pc3a54c76b3)" style="fill: #6868ff"/>
    <path d="M 625.728492 34.38 
L 625.728492 7.2 
L 627.775739 7.2 
L 627.775739 34.38 
L 625.728492 34.38 
z
" clip-path="url(#pc3a54c76b3)" style="fill: #b8b8ff"/>
    <path d="M 627.775739 34.38 
L 627.775739 7.2 
L 629.822986 7.2 
L 629.822986 34.38 
L 627.775739 34.38 
z
" clip-path="url(#pc3a54c76b3)" style="fill: #aaaaff"/>
    <path d="M 629.822986 34.38 
L 629.822986 7.2 
L 631.870233 7.2 
L 631.870233 34.38 
L 629.822986 34.38 
z
" clip-path="url(#pc3a54c76b3)" style="fill: #a6a6ff"/>
    <path d="M 631.870233 34.38 
L 631.870233 7.2 
L 633.917479 7.2 
L 633.917479 34.38 
L 631.870233 34.38 
z
" clip-path="url(#pc3a54c76b3)" style="fill: #ff8e8e"/>
    <path d="M 633.917479 34.38 
L 633.917479 7.2 
L 635.964726 7.2 
L 635.964726 34.38 
L 633.917479 34.38 
z
" clip-path="url(#pc3a54c76b3)" style="fill: #ff9090"/>
    <path d="M 635.964726 34.38 
L 635.964726 7.2 
L 638.011973 7.2 
L 638.011973 34.38 
L 635.964726 34.38 
z
" clip-path="url(#pc3a54c76b3)" style="fill: #ff2c2c"/>
    <path d="M 638.011973 34.38 
L 638.011973 7.2 
L 640.059219 7.2 
L 640.059219 34.38 
L 638.011973 34.38 
z
" clip-path="url(#pc3a54c76b3)" style="fill: #ff3232"/>
    <path d="M 640.059219 34.38 
L 640.059219 7.2 
L 642.106466 7.2 
L 642.106466 34.38 
L 640.059219 34.38 
z
" clip-path="url(#pc3a54c76b3)" style="fill: #ff3030"/>
    <path d="M 642.106466 34.38 
L 642.106466 7.2 
L 644.153713 7.2 
L 644.153713 34.38 
L 642.106466 34.38 
z
" clip-path="url(#pc3a54c76b3)" style="fill: #ffc0c0"/>
    <path d="M 644.153713 34.38 
L 644.153713 7.2 
L 646.20096 7.2 
L 646.20096 34.38 
L 644.153713 34.38 
z
" clip-path="url(#pc3a54c76b3)" style="fill: #ffbaba"/>
    <path d="M 646.20096 34.38 
L 646.20096 7.2 
L 648.248206 7.2 
L 648.248206 34.38 
L 646.20096 34.38 
z
" clip-path="url(#pc3a54c76b3)" style="fill: #ffb6b6"/>
    <path d="M 648.248206 34.38 
L 648.248206 7.2 
L 650.295453 7.2 
L 650.295453 34.38 
L 648.248206 34.38 
z
" clip-path="url(#pc3a54c76b3)" style="fill: #ffb0b0"/>
    <path d="M 650.295453 34.38 
L 650.295453 7.2 
L 652.3427 7.2 
L 652.3427 34.38 
L 650.295453 34.38 
z
" clip-path="url(#pc3a54c76b3)" style="fill: #6c6cff"/>
    <path d="M 652.3427 34.38 
L 652.3427 7.2 
L 654.389947 7.2 
L 654.389947 34.38 
L 652.3427 34.38 
z
" clip-path="url(#pc3a54c76b3)" style="fill: #5e5eff"/>
    <path d="M 654.389947 34.38 
L 654.389947 7.2 
L 656.437193 7.2 
L 656.437193 34.38 
L 654.389947 34.38 
z
" clip-path="url(#pc3a54c76b3)" style="fill: #6c6cff"/>
    <path d="M 656.437193 34.38 
L 656.437193 7.2 
L 658.48444 7.2 
L 658.48444 34.38 
L 656.437193 34.38 
z
" clip-path="url(#pc3a54c76b3)" style="fill: #1a1aff"/>
    <path d="M 658.48444 34.38 
L 658.48444 7.2 
L 660.531687 7.2 
L 660.531687 34.38 
L 658.48444 34.38 
z
" clip-path="url(#pc3a54c76b3)" style="fill: #6666ff"/>
    <path d="M 660.531687 34.38 
L 660.531687 7.2 
L 662.578933 7.2 
L 662.578933 34.38 
L 660.531687 34.38 
z
" clip-path="url(#pc3a54c76b3)" style="fill: #3c3cff"/>
    <path d="M 662.578933 34.38 
L 662.578933 7.2 
L 664.62618 7.2 
L 664.62618 34.38 
L 662.578933 34.38 
z
" clip-path="url(#pc3a54c76b3)" style="fill: #a8a8ff"/>
    <path d="M 664.62618 34.38 
L 664.62618 7.2 
L 666.673427 7.2 
L 666.673427 34.38 
L 664.62618 34.38 
z
" clip-path="url(#pc3a54c76b3)" style="fill: #a0a0ff"/>
    <path d="M 666.673427 34.38 
L 666.673427 7.2 
L 668.720674 7.2 
L 668.720674 34.38 
L 666.673427 34.38 
z
" clip-path="url(#pc3a54c76b3)" style="fill: #a0a0ff"/>
    <path d="M 668.720674 34.38 
L 668.720674 7.2 
L 670.76792 7.2 
L 670.76792 34.38 
L 668.720674 34.38 
z
" clip-path="url(#pc3a54c76b3)" style="fill: #ffc8c8"/>
    <path d="M 670.76792 34.38 
L 670.76792 7.2 
L 672.815167 7.2 
L 672.815167 34.38 
L 670.76792 34.38 
z
" clip-path="url(#pc3a54c76b3)" style="fill: #ffcccc"/>
    <path d="M 672.815167 34.38 
L 672.815167 7.2 
L 674.862414 7.2 
L 674.862414 34.38 
L 672.815167 34.38 
z
" clip-path="url(#pc3a54c76b3)" style="fill: #ffc8c8"/>
    <path d="M 674.862414 34.38 
L 674.862414 7.2 
L 676.909661 7.2 
L 676.909661 34.38 
L 674.862414 34.38 
z
" clip-path="url(#pc3a54c76b3)" style="fill: #ffdede"/>
    <path d="M 676.909661 34.38 
L 676.909661 7.2 
L 678.956907 7.2 
L 678.956907 34.38 
L 676.909661 34.38 
z
" clip-path="url(#pc3a54c76b3)" style="fill: #ffdede"/>
    <path d="M 678.956907 34.38 
L 678.956907 7.2 
L 681.004154 7.2 
L 681.004154 34.38 
L 678.956907 34.38 
z
" clip-path="url(#pc3a54c76b3)" style="fill: #ffdcdc"/>
    <path d="M 681.004154 34.38 
L 681.004154 7.2 
L 683.051401 7.2 
L 683.051401 34.38 
L 681.004154 34.38 
z
" clip-path="url(#pc3a54c76b3)" style="fill: #ff0c0c"/>
    <path d="M 683.051401 34.38 
L 683.051401 7.2 
L 685.098648 7.2 
L 685.098648 34.38 
L 683.051401 34.38 
z
" clip-path="url(#pc3a54c76b3)" style="fill: #ff1818"/>
    <path d="M 685.098648 34.38 
L 685.098648 7.2 
L 687.145894 7.2 
L 687.145894 34.38 
L 685.098648 34.38 
z
" clip-path="url(#pc3a54c76b3)" style="fill: #ff0e0e"/>
    <path d="M 687.145894 34.38 
L 687.145894 7.2 
L 689.193141 7.2 
L 689.193141 34.38 
L 687.145894 34.38 
z
" clip-path="url(#pc3a54c76b3)" style="fill: #ffbaba"/>
    <path d="M 689.193141 34.38 
L 689.193141 7.2 
L 691.240388 7.2 
L 691.240388 34.38 
L 689.193141 34.38 
z
" clip-path="url(#pc3a54c76b3)" style="fill: #ffc0c0"/>
    <path d="M 691.240388 34.38 
L 691.240388 7.2 
L 693.287634 7.2 
L 693.287634 34.38 
L 691.240388 34.38 
z
" clip-path="url(#pc3a54c76b3)" style="fill: #ffbebe"/>
    <path d="M 693.287634 34.38 
L 693.287634 7.2 
L 695.334881 7.2 
L 695.334881 34.38 
L 693.287634 34.38 
z
" clip-path="url(#pc3a54c76b3)" style="fill: #ff0000"/>
    <path d="M 695.334881 34.38 
L 695.334881 7.2 
L 697.382128 7.2 
L 697.382128 34.38 
L 695.334881 34.38 
z
" clip-path="url(#pc3a54c76b3)" style="fill: #ff0000"/>
    <path d="M 697.382128 34.38 
L 697.382128 7.2 
L 699.429375 7.2 
L 699.429375 34.38 
L 697.382128 34.38 
z
" clip-path="url(#pc3a54c76b3)" style="fill: #ff0000"/>
    <path d="M 699.429375 34.38 
L 699.429375 7.2 
L 701.476621 7.2 
L 701.476621 34.38 
L 699.429375 34.38 
z
" clip-path="url(#pc3a54c76b3)" style="fill: #ffd6d6"/>
    <path d="M 701.476621 34.38 
L 701.476621 7.2 
L 703.523868 7.2 
L 703.523868 34.38 
L 701.476621 34.38 
z
" clip-path="url(#pc3a54c76b3)" style="fill: #ffd6d6"/>
    <path d="M 703.523868 34.38 
L 703.523868 7.2 
L 705.571115 7.2 
L 705.571115 34.38 
L 703.523868 34.38 
z
" clip-path="url(#pc3a54c76b3)" style="fill: #ff0000"/>
    <path d="M 705.571115 34.38 
L 705.571115 7.2 
L 707.618362 7.2 
L 707.618362 34.38 
L 705.571115 34.38 
z
" clip-path="url(#pc3a54c76b3)" style="fill: #ff0000"/>
    <path d="M 707.618362 34.38 
L 707.618362 7.2 
L 709.665608 7.2 
L 709.665608 34.38 
L 707.618362 34.38 
z
" clip-path="url(#pc3a54c76b3)" style="fill: #ff0000"/>
    <path d="M 709.665608 34.38 
L 709.665608 7.2 
L 711.712855 7.2 
L 711.712855 34.38 
L 709.665608 34.38 
z
" clip-path="url(#pc3a54c76b3)" style="fill: #ff9e9e"/>
    <path d="M 711.712855 34.38 
L 711.712855 7.2 
L 713.760102 7.2 
L 713.760102 34.38 
L 711.712855 34.38 
z
" clip-path="url(#pc3a54c76b3)" style="fill: #ffa0a0"/>
    <path d="M 713.760102 34.38 
L 713.760102 7.2 
L 715.807348 7.2 
L 715.807348 34.38 
L 713.760102 34.38 
z
" clip-path="url(#pc3a54c76b3)" style="fill: #ff9a9a"/>
    <path d="M 715.807348 34.38 
L 715.807348 7.2 
L 717.854595 7.2 
L 717.854595 34.38 
L 715.807348 34.38 
z
" clip-path="url(#pc3a54c76b3)" style="fill: #ff0000"/>
    <path d="M 717.854595 34.38 
L 717.854595 7.2 
L 719.901842 7.2 
L 719.901842 34.38 
L 717.854595 34.38 
z
" clip-path="url(#pc3a54c76b3)" style="fill: #ff0000"/>
    <path d="M 719.901842 34.38 
L 719.901842 7.2 
L 721.949089 7.2 
L 721.949089 34.38 
L 719.901842 34.38 
z
" clip-path="url(#pc3a54c76b3)" style="fill: #ff0000"/>
    <path d="M 721.949089 34.38 
L 721.949089 7.2 
L 723.996335 7.2 
L 723.996335 34.38 
L 721.949089 34.38 
z
" clip-path="url(#pc3a54c76b3)" style="fill: #ffd6d6"/>
    <path d="M 723.996335 34.38 
L 723.996335 7.2 
L 726.043582 7.2 
L 726.043582 34.38 
L 723.996335 34.38 
z
" clip-path="url(#pc3a54c76b3)" style="fill: #ffd4d4"/>
    <path d="M 726.043582 34.38 
L 726.043582 7.2 
L 728.090829 7.2 
L 728.090829 34.38 
L 726.043582 34.38 
z
" clip-path="url(#pc3a54c76b3)" style="fill: #ffd4d4"/>
    <path d="M 728.090829 34.38 
L 728.090829 7.2 
L 730.138076 7.2 
L 730.138076 34.38 
L 728.090829 34.38 
z
" clip-path="url(#pc3a54c76b3)" style="fill: #ff0000"/>
    <path d="M 730.138076 34.38 
L 730.138076 7.2 
L 732.185322 7.2 
L 732.185322 34.38 
L 730.138076 34.38 
z
" clip-path="url(#pc3a54c76b3)" style="fill: #ff0000"/>
    <path d="M 732.185322 34.38 
L 732.185322 7.2 
L 734.232569 7.2 
L 734.232569 34.38 
L 732.185322 34.38 
z
" clip-path="url(#pc3a54c76b3)" style="fill: #ff0000"/>
    <path d="M 734.232569 34.38 
L 734.232569 7.2 
L 736.279816 7.2 
L 736.279816 34.38 
L 734.232569 34.38 
z
" clip-path="url(#pc3a54c76b3)" style="fill: #ff9494"/>
    <path d="M 736.279816 34.38 
L 736.279816 7.2 
L 738.327063 7.2 
L 738.327063 34.38 
L 736.279816 34.38 
z
" clip-path="url(#pc3a54c76b3)" style="fill: #ff9c9c"/>
    <path d="M 738.327063 34.38 
L 738.327063 7.2 
L 740.374309 7.2 
L 740.374309 34.38 
L 738.327063 34.38 
z
" clip-path="url(#pc3a54c76b3)" style="fill: #ff9696"/>
    <path d="M 740.374309 34.38 
L 740.374309 7.2 
L 742.421556 7.2 
L 742.421556 34.38 
L 740.374309 34.38 
z
" clip-path="url(#pc3a54c76b3)" style="fill: #5e5eff"/>
    <path d="M 742.421556 34.38 
L 742.421556 7.2 
L 744.468803 7.2 
L 744.468803 34.38 
L 742.421556 34.38 
z
" clip-path="url(#pc3a54c76b3)" style="fill: #cacaff"/>
    <path d="M 744.468803 34.38 
L 744.468803 7.2 
L 746.516049 7.2 
L 746.516049 34.38 
L 744.468803 34.38 
z
" clip-path="url(#pc3a54c76b3)" style="fill: #c4c4ff"/>
    <path d="M 746.516049 34.38 
L 746.516049 7.2 
L 748.563296 7.2 
L 748.563296 34.38 
L 746.516049 34.38 
z
" clip-path="url(#pc3a54c76b3)" style="fill: #8c8cff"/>
    <path d="M 748.563296 34.38 
L 748.563296 7.2 
L 750.610543 7.2 
L 750.610543 34.38 
L 748.563296 34.38 
z
" clip-path="url(#pc3a54c76b3)" style="fill: #9090ff"/>
    <path d="M 750.610543 34.38 
L 750.610543 7.2 
L 752.65779 7.2 
L 752.65779 34.38 
L 750.610543 34.38 
z
" clip-path="url(#pc3a54c76b3)" style="fill: #ff0000"/>
    <path d="M 752.65779 34.38 
L 752.65779 7.2 
L 754.705036 7.2 
L 754.705036 34.38 
L 752.65779 34.38 
z
" clip-path="url(#pc3a54c76b3)" style="fill: #ff8e8e"/>
    <path d="M 754.705036 34.38 
L 754.705036 7.2 
L 756.752283 7.2 
L 756.752283 34.38 
L 754.705036 34.38 
z
" clip-path="url(#pc3a54c76b3)" style="fill: #ffb8b8"/>
    <path d="M 756.752283 34.38 
L 756.752283 7.2 
L 758.79953 7.2 
L 758.79953 34.38 
L 756.752283 34.38 
z
" clip-path="url(#pc3a54c76b3)" style="fill: #ff2222"/>
    <path d="M 758.79953 34.38 
L 758.79953 7.2 
L 760.846777 7.2 
L 760.846777 34.38 
L 758.79953 34.38 
z
" clip-path="url(#pc3a54c76b3)" style="fill: #ff3a3a"/>
    <path d="M 760.846777 34.38 
L 760.846777 7.2 
L 762.894023 7.2 
L 762.894023 34.38 
L 760.846777 34.38 
z
" clip-path="url(#pc3a54c76b3)" style="fill: #ff1e1e"/>
    <path d="M 762.894023 34.38 
L 762.894023 7.2 
L 764.94127 7.2 
L 764.94127 34.38 
L 762.894023 34.38 
z
" clip-path="url(#pc3a54c76b3)" style="fill: #ffcccc"/>
    <path d="M 764.94127 34.38 
L 764.94127 7.2 
L 766.988517 7.2 
L 766.988517 34.38 
L 764.94127 34.38 
z
" clip-path="url(#pc3a54c76b3)" style="fill: #ff9090"/>
    <path d="M 766.988517 34.38 
L 766.988517 7.2 
L 769.035763 7.2 
L 769.035763 34.38 
L 766.988517 34.38 
z
" clip-path="url(#pc3a54c76b3)" style="fill: #ff5050"/>
    <path d="M 769.035763 34.38 
L 769.035763 7.2 
L 771.08301 7.2 
L 771.08301 34.38 
L 769.035763 34.38 
z
" clip-path="url(#pc3a54c76b3)" style="fill: #ffdede"/>
    <path d="M 771.08301 34.38 
L 771.08301 7.2 
L 773.130257 7.2 
L 773.130257 34.38 
L 771.08301 34.38 
z
" clip-path="url(#pc3a54c76b3)" style="fill: #ff0606"/>
    <path d="M 773.130257 34.38 
L 773.130257 7.2 
L 775.177504 7.2 
L 775.177504 34.38 
L 773.130257 34.38 
z
" clip-path="url(#pc3a54c76b3)" style="fill: #ff1616"/>
    <path d="M 775.177504 34.38 
L 775.177504 7.2 
L 777.22475 7.2 
L 777.22475 34.38 
L 775.177504 34.38 
z
" clip-path="url(#pc3a54c76b3)" style="fill: #ff0606"/>
    <path d="M 777.22475 34.38 
L 777.22475 7.2 
L 779.271997 7.2 
L 779.271997 34.38 
L 777.22475 34.38 
z
" clip-path="url(#pc3a54c76b3)" style="fill: #ff1818"/>
    <path d="M 779.271997 34.38 
L 779.271997 7.2 
L 781.319244 7.2 
L 781.319244 34.38 
L 779.271997 34.38 
z
" clip-path="url(#pc3a54c76b3)" style="fill: #ff1a1a"/>
    <path d="M 781.319244 34.38 
L 781.319244 7.2 
L 783.366491 7.2 
L 783.366491 34.38 
L 781.319244 34.38 
z
" clip-path="url(#pc3a54c76b3)" style="fill: #ffa8a8"/>
    <path d="M 783.366491 34.38 
L 783.366491 7.2 
L 785.413737 7.2 
L 785.413737 34.38 
L 783.366491 34.38 
z
" clip-path="url(#pc3a54c76b3)" style="fill: #ff2222"/>
    <path d="M 785.413737 34.38 
L 785.413737 7.2 
L 787.460984 7.2 
L 787.460984 34.38 
L 785.413737 34.38 
z
" clip-path="url(#pc3a54c76b3)" style="fill: #fff0f0"/>
    <path d="M 787.460984 34.38 
L 787.460984 7.2 
L 789.508231 7.2 
L 789.508231 34.38 
L 787.460984 34.38 
z
" clip-path="url(#pc3a54c76b3)" style="fill: #e6e6ff"/>
    <path d="M 789.508231 34.38 
L 789.508231 7.2 
L 791.555478 7.2 
L 791.555478 34.38 
L 789.508231 34.38 
z
" clip-path="url(#pc3a54c76b3)" style="fill: #e2e2ff"/>
    <path d="M 791.555478 34.38 
L 791.555478 7.2 
L 793.602724 7.2 
L 793.602724 34.38 
L 791.555478 34.38 
z
" clip-path="url(#pc3a54c76b3)" style="fill: #ffbcbc"/>
    <path d="M 793.602724 34.38 
L 793.602724 7.2 
L 795.649971 7.2 
L 795.649971 34.38 
L 793.602724 34.38 
z
" clip-path="url(#pc3a54c76b3)" style="fill: #ffecec"/>
    <path d="M 795.649971 34.38 
L 795.649971 7.2 
L 797.697218 7.2 
L 797.697218 34.38 
L 795.649971 34.38 
z
" clip-path="url(#pc3a54c76b3)" style="fill: #eaeaff"/>
    <path d="M 797.697218 34.38 
L 797.697218 7.2 
L 799.744464 7.2 
L 799.744464 34.38 
L 797.697218 34.38 
z
" clip-path="url(#pc3a54c76b3)" style="fill: #ffe8e8"/>
    <path d="M 799.744464 34.38 
L 799.744464 7.2 
L 801.791711 7.2 
L 801.791711 34.38 
L 799.744464 34.38 
z
" clip-path="url(#pc3a54c76b3)" style="fill: #7a7aff"/>
    <path d="M 801.791711 34.38 
L 801.791711 7.2 
L 803.838958 7.2 
L 803.838958 34.38 
L 801.791711 34.38 
z
" clip-path="url(#pc3a54c76b3)" style="fill: #7a7aff"/>
    <path d="M 803.838958 34.38 
L 803.838958 7.2 
L 805.886205 7.2 
L 805.886205 34.38 
L 803.838958 34.38 
z
" clip-path="url(#pc3a54c76b3)" style="fill: #8a8aff"/>
    <path d="M 805.886205 34.38 
L 805.886205 7.2 
L 807.933451 7.2 
L 807.933451 34.38 
L 805.886205 34.38 
z
" clip-path="url(#pc3a54c76b3)" style="fill: #ff3232"/>
    <path d="M 807.933451 34.38 
L 807.933451 7.2 
L 809.980698 7.2 
L 809.980698 34.38 
L 807.933451 34.38 
z
" clip-path="url(#pc3a54c76b3)" style="fill: #ff2c2c"/>
    <path d="M 809.980698 34.38 
L 809.980698 7.2 
L 812.027945 7.2 
L 812.027945 34.38 
L 809.980698 34.38 
z
" clip-path="url(#pc3a54c76b3)" style="fill: #cacaff"/>
    <path d="M 812.027945 34.38 
L 812.027945 7.2 
L 814.075192 7.2 
L 814.075192 34.38 
L 812.027945 34.38 
z
" clip-path="url(#pc3a54c76b3)" style="fill: #ff5454"/>
    <path d="M 814.075192 34.38 
L 814.075192 7.2 
L 816.122438 7.2 
L 816.122438 34.38 
L 814.075192 34.38 
z
" clip-path="url(#pc3a54c76b3)" style="fill: #ff5e5e"/>
    <path d="M 816.122438 34.38 
L 816.122438 7.2 
L 818.169685 7.2 
L 818.169685 34.38 
L 816.122438 34.38 
z
" clip-path="url(#pc3a54c76b3)" style="fill: #ff5454"/>
    <path d="M 818.169685 34.38 
L 818.169685 7.2 
L 820.216932 7.2 
L 820.216932 34.38 
L 818.169685 34.38 
z
" clip-path="url(#pc3a54c76b3)" style="fill: #9090ff"/>
    <path d="M 820.216932 34.38 
L 820.216932 7.2 
L 822.264178 7.2 
L 822.264178 34.38 
L 820.216932 34.38 
z
" clip-path="url(#pc3a54c76b3)" style="fill: #6868ff"/>
    <path d="M 822.264178 34.38 
L 822.264178 7.2 
L 824.311425 7.2 
L 824.311425 34.38 
L 822.264178 34.38 
z
" clip-path="url(#pc3a54c76b3)" style="fill: #7474ff"/>
    <path d="M 824.311425 34.38 
L 824.311425 7.2 
L 826.358672 7.2 
L 826.358672 34.38 
L 824.311425 34.38 
z
" clip-path="url(#pc3a54c76b3)" style="fill: #ff7a7a"/>
    <path d="M 826.358672 34.38 
L 826.358672 7.2 
L 828.405919 7.2 
L 828.405919 34.38 
L 826.358672 34.38 
z
" clip-path="url(#pc3a54c76b3)" style="fill: #ff8686"/>
    <path d="M 828.405919 34.38 
L 828.405919 7.2 
L 830.453165 7.2 
L 830.453165 34.38 
L 828.405919 34.38 
z
" clip-path="url(#pc3a54c76b3)" style="fill: #f2f2ff"/>
    <path d="M 830.453165 34.38 
L 830.453165 7.2 
L 832.500412 7.2 
L 832.500412 34.38 
L 830.453165 34.38 
z
" clip-path="url(#pc3a54c76b3)" style="fill: #ff3030"/>
    <path d="M 832.500412 34.38 
L 832.500412 7.2 
L 834.547659 7.2 
L 834.547659 34.38 
L 832.500412 34.38 
z
" clip-path="url(#pc3a54c76b3)" style="fill: #ffd6d6"/>
    <path d="M 834.547659 34.38 
L 834.547659 7.2 
L 836.594906 7.2 
L 836.594906 34.38 
L 834.547659 34.38 
z
" clip-path="url(#pc3a54c76b3)" style="fill: #3838ff"/>
    <path d="M 836.594906 34.38 
L 836.594906 7.2 
L 838.642152 7.2 
L 838.642152 34.38 
L 836.594906 34.38 
z
" clip-path="url(#pc3a54c76b3)" style="fill: #6262ff"/>
    <path d="M 838.642152 34.38 
L 838.642152 7.2 
L 840.689399 7.2 
L 840.689399 34.38 
L 838.642152 34.38 
z
" clip-path="url(#pc3a54c76b3)" style="fill: #5252ff"/>
    <path d="M 840.689399 34.38 
L 840.689399 7.2 
L 842.736646 7.2 
L 842.736646 34.38 
L 840.689399 34.38 
z
" clip-path="url(#pc3a54c76b3)" style="fill: #ff2424"/>
    <path d="M 842.736646 34.38 
L 842.736646 7.2 
L 844.783893 7.2 
L 844.783893 34.38 
L 842.736646 34.38 
z
" clip-path="url(#pc3a54c76b3)" style="fill: #ff1212"/>
    <path d="M 844.783893 34.38 
L 844.783893 7.2 
L 846.831139 7.2 
L 846.831139 34.38 
L 844.783893 34.38 
z
" clip-path="url(#pc3a54c76b3)" style="fill: #ff1212"/>
   </g>
   <g id="patch_3">
    <path d="M 72.971875 34.38 
L 72.971875 7.2 
" style="fill: none; stroke: #262626; stroke-width: 1.25; stroke-linejoin: miter; stroke-linecap: square"/>
   </g>
   <g id="patch_4">
    <path d="M 846.831139 34.38 
L 846.831139 7.2 
" style="fill: none; stroke: #262626; stroke-width: 1.25; stroke-linejoin: miter; stroke-linecap: square"/>
   </g>
   <g id="patch_5">
    <path d="M 72.971875 34.38 
L 846.831139 34.38 
" style="fill: none; stroke: #262626; stroke-width: 1.25; stroke-linejoin: miter; stroke-linecap: square"/>
   </g>
   <g id="patch_6">
    <path d="M 72.971875 7.2 
L 846.831139 7.2 
" style="fill: none; stroke: #262626; stroke-width: 1.25; stroke-linejoin: miter; stroke-linecap: square"/>
   </g>
   <g id="text_6">
    <!-- Cells -->
    <g style="fill: #262626" transform="translate(206.511474 64.278)scale(0.18 -0.18)">
     <defs>
      <path id="ArialMT-65" d="M 2694 1069 
L 3275 997 
Q 3138 488 2766 206 
Q 2394 -75 1816 -75 
Q 1088 -75 661 373 
Q 234 822 234 1631 
Q 234 2469 665 2931 
Q 1097 3394 1784 3394 
Q 2450 3394 2872 2941 
Q 3294 2488 3294 1666 
Q 3294 1616 3291 1516 
L 816 1516 
Q 847 969 1125 678 
Q 1403 388 1819 388 
Q 2128 388 2347 550 
Q 2566 713 2694 1069 
z
M 847 1978 
L 2700 1978 
Q 2663 2397 2488 2606 
Q 2219 2931 1791 2931 
Q 1403 2931 1139 2672 
Q 875 2413 847 1978 
z
" transform="scale(0.015625)"/>
      <path id="ArialMT-6c" d="M 409 0 
L 409 4581 
L 972 4581 
L 972 0 
L 409 0 
z
" transform="scale(0.015625)"/>
      <path id="ArialMT-73" d="M 197 991 
L 753 1078 
Q 800 744 1014 566 
Q 1228 388 1613 388 
Q 2000 388 2187 545 
Q 2375 703 2375 916 
Q 2375 1106 2209 1216 
Q 2094 1291 1634 1406 
Q 1016 1563 777 1677 
Q 538 1791 414 1992 
Q 291 2194 291 2438 
Q 291 2659 392 2848 
Q 494 3038 669 3163 
Q 800 3259 1026 3326 
Q 1253 3394 1513 3394 
Q 1903 3394 2198 3281 
Q 2494 3169 2634 2976 
Q 2775 2784 2828 2463 
L 2278 2388 
Q 2241 2644 2061 2787 
Q 1881 2931 1553 2931 
Q 1166 2931 1000 2803 
Q 834 2675 834 2503 
Q 834 2394 903 2306 
Q 972 2216 1119 2156 
Q 1203 2125 1616 2013 
Q 2213 1853 2448 1751 
Q 2684 1650 2818 1456 
Q 2953 1263 2953 975 
Q 2953 694 2789 445 
Q 2625 197 2315 61 
Q 2006 -75 1616 -75 
Q 969 -75 630 194 
Q 291 463 197 991 
z
" transform="scale(0.015625)"/>
     </defs>
     <use xlink:href="#ArialMT-43"/>
     <use xlink:href="#ArialMT-65" x="72.216797"/>
     <use xlink:href="#ArialMT-6c" x="127.832031"/>
     <use xlink:href="#ArialMT-6c" x="150.048828"/>
     <use xlink:href="#ArialMT-73" x="172.265625"/>
    </g>
   </g>
   <g id="text_7">
    <!-- Cytoplasm -->
    <g style="fill: #262626" transform="translate(517.705659 64.278)scale(0.18 -0.18)">
     <defs>
      <path id="ArialMT-79" d="M 397 -1278 
L 334 -750 
Q 519 -800 656 -800 
Q 844 -800 956 -737 
Q 1069 -675 1141 -563 
Q 1194 -478 1313 -144 
Q 1328 -97 1363 -6 
L 103 3319 
L 709 3319 
L 1400 1397 
Q 1534 1031 1641 628 
Q 1738 1016 1872 1384 
L 2581 3319 
L 3144 3319 
L 1881 -56 
Q 1678 -603 1566 -809 
Q 1416 -1088 1222 -1217 
Q 1028 -1347 759 -1347 
Q 597 -1347 397 -1278 
z
" transform="scale(0.015625)"/>
      <path id="ArialMT-74" d="M 1650 503 
L 1731 6 
Q 1494 -44 1306 -44 
Q 1000 -44 831 53 
Q 663 150 594 308 
Q 525 466 525 972 
L 525 2881 
L 113 2881 
L 113 3319 
L 525 3319 
L 525 4141 
L 1084 4478 
L 1084 3319 
L 1650 3319 
L 1650 2881 
L 1084 2881 
L 1084 941 
Q 1084 700 1114 631 
Q 1144 563 1211 522 
Q 1278 481 1403 481 
Q 1497 481 1650 503 
z
" transform="scale(0.015625)"/>
      <path id="ArialMT-6f" d="M 213 1659 
Q 213 2581 725 3025 
Q 1153 3394 1769 3394 
Q 2453 3394 2887 2945 
Q 3322 2497 3322 1706 
Q 3322 1066 3130 698 
Q 2938 331 2570 128 
Q 2203 -75 1769 -75 
Q 1072 -75 642 372 
Q 213 819 213 1659 
z
M 791 1659 
Q 791 1022 1069 705 
Q 1347 388 1769 388 
Q 2188 388 2466 706 
Q 2744 1025 2744 1678 
Q 2744 2294 2464 2611 
Q 2184 2928 1769 2928 
Q 1347 2928 1069 2612 
Q 791 2297 791 1659 
z
" transform="scale(0.015625)"/>
      <path id="ArialMT-70" d="M 422 -1272 
L 422 3319 
L 934 3319 
L 934 2888 
Q 1116 3141 1344 3267 
Q 1572 3394 1897 3394 
Q 2322 3394 2647 3175 
Q 2972 2956 3137 2557 
Q 3303 2159 3303 1684 
Q 3303 1175 3120 767 
Q 2938 359 2589 142 
Q 2241 -75 1856 -75 
Q 1575 -75 1351 44 
Q 1128 163 984 344 
L 984 -1272 
L 422 -1272 
z
M 931 1641 
Q 931 1000 1190 694 
Q 1450 388 1819 388 
Q 2194 388 2461 705 
Q 2728 1022 2728 1688 
Q 2728 2322 2467 2637 
Q 2206 2953 1844 2953 
Q 1484 2953 1207 2617 
Q 931 2281 931 1641 
z
" transform="scale(0.015625)"/>
      <path id="ArialMT-61" d="M 2588 409 
Q 2275 144 1986 34 
Q 1697 -75 1366 -75 
Q 819 -75 525 192 
Q 231 459 231 875 
Q 231 1119 342 1320 
Q 453 1522 633 1644 
Q 813 1766 1038 1828 
Q 1203 1872 1538 1913 
Q 2219 1994 2541 2106 
Q 2544 2222 2544 2253 
Q 2544 2597 2384 2738 
Q 2169 2928 1744 2928 
Q 1347 2928 1158 2789 
Q 969 2650 878 2297 
L 328 2372 
Q 403 2725 575 2942 
Q 747 3159 1072 3276 
Q 1397 3394 1825 3394 
Q 2250 3394 2515 3294 
Q 2781 3194 2906 3042 
Q 3031 2891 3081 2659 
Q 3109 2516 3109 2141 
L 3109 1391 
Q 3109 606 3145 398 
Q 3181 191 3288 0 
L 2700 0 
Q 2613 175 2588 409 
z
M 2541 1666 
Q 2234 1541 1622 1453 
Q 1275 1403 1131 1340 
Q 988 1278 909 1158 
Q 831 1038 831 891 
Q 831 666 1001 516 
Q 1172 366 1500 366 
Q 1825 366 2078 508 
Q 2331 650 2450 897 
Q 2541 1088 2541 1459 
L 2541 1666 
z
" transform="scale(0.015625)"/>
      <path id="ArialMT-6d" d="M 422 0 
L 422 3319 
L 925 3319 
L 925 2853 
Q 1081 3097 1340 3245 
Q 1600 3394 1931 3394 
Q 2300 3394 2536 3241 
Q 2772 3088 2869 2813 
Q 3263 3394 3894 3394 
Q 4388 3394 4653 3120 
Q 4919 2847 4919 2278 
L 4919 0 
L 4359 0 
L 4359 2091 
Q 4359 2428 4304 2576 
Q 4250 2725 4106 2815 
Q 3963 2906 3769 2906 
Q 3419 2906 3187 2673 
Q 2956 2441 2956 1928 
L 2956 0 
L 2394 0 
L 2394 2156 
Q 2394 2531 2256 2718 
Q 2119 2906 1806 2906 
Q 1569 2906 1367 2781 
Q 1166 2656 1075 2415 
Q 984 2175 984 1722 
L 984 0 
L 422 0 
z
" transform="scale(0.015625)"/>
     </defs>
     <use xlink:href="#ArialMT-43"/>
     <use xlink:href="#ArialMT-79" x="72.216797"/>
     <use xlink:href="#ArialMT-74" x="122.216797"/>
     <use xlink:href="#ArialMT-6f" x="150"/>
     <use xlink:href="#ArialMT-70" x="205.615234"/>
     <use xlink:href="#ArialMT-6c" x="261.230469"/>
     <use xlink:href="#ArialMT-61" x="283.447266"/>
     <use xlink:href="#ArialMT-73" x="339.0625"/>
     <use xlink:href="#ArialMT-6d" x="389.0625"/>
    </g>
   </g>
   <g id="text_8">
    <!-- Nuclei -->
    <g style="fill: #262626" transform="translate(768.593974 64.278)scale(0.18 -0.18)">
     <defs>
      <path id="ArialMT-4e" d="M 488 0 
L 488 4581 
L 1109 4581 
L 3516 984 
L 3516 4581 
L 4097 4581 
L 4097 0 
L 3475 0 
L 1069 3600 
L 1069 0 
L 488 0 
z
" transform="scale(0.015625)"/>
      <path id="ArialMT-75" d="M 2597 0 
L 2597 488 
Q 2209 -75 1544 -75 
Q 1250 -75 995 37 
Q 741 150 617 320 
Q 494 491 444 738 
Q 409 903 409 1263 
L 409 3319 
L 972 3319 
L 972 1478 
Q 972 1038 1006 884 
Q 1059 663 1231 536 
Q 1403 409 1656 409 
Q 1909 409 2131 539 
Q 2353 669 2445 892 
Q 2538 1116 2538 1541 
L 2538 3319 
L 3100 3319 
L 3100 0 
L 2597 0 
z
" transform="scale(0.015625)"/>
      <path id="ArialMT-63" d="M 2588 1216 
L 3141 1144 
Q 3050 572 2676 248 
Q 2303 -75 1759 -75 
Q 1078 -75 664 370 
Q 250 816 250 1647 
Q 250 2184 428 2587 
Q 606 2991 970 3192 
Q 1334 3394 1763 3394 
Q 2303 3394 2647 3120 
Q 2991 2847 3088 2344 
L 2541 2259 
Q 2463 2594 2264 2762 
Q 2066 2931 1784 2931 
Q 1359 2931 1093 2626 
Q 828 2322 828 1663 
Q 828 994 1084 691 
Q 1341 388 1753 388 
Q 2084 388 2306 591 
Q 2528 794 2588 1216 
z
" transform="scale(0.015625)"/>
      <path id="ArialMT-69" d="M 425 3934 
L 425 4581 
L 988 4581 
L 988 3934 
L 425 3934 
z
M 425 0 
L 425 3319 
L 988 3319 
L 988 0 
L 425 0 
z
" transform="scale(0.015625)"/>
     </defs>
     <use xlink:href="#ArialMT-4e"/>
     <use xlink:href="#ArialMT-75" x="72.216797"/>
     <use xlink:href="#ArialMT-63" x="127.832031"/>
     <use xlink:href="#ArialMT-6c" x="177.832031"/>
     <use xlink:href="#ArialMT-65" x="200.048828"/>
     <use xlink:href="#ArialMT-69" x="255.664062"/>
    </g>
   </g>
  </g>
 </g>
 <defs>
  <clipPath id="pc3a54c76b3">
   <rect x="72.971875" y="7.2" width="773.859264" height="27.18"/>
  </clipPath>
 </defs>
</svg>
