<?xml version="1.0" encoding="utf-8" standalone="no"?>
<!DOCTYPE svg PUBLIC "-//W3C//DTD SVG 1.1//EN"
  "http://www.w3.org/Graphics/SVG/1.1/DTD/svg11.dtd">
<svg xmlns:xlink="http://www.w3.org/1999/xlink" width="1056.311837pt" height="75.266437pt" viewBox="0 0 1056.311837 75.266437" xmlns="http://www.w3.org/2000/svg" version="1.1">
 <metadata>
  <rdf:RDF xmlns:dc="http://purl.org/dc/elements/1.1/" xmlns:cc="http://creativecommons.org/ns#" xmlns:rdf="http://www.w3.org/1999/02/22-rdf-syntax-ns#">
   <cc:Work>
    <dc:type rdf:resource="http://purl.org/dc/dcmitype/StillImage"/>
    <dc:date>2023-02-13T13:56:28.146359</dc:date>
    <dc:format>image/svg+xml</dc:format>
    <dc:creator>
     <cc:Agent>
      <dc:title>Matplotlib v3.5.1, https://matplotlib.org/</dc:title>
     </cc:Agent>
    </dc:creator>
   </cc:Work>
  </rdf:RDF>
 </metadata>
 <defs>
  <style type="text/css">*{stroke-linejoin: round; stroke-linecap: butt}</style>
 </defs>
 <g id="figure_1">
  <g id="patch_1">
   <path d="M 0 75.266437 
L 1056.311837 75.266437 
L 1056.311837 0 
L 0 0 
z
" style="fill: #ffffff"/>
  </g>
  <g id="axes_1">
   <g id="patch_2">
    <path d="M 56.309375 34.38 
L 1036.599727 34.38 
L 1036.599727 7.2 
L 56.309375 7.2 
z
" style="fill: #ffffff"/>
   </g>
   <g id="matplotlib.axis_1">
    <g id="xtick_1">
     <g id="line2d_1"/>
     <g id="text_1">
      <text style="fill: #262626; font: 15px 'sans-serif'; text-anchor: middle" x="58.254396" y="54.216719" transform="rotate(-0, 58.254396, 54.216719)">1</text>
     </g>
    </g>
    <g id="xtick_2">
     <g id="line2d_2"/>
     <g id="text_2">
      <text style="fill: #262626; font: 15px 'sans-serif'; text-anchor: middle" x="431.698339" y="54.216719" transform="rotate(-0, 431.698339, 54.216719)">193</text>
     </g>
    </g>
    <g id="xtick_3">
     <g id="line2d_3"/>
     <g id="text_3">
      <text style="fill: #262626; font: 15px 'sans-serif'; text-anchor: middle" x="847.932735" y="54.216719" transform="rotate(-0, 847.932735, 54.216719)">407</text>
     </g>
    </g>
    <g id="xtick_4">
     <g id="line2d_4"/>
     <g id="text_4">
      <text style="fill: #262626; font: 15px 'sans-serif'; text-anchor: middle" x="1036.599727" y="54.216719" transform="rotate(-0, 1036.599727, 54.216719)">504</text>
     </g>
    </g>
   </g>
   <g id="matplotlib.axis_2">
    <g id="ytick_1">
     <g id="line2d_5"/>
     <g id="text_5">
      <text style="fill: #262626; font: 20px 'sans-serif'; text-anchor: end" x="47.209375" y="27.947812" transform="rotate(-0, 47.209375, 27.947812)">LCH</text>
     </g>
    </g>
   </g>
   <g id="PolyCollection_1">
    <path d="M 56.309375 34.38 
L 56.309375 7.2 
L 58.254396 7.2 
L 58.254396 34.38 
L 56.309375 34.38 
z
" clip-path="url(#p8b049ebfc4)" style="fill: #8e8eff"/>
    <path d="M 58.254396 34.38 
L 58.254396 7.2 
L 60.199416 7.2 
L 60.199416 34.38 
L 58.254396 34.38 
z
" clip-path="url(#p8b049ebfc4)" style="fill: #8484ff"/>
    <path d="M 60.199416 34.38 
L 60.199416 7.2 
L 62.144437 7.2 
L 62.144437 34.38 
L 60.199416 34.38 
z
" clip-path="url(#p8b049ebfc4)" style="fill: #9898ff"/>
    <path d="M 62.144437 34.38 
L 62.144437 7.2 
L 64.089457 7.2 
L 64.089457 34.38 
L 62.144437 34.38 
z
" clip-path="url(#p8b049ebfc4)" style="fill: #7272ff"/>
    <path d="M 64.089457 34.38 
L 64.089457 7.2 
L 66.034478 7.2 
L 66.034478 34.38 
L 64.089457 34.38 
z
" clip-path="url(#p8b049ebfc4)" style="fill: #7878ff"/>
    <path d="M 66.034478 34.38 
L 66.034478 7.2 
L 67.979498 7.2 
L 67.979498 34.38 
L 66.034478 34.38 
z
" clip-path="url(#p8b049ebfc4)" style="fill: #7a7aff"/>
    <path d="M 67.979498 34.38 
L 67.979498 7.2 
L 69.924519 7.2 
L 69.924519 34.38 
L 67.979498 34.38 
z
" clip-path="url(#p8b049ebfc4)" style="fill: #babaff"/>
    <path d="M 69.924519 34.38 
L 69.924519 7.2 
L 71.869539 7.2 
L 71.869539 34.38 
L 69.924519 34.38 
z
" clip-path="url(#p8b049ebfc4)" style="fill: #a8a8ff"/>
    <path d="M 71.869539 34.38 
L 71.869539 7.2 
L 73.81456 7.2 
L 73.81456 34.38 
L 71.869539 34.38 
z
" clip-path="url(#p8b049ebfc4)" style="fill: #6666ff"/>
    <path d="M 73.81456 34.38 
L 73.81456 7.2 
L 75.75958 7.2 
L 75.75958 34.38 
L 73.81456 34.38 
z
" clip-path="url(#p8b049ebfc4)" style="fill: #bebeff"/>
    <path d="M 75.75958 34.38 
L 75.75958 7.2 
L 77.704601 7.2 
L 77.704601 34.38 
L 75.75958 34.38 
z
" clip-path="url(#p8b049ebfc4)" style="fill: #e8e8ff"/>
    <path d="M 77.704601 34.38 
L 77.704601 7.2 
L 79.649621 7.2 
L 79.649621 34.38 
L 77.704601 34.38 
z
" clip-path="url(#p8b049ebfc4)" style="fill: #b8b8ff"/>
    <path d="M 79.649621 34.38 
L 79.649621 7.2 
L 81.594642 7.2 
L 81.594642 34.38 
L 79.649621 34.38 
z
" clip-path="url(#p8b049ebfc4)" style="fill: #dcdcff"/>
    <path d="M 81.594642 34.38 
L 81.594642 7.2 
L 83.539663 7.2 
L 83.539663 34.38 
L 81.594642 34.38 
z
" clip-path="url(#p8b049ebfc4)" style="fill: #bebeff"/>
    <path d="M 83.539663 34.38 
L 83.539663 7.2 
L 85.484683 7.2 
L 85.484683 34.38 
L 83.539663 34.38 
z
" clip-path="url(#p8b049ebfc4)" style="fill: #eaeaff"/>
    <path d="M 85.484683 34.38 
L 85.484683 7.2 
L 87.429704 7.2 
L 87.429704 34.38 
L 85.484683 34.38 
z
" clip-path="url(#p8b049ebfc4)" style="fill: #fff0f0"/>
    <path d="M 87.429704 34.38 
L 87.429704 7.2 
L 89.374724 7.2 
L 89.374724 34.38 
L 87.429704 34.38 
z
" clip-path="url(#p8b049ebfc4)" style="fill: #ececff"/>
    <path d="M 89.374724 34.38 
L 89.374724 7.2 
L 91.319745 7.2 
L 91.319745 34.38 
L 89.374724 34.38 
z
" clip-path="url(#p8b049ebfc4)" style="fill: #c6c6ff"/>
    <path d="M 91.319745 34.38 
L 91.319745 7.2 
L 93.264765 7.2 
L 93.264765 34.38 
L 91.319745 34.38 
z
" clip-path="url(#p8b049ebfc4)" style="fill: #d6d6ff"/>
    <path d="M 93.264765 34.38 
L 93.264765 7.2 
L 95.209786 7.2 
L 95.209786 34.38 
L 93.264765 34.38 
z
" clip-path="url(#p8b049ebfc4)" style="fill: #f4f4ff"/>
    <path d="M 95.209786 34.38 
L 95.209786 7.2 
L 97.154806 7.2 
L 97.154806 34.38 
L 95.209786 34.38 
z
" clip-path="url(#p8b049ebfc4)" style="fill: #9292ff"/>
    <path d="M 97.154806 34.38 
L 97.154806 7.2 
L 99.099827 7.2 
L 99.099827 34.38 
L 97.154806 34.38 
z
" clip-path="url(#p8b049ebfc4)" style="fill: #c2c2ff"/>
    <path d="M 99.099827 34.38 
L 99.099827 7.2 
L 101.044847 7.2 
L 101.044847 34.38 
L 99.099827 34.38 
z
" clip-path="url(#p8b049ebfc4)" style="fill: #d2d2ff"/>
    <path d="M 101.044847 34.38 
L 101.044847 7.2 
L 102.989868 7.2 
L 102.989868 34.38 
L 101.044847 34.38 
z
" clip-path="url(#p8b049ebfc4)" style="fill: #e4e4ff"/>
    <path d="M 102.989868 34.38 
L 102.989868 7.2 
L 104.934889 7.2 
L 104.934889 34.38 
L 102.989868 34.38 
z
" clip-path="url(#p8b049ebfc4)" style="fill: #e8e8ff"/>
    <path d="M 104.934889 34.38 
L 104.934889 7.2 
L 106.879909 7.2 
L 106.879909 34.38 
L 104.934889 34.38 
z
" clip-path="url(#p8b049ebfc4)" style="fill: #d6d6ff"/>
    <path d="M 106.879909 34.38 
L 106.879909 7.2 
L 108.82493 7.2 
L 108.82493 34.38 
L 106.879909 34.38 
z
" clip-path="url(#p8b049ebfc4)" style="fill: #c8c8ff"/>
    <path d="M 108.82493 34.38 
L 108.82493 7.2 
L 110.76995 7.2 
L 110.76995 34.38 
L 108.82493 34.38 
z
" clip-path="url(#p8b049ebfc4)" style="fill: #d2d2ff"/>
    <path d="M 110.76995 34.38 
L 110.76995 7.2 
L 112.714971 7.2 
L 112.714971 34.38 
L 110.76995 34.38 
z
" clip-path="url(#p8b049ebfc4)" style="fill: #ff3a3a"/>
    <path d="M 112.714971 34.38 
L 112.714971 7.2 
L 114.659991 7.2 
L 114.659991 34.38 
L 112.714971 34.38 
z
" clip-path="url(#p8b049ebfc4)" style="fill: #ff2c2c"/>
    <path d="M 114.659991 34.38 
L 114.659991 7.2 
L 116.605012 7.2 
L 116.605012 34.38 
L 114.659991 34.38 
z
" clip-path="url(#p8b049ebfc4)" style="fill: #ffeaea"/>
    <path d="M 116.605012 34.38 
L 116.605012 7.2 
L 118.550032 7.2 
L 118.550032 34.38 
L 116.605012 34.38 
z
" clip-path="url(#p8b049ebfc4)" style="fill: #ffd2d2"/>
    <path d="M 118.550032 34.38 
L 118.550032 7.2 
L 120.495053 7.2 
L 120.495053 34.38 
L 118.550032 34.38 
z
" clip-path="url(#p8b049ebfc4)" style="fill: #ffbcbc"/>
    <path d="M 120.495053 34.38 
L 120.495053 7.2 
L 122.440073 7.2 
L 122.440073 34.38 
L 120.495053 34.38 
z
" clip-path="url(#p8b049ebfc4)" style="fill: #ffbebe"/>
    <path d="M 122.440073 34.38 
L 122.440073 7.2 
L 124.385094 7.2 
L 124.385094 34.38 
L 122.440073 34.38 
z
" clip-path="url(#p8b049ebfc4)" style="fill: #d8d8ff"/>
    <path d="M 124.385094 34.38 
L 124.385094 7.2 
L 126.330114 7.2 
L 126.330114 34.38 
L 124.385094 34.38 
z
" clip-path="url(#p8b049ebfc4)" style="fill: #d8d8ff"/>
    <path d="M 126.330114 34.38 
L 126.330114 7.2 
L 128.275135 7.2 
L 128.275135 34.38 
L 126.330114 34.38 
z
" clip-path="url(#p8b049ebfc4)" style="fill: #ffcccc"/>
    <path d="M 128.275135 34.38 
L 128.275135 7.2 
L 130.220156 7.2 
L 130.220156 34.38 
L 128.275135 34.38 
z
" clip-path="url(#p8b049ebfc4)" style="fill: #ffaaaa"/>
    <path d="M 130.220156 34.38 
L 130.220156 7.2 
L 132.165176 7.2 
L 132.165176 34.38 
L 130.220156 34.38 
z
" clip-path="url(#p8b049ebfc4)" style="fill: #ffd4d4"/>
    <path d="M 132.165176 34.38 
L 132.165176 7.2 
L 134.110197 7.2 
L 134.110197 34.38 
L 132.165176 34.38 
z
" clip-path="url(#p8b049ebfc4)" style="fill: #ffbaba"/>
    <path d="M 134.110197 34.38 
L 134.110197 7.2 
L 136.055217 7.2 
L 136.055217 34.38 
L 134.110197 34.38 
z
" clip-path="url(#p8b049ebfc4)" style="fill: #ff7474"/>
    <path d="M 136.055217 34.38 
L 136.055217 7.2 
L 138.000238 7.2 
L 138.000238 34.38 
L 136.055217 34.38 
z
" clip-path="url(#p8b049ebfc4)" style="fill: #ffd0d0"/>
    <path d="M 138.000238 34.38 
L 138.000238 7.2 
L 139.945258 7.2 
L 139.945258 34.38 
L 138.000238 34.38 
z
" clip-path="url(#p8b049ebfc4)" style="fill: #ffc4c4"/>
    <path d="M 139.945258 34.38 
L 139.945258 7.2 
L 141.890279 7.2 
L 141.890279 34.38 
L 139.945258 34.38 
z
" clip-path="url(#p8b049ebfc4)" style="fill: #ffdcdc"/>
    <path d="M 141.890279 34.38 
L 141.890279 7.2 
L 143.835299 7.2 
L 143.835299 34.38 
L 141.890279 34.38 
z
" clip-path="url(#p8b049ebfc4)" style="fill: #ffcccc"/>
    <path d="M 143.835299 34.38 
L 143.835299 7.2 
L 145.78032 7.2 
L 145.78032 34.38 
L 143.835299 34.38 
z
" clip-path="url(#p8b049ebfc4)" style="fill: #ffc0c0"/>
    <path d="M 145.78032 34.38 
L 145.78032 7.2 
L 147.72534 7.2 
L 147.72534 34.38 
L 145.78032 34.38 
z
" clip-path="url(#p8b049ebfc4)" style="fill: #ff2e2e"/>
    <path d="M 147.72534 34.38 
L 147.72534 7.2 
L 149.670361 7.2 
L 149.670361 34.38 
L 147.72534 34.38 
z
" clip-path="url(#p8b049ebfc4)" style="fill: #ffeeee"/>
    <path d="M 149.670361 34.38 
L 149.670361 7.2 
L 151.615381 7.2 
L 151.615381 34.38 
L 149.670361 34.38 
z
" clip-path="url(#p8b049ebfc4)" style="fill: #ffa0a0"/>
    <path d="M 151.615381 34.38 
L 151.615381 7.2 
L 153.560402 7.2 
L 153.560402 34.38 
L 151.615381 34.38 
z
" clip-path="url(#p8b049ebfc4)" style="fill: #ffc6c6"/>
    <path d="M 153.560402 34.38 
L 153.560402 7.2 
L 155.505423 7.2 
L 155.505423 34.38 
L 153.560402 34.38 
z
" clip-path="url(#p8b049ebfc4)" style="fill: #ffd8d8"/>
    <path d="M 155.505423 34.38 
L 155.505423 7.2 
L 157.450443 7.2 
L 157.450443 34.38 
L 155.505423 34.38 
z
" clip-path="url(#p8b049ebfc4)" style="fill: #ffd2d2"/>
    <path d="M 157.450443 34.38 
L 157.450443 7.2 
L 159.395464 7.2 
L 159.395464 34.38 
L 157.450443 34.38 
z
" clip-path="url(#p8b049ebfc4)" style="fill: #ffbebe"/>
    <path d="M 159.395464 34.38 
L 159.395464 7.2 
L 161.340484 7.2 
L 161.340484 34.38 
L 159.395464 34.38 
z
" clip-path="url(#p8b049ebfc4)" style="fill: #ffd4d4"/>
    <path d="M 161.340484 34.38 
L 161.340484 7.2 
L 163.285505 7.2 
L 163.285505 34.38 
L 161.340484 34.38 
z
" clip-path="url(#p8b049ebfc4)" style="fill: #ffd8d8"/>
    <path d="M 163.285505 34.38 
L 163.285505 7.2 
L 165.230525 7.2 
L 165.230525 34.38 
L 163.285505 34.38 
z
" clip-path="url(#p8b049ebfc4)" style="fill: #ffd8d8"/>
    <path d="M 165.230525 34.38 
L 165.230525 7.2 
L 167.175546 7.2 
L 167.175546 34.38 
L 165.230525 34.38 
z
" clip-path="url(#p8b049ebfc4)" style="fill: #ffb6b6"/>
    <path d="M 167.175546 34.38 
L 167.175546 7.2 
L 169.120566 7.2 
L 169.120566 34.38 
L 167.175546 34.38 
z
" clip-path="url(#p8b049ebfc4)" style="fill: #ffc0c0"/>
    <path d="M 169.120566 34.38 
L 169.120566 7.2 
L 171.065587 7.2 
L 171.065587 34.38 
L 169.120566 34.38 
z
" clip-path="url(#p8b049ebfc4)" style="fill: #ffd6d6"/>
    <path d="M 171.065587 34.38 
L 171.065587 7.2 
L 173.010607 7.2 
L 173.010607 34.38 
L 171.065587 34.38 
z
" clip-path="url(#p8b049ebfc4)" style="fill: #ffbaba"/>
    <path d="M 173.010607 34.38 
L 173.010607 7.2 
L 174.955628 7.2 
L 174.955628 34.38 
L 173.010607 34.38 
z
" clip-path="url(#p8b049ebfc4)" style="fill: #ffc8c8"/>
    <path d="M 174.955628 34.38 
L 174.955628 7.2 
L 176.900649 7.2 
L 176.900649 34.38 
L 174.955628 34.38 
z
" clip-path="url(#p8b049ebfc4)" style="fill: #ff8c8c"/>
    <path d="M 176.900649 34.38 
L 176.900649 7.2 
L 178.845669 7.2 
L 178.845669 34.38 
L 176.900649 34.38 
z
" clip-path="url(#p8b049ebfc4)" style="fill: #ffe6e6"/>
    <path d="M 178.845669 34.38 
L 178.845669 7.2 
L 180.79069 7.2 
L 180.79069 34.38 
L 178.845669 34.38 
z
" clip-path="url(#p8b049ebfc4)" style="fill: #ffc0c0"/>
    <path d="M 180.79069 34.38 
L 180.79069 7.2 
L 182.73571 7.2 
L 182.73571 34.38 
L 180.79069 34.38 
z
" clip-path="url(#p8b049ebfc4)" style="fill: #ffcccc"/>
    <path d="M 182.73571 34.38 
L 182.73571 7.2 
L 184.680731 7.2 
L 184.680731 34.38 
L 182.73571 34.38 
z
" clip-path="url(#p8b049ebfc4)" style="fill: #ffd4d4"/>
    <path d="M 184.680731 34.38 
L 184.680731 7.2 
L 186.625751 7.2 
L 186.625751 34.38 
L 184.680731 34.38 
z
" clip-path="url(#p8b049ebfc4)" style="fill: #ffbaba"/>
    <path d="M 186.625751 34.38 
L 186.625751 7.2 
L 188.570772 7.2 
L 188.570772 34.38 
L 186.625751 34.38 
z
" clip-path="url(#p8b049ebfc4)" style="fill: #e2e2ff"/>
    <path d="M 188.570772 34.38 
L 188.570772 7.2 
L 190.515792 7.2 
L 190.515792 34.38 
L 188.570772 34.38 
z
" clip-path="url(#p8b049ebfc4)" style="fill: #d2d2ff"/>
    <path d="M 190.515792 34.38 
L 190.515792 7.2 
L 192.460813 7.2 
L 192.460813 34.38 
L 190.515792 34.38 
z
" clip-path="url(#p8b049ebfc4)" style="fill: #ffd0d0"/>
    <path d="M 192.460813 34.38 
L 192.460813 7.2 
L 194.405833 7.2 
L 194.405833 34.38 
L 192.460813 34.38 
z
" clip-path="url(#p8b049ebfc4)" style="fill: #e8e8ff"/>
    <path d="M 194.405833 34.38 
L 194.405833 7.2 
L 196.350854 7.2 
L 196.350854 34.38 
L 194.405833 34.38 
z
" clip-path="url(#p8b049ebfc4)" style="fill: #ffecec"/>
    <path d="M 196.350854 34.38 
L 196.350854 7.2 
L 198.295874 7.2 
L 198.295874 34.38 
L 196.350854 34.38 
z
" clip-path="url(#p8b049ebfc4)" style="fill: #dcdcff"/>
    <path d="M 198.295874 34.38 
L 198.295874 7.2 
L 200.240895 7.2 
L 200.240895 34.38 
L 198.295874 34.38 
z
" clip-path="url(#p8b049ebfc4)" style="fill: #ffc8c8"/>
    <path d="M 200.240895 34.38 
L 200.240895 7.2 
L 202.185916 7.2 
L 202.185916 34.38 
L 200.240895 34.38 
z
" clip-path="url(#p8b049ebfc4)" style="fill: #ffaaaa"/>
    <path d="M 202.185916 34.38 
L 202.185916 7.2 
L 204.130936 7.2 
L 204.130936 34.38 
L 202.185916 34.38 
z
" clip-path="url(#p8b049ebfc4)" style="fill: #ffd0d0"/>
    <path d="M 204.130936 34.38 
L 204.130936 7.2 
L 206.075957 7.2 
L 206.075957 34.38 
L 204.130936 34.38 
z
" clip-path="url(#p8b049ebfc4)" style="fill: #ffdada"/>
    <path d="M 206.075957 34.38 
L 206.075957 7.2 
L 208.020977 7.2 
L 208.020977 34.38 
L 206.075957 34.38 
z
" clip-path="url(#p8b049ebfc4)" style="fill: #ccccff"/>
    <path d="M 208.020977 34.38 
L 208.020977 7.2 
L 209.965998 7.2 
L 209.965998 34.38 
L 208.020977 34.38 
z
" clip-path="url(#p8b049ebfc4)" style="fill: #cacaff"/>
    <path d="M 209.965998 34.38 
L 209.965998 7.2 
L 211.911018 7.2 
L 211.911018 34.38 
L 209.965998 34.38 
z
" clip-path="url(#p8b049ebfc4)" style="fill: #cacaff"/>
    <path d="M 211.911018 34.38 
L 211.911018 7.2 
L 213.856039 7.2 
L 213.856039 34.38 
L 211.911018 34.38 
z
" clip-path="url(#p8b049ebfc4)" style="fill: #8c8cff"/>
    <path d="M 213.856039 34.38 
L 213.856039 7.2 
L 215.801059 7.2 
L 215.801059 34.38 
L 213.856039 34.38 
z
" clip-path="url(#p8b049ebfc4)" style="fill: #7474ff"/>
    <path d="M 215.801059 34.38 
L 215.801059 7.2 
L 217.74608 7.2 
L 217.74608 34.38 
L 215.801059 34.38 
z
" clip-path="url(#p8b049ebfc4)" style="fill: #7878ff"/>
    <path d="M 217.74608 34.38 
L 217.74608 7.2 
L 219.6911 7.2 
L 219.6911 34.38 
L 217.74608 34.38 
z
" clip-path="url(#p8b049ebfc4)" style="fill: #dcdcff"/>
    <path d="M 219.6911 34.38 
L 219.6911 7.2 
L 221.636121 7.2 
L 221.636121 34.38 
L 219.6911 34.38 
z
" clip-path="url(#p8b049ebfc4)" style="fill: #d6d6ff"/>
    <path d="M 221.636121 34.38 
L 221.636121 7.2 
L 223.581141 7.2 
L 223.581141 34.38 
L 221.636121 34.38 
z
" clip-path="url(#p8b049ebfc4)" style="fill: #d6d6ff"/>
    <path d="M 223.581141 34.38 
L 223.581141 7.2 
L 225.526162 7.2 
L 225.526162 34.38 
L 223.581141 34.38 
z
" clip-path="url(#p8b049ebfc4)" style="fill: #ff9c9c"/>
    <path d="M 225.526162 34.38 
L 225.526162 7.2 
L 227.471183 7.2 
L 227.471183 34.38 
L 225.526162 34.38 
z
" clip-path="url(#p8b049ebfc4)" style="fill: #ffaeae"/>
    <path d="M 227.471183 34.38 
L 227.471183 7.2 
L 229.416203 7.2 
L 229.416203 34.38 
L 227.471183 34.38 
z
" clip-path="url(#p8b049ebfc4)" style="fill: #ff9c9c"/>
    <path d="M 229.416203 34.38 
L 229.416203 7.2 
L 231.361224 7.2 
L 231.361224 34.38 
L 229.416203 34.38 
z
" clip-path="url(#p8b049ebfc4)" style="fill: #ff9e9e"/>
    <path d="M 231.361224 34.38 
L 231.361224 7.2 
L 233.306244 7.2 
L 233.306244 34.38 
L 231.361224 34.38 
z
" clip-path="url(#p8b049ebfc4)" style="fill: #ff9e9e"/>
    <path d="M 233.306244 34.38 
L 233.306244 7.2 
L 235.251265 7.2 
L 235.251265 34.38 
L 233.306244 34.38 
z
" clip-path="url(#p8b049ebfc4)" style="fill: #ff9a9a"/>
    <path d="M 235.251265 34.38 
L 235.251265 7.2 
L 237.196285 7.2 
L 237.196285 34.38 
L 235.251265 34.38 
z
" clip-path="url(#p8b049ebfc4)" style="fill: #ff7878"/>
    <path d="M 237.196285 34.38 
L 237.196285 7.2 
L 239.141306 7.2 
L 239.141306 34.38 
L 237.196285 34.38 
z
" clip-path="url(#p8b049ebfc4)" style="fill: #ff7c7c"/>
    <path d="M 239.141306 34.38 
L 239.141306 7.2 
L 241.086326 7.2 
L 241.086326 34.38 
L 239.141306 34.38 
z
" clip-path="url(#p8b049ebfc4)" style="fill: #ff1212"/>
    <path d="M 241.086326 34.38 
L 241.086326 7.2 
L 243.031347 7.2 
L 243.031347 34.38 
L 241.086326 34.38 
z
" clip-path="url(#p8b049ebfc4)" style="fill: #ff0000"/>
    <path d="M 243.031347 34.38 
L 243.031347 7.2 
L 244.976367 7.2 
L 244.976367 34.38 
L 243.031347 34.38 
z
" clip-path="url(#p8b049ebfc4)" style="fill: #ff0000"/>
    <path d="M 244.976367 34.38 
L 244.976367 7.2 
L 246.921388 7.2 
L 246.921388 34.38 
L 244.976367 34.38 
z
" clip-path="url(#p8b049ebfc4)" style="fill: #ffdcdc"/>
    <path d="M 246.921388 34.38 
L 246.921388 7.2 
L 248.866408 7.2 
L 248.866408 34.38 
L 246.921388 34.38 
z
" clip-path="url(#p8b049ebfc4)" style="fill: #ffe0e0"/>
    <path d="M 248.866408 34.38 
L 248.866408 7.2 
L 250.811429 7.2 
L 250.811429 34.38 
L 248.866408 34.38 
z
" clip-path="url(#p8b049ebfc4)" style="fill: #ffe0e0"/>
    <path d="M 250.811429 34.38 
L 250.811429 7.2 
L 252.75645 7.2 
L 252.75645 34.38 
L 250.811429 34.38 
z
" clip-path="url(#p8b049ebfc4)" style="fill: #a4a4ff"/>
    <path d="M 252.75645 34.38 
L 252.75645 7.2 
L 254.70147 7.2 
L 254.70147 34.38 
L 252.75645 34.38 
z
" clip-path="url(#p8b049ebfc4)" style="fill: #dedeff"/>
    <path d="M 254.70147 34.38 
L 254.70147 7.2 
L 256.646491 7.2 
L 256.646491 34.38 
L 254.70147 34.38 
z
" clip-path="url(#p8b049ebfc4)" style="fill: #c4c4ff"/>
    <path d="M 256.646491 34.38 
L 256.646491 7.2 
L 258.591511 7.2 
L 258.591511 34.38 
L 256.646491 34.38 
z
" clip-path="url(#p8b049ebfc4)" style="fill: #8282ff"/>
    <path d="M 258.591511 34.38 
L 258.591511 7.2 
L 260.536532 7.2 
L 260.536532 34.38 
L 258.591511 34.38 
z
" clip-path="url(#p8b049ebfc4)" style="fill: #b4b4ff"/>
    <path d="M 260.536532 34.38 
L 260.536532 7.2 
L 262.481552 7.2 
L 262.481552 34.38 
L 260.536532 34.38 
z
" clip-path="url(#p8b049ebfc4)" style="fill: #a2a2ff"/>
    <path d="M 262.481552 34.38 
L 262.481552 7.2 
L 264.426573 7.2 
L 264.426573 34.38 
L 262.481552 34.38 
z
" clip-path="url(#p8b049ebfc4)" style="fill: #9090ff"/>
    <path d="M 264.426573 34.38 
L 264.426573 7.2 
L 266.371593 7.2 
L 266.371593 34.38 
L 264.426573 34.38 
z
" clip-path="url(#p8b049ebfc4)" style="fill: #6464ff"/>
    <path d="M 266.371593 34.38 
L 266.371593 7.2 
L 268.316614 7.2 
L 268.316614 34.38 
L 266.371593 34.38 
z
" clip-path="url(#p8b049ebfc4)" style="fill: #7272ff"/>
    <path d="M 268.316614 34.38 
L 268.316614 7.2 
L 270.261634 7.2 
L 270.261634 34.38 
L 268.316614 34.38 
z
" clip-path="url(#p8b049ebfc4)" style="fill: #c8c8ff"/>
    <path d="M 270.261634 34.38 
L 270.261634 7.2 
L 272.206655 7.2 
L 272.206655 34.38 
L 270.261634 34.38 
z
" clip-path="url(#p8b049ebfc4)" style="fill: #d8d8ff"/>
    <path d="M 272.206655 34.38 
L 272.206655 7.2 
L 274.151676 7.2 
L 274.151676 34.38 
L 272.206655 34.38 
z
" clip-path="url(#p8b049ebfc4)" style="fill: #ffa4a4"/>
    <path d="M 274.151676 34.38 
L 274.151676 7.2 
L 276.096696 7.2 
L 276.096696 34.38 
L 274.151676 34.38 
z
" clip-path="url(#p8b049ebfc4)" style="fill: #ffb4b4"/>
    <path d="M 276.096696 34.38 
L 276.096696 7.2 
L 278.041717 7.2 
L 278.041717 34.38 
L 276.096696 34.38 
z
" clip-path="url(#p8b049ebfc4)" style="fill: #ff9898"/>
    <path d="M 278.041717 34.38 
L 278.041717 7.2 
L 279.986737 7.2 
L 279.986737 34.38 
L 278.041717 34.38 
z
" clip-path="url(#p8b049ebfc4)" style="fill: #ffa2a2"/>
    <path d="M 279.986737 34.38 
L 279.986737 7.2 
L 281.931758 7.2 
L 281.931758 34.38 
L 279.986737 34.38 
z
" clip-path="url(#p8b049ebfc4)" style="fill: #ff5a5a"/>
    <path d="M 281.931758 34.38 
L 281.931758 7.2 
L 283.876778 7.2 
L 283.876778 34.38 
L 281.931758 34.38 
z
" clip-path="url(#p8b049ebfc4)" style="fill: #ff0000"/>
    <path d="M 283.876778 34.38 
L 283.876778 7.2 
L 285.821799 7.2 
L 285.821799 34.38 
L 283.876778 34.38 
z
" clip-path="url(#p8b049ebfc4)" style="fill: #ff0c0c"/>
    <path d="M 285.821799 34.38 
L 285.821799 7.2 
L 287.766819 7.2 
L 287.766819 34.38 
L 285.821799 34.38 
z
" clip-path="url(#p8b049ebfc4)" style="fill: #ffd8d8"/>
    <path d="M 287.766819 34.38 
L 287.766819 7.2 
L 289.71184 7.2 
L 289.71184 34.38 
L 287.766819 34.38 
z
" clip-path="url(#p8b049ebfc4)" style="fill: #ffd4d4"/>
    <path d="M 289.71184 34.38 
L 289.71184 7.2 
L 291.65686 7.2 
L 291.65686 34.38 
L 289.71184 34.38 
z
" clip-path="url(#p8b049ebfc4)" style="fill: #ffd6d6"/>
    <path d="M 291.65686 34.38 
L 291.65686 7.2 
L 293.601881 7.2 
L 293.601881 34.38 
L 291.65686 34.38 
z
" clip-path="url(#p8b049ebfc4)" style="fill: #c8c8ff"/>
    <path d="M 293.601881 34.38 
L 293.601881 7.2 
L 295.546901 7.2 
L 295.546901 34.38 
L 293.601881 34.38 
z
" clip-path="url(#p8b049ebfc4)" style="fill: #bcbcff"/>
    <path d="M 295.546901 34.38 
L 295.546901 7.2 
L 297.491922 7.2 
L 297.491922 34.38 
L 295.546901 34.38 
z
" clip-path="url(#p8b049ebfc4)" style="fill: #c0c0ff"/>
    <path d="M 297.491922 34.38 
L 297.491922 7.2 
L 299.436943 7.2 
L 299.436943 34.38 
L 297.491922 34.38 
z
" clip-path="url(#p8b049ebfc4)" style="fill: #8080ff"/>
    <path d="M 299.436943 34.38 
L 299.436943 7.2 
L 301.381963 7.2 
L 301.381963 34.38 
L 299.436943 34.38 
z
" clip-path="url(#p8b049ebfc4)" style="fill: #3232ff"/>
    <path d="M 301.381963 34.38 
L 301.381963 7.2 
L 303.326984 7.2 
L 303.326984 34.38 
L 301.381963 34.38 
z
" clip-path="url(#p8b049ebfc4)" style="fill: #5050ff"/>
    <path d="M 303.326984 34.38 
L 303.326984 7.2 
L 305.272004 7.2 
L 305.272004 34.38 
L 303.326984 34.38 
z
" clip-path="url(#p8b049ebfc4)" style="fill: #dedeff"/>
    <path d="M 305.272004 34.38 
L 305.272004 7.2 
L 307.217025 7.2 
L 307.217025 34.38 
L 305.272004 34.38 
z
" clip-path="url(#p8b049ebfc4)" style="fill: #ffc2c2"/>
    <path d="M 307.217025 34.38 
L 307.217025 7.2 
L 309.162045 7.2 
L 309.162045 34.38 
L 307.217025 34.38 
z
" clip-path="url(#p8b049ebfc4)" style="fill: #ffb8b8"/>
    <path d="M 309.162045 34.38 
L 309.162045 7.2 
L 311.107066 7.2 
L 311.107066 34.38 
L 309.162045 34.38 
z
" clip-path="url(#p8b049ebfc4)" style="fill: #ffbebe"/>
    <path d="M 311.107066 34.38 
L 311.107066 7.2 
L 313.052086 7.2 
L 313.052086 34.38 
L 311.107066 34.38 
z
" clip-path="url(#p8b049ebfc4)" style="fill: #ff7e7e"/>
    <path d="M 313.052086 34.38 
L 313.052086 7.2 
L 314.997107 7.2 
L 314.997107 34.38 
L 313.052086 34.38 
z
" clip-path="url(#p8b049ebfc4)" style="fill: #ff5252"/>
    <path d="M 314.997107 34.38 
L 314.997107 7.2 
L 316.942127 7.2 
L 316.942127 34.38 
L 314.997107 34.38 
z
" clip-path="url(#p8b049ebfc4)" style="fill: #ff5e5e"/>
    <path d="M 316.942127 34.38 
L 316.942127 7.2 
L 318.887148 7.2 
L 318.887148 34.38 
L 316.942127 34.38 
z
" clip-path="url(#p8b049ebfc4)" style="fill: #ffdede"/>
    <path d="M 318.887148 34.38 
L 318.887148 7.2 
L 320.832168 7.2 
L 320.832168 34.38 
L 318.887148 34.38 
z
" clip-path="url(#p8b049ebfc4)" style="fill: #ffd4d4"/>
    <path d="M 320.832168 34.38 
L 320.832168 7.2 
L 322.777189 7.2 
L 322.777189 34.38 
L 320.832168 34.38 
z
" clip-path="url(#p8b049ebfc4)" style="fill: #ffd8d8"/>
    <path d="M 322.777189 34.38 
L 322.777189 7.2 
L 324.72221 7.2 
L 324.72221 34.38 
L 322.777189 34.38 
z
" clip-path="url(#p8b049ebfc4)" style="fill: #b4b4ff"/>
    <path d="M 324.72221 34.38 
L 324.72221 7.2 
L 326.66723 7.2 
L 326.66723 34.38 
L 324.72221 34.38 
z
" clip-path="url(#p8b049ebfc4)" style="fill: #bcbcff"/>
    <path d="M 326.66723 34.38 
L 326.66723 7.2 
L 328.612251 7.2 
L 328.612251 34.38 
L 326.66723 34.38 
z
" clip-path="url(#p8b049ebfc4)" style="fill: #a4a4ff"/>
    <path d="M 328.612251 34.38 
L 328.612251 7.2 
L 330.557271 7.2 
L 330.557271 34.38 
L 328.612251 34.38 
z
" clip-path="url(#p8b049ebfc4)" style="fill: #8e8eff"/>
    <path d="M 330.557271 34.38 
L 330.557271 7.2 
L 332.502292 7.2 
L 332.502292 34.38 
L 330.557271 34.38 
z
" clip-path="url(#p8b049ebfc4)" style="fill: #8e8eff"/>
    <path d="M 332.502292 34.38 
L 332.502292 7.2 
L 334.447312 7.2 
L 334.447312 34.38 
L 332.502292 34.38 
z
" clip-path="url(#p8b049ebfc4)" style="fill: #bebeff"/>
    <path d="M 334.447312 34.38 
L 334.447312 7.2 
L 336.392333 7.2 
L 336.392333 34.38 
L 334.447312 34.38 
z
" clip-path="url(#p8b049ebfc4)" style="fill: #a6a6ff"/>
    <path d="M 336.392333 34.38 
L 336.392333 7.2 
L 338.337353 7.2 
L 338.337353 34.38 
L 336.392333 34.38 
z
" clip-path="url(#p8b049ebfc4)" style="fill: #aeaeff"/>
    <path d="M 338.337353 34.38 
L 338.337353 7.2 
L 340.282374 7.2 
L 340.282374 34.38 
L 338.337353 34.38 
z
" clip-path="url(#p8b049ebfc4)" style="fill: #6a6aff"/>
    <path d="M 340.282374 34.38 
L 340.282374 7.2 
L 342.227394 7.2 
L 342.227394 34.38 
L 340.282374 34.38 
z
" clip-path="url(#p8b049ebfc4)" style="fill: #0404ff"/>
    <path d="M 342.227394 34.38 
L 342.227394 7.2 
L 344.172415 7.2 
L 344.172415 34.38 
L 342.227394 34.38 
z
" clip-path="url(#p8b049ebfc4)" style="fill: #3e3eff"/>
    <path d="M 344.172415 34.38 
L 344.172415 7.2 
L 346.117436 7.2 
L 346.117436 34.38 
L 344.172415 34.38 
z
" clip-path="url(#p8b049ebfc4)" style="fill: #c2c2ff"/>
    <path d="M 346.117436 34.38 
L 346.117436 7.2 
L 348.062456 7.2 
L 348.062456 34.38 
L 346.117436 34.38 
z
" clip-path="url(#p8b049ebfc4)" style="fill: #c2c2ff"/>
    <path d="M 348.062456 34.38 
L 348.062456 7.2 
L 350.007477 7.2 
L 350.007477 34.38 
L 348.062456 34.38 
z
" clip-path="url(#p8b049ebfc4)" style="fill: #c4c4ff"/>
    <path d="M 350.007477 34.38 
L 350.007477 7.2 
L 351.952497 7.2 
L 351.952497 34.38 
L 350.007477 34.38 
z
" clip-path="url(#p8b049ebfc4)" style="fill: #ff9c9c"/>
    <path d="M 351.952497 34.38 
L 351.952497 7.2 
L 353.897518 7.2 
L 353.897518 34.38 
L 351.952497 34.38 
z
" clip-path="url(#p8b049ebfc4)" style="fill: #ffa2a2"/>
    <path d="M 353.897518 34.38 
L 353.897518 7.2 
L 355.842538 7.2 
L 355.842538 34.38 
L 353.897518 34.38 
z
" clip-path="url(#p8b049ebfc4)" style="fill: #ffa0a0"/>
    <path d="M 355.842538 34.38 
L 355.842538 7.2 
L 357.787559 7.2 
L 357.787559 34.38 
L 355.842538 34.38 
z
" clip-path="url(#p8b049ebfc4)" style="fill: #ffc6c6"/>
    <path d="M 357.787559 34.38 
L 357.787559 7.2 
L 359.732579 7.2 
L 359.732579 34.38 
L 357.787559 34.38 
z
" clip-path="url(#p8b049ebfc4)" style="fill: #ffc4c4"/>
    <path d="M 359.732579 34.38 
L 359.732579 7.2 
L 361.6776 7.2 
L 361.6776 34.38 
L 359.732579 34.38 
z
" clip-path="url(#p8b049ebfc4)" style="fill: #ffc4c4"/>
    <path d="M 361.6776 34.38 
L 361.6776 7.2 
L 363.62262 7.2 
L 363.62262 34.38 
L 361.6776 34.38 
z
" clip-path="url(#p8b049ebfc4)" style="fill: #ffd4d4"/>
    <path d="M 363.62262 34.38 
L 363.62262 7.2 
L 365.567641 7.2 
L 365.567641 34.38 
L 363.62262 34.38 
z
" clip-path="url(#p8b049ebfc4)" style="fill: #ffd4d4"/>
    <path d="M 365.567641 34.38 
L 365.567641 7.2 
L 367.512661 7.2 
L 367.512661 34.38 
L 365.567641 34.38 
z
" clip-path="url(#p8b049ebfc4)" style="fill: #ffd6d6"/>
    <path d="M 367.512661 34.38 
L 367.512661 7.2 
L 369.457682 7.2 
L 369.457682 34.38 
L 367.512661 34.38 
z
" clip-path="url(#p8b049ebfc4)" style="fill: #ffcece"/>
    <path d="M 369.457682 34.38 
L 369.457682 7.2 
L 371.402703 7.2 
L 371.402703 34.38 
L 369.457682 34.38 
z
" clip-path="url(#p8b049ebfc4)" style="fill: #ffcaca"/>
    <path d="M 371.402703 34.38 
L 371.402703 7.2 
L 373.347723 7.2 
L 373.347723 34.38 
L 371.402703 34.38 
z
" clip-path="url(#p8b049ebfc4)" style="fill: #ffcccc"/>
    <path d="M 373.347723 34.38 
L 373.347723 7.2 
L 375.292744 7.2 
L 375.292744 34.38 
L 373.347723 34.38 
z
" clip-path="url(#p8b049ebfc4)" style="fill: #ffa4a4"/>
    <path d="M 375.292744 34.38 
L 375.292744 7.2 
L 377.237764 7.2 
L 377.237764 34.38 
L 375.292744 34.38 
z
" clip-path="url(#p8b049ebfc4)" style="fill: #ff9090"/>
    <path d="M 377.237764 34.38 
L 377.237764 7.2 
L 379.182785 7.2 
L 379.182785 34.38 
L 377.237764 34.38 
z
" clip-path="url(#p8b049ebfc4)" style="fill: #ff9898"/>
    <path d="M 379.182785 34.38 
L 379.182785 7.2 
L 381.127805 7.2 
L 381.127805 34.38 
L 379.182785 34.38 
z
" clip-path="url(#p8b049ebfc4)" style="fill: #ffe4e4"/>
    <path d="M 381.127805 34.38 
L 381.127805 7.2 
L 383.072826 7.2 
L 383.072826 34.38 
L 381.127805 34.38 
z
" clip-path="url(#p8b049ebfc4)" style="fill: #ffdede"/>
    <path d="M 383.072826 34.38 
L 383.072826 7.2 
L 385.017846 7.2 
L 385.017846 34.38 
L 383.072826 34.38 
z
" clip-path="url(#p8b049ebfc4)" style="fill: #ffdede"/>
    <path d="M 385.017846 34.38 
L 385.017846 7.2 
L 386.962867 7.2 
L 386.962867 34.38 
L 385.017846 34.38 
z
" clip-path="url(#p8b049ebfc4)" style="fill: #ffc4c4"/>
    <path d="M 386.962867 34.38 
L 386.962867 7.2 
L 388.907887 7.2 
L 388.907887 34.38 
L 386.962867 34.38 
z
" clip-path="url(#p8b049ebfc4)" style="fill: #ffbcbc"/>
    <path d="M 388.907887 34.38 
L 388.907887 7.2 
L 390.852908 7.2 
L 390.852908 34.38 
L 388.907887 34.38 
z
" clip-path="url(#p8b049ebfc4)" style="fill: #ffbcbc"/>
    <path d="M 390.852908 34.38 
L 390.852908 7.2 
L 392.797928 7.2 
L 392.797928 34.38 
L 390.852908 34.38 
z
" clip-path="url(#p8b049ebfc4)" style="fill: #ffcece"/>
    <path d="M 392.797928 34.38 
L 392.797928 7.2 
L 394.742949 7.2 
L 394.742949 34.38 
L 392.797928 34.38 
z
" clip-path="url(#p8b049ebfc4)" style="fill: #ffc8c8"/>
    <path d="M 394.742949 34.38 
L 394.742949 7.2 
L 396.68797 7.2 
L 396.68797 34.38 
L 394.742949 34.38 
z
" clip-path="url(#p8b049ebfc4)" style="fill: #ffc6c6"/>
    <path d="M 396.68797 34.38 
L 396.68797 7.2 
L 398.63299 7.2 
L 398.63299 34.38 
L 396.68797 34.38 
z
" clip-path="url(#p8b049ebfc4)" style="fill: #ff9c9c"/>
    <path d="M 398.63299 34.38 
L 398.63299 7.2 
L 400.578011 7.2 
L 400.578011 34.38 
L 398.63299 34.38 
z
" clip-path="url(#p8b049ebfc4)" style="fill: #ff8e8e"/>
    <path d="M 400.578011 34.38 
L 400.578011 7.2 
L 402.523031 7.2 
L 402.523031 34.38 
L 400.578011 34.38 
z
" clip-path="url(#p8b049ebfc4)" style="fill: #ff9494"/>
    <path d="M 402.523031 34.38 
L 402.523031 7.2 
L 404.468052 7.2 
L 404.468052 34.38 
L 402.523031 34.38 
z
" clip-path="url(#p8b049ebfc4)" style="fill: #ffeeee"/>
    <path d="M 404.468052 34.38 
L 404.468052 7.2 
L 406.413072 7.2 
L 406.413072 34.38 
L 404.468052 34.38 
z
" clip-path="url(#p8b049ebfc4)" style="fill: #ffecec"/>
    <path d="M 406.413072 34.38 
L 406.413072 7.2 
L 408.358093 7.2 
L 408.358093 34.38 
L 406.413072 34.38 
z
" clip-path="url(#p8b049ebfc4)" style="fill: #ffb8b8"/>
    <path d="M 408.358093 34.38 
L 408.358093 7.2 
L 410.303113 7.2 
L 410.303113 34.38 
L 408.358093 34.38 
z
" clip-path="url(#p8b049ebfc4)" style="fill: #ffbcbc"/>
    <path d="M 410.303113 34.38 
L 410.303113 7.2 
L 412.248134 7.2 
L 412.248134 34.38 
L 410.303113 34.38 
z
" clip-path="url(#p8b049ebfc4)" style="fill: #ffbcbc"/>
    <path d="M 412.248134 34.38 
L 412.248134 7.2 
L 414.193154 7.2 
L 414.193154 34.38 
L 412.248134 34.38 
z
" clip-path="url(#p8b049ebfc4)" style="fill: #ffc2c2"/>
    <path d="M 414.193154 34.38 
L 414.193154 7.2 
L 416.138175 7.2 
L 416.138175 34.38 
L 414.193154 34.38 
z
" clip-path="url(#p8b049ebfc4)" style="fill: #ffc0c0"/>
    <path d="M 416.138175 34.38 
L 416.138175 7.2 
L 418.083196 7.2 
L 418.083196 34.38 
L 416.138175 34.38 
z
" clip-path="url(#p8b049ebfc4)" style="fill: #ffc0c0"/>
    <path d="M 418.083196 34.38 
L 418.083196 7.2 
L 420.028216 7.2 
L 420.028216 34.38 
L 418.083196 34.38 
z
" clip-path="url(#p8b049ebfc4)" style="fill: #ff8282"/>
    <path d="M 420.028216 34.38 
L 420.028216 7.2 
L 421.973237 7.2 
L 421.973237 34.38 
L 420.028216 34.38 
z
" clip-path="url(#p8b049ebfc4)" style="fill: #ff7a7a"/>
    <path d="M 421.973237 34.38 
L 421.973237 7.2 
L 423.918257 7.2 
L 423.918257 34.38 
L 421.973237 34.38 
z
" clip-path="url(#p8b049ebfc4)" style="fill: #ff7878"/>
    <path d="M 423.918257 34.38 
L 423.918257 7.2 
L 425.863278 7.2 
L 425.863278 34.38 
L 423.918257 34.38 
z
" clip-path="url(#p8b049ebfc4)" style="fill: #ffe6e6"/>
    <path d="M 425.863278 34.38 
L 425.863278 7.2 
L 427.808298 7.2 
L 427.808298 34.38 
L 425.863278 34.38 
z
" clip-path="url(#p8b049ebfc4)" style="fill: #ffeaea"/>
    <path d="M 427.808298 34.38 
L 427.808298 7.2 
L 429.753319 7.2 
L 429.753319 34.38 
L 427.808298 34.38 
z
" clip-path="url(#p8b049ebfc4)" style="fill: #ffecec"/>
    <path d="M 429.753319 34.38 
L 429.753319 7.2 
L 431.698339 7.2 
L 431.698339 34.38 
L 429.753319 34.38 
z
" clip-path="url(#p8b049ebfc4)" style="fill: #9494ff"/>
    <path d="M 431.698339 34.38 
L 431.698339 7.2 
L 433.64336 7.2 
L 433.64336 34.38 
L 431.698339 34.38 
z
" clip-path="url(#p8b049ebfc4)" style="fill: #7272ff"/>
    <path d="M 433.64336 34.38 
L 433.64336 7.2 
L 435.58838 7.2 
L 435.58838 34.38 
L 433.64336 34.38 
z
" clip-path="url(#p8b049ebfc4)" style="fill: #7878ff"/>
    <path d="M 435.58838 34.38 
L 435.58838 7.2 
L 437.533401 7.2 
L 437.533401 34.38 
L 435.58838 34.38 
z
" clip-path="url(#p8b049ebfc4)" style="fill: #6a6aff"/>
    <path d="M 437.533401 34.38 
L 437.533401 7.2 
L 439.478421 7.2 
L 439.478421 34.38 
L 437.533401 34.38 
z
" clip-path="url(#p8b049ebfc4)" style="fill: #cacaff"/>
    <path d="M 439.478421 34.38 
L 439.478421 7.2 
L 441.423442 7.2 
L 441.423442 34.38 
L 439.478421 34.38 
z
" clip-path="url(#p8b049ebfc4)" style="fill: #c8c8ff"/>
    <path d="M 441.423442 34.38 
L 441.423442 7.2 
L 443.368463 7.2 
L 443.368463 34.38 
L 441.423442 34.38 
z
" clip-path="url(#p8b049ebfc4)" style="fill: #9292ff"/>
    <path d="M 443.368463 34.38 
L 443.368463 7.2 
L 445.313483 7.2 
L 445.313483 34.38 
L 443.368463 34.38 
z
" clip-path="url(#p8b049ebfc4)" style="fill: #aeaeff"/>
    <path d="M 445.313483 34.38 
L 445.313483 7.2 
L 447.258504 7.2 
L 447.258504 34.38 
L 445.313483 34.38 
z
" clip-path="url(#p8b049ebfc4)" style="fill: #f2f2ff"/>
    <path d="M 447.258504 34.38 
L 447.258504 7.2 
L 449.203524 7.2 
L 449.203524 34.38 
L 447.258504 34.38 
z
" clip-path="url(#p8b049ebfc4)" style="fill: #e4e4ff"/>
    <path d="M 449.203524 34.38 
L 449.203524 7.2 
L 451.148545 7.2 
L 451.148545 34.38 
L 449.203524 34.38 
z
" clip-path="url(#p8b049ebfc4)" style="fill: #d2d2ff"/>
    <path d="M 451.148545 34.38 
L 451.148545 7.2 
L 453.093565 7.2 
L 453.093565 34.38 
L 451.148545 34.38 
z
" clip-path="url(#p8b049ebfc4)" style="fill: #eeeeff"/>
    <path d="M 453.093565 34.38 
L 453.093565 7.2 
L 455.038586 7.2 
L 455.038586 34.38 
L 453.093565 34.38 
z
" clip-path="url(#p8b049ebfc4)" style="fill: #d4d4ff"/>
    <path d="M 455.038586 34.38 
L 455.038586 7.2 
L 456.983606 7.2 
L 456.983606 34.38 
L 455.038586 34.38 
z
" clip-path="url(#p8b049ebfc4)" style="fill: #e6e6ff"/>
    <path d="M 456.983606 34.38 
L 456.983606 7.2 
L 458.928627 7.2 
L 458.928627 34.38 
L 456.983606 34.38 
z
" clip-path="url(#p8b049ebfc4)" style="fill: #d4d4ff"/>
    <path d="M 458.928627 34.38 
L 458.928627 7.2 
L 460.873647 7.2 
L 460.873647 34.38 
L 458.928627 34.38 
z
" clip-path="url(#p8b049ebfc4)" style="fill: #ffd4d4"/>
    <path d="M 460.873647 34.38 
L 460.873647 7.2 
L 462.818668 7.2 
L 462.818668 34.38 
L 460.873647 34.38 
z
" clip-path="url(#p8b049ebfc4)" style="fill: #f0f0ff"/>
    <path d="M 462.818668 34.38 
L 462.818668 7.2 
L 464.763688 7.2 
L 464.763688 34.38 
L 462.818668 34.38 
z
" clip-path="url(#p8b049ebfc4)" style="fill: #fffefe"/>
    <path d="M 464.763688 34.38 
L 464.763688 7.2 
L 466.708709 7.2 
L 466.708709 34.38 
L 464.763688 34.38 
z
" clip-path="url(#p8b049ebfc4)" style="fill: #fffefe"/>
    <path d="M 466.708709 34.38 
L 466.708709 7.2 
L 468.65373 7.2 
L 468.65373 34.38 
L 466.708709 34.38 
z
" clip-path="url(#p8b049ebfc4)" style="fill: #f2f2ff"/>
    <path d="M 468.65373 34.38 
L 468.65373 7.2 
L 470.59875 7.2 
L 470.59875 34.38 
L 468.65373 34.38 
z
" clip-path="url(#p8b049ebfc4)" style="fill: #fffefe"/>
    <path d="M 470.59875 34.38 
L 470.59875 7.2 
L 472.543771 7.2 
L 472.543771 34.38 
L 470.59875 34.38 
z
" clip-path="url(#p8b049ebfc4)" style="fill: #f2f2ff"/>
    <path d="M 472.543771 34.38 
L 472.543771 7.2 
L 474.488791 7.2 
L 474.488791 34.38 
L 472.543771 34.38 
z
" clip-path="url(#p8b049ebfc4)" style="fill: #fffefe"/>
    <path d="M 474.488791 34.38 
L 474.488791 7.2 
L 476.433812 7.2 
L 476.433812 34.38 
L 474.488791 34.38 
z
" clip-path="url(#p8b049ebfc4)" style="fill: #f0f0ff"/>
    <path d="M 476.433812 34.38 
L 476.433812 7.2 
L 478.378832 7.2 
L 478.378832 34.38 
L 476.433812 34.38 
z
" clip-path="url(#p8b049ebfc4)" style="fill: #e2e2ff"/>
    <path d="M 478.378832 34.38 
L 478.378832 7.2 
L 480.323853 7.2 
L 480.323853 34.38 
L 478.378832 34.38 
z
" clip-path="url(#p8b049ebfc4)" style="fill: #cacaff"/>
    <path d="M 480.323853 34.38 
L 480.323853 7.2 
L 482.268873 7.2 
L 482.268873 34.38 
L 480.323853 34.38 
z
" clip-path="url(#p8b049ebfc4)" style="fill: #acacff"/>
    <path d="M 482.268873 34.38 
L 482.268873 7.2 
L 484.213894 7.2 
L 484.213894 34.38 
L 482.268873 34.38 
z
" clip-path="url(#p8b049ebfc4)" style="fill: #7a7aff"/>
    <path d="M 484.213894 34.38 
L 484.213894 7.2 
L 486.158914 7.2 
L 486.158914 34.38 
L 484.213894 34.38 
z
" clip-path="url(#p8b049ebfc4)" style="fill: #bebeff"/>
    <path d="M 486.158914 34.38 
L 486.158914 7.2 
L 488.103935 7.2 
L 488.103935 34.38 
L 486.158914 34.38 
z
" clip-path="url(#p8b049ebfc4)" style="fill: #eeeeff"/>
    <path d="M 488.103935 34.38 
L 488.103935 7.2 
L 490.048955 7.2 
L 490.048955 34.38 
L 488.103935 34.38 
z
" clip-path="url(#p8b049ebfc4)" style="fill: #ccccff"/>
    <path d="M 490.048955 34.38 
L 490.048955 7.2 
L 491.993976 7.2 
L 491.993976 34.38 
L 490.048955 34.38 
z
" clip-path="url(#p8b049ebfc4)" style="fill: #c4c4ff"/>
    <path d="M 491.993976 34.38 
L 491.993976 7.2 
L 493.938997 7.2 
L 493.938997 34.38 
L 491.993976 34.38 
z
" clip-path="url(#p8b049ebfc4)" style="fill: #ceceff"/>
    <path d="M 493.938997 34.38 
L 493.938997 7.2 
L 495.884017 7.2 
L 495.884017 34.38 
L 493.938997 34.38 
z
" clip-path="url(#p8b049ebfc4)" style="fill: #eaeaff"/>
    <path d="M 495.884017 34.38 
L 495.884017 7.2 
L 497.829038 7.2 
L 497.829038 34.38 
L 495.884017 34.38 
z
" clip-path="url(#p8b049ebfc4)" style="fill: #eeeeff"/>
    <path d="M 497.829038 34.38 
L 497.829038 7.2 
L 499.774058 7.2 
L 499.774058 34.38 
L 497.829038 34.38 
z
" clip-path="url(#p8b049ebfc4)" style="fill: #e2e2ff"/>
    <path d="M 499.774058 34.38 
L 499.774058 7.2 
L 501.719079 7.2 
L 501.719079 34.38 
L 499.774058 34.38 
z
" clip-path="url(#p8b049ebfc4)" style="fill: #eaeaff"/>
    <path d="M 501.719079 34.38 
L 501.719079 7.2 
L 503.664099 7.2 
L 503.664099 34.38 
L 501.719079 34.38 
z
" clip-path="url(#p8b049ebfc4)" style="fill: #d0d0ff"/>
    <path d="M 503.664099 34.38 
L 503.664099 7.2 
L 505.60912 7.2 
L 505.60912 34.38 
L 503.664099 34.38 
z
" clip-path="url(#p8b049ebfc4)" style="fill: #c4c4ff"/>
    <path d="M 505.60912 34.38 
L 505.60912 7.2 
L 507.55414 7.2 
L 507.55414 34.38 
L 505.60912 34.38 
z
" clip-path="url(#p8b049ebfc4)" style="fill: #d0d0ff"/>
    <path d="M 507.55414 34.38 
L 507.55414 7.2 
L 509.499161 7.2 
L 509.499161 34.38 
L 507.55414 34.38 
z
" clip-path="url(#p8b049ebfc4)" style="fill: #ff9898"/>
    <path d="M 509.499161 34.38 
L 509.499161 7.2 
L 511.444181 7.2 
L 511.444181 34.38 
L 509.499161 34.38 
z
" clip-path="url(#p8b049ebfc4)" style="fill: #ff2626"/>
    <path d="M 511.444181 34.38 
L 511.444181 7.2 
L 513.389202 7.2 
L 513.389202 34.38 
L 511.444181 34.38 
z
" clip-path="url(#p8b049ebfc4)" style="fill: #ff5e5e"/>
    <path d="M 513.389202 34.38 
L 513.389202 7.2 
L 515.334223 7.2 
L 515.334223 34.38 
L 513.389202 34.38 
z
" clip-path="url(#p8b049ebfc4)" style="fill: #ff9696"/>
    <path d="M 515.334223 34.38 
L 515.334223 7.2 
L 517.279243 7.2 
L 517.279243 34.38 
L 515.334223 34.38 
z
" clip-path="url(#p8b049ebfc4)" style="fill: #ff6262"/>
    <path d="M 517.279243 34.38 
L 517.279243 7.2 
L 519.224264 7.2 
L 519.224264 34.38 
L 517.279243 34.38 
z
" clip-path="url(#p8b049ebfc4)" style="fill: #ff3434"/>
    <path d="M 519.224264 34.38 
L 519.224264 7.2 
L 521.169284 7.2 
L 521.169284 34.38 
L 519.224264 34.38 
z
" clip-path="url(#p8b049ebfc4)" style="fill: #ffc4c4"/>
    <path d="M 521.169284 34.38 
L 521.169284 7.2 
L 523.114305 7.2 
L 523.114305 34.38 
L 521.169284 34.38 
z
" clip-path="url(#p8b049ebfc4)" style="fill: #ffd6d6"/>
    <path d="M 523.114305 34.38 
L 523.114305 7.2 
L 525.059325 7.2 
L 525.059325 34.38 
L 523.114305 34.38 
z
" clip-path="url(#p8b049ebfc4)" style="fill: #ffd6d6"/>
    <path d="M 525.059325 34.38 
L 525.059325 7.2 
L 527.004346 7.2 
L 527.004346 34.38 
L 525.059325 34.38 
z
" clip-path="url(#p8b049ebfc4)" style="fill: #ffe4e4"/>
    <path d="M 527.004346 34.38 
L 527.004346 7.2 
L 528.949366 7.2 
L 528.949366 34.38 
L 527.004346 34.38 
z
" clip-path="url(#p8b049ebfc4)" style="fill: #ffdcdc"/>
    <path d="M 528.949366 34.38 
L 528.949366 7.2 
L 530.894387 7.2 
L 530.894387 34.38 
L 528.949366 34.38 
z
" clip-path="url(#p8b049ebfc4)" style="fill: #e4e4ff"/>
    <path d="M 530.894387 34.38 
L 530.894387 7.2 
L 532.839407 7.2 
L 532.839407 34.38 
L 530.894387 34.38 
z
" clip-path="url(#p8b049ebfc4)" style="fill: #ffd0d0"/>
    <path d="M 532.839407 34.38 
L 532.839407 7.2 
L 534.784428 7.2 
L 534.784428 34.38 
L 532.839407 34.38 
z
" clip-path="url(#p8b049ebfc4)" style="fill: #ffa0a0"/>
    <path d="M 534.784428 34.38 
L 534.784428 7.2 
L 536.729448 7.2 
L 536.729448 34.38 
L 534.784428 34.38 
z
" clip-path="url(#p8b049ebfc4)" style="fill: #ffe4e4"/>
    <path d="M 536.729448 34.38 
L 536.729448 7.2 
L 538.674469 7.2 
L 538.674469 34.38 
L 536.729448 34.38 
z
" clip-path="url(#p8b049ebfc4)" style="fill: #ffa2a2"/>
    <path d="M 538.674469 34.38 
L 538.674469 7.2 
L 540.61949 7.2 
L 540.61949 34.38 
L 538.674469 34.38 
z
" clip-path="url(#p8b049ebfc4)" style="fill: #ff2e2e"/>
    <path d="M 540.61949 34.38 
L 540.61949 7.2 
L 542.56451 7.2 
L 542.56451 34.38 
L 540.61949 34.38 
z
" clip-path="url(#p8b049ebfc4)" style="fill: #ffd6d6"/>
    <path d="M 542.56451 34.38 
L 542.56451 7.2 
L 544.509531 7.2 
L 544.509531 34.38 
L 542.56451 34.38 
z
" clip-path="url(#p8b049ebfc4)" style="fill: #ffb0b0"/>
    <path d="M 544.509531 34.38 
L 544.509531 7.2 
L 546.454551 7.2 
L 546.454551 34.38 
L 544.509531 34.38 
z
" clip-path="url(#p8b049ebfc4)" style="fill: #ffd0d0"/>
    <path d="M 546.454551 34.38 
L 546.454551 7.2 
L 548.399572 7.2 
L 548.399572 34.38 
L 546.454551 34.38 
z
" clip-path="url(#p8b049ebfc4)" style="fill: #ff8e8e"/>
    <path d="M 548.399572 34.38 
L 548.399572 7.2 
L 550.344592 7.2 
L 550.344592 34.38 
L 548.399572 34.38 
z
" clip-path="url(#p8b049ebfc4)" style="fill: #ffeaea"/>
    <path d="M 550.344592 34.38 
L 550.344592 7.2 
L 552.289613 7.2 
L 552.289613 34.38 
L 550.344592 34.38 
z
" clip-path="url(#p8b049ebfc4)" style="fill: #ffb0b0"/>
    <path d="M 552.289613 34.38 
L 552.289613 7.2 
L 554.234633 7.2 
L 554.234633 34.38 
L 552.289613 34.38 
z
" clip-path="url(#p8b049ebfc4)" style="fill: #ffbcbc"/>
    <path d="M 554.234633 34.38 
L 554.234633 7.2 
L 556.179654 7.2 
L 556.179654 34.38 
L 554.234633 34.38 
z
" clip-path="url(#p8b049ebfc4)" style="fill: #ff1c1c"/>
    <path d="M 556.179654 34.38 
L 556.179654 7.2 
L 558.124674 7.2 
L 558.124674 34.38 
L 556.179654 34.38 
z
" clip-path="url(#p8b049ebfc4)" style="fill: #ffe6e6"/>
    <path d="M 558.124674 34.38 
L 558.124674 7.2 
L 560.069695 7.2 
L 560.069695 34.38 
L 558.124674 34.38 
z
" clip-path="url(#p8b049ebfc4)" style="fill: #ff9090"/>
    <path d="M 560.069695 34.38 
L 560.069695 7.2 
L 562.014715 7.2 
L 562.014715 34.38 
L 560.069695 34.38 
z
" clip-path="url(#p8b049ebfc4)" style="fill: #ffbebe"/>
    <path d="M 562.014715 34.38 
L 562.014715 7.2 
L 563.959736 7.2 
L 563.959736 34.38 
L 562.014715 34.38 
z
" clip-path="url(#p8b049ebfc4)" style="fill: #ffdada"/>
    <path d="M 563.959736 34.38 
L 563.959736 7.2 
L 565.904757 7.2 
L 565.904757 34.38 
L 563.959736 34.38 
z
" clip-path="url(#p8b049ebfc4)" style="fill: #ffd4d4"/>
    <path d="M 565.904757 34.38 
L 565.904757 7.2 
L 567.849777 7.2 
L 567.849777 34.38 
L 565.904757 34.38 
z
" clip-path="url(#p8b049ebfc4)" style="fill: #ffc4c4"/>
    <path d="M 567.849777 34.38 
L 567.849777 7.2 
L 569.794798 7.2 
L 569.794798 34.38 
L 567.849777 34.38 
z
" clip-path="url(#p8b049ebfc4)" style="fill: #ffd8d8"/>
    <path d="M 569.794798 34.38 
L 569.794798 7.2 
L 571.739818 7.2 
L 571.739818 34.38 
L 569.794798 34.38 
z
" clip-path="url(#p8b049ebfc4)" style="fill: #ffd8d8"/>
    <path d="M 571.739818 34.38 
L 571.739818 7.2 
L 573.684839 7.2 
L 573.684839 34.38 
L 571.739818 34.38 
z
" clip-path="url(#p8b049ebfc4)" style="fill: #ffd8d8"/>
    <path d="M 573.684839 34.38 
L 573.684839 7.2 
L 575.629859 7.2 
L 575.629859 34.38 
L 573.684839 34.38 
z
" clip-path="url(#p8b049ebfc4)" style="fill: #ffacac"/>
    <path d="M 575.629859 34.38 
L 575.629859 7.2 
L 577.57488 7.2 
L 577.57488 34.38 
L 575.629859 34.38 
z
" clip-path="url(#p8b049ebfc4)" style="fill: #ffcece"/>
    <path d="M 577.57488 34.38 
L 577.57488 7.2 
L 579.5199 7.2 
L 579.5199 34.38 
L 577.57488 34.38 
z
" clip-path="url(#p8b049ebfc4)" style="fill: #ffb8b8"/>
    <path d="M 579.5199 34.38 
L 579.5199 7.2 
L 581.464921 7.2 
L 581.464921 34.38 
L 579.5199 34.38 
z
" clip-path="url(#p8b049ebfc4)" style="fill: #ffd8d8"/>
    <path d="M 581.464921 34.38 
L 581.464921 7.2 
L 583.409941 7.2 
L 583.409941 34.38 
L 581.464921 34.38 
z
" clip-path="url(#p8b049ebfc4)" style="fill: #ffa2a2"/>
    <path d="M 583.409941 34.38 
L 583.409941 7.2 
L 585.354962 7.2 
L 585.354962 34.38 
L 583.409941 34.38 
z
" clip-path="url(#p8b049ebfc4)" style="fill: #ffb2b2"/>
    <path d="M 585.354962 34.38 
L 585.354962 7.2 
L 587.299983 7.2 
L 587.299983 34.38 
L 585.354962 34.38 
z
" clip-path="url(#p8b049ebfc4)" style="fill: #ff1212"/>
    <path d="M 587.299983 34.38 
L 587.299983 7.2 
L 589.245003 7.2 
L 589.245003 34.38 
L 587.299983 34.38 
z
" clip-path="url(#p8b049ebfc4)" style="fill: #ffdede"/>
    <path d="M 589.245003 34.38 
L 589.245003 7.2 
L 591.190024 7.2 
L 591.190024 34.38 
L 589.245003 34.38 
z
" clip-path="url(#p8b049ebfc4)" style="fill: #ffcaca"/>
    <path d="M 591.190024 34.38 
L 591.190024 7.2 
L 593.135044 7.2 
L 593.135044 34.38 
L 591.190024 34.38 
z
" clip-path="url(#p8b049ebfc4)" style="fill: #ffb6b6"/>
    <path d="M 593.135044 34.38 
L 593.135044 7.2 
L 595.080065 7.2 
L 595.080065 34.38 
L 593.135044 34.38 
z
" clip-path="url(#p8b049ebfc4)" style="fill: #ffd6d6"/>
    <path d="M 595.080065 34.38 
L 595.080065 7.2 
L 597.025085 7.2 
L 597.025085 34.38 
L 595.080065 34.38 
z
" clip-path="url(#p8b049ebfc4)" style="fill: #ff9494"/>
    <path d="M 597.025085 34.38 
L 597.025085 7.2 
L 598.970106 7.2 
L 598.970106 34.38 
L 597.025085 34.38 
z
" clip-path="url(#p8b049ebfc4)" style="fill: #ff8a8a"/>
    <path d="M 598.970106 34.38 
L 598.970106 7.2 
L 600.915126 7.2 
L 600.915126 34.38 
L 598.970106 34.38 
z
" clip-path="url(#p8b049ebfc4)" style="fill: #ff6868"/>
    <path d="M 600.915126 34.38 
L 600.915126 7.2 
L 602.860147 7.2 
L 602.860147 34.38 
L 600.915126 34.38 
z
" clip-path="url(#p8b049ebfc4)" style="fill: #ff4646"/>
    <path d="M 602.860147 34.38 
L 602.860147 7.2 
L 604.805167 7.2 
L 604.805167 34.38 
L 602.860147 34.38 
z
" clip-path="url(#p8b049ebfc4)" style="fill: #ff6868"/>
    <path d="M 604.805167 34.38 
L 604.805167 7.2 
L 606.750188 7.2 
L 606.750188 34.38 
L 604.805167 34.38 
z
" clip-path="url(#p8b049ebfc4)" style="fill: #4e4eff"/>
    <path d="M 606.750188 34.38 
L 606.750188 7.2 
L 608.695208 7.2 
L 608.695208 34.38 
L 606.750188 34.38 
z
" clip-path="url(#p8b049ebfc4)" style="fill: #ffc0c0"/>
    <path d="M 608.695208 34.38 
L 608.695208 7.2 
L 610.640229 7.2 
L 610.640229 34.38 
L 608.695208 34.38 
z
" clip-path="url(#p8b049ebfc4)" style="fill: #ffa2a2"/>
    <path d="M 610.640229 34.38 
L 610.640229 7.2 
L 612.58525 7.2 
L 612.58525 34.38 
L 610.640229 34.38 
z
" clip-path="url(#p8b049ebfc4)" style="fill: #ff8282"/>
    <path d="M 612.58525 34.38 
L 612.58525 7.2 
L 614.53027 7.2 
L 614.53027 34.38 
L 612.58525 34.38 
z
" clip-path="url(#p8b049ebfc4)" style="fill: #8a8aff"/>
    <path d="M 614.53027 34.38 
L 614.53027 7.2 
L 616.475291 7.2 
L 616.475291 34.38 
L 614.53027 34.38 
z
" clip-path="url(#p8b049ebfc4)" style="fill: #ff6464"/>
    <path d="M 616.475291 34.38 
L 616.475291 7.2 
L 618.420311 7.2 
L 618.420311 34.38 
L 616.475291 34.38 
z
" clip-path="url(#p8b049ebfc4)" style="fill: #ff9090"/>
    <path d="M 618.420311 34.38 
L 618.420311 7.2 
L 620.365332 7.2 
L 620.365332 34.38 
L 618.420311 34.38 
z
" clip-path="url(#p8b049ebfc4)" style="fill: #ffacac"/>
    <path d="M 620.365332 34.38 
L 620.365332 7.2 
L 622.310352 7.2 
L 622.310352 34.38 
L 620.365332 34.38 
z
" clip-path="url(#p8b049ebfc4)" style="fill: #ffc4c4"/>
    <path d="M 622.310352 34.38 
L 622.310352 7.2 
L 624.255373 7.2 
L 624.255373 34.38 
L 622.310352 34.38 
z
" clip-path="url(#p8b049ebfc4)" style="fill: #ff0000"/>
    <path d="M 624.255373 34.38 
L 624.255373 7.2 
L 626.200393 7.2 
L 626.200393 34.38 
L 624.255373 34.38 
z
" clip-path="url(#p8b049ebfc4)" style="fill: #ff0000"/>
    <path d="M 626.200393 34.38 
L 626.200393 7.2 
L 628.145414 7.2 
L 628.145414 34.38 
L 626.200393 34.38 
z
" clip-path="url(#p8b049ebfc4)" style="fill: #ff0000"/>
    <path d="M 628.145414 34.38 
L 628.145414 7.2 
L 630.090434 7.2 
L 630.090434 34.38 
L 628.145414 34.38 
z
" clip-path="url(#p8b049ebfc4)" style="fill: #9696ff"/>
    <path d="M 630.090434 34.38 
L 630.090434 7.2 
L 632.035455 7.2 
L 632.035455 34.38 
L 630.090434 34.38 
z
" clip-path="url(#p8b049ebfc4)" style="fill: #9a9aff"/>
    <path d="M 632.035455 34.38 
L 632.035455 7.2 
L 633.980475 7.2 
L 633.980475 34.38 
L 632.035455 34.38 
z
" clip-path="url(#p8b049ebfc4)" style="fill: #c4c4ff"/>
    <path d="M 633.980475 34.38 
L 633.980475 7.2 
L 635.925496 7.2 
L 635.925496 34.38 
L 633.980475 34.38 
z
" clip-path="url(#p8b049ebfc4)" style="fill: #c2c2ff"/>
    <path d="M 635.925496 34.38 
L 635.925496 7.2 
L 637.870517 7.2 
L 637.870517 34.38 
L 635.925496 34.38 
z
" clip-path="url(#p8b049ebfc4)" style="fill: #c4c4ff"/>
    <path d="M 637.870517 34.38 
L 637.870517 7.2 
L 639.815537 7.2 
L 639.815537 34.38 
L 637.870517 34.38 
z
" clip-path="url(#p8b049ebfc4)" style="fill: #4040ff"/>
    <path d="M 639.815537 34.38 
L 639.815537 7.2 
L 641.760558 7.2 
L 641.760558 34.38 
L 639.815537 34.38 
z
" clip-path="url(#p8b049ebfc4)" style="fill: #3c3cff"/>
    <path d="M 641.760558 34.38 
L 641.760558 7.2 
L 643.705578 7.2 
L 643.705578 34.38 
L 641.760558 34.38 
z
" clip-path="url(#p8b049ebfc4)" style="fill: #4c4cff"/>
    <path d="M 643.705578 34.38 
L 643.705578 7.2 
L 645.650599 7.2 
L 645.650599 34.38 
L 643.705578 34.38 
z
" clip-path="url(#p8b049ebfc4)" style="fill: #dadaff"/>
    <path d="M 645.650599 34.38 
L 645.650599 7.2 
L 647.595619 7.2 
L 647.595619 34.38 
L 645.650599 34.38 
z
" clip-path="url(#p8b049ebfc4)" style="fill: #d6d6ff"/>
    <path d="M 647.595619 34.38 
L 647.595619 7.2 
L 649.54064 7.2 
L 649.54064 34.38 
L 647.595619 34.38 
z
" clip-path="url(#p8b049ebfc4)" style="fill: #d6d6ff"/>
    <path d="M 649.54064 34.38 
L 649.54064 7.2 
L 651.48566 7.2 
L 651.48566 34.38 
L 649.54064 34.38 
z
" clip-path="url(#p8b049ebfc4)" style="fill: #ffa0a0"/>
    <path d="M 651.48566 34.38 
L 651.48566 7.2 
L 653.430681 7.2 
L 653.430681 34.38 
L 651.48566 34.38 
z
" clip-path="url(#p8b049ebfc4)" style="fill: #ff9494"/>
    <path d="M 653.430681 34.38 
L 653.430681 7.2 
L 655.375701 7.2 
L 655.375701 34.38 
L 653.430681 34.38 
z
" clip-path="url(#p8b049ebfc4)" style="fill: #ff9c9c"/>
    <path d="M 655.375701 34.38 
L 655.375701 7.2 
L 657.320722 7.2 
L 657.320722 34.38 
L 655.375701 34.38 
z
" clip-path="url(#p8b049ebfc4)" style="fill: #ff9e9e"/>
    <path d="M 657.320722 34.38 
L 657.320722 7.2 
L 659.265743 7.2 
L 659.265743 34.38 
L 657.320722 34.38 
z
" clip-path="url(#p8b049ebfc4)" style="fill: #ffaaaa"/>
    <path d="M 659.265743 34.38 
L 659.265743 7.2 
L 661.210763 7.2 
L 661.210763 34.38 
L 659.265743 34.38 
z
" clip-path="url(#p8b049ebfc4)" style="fill: #ffaaaa"/>
    <path d="M 661.210763 34.38 
L 661.210763 7.2 
L 663.155784 7.2 
L 663.155784 34.38 
L 661.210763 34.38 
z
" clip-path="url(#p8b049ebfc4)" style="fill: #ff8c8c"/>
    <path d="M 663.155784 34.38 
L 663.155784 7.2 
L 665.100804 7.2 
L 665.100804 34.38 
L 663.155784 34.38 
z
" clip-path="url(#p8b049ebfc4)" style="fill: #ff7676"/>
    <path d="M 665.100804 34.38 
L 665.100804 7.2 
L 667.045825 7.2 
L 667.045825 34.38 
L 665.100804 34.38 
z
" clip-path="url(#p8b049ebfc4)" style="fill: #ff8484"/>
    <path d="M 667.045825 34.38 
L 667.045825 7.2 
L 668.990845 7.2 
L 668.990845 34.38 
L 667.045825 34.38 
z
" clip-path="url(#p8b049ebfc4)" style="fill: #ff0000"/>
    <path d="M 668.990845 34.38 
L 668.990845 7.2 
L 670.935866 7.2 
L 670.935866 34.38 
L 668.990845 34.38 
z
" clip-path="url(#p8b049ebfc4)" style="fill: #ff0000"/>
    <path d="M 670.935866 34.38 
L 670.935866 7.2 
L 672.880886 7.2 
L 672.880886 34.38 
L 670.935866 34.38 
z
" clip-path="url(#p8b049ebfc4)" style="fill: #ff0000"/>
    <path d="M 672.880886 34.38 
L 672.880886 7.2 
L 674.825907 7.2 
L 674.825907 34.38 
L 672.880886 34.38 
z
" clip-path="url(#p8b049ebfc4)" style="fill: #ffcaca"/>
    <path d="M 674.825907 34.38 
L 674.825907 7.2 
L 676.770927 7.2 
L 676.770927 34.38 
L 674.825907 34.38 
z
" clip-path="url(#p8b049ebfc4)" style="fill: #ffcccc"/>
    <path d="M 676.770927 34.38 
L 676.770927 7.2 
L 678.715948 7.2 
L 678.715948 34.38 
L 676.770927 34.38 
z
" clip-path="url(#p8b049ebfc4)" style="fill: #7474ff"/>
    <path d="M 678.715948 34.38 
L 678.715948 7.2 
L 680.660968 7.2 
L 680.660968 34.38 
L 678.715948 34.38 
z
" clip-path="url(#p8b049ebfc4)" style="fill: #1212ff"/>
    <path d="M 680.660968 34.38 
L 680.660968 7.2 
L 682.605989 7.2 
L 682.605989 34.38 
L 680.660968 34.38 
z
" clip-path="url(#p8b049ebfc4)" style="fill: #2828ff"/>
    <path d="M 682.605989 34.38 
L 682.605989 7.2 
L 684.55101 7.2 
L 684.55101 34.38 
L 682.605989 34.38 
z
" clip-path="url(#p8b049ebfc4)" style="fill: #ff9696"/>
    <path d="M 684.55101 34.38 
L 684.55101 7.2 
L 686.49603 7.2 
L 686.49603 34.38 
L 684.55101 34.38 
z
" clip-path="url(#p8b049ebfc4)" style="fill: #ff9a9a"/>
    <path d="M 686.49603 34.38 
L 686.49603 7.2 
L 688.441051 7.2 
L 688.441051 34.38 
L 686.49603 34.38 
z
" clip-path="url(#p8b049ebfc4)" style="fill: #ffa6a6"/>
    <path d="M 688.441051 34.38 
L 688.441051 7.2 
L 690.386071 7.2 
L 690.386071 34.38 
L 688.441051 34.38 
z
" clip-path="url(#p8b049ebfc4)" style="fill: #ff9898"/>
    <path d="M 690.386071 34.38 
L 690.386071 7.2 
L 692.331092 7.2 
L 692.331092 34.38 
L 690.386071 34.38 
z
" clip-path="url(#p8b049ebfc4)" style="fill: #ff9898"/>
    <path d="M 692.331092 34.38 
L 692.331092 7.2 
L 694.276112 7.2 
L 694.276112 34.38 
L 692.331092 34.38 
z
" clip-path="url(#p8b049ebfc4)" style="fill: #ff0000"/>
    <path d="M 694.276112 34.38 
L 694.276112 7.2 
L 696.221133 7.2 
L 696.221133 34.38 
L 694.276112 34.38 
z
" clip-path="url(#p8b049ebfc4)" style="fill: #ff0000"/>
    <path d="M 696.221133 34.38 
L 696.221133 7.2 
L 698.166153 7.2 
L 698.166153 34.38 
L 696.221133 34.38 
z
" clip-path="url(#p8b049ebfc4)" style="fill: #ff0000"/>
    <path d="M 698.166153 34.38 
L 698.166153 7.2 
L 700.111174 7.2 
L 700.111174 34.38 
L 698.166153 34.38 
z
" clip-path="url(#p8b049ebfc4)" style="fill: #ffcece"/>
    <path d="M 700.111174 34.38 
L 700.111174 7.2 
L 702.056194 7.2 
L 702.056194 34.38 
L 700.111174 34.38 
z
" clip-path="url(#p8b049ebfc4)" style="fill: #ffcece"/>
    <path d="M 702.056194 34.38 
L 702.056194 7.2 
L 704.001215 7.2 
L 704.001215 34.38 
L 702.056194 34.38 
z
" clip-path="url(#p8b049ebfc4)" style="fill: #ffd2d2"/>
    <path d="M 704.001215 34.38 
L 704.001215 7.2 
L 705.946235 7.2 
L 705.946235 34.38 
L 704.001215 34.38 
z
" clip-path="url(#p8b049ebfc4)" style="fill: #bebeff"/>
    <path d="M 705.946235 34.38 
L 705.946235 7.2 
L 707.891256 7.2 
L 707.891256 34.38 
L 705.946235 34.38 
z
" clip-path="url(#p8b049ebfc4)" style="fill: #babaff"/>
    <path d="M 707.891256 34.38 
L 707.891256 7.2 
L 709.836277 7.2 
L 709.836277 34.38 
L 707.891256 34.38 
z
" clip-path="url(#p8b049ebfc4)" style="fill: #babaff"/>
    <path d="M 709.836277 34.38 
L 709.836277 7.2 
L 711.781297 7.2 
L 711.781297 34.38 
L 709.836277 34.38 
z
" clip-path="url(#p8b049ebfc4)" style="fill: #2c2cff"/>
    <path d="M 711.781297 34.38 
L 711.781297 7.2 
L 713.726318 7.2 
L 713.726318 34.38 
L 711.781297 34.38 
z
" clip-path="url(#p8b049ebfc4)" style="fill: #1a1aff"/>
    <path d="M 713.726318 34.38 
L 713.726318 7.2 
L 715.671338 7.2 
L 715.671338 34.38 
L 713.726318 34.38 
z
" clip-path="url(#p8b049ebfc4)" style="fill: #1e1eff"/>
    <path d="M 715.671338 34.38 
L 715.671338 7.2 
L 717.616359 7.2 
L 717.616359 34.38 
L 715.671338 34.38 
z
" clip-path="url(#p8b049ebfc4)" style="fill: #dcdcff"/>
    <path d="M 717.616359 34.38 
L 717.616359 7.2 
L 719.561379 7.2 
L 719.561379 34.38 
L 717.616359 34.38 
z
" clip-path="url(#p8b049ebfc4)" style="fill: #d6d6ff"/>
    <path d="M 719.561379 34.38 
L 719.561379 7.2 
L 721.5064 7.2 
L 721.5064 34.38 
L 719.561379 34.38 
z
" clip-path="url(#p8b049ebfc4)" style="fill: #dadaff"/>
    <path d="M 721.5064 34.38 
L 721.5064 7.2 
L 723.45142 7.2 
L 723.45142 34.38 
L 721.5064 34.38 
z
" clip-path="url(#p8b049ebfc4)" style="fill: #ff9c9c"/>
    <path d="M 723.45142 34.38 
L 723.45142 7.2 
L 725.396441 7.2 
L 725.396441 34.38 
L 723.45142 34.38 
z
" clip-path="url(#p8b049ebfc4)" style="fill: #ff9a9a"/>
    <path d="M 725.396441 34.38 
L 725.396441 7.2 
L 727.341461 7.2 
L 727.341461 34.38 
L 725.396441 34.38 
z
" clip-path="url(#p8b049ebfc4)" style="fill: #ffb4b4"/>
    <path d="M 727.341461 34.38 
L 727.341461 7.2 
L 729.286482 7.2 
L 729.286482 34.38 
L 727.341461 34.38 
z
" clip-path="url(#p8b049ebfc4)" style="fill: #ffaeae"/>
    <path d="M 729.286482 34.38 
L 729.286482 7.2 
L 731.231502 7.2 
L 731.231502 34.38 
L 729.286482 34.38 
z
" clip-path="url(#p8b049ebfc4)" style="fill: #ffb0b0"/>
    <path d="M 731.231502 34.38 
L 731.231502 7.2 
L 733.176523 7.2 
L 733.176523 34.38 
L 731.231502 34.38 
z
" clip-path="url(#p8b049ebfc4)" style="fill: #ff0000"/>
    <path d="M 733.176523 34.38 
L 733.176523 7.2 
L 735.121544 7.2 
L 735.121544 34.38 
L 733.176523 34.38 
z
" clip-path="url(#p8b049ebfc4)" style="fill: #ff0000"/>
    <path d="M 735.121544 34.38 
L 735.121544 7.2 
L 737.066564 7.2 
L 737.066564 34.38 
L 735.121544 34.38 
z
" clip-path="url(#p8b049ebfc4)" style="fill: #ff0000"/>
    <path d="M 737.066564 34.38 
L 737.066564 7.2 
L 739.011585 7.2 
L 739.011585 34.38 
L 737.066564 34.38 
z
" clip-path="url(#p8b049ebfc4)" style="fill: #ffdede"/>
    <path d="M 739.011585 34.38 
L 739.011585 7.2 
L 740.956605 7.2 
L 740.956605 34.38 
L 739.011585 34.38 
z
" clip-path="url(#p8b049ebfc4)" style="fill: #ffd8d8"/>
    <path d="M 740.956605 34.38 
L 740.956605 7.2 
L 742.901626 7.2 
L 742.901626 34.38 
L 740.956605 34.38 
z
" clip-path="url(#p8b049ebfc4)" style="fill: #ffd8d8"/>
    <path d="M 742.901626 34.38 
L 742.901626 7.2 
L 744.846646 7.2 
L 744.846646 34.38 
L 742.901626 34.38 
z
" clip-path="url(#p8b049ebfc4)" style="fill: #ffdcdc"/>
    <path d="M 744.846646 34.38 
L 744.846646 7.2 
L 746.791667 7.2 
L 746.791667 34.38 
L 744.846646 34.38 
z
" clip-path="url(#p8b049ebfc4)" style="fill: #7e7eff"/>
    <path d="M 746.791667 34.38 
L 746.791667 7.2 
L 748.736687 7.2 
L 748.736687 34.38 
L 746.791667 34.38 
z
" clip-path="url(#p8b049ebfc4)" style="fill: #7e7eff"/>
    <path d="M 748.736687 34.38 
L 748.736687 7.2 
L 750.681708 7.2 
L 750.681708 34.38 
L 748.736687 34.38 
z
" clip-path="url(#p8b049ebfc4)" style="fill: #7c7cff"/>
    <path d="M 750.681708 34.38 
L 750.681708 7.2 
L 752.626728 7.2 
L 752.626728 34.38 
L 750.681708 34.38 
z
" clip-path="url(#p8b049ebfc4)" style="fill: #aaaaff"/>
    <path d="M 752.626728 34.38 
L 752.626728 7.2 
L 754.571749 7.2 
L 754.571749 34.38 
L 752.626728 34.38 
z
" clip-path="url(#p8b049ebfc4)" style="fill: #9696ff"/>
    <path d="M 754.571749 34.38 
L 754.571749 7.2 
L 756.51677 7.2 
L 756.51677 34.38 
L 754.571749 34.38 
z
" clip-path="url(#p8b049ebfc4)" style="fill: #a0a0ff"/>
    <path d="M 756.51677 34.38 
L 756.51677 7.2 
L 758.46179 7.2 
L 758.46179 34.38 
L 756.51677 34.38 
z
" clip-path="url(#p8b049ebfc4)" style="fill: #0e0eff"/>
    <path d="M 758.46179 34.38 
L 758.46179 7.2 
L 760.406811 7.2 
L 760.406811 34.38 
L 758.46179 34.38 
z
" clip-path="url(#p8b049ebfc4)" style="fill: #0000ff"/>
    <path d="M 760.406811 34.38 
L 760.406811 7.2 
L 762.351831 7.2 
L 762.351831 34.38 
L 760.406811 34.38 
z
" clip-path="url(#p8b049ebfc4)" style="fill: #0000ff"/>
    <path d="M 762.351831 34.38 
L 762.351831 7.2 
L 764.296852 7.2 
L 764.296852 34.38 
L 762.351831 34.38 
z
" clip-path="url(#p8b049ebfc4)" style="fill: #c2c2ff"/>
    <path d="M 764.296852 34.38 
L 764.296852 7.2 
L 766.241872 7.2 
L 766.241872 34.38 
L 764.296852 34.38 
z
" clip-path="url(#p8b049ebfc4)" style="fill: #c4c4ff"/>
    <path d="M 766.241872 34.38 
L 766.241872 7.2 
L 768.186893 7.2 
L 768.186893 34.38 
L 766.241872 34.38 
z
" clip-path="url(#p8b049ebfc4)" style="fill: #c0c0ff"/>
    <path d="M 768.186893 34.38 
L 768.186893 7.2 
L 770.131913 7.2 
L 770.131913 34.38 
L 768.186893 34.38 
z
" clip-path="url(#p8b049ebfc4)" style="fill: #ffd4d4"/>
    <path d="M 770.131913 34.38 
L 770.131913 7.2 
L 772.076934 7.2 
L 772.076934 34.38 
L 770.131913 34.38 
z
" clip-path="url(#p8b049ebfc4)" style="fill: #ffbcbc"/>
    <path d="M 772.076934 34.38 
L 772.076934 7.2 
L 774.021954 7.2 
L 774.021954 34.38 
L 772.076934 34.38 
z
" clip-path="url(#p8b049ebfc4)" style="fill: #ffbaba"/>
    <path d="M 774.021954 34.38 
L 774.021954 7.2 
L 775.966975 7.2 
L 775.966975 34.38 
L 774.021954 34.38 
z
" clip-path="url(#p8b049ebfc4)" style="fill: #ffbcbc"/>
    <path d="M 775.966975 34.38 
L 775.966975 7.2 
L 777.911995 7.2 
L 777.911995 34.38 
L 775.966975 34.38 
z
" clip-path="url(#p8b049ebfc4)" style="fill: #ffd8d8"/>
    <path d="M 777.911995 34.38 
L 777.911995 7.2 
L 779.857016 7.2 
L 779.857016 34.38 
L 777.911995 34.38 
z
" clip-path="url(#p8b049ebfc4)" style="fill: #ffdada"/>
    <path d="M 779.857016 34.38 
L 779.857016 7.2 
L 781.802037 7.2 
L 781.802037 34.38 
L 779.857016 34.38 
z
" clip-path="url(#p8b049ebfc4)" style="fill: #ffd8d8"/>
    <path d="M 781.802037 34.38 
L 781.802037 7.2 
L 783.747057 7.2 
L 783.747057 34.38 
L 781.802037 34.38 
z
" clip-path="url(#p8b049ebfc4)" style="fill: #ffbcbc"/>
    <path d="M 783.747057 34.38 
L 783.747057 7.2 
L 785.692078 7.2 
L 785.692078 34.38 
L 783.747057 34.38 
z
" clip-path="url(#p8b049ebfc4)" style="fill: #ffbaba"/>
    <path d="M 785.692078 34.38 
L 785.692078 7.2 
L 787.637098 7.2 
L 787.637098 34.38 
L 785.692078 34.38 
z
" clip-path="url(#p8b049ebfc4)" style="fill: #ffbaba"/>
    <path d="M 787.637098 34.38 
L 787.637098 7.2 
L 789.582119 7.2 
L 789.582119 34.38 
L 787.637098 34.38 
z
" clip-path="url(#p8b049ebfc4)" style="fill: #ff0202"/>
    <path d="M 789.582119 34.38 
L 789.582119 7.2 
L 791.527139 7.2 
L 791.527139 34.38 
L 789.582119 34.38 
z
" clip-path="url(#p8b049ebfc4)" style="fill: #ff0000"/>
    <path d="M 791.527139 34.38 
L 791.527139 7.2 
L 793.47216 7.2 
L 793.47216 34.38 
L 791.527139 34.38 
z
" clip-path="url(#p8b049ebfc4)" style="fill: #ff0606"/>
    <path d="M 793.47216 34.38 
L 793.47216 7.2 
L 795.41718 7.2 
L 795.41718 34.38 
L 793.47216 34.38 
z
" clip-path="url(#p8b049ebfc4)" style="fill: #ffe0e0"/>
    <path d="M 795.41718 34.38 
L 795.41718 7.2 
L 797.362201 7.2 
L 797.362201 34.38 
L 795.41718 34.38 
z
" clip-path="url(#p8b049ebfc4)" style="fill: #ffdcdc"/>
    <path d="M 797.362201 34.38 
L 797.362201 7.2 
L 799.307221 7.2 
L 799.307221 34.38 
L 797.362201 34.38 
z
" clip-path="url(#p8b049ebfc4)" style="fill: #ffdcdc"/>
    <path d="M 799.307221 34.38 
L 799.307221 7.2 
L 801.252242 7.2 
L 801.252242 34.38 
L 799.307221 34.38 
z
" clip-path="url(#p8b049ebfc4)" style="fill: #ff9494"/>
    <path d="M 801.252242 34.38 
L 801.252242 7.2 
L 803.197262 7.2 
L 803.197262 34.38 
L 801.252242 34.38 
z
" clip-path="url(#p8b049ebfc4)" style="fill: #ffa2a2"/>
    <path d="M 803.197262 34.38 
L 803.197262 7.2 
L 805.142283 7.2 
L 805.142283 34.38 
L 803.197262 34.38 
z
" clip-path="url(#p8b049ebfc4)" style="fill: #ff9e9e"/>
    <path d="M 805.142283 34.38 
L 805.142283 7.2 
L 807.087304 7.2 
L 807.087304 34.38 
L 805.142283 34.38 
z
" clip-path="url(#p8b049ebfc4)" style="fill: #ffa8a8"/>
    <path d="M 807.087304 34.38 
L 807.087304 7.2 
L 809.032324 7.2 
L 809.032324 34.38 
L 807.087304 34.38 
z
" clip-path="url(#p8b049ebfc4)" style="fill: #ffa8a8"/>
    <path d="M 809.032324 34.38 
L 809.032324 7.2 
L 810.977345 7.2 
L 810.977345 34.38 
L 809.032324 34.38 
z
" clip-path="url(#p8b049ebfc4)" style="fill: #ffa6a6"/>
    <path d="M 810.977345 34.38 
L 810.977345 7.2 
L 812.922365 7.2 
L 812.922365 34.38 
L 810.977345 34.38 
z
" clip-path="url(#p8b049ebfc4)" style="fill: #ff0000"/>
    <path d="M 812.922365 34.38 
L 812.922365 7.2 
L 814.867386 7.2 
L 814.867386 34.38 
L 812.922365 34.38 
z
" clip-path="url(#p8b049ebfc4)" style="fill: #ff0000"/>
    <path d="M 814.867386 34.38 
L 814.867386 7.2 
L 816.812406 7.2 
L 816.812406 34.38 
L 814.867386 34.38 
z
" clip-path="url(#p8b049ebfc4)" style="fill: #ff0000"/>
    <path d="M 816.812406 34.38 
L 816.812406 7.2 
L 818.757427 7.2 
L 818.757427 34.38 
L 816.812406 34.38 
z
" clip-path="url(#p8b049ebfc4)" style="fill: #ffdede"/>
    <path d="M 818.757427 34.38 
L 818.757427 7.2 
L 820.702447 7.2 
L 820.702447 34.38 
L 818.757427 34.38 
z
" clip-path="url(#p8b049ebfc4)" style="fill: #ffdcdc"/>
    <path d="M 820.702447 34.38 
L 820.702447 7.2 
L 822.647468 7.2 
L 822.647468 34.38 
L 820.702447 34.38 
z
" clip-path="url(#p8b049ebfc4)" style="fill: #ffdcdc"/>
    <path d="M 822.647468 34.38 
L 822.647468 7.2 
L 824.592488 7.2 
L 824.592488 34.38 
L 822.647468 34.38 
z
" clip-path="url(#p8b049ebfc4)" style="fill: #ff9696"/>
    <path d="M 824.592488 34.38 
L 824.592488 7.2 
L 826.537509 7.2 
L 826.537509 34.38 
L 824.592488 34.38 
z
" clip-path="url(#p8b049ebfc4)" style="fill: #ffa4a4"/>
    <path d="M 826.537509 34.38 
L 826.537509 7.2 
L 828.48253 7.2 
L 828.48253 34.38 
L 826.537509 34.38 
z
" clip-path="url(#p8b049ebfc4)" style="fill: #ffa2a2"/>
    <path d="M 828.48253 34.38 
L 828.48253 7.2 
L 830.42755 7.2 
L 830.42755 34.38 
L 828.48253 34.38 
z
" clip-path="url(#p8b049ebfc4)" style="fill: #ffa0a0"/>
    <path d="M 830.42755 34.38 
L 830.42755 7.2 
L 832.372571 7.2 
L 832.372571 34.38 
L 830.42755 34.38 
z
" clip-path="url(#p8b049ebfc4)" style="fill: #ffa0a0"/>
    <path d="M 832.372571 34.38 
L 832.372571 7.2 
L 834.317591 7.2 
L 834.317591 34.38 
L 832.372571 34.38 
z
" clip-path="url(#p8b049ebfc4)" style="fill: #ffa2a2"/>
    <path d="M 834.317591 34.38 
L 834.317591 7.2 
L 836.262612 7.2 
L 836.262612 34.38 
L 834.317591 34.38 
z
" clip-path="url(#p8b049ebfc4)" style="fill: #ff0000"/>
    <path d="M 836.262612 34.38 
L 836.262612 7.2 
L 838.207632 7.2 
L 838.207632 34.38 
L 836.262612 34.38 
z
" clip-path="url(#p8b049ebfc4)" style="fill: #ff0000"/>
    <path d="M 838.207632 34.38 
L 838.207632 7.2 
L 840.152653 7.2 
L 840.152653 34.38 
L 838.207632 34.38 
z
" clip-path="url(#p8b049ebfc4)" style="fill: #ff0000"/>
    <path d="M 840.152653 34.38 
L 840.152653 7.2 
L 842.097673 7.2 
L 842.097673 34.38 
L 840.152653 34.38 
z
" clip-path="url(#p8b049ebfc4)" style="fill: #ffdada"/>
    <path d="M 842.097673 34.38 
L 842.097673 7.2 
L 844.042694 7.2 
L 844.042694 34.38 
L 842.097673 34.38 
z
" clip-path="url(#p8b049ebfc4)" style="fill: #ffdada"/>
    <path d="M 844.042694 34.38 
L 844.042694 7.2 
L 845.987714 7.2 
L 845.987714 34.38 
L 844.042694 34.38 
z
" clip-path="url(#p8b049ebfc4)" style="fill: #ffdada"/>
    <path d="M 845.987714 34.38 
L 845.987714 7.2 
L 847.932735 7.2 
L 847.932735 34.38 
L 845.987714 34.38 
z
" clip-path="url(#p8b049ebfc4)" style="fill: #7c7cff"/>
    <path d="M 847.932735 34.38 
L 847.932735 7.2 
L 849.877755 7.2 
L 849.877755 34.38 
L 847.932735 34.38 
z
" clip-path="url(#p8b049ebfc4)" style="fill: #6262ff"/>
    <path d="M 849.877755 34.38 
L 849.877755 7.2 
L 851.822776 7.2 
L 851.822776 34.38 
L 849.877755 34.38 
z
" clip-path="url(#p8b049ebfc4)" style="fill: #6060ff"/>
    <path d="M 851.822776 34.38 
L 851.822776 7.2 
L 853.767797 7.2 
L 853.767797 34.38 
L 851.822776 34.38 
z
" clip-path="url(#p8b049ebfc4)" style="fill: #4a4aff"/>
    <path d="M 853.767797 34.38 
L 853.767797 7.2 
L 855.712817 7.2 
L 855.712817 34.38 
L 853.767797 34.38 
z
" clip-path="url(#p8b049ebfc4)" style="fill: #c8c8ff"/>
    <path d="M 855.712817 34.38 
L 855.712817 7.2 
L 857.657838 7.2 
L 857.657838 34.38 
L 855.712817 34.38 
z
" clip-path="url(#p8b049ebfc4)" style="fill: #d6d6ff"/>
    <path d="M 857.657838 34.38 
L 857.657838 7.2 
L 859.602858 7.2 
L 859.602858 34.38 
L 857.657838 34.38 
z
" clip-path="url(#p8b049ebfc4)" style="fill: #f0f0ff"/>
    <path d="M 859.602858 34.38 
L 859.602858 7.2 
L 861.547879 7.2 
L 861.547879 34.38 
L 859.602858 34.38 
z
" clip-path="url(#p8b049ebfc4)" style="fill: #fff0f0"/>
    <path d="M 861.547879 34.38 
L 861.547879 7.2 
L 863.492899 7.2 
L 863.492899 34.38 
L 861.547879 34.38 
z
" clip-path="url(#p8b049ebfc4)" style="fill: #a4a4ff"/>
    <path d="M 863.492899 34.38 
L 863.492899 7.2 
L 865.43792 7.2 
L 865.43792 34.38 
L 863.492899 34.38 
z
" clip-path="url(#p8b049ebfc4)" style="fill: #babaff"/>
    <path d="M 865.43792 34.38 
L 865.43792 7.2 
L 867.38294 7.2 
L 867.38294 34.38 
L 865.43792 34.38 
z
" clip-path="url(#p8b049ebfc4)" style="fill: #e4e4ff"/>
    <path d="M 867.38294 34.38 
L 867.38294 7.2 
L 869.327961 7.2 
L 869.327961 34.38 
L 867.38294 34.38 
z
" clip-path="url(#p8b049ebfc4)" style="fill: #ff8e8e"/>
    <path d="M 869.327961 34.38 
L 869.327961 7.2 
L 871.272981 7.2 
L 871.272981 34.38 
L 869.327961 34.38 
z
" clip-path="url(#p8b049ebfc4)" style="fill: #ffb2b2"/>
    <path d="M 871.272981 34.38 
L 871.272981 7.2 
L 873.218002 7.2 
L 873.218002 34.38 
L 871.272981 34.38 
z
" clip-path="url(#p8b049ebfc4)" style="fill: #ffeeee"/>
    <path d="M 873.218002 34.38 
L 873.218002 7.2 
L 875.163022 7.2 
L 875.163022 34.38 
L 873.218002 34.38 
z
" clip-path="url(#p8b049ebfc4)" style="fill: #ffb8b8"/>
    <path d="M 875.163022 34.38 
L 875.163022 7.2 
L 877.108043 7.2 
L 877.108043 34.38 
L 875.163022 34.38 
z
" clip-path="url(#p8b049ebfc4)" style="fill: #ffd0d0"/>
    <path d="M 877.108043 34.38 
L 877.108043 7.2 
L 879.053064 7.2 
L 879.053064 34.38 
L 877.108043 34.38 
z
" clip-path="url(#p8b049ebfc4)" style="fill: #ff8484"/>
    <path d="M 879.053064 34.38 
L 879.053064 7.2 
L 880.998084 7.2 
L 880.998084 34.38 
L 879.053064 34.38 
z
" clip-path="url(#p8b049ebfc4)" style="fill: #ffcccc"/>
    <path d="M 880.998084 34.38 
L 880.998084 7.2 
L 882.943105 7.2 
L 882.943105 34.38 
L 880.998084 34.38 
z
" clip-path="url(#p8b049ebfc4)" style="fill: #ffcece"/>
    <path d="M 882.943105 34.38 
L 882.943105 7.2 
L 884.888125 7.2 
L 884.888125 34.38 
L 882.943105 34.38 
z
" clip-path="url(#p8b049ebfc4)" style="fill: #ff8888"/>
    <path d="M 884.888125 34.38 
L 884.888125 7.2 
L 886.833146 7.2 
L 886.833146 34.38 
L 884.888125 34.38 
z
" clip-path="url(#p8b049ebfc4)" style="fill: #ffb0b0"/>
    <path d="M 886.833146 34.38 
L 886.833146 7.2 
L 888.778166 7.2 
L 888.778166 34.38 
L 886.833146 34.38 
z
" clip-path="url(#p8b049ebfc4)" style="fill: #ffbaba"/>
    <path d="M 888.778166 34.38 
L 888.778166 7.2 
L 890.723187 7.2 
L 890.723187 34.38 
L 888.778166 34.38 
z
" clip-path="url(#p8b049ebfc4)" style="fill: #ffb4b4"/>
    <path d="M 890.723187 34.38 
L 890.723187 7.2 
L 892.668207 7.2 
L 892.668207 34.38 
L 890.723187 34.38 
z
" clip-path="url(#p8b049ebfc4)" style="fill: #ffbebe"/>
    <path d="M 892.668207 34.38 
L 892.668207 7.2 
L 894.613228 7.2 
L 894.613228 34.38 
L 892.668207 34.38 
z
" clip-path="url(#p8b049ebfc4)" style="fill: #ffc0c0"/>
    <path d="M 894.613228 34.38 
L 894.613228 7.2 
L 896.558248 7.2 
L 896.558248 34.38 
L 894.613228 34.38 
z
" clip-path="url(#p8b049ebfc4)" style="fill: #ffcece"/>
    <path d="M 896.558248 34.38 
L 896.558248 7.2 
L 898.503269 7.2 
L 898.503269 34.38 
L 896.558248 34.38 
z
" clip-path="url(#p8b049ebfc4)" style="fill: #ff6262"/>
    <path d="M 898.503269 34.38 
L 898.503269 7.2 
L 900.44829 7.2 
L 900.44829 34.38 
L 898.503269 34.38 
z
" clip-path="url(#p8b049ebfc4)" style="fill: #ffdcdc"/>
    <path d="M 900.44829 34.38 
L 900.44829 7.2 
L 902.39331 7.2 
L 902.39331 34.38 
L 900.44829 34.38 
z
" clip-path="url(#p8b049ebfc4)" style="fill: #ffa4a4"/>
    <path d="M 902.39331 34.38 
L 902.39331 7.2 
L 904.338331 7.2 
L 904.338331 34.38 
L 902.39331 34.38 
z
" clip-path="url(#p8b049ebfc4)" style="fill: #ffcaca"/>
    <path d="M 904.338331 34.38 
L 904.338331 7.2 
L 906.283351 7.2 
L 906.283351 34.38 
L 904.338331 34.38 
z
" clip-path="url(#p8b049ebfc4)" style="fill: #babaff"/>
    <path d="M 906.283351 34.38 
L 906.283351 7.2 
L 908.228372 7.2 
L 908.228372 34.38 
L 906.283351 34.38 
z
" clip-path="url(#p8b049ebfc4)" style="fill: #aeaeff"/>
    <path d="M 908.228372 34.38 
L 908.228372 7.2 
L 910.173392 7.2 
L 910.173392 34.38 
L 908.228372 34.38 
z
" clip-path="url(#p8b049ebfc4)" style="fill: #7878ff"/>
    <path d="M 910.173392 34.38 
L 910.173392 7.2 
L 912.118413 7.2 
L 912.118413 34.38 
L 910.173392 34.38 
z
" clip-path="url(#p8b049ebfc4)" style="fill: #ffa2a2"/>
    <path d="M 912.118413 34.38 
L 912.118413 7.2 
L 914.063433 7.2 
L 914.063433 34.38 
L 912.118413 34.38 
z
" clip-path="url(#p8b049ebfc4)" style="fill: #dcdcff"/>
    <path d="M 914.063433 34.38 
L 914.063433 7.2 
L 916.008454 7.2 
L 916.008454 34.38 
L 914.063433 34.38 
z
" clip-path="url(#p8b049ebfc4)" style="fill: #d0d0ff"/>
    <path d="M 916.008454 34.38 
L 916.008454 7.2 
L 917.953474 7.2 
L 917.953474 34.38 
L 916.008454 34.38 
z
" clip-path="url(#p8b049ebfc4)" style="fill: #ffd4d4"/>
    <path d="M 917.953474 34.38 
L 917.953474 7.2 
L 919.898495 7.2 
L 919.898495 34.38 
L 917.953474 34.38 
z
" clip-path="url(#p8b049ebfc4)" style="fill: #e2e2ff"/>
    <path d="M 919.898495 34.38 
L 919.898495 7.2 
L 921.843515 7.2 
L 921.843515 34.38 
L 919.898495 34.38 
z
" clip-path="url(#p8b049ebfc4)" style="fill: #ffaeae"/>
    <path d="M 921.843515 34.38 
L 921.843515 7.2 
L 923.788536 7.2 
L 923.788536 34.38 
L 921.843515 34.38 
z
" clip-path="url(#p8b049ebfc4)" style="fill: #ffbcbc"/>
    <path d="M 923.788536 34.38 
L 923.788536 7.2 
L 925.733557 7.2 
L 925.733557 34.38 
L 923.788536 34.38 
z
" clip-path="url(#p8b049ebfc4)" style="fill: #ffd8d8"/>
    <path d="M 925.733557 34.38 
L 925.733557 7.2 
L 927.678577 7.2 
L 927.678577 34.38 
L 925.733557 34.38 
z
" clip-path="url(#p8b049ebfc4)" style="fill: #ffaeae"/>
    <path d="M 927.678577 34.38 
L 927.678577 7.2 
L 929.623598 7.2 
L 929.623598 34.38 
L 927.678577 34.38 
z
" clip-path="url(#p8b049ebfc4)" style="fill: #ffc6c6"/>
    <path d="M 929.623598 34.38 
L 929.623598 7.2 
L 931.568618 7.2 
L 931.568618 34.38 
L 929.623598 34.38 
z
" clip-path="url(#p8b049ebfc4)" style="fill: #ffa8a8"/>
    <path d="M 931.568618 34.38 
L 931.568618 7.2 
L 933.513639 7.2 
L 933.513639 34.38 
L 931.568618 34.38 
z
" clip-path="url(#p8b049ebfc4)" style="fill: #ff7070"/>
    <path d="M 933.513639 34.38 
L 933.513639 7.2 
L 935.458659 7.2 
L 935.458659 34.38 
L 933.513639 34.38 
z
" clip-path="url(#p8b049ebfc4)" style="fill: #ff9292"/>
    <path d="M 935.458659 34.38 
L 935.458659 7.2 
L 937.40368 7.2 
L 937.40368 34.38 
L 935.458659 34.38 
z
" clip-path="url(#p8b049ebfc4)" style="fill: #9696ff"/>
    <path d="M 937.40368 34.38 
L 937.40368 7.2 
L 939.3487 7.2 
L 939.3487 34.38 
L 937.40368 34.38 
z
" clip-path="url(#p8b049ebfc4)" style="fill: #ffd2d2"/>
    <path d="M 939.3487 34.38 
L 939.3487 7.2 
L 941.293721 7.2 
L 941.293721 34.38 
L 939.3487 34.38 
z
" clip-path="url(#p8b049ebfc4)" style="fill: #ffb2b2"/>
    <path d="M 941.293721 34.38 
L 941.293721 7.2 
L 943.238741 7.2 
L 943.238741 34.38 
L 941.293721 34.38 
z
" clip-path="url(#p8b049ebfc4)" style="fill: #ffbebe"/>
    <path d="M 943.238741 34.38 
L 943.238741 7.2 
L 945.183762 7.2 
L 945.183762 34.38 
L 943.238741 34.38 
z
" clip-path="url(#p8b049ebfc4)" style="fill: #ffdede"/>
    <path d="M 945.183762 34.38 
L 945.183762 7.2 
L 947.128782 7.2 
L 947.128782 34.38 
L 945.183762 34.38 
z
" clip-path="url(#p8b049ebfc4)" style="fill: #ffc4c4"/>
    <path d="M 947.128782 34.38 
L 947.128782 7.2 
L 949.073803 7.2 
L 949.073803 34.38 
L 947.128782 34.38 
z
" clip-path="url(#p8b049ebfc4)" style="fill: #ffd2d2"/>
    <path d="M 949.073803 34.38 
L 949.073803 7.2 
L 951.018824 7.2 
L 951.018824 34.38 
L 949.073803 34.38 
z
" clip-path="url(#p8b049ebfc4)" style="fill: #ffbaba"/>
    <path d="M 951.018824 34.38 
L 951.018824 7.2 
L 952.963844 7.2 
L 952.963844 34.38 
L 951.018824 34.38 
z
" clip-path="url(#p8b049ebfc4)" style="fill: #ffc2c2"/>
    <path d="M 952.963844 34.38 
L 952.963844 7.2 
L 954.908865 7.2 
L 954.908865 34.38 
L 952.963844 34.38 
z
" clip-path="url(#p8b049ebfc4)" style="fill: #dedeff"/>
    <path d="M 954.908865 34.38 
L 954.908865 7.2 
L 956.853885 7.2 
L 956.853885 34.38 
L 954.908865 34.38 
z
" clip-path="url(#p8b049ebfc4)" style="fill: #c0c0ff"/>
    <path d="M 956.853885 34.38 
L 956.853885 7.2 
L 958.798906 7.2 
L 958.798906 34.38 
L 956.853885 34.38 
z
" clip-path="url(#p8b049ebfc4)" style="fill: #c4c4ff"/>
    <path d="M 958.798906 34.38 
L 958.798906 7.2 
L 960.743926 7.2 
L 960.743926 34.38 
L 958.798906 34.38 
z
" clip-path="url(#p8b049ebfc4)" style="fill: #d6d6ff"/>
    <path d="M 960.743926 34.38 
L 960.743926 7.2 
L 962.688947 7.2 
L 962.688947 34.38 
L 960.743926 34.38 
z
" clip-path="url(#p8b049ebfc4)" style="fill: #dedeff"/>
    <path d="M 962.688947 34.38 
L 962.688947 7.2 
L 964.633967 7.2 
L 964.633967 34.38 
L 962.688947 34.38 
z
" clip-path="url(#p8b049ebfc4)" style="fill: #d2d2ff"/>
    <path d="M 964.633967 34.38 
L 964.633967 7.2 
L 966.578988 7.2 
L 966.578988 34.38 
L 964.633967 34.38 
z
" clip-path="url(#p8b049ebfc4)" style="fill: #bcbcff"/>
    <path d="M 966.578988 34.38 
L 966.578988 7.2 
L 968.524008 7.2 
L 968.524008 34.38 
L 966.578988 34.38 
z
" clip-path="url(#p8b049ebfc4)" style="fill: #c6c6ff"/>
    <path d="M 968.524008 34.38 
L 968.524008 7.2 
L 970.469029 7.2 
L 970.469029 34.38 
L 968.524008 34.38 
z
" clip-path="url(#p8b049ebfc4)" style="fill: #ffdcdc"/>
    <path d="M 970.469029 34.38 
L 970.469029 7.2 
L 972.41405 7.2 
L 972.41405 34.38 
L 970.469029 34.38 
z
" clip-path="url(#p8b049ebfc4)" style="fill: #ffe6e6"/>
    <path d="M 972.41405 34.38 
L 972.41405 7.2 
L 974.35907 7.2 
L 974.35907 34.38 
L 972.41405 34.38 
z
" clip-path="url(#p8b049ebfc4)" style="fill: #ffecec"/>
    <path d="M 974.35907 34.38 
L 974.35907 7.2 
L 976.304091 7.2 
L 976.304091 34.38 
L 974.35907 34.38 
z
" clip-path="url(#p8b049ebfc4)" style="fill: #ffe6e6"/>
    <path d="M 976.304091 34.38 
L 976.304091 7.2 
L 978.249111 7.2 
L 978.249111 34.38 
L 976.304091 34.38 
z
" clip-path="url(#p8b049ebfc4)" style="fill: #ffeaea"/>
    <path d="M 978.249111 34.38 
L 978.249111 7.2 
L 980.194132 7.2 
L 980.194132 34.38 
L 978.249111 34.38 
z
" clip-path="url(#p8b049ebfc4)" style="fill: #ffa2a2"/>
    <path d="M 980.194132 34.38 
L 980.194132 7.2 
L 982.139152 7.2 
L 982.139152 34.38 
L 980.194132 34.38 
z
" clip-path="url(#p8b049ebfc4)" style="fill: #ffdede"/>
    <path d="M 982.139152 34.38 
L 982.139152 7.2 
L 984.084173 7.2 
L 984.084173 34.38 
L 982.139152 34.38 
z
" clip-path="url(#p8b049ebfc4)" style="fill: #ffc0c0"/>
    <path d="M 984.084173 34.38 
L 984.084173 7.2 
L 986.029193 7.2 
L 986.029193 34.38 
L 984.084173 34.38 
z
" clip-path="url(#p8b049ebfc4)" style="fill: #ffe0e0"/>
    <path d="M 986.029193 34.38 
L 986.029193 7.2 
L 987.974214 7.2 
L 987.974214 34.38 
L 986.029193 34.38 
z
" clip-path="url(#p8b049ebfc4)" style="fill: #dcdcff"/>
    <path d="M 987.974214 34.38 
L 987.974214 7.2 
L 989.919234 7.2 
L 989.919234 34.38 
L 987.974214 34.38 
z
" clip-path="url(#p8b049ebfc4)" style="fill: #c4c4ff"/>
    <path d="M 989.919234 34.38 
L 989.919234 7.2 
L 991.864255 7.2 
L 991.864255 34.38 
L 989.919234 34.38 
z
" clip-path="url(#p8b049ebfc4)" style="fill: #d0d0ff"/>
    <path d="M 991.864255 34.38 
L 991.864255 7.2 
L 993.809275 7.2 
L 993.809275 34.38 
L 991.864255 34.38 
z
" clip-path="url(#p8b049ebfc4)" style="fill: #dadaff"/>
    <path d="M 993.809275 34.38 
L 993.809275 7.2 
L 995.754296 7.2 
L 995.754296 34.38 
L 993.809275 34.38 
z
" clip-path="url(#p8b049ebfc4)" style="fill: #e6e6ff"/>
    <path d="M 995.754296 34.38 
L 995.754296 7.2 
L 997.699317 7.2 
L 997.699317 34.38 
L 995.754296 34.38 
z
" clip-path="url(#p8b049ebfc4)" style="fill: #ffc0c0"/>
    <path d="M 997.699317 34.38 
L 997.699317 7.2 
L 999.644337 7.2 
L 999.644337 34.38 
L 997.699317 34.38 
z
" clip-path="url(#p8b049ebfc4)" style="fill: #ffbcbc"/>
    <path d="M 999.644337 34.38 
L 999.644337 7.2 
L 1001.589358 7.2 
L 1001.589358 34.38 
L 999.644337 34.38 
z
" clip-path="url(#p8b049ebfc4)" style="fill: #ffbebe"/>
    <path d="M 1001.589358 34.38 
L 1001.589358 7.2 
L 1003.534378 7.2 
L 1003.534378 34.38 
L 1001.589358 34.38 
z
" clip-path="url(#p8b049ebfc4)" style="fill: #ffe8e8"/>
    <path d="M 1003.534378 34.38 
L 1003.534378 7.2 
L 1005.479399 7.2 
L 1005.479399 34.38 
L 1003.534378 34.38 
z
" clip-path="url(#p8b049ebfc4)" style="fill: #ffecec"/>
    <path d="M 1005.479399 34.38 
L 1005.479399 7.2 
L 1007.424419 7.2 
L 1007.424419 34.38 
L 1005.479399 34.38 
z
" clip-path="url(#p8b049ebfc4)" style="fill: #ffecec"/>
    <path d="M 1007.424419 34.38 
L 1007.424419 7.2 
L 1009.36944 7.2 
L 1009.36944 34.38 
L 1007.424419 34.38 
z
" clip-path="url(#p8b049ebfc4)" style="fill: #ffe0e0"/>
    <path d="M 1009.36944 34.38 
L 1009.36944 7.2 
L 1011.31446 7.2 
L 1011.31446 34.38 
L 1009.36944 34.38 
z
" clip-path="url(#p8b049ebfc4)" style="fill: #ffe8e8"/>
    <path d="M 1011.31446 34.38 
L 1011.31446 7.2 
L 1013.259481 7.2 
L 1013.259481 34.38 
L 1011.31446 34.38 
z
" clip-path="url(#p8b049ebfc4)" style="fill: #ffe8e8"/>
    <path d="M 1013.259481 34.38 
L 1013.259481 7.2 
L 1015.204501 7.2 
L 1015.204501 34.38 
L 1013.259481 34.38 
z
" clip-path="url(#p8b049ebfc4)" style="fill: #ffdede"/>
    <path d="M 1015.204501 34.38 
L 1015.204501 7.2 
L 1017.149522 7.2 
L 1017.149522 34.38 
L 1015.204501 34.38 
z
" clip-path="url(#p8b049ebfc4)" style="fill: #ffe2e2"/>
    <path d="M 1017.149522 34.38 
L 1017.149522 7.2 
L 1019.094542 7.2 
L 1019.094542 34.38 
L 1017.149522 34.38 
z
" clip-path="url(#p8b049ebfc4)" style="fill: #ffe4e4"/>
    <path d="M 1019.094542 34.38 
L 1019.094542 7.2 
L 1021.039563 7.2 
L 1021.039563 34.38 
L 1019.094542 34.38 
z
" clip-path="url(#p8b049ebfc4)" style="fill: #ffa8a8"/>
    <path d="M 1021.039563 34.38 
L 1021.039563 7.2 
L 1022.984584 7.2 
L 1022.984584 34.38 
L 1021.039563 34.38 
z
" clip-path="url(#p8b049ebfc4)" style="fill: #ffbcbc"/>
    <path d="M 1022.984584 34.38 
L 1022.984584 7.2 
L 1024.929604 7.2 
L 1024.929604 34.38 
L 1022.984584 34.38 
z
" clip-path="url(#p8b049ebfc4)" style="fill: #ffbcbc"/>
    <path d="M 1024.929604 34.38 
L 1024.929604 7.2 
L 1026.874625 7.2 
L 1026.874625 34.38 
L 1024.929604 34.38 
z
" clip-path="url(#p8b049ebfc4)" style="fill: #ffdcdc"/>
    <path d="M 1026.874625 34.38 
L 1026.874625 7.2 
L 1028.819645 7.2 
L 1028.819645 34.38 
L 1026.874625 34.38 
z
" clip-path="url(#p8b049ebfc4)" style="fill: #ffe0e0"/>
    <path d="M 1028.819645 34.38 
L 1028.819645 7.2 
L 1030.764666 7.2 
L 1030.764666 34.38 
L 1028.819645 34.38 
z
" clip-path="url(#p8b049ebfc4)" style="fill: #ffdcdc"/>
    <path d="M 1030.764666 34.38 
L 1030.764666 7.2 
L 1032.709686 7.2 
L 1032.709686 34.38 
L 1030.764666 34.38 
z
" clip-path="url(#p8b049ebfc4)" style="fill: #ffaaaa"/>
    <path d="M 1032.709686 34.38 
L 1032.709686 7.2 
L 1034.654707 7.2 
L 1034.654707 34.38 
L 1032.709686 34.38 
z
" clip-path="url(#p8b049ebfc4)" style="fill: #ffaaaa"/>
    <path d="M 1034.654707 34.38 
L 1034.654707 7.2 
L 1036.599727 7.2 
L 1036.599727 34.38 
L 1034.654707 34.38 
z
" clip-path="url(#p8b049ebfc4)" style="fill: #ffacac"/>
   </g>
   <g id="patch_3">
    <path d="M 56.309375 34.38 
L 56.309375 7.2 
" style="fill: none; stroke: #262626; stroke-width: 1.25; stroke-linejoin: miter; stroke-linecap: square"/>
   </g>
   <g id="patch_4">
    <path d="M 1036.599727 34.38 
L 1036.599727 7.2 
" style="fill: none; stroke: #262626; stroke-width: 1.25; stroke-linejoin: miter; stroke-linecap: square"/>
   </g>
   <g id="patch_5">
    <path d="M 56.309375 34.38 
L 1036.599727 34.38 
" style="fill: none; stroke: #262626; stroke-width: 1.25; stroke-linejoin: miter; stroke-linecap: square"/>
   </g>
   <g id="patch_6">
    <path d="M 56.309375 7.2 
L 1036.599727 7.2 
" style="fill: none; stroke: #262626; stroke-width: 1.25; stroke-linejoin: miter; stroke-linecap: square"/>
   </g>
   <g id="text_6">
    <text style="fill: #262626; font: 18px 'sans-serif'; text-anchor: middle" x="243.031347" y="64.278" transform="rotate(-0, 243.031347, 64.278)">Cells</text>
   </g>
   <g id="text_7">
    <text style="fill: #262626; font: 18px 'sans-serif'; text-anchor: middle" x="639.815537" y="64.278" transform="rotate(-0, 639.815537, 64.278)">Cytoplasm</text>
   </g>
   <g id="text_8">
    <text style="fill: #262626; font: 18px 'sans-serif'; text-anchor: middle" x="941.293721" y="64.278" transform="rotate(-0, 941.293721, 64.278)">Nuclei</text>
   </g>
  </g>
 </g>
 <defs>
  <clipPath id="p8b049ebfc4">
   <rect x="56.309375" y="7.2" width="980.290352" height="27.18"/>
  </clipPath>
 </defs>
</svg>
