<?xml version="1.0" encoding="utf-8" standalone="no"?>
<!DOCTYPE svg PUBLIC "-//W3C//DTD SVG 1.1//EN"
  "http://www.w3.org/Graphics/SVG/1.1/DTD/svg11.dtd">
<svg xmlns:xlink="http://www.w3.org/1999/xlink" width="950.075729pt" height="75.266437pt" viewBox="0 0 950.075729 75.266437" xmlns="http://www.w3.org/2000/svg" version="1.1">
 <metadata>
  <rdf:RDF xmlns:dc="http://purl.org/dc/elements/1.1/" xmlns:cc="http://creativecommons.org/ns#" xmlns:rdf="http://www.w3.org/1999/02/22-rdf-syntax-ns#">
   <cc:Work>
    <dc:type rdf:resource="http://purl.org/dc/dcmitype/StillImage"/>
    <dc:date>2023-02-13T13:56:29.264016</dc:date>
    <dc:format>image/svg+xml</dc:format>
    <dc:creator>
     <cc:Agent>
      <dc:title>Matplotlib v3.5.1, https://matplotlib.org/</dc:title>
     </cc:Agent>
    </dc:creator>
   </cc:Work>
  </rdf:RDF>
 </metadata>
 <defs>
  <style type="text/css">*{stroke-linejoin: round; stroke-linecap: butt}</style>
 </defs>
 <g id="figure_1">
  <g id="patch_1">
   <path d="M 0 75.266437 
L 950.075729 75.266437 
L 950.075729 0 
L 0 0 
z
" style="fill: #ffffff"/>
  </g>
  <g id="axes_1">
   <g id="patch_2">
    <path d="M 81.140625 34.38 
L 930.36362 34.38 
L 930.36362 7.2 
L 81.140625 7.2 
z
" style="fill: #ffffff"/>
   </g>
   <g id="matplotlib.axis_1">
    <g id="xtick_1">
     <g id="line2d_1"/>
     <g id="text_1">
      <text style="fill: #262626; font: 15px 'sans-serif'; text-anchor: middle" x="83.143509" y="54.216719" transform="rotate(-0, 83.143509, 54.216719)">1</text>
     </g>
    </g>
    <g id="xtick_2">
     <g id="line2d_2"/>
     <g id="text_2">
      <text style="fill: #262626; font: 15px 'sans-serif'; text-anchor: middle" x="409.61367" y="54.216719" transform="rotate(-0, 409.61367, 54.216719)">164</text>
     </g>
    </g>
    <g id="xtick_3">
     <g id="line2d_3"/>
     <g id="text_3">
      <text style="fill: #262626; font: 15px 'sans-serif'; text-anchor: middle" x="770.132866" y="54.216719" transform="rotate(-0, 770.132866, 54.216719)">344</text>
     </g>
    </g>
    <g id="xtick_4">
     <g id="line2d_4"/>
     <g id="text_4">
      <text style="fill: #262626; font: 15px 'sans-serif'; text-anchor: middle" x="930.36362" y="54.216719" transform="rotate(-0, 930.36362, 54.216719)">424</text>
     </g>
    </g>
   </g>
   <g id="matplotlib.axis_2">
    <g id="ytick_1">
     <g id="line2d_5"/>
     <g id="text_5">
      <text style="fill: #262626; font: 20px 'sans-serif'; text-anchor: end" x="72.040625" y="27.947812" transform="rotate(-0, 72.040625, 27.947812)">Tubulin</text>
     </g>
    </g>
   </g>
   <g id="PolyCollection_1">
    <path d="M 81.140625 34.38 
L 81.140625 7.2 
L 83.143509 7.2 
L 83.143509 34.38 
L 81.140625 34.38 
z
" clip-path="url(#p5197d272b9)" style="fill: #7272ff"/>
    <path d="M 83.143509 34.38 
L 83.143509 7.2 
L 85.146394 7.2 
L 85.146394 34.38 
L 83.143509 34.38 
z
" clip-path="url(#p5197d272b9)" style="fill: #8c8cff"/>
    <path d="M 85.146394 34.38 
L 85.146394 7.2 
L 87.149278 7.2 
L 87.149278 34.38 
L 85.146394 34.38 
z
" clip-path="url(#p5197d272b9)" style="fill: #2a2aff"/>
    <path d="M 87.149278 34.38 
L 87.149278 7.2 
L 89.152163 7.2 
L 89.152163 34.38 
L 87.149278 34.38 
z
" clip-path="url(#p5197d272b9)" style="fill: #ffb0b0"/>
    <path d="M 89.152163 34.38 
L 89.152163 7.2 
L 91.155047 7.2 
L 91.155047 34.38 
L 89.152163 34.38 
z
" clip-path="url(#p5197d272b9)" style="fill: #ffd4d4"/>
    <path d="M 91.155047 34.38 
L 91.155047 7.2 
L 93.157932 7.2 
L 93.157932 34.38 
L 91.155047 34.38 
z
" clip-path="url(#p5197d272b9)" style="fill: #ffecec"/>
    <path d="M 93.157932 34.38 
L 93.157932 7.2 
L 95.160816 7.2 
L 95.160816 34.38 
L 93.157932 34.38 
z
" clip-path="url(#p5197d272b9)" style="fill: #ffd6d6"/>
    <path d="M 95.160816 34.38 
L 95.160816 7.2 
L 97.1637 7.2 
L 97.1637 34.38 
L 95.160816 34.38 
z
" clip-path="url(#p5197d272b9)" style="fill: #ffbaba"/>
    <path d="M 97.1637 34.38 
L 97.1637 7.2 
L 99.166585 7.2 
L 99.166585 34.38 
L 97.1637 34.38 
z
" clip-path="url(#p5197d272b9)" style="fill: #ffd6d6"/>
    <path d="M 99.166585 34.38 
L 99.166585 7.2 
L 101.169469 7.2 
L 101.169469 34.38 
L 99.166585 34.38 
z
" clip-path="url(#p5197d272b9)" style="fill: #ffbaba"/>
    <path d="M 101.169469 34.38 
L 101.169469 7.2 
L 103.172354 7.2 
L 103.172354 34.38 
L 101.169469 34.38 
z
" clip-path="url(#p5197d272b9)" style="fill: #fff2f2"/>
    <path d="M 103.172354 34.38 
L 103.172354 7.2 
L 105.175238 7.2 
L 105.175238 34.38 
L 103.172354 34.38 
z
" clip-path="url(#p5197d272b9)" style="fill: #ffbcbc"/>
    <path d="M 105.175238 34.38 
L 105.175238 7.2 
L 107.178122 7.2 
L 107.178122 34.38 
L 105.175238 34.38 
z
" clip-path="url(#p5197d272b9)" style="fill: #ffe8e8"/>
    <path d="M 107.178122 34.38 
L 107.178122 7.2 
L 109.181007 7.2 
L 109.181007 34.38 
L 107.178122 34.38 
z
" clip-path="url(#p5197d272b9)" style="fill: #f4f4ff"/>
    <path d="M 109.181007 34.38 
L 109.181007 7.2 
L 111.183891 7.2 
L 111.183891 34.38 
L 109.181007 34.38 
z
" clip-path="url(#p5197d272b9)" style="fill: #c6c6ff"/>
    <path d="M 111.183891 34.38 
L 111.183891 7.2 
L 113.186776 7.2 
L 113.186776 34.38 
L 111.183891 34.38 
z
" clip-path="url(#p5197d272b9)" style="fill: #ffbaba"/>
    <path d="M 113.186776 34.38 
L 113.186776 7.2 
L 115.18966 7.2 
L 115.18966 34.38 
L 113.186776 34.38 
z
" clip-path="url(#p5197d272b9)" style="fill: #2a2aff"/>
    <path d="M 115.18966 34.38 
L 115.18966 7.2 
L 117.192545 7.2 
L 117.192545 34.38 
L 115.18966 34.38 
z
" clip-path="url(#p5197d272b9)" style="fill: #ffc2c2"/>
    <path d="M 117.192545 34.38 
L 117.192545 7.2 
L 119.195429 7.2 
L 119.195429 34.38 
L 117.192545 34.38 
z
" clip-path="url(#p5197d272b9)" style="fill: #ff9292"/>
    <path d="M 119.195429 34.38 
L 119.195429 7.2 
L 121.198313 7.2 
L 121.198313 34.38 
L 119.195429 34.38 
z
" clip-path="url(#p5197d272b9)" style="fill: #ff8080"/>
    <path d="M 121.198313 34.38 
L 121.198313 7.2 
L 123.201198 7.2 
L 123.201198 34.38 
L 121.198313 34.38 
z
" clip-path="url(#p5197d272b9)" style="fill: #ff8888"/>
    <path d="M 123.201198 34.38 
L 123.201198 7.2 
L 125.204082 7.2 
L 125.204082 34.38 
L 123.201198 34.38 
z
" clip-path="url(#p5197d272b9)" style="fill: #eaeaff"/>
    <path d="M 125.204082 34.38 
L 125.204082 7.2 
L 127.206967 7.2 
L 127.206967 34.38 
L 125.204082 34.38 
z
" clip-path="url(#p5197d272b9)" style="fill: #ffbebe"/>
    <path d="M 127.206967 34.38 
L 127.206967 7.2 
L 129.209851 7.2 
L 129.209851 34.38 
L 127.206967 34.38 
z
" clip-path="url(#p5197d272b9)" style="fill: #dadaff"/>
    <path d="M 129.209851 34.38 
L 129.209851 7.2 
L 131.212736 7.2 
L 131.212736 34.38 
L 129.209851 34.38 
z
" clip-path="url(#p5197d272b9)" style="fill: #ffc8c8"/>
    <path d="M 131.212736 34.38 
L 131.212736 7.2 
L 133.21562 7.2 
L 133.21562 34.38 
L 131.212736 34.38 
z
" clip-path="url(#p5197d272b9)" style="fill: #d4d4ff"/>
    <path d="M 133.21562 34.38 
L 133.21562 7.2 
L 135.218504 7.2 
L 135.218504 34.38 
L 133.21562 34.38 
z
" clip-path="url(#p5197d272b9)" style="fill: #c0c0ff"/>
    <path d="M 135.218504 34.38 
L 135.218504 7.2 
L 137.221389 7.2 
L 137.221389 34.38 
L 135.218504 34.38 
z
" clip-path="url(#p5197d272b9)" style="fill: #bebeff"/>
    <path d="M 137.221389 34.38 
L 137.221389 7.2 
L 139.224273 7.2 
L 139.224273 34.38 
L 137.221389 34.38 
z
" clip-path="url(#p5197d272b9)" style="fill: #ffcaca"/>
    <path d="M 139.224273 34.38 
L 139.224273 7.2 
L 141.227158 7.2 
L 141.227158 34.38 
L 139.224273 34.38 
z
" clip-path="url(#p5197d272b9)" style="fill: #e6e6ff"/>
    <path d="M 141.227158 34.38 
L 141.227158 7.2 
L 143.230042 7.2 
L 143.230042 34.38 
L 141.227158 34.38 
z
" clip-path="url(#p5197d272b9)" style="fill: #ff9292"/>
    <path d="M 143.230042 34.38 
L 143.230042 7.2 
L 145.232926 7.2 
L 145.232926 34.38 
L 143.230042 34.38 
z
" clip-path="url(#p5197d272b9)" style="fill: #ffcaca"/>
    <path d="M 145.232926 34.38 
L 145.232926 7.2 
L 147.235811 7.2 
L 147.235811 34.38 
L 145.232926 34.38 
z
" clip-path="url(#p5197d272b9)" style="fill: #ffc0c0"/>
    <path d="M 147.235811 34.38 
L 147.235811 7.2 
L 149.238695 7.2 
L 149.238695 34.38 
L 147.235811 34.38 
z
" clip-path="url(#p5197d272b9)" style="fill: #ff6e6e"/>
    <path d="M 149.238695 34.38 
L 149.238695 7.2 
L 151.24158 7.2 
L 151.24158 34.38 
L 149.238695 34.38 
z
" clip-path="url(#p5197d272b9)" style="fill: #ffb0b0"/>
    <path d="M 151.24158 34.38 
L 151.24158 7.2 
L 153.244464 7.2 
L 153.244464 34.38 
L 151.24158 34.38 
z
" clip-path="url(#p5197d272b9)" style="fill: #ffcaca"/>
    <path d="M 153.244464 34.38 
L 153.244464 7.2 
L 155.247349 7.2 
L 155.247349 34.38 
L 153.244464 34.38 
z
" clip-path="url(#p5197d272b9)" style="fill: #ffcece"/>
    <path d="M 155.247349 34.38 
L 155.247349 7.2 
L 157.250233 7.2 
L 157.250233 34.38 
L 155.247349 34.38 
z
" clip-path="url(#p5197d272b9)" style="fill: #ffc0c0"/>
    <path d="M 157.250233 34.38 
L 157.250233 7.2 
L 159.253117 7.2 
L 159.253117 34.38 
L 157.250233 34.38 
z
" clip-path="url(#p5197d272b9)" style="fill: #ff9a9a"/>
    <path d="M 159.253117 34.38 
L 159.253117 7.2 
L 161.256002 7.2 
L 161.256002 34.38 
L 159.253117 34.38 
z
" clip-path="url(#p5197d272b9)" style="fill: #ffc2c2"/>
    <path d="M 161.256002 34.38 
L 161.256002 7.2 
L 163.258886 7.2 
L 163.258886 34.38 
L 161.256002 34.38 
z
" clip-path="url(#p5197d272b9)" style="fill: #ffdcdc"/>
    <path d="M 163.258886 34.38 
L 163.258886 7.2 
L 165.261771 7.2 
L 165.261771 34.38 
L 163.258886 34.38 
z
" clip-path="url(#p5197d272b9)" style="fill: #ffd6d6"/>
    <path d="M 165.261771 34.38 
L 165.261771 7.2 
L 167.264655 7.2 
L 167.264655 34.38 
L 165.261771 34.38 
z
" clip-path="url(#p5197d272b9)" style="fill: #ffeeee"/>
    <path d="M 167.264655 34.38 
L 167.264655 7.2 
L 169.26754 7.2 
L 169.26754 34.38 
L 167.264655 34.38 
z
" clip-path="url(#p5197d272b9)" style="fill: #ffe2e2"/>
    <path d="M 169.26754 34.38 
L 169.26754 7.2 
L 171.270424 7.2 
L 171.270424 34.38 
L 169.26754 34.38 
z
" clip-path="url(#p5197d272b9)" style="fill: #ffdede"/>
    <path d="M 171.270424 34.38 
L 171.270424 7.2 
L 173.273308 7.2 
L 173.273308 34.38 
L 171.270424 34.38 
z
" clip-path="url(#p5197d272b9)" style="fill: #ff8888"/>
    <path d="M 173.273308 34.38 
L 173.273308 7.2 
L 175.276193 7.2 
L 175.276193 34.38 
L 173.273308 34.38 
z
" clip-path="url(#p5197d272b9)" style="fill: #ffacac"/>
    <path d="M 175.276193 34.38 
L 175.276193 7.2 
L 177.279077 7.2 
L 177.279077 34.38 
L 175.276193 34.38 
z
" clip-path="url(#p5197d272b9)" style="fill: #ffb8b8"/>
    <path d="M 177.279077 34.38 
L 177.279077 7.2 
L 179.281962 7.2 
L 179.281962 34.38 
L 177.279077 34.38 
z
" clip-path="url(#p5197d272b9)" style="fill: #ffbcbc"/>
    <path d="M 179.281962 34.38 
L 179.281962 7.2 
L 181.284846 7.2 
L 181.284846 34.38 
L 179.281962 34.38 
z
" clip-path="url(#p5197d272b9)" style="fill: #ff9494"/>
    <path d="M 181.284846 34.38 
L 181.284846 7.2 
L 183.287731 7.2 
L 183.287731 34.38 
L 181.284846 34.38 
z
" clip-path="url(#p5197d272b9)" style="fill: #ff9c9c"/>
    <path d="M 183.287731 34.38 
L 183.287731 7.2 
L 185.290615 7.2 
L 185.290615 34.38 
L 183.287731 34.38 
z
" clip-path="url(#p5197d272b9)" style="fill: #ff9090"/>
    <path d="M 185.290615 34.38 
L 185.290615 7.2 
L 187.293499 7.2 
L 187.293499 34.38 
L 185.290615 34.38 
z
" clip-path="url(#p5197d272b9)" style="fill: #ffdede"/>
    <path d="M 187.293499 34.38 
L 187.293499 7.2 
L 189.296384 7.2 
L 189.296384 34.38 
L 187.293499 34.38 
z
" clip-path="url(#p5197d272b9)" style="fill: #ffbcbc"/>
    <path d="M 189.296384 34.38 
L 189.296384 7.2 
L 191.299268 7.2 
L 191.299268 34.38 
L 189.296384 34.38 
z
" clip-path="url(#p5197d272b9)" style="fill: #ff7e7e"/>
    <path d="M 191.299268 34.38 
L 191.299268 7.2 
L 193.302153 7.2 
L 193.302153 34.38 
L 191.299268 34.38 
z
" clip-path="url(#p5197d272b9)" style="fill: #7c7cff"/>
    <path d="M 193.302153 34.38 
L 193.302153 7.2 
L 195.305037 7.2 
L 195.305037 34.38 
L 193.302153 34.38 
z
" clip-path="url(#p5197d272b9)" style="fill: #ff8080"/>
    <path d="M 195.305037 34.38 
L 195.305037 7.2 
L 197.307921 7.2 
L 197.307921 34.38 
L 195.305037 34.38 
z
" clip-path="url(#p5197d272b9)" style="fill: #ff8484"/>
    <path d="M 197.307921 34.38 
L 197.307921 7.2 
L 199.310806 7.2 
L 199.310806 34.38 
L 197.307921 34.38 
z
" clip-path="url(#p5197d272b9)" style="fill: #6c6cff"/>
    <path d="M 199.310806 34.38 
L 199.310806 7.2 
L 201.31369 7.2 
L 201.31369 34.38 
L 199.310806 34.38 
z
" clip-path="url(#p5197d272b9)" style="fill: #ffe8e8"/>
    <path d="M 201.31369 34.38 
L 201.31369 7.2 
L 203.316575 7.2 
L 203.316575 34.38 
L 201.31369 34.38 
z
" clip-path="url(#p5197d272b9)" style="fill: #dadaff"/>
    <path d="M 203.316575 34.38 
L 203.316575 7.2 
L 205.319459 7.2 
L 205.319459 34.38 
L 203.316575 34.38 
z
" clip-path="url(#p5197d272b9)" style="fill: #d8d8ff"/>
    <path d="M 205.319459 34.38 
L 205.319459 7.2 
L 207.322344 7.2 
L 207.322344 34.38 
L 205.319459 34.38 
z
" clip-path="url(#p5197d272b9)" style="fill: #ffe4e4"/>
    <path d="M 207.322344 34.38 
L 207.322344 7.2 
L 209.325228 7.2 
L 209.325228 34.38 
L 207.322344 34.38 
z
" clip-path="url(#p5197d272b9)" style="fill: #d8d8ff"/>
    <path d="M 209.325228 34.38 
L 209.325228 7.2 
L 211.328112 7.2 
L 211.328112 34.38 
L 209.325228 34.38 
z
" clip-path="url(#p5197d272b9)" style="fill: #ffc0c0"/>
    <path d="M 211.328112 34.38 
L 211.328112 7.2 
L 213.330997 7.2 
L 213.330997 34.38 
L 211.328112 34.38 
z
" clip-path="url(#p5197d272b9)" style="fill: #ff9292"/>
    <path d="M 213.330997 34.38 
L 213.330997 7.2 
L 215.333881 7.2 
L 215.333881 34.38 
L 213.330997 34.38 
z
" clip-path="url(#p5197d272b9)" style="fill: #ffc6c6"/>
    <path d="M 215.333881 34.38 
L 215.333881 7.2 
L 217.336766 7.2 
L 217.336766 34.38 
L 215.333881 34.38 
z
" clip-path="url(#p5197d272b9)" style="fill: #dcdcff"/>
    <path d="M 217.336766 34.38 
L 217.336766 7.2 
L 219.33965 7.2 
L 219.33965 34.38 
L 217.336766 34.38 
z
" clip-path="url(#p5197d272b9)" style="fill: #dedeff"/>
    <path d="M 219.33965 34.38 
L 219.33965 7.2 
L 221.342535 7.2 
L 221.342535 34.38 
L 219.33965 34.38 
z
" clip-path="url(#p5197d272b9)" style="fill: #e0e0ff"/>
    <path d="M 221.342535 34.38 
L 221.342535 7.2 
L 223.345419 7.2 
L 223.345419 34.38 
L 221.342535 34.38 
z
" clip-path="url(#p5197d272b9)" style="fill: #b2b2ff"/>
    <path d="M 223.345419 34.38 
L 223.345419 7.2 
L 225.348303 7.2 
L 225.348303 34.38 
L 223.345419 34.38 
z
" clip-path="url(#p5197d272b9)" style="fill: #acacff"/>
    <path d="M 225.348303 34.38 
L 225.348303 7.2 
L 227.351188 7.2 
L 227.351188 34.38 
L 225.348303 34.38 
z
" clip-path="url(#p5197d272b9)" style="fill: #a8a8ff"/>
    <path d="M 227.351188 34.38 
L 227.351188 7.2 
L 229.354072 7.2 
L 229.354072 34.38 
L 227.351188 34.38 
z
" clip-path="url(#p5197d272b9)" style="fill: #dcdcff"/>
    <path d="M 229.354072 34.38 
L 229.354072 7.2 
L 231.356957 7.2 
L 231.356957 34.38 
L 229.354072 34.38 
z
" clip-path="url(#p5197d272b9)" style="fill: #ff9898"/>
    <path d="M 231.356957 34.38 
L 231.356957 7.2 
L 233.359841 7.2 
L 233.359841 34.38 
L 231.356957 34.38 
z
" clip-path="url(#p5197d272b9)" style="fill: #ff9696"/>
    <path d="M 233.359841 34.38 
L 233.359841 7.2 
L 235.362725 7.2 
L 235.362725 34.38 
L 233.359841 34.38 
z
" clip-path="url(#p5197d272b9)" style="fill: #ffd0d0"/>
    <path d="M 235.362725 34.38 
L 235.362725 7.2 
L 237.36561 7.2 
L 237.36561 34.38 
L 235.362725 34.38 
z
" clip-path="url(#p5197d272b9)" style="fill: #ffa6a6"/>
    <path d="M 237.36561 34.38 
L 237.36561 7.2 
L 239.368494 7.2 
L 239.368494 34.38 
L 237.36561 34.38 
z
" clip-path="url(#p5197d272b9)" style="fill: #ffa2a2"/>
    <path d="M 239.368494 34.38 
L 239.368494 7.2 
L 241.371379 7.2 
L 241.371379 34.38 
L 239.368494 34.38 
z
" clip-path="url(#p5197d272b9)" style="fill: #ffa2a2"/>
    <path d="M 241.371379 34.38 
L 241.371379 7.2 
L 243.374263 7.2 
L 243.374263 34.38 
L 241.371379 34.38 
z
" clip-path="url(#p5197d272b9)" style="fill: #ff9090"/>
    <path d="M 243.374263 34.38 
L 243.374263 7.2 
L 245.377148 7.2 
L 245.377148 34.38 
L 243.374263 34.38 
z
" clip-path="url(#p5197d272b9)" style="fill: #ff9292"/>
    <path d="M 245.377148 34.38 
L 245.377148 7.2 
L 247.380032 7.2 
L 247.380032 34.38 
L 245.377148 34.38 
z
" clip-path="url(#p5197d272b9)" style="fill: #ff9292"/>
    <path d="M 247.380032 34.38 
L 247.380032 7.2 
L 249.382916 7.2 
L 249.382916 34.38 
L 247.380032 34.38 
z
" clip-path="url(#p5197d272b9)" style="fill: #ff9898"/>
    <path d="M 249.382916 34.38 
L 249.382916 7.2 
L 251.385801 7.2 
L 251.385801 34.38 
L 249.382916 34.38 
z
" clip-path="url(#p5197d272b9)" style="fill: #ffa4a4"/>
    <path d="M 251.385801 34.38 
L 251.385801 7.2 
L 253.388685 7.2 
L 253.388685 34.38 
L 251.385801 34.38 
z
" clip-path="url(#p5197d272b9)" style="fill: #ff9c9c"/>
    <path d="M 253.388685 34.38 
L 253.388685 7.2 
L 255.39157 7.2 
L 255.39157 34.38 
L 253.388685 34.38 
z
" clip-path="url(#p5197d272b9)" style="fill: #ffc8c8"/>
    <path d="M 255.39157 34.38 
L 255.39157 7.2 
L 257.394454 7.2 
L 257.394454 34.38 
L 255.39157 34.38 
z
" clip-path="url(#p5197d272b9)" style="fill: #ffdede"/>
    <path d="M 257.394454 34.38 
L 257.394454 7.2 
L 259.397339 7.2 
L 259.397339 34.38 
L 257.394454 34.38 
z
" clip-path="url(#p5197d272b9)" style="fill: #ffe6e6"/>
    <path d="M 259.397339 34.38 
L 259.397339 7.2 
L 261.400223 7.2 
L 261.400223 34.38 
L 259.397339 34.38 
z
" clip-path="url(#p5197d272b9)" style="fill: #ffb0b0"/>
    <path d="M 261.400223 34.38 
L 261.400223 7.2 
L 263.403107 7.2 
L 263.403107 34.38 
L 261.400223 34.38 
z
" clip-path="url(#p5197d272b9)" style="fill: #ffbebe"/>
    <path d="M 263.403107 34.38 
L 263.403107 7.2 
L 265.405992 7.2 
L 265.405992 34.38 
L 263.403107 34.38 
z
" clip-path="url(#p5197d272b9)" style="fill: #ffc0c0"/>
    <path d="M 265.405992 34.38 
L 265.405992 7.2 
L 267.408876 7.2 
L 267.408876 34.38 
L 265.405992 34.38 
z
" clip-path="url(#p5197d272b9)" style="fill: #ffc0c0"/>
    <path d="M 267.408876 34.38 
L 267.408876 7.2 
L 269.411761 7.2 
L 269.411761 34.38 
L 267.408876 34.38 
z
" clip-path="url(#p5197d272b9)" style="fill: #ffaeae"/>
    <path d="M 269.411761 34.38 
L 269.411761 7.2 
L 271.414645 7.2 
L 271.414645 34.38 
L 269.411761 34.38 
z
" clip-path="url(#p5197d272b9)" style="fill: #ffaeae"/>
    <path d="M 271.414645 34.38 
L 271.414645 7.2 
L 273.417529 7.2 
L 273.417529 34.38 
L 271.414645 34.38 
z
" clip-path="url(#p5197d272b9)" style="fill: #ffb0b0"/>
    <path d="M 273.417529 34.38 
L 273.417529 7.2 
L 275.420414 7.2 
L 275.420414 34.38 
L 273.417529 34.38 
z
" clip-path="url(#p5197d272b9)" style="fill: #ffb6b6"/>
    <path d="M 275.420414 34.38 
L 275.420414 7.2 
L 277.423298 7.2 
L 277.423298 34.38 
L 275.420414 34.38 
z
" clip-path="url(#p5197d272b9)" style="fill: #ffb4b4"/>
    <path d="M 277.423298 34.38 
L 277.423298 7.2 
L 279.426183 7.2 
L 279.426183 34.38 
L 277.423298 34.38 
z
" clip-path="url(#p5197d272b9)" style="fill: #ffb4b4"/>
    <path d="M 279.426183 34.38 
L 279.426183 7.2 
L 281.429067 7.2 
L 281.429067 34.38 
L 279.426183 34.38 
z
" clip-path="url(#p5197d272b9)" style="fill: #ceceff"/>
    <path d="M 281.429067 34.38 
L 281.429067 7.2 
L 283.431952 7.2 
L 283.431952 34.38 
L 281.429067 34.38 
z
" clip-path="url(#p5197d272b9)" style="fill: #cacaff"/>
    <path d="M 283.431952 34.38 
L 283.431952 7.2 
L 285.434836 7.2 
L 285.434836 34.38 
L 283.431952 34.38 
z
" clip-path="url(#p5197d272b9)" style="fill: #cacaff"/>
    <path d="M 285.434836 34.38 
L 285.434836 7.2 
L 287.43772 7.2 
L 287.43772 34.38 
L 285.434836 34.38 
z
" clip-path="url(#p5197d272b9)" style="fill: #b6b6ff"/>
    <path d="M 287.43772 34.38 
L 287.43772 7.2 
L 289.440605 7.2 
L 289.440605 34.38 
L 287.43772 34.38 
z
" clip-path="url(#p5197d272b9)" style="fill: #b4b4ff"/>
    <path d="M 289.440605 34.38 
L 289.440605 7.2 
L 291.443489 7.2 
L 291.443489 34.38 
L 289.440605 34.38 
z
" clip-path="url(#p5197d272b9)" style="fill: #b8b8ff"/>
    <path d="M 291.443489 34.38 
L 291.443489 7.2 
L 293.446374 7.2 
L 293.446374 34.38 
L 291.443489 34.38 
z
" clip-path="url(#p5197d272b9)" style="fill: #c0c0ff"/>
    <path d="M 293.446374 34.38 
L 293.446374 7.2 
L 295.449258 7.2 
L 295.449258 34.38 
L 293.446374 34.38 
z
" clip-path="url(#p5197d272b9)" style="fill: #c8c8ff"/>
    <path d="M 295.449258 34.38 
L 295.449258 7.2 
L 297.452143 7.2 
L 297.452143 34.38 
L 295.449258 34.38 
z
" clip-path="url(#p5197d272b9)" style="fill: #ffd4d4"/>
    <path d="M 297.452143 34.38 
L 297.452143 7.2 
L 299.455027 7.2 
L 299.455027 34.38 
L 297.452143 34.38 
z
" clip-path="url(#p5197d272b9)" style="fill: #ffd2d2"/>
    <path d="M 299.455027 34.38 
L 299.455027 7.2 
L 301.457911 7.2 
L 301.457911 34.38 
L 299.455027 34.38 
z
" clip-path="url(#p5197d272b9)" style="fill: #ffd4d4"/>
    <path d="M 301.457911 34.38 
L 301.457911 7.2 
L 303.460796 7.2 
L 303.460796 34.38 
L 301.457911 34.38 
z
" clip-path="url(#p5197d272b9)" style="fill: #ffb6b6"/>
    <path d="M 303.460796 34.38 
L 303.460796 7.2 
L 305.46368 7.2 
L 305.46368 34.38 
L 303.460796 34.38 
z
" clip-path="url(#p5197d272b9)" style="fill: #ffaeae"/>
    <path d="M 305.46368 34.38 
L 305.46368 7.2 
L 307.466565 7.2 
L 307.466565 34.38 
L 305.46368 34.38 
z
" clip-path="url(#p5197d272b9)" style="fill: #ffb6b6"/>
    <path d="M 307.466565 34.38 
L 307.466565 7.2 
L 309.469449 7.2 
L 309.469449 34.38 
L 307.466565 34.38 
z
" clip-path="url(#p5197d272b9)" style="fill: #ffd4d4"/>
    <path d="M 309.469449 34.38 
L 309.469449 7.2 
L 311.472334 7.2 
L 311.472334 34.38 
L 309.469449 34.38 
z
" clip-path="url(#p5197d272b9)" style="fill: #ffd0d0"/>
    <path d="M 311.472334 34.38 
L 311.472334 7.2 
L 313.475218 7.2 
L 313.475218 34.38 
L 311.472334 34.38 
z
" clip-path="url(#p5197d272b9)" style="fill: #ffd4d4"/>
    <path d="M 313.475218 34.38 
L 313.475218 7.2 
L 315.478102 7.2 
L 315.478102 34.38 
L 313.475218 34.38 
z
" clip-path="url(#p5197d272b9)" style="fill: #ff9898"/>
    <path d="M 315.478102 34.38 
L 315.478102 7.2 
L 317.480987 7.2 
L 317.480987 34.38 
L 315.478102 34.38 
z
" clip-path="url(#p5197d272b9)" style="fill: #ffa8a8"/>
    <path d="M 317.480987 34.38 
L 317.480987 7.2 
L 319.483871 7.2 
L 319.483871 34.38 
L 317.480987 34.38 
z
" clip-path="url(#p5197d272b9)" style="fill: #ff9a9a"/>
    <path d="M 319.483871 34.38 
L 319.483871 7.2 
L 321.486756 7.2 
L 321.486756 34.38 
L 319.483871 34.38 
z
" clip-path="url(#p5197d272b9)" style="fill: #9494ff"/>
    <path d="M 321.486756 34.38 
L 321.486756 7.2 
L 323.48964 7.2 
L 323.48964 34.38 
L 321.486756 34.38 
z
" clip-path="url(#p5197d272b9)" style="fill: #9898ff"/>
    <path d="M 323.48964 34.38 
L 323.48964 7.2 
L 325.492524 7.2 
L 325.492524 34.38 
L 323.48964 34.38 
z
" clip-path="url(#p5197d272b9)" style="fill: #9292ff"/>
    <path d="M 325.492524 34.38 
L 325.492524 7.2 
L 327.495409 7.2 
L 327.495409 34.38 
L 325.492524 34.38 
z
" clip-path="url(#p5197d272b9)" style="fill: #c4c4ff"/>
    <path d="M 327.495409 34.38 
L 327.495409 7.2 
L 329.498293 7.2 
L 329.498293 34.38 
L 327.495409 34.38 
z
" clip-path="url(#p5197d272b9)" style="fill: #c8c8ff"/>
    <path d="M 329.498293 34.38 
L 329.498293 7.2 
L 331.501178 7.2 
L 331.501178 34.38 
L 329.498293 34.38 
z
" clip-path="url(#p5197d272b9)" style="fill: #cacaff"/>
    <path d="M 331.501178 34.38 
L 331.501178 7.2 
L 333.504062 7.2 
L 333.504062 34.38 
L 331.501178 34.38 
z
" clip-path="url(#p5197d272b9)" style="fill: #9e9eff"/>
    <path d="M 333.504062 34.38 
L 333.504062 7.2 
L 335.506947 7.2 
L 335.506947 34.38 
L 333.504062 34.38 
z
" clip-path="url(#p5197d272b9)" style="fill: #aeaeff"/>
    <path d="M 335.506947 34.38 
L 335.506947 7.2 
L 337.509831 7.2 
L 337.509831 34.38 
L 335.506947 34.38 
z
" clip-path="url(#p5197d272b9)" style="fill: #a4a4ff"/>
    <path d="M 337.509831 34.38 
L 337.509831 7.2 
L 339.512715 7.2 
L 339.512715 34.38 
L 337.509831 34.38 
z
" clip-path="url(#p5197d272b9)" style="fill: #bebeff"/>
    <path d="M 339.512715 34.38 
L 339.512715 7.2 
L 341.5156 7.2 
L 341.5156 34.38 
L 339.512715 34.38 
z
" clip-path="url(#p5197d272b9)" style="fill: #bebeff"/>
    <path d="M 341.5156 34.38 
L 341.5156 7.2 
L 343.518484 7.2 
L 343.518484 34.38 
L 341.5156 34.38 
z
" clip-path="url(#p5197d272b9)" style="fill: #bebeff"/>
    <path d="M 343.518484 34.38 
L 343.518484 7.2 
L 345.521369 7.2 
L 345.521369 34.38 
L 343.518484 34.38 
z
" clip-path="url(#p5197d272b9)" style="fill: #ffdede"/>
    <path d="M 345.521369 34.38 
L 345.521369 7.2 
L 347.524253 7.2 
L 347.524253 34.38 
L 345.521369 34.38 
z
" clip-path="url(#p5197d272b9)" style="fill: #ffdcdc"/>
    <path d="M 347.524253 34.38 
L 347.524253 7.2 
L 349.527138 7.2 
L 349.527138 34.38 
L 347.524253 34.38 
z
" clip-path="url(#p5197d272b9)" style="fill: #ffdcdc"/>
    <path d="M 349.527138 34.38 
L 349.527138 7.2 
L 351.530022 7.2 
L 351.530022 34.38 
L 349.527138 34.38 
z
" clip-path="url(#p5197d272b9)" style="fill: #ffd6d6"/>
    <path d="M 351.530022 34.38 
L 351.530022 7.2 
L 353.532906 7.2 
L 353.532906 34.38 
L 351.530022 34.38 
z
" clip-path="url(#p5197d272b9)" style="fill: #ffd6d6"/>
    <path d="M 353.532906 34.38 
L 353.532906 7.2 
L 355.535791 7.2 
L 355.535791 34.38 
L 353.532906 34.38 
z
" clip-path="url(#p5197d272b9)" style="fill: #ffd6d6"/>
    <path d="M 355.535791 34.38 
L 355.535791 7.2 
L 357.538675 7.2 
L 357.538675 34.38 
L 355.535791 34.38 
z
" clip-path="url(#p5197d272b9)" style="fill: #ffd0d0"/>
    <path d="M 357.538675 34.38 
L 357.538675 7.2 
L 359.54156 7.2 
L 359.54156 34.38 
L 357.538675 34.38 
z
" clip-path="url(#p5197d272b9)" style="fill: #ffcece"/>
    <path d="M 359.54156 34.38 
L 359.54156 7.2 
L 361.544444 7.2 
L 361.544444 34.38 
L 359.54156 34.38 
z
" clip-path="url(#p5197d272b9)" style="fill: #ffd0d0"/>
    <path d="M 361.544444 34.38 
L 361.544444 7.2 
L 363.547328 7.2 
L 363.547328 34.38 
L 361.544444 34.38 
z
" clip-path="url(#p5197d272b9)" style="fill: #ffa2a2"/>
    <path d="M 363.547328 34.38 
L 363.547328 7.2 
L 365.550213 7.2 
L 365.550213 34.38 
L 363.547328 34.38 
z
" clip-path="url(#p5197d272b9)" style="fill: #ff9c9c"/>
    <path d="M 365.550213 34.38 
L 365.550213 7.2 
L 367.553097 7.2 
L 367.553097 34.38 
L 365.550213 34.38 
z
" clip-path="url(#p5197d272b9)" style="fill: #ffa4a4"/>
    <path d="M 367.553097 34.38 
L 367.553097 7.2 
L 369.555982 7.2 
L 369.555982 34.38 
L 367.553097 34.38 
z
" clip-path="url(#p5197d272b9)" style="fill: #ffc0c0"/>
    <path d="M 369.555982 34.38 
L 369.555982 7.2 
L 371.558866 7.2 
L 371.558866 34.38 
L 369.555982 34.38 
z
" clip-path="url(#p5197d272b9)" style="fill: #ffc8c8"/>
    <path d="M 371.558866 34.38 
L 371.558866 7.2 
L 373.561751 7.2 
L 373.561751 34.38 
L 371.558866 34.38 
z
" clip-path="url(#p5197d272b9)" style="fill: #ffc2c2"/>
    <path d="M 373.561751 34.38 
L 373.561751 7.2 
L 375.564635 7.2 
L 375.564635 34.38 
L 373.561751 34.38 
z
" clip-path="url(#p5197d272b9)" style="fill: #ffc0c0"/>
    <path d="M 375.564635 34.38 
L 375.564635 7.2 
L 377.567519 7.2 
L 377.567519 34.38 
L 375.564635 34.38 
z
" clip-path="url(#p5197d272b9)" style="fill: #ffb8b8"/>
    <path d="M 377.567519 34.38 
L 377.567519 7.2 
L 379.570404 7.2 
L 379.570404 34.38 
L 377.567519 34.38 
z
" clip-path="url(#p5197d272b9)" style="fill: #ffb8b8"/>
    <path d="M 379.570404 34.38 
L 379.570404 7.2 
L 381.573288 7.2 
L 381.573288 34.38 
L 379.570404 34.38 
z
" clip-path="url(#p5197d272b9)" style="fill: #ff9494"/>
    <path d="M 381.573288 34.38 
L 381.573288 7.2 
L 383.576173 7.2 
L 383.576173 34.38 
L 381.573288 34.38 
z
" clip-path="url(#p5197d272b9)" style="fill: #ff9898"/>
    <path d="M 383.576173 34.38 
L 383.576173 7.2 
L 385.579057 7.2 
L 385.579057 34.38 
L 383.576173 34.38 
z
" clip-path="url(#p5197d272b9)" style="fill: #ff9696"/>
    <path d="M 385.579057 34.38 
L 385.579057 7.2 
L 387.581942 7.2 
L 387.581942 34.38 
L 385.579057 34.38 
z
" clip-path="url(#p5197d272b9)" style="fill: #ff9292"/>
    <path d="M 387.581942 34.38 
L 387.581942 7.2 
L 389.584826 7.2 
L 389.584826 34.38 
L 387.581942 34.38 
z
" clip-path="url(#p5197d272b9)" style="fill: #ff9090"/>
    <path d="M 389.584826 34.38 
L 389.584826 7.2 
L 391.58771 7.2 
L 391.58771 34.38 
L 389.584826 34.38 
z
" clip-path="url(#p5197d272b9)" style="fill: #ffbcbc"/>
    <path d="M 391.58771 34.38 
L 391.58771 7.2 
L 393.590595 7.2 
L 393.590595 34.38 
L 391.58771 34.38 
z
" clip-path="url(#p5197d272b9)" style="fill: #ffb6b6"/>
    <path d="M 393.590595 34.38 
L 393.590595 7.2 
L 395.593479 7.2 
L 395.593479 34.38 
L 393.590595 34.38 
z
" clip-path="url(#p5197d272b9)" style="fill: #ffb8b8"/>
    <path d="M 395.593479 34.38 
L 395.593479 7.2 
L 397.596364 7.2 
L 397.596364 34.38 
L 395.593479 34.38 
z
" clip-path="url(#p5197d272b9)" style="fill: #ff9a9a"/>
    <path d="M 397.596364 34.38 
L 397.596364 7.2 
L 399.599248 7.2 
L 399.599248 34.38 
L 397.596364 34.38 
z
" clip-path="url(#p5197d272b9)" style="fill: #ff9292"/>
    <path d="M 399.599248 34.38 
L 399.599248 7.2 
L 401.602132 7.2 
L 401.602132 34.38 
L 399.599248 34.38 
z
" clip-path="url(#p5197d272b9)" style="fill: #ff9898"/>
    <path d="M 401.602132 34.38 
L 401.602132 7.2 
L 403.605017 7.2 
L 403.605017 34.38 
L 401.602132 34.38 
z
" clip-path="url(#p5197d272b9)" style="fill: #ff9898"/>
    <path d="M 403.605017 34.38 
L 403.605017 7.2 
L 405.607901 7.2 
L 405.607901 34.38 
L 403.605017 34.38 
z
" clip-path="url(#p5197d272b9)" style="fill: #ff9292"/>
    <path d="M 405.607901 34.38 
L 405.607901 7.2 
L 407.610786 7.2 
L 407.610786 34.38 
L 405.607901 34.38 
z
" clip-path="url(#p5197d272b9)" style="fill: #ff9494"/>
    <path d="M 407.610786 34.38 
L 407.610786 7.2 
L 409.61367 7.2 
L 409.61367 34.38 
L 407.610786 34.38 
z
" clip-path="url(#p5197d272b9)" style="fill: #7a7aff"/>
    <path d="M 409.61367 34.38 
L 409.61367 7.2 
L 411.616555 7.2 
L 411.616555 34.38 
L 409.61367 34.38 
z
" clip-path="url(#p5197d272b9)" style="fill: #8c8cff"/>
    <path d="M 411.616555 34.38 
L 411.616555 7.2 
L 413.619439 7.2 
L 413.619439 34.38 
L 411.616555 34.38 
z
" clip-path="url(#p5197d272b9)" style="fill: #9090ff"/>
    <path d="M 413.619439 34.38 
L 413.619439 7.2 
L 415.622323 7.2 
L 415.622323 34.38 
L 413.619439 34.38 
z
" clip-path="url(#p5197d272b9)" style="fill: #3434ff"/>
    <path d="M 415.622323 34.38 
L 415.622323 7.2 
L 417.625208 7.2 
L 417.625208 34.38 
L 415.622323 34.38 
z
" clip-path="url(#p5197d272b9)" style="fill: #ff7474"/>
    <path d="M 417.625208 34.38 
L 417.625208 7.2 
L 419.628092 7.2 
L 419.628092 34.38 
L 417.625208 34.38 
z
" clip-path="url(#p5197d272b9)" style="fill: #ffcccc"/>
    <path d="M 419.628092 34.38 
L 419.628092 7.2 
L 421.630977 7.2 
L 421.630977 34.38 
L 419.628092 34.38 
z
" clip-path="url(#p5197d272b9)" style="fill: #ff9898"/>
    <path d="M 421.630977 34.38 
L 421.630977 7.2 
L 423.633861 7.2 
L 423.633861 34.38 
L 421.630977 34.38 
z
" clip-path="url(#p5197d272b9)" style="fill: #ff9a9a"/>
    <path d="M 423.633861 34.38 
L 423.633861 7.2 
L 425.636746 7.2 
L 425.636746 34.38 
L 423.633861 34.38 
z
" clip-path="url(#p5197d272b9)" style="fill: #ffc0c0"/>
    <path d="M 425.636746 34.38 
L 425.636746 7.2 
L 427.63963 7.2 
L 427.63963 34.38 
L 425.636746 34.38 
z
" clip-path="url(#p5197d272b9)" style="fill: #ffb6b6"/>
    <path d="M 427.63963 34.38 
L 427.63963 7.2 
L 429.642514 7.2 
L 429.642514 34.38 
L 427.63963 34.38 
z
" clip-path="url(#p5197d272b9)" style="fill: #ffcaca"/>
    <path d="M 429.642514 34.38 
L 429.642514 7.2 
L 431.645399 7.2 
L 431.645399 34.38 
L 429.642514 34.38 
z
" clip-path="url(#p5197d272b9)" style="fill: #ff8a8a"/>
    <path d="M 431.645399 34.38 
L 431.645399 7.2 
L 433.648283 7.2 
L 433.648283 34.38 
L 431.645399 34.38 
z
" clip-path="url(#p5197d272b9)" style="fill: #ffdada"/>
    <path d="M 433.648283 34.38 
L 433.648283 7.2 
L 435.651168 7.2 
L 435.651168 34.38 
L 433.648283 34.38 
z
" clip-path="url(#p5197d272b9)" style="fill: #ffa8a8"/>
    <path d="M 435.651168 34.38 
L 435.651168 7.2 
L 437.654052 7.2 
L 437.654052 34.38 
L 435.651168 34.38 
z
" clip-path="url(#p5197d272b9)" style="fill: #fff4f4"/>
    <path d="M 437.654052 34.38 
L 437.654052 7.2 
L 439.656936 7.2 
L 439.656936 34.38 
L 437.654052 34.38 
z
" clip-path="url(#p5197d272b9)" style="fill: #ffeaea"/>
    <path d="M 439.656936 34.38 
L 439.656936 7.2 
L 441.659821 7.2 
L 441.659821 34.38 
L 439.656936 34.38 
z
" clip-path="url(#p5197d272b9)" style="fill: #f4f4ff"/>
    <path d="M 441.659821 34.38 
L 441.659821 7.2 
L 443.662705 7.2 
L 443.662705 34.38 
L 441.659821 34.38 
z
" clip-path="url(#p5197d272b9)" style="fill: #ececff"/>
    <path d="M 443.662705 34.38 
L 443.662705 7.2 
L 445.66559 7.2 
L 445.66559 34.38 
L 443.662705 34.38 
z
" clip-path="url(#p5197d272b9)" style="fill: #fffefe"/>
    <path d="M 445.66559 34.38 
L 445.66559 7.2 
L 447.668474 7.2 
L 447.668474 34.38 
L 445.66559 34.38 
z
" clip-path="url(#p5197d272b9)" style="fill: #ececff"/>
    <path d="M 447.668474 34.38 
L 447.668474 7.2 
L 449.671359 7.2 
L 449.671359 34.38 
L 447.668474 34.38 
z
" clip-path="url(#p5197d272b9)" style="fill: #e2e2ff"/>
    <path d="M 449.671359 34.38 
L 449.671359 7.2 
L 451.674243 7.2 
L 451.674243 34.38 
L 449.671359 34.38 
z
" clip-path="url(#p5197d272b9)" style="fill: #dadaff"/>
    <path d="M 451.674243 34.38 
L 451.674243 7.2 
L 453.677127 7.2 
L 453.677127 34.38 
L 451.674243 34.38 
z
" clip-path="url(#p5197d272b9)" style="fill: #d2d2ff"/>
    <path d="M 453.677127 34.38 
L 453.677127 7.2 
L 455.680012 7.2 
L 455.680012 34.38 
L 453.677127 34.38 
z
" clip-path="url(#p5197d272b9)" style="fill: #eeeeff"/>
    <path d="M 455.680012 34.38 
L 455.680012 7.2 
L 457.682896 7.2 
L 457.682896 34.38 
L 455.680012 34.38 
z
" clip-path="url(#p5197d272b9)" style="fill: #dedeff"/>
    <path d="M 457.682896 34.38 
L 457.682896 7.2 
L 459.685781 7.2 
L 459.685781 34.38 
L 457.682896 34.38 
z
" clip-path="url(#p5197d272b9)" style="fill: #eaeaff"/>
    <path d="M 459.685781 34.38 
L 459.685781 7.2 
L 461.688665 7.2 
L 461.688665 34.38 
L 459.685781 34.38 
z
" clip-path="url(#p5197d272b9)" style="fill: #eaeaff"/>
    <path d="M 461.688665 34.38 
L 461.688665 7.2 
L 463.69155 7.2 
L 463.69155 34.38 
L 461.688665 34.38 
z
" clip-path="url(#p5197d272b9)" style="fill: #e0e0ff"/>
    <path d="M 463.69155 34.38 
L 463.69155 7.2 
L 465.694434 7.2 
L 465.694434 34.38 
L 463.69155 34.38 
z
" clip-path="url(#p5197d272b9)" style="fill: #d2d2ff"/>
    <path d="M 465.694434 34.38 
L 465.694434 7.2 
L 467.697318 7.2 
L 467.697318 34.38 
L 465.694434 34.38 
z
" clip-path="url(#p5197d272b9)" style="fill: #c0c0ff"/>
    <path d="M 467.697318 34.38 
L 467.697318 7.2 
L 469.700203 7.2 
L 469.700203 34.38 
L 467.697318 34.38 
z
" clip-path="url(#p5197d272b9)" style="fill: #c2c2ff"/>
    <path d="M 469.700203 34.38 
L 469.700203 7.2 
L 471.703087 7.2 
L 471.703087 34.38 
L 469.700203 34.38 
z
" clip-path="url(#p5197d272b9)" style="fill: #ffdada"/>
    <path d="M 471.703087 34.38 
L 471.703087 7.2 
L 473.705972 7.2 
L 473.705972 34.38 
L 471.703087 34.38 
z
" clip-path="url(#p5197d272b9)" style="fill: #ffbebe"/>
    <path d="M 473.705972 34.38 
L 473.705972 7.2 
L 475.708856 7.2 
L 475.708856 34.38 
L 473.705972 34.38 
z
" clip-path="url(#p5197d272b9)" style="fill: #ff7c7c"/>
    <path d="M 475.708856 34.38 
L 475.708856 7.2 
L 477.711741 7.2 
L 477.711741 34.38 
L 475.708856 34.38 
z
" clip-path="url(#p5197d272b9)" style="fill: #ffdada"/>
    <path d="M 477.711741 34.38 
L 477.711741 7.2 
L 479.714625 7.2 
L 479.714625 34.38 
L 477.711741 34.38 
z
" clip-path="url(#p5197d272b9)" style="fill: #ffb4b4"/>
    <path d="M 479.714625 34.38 
L 479.714625 7.2 
L 481.717509 7.2 
L 481.717509 34.38 
L 479.714625 34.38 
z
" clip-path="url(#p5197d272b9)" style="fill: #ff2626"/>
    <path d="M 481.717509 34.38 
L 481.717509 7.2 
L 483.720394 7.2 
L 483.720394 34.38 
L 481.717509 34.38 
z
" clip-path="url(#p5197d272b9)" style="fill: #ffb4b4"/>
    <path d="M 483.720394 34.38 
L 483.720394 7.2 
L 485.723278 7.2 
L 485.723278 34.38 
L 483.720394 34.38 
z
" clip-path="url(#p5197d272b9)" style="fill: #ffacac"/>
    <path d="M 485.723278 34.38 
L 485.723278 7.2 
L 487.726163 7.2 
L 487.726163 34.38 
L 485.723278 34.38 
z
" clip-path="url(#p5197d272b9)" style="fill: #ffc2c2"/>
    <path d="M 487.726163 34.38 
L 487.726163 7.2 
L 489.729047 7.2 
L 489.729047 34.38 
L 487.726163 34.38 
z
" clip-path="url(#p5197d272b9)" style="fill: #ffa4a4"/>
    <path d="M 489.729047 34.38 
L 489.729047 7.2 
L 491.731931 7.2 
L 491.731931 34.38 
L 489.729047 34.38 
z
" clip-path="url(#p5197d272b9)" style="fill: #ff9090"/>
    <path d="M 491.731931 34.38 
L 491.731931 7.2 
L 493.734816 7.2 
L 493.734816 34.38 
L 491.731931 34.38 
z
" clip-path="url(#p5197d272b9)" style="fill: #ffa8a8"/>
    <path d="M 493.734816 34.38 
L 493.734816 7.2 
L 495.7377 7.2 
L 495.7377 34.38 
L 493.734816 34.38 
z
" clip-path="url(#p5197d272b9)" style="fill: #ffc2c2"/>
    <path d="M 495.7377 34.38 
L 495.7377 7.2 
L 497.740585 7.2 
L 497.740585 34.38 
L 495.7377 34.38 
z
" clip-path="url(#p5197d272b9)" style="fill: #ff9292"/>
    <path d="M 497.740585 34.38 
L 497.740585 7.2 
L 499.743469 7.2 
L 499.743469 34.38 
L 497.740585 34.38 
z
" clip-path="url(#p5197d272b9)" style="fill: #ff8e8e"/>
    <path d="M 499.743469 34.38 
L 499.743469 7.2 
L 501.746354 7.2 
L 501.746354 34.38 
L 499.743469 34.38 
z
" clip-path="url(#p5197d272b9)" style="fill: #ff5e5e"/>
    <path d="M 501.746354 34.38 
L 501.746354 7.2 
L 503.749238 7.2 
L 503.749238 34.38 
L 501.746354 34.38 
z
" clip-path="url(#p5197d272b9)" style="fill: #ffdada"/>
    <path d="M 503.749238 34.38 
L 503.749238 7.2 
L 505.752122 7.2 
L 505.752122 34.38 
L 503.749238 34.38 
z
" clip-path="url(#p5197d272b9)" style="fill: #ffdcdc"/>
    <path d="M 505.752122 34.38 
L 505.752122 7.2 
L 507.755007 7.2 
L 507.755007 34.38 
L 505.752122 34.38 
z
" clip-path="url(#p5197d272b9)" style="fill: #fff2f2"/>
    <path d="M 507.755007 34.38 
L 507.755007 7.2 
L 509.757891 7.2 
L 509.757891 34.38 
L 507.755007 34.38 
z
" clip-path="url(#p5197d272b9)" style="fill: #ffeaea"/>
    <path d="M 509.757891 34.38 
L 509.757891 7.2 
L 511.760776 7.2 
L 511.760776 34.38 
L 509.757891 34.38 
z
" clip-path="url(#p5197d272b9)" style="fill: #ffa8a8"/>
    <path d="M 511.760776 34.38 
L 511.760776 7.2 
L 513.76366 7.2 
L 513.76366 34.38 
L 511.760776 34.38 
z
" clip-path="url(#p5197d272b9)" style="fill: #ffb0b0"/>
    <path d="M 513.76366 34.38 
L 513.76366 7.2 
L 515.766545 7.2 
L 515.766545 34.38 
L 513.76366 34.38 
z
" clip-path="url(#p5197d272b9)" style="fill: #ff6060"/>
    <path d="M 515.766545 34.38 
L 515.766545 7.2 
L 517.769429 7.2 
L 517.769429 34.38 
L 515.766545 34.38 
z
" clip-path="url(#p5197d272b9)" style="fill: #ff7878"/>
    <path d="M 517.769429 34.38 
L 517.769429 7.2 
L 519.772313 7.2 
L 519.772313 34.38 
L 517.769429 34.38 
z
" clip-path="url(#p5197d272b9)" style="fill: #ff7272"/>
    <path d="M 519.772313 34.38 
L 519.772313 7.2 
L 521.775198 7.2 
L 521.775198 34.38 
L 519.772313 34.38 
z
" clip-path="url(#p5197d272b9)" style="fill: #ffb6b6"/>
    <path d="M 521.775198 34.38 
L 521.775198 7.2 
L 523.778082 7.2 
L 523.778082 34.38 
L 521.775198 34.38 
z
" clip-path="url(#p5197d272b9)" style="fill: #ff5a5a"/>
    <path d="M 523.778082 34.38 
L 523.778082 7.2 
L 525.780967 7.2 
L 525.780967 34.38 
L 523.778082 34.38 
z
" clip-path="url(#p5197d272b9)" style="fill: #ffa8a8"/>
    <path d="M 525.780967 34.38 
L 525.780967 7.2 
L 527.783851 7.2 
L 527.783851 34.38 
L 525.780967 34.38 
z
" clip-path="url(#p5197d272b9)" style="fill: #ffdcdc"/>
    <path d="M 527.783851 34.38 
L 527.783851 7.2 
L 529.786735 7.2 
L 529.786735 34.38 
L 527.783851 34.38 
z
" clip-path="url(#p5197d272b9)" style="fill: #ffd4d4"/>
    <path d="M 529.786735 34.38 
L 529.786735 7.2 
L 531.78962 7.2 
L 531.78962 34.38 
L 529.786735 34.38 
z
" clip-path="url(#p5197d272b9)" style="fill: #ffc0c0"/>
    <path d="M 531.78962 34.38 
L 531.78962 7.2 
L 533.792504 7.2 
L 533.792504 34.38 
L 531.78962 34.38 
z
" clip-path="url(#p5197d272b9)" style="fill: #ffa8a8"/>
    <path d="M 533.792504 34.38 
L 533.792504 7.2 
L 535.795389 7.2 
L 535.795389 34.38 
L 533.792504 34.38 
z
" clip-path="url(#p5197d272b9)" style="fill: #ffa4a4"/>
    <path d="M 535.795389 34.38 
L 535.795389 7.2 
L 537.798273 7.2 
L 537.798273 34.38 
L 535.795389 34.38 
z
" clip-path="url(#p5197d272b9)" style="fill: #ffaaaa"/>
    <path d="M 537.798273 34.38 
L 537.798273 7.2 
L 539.801158 7.2 
L 539.801158 34.38 
L 537.798273 34.38 
z
" clip-path="url(#p5197d272b9)" style="fill: #ff8686"/>
    <path d="M 539.801158 34.38 
L 539.801158 7.2 
L 541.804042 7.2 
L 541.804042 34.38 
L 539.801158 34.38 
z
" clip-path="url(#p5197d272b9)" style="fill: #ff8686"/>
    <path d="M 541.804042 34.38 
L 541.804042 7.2 
L 543.806926 7.2 
L 543.806926 34.38 
L 541.804042 34.38 
z
" clip-path="url(#p5197d272b9)" style="fill: #ff1010"/>
    <path d="M 543.806926 34.38 
L 543.806926 7.2 
L 545.809811 7.2 
L 545.809811 34.38 
L 543.806926 34.38 
z
" clip-path="url(#p5197d272b9)" style="fill: #ff1010"/>
    <path d="M 545.809811 34.38 
L 545.809811 7.2 
L 547.812695 7.2 
L 547.812695 34.38 
L 545.809811 34.38 
z
" clip-path="url(#p5197d272b9)" style="fill: #acacff"/>
    <path d="M 547.812695 34.38 
L 547.812695 7.2 
L 549.81558 7.2 
L 549.81558 34.38 
L 547.812695 34.38 
z
" clip-path="url(#p5197d272b9)" style="fill: #acacff"/>
    <path d="M 549.81558 34.38 
L 549.81558 7.2 
L 551.818464 7.2 
L 551.818464 34.38 
L 549.81558 34.38 
z
" clip-path="url(#p5197d272b9)" style="fill: #d8d8ff"/>
    <path d="M 551.818464 34.38 
L 551.818464 7.2 
L 553.821349 7.2 
L 553.821349 34.38 
L 551.818464 34.38 
z
" clip-path="url(#p5197d272b9)" style="fill: #d8d8ff"/>
    <path d="M 553.821349 34.38 
L 553.821349 7.2 
L 555.824233 7.2 
L 555.824233 34.38 
L 553.821349 34.38 
z
" clip-path="url(#p5197d272b9)" style="fill: #d8d8ff"/>
    <path d="M 555.824233 34.38 
L 555.824233 7.2 
L 557.827117 7.2 
L 557.827117 34.38 
L 555.824233 34.38 
z
" clip-path="url(#p5197d272b9)" style="fill: #8484ff"/>
    <path d="M 557.827117 34.38 
L 557.827117 7.2 
L 559.830002 7.2 
L 559.830002 34.38 
L 557.827117 34.38 
z
" clip-path="url(#p5197d272b9)" style="fill: #a0a0ff"/>
    <path d="M 559.830002 34.38 
L 559.830002 7.2 
L 561.832886 7.2 
L 561.832886 34.38 
L 559.830002 34.38 
z
" clip-path="url(#p5197d272b9)" style="fill: #9e9eff"/>
    <path d="M 561.832886 34.38 
L 561.832886 7.2 
L 563.835771 7.2 
L 563.835771 34.38 
L 561.832886 34.38 
z
" clip-path="url(#p5197d272b9)" style="fill: #dedeff"/>
    <path d="M 563.835771 34.38 
L 563.835771 7.2 
L 565.838655 7.2 
L 565.838655 34.38 
L 563.835771 34.38 
z
" clip-path="url(#p5197d272b9)" style="fill: #dadaff"/>
    <path d="M 565.838655 34.38 
L 565.838655 7.2 
L 567.841539 7.2 
L 567.841539 34.38 
L 565.838655 34.38 
z
" clip-path="url(#p5197d272b9)" style="fill: #dadaff"/>
    <path d="M 567.841539 34.38 
L 567.841539 7.2 
L 569.844424 7.2 
L 569.844424 34.38 
L 567.841539 34.38 
z
" clip-path="url(#p5197d272b9)" style="fill: #ff8484"/>
    <path d="M 569.844424 34.38 
L 569.844424 7.2 
L 571.847308 7.2 
L 571.847308 34.38 
L 569.844424 34.38 
z
" clip-path="url(#p5197d272b9)" style="fill: #ff8686"/>
    <path d="M 571.847308 34.38 
L 571.847308 7.2 
L 573.850193 7.2 
L 573.850193 34.38 
L 571.847308 34.38 
z
" clip-path="url(#p5197d272b9)" style="fill: #ff8888"/>
    <path d="M 573.850193 34.38 
L 573.850193 7.2 
L 575.853077 7.2 
L 575.853077 34.38 
L 573.850193 34.38 
z
" clip-path="url(#p5197d272b9)" style="fill: #ff9292"/>
    <path d="M 575.853077 34.38 
L 575.853077 7.2 
L 577.855962 7.2 
L 577.855962 34.38 
L 575.853077 34.38 
z
" clip-path="url(#p5197d272b9)" style="fill: #ffc6c6"/>
    <path d="M 577.855962 34.38 
L 577.855962 7.2 
L 579.858846 7.2 
L 579.858846 34.38 
L 577.855962 34.38 
z
" clip-path="url(#p5197d272b9)" style="fill: #ffb4b4"/>
    <path d="M 579.858846 34.38 
L 579.858846 7.2 
L 581.86173 7.2 
L 581.86173 34.38 
L 579.858846 34.38 
z
" clip-path="url(#p5197d272b9)" style="fill: #ffacac"/>
    <path d="M 581.86173 34.38 
L 581.86173 7.2 
L 583.864615 7.2 
L 583.864615 34.38 
L 581.86173 34.38 
z
" clip-path="url(#p5197d272b9)" style="fill: #ffaaaa"/>
    <path d="M 583.864615 34.38 
L 583.864615 7.2 
L 585.867499 7.2 
L 585.867499 34.38 
L 583.864615 34.38 
z
" clip-path="url(#p5197d272b9)" style="fill: #ffa8a8"/>
    <path d="M 585.867499 34.38 
L 585.867499 7.2 
L 587.870384 7.2 
L 587.870384 34.38 
L 585.867499 34.38 
z
" clip-path="url(#p5197d272b9)" style="fill: #ff8484"/>
    <path d="M 587.870384 34.38 
L 587.870384 7.2 
L 589.873268 7.2 
L 589.873268 34.38 
L 587.870384 34.38 
z
" clip-path="url(#p5197d272b9)" style="fill: #ff9090"/>
    <path d="M 589.873268 34.38 
L 589.873268 7.2 
L 591.876153 7.2 
L 591.876153 34.38 
L 589.873268 34.38 
z
" clip-path="url(#p5197d272b9)" style="fill: #ff9090"/>
    <path d="M 591.876153 34.38 
L 591.876153 7.2 
L 593.879037 7.2 
L 593.879037 34.38 
L 591.876153 34.38 
z
" clip-path="url(#p5197d272b9)" style="fill: #ff9e9e"/>
    <path d="M 593.879037 34.38 
L 593.879037 7.2 
L 595.881921 7.2 
L 595.881921 34.38 
L 593.879037 34.38 
z
" clip-path="url(#p5197d272b9)" style="fill: #ffa8a8"/>
    <path d="M 595.881921 34.38 
L 595.881921 7.2 
L 597.884806 7.2 
L 597.884806 34.38 
L 595.881921 34.38 
z
" clip-path="url(#p5197d272b9)" style="fill: #ffc4c4"/>
    <path d="M 597.884806 34.38 
L 597.884806 7.2 
L 599.88769 7.2 
L 599.88769 34.38 
L 597.884806 34.38 
z
" clip-path="url(#p5197d272b9)" style="fill: #ffd2d2"/>
    <path d="M 599.88769 34.38 
L 599.88769 7.2 
L 601.890575 7.2 
L 601.890575 34.38 
L 599.88769 34.38 
z
" clip-path="url(#p5197d272b9)" style="fill: #ff9c9c"/>
    <path d="M 601.890575 34.38 
L 601.890575 7.2 
L 603.893459 7.2 
L 603.893459 34.38 
L 601.890575 34.38 
z
" clip-path="url(#p5197d272b9)" style="fill: #ff9e9e"/>
    <path d="M 603.893459 34.38 
L 603.893459 7.2 
L 605.896343 7.2 
L 605.896343 34.38 
L 603.893459 34.38 
z
" clip-path="url(#p5197d272b9)" style="fill: #ffc6c6"/>
    <path d="M 605.896343 34.38 
L 605.896343 7.2 
L 607.899228 7.2 
L 607.899228 34.38 
L 605.896343 34.38 
z
" clip-path="url(#p5197d272b9)" style="fill: #ffc4c4"/>
    <path d="M 607.899228 34.38 
L 607.899228 7.2 
L 609.902112 7.2 
L 609.902112 34.38 
L 607.899228 34.38 
z
" clip-path="url(#p5197d272b9)" style="fill: #ffc4c4"/>
    <path d="M 609.902112 34.38 
L 609.902112 7.2 
L 611.904997 7.2 
L 611.904997 34.38 
L 609.902112 34.38 
z
" clip-path="url(#p5197d272b9)" style="fill: #ff8c8c"/>
    <path d="M 611.904997 34.38 
L 611.904997 7.2 
L 613.907881 7.2 
L 613.907881 34.38 
L 611.904997 34.38 
z
" clip-path="url(#p5197d272b9)" style="fill: #ffa4a4"/>
    <path d="M 613.907881 34.38 
L 613.907881 7.2 
L 615.910766 7.2 
L 615.910766 34.38 
L 613.907881 34.38 
z
" clip-path="url(#p5197d272b9)" style="fill: #ffa0a0"/>
    <path d="M 615.910766 34.38 
L 615.910766 7.2 
L 617.91365 7.2 
L 617.91365 34.38 
L 615.910766 34.38 
z
" clip-path="url(#p5197d272b9)" style="fill: #ffbcbc"/>
    <path d="M 617.91365 34.38 
L 617.91365 7.2 
L 619.916534 7.2 
L 619.916534 34.38 
L 617.91365 34.38 
z
" clip-path="url(#p5197d272b9)" style="fill: #ffc0c0"/>
    <path d="M 619.916534 34.38 
L 619.916534 7.2 
L 621.919419 7.2 
L 621.919419 34.38 
L 619.916534 34.38 
z
" clip-path="url(#p5197d272b9)" style="fill: #ffc4c4"/>
    <path d="M 621.919419 34.38 
L 621.919419 7.2 
L 623.922303 7.2 
L 623.922303 34.38 
L 621.919419 34.38 
z
" clip-path="url(#p5197d272b9)" style="fill: #ccccff"/>
    <path d="M 623.922303 34.38 
L 623.922303 7.2 
L 625.925188 7.2 
L 625.925188 34.38 
L 623.922303 34.38 
z
" clip-path="url(#p5197d272b9)" style="fill: #ccccff"/>
    <path d="M 625.925188 34.38 
L 625.925188 7.2 
L 627.928072 7.2 
L 627.928072 34.38 
L 625.925188 34.38 
z
" clip-path="url(#p5197d272b9)" style="fill: #ccccff"/>
    <path d="M 627.928072 34.38 
L 627.928072 7.2 
L 629.930957 7.2 
L 629.930957 34.38 
L 627.928072 34.38 
z
" clip-path="url(#p5197d272b9)" style="fill: #9898ff"/>
    <path d="M 629.930957 34.38 
L 629.930957 7.2 
L 631.933841 7.2 
L 631.933841 34.38 
L 629.930957 34.38 
z
" clip-path="url(#p5197d272b9)" style="fill: #a8a8ff"/>
    <path d="M 631.933841 34.38 
L 631.933841 7.2 
L 633.936725 7.2 
L 633.936725 34.38 
L 631.933841 34.38 
z
" clip-path="url(#p5197d272b9)" style="fill: #acacff"/>
    <path d="M 633.936725 34.38 
L 633.936725 7.2 
L 635.93961 7.2 
L 635.93961 34.38 
L 633.936725 34.38 
z
" clip-path="url(#p5197d272b9)" style="fill: #cacaff"/>
    <path d="M 635.93961 34.38 
L 635.93961 7.2 
L 637.942494 7.2 
L 637.942494 34.38 
L 635.93961 34.38 
z
" clip-path="url(#p5197d272b9)" style="fill: #bcbcff"/>
    <path d="M 637.942494 34.38 
L 637.942494 7.2 
L 639.945379 7.2 
L 639.945379 34.38 
L 637.942494 34.38 
z
" clip-path="url(#p5197d272b9)" style="fill: #b8b8ff"/>
    <path d="M 639.945379 34.38 
L 639.945379 7.2 
L 641.948263 7.2 
L 641.948263 34.38 
L 639.945379 34.38 
z
" clip-path="url(#p5197d272b9)" style="fill: #ffa6a6"/>
    <path d="M 641.948263 34.38 
L 641.948263 7.2 
L 643.951148 7.2 
L 643.951148 34.38 
L 641.948263 34.38 
z
" clip-path="url(#p5197d272b9)" style="fill: #ff9e9e"/>
    <path d="M 643.951148 34.38 
L 643.951148 7.2 
L 645.954032 7.2 
L 645.954032 34.38 
L 643.951148 34.38 
z
" clip-path="url(#p5197d272b9)" style="fill: #ffd0d0"/>
    <path d="M 645.954032 34.38 
L 645.954032 7.2 
L 647.956916 7.2 
L 647.956916 34.38 
L 645.954032 34.38 
z
" clip-path="url(#p5197d272b9)" style="fill: #ffd0d0"/>
    <path d="M 647.956916 34.38 
L 647.956916 7.2 
L 649.959801 7.2 
L 649.959801 34.38 
L 647.956916 34.38 
z
" clip-path="url(#p5197d272b9)" style="fill: #ffd2d2"/>
    <path d="M 649.959801 34.38 
L 649.959801 7.2 
L 651.962685 7.2 
L 651.962685 34.38 
L 649.959801 34.38 
z
" clip-path="url(#p5197d272b9)" style="fill: #ff7c7c"/>
    <path d="M 651.962685 34.38 
L 651.962685 7.2 
L 653.96557 7.2 
L 653.96557 34.38 
L 651.962685 34.38 
z
" clip-path="url(#p5197d272b9)" style="fill: #ff8c8c"/>
    <path d="M 653.96557 34.38 
L 653.96557 7.2 
L 655.968454 7.2 
L 655.968454 34.38 
L 653.96557 34.38 
z
" clip-path="url(#p5197d272b9)" style="fill: #ff8c8c"/>
    <path d="M 655.968454 34.38 
L 655.968454 7.2 
L 657.971338 7.2 
L 657.971338 34.38 
L 655.968454 34.38 
z
" clip-path="url(#p5197d272b9)" style="fill: #ffd4d4"/>
    <path d="M 657.971338 34.38 
L 657.971338 7.2 
L 659.974223 7.2 
L 659.974223 34.38 
L 657.971338 34.38 
z
" clip-path="url(#p5197d272b9)" style="fill: #ffd0d0"/>
    <path d="M 659.974223 34.38 
L 659.974223 7.2 
L 661.977107 7.2 
L 661.977107 34.38 
L 659.974223 34.38 
z
" clip-path="url(#p5197d272b9)" style="fill: #ffd0d0"/>
    <path d="M 661.977107 34.38 
L 661.977107 7.2 
L 663.979992 7.2 
L 663.979992 34.38 
L 661.977107 34.38 
z
" clip-path="url(#p5197d272b9)" style="fill: #ff8686"/>
    <path d="M 663.979992 34.38 
L 663.979992 7.2 
L 665.982876 7.2 
L 665.982876 34.38 
L 663.979992 34.38 
z
" clip-path="url(#p5197d272b9)" style="fill: #8888ff"/>
    <path d="M 665.982876 34.38 
L 665.982876 7.2 
L 667.985761 7.2 
L 667.985761 34.38 
L 665.982876 34.38 
z
" clip-path="url(#p5197d272b9)" style="fill: #9c9cff"/>
    <path d="M 667.985761 34.38 
L 667.985761 7.2 
L 669.988645 7.2 
L 669.988645 34.38 
L 667.985761 34.38 
z
" clip-path="url(#p5197d272b9)" style="fill: #9292ff"/>
    <path d="M 669.988645 34.38 
L 669.988645 7.2 
L 671.991529 7.2 
L 671.991529 34.38 
L 669.988645 34.38 
z
" clip-path="url(#p5197d272b9)" style="fill: #bebeff"/>
    <path d="M 671.991529 34.38 
L 671.991529 7.2 
L 673.994414 7.2 
L 673.994414 34.38 
L 671.991529 34.38 
z
" clip-path="url(#p5197d272b9)" style="fill: #c6c6ff"/>
    <path d="M 673.994414 34.38 
L 673.994414 7.2 
L 675.997298 7.2 
L 675.997298 34.38 
L 673.994414 34.38 
z
" clip-path="url(#p5197d272b9)" style="fill: #c4c4ff"/>
    <path d="M 675.997298 34.38 
L 675.997298 7.2 
L 678.000183 7.2 
L 678.000183 34.38 
L 675.997298 34.38 
z
" clip-path="url(#p5197d272b9)" style="fill: #5c5cff"/>
    <path d="M 678.000183 34.38 
L 678.000183 7.2 
L 680.003067 7.2 
L 680.003067 34.38 
L 678.000183 34.38 
z
" clip-path="url(#p5197d272b9)" style="fill: #b2b2ff"/>
    <path d="M 680.003067 34.38 
L 680.003067 7.2 
L 682.005952 7.2 
L 682.005952 34.38 
L 680.003067 34.38 
z
" clip-path="url(#p5197d272b9)" style="fill: #9a9aff"/>
    <path d="M 682.005952 34.38 
L 682.005952 7.2 
L 684.008836 7.2 
L 684.008836 34.38 
L 682.005952 34.38 
z
" clip-path="url(#p5197d272b9)" style="fill: #babaff"/>
    <path d="M 684.008836 34.38 
L 684.008836 7.2 
L 686.01172 7.2 
L 686.01172 34.38 
L 684.008836 34.38 
z
" clip-path="url(#p5197d272b9)" style="fill: #bebeff"/>
    <path d="M 686.01172 34.38 
L 686.01172 7.2 
L 688.014605 7.2 
L 688.014605 34.38 
L 686.01172 34.38 
z
" clip-path="url(#p5197d272b9)" style="fill: #b8b8ff"/>
    <path d="M 688.014605 34.38 
L 688.014605 7.2 
L 690.017489 7.2 
L 690.017489 34.38 
L 688.014605 34.38 
z
" clip-path="url(#p5197d272b9)" style="fill: #ffeaea"/>
    <path d="M 690.017489 34.38 
L 690.017489 7.2 
L 692.020374 7.2 
L 692.020374 34.38 
L 690.017489 34.38 
z
" clip-path="url(#p5197d272b9)" style="fill: #ffdcdc"/>
    <path d="M 692.020374 34.38 
L 692.020374 7.2 
L 694.023258 7.2 
L 694.023258 34.38 
L 692.020374 34.38 
z
" clip-path="url(#p5197d272b9)" style="fill: #ffdada"/>
    <path d="M 694.023258 34.38 
L 694.023258 7.2 
L 696.026142 7.2 
L 696.026142 34.38 
L 694.023258 34.38 
z
" clip-path="url(#p5197d272b9)" style="fill: #ffdcdc"/>
    <path d="M 696.026142 34.38 
L 696.026142 7.2 
L 698.029027 7.2 
L 698.029027 34.38 
L 696.026142 34.38 
z
" clip-path="url(#p5197d272b9)" style="fill: #ffdcdc"/>
    <path d="M 698.029027 34.38 
L 698.029027 7.2 
L 700.031911 7.2 
L 700.031911 34.38 
L 698.029027 34.38 
z
" clip-path="url(#p5197d272b9)" style="fill: #ffe2e2"/>
    <path d="M 700.031911 34.38 
L 700.031911 7.2 
L 702.034796 7.2 
L 702.034796 34.38 
L 700.031911 34.38 
z
" clip-path="url(#p5197d272b9)" style="fill: #ffe0e0"/>
    <path d="M 702.034796 34.38 
L 702.034796 7.2 
L 704.03768 7.2 
L 704.03768 34.38 
L 702.034796 34.38 
z
" clip-path="url(#p5197d272b9)" style="fill: #ffcaca"/>
    <path d="M 704.03768 34.38 
L 704.03768 7.2 
L 706.040565 7.2 
L 706.040565 34.38 
L 704.03768 34.38 
z
" clip-path="url(#p5197d272b9)" style="fill: #ffcece"/>
    <path d="M 706.040565 34.38 
L 706.040565 7.2 
L 708.043449 7.2 
L 708.043449 34.38 
L 706.040565 34.38 
z
" clip-path="url(#p5197d272b9)" style="fill: #ffcccc"/>
    <path d="M 708.043449 34.38 
L 708.043449 7.2 
L 710.046333 7.2 
L 710.046333 34.38 
L 708.043449 34.38 
z
" clip-path="url(#p5197d272b9)" style="fill: #ff5a5a"/>
    <path d="M 710.046333 34.38 
L 710.046333 7.2 
L 712.049218 7.2 
L 712.049218 34.38 
L 710.046333 34.38 
z
" clip-path="url(#p5197d272b9)" style="fill: #ff5e5e"/>
    <path d="M 712.049218 34.38 
L 712.049218 7.2 
L 714.052102 7.2 
L 714.052102 34.38 
L 712.049218 34.38 
z
" clip-path="url(#p5197d272b9)" style="fill: #ff6464"/>
    <path d="M 714.052102 34.38 
L 714.052102 7.2 
L 716.054987 7.2 
L 716.054987 34.38 
L 714.052102 34.38 
z
" clip-path="url(#p5197d272b9)" style="fill: #ffc8c8"/>
    <path d="M 716.054987 34.38 
L 716.054987 7.2 
L 718.057871 7.2 
L 718.057871 34.38 
L 716.054987 34.38 
z
" clip-path="url(#p5197d272b9)" style="fill: #ffc8c8"/>
    <path d="M 718.057871 34.38 
L 718.057871 7.2 
L 720.060756 7.2 
L 720.060756 34.38 
L 718.057871 34.38 
z
" clip-path="url(#p5197d272b9)" style="fill: #ffcaca"/>
    <path d="M 720.060756 34.38 
L 720.060756 7.2 
L 722.06364 7.2 
L 722.06364 34.38 
L 720.060756 34.38 
z
" clip-path="url(#p5197d272b9)" style="fill: #ff2222"/>
    <path d="M 722.06364 34.38 
L 722.06364 7.2 
L 724.066524 7.2 
L 724.066524 34.38 
L 722.06364 34.38 
z
" clip-path="url(#p5197d272b9)" style="fill: #ff2222"/>
    <path d="M 724.066524 34.38 
L 724.066524 7.2 
L 726.069409 7.2 
L 726.069409 34.38 
L 724.066524 34.38 
z
" clip-path="url(#p5197d272b9)" style="fill: #ff2222"/>
    <path d="M 726.069409 34.38 
L 726.069409 7.2 
L 728.072293 7.2 
L 728.072293 34.38 
L 726.069409 34.38 
z
" clip-path="url(#p5197d272b9)" style="fill: #ffb8b8"/>
    <path d="M 728.072293 34.38 
L 728.072293 7.2 
L 730.075178 7.2 
L 730.075178 34.38 
L 728.072293 34.38 
z
" clip-path="url(#p5197d272b9)" style="fill: #ffb8b8"/>
    <path d="M 730.075178 34.38 
L 730.075178 7.2 
L 732.078062 7.2 
L 732.078062 34.38 
L 730.075178 34.38 
z
" clip-path="url(#p5197d272b9)" style="fill: #ffb6b6"/>
    <path d="M 732.078062 34.38 
L 732.078062 7.2 
L 734.080946 7.2 
L 734.080946 34.38 
L 732.078062 34.38 
z
" clip-path="url(#p5197d272b9)" style="fill: #ff4646"/>
    <path d="M 734.080946 34.38 
L 734.080946 7.2 
L 736.083831 7.2 
L 736.083831 34.38 
L 734.080946 34.38 
z
" clip-path="url(#p5197d272b9)" style="fill: #ff5050"/>
    <path d="M 736.083831 34.38 
L 736.083831 7.2 
L 738.086715 7.2 
L 738.086715 34.38 
L 736.083831 34.38 
z
" clip-path="url(#p5197d272b9)" style="fill: #ff4a4a"/>
    <path d="M 738.086715 34.38 
L 738.086715 7.2 
L 740.0896 7.2 
L 740.0896 34.38 
L 738.086715 34.38 
z
" clip-path="url(#p5197d272b9)" style="fill: #ffaaaa"/>
    <path d="M 740.0896 34.38 
L 740.0896 7.2 
L 742.092484 7.2 
L 742.092484 34.38 
L 740.0896 34.38 
z
" clip-path="url(#p5197d272b9)" style="fill: #ffa4a4"/>
    <path d="M 742.092484 34.38 
L 742.092484 7.2 
L 744.095369 7.2 
L 744.095369 34.38 
L 742.092484 34.38 
z
" clip-path="url(#p5197d272b9)" style="fill: #ffa6a6"/>
    <path d="M 744.095369 34.38 
L 744.095369 7.2 
L 746.098253 7.2 
L 746.098253 34.38 
L 744.095369 34.38 
z
" clip-path="url(#p5197d272b9)" style="fill: #ff5a5a"/>
    <path d="M 746.098253 34.38 
L 746.098253 7.2 
L 748.101137 7.2 
L 748.101137 34.38 
L 746.098253 34.38 
z
" clip-path="url(#p5197d272b9)" style="fill: #ff4444"/>
    <path d="M 748.101137 34.38 
L 748.101137 7.2 
L 750.104022 7.2 
L 750.104022 34.38 
L 748.101137 34.38 
z
" clip-path="url(#p5197d272b9)" style="fill: #ff4646"/>
    <path d="M 750.104022 34.38 
L 750.104022 7.2 
L 752.106906 7.2 
L 752.106906 34.38 
L 750.104022 34.38 
z
" clip-path="url(#p5197d272b9)" style="fill: #ffb6b6"/>
    <path d="M 752.106906 34.38 
L 752.106906 7.2 
L 754.109791 7.2 
L 754.109791 34.38 
L 752.106906 34.38 
z
" clip-path="url(#p5197d272b9)" style="fill: #ffb6b6"/>
    <path d="M 754.109791 34.38 
L 754.109791 7.2 
L 756.112675 7.2 
L 756.112675 34.38 
L 754.109791 34.38 
z
" clip-path="url(#p5197d272b9)" style="fill: #ffb8b8"/>
    <path d="M 756.112675 34.38 
L 756.112675 7.2 
L 758.11556 7.2 
L 758.11556 34.38 
L 756.112675 34.38 
z
" clip-path="url(#p5197d272b9)" style="fill: #ff6464"/>
    <path d="M 758.11556 34.38 
L 758.11556 7.2 
L 760.118444 7.2 
L 760.118444 34.38 
L 758.11556 34.38 
z
" clip-path="url(#p5197d272b9)" style="fill: #ff5858"/>
    <path d="M 760.118444 34.38 
L 760.118444 7.2 
L 762.121328 7.2 
L 762.121328 34.38 
L 760.118444 34.38 
z
" clip-path="url(#p5197d272b9)" style="fill: #ff6464"/>
    <path d="M 762.121328 34.38 
L 762.121328 7.2 
L 764.124213 7.2 
L 764.124213 34.38 
L 762.121328 34.38 
z
" clip-path="url(#p5197d272b9)" style="fill: #ffaeae"/>
    <path d="M 764.124213 34.38 
L 764.124213 7.2 
L 766.127097 7.2 
L 766.127097 34.38 
L 764.124213 34.38 
z
" clip-path="url(#p5197d272b9)" style="fill: #ffa2a2"/>
    <path d="M 766.127097 34.38 
L 766.127097 7.2 
L 768.129982 7.2 
L 768.129982 34.38 
L 766.127097 34.38 
z
" clip-path="url(#p5197d272b9)" style="fill: #ffa4a4"/>
    <path d="M 768.129982 34.38 
L 768.129982 7.2 
L 770.132866 7.2 
L 770.132866 34.38 
L 768.129982 34.38 
z
" clip-path="url(#p5197d272b9)" style="fill: #4c4cff"/>
    <path d="M 770.132866 34.38 
L 770.132866 7.2 
L 772.135751 7.2 
L 772.135751 34.38 
L 770.132866 34.38 
z
" clip-path="url(#p5197d272b9)" style="fill: #1616ff"/>
    <path d="M 772.135751 34.38 
L 772.135751 7.2 
L 774.138635 7.2 
L 774.138635 34.38 
L 772.135751 34.38 
z
" clip-path="url(#p5197d272b9)" style="fill: #1e1eff"/>
    <path d="M 774.138635 34.38 
L 774.138635 7.2 
L 776.141519 7.2 
L 776.141519 34.38 
L 774.138635 34.38 
z
" clip-path="url(#p5197d272b9)" style="fill: #5858ff"/>
    <path d="M 776.141519 34.38 
L 776.141519 7.2 
L 778.144404 7.2 
L 778.144404 34.38 
L 776.141519 34.38 
z
" clip-path="url(#p5197d272b9)" style="fill: #0000ff"/>
    <path d="M 778.144404 34.38 
L 778.144404 7.2 
L 780.147288 7.2 
L 780.147288 34.38 
L 778.144404 34.38 
z
" clip-path="url(#p5197d272b9)" style="fill: #8888ff"/>
    <path d="M 780.147288 34.38 
L 780.147288 7.2 
L 782.150173 7.2 
L 782.150173 34.38 
L 780.147288 34.38 
z
" clip-path="url(#p5197d272b9)" style="fill: #ffe0e0"/>
    <path d="M 782.150173 34.38 
L 782.150173 7.2 
L 784.153057 7.2 
L 784.153057 34.38 
L 782.150173 34.38 
z
" clip-path="url(#p5197d272b9)" style="fill: #b6b6ff"/>
    <path d="M 784.153057 34.38 
L 784.153057 7.2 
L 786.155941 7.2 
L 786.155941 34.38 
L 784.153057 34.38 
z
" clip-path="url(#p5197d272b9)" style="fill: #aeaeff"/>
    <path d="M 786.155941 34.38 
L 786.155941 7.2 
L 788.158826 7.2 
L 788.158826 34.38 
L 786.155941 34.38 
z
" clip-path="url(#p5197d272b9)" style="fill: #ffc2c2"/>
    <path d="M 788.158826 34.38 
L 788.158826 7.2 
L 790.16171 7.2 
L 790.16171 34.38 
L 788.158826 34.38 
z
" clip-path="url(#p5197d272b9)" style="fill: #ffc2c2"/>
    <path d="M 790.16171 34.38 
L 790.16171 7.2 
L 792.164595 7.2 
L 792.164595 34.38 
L 790.16171 34.38 
z
" clip-path="url(#p5197d272b9)" style="fill: #d6d6ff"/>
    <path d="M 792.164595 34.38 
L 792.164595 7.2 
L 794.167479 7.2 
L 794.167479 34.38 
L 792.164595 34.38 
z
" clip-path="url(#p5197d272b9)" style="fill: #ff1818"/>
    <path d="M 794.167479 34.38 
L 794.167479 7.2 
L 796.170364 7.2 
L 796.170364 34.38 
L 794.167479 34.38 
z
" clip-path="url(#p5197d272b9)" style="fill: #ffdede"/>
    <path d="M 796.170364 34.38 
L 796.170364 7.2 
L 798.173248 7.2 
L 798.173248 34.38 
L 796.170364 34.38 
z
" clip-path="url(#p5197d272b9)" style="fill: #ffa0a0"/>
    <path d="M 798.173248 34.38 
L 798.173248 7.2 
L 800.176132 7.2 
L 800.176132 34.38 
L 798.173248 34.38 
z
" clip-path="url(#p5197d272b9)" style="fill: #ffc4c4"/>
    <path d="M 800.176132 34.38 
L 800.176132 7.2 
L 802.179017 7.2 
L 802.179017 34.38 
L 800.176132 34.38 
z
" clip-path="url(#p5197d272b9)" style="fill: #ffa0a0"/>
    <path d="M 802.179017 34.38 
L 802.179017 7.2 
L 804.181901 7.2 
L 804.181901 34.38 
L 802.179017 34.38 
z
" clip-path="url(#p5197d272b9)" style="fill: #ff9090"/>
    <path d="M 804.181901 34.38 
L 804.181901 7.2 
L 806.184786 7.2 
L 806.184786 34.38 
L 804.181901 34.38 
z
" clip-path="url(#p5197d272b9)" style="fill: #ffc2c2"/>
    <path d="M 806.184786 34.38 
L 806.184786 7.2 
L 808.18767 7.2 
L 808.18767 34.38 
L 806.184786 34.38 
z
" clip-path="url(#p5197d272b9)" style="fill: #ffb4b4"/>
    <path d="M 808.18767 34.38 
L 808.18767 7.2 
L 810.190555 7.2 
L 810.190555 34.38 
L 808.18767 34.38 
z
" clip-path="url(#p5197d272b9)" style="fill: #ffaaaa"/>
    <path d="M 810.190555 34.38 
L 810.190555 7.2 
L 812.193439 7.2 
L 812.193439 34.38 
L 810.190555 34.38 
z
" clip-path="url(#p5197d272b9)" style="fill: #ffc4c4"/>
    <path d="M 812.193439 34.38 
L 812.193439 7.2 
L 814.196323 7.2 
L 814.196323 34.38 
L 812.193439 34.38 
z
" clip-path="url(#p5197d272b9)" style="fill: #ffb4b4"/>
    <path d="M 814.196323 34.38 
L 814.196323 7.2 
L 816.199208 7.2 
L 816.199208 34.38 
L 814.196323 34.38 
z
" clip-path="url(#p5197d272b9)" style="fill: #ff8484"/>
    <path d="M 816.199208 34.38 
L 816.199208 7.2 
L 818.202092 7.2 
L 818.202092 34.38 
L 816.199208 34.38 
z
" clip-path="url(#p5197d272b9)" style="fill: #ffc8c8"/>
    <path d="M 818.202092 34.38 
L 818.202092 7.2 
L 820.204977 7.2 
L 820.204977 34.38 
L 818.202092 34.38 
z
" clip-path="url(#p5197d272b9)" style="fill: #ffc6c6"/>
    <path d="M 820.204977 34.38 
L 820.204977 7.2 
L 822.207861 7.2 
L 822.207861 34.38 
L 820.204977 34.38 
z
" clip-path="url(#p5197d272b9)" style="fill: #c6c6ff"/>
    <path d="M 822.207861 34.38 
L 822.207861 7.2 
L 824.210745 7.2 
L 824.210745 34.38 
L 822.207861 34.38 
z
" clip-path="url(#p5197d272b9)" style="fill: #b8b8ff"/>
    <path d="M 824.210745 34.38 
L 824.210745 7.2 
L 826.21363 7.2 
L 826.21363 34.38 
L 824.210745 34.38 
z
" clip-path="url(#p5197d272b9)" style="fill: #ffc4c4"/>
    <path d="M 826.21363 34.38 
L 826.21363 7.2 
L 828.216514 7.2 
L 828.216514 34.38 
L 826.21363 34.38 
z
" clip-path="url(#p5197d272b9)" style="fill: #eeeeff"/>
    <path d="M 828.216514 34.38 
L 828.216514 7.2 
L 830.219399 7.2 
L 830.219399 34.38 
L 828.216514 34.38 
z
" clip-path="url(#p5197d272b9)" style="fill: #fff4f4"/>
    <path d="M 830.219399 34.38 
L 830.219399 7.2 
L 832.222283 7.2 
L 832.222283 34.38 
L 830.219399 34.38 
z
" clip-path="url(#p5197d272b9)" style="fill: #b6b6ff"/>
    <path d="M 832.222283 34.38 
L 832.222283 7.2 
L 834.225168 7.2 
L 834.225168 34.38 
L 832.222283 34.38 
z
" clip-path="url(#p5197d272b9)" style="fill: #e0e0ff"/>
    <path d="M 834.225168 34.38 
L 834.225168 7.2 
L 836.228052 7.2 
L 836.228052 34.38 
L 834.225168 34.38 
z
" clip-path="url(#p5197d272b9)" style="fill: #e4e4ff"/>
    <path d="M 836.228052 34.38 
L 836.228052 7.2 
L 838.230936 7.2 
L 838.230936 34.38 
L 836.228052 34.38 
z
" clip-path="url(#p5197d272b9)" style="fill: #ffc8c8"/>
    <path d="M 838.230936 34.38 
L 838.230936 7.2 
L 840.233821 7.2 
L 840.233821 34.38 
L 838.230936 34.38 
z
" clip-path="url(#p5197d272b9)" style="fill: #ffa2a2"/>
    <path d="M 840.233821 34.38 
L 840.233821 7.2 
L 842.236705 7.2 
L 842.236705 34.38 
L 840.233821 34.38 
z
" clip-path="url(#p5197d272b9)" style="fill: #ffb2b2"/>
    <path d="M 842.236705 34.38 
L 842.236705 7.2 
L 844.23959 7.2 
L 844.23959 34.38 
L 842.236705 34.38 
z
" clip-path="url(#p5197d272b9)" style="fill: #ffcaca"/>
    <path d="M 844.23959 34.38 
L 844.23959 7.2 
L 846.242474 7.2 
L 846.242474 34.38 
L 844.23959 34.38 
z
" clip-path="url(#p5197d272b9)" style="fill: #ffaeae"/>
    <path d="M 846.242474 34.38 
L 846.242474 7.2 
L 848.245359 7.2 
L 848.245359 34.38 
L 846.242474 34.38 
z
" clip-path="url(#p5197d272b9)" style="fill: #ffa2a2"/>
    <path d="M 848.245359 34.38 
L 848.245359 7.2 
L 850.248243 7.2 
L 850.248243 34.38 
L 848.245359 34.38 
z
" clip-path="url(#p5197d272b9)" style="fill: #c8c8ff"/>
    <path d="M 850.248243 34.38 
L 850.248243 7.2 
L 852.251127 7.2 
L 852.251127 34.38 
L 850.248243 34.38 
z
" clip-path="url(#p5197d272b9)" style="fill: #ffd4d4"/>
    <path d="M 852.251127 34.38 
L 852.251127 7.2 
L 854.254012 7.2 
L 854.254012 34.38 
L 852.251127 34.38 
z
" clip-path="url(#p5197d272b9)" style="fill: #ffb4b4"/>
    <path d="M 854.254012 34.38 
L 854.254012 7.2 
L 856.256896 7.2 
L 856.256896 34.38 
L 854.254012 34.38 
z
" clip-path="url(#p5197d272b9)" style="fill: #ffbcbc"/>
    <path d="M 856.256896 34.38 
L 856.256896 7.2 
L 858.259781 7.2 
L 858.259781 34.38 
L 856.256896 34.38 
z
" clip-path="url(#p5197d272b9)" style="fill: #ffc6c6"/>
    <path d="M 858.259781 34.38 
L 858.259781 7.2 
L 860.262665 7.2 
L 860.262665 34.38 
L 858.259781 34.38 
z
" clip-path="url(#p5197d272b9)" style="fill: #ffc6c6"/>
    <path d="M 860.262665 34.38 
L 860.262665 7.2 
L 862.265549 7.2 
L 862.265549 34.38 
L 860.262665 34.38 
z
" clip-path="url(#p5197d272b9)" style="fill: #bebeff"/>
    <path d="M 862.265549 34.38 
L 862.265549 7.2 
L 864.268434 7.2 
L 864.268434 34.38 
L 862.265549 34.38 
z
" clip-path="url(#p5197d272b9)" style="fill: #cacaff"/>
    <path d="M 864.268434 34.38 
L 864.268434 7.2 
L 866.271318 7.2 
L 866.271318 34.38 
L 864.268434 34.38 
z
" clip-path="url(#p5197d272b9)" style="fill: #ceceff"/>
    <path d="M 866.271318 34.38 
L 866.271318 7.2 
L 868.274203 7.2 
L 868.274203 34.38 
L 866.271318 34.38 
z
" clip-path="url(#p5197d272b9)" style="fill: #b8b8ff"/>
    <path d="M 868.274203 34.38 
L 868.274203 7.2 
L 870.277087 7.2 
L 870.277087 34.38 
L 868.274203 34.38 
z
" clip-path="url(#p5197d272b9)" style="fill: #c8c8ff"/>
    <path d="M 870.277087 34.38 
L 870.277087 7.2 
L 872.279972 7.2 
L 872.279972 34.38 
L 870.277087 34.38 
z
" clip-path="url(#p5197d272b9)" style="fill: #c6c6ff"/>
    <path d="M 872.279972 34.38 
L 872.279972 7.2 
L 874.282856 7.2 
L 874.282856 34.38 
L 872.279972 34.38 
z
" clip-path="url(#p5197d272b9)" style="fill: #ffe6e6"/>
    <path d="M 874.282856 34.38 
L 874.282856 7.2 
L 876.28574 7.2 
L 876.28574 34.38 
L 874.282856 34.38 
z
" clip-path="url(#p5197d272b9)" style="fill: #ffd4d4"/>
    <path d="M 876.28574 34.38 
L 876.28574 7.2 
L 878.288625 7.2 
L 878.288625 34.38 
L 876.28574 34.38 
z
" clip-path="url(#p5197d272b9)" style="fill: #ffdada"/>
    <path d="M 878.288625 34.38 
L 878.288625 7.2 
L 880.291509 7.2 
L 880.291509 34.38 
L 878.288625 34.38 
z
" clip-path="url(#p5197d272b9)" style="fill: #ffa0a0"/>
    <path d="M 880.291509 34.38 
L 880.291509 7.2 
L 882.294394 7.2 
L 882.294394 34.38 
L 880.291509 34.38 
z
" clip-path="url(#p5197d272b9)" style="fill: #ffcaca"/>
    <path d="M 882.294394 34.38 
L 882.294394 7.2 
L 884.297278 7.2 
L 884.297278 34.38 
L 882.294394 34.38 
z
" clip-path="url(#p5197d272b9)" style="fill: #ffb4b4"/>
    <path d="M 884.297278 34.38 
L 884.297278 7.2 
L 886.300163 7.2 
L 886.300163 34.38 
L 884.297278 34.38 
z
" clip-path="url(#p5197d272b9)" style="fill: #ffdada"/>
    <path d="M 886.300163 34.38 
L 886.300163 7.2 
L 888.303047 7.2 
L 888.303047 34.38 
L 886.300163 34.38 
z
" clip-path="url(#p5197d272b9)" style="fill: #9090ff"/>
    <path d="M 888.303047 34.38 
L 888.303047 7.2 
L 890.305931 7.2 
L 890.305931 34.38 
L 888.303047 34.38 
z
" clip-path="url(#p5197d272b9)" style="fill: #ceceff"/>
    <path d="M 890.305931 34.38 
L 890.305931 7.2 
L 892.308816 7.2 
L 892.308816 34.38 
L 890.305931 34.38 
z
" clip-path="url(#p5197d272b9)" style="fill: #c4c4ff"/>
    <path d="M 892.308816 34.38 
L 892.308816 7.2 
L 894.3117 7.2 
L 894.3117 34.38 
L 892.308816 34.38 
z
" clip-path="url(#p5197d272b9)" style="fill: #c8c8ff"/>
    <path d="M 894.3117 34.38 
L 894.3117 7.2 
L 896.314585 7.2 
L 896.314585 34.38 
L 894.3117 34.38 
z
" clip-path="url(#p5197d272b9)" style="fill: #c8c8ff"/>
    <path d="M 896.314585 34.38 
L 896.314585 7.2 
L 898.317469 7.2 
L 898.317469 34.38 
L 896.314585 34.38 
z
" clip-path="url(#p5197d272b9)" style="fill: #ceceff"/>
    <path d="M 898.317469 34.38 
L 898.317469 7.2 
L 900.320353 7.2 
L 900.320353 34.38 
L 898.317469 34.38 
z
" clip-path="url(#p5197d272b9)" style="fill: #ffe2e2"/>
    <path d="M 900.320353 34.38 
L 900.320353 7.2 
L 902.323238 7.2 
L 902.323238 34.38 
L 900.320353 34.38 
z
" clip-path="url(#p5197d272b9)" style="fill: #ffdcdc"/>
    <path d="M 902.323238 34.38 
L 902.323238 7.2 
L 904.326122 7.2 
L 904.326122 34.38 
L 902.323238 34.38 
z
" clip-path="url(#p5197d272b9)" style="fill: #ffdede"/>
    <path d="M 904.326122 34.38 
L 904.326122 7.2 
L 906.329007 7.2 
L 906.329007 34.38 
L 904.326122 34.38 
z
" clip-path="url(#p5197d272b9)" style="fill: #ffdcdc"/>
    <path d="M 906.329007 34.38 
L 906.329007 7.2 
L 908.331891 7.2 
L 908.331891 34.38 
L 906.329007 34.38 
z
" clip-path="url(#p5197d272b9)" style="fill: #ffe0e0"/>
    <path d="M 908.331891 34.38 
L 908.331891 7.2 
L 910.334776 7.2 
L 910.334776 34.38 
L 908.331891 34.38 
z
" clip-path="url(#p5197d272b9)" style="fill: #ffd6d6"/>
    <path d="M 910.334776 34.38 
L 910.334776 7.2 
L 912.33766 7.2 
L 912.33766 34.38 
L 910.334776 34.38 
z
" clip-path="url(#p5197d272b9)" style="fill: #ffcccc"/>
    <path d="M 912.33766 34.38 
L 912.33766 7.2 
L 914.340544 7.2 
L 914.340544 34.38 
L 912.33766 34.38 
z
" clip-path="url(#p5197d272b9)" style="fill: #ffd0d0"/>
    <path d="M 914.340544 34.38 
L 914.340544 7.2 
L 916.343429 7.2 
L 916.343429 34.38 
L 914.340544 34.38 
z
" clip-path="url(#p5197d272b9)" style="fill: #ffd0d0"/>
    <path d="M 916.343429 34.38 
L 916.343429 7.2 
L 918.346313 7.2 
L 918.346313 34.38 
L 916.343429 34.38 
z
" clip-path="url(#p5197d272b9)" style="fill: #ffd6d6"/>
    <path d="M 918.346313 34.38 
L 918.346313 7.2 
L 920.349198 7.2 
L 920.349198 34.38 
L 918.346313 34.38 
z
" clip-path="url(#p5197d272b9)" style="fill: #ffcccc"/>
    <path d="M 920.349198 34.38 
L 920.349198 7.2 
L 922.352082 7.2 
L 922.352082 34.38 
L 920.349198 34.38 
z
" clip-path="url(#p5197d272b9)" style="fill: #ffc8c8"/>
    <path d="M 922.352082 34.38 
L 922.352082 7.2 
L 924.354967 7.2 
L 924.354967 34.38 
L 922.352082 34.38 
z
" clip-path="url(#p5197d272b9)" style="fill: #ffc4c4"/>
    <path d="M 924.354967 34.38 
L 924.354967 7.2 
L 926.357851 7.2 
L 926.357851 34.38 
L 924.354967 34.38 
z
" clip-path="url(#p5197d272b9)" style="fill: #ffd2d2"/>
    <path d="M 926.357851 34.38 
L 926.357851 7.2 
L 928.360735 7.2 
L 928.360735 34.38 
L 926.357851 34.38 
z
" clip-path="url(#p5197d272b9)" style="fill: #ffcece"/>
    <path d="M 928.360735 34.38 
L 928.360735 7.2 
L 930.36362 7.2 
L 930.36362 34.38 
L 928.360735 34.38 
z
" clip-path="url(#p5197d272b9)" style="fill: #ffcccc"/>
   </g>
   <g id="patch_3">
    <path d="M 81.140625 34.38 
L 81.140625 7.2 
" style="fill: none; stroke: #262626; stroke-width: 1.25; stroke-linejoin: miter; stroke-linecap: square"/>
   </g>
   <g id="patch_4">
    <path d="M 930.36362 34.38 
L 930.36362 7.2 
" style="fill: none; stroke: #262626; stroke-width: 1.25; stroke-linejoin: miter; stroke-linecap: square"/>
   </g>
   <g id="patch_5">
    <path d="M 81.140625 34.38 
L 930.36362 34.38 
" style="fill: none; stroke: #262626; stroke-width: 1.25; stroke-linejoin: miter; stroke-linecap: square"/>
   </g>
   <g id="patch_6">
    <path d="M 81.140625 7.2 
L 930.36362 7.2 
" style="fill: none; stroke: #262626; stroke-width: 1.25; stroke-linejoin: miter; stroke-linecap: square"/>
   </g>
   <g id="text_6">
    <text style="fill: #262626; font: 18px 'sans-serif'; text-anchor: middle" x="245.377148" y="64.278" transform="rotate(-0, 245.377148, 64.278)">Cells</text>
   </g>
   <g id="text_7">
    <text style="fill: #262626; font: 18px 'sans-serif'; text-anchor: middle" x="589.873268" y="64.278" transform="rotate(-0, 589.873268, 64.278)">Cytoplasm</text>
   </g>
   <g id="text_8">
    <text style="fill: #262626; font: 18px 'sans-serif'; text-anchor: middle" x="850.248243" y="64.278" transform="rotate(-0, 850.248243, 64.278)">Nuclei</text>
   </g>
  </g>
 </g>
 <defs>
  <clipPath id="p5197d272b9">
   <rect x="81.140625" y="7.2" width="849.222995" height="27.18"/>
  </clipPath>
 </defs>
</svg>
